G04 #@! TF.GenerationSoftware,KiCad,Pcbnew,(5.1.2-1)-1*
G04 #@! TF.CreationDate,2019-08-12T17:05:30-07:00*
G04 #@! TF.ProjectId,powersupply,706f7765-7273-4757-9070-6c792e6b6963,rev?*
G04 #@! TF.SameCoordinates,Original*
G04 #@! TF.FileFunction,Soldermask,Bot*
G04 #@! TF.FilePolarity,Negative*
%FSLAX46Y46*%
G04 Gerber Fmt 4.6, Leading zero omitted, Abs format (unit mm)*
G04 Created by KiCad (PCBNEW (5.1.2-1)-1) date 2019-08-12 17:05:30*
%MOMM*%
%LPD*%
G04 APERTURE LIST*
%ADD10C,0.100000*%
G04 APERTURE END LIST*
D10*
G36*
X86495256Y-86341298D02*
G01*
X86601579Y-86362447D01*
X86814037Y-86450450D01*
X86855248Y-86467520D01*
X86902042Y-86486903D01*
X87172451Y-86667585D01*
X87402415Y-86897549D01*
X87583097Y-87167958D01*
X87680716Y-87403630D01*
X87707553Y-87468422D01*
X87771000Y-87787389D01*
X87771000Y-88112611D01*
X87736340Y-88286856D01*
X87707553Y-88431579D01*
X87583097Y-88732042D01*
X87402415Y-89002451D01*
X87172451Y-89232415D01*
X86902042Y-89413097D01*
X86601579Y-89537553D01*
X86495256Y-89558702D01*
X86282611Y-89601000D01*
X85957389Y-89601000D01*
X85744744Y-89558702D01*
X85638421Y-89537553D01*
X85337958Y-89413097D01*
X85067549Y-89232415D01*
X84837585Y-89002451D01*
X84656903Y-88732042D01*
X84532447Y-88431579D01*
X84503660Y-88286856D01*
X84469000Y-88112611D01*
X84469000Y-87787389D01*
X84532447Y-87468422D01*
X84559285Y-87403630D01*
X84656903Y-87167958D01*
X84837585Y-86897549D01*
X85067549Y-86667585D01*
X85337958Y-86486903D01*
X85384753Y-86467520D01*
X85425963Y-86450450D01*
X85638421Y-86362447D01*
X85744744Y-86341298D01*
X85957389Y-86299000D01*
X86282611Y-86299000D01*
X86495256Y-86341298D01*
X86495256Y-86341298D01*
G37*
G36*
X32645256Y-86341298D02*
G01*
X32751579Y-86362447D01*
X32964037Y-86450450D01*
X33005248Y-86467520D01*
X33052042Y-86486903D01*
X33322451Y-86667585D01*
X33552415Y-86897549D01*
X33733097Y-87167958D01*
X33830716Y-87403630D01*
X33857553Y-87468422D01*
X33921000Y-87787389D01*
X33921000Y-88112611D01*
X33886340Y-88286856D01*
X33857553Y-88431579D01*
X33733097Y-88732042D01*
X33552415Y-89002451D01*
X33322451Y-89232415D01*
X33052042Y-89413097D01*
X32751579Y-89537553D01*
X32645256Y-89558702D01*
X32432611Y-89601000D01*
X32107389Y-89601000D01*
X31894744Y-89558702D01*
X31788421Y-89537553D01*
X31487958Y-89413097D01*
X31217549Y-89232415D01*
X30987585Y-89002451D01*
X30806903Y-88732042D01*
X30682447Y-88431579D01*
X30653660Y-88286856D01*
X30619000Y-88112611D01*
X30619000Y-87787389D01*
X30682447Y-87468422D01*
X30709285Y-87403630D01*
X30806903Y-87167958D01*
X30987585Y-86897549D01*
X31217549Y-86667585D01*
X31487958Y-86486903D01*
X31534753Y-86467520D01*
X31575963Y-86450450D01*
X31788421Y-86362447D01*
X31894744Y-86341298D01*
X32107389Y-86299000D01*
X32432611Y-86299000D01*
X32645256Y-86341298D01*
X32645256Y-86341298D01*
G37*
G36*
X78296000Y-89066000D02*
G01*
X77344000Y-89066000D01*
X77344000Y-88114000D01*
X78296000Y-88114000D01*
X78296000Y-89066000D01*
X78296000Y-89066000D01*
G37*
G36*
X69970787Y-81725462D02*
G01*
X69970790Y-81725463D01*
X69970789Y-81725463D01*
X70617029Y-81993144D01*
X71198631Y-82381758D01*
X71693242Y-82876369D01*
X72081856Y-83457971D01*
X72081856Y-83457972D01*
X72349538Y-84104213D01*
X72486000Y-84790256D01*
X72486000Y-85489744D01*
X72349538Y-86175787D01*
X72298501Y-86299000D01*
X72081856Y-86822029D01*
X71693242Y-87403631D01*
X71198631Y-87898242D01*
X70617029Y-88286856D01*
X70267636Y-88431579D01*
X69970787Y-88554538D01*
X69284744Y-88691000D01*
X68585256Y-88691000D01*
X67899213Y-88554538D01*
X67602364Y-88431579D01*
X67252971Y-88286856D01*
X66671369Y-87898242D01*
X66176758Y-87403631D01*
X65788144Y-86822029D01*
X65571499Y-86299000D01*
X65520462Y-86175787D01*
X65384000Y-85489744D01*
X65384000Y-84790256D01*
X65520462Y-84104213D01*
X65788144Y-83457972D01*
X65788144Y-83457971D01*
X66176758Y-82876369D01*
X66671369Y-82381758D01*
X67252971Y-81993144D01*
X67899211Y-81725463D01*
X67899210Y-81725463D01*
X67899213Y-81725462D01*
X68585256Y-81589000D01*
X69284744Y-81589000D01*
X69970787Y-81725462D01*
X69970787Y-81725462D01*
G37*
G36*
X50920787Y-81725462D02*
G01*
X50920790Y-81725463D01*
X50920789Y-81725463D01*
X51567029Y-81993144D01*
X52148631Y-82381758D01*
X52643242Y-82876369D01*
X53031856Y-83457971D01*
X53031856Y-83457972D01*
X53299538Y-84104213D01*
X53436000Y-84790256D01*
X53436000Y-85489744D01*
X53299538Y-86175787D01*
X53248501Y-86299000D01*
X53031856Y-86822029D01*
X52643242Y-87403631D01*
X52148631Y-87898242D01*
X51567029Y-88286856D01*
X51217636Y-88431579D01*
X50920787Y-88554538D01*
X50234744Y-88691000D01*
X49535256Y-88691000D01*
X48849213Y-88554538D01*
X48552364Y-88431579D01*
X48202971Y-88286856D01*
X47621369Y-87898242D01*
X47126758Y-87403631D01*
X46738144Y-86822029D01*
X46521499Y-86299000D01*
X46470462Y-86175787D01*
X46334000Y-85489744D01*
X46334000Y-84790256D01*
X46470462Y-84104213D01*
X46738144Y-83457972D01*
X46738144Y-83457971D01*
X47126758Y-82876369D01*
X47621369Y-82381758D01*
X48202971Y-81993144D01*
X48849211Y-81725463D01*
X48849210Y-81725463D01*
X48849213Y-81725462D01*
X49535256Y-81589000D01*
X50234744Y-81589000D01*
X50920787Y-81725462D01*
X50920787Y-81725462D01*
G37*
G36*
X42131000Y-87861000D02*
G01*
X40429000Y-87861000D01*
X40429000Y-86159000D01*
X42131000Y-86159000D01*
X42131000Y-87861000D01*
X42131000Y-87861000D01*
G37*
G36*
X39028228Y-86191703D02*
G01*
X39183100Y-86255853D01*
X39322481Y-86348985D01*
X39441015Y-86467519D01*
X39534147Y-86606900D01*
X39598297Y-86761772D01*
X39631000Y-86926184D01*
X39631000Y-87093816D01*
X39598297Y-87258228D01*
X39534147Y-87413100D01*
X39441015Y-87552481D01*
X39322481Y-87671015D01*
X39183100Y-87764147D01*
X39028228Y-87828297D01*
X38863816Y-87861000D01*
X38696184Y-87861000D01*
X38531772Y-87828297D01*
X38376900Y-87764147D01*
X38237519Y-87671015D01*
X38118985Y-87552481D01*
X38025853Y-87413100D01*
X37961703Y-87258228D01*
X37929000Y-87093816D01*
X37929000Y-86926184D01*
X37961703Y-86761772D01*
X38025853Y-86606900D01*
X38118985Y-86467519D01*
X38237519Y-86348985D01*
X38376900Y-86255853D01*
X38531772Y-86191703D01*
X38696184Y-86159000D01*
X38863816Y-86159000D01*
X39028228Y-86191703D01*
X39028228Y-86191703D01*
G37*
G36*
X78316000Y-85016000D02*
G01*
X77364000Y-85016000D01*
X77364000Y-84064000D01*
X78316000Y-84064000D01*
X78316000Y-85016000D01*
X78316000Y-85016000D01*
G37*
G36*
X40248228Y-80721703D02*
G01*
X40403100Y-80785853D01*
X40542481Y-80878985D01*
X40661015Y-80997519D01*
X40754147Y-81136900D01*
X40818297Y-81291772D01*
X40851000Y-81456184D01*
X40851000Y-81623816D01*
X40818297Y-81788228D01*
X40754147Y-81943100D01*
X40661015Y-82082481D01*
X40542481Y-82201015D01*
X40403100Y-82294147D01*
X40248228Y-82358297D01*
X40083816Y-82391000D01*
X39916184Y-82391000D01*
X39751772Y-82358297D01*
X39596900Y-82294147D01*
X39457519Y-82201015D01*
X39338985Y-82082481D01*
X39245853Y-81943100D01*
X39181703Y-81788228D01*
X39149000Y-81623816D01*
X39149000Y-81456184D01*
X39181703Y-81291772D01*
X39245853Y-81136900D01*
X39338985Y-80997519D01*
X39457519Y-80878985D01*
X39596900Y-80785853D01*
X39751772Y-80721703D01*
X39916184Y-80689000D01*
X40083816Y-80689000D01*
X40248228Y-80721703D01*
X40248228Y-80721703D01*
G37*
G36*
X61611000Y-81741000D02*
G01*
X59809000Y-81741000D01*
X59809000Y-79939000D01*
X61611000Y-79939000D01*
X61611000Y-81741000D01*
X61611000Y-81741000D01*
G37*
G36*
X58280443Y-79945519D02*
G01*
X58346627Y-79952037D01*
X58516466Y-80003557D01*
X58672991Y-80087222D01*
X58708729Y-80116552D01*
X58810186Y-80199814D01*
X58893448Y-80301271D01*
X58922778Y-80337009D01*
X59006443Y-80493534D01*
X59057963Y-80663373D01*
X59075359Y-80840000D01*
X59057963Y-81016627D01*
X59006443Y-81186466D01*
X58922778Y-81342991D01*
X58893448Y-81378729D01*
X58810186Y-81480186D01*
X58708729Y-81563448D01*
X58672991Y-81592778D01*
X58516466Y-81676443D01*
X58346627Y-81727963D01*
X58280442Y-81734482D01*
X58214260Y-81741000D01*
X58125740Y-81741000D01*
X58059558Y-81734482D01*
X57993373Y-81727963D01*
X57823534Y-81676443D01*
X57667009Y-81592778D01*
X57631271Y-81563448D01*
X57529814Y-81480186D01*
X57446552Y-81378729D01*
X57417222Y-81342991D01*
X57333557Y-81186466D01*
X57282037Y-81016627D01*
X57264641Y-80840000D01*
X57282037Y-80663373D01*
X57333557Y-80493534D01*
X57417222Y-80337009D01*
X57446552Y-80301271D01*
X57529814Y-80199814D01*
X57631271Y-80116552D01*
X57667009Y-80087222D01*
X57823534Y-80003557D01*
X57993373Y-79952037D01*
X58059557Y-79945519D01*
X58125740Y-79939000D01*
X58214260Y-79939000D01*
X58280443Y-79945519D01*
X58280443Y-79945519D01*
G37*
G36*
X80107142Y-77978242D02*
G01*
X80255101Y-78039529D01*
X80388255Y-78128499D01*
X80501501Y-78241745D01*
X80590471Y-78374899D01*
X80651758Y-78522858D01*
X80683000Y-78679925D01*
X80683000Y-78840075D01*
X80651758Y-78997142D01*
X80590471Y-79145101D01*
X80501501Y-79278255D01*
X80388255Y-79391501D01*
X80255101Y-79480471D01*
X80107142Y-79541758D01*
X79950075Y-79573000D01*
X79789925Y-79573000D01*
X79632858Y-79541758D01*
X79484899Y-79480471D01*
X79351745Y-79391501D01*
X79238499Y-79278255D01*
X79149529Y-79145101D01*
X79088242Y-78997142D01*
X79057000Y-78840075D01*
X79057000Y-78679925D01*
X79088242Y-78522858D01*
X79149529Y-78374899D01*
X79238499Y-78241745D01*
X79351745Y-78128499D01*
X79484899Y-78039529D01*
X79632858Y-77978242D01*
X79789925Y-77947000D01*
X79950075Y-77947000D01*
X80107142Y-77978242D01*
X80107142Y-77978242D01*
G37*
G36*
X82647142Y-77978242D02*
G01*
X82795101Y-78039529D01*
X82928255Y-78128499D01*
X83041501Y-78241745D01*
X83130471Y-78374899D01*
X83191758Y-78522858D01*
X83223000Y-78679925D01*
X83223000Y-78840075D01*
X83191758Y-78997142D01*
X83130471Y-79145101D01*
X83041501Y-79278255D01*
X82928255Y-79391501D01*
X82795101Y-79480471D01*
X82647142Y-79541758D01*
X82490075Y-79573000D01*
X82329925Y-79573000D01*
X82172858Y-79541758D01*
X82024899Y-79480471D01*
X81891745Y-79391501D01*
X81778499Y-79278255D01*
X81689529Y-79145101D01*
X81628242Y-78997142D01*
X81597000Y-78840075D01*
X81597000Y-78679925D01*
X81628242Y-78522858D01*
X81689529Y-78374899D01*
X81778499Y-78241745D01*
X81891745Y-78128499D01*
X82024899Y-78039529D01*
X82172858Y-77978242D01*
X82329925Y-77947000D01*
X82490075Y-77947000D01*
X82647142Y-77978242D01*
X82647142Y-77978242D01*
G37*
G36*
X85187142Y-77978242D02*
G01*
X85335101Y-78039529D01*
X85468255Y-78128499D01*
X85581501Y-78241745D01*
X85670471Y-78374899D01*
X85731758Y-78522858D01*
X85763000Y-78679925D01*
X85763000Y-78840075D01*
X85731758Y-78997142D01*
X85670471Y-79145101D01*
X85581501Y-79278255D01*
X85468255Y-79391501D01*
X85335101Y-79480471D01*
X85187142Y-79541758D01*
X85030075Y-79573000D01*
X84869925Y-79573000D01*
X84712858Y-79541758D01*
X84564899Y-79480471D01*
X84431745Y-79391501D01*
X84318499Y-79278255D01*
X84229529Y-79145101D01*
X84168242Y-78997142D01*
X84137000Y-78840075D01*
X84137000Y-78679925D01*
X84168242Y-78522858D01*
X84229529Y-78374899D01*
X84318499Y-78241745D01*
X84431745Y-78128499D01*
X84564899Y-78039529D01*
X84712858Y-77978242D01*
X84869925Y-77947000D01*
X85030075Y-77947000D01*
X85187142Y-77978242D01*
X85187142Y-77978242D01*
G37*
G36*
X32656000Y-78506000D02*
G01*
X31704000Y-78506000D01*
X31704000Y-77554000D01*
X32656000Y-77554000D01*
X32656000Y-78506000D01*
X32656000Y-78506000D01*
G37*
G36*
X53328228Y-76031703D02*
G01*
X53483100Y-76095853D01*
X53622481Y-76188985D01*
X53741015Y-76307519D01*
X53834147Y-76446900D01*
X53898297Y-76601772D01*
X53931000Y-76766184D01*
X53931000Y-76933816D01*
X53898297Y-77098228D01*
X53834147Y-77253100D01*
X53741015Y-77392481D01*
X53622481Y-77511015D01*
X53483100Y-77604147D01*
X53328228Y-77668297D01*
X53163816Y-77701000D01*
X52996184Y-77701000D01*
X52831772Y-77668297D01*
X52676900Y-77604147D01*
X52537519Y-77511015D01*
X52418985Y-77392481D01*
X52325853Y-77253100D01*
X52261703Y-77098228D01*
X52229000Y-76933816D01*
X52229000Y-76766184D01*
X52261703Y-76601772D01*
X52325853Y-76446900D01*
X52418985Y-76307519D01*
X52537519Y-76188985D01*
X52676900Y-76095853D01*
X52831772Y-76031703D01*
X52996184Y-75999000D01*
X53163816Y-75999000D01*
X53328228Y-76031703D01*
X53328228Y-76031703D01*
G37*
G36*
X58303512Y-73543927D02*
G01*
X58452812Y-73573624D01*
X58616784Y-73641544D01*
X58764354Y-73740147D01*
X58889853Y-73865646D01*
X58988456Y-74013216D01*
X59056376Y-74177188D01*
X59091000Y-74351259D01*
X59091000Y-74528741D01*
X59056376Y-74702812D01*
X58988456Y-74866784D01*
X58889853Y-75014354D01*
X58764354Y-75139853D01*
X58616784Y-75238456D01*
X58452812Y-75306376D01*
X58397362Y-75317405D01*
X58373922Y-75324516D01*
X58352311Y-75336067D01*
X58333369Y-75351613D01*
X58317824Y-75370555D01*
X58306273Y-75392165D01*
X58299160Y-75415614D01*
X58296758Y-75440000D01*
X58299160Y-75464387D01*
X58306273Y-75487835D01*
X58317824Y-75509446D01*
X58333370Y-75528388D01*
X58352312Y-75543933D01*
X58373922Y-75555484D01*
X58397362Y-75562595D01*
X58452812Y-75573624D01*
X58616784Y-75641544D01*
X58764354Y-75740147D01*
X58889853Y-75865646D01*
X58988456Y-76013216D01*
X59056376Y-76177188D01*
X59091000Y-76351259D01*
X59091000Y-76528741D01*
X59056376Y-76702812D01*
X58988456Y-76866784D01*
X58889853Y-77014354D01*
X58764354Y-77139853D01*
X58616784Y-77238456D01*
X58452812Y-77306376D01*
X58303512Y-77336073D01*
X58278742Y-77341000D01*
X58101258Y-77341000D01*
X58076488Y-77336073D01*
X57927188Y-77306376D01*
X57763216Y-77238456D01*
X57615646Y-77139853D01*
X57490147Y-77014354D01*
X57391544Y-76866784D01*
X57323624Y-76702812D01*
X57289000Y-76528741D01*
X57289000Y-76351259D01*
X57323624Y-76177188D01*
X57391544Y-76013216D01*
X57490147Y-75865646D01*
X57615646Y-75740147D01*
X57763216Y-75641544D01*
X57927188Y-75573624D01*
X57982638Y-75562595D01*
X58006078Y-75555484D01*
X58027689Y-75543933D01*
X58046631Y-75528387D01*
X58062176Y-75509445D01*
X58073727Y-75487835D01*
X58080840Y-75464386D01*
X58083242Y-75440000D01*
X58080840Y-75415613D01*
X58073727Y-75392165D01*
X58062176Y-75370554D01*
X58046630Y-75351612D01*
X58027688Y-75336067D01*
X58006078Y-75324516D01*
X57982638Y-75317405D01*
X57927188Y-75306376D01*
X57763216Y-75238456D01*
X57615646Y-75139853D01*
X57490147Y-75014354D01*
X57391544Y-74866784D01*
X57323624Y-74702812D01*
X57289000Y-74528741D01*
X57289000Y-74351259D01*
X57323624Y-74177188D01*
X57391544Y-74013216D01*
X57490147Y-73865646D01*
X57615646Y-73740147D01*
X57763216Y-73641544D01*
X57927188Y-73573624D01*
X58076488Y-73543927D01*
X58101258Y-73539000D01*
X58278742Y-73539000D01*
X58303512Y-73543927D01*
X58303512Y-73543927D01*
G37*
G36*
X64378228Y-75541703D02*
G01*
X64533100Y-75605853D01*
X64672481Y-75698985D01*
X64791015Y-75817519D01*
X64884147Y-75956900D01*
X64948297Y-76111772D01*
X64981000Y-76276184D01*
X64981000Y-76443816D01*
X64948297Y-76608228D01*
X64884147Y-76763100D01*
X64791015Y-76902481D01*
X64672481Y-77021015D01*
X64533100Y-77114147D01*
X64378228Y-77178297D01*
X64213816Y-77211000D01*
X64046184Y-77211000D01*
X63881772Y-77178297D01*
X63726900Y-77114147D01*
X63587519Y-77021015D01*
X63468985Y-76902481D01*
X63375853Y-76763100D01*
X63311703Y-76608228D01*
X63279000Y-76443816D01*
X63279000Y-76276184D01*
X63311703Y-76111772D01*
X63375853Y-75956900D01*
X63468985Y-75817519D01*
X63587519Y-75698985D01*
X63726900Y-75605853D01*
X63881772Y-75541703D01*
X64046184Y-75509000D01*
X64213816Y-75509000D01*
X64378228Y-75541703D01*
X64378228Y-75541703D01*
G37*
G36*
X67481000Y-77211000D02*
G01*
X65779000Y-77211000D01*
X65779000Y-75509000D01*
X67481000Y-75509000D01*
X67481000Y-77211000D01*
X67481000Y-77211000D01*
G37*
G36*
X53328228Y-73531703D02*
G01*
X53483100Y-73595853D01*
X53622481Y-73688985D01*
X53741015Y-73807519D01*
X53834147Y-73946900D01*
X53898297Y-74101772D01*
X53931000Y-74266184D01*
X53931000Y-74433816D01*
X53898297Y-74598228D01*
X53834147Y-74753100D01*
X53741015Y-74892481D01*
X53622481Y-75011015D01*
X53483100Y-75104147D01*
X53328228Y-75168297D01*
X53163816Y-75201000D01*
X52996184Y-75201000D01*
X52831772Y-75168297D01*
X52676900Y-75104147D01*
X52537519Y-75011015D01*
X52418985Y-74892481D01*
X52325853Y-74753100D01*
X52261703Y-74598228D01*
X52229000Y-74433816D01*
X52229000Y-74266184D01*
X52261703Y-74101772D01*
X52325853Y-73946900D01*
X52418985Y-73807519D01*
X52537519Y-73688985D01*
X52676900Y-73595853D01*
X52831772Y-73531703D01*
X52996184Y-73499000D01*
X53163816Y-73499000D01*
X53328228Y-73531703D01*
X53328228Y-73531703D01*
G37*
G36*
X46808228Y-73291703D02*
G01*
X46963100Y-73355853D01*
X47102481Y-73448985D01*
X47221015Y-73567519D01*
X47314147Y-73706900D01*
X47378297Y-73861772D01*
X47411000Y-74026184D01*
X47411000Y-74193816D01*
X47378297Y-74358228D01*
X47314147Y-74513100D01*
X47221015Y-74652481D01*
X47102481Y-74771015D01*
X46963100Y-74864147D01*
X46808228Y-74928297D01*
X46643816Y-74961000D01*
X46476184Y-74961000D01*
X46311772Y-74928297D01*
X46156900Y-74864147D01*
X46017519Y-74771015D01*
X45898985Y-74652481D01*
X45805853Y-74513100D01*
X45741703Y-74358228D01*
X45709000Y-74193816D01*
X45709000Y-74026184D01*
X45741703Y-73861772D01*
X45805853Y-73706900D01*
X45898985Y-73567519D01*
X46017519Y-73448985D01*
X46156900Y-73355853D01*
X46311772Y-73291703D01*
X46476184Y-73259000D01*
X46643816Y-73259000D01*
X46808228Y-73291703D01*
X46808228Y-73291703D01*
G37*
G36*
X76371000Y-73741000D02*
G01*
X74069000Y-73741000D01*
X74069000Y-71439000D01*
X76371000Y-71439000D01*
X76371000Y-73741000D01*
X76371000Y-73741000D01*
G37*
G36*
X83009271Y-71450103D02*
G01*
X83065635Y-71455654D01*
X83282600Y-71521470D01*
X83282602Y-71521471D01*
X83482555Y-71628347D01*
X83657818Y-71772182D01*
X83801653Y-71947445D01*
X83908529Y-72147398D01*
X83908530Y-72147400D01*
X83933890Y-72231000D01*
X83974346Y-72364366D01*
X83996569Y-72590000D01*
X83974346Y-72815634D01*
X83908529Y-73032602D01*
X83801653Y-73232555D01*
X83657818Y-73407818D01*
X83482555Y-73551653D01*
X83314379Y-73641544D01*
X83282600Y-73658530D01*
X83065635Y-73724346D01*
X83009271Y-73729897D01*
X82896545Y-73741000D01*
X82783455Y-73741000D01*
X82670729Y-73729897D01*
X82614365Y-73724346D01*
X82397400Y-73658530D01*
X82365621Y-73641544D01*
X82197445Y-73551653D01*
X82022182Y-73407818D01*
X81878347Y-73232555D01*
X81771471Y-73032602D01*
X81705654Y-72815634D01*
X81683431Y-72590000D01*
X81705654Y-72364366D01*
X81746110Y-72231000D01*
X81771470Y-72147400D01*
X81771471Y-72147398D01*
X81878347Y-71947445D01*
X82022182Y-71772182D01*
X82197445Y-71628347D01*
X82397398Y-71521471D01*
X82397400Y-71521470D01*
X82614365Y-71455654D01*
X82670729Y-71450103D01*
X82783455Y-71439000D01*
X82896545Y-71439000D01*
X83009271Y-71450103D01*
X83009271Y-71450103D01*
G37*
G36*
X40166823Y-70541313D02*
G01*
X40327242Y-70589976D01*
X40459906Y-70660886D01*
X40475078Y-70668996D01*
X40604659Y-70775341D01*
X40711004Y-70904922D01*
X40711005Y-70904924D01*
X40790024Y-71052758D01*
X40838687Y-71213177D01*
X40855117Y-71380000D01*
X40838687Y-71546823D01*
X40790024Y-71707242D01*
X40755313Y-71772182D01*
X40711004Y-71855078D01*
X40604659Y-71984659D01*
X40475078Y-72091004D01*
X40475076Y-72091005D01*
X40327242Y-72170024D01*
X40166823Y-72218687D01*
X40041804Y-72231000D01*
X39958196Y-72231000D01*
X39833177Y-72218687D01*
X39672758Y-72170024D01*
X39524924Y-72091005D01*
X39524922Y-72091004D01*
X39395341Y-71984659D01*
X39288996Y-71855078D01*
X39244687Y-71772182D01*
X39209976Y-71707242D01*
X39161313Y-71546823D01*
X39144883Y-71380000D01*
X39161313Y-71213177D01*
X39209976Y-71052758D01*
X39288995Y-70904924D01*
X39288996Y-70904922D01*
X39395341Y-70775341D01*
X39524922Y-70668996D01*
X39540094Y-70660886D01*
X39672758Y-70589976D01*
X39833177Y-70541313D01*
X39958196Y-70529000D01*
X40041804Y-70529000D01*
X40166823Y-70541313D01*
X40166823Y-70541313D01*
G37*
G36*
X54731000Y-71591000D02*
G01*
X53029000Y-71591000D01*
X53029000Y-69889000D01*
X54731000Y-69889000D01*
X54731000Y-71591000D01*
X54731000Y-71591000D01*
G37*
G36*
X56586823Y-69901313D02*
G01*
X56747242Y-69949976D01*
X56879906Y-70020886D01*
X56895078Y-70028996D01*
X57024659Y-70135341D01*
X57131004Y-70264922D01*
X57131005Y-70264924D01*
X57210024Y-70412758D01*
X57258687Y-70573177D01*
X57275117Y-70740000D01*
X57258687Y-70906823D01*
X57210024Y-71067242D01*
X57139114Y-71199906D01*
X57131004Y-71215078D01*
X57024659Y-71344659D01*
X56895078Y-71451004D01*
X56895076Y-71451005D01*
X56747242Y-71530024D01*
X56586823Y-71578687D01*
X56461804Y-71591000D01*
X56378196Y-71591000D01*
X56253177Y-71578687D01*
X56092758Y-71530024D01*
X55944924Y-71451005D01*
X55944922Y-71451004D01*
X55815341Y-71344659D01*
X55708996Y-71215078D01*
X55700886Y-71199906D01*
X55629976Y-71067242D01*
X55581313Y-70906823D01*
X55564883Y-70740000D01*
X55581313Y-70573177D01*
X55629976Y-70412758D01*
X55708995Y-70264924D01*
X55708996Y-70264922D01*
X55815341Y-70135341D01*
X55944922Y-70028996D01*
X55960094Y-70020886D01*
X56092758Y-69949976D01*
X56253177Y-69901313D01*
X56378196Y-69889000D01*
X56461804Y-69889000D01*
X56586823Y-69901313D01*
X56586823Y-69901313D01*
G37*
G36*
X59126823Y-69901313D02*
G01*
X59287242Y-69949976D01*
X59419906Y-70020886D01*
X59435078Y-70028996D01*
X59564659Y-70135341D01*
X59671004Y-70264922D01*
X59671005Y-70264924D01*
X59750024Y-70412758D01*
X59798687Y-70573177D01*
X59815117Y-70740000D01*
X59798687Y-70906823D01*
X59750024Y-71067242D01*
X59679114Y-71199906D01*
X59671004Y-71215078D01*
X59564659Y-71344659D01*
X59435078Y-71451004D01*
X59435076Y-71451005D01*
X59287242Y-71530024D01*
X59126823Y-71578687D01*
X59001804Y-71591000D01*
X58918196Y-71591000D01*
X58793177Y-71578687D01*
X58632758Y-71530024D01*
X58484924Y-71451005D01*
X58484922Y-71451004D01*
X58355341Y-71344659D01*
X58248996Y-71215078D01*
X58240886Y-71199906D01*
X58169976Y-71067242D01*
X58121313Y-70906823D01*
X58104883Y-70740000D01*
X58121313Y-70573177D01*
X58169976Y-70412758D01*
X58248995Y-70264924D01*
X58248996Y-70264922D01*
X58355341Y-70135341D01*
X58484922Y-70028996D01*
X58500094Y-70020886D01*
X58632758Y-69949976D01*
X58793177Y-69901313D01*
X58918196Y-69889000D01*
X59001804Y-69889000D01*
X59126823Y-69901313D01*
X59126823Y-69901313D01*
G37*
G36*
X61666823Y-69901313D02*
G01*
X61827242Y-69949976D01*
X61959906Y-70020886D01*
X61975078Y-70028996D01*
X62104659Y-70135341D01*
X62211004Y-70264922D01*
X62211005Y-70264924D01*
X62290024Y-70412758D01*
X62338687Y-70573177D01*
X62355117Y-70740000D01*
X62338687Y-70906823D01*
X62290024Y-71067242D01*
X62219114Y-71199906D01*
X62211004Y-71215078D01*
X62104659Y-71344659D01*
X61975078Y-71451004D01*
X61975076Y-71451005D01*
X61827242Y-71530024D01*
X61666823Y-71578687D01*
X61541804Y-71591000D01*
X61458196Y-71591000D01*
X61333177Y-71578687D01*
X61172758Y-71530024D01*
X61024924Y-71451005D01*
X61024922Y-71451004D01*
X60895341Y-71344659D01*
X60788996Y-71215078D01*
X60780886Y-71199906D01*
X60709976Y-71067242D01*
X60661313Y-70906823D01*
X60644883Y-70740000D01*
X60661313Y-70573177D01*
X60709976Y-70412758D01*
X60788995Y-70264924D01*
X60788996Y-70264922D01*
X60895341Y-70135341D01*
X61024922Y-70028996D01*
X61040094Y-70020886D01*
X61172758Y-69949976D01*
X61333177Y-69901313D01*
X61458196Y-69889000D01*
X61541804Y-69889000D01*
X61666823Y-69901313D01*
X61666823Y-69901313D01*
G37*
G36*
X47411000Y-71461000D02*
G01*
X45709000Y-71461000D01*
X45709000Y-69759000D01*
X47411000Y-69759000D01*
X47411000Y-71461000D01*
X47411000Y-71461000D01*
G37*
G36*
X75036823Y-68481313D02*
G01*
X75197242Y-68529976D01*
X75329906Y-68600886D01*
X75345078Y-68608996D01*
X75474659Y-68715341D01*
X75581004Y-68844922D01*
X75581005Y-68844924D01*
X75660024Y-68992758D01*
X75708687Y-69153177D01*
X75725117Y-69320000D01*
X75708687Y-69486823D01*
X75660024Y-69647242D01*
X75600288Y-69759000D01*
X75581004Y-69795078D01*
X75474659Y-69924659D01*
X75345078Y-70031004D01*
X75345076Y-70031005D01*
X75197242Y-70110024D01*
X75036823Y-70158687D01*
X74911804Y-70171000D01*
X74828196Y-70171000D01*
X74703177Y-70158687D01*
X74542758Y-70110024D01*
X74394924Y-70031005D01*
X74394922Y-70031004D01*
X74265341Y-69924659D01*
X74158996Y-69795078D01*
X74139712Y-69759000D01*
X74079976Y-69647242D01*
X74031313Y-69486823D01*
X74014883Y-69320000D01*
X74031313Y-69153177D01*
X74079976Y-68992758D01*
X74158995Y-68844924D01*
X74158996Y-68844922D01*
X74265341Y-68715341D01*
X74394922Y-68608996D01*
X74410094Y-68600886D01*
X74542758Y-68529976D01*
X74703177Y-68481313D01*
X74828196Y-68469000D01*
X74911804Y-68469000D01*
X75036823Y-68481313D01*
X75036823Y-68481313D01*
G37*
G36*
X77576823Y-68481313D02*
G01*
X77737242Y-68529976D01*
X77869906Y-68600886D01*
X77885078Y-68608996D01*
X78014659Y-68715341D01*
X78121004Y-68844922D01*
X78121005Y-68844924D01*
X78200024Y-68992758D01*
X78248687Y-69153177D01*
X78265117Y-69320000D01*
X78248687Y-69486823D01*
X78200024Y-69647242D01*
X78140288Y-69759000D01*
X78121004Y-69795078D01*
X78014659Y-69924659D01*
X77885078Y-70031004D01*
X77885076Y-70031005D01*
X77737242Y-70110024D01*
X77576823Y-70158687D01*
X77451804Y-70171000D01*
X77368196Y-70171000D01*
X77243177Y-70158687D01*
X77082758Y-70110024D01*
X76934924Y-70031005D01*
X76934922Y-70031004D01*
X76805341Y-69924659D01*
X76698996Y-69795078D01*
X76679712Y-69759000D01*
X76619976Y-69647242D01*
X76571313Y-69486823D01*
X76554883Y-69320000D01*
X76571313Y-69153177D01*
X76619976Y-68992758D01*
X76698995Y-68844924D01*
X76698996Y-68844922D01*
X76805341Y-68715341D01*
X76934922Y-68608996D01*
X76950094Y-68600886D01*
X77082758Y-68529976D01*
X77243177Y-68481313D01*
X77368196Y-68469000D01*
X77451804Y-68469000D01*
X77576823Y-68481313D01*
X77576823Y-68481313D01*
G37*
G36*
X80116823Y-68481313D02*
G01*
X80277242Y-68529976D01*
X80409906Y-68600886D01*
X80425078Y-68608996D01*
X80554659Y-68715341D01*
X80661004Y-68844922D01*
X80661005Y-68844924D01*
X80740024Y-68992758D01*
X80788687Y-69153177D01*
X80805117Y-69320000D01*
X80788687Y-69486823D01*
X80740024Y-69647242D01*
X80680288Y-69759000D01*
X80661004Y-69795078D01*
X80554659Y-69924659D01*
X80425078Y-70031004D01*
X80425076Y-70031005D01*
X80277242Y-70110024D01*
X80116823Y-70158687D01*
X79991804Y-70171000D01*
X79908196Y-70171000D01*
X79783177Y-70158687D01*
X79622758Y-70110024D01*
X79474924Y-70031005D01*
X79474922Y-70031004D01*
X79345341Y-69924659D01*
X79238996Y-69795078D01*
X79219712Y-69759000D01*
X79159976Y-69647242D01*
X79111313Y-69486823D01*
X79094883Y-69320000D01*
X79111313Y-69153177D01*
X79159976Y-68992758D01*
X79238995Y-68844924D01*
X79238996Y-68844922D01*
X79345341Y-68715341D01*
X79474922Y-68608996D01*
X79490094Y-68600886D01*
X79622758Y-68529976D01*
X79783177Y-68481313D01*
X79908196Y-68469000D01*
X79991804Y-68469000D01*
X80116823Y-68481313D01*
X80116823Y-68481313D01*
G37*
G36*
X82656823Y-68481313D02*
G01*
X82817242Y-68529976D01*
X82949906Y-68600886D01*
X82965078Y-68608996D01*
X83094659Y-68715341D01*
X83201004Y-68844922D01*
X83201005Y-68844924D01*
X83280024Y-68992758D01*
X83328687Y-69153177D01*
X83345117Y-69320000D01*
X83328687Y-69486823D01*
X83280024Y-69647242D01*
X83220288Y-69759000D01*
X83201004Y-69795078D01*
X83094659Y-69924659D01*
X82965078Y-70031004D01*
X82965076Y-70031005D01*
X82817242Y-70110024D01*
X82656823Y-70158687D01*
X82531804Y-70171000D01*
X82448196Y-70171000D01*
X82323177Y-70158687D01*
X82162758Y-70110024D01*
X82014924Y-70031005D01*
X82014922Y-70031004D01*
X81885341Y-69924659D01*
X81778996Y-69795078D01*
X81759712Y-69759000D01*
X81699976Y-69647242D01*
X81651313Y-69486823D01*
X81634883Y-69320000D01*
X81651313Y-69153177D01*
X81699976Y-68992758D01*
X81778995Y-68844924D01*
X81778996Y-68844922D01*
X81885341Y-68715341D01*
X82014922Y-68608996D01*
X82030094Y-68600886D01*
X82162758Y-68529976D01*
X82323177Y-68481313D01*
X82448196Y-68469000D01*
X82531804Y-68469000D01*
X82656823Y-68481313D01*
X82656823Y-68481313D01*
G37*
G36*
X41371000Y-69151000D02*
G01*
X39069000Y-69151000D01*
X39069000Y-66849000D01*
X41371000Y-66849000D01*
X41371000Y-69151000D01*
X41371000Y-69151000D01*
G37*
G36*
X68628228Y-64011703D02*
G01*
X68783100Y-64075853D01*
X68922481Y-64168985D01*
X69041015Y-64287519D01*
X69134147Y-64426900D01*
X69198297Y-64581772D01*
X69231000Y-64746184D01*
X69231000Y-64913816D01*
X69198297Y-65078228D01*
X69134147Y-65233100D01*
X69041015Y-65372481D01*
X68922481Y-65491015D01*
X68783100Y-65584147D01*
X68628228Y-65648297D01*
X68463816Y-65681000D01*
X68296184Y-65681000D01*
X68131772Y-65648297D01*
X67976900Y-65584147D01*
X67837519Y-65491015D01*
X67718985Y-65372481D01*
X67625853Y-65233100D01*
X67561703Y-65078228D01*
X67529000Y-64913816D01*
X67529000Y-64746184D01*
X67561703Y-64581772D01*
X67625853Y-64426900D01*
X67718985Y-64287519D01*
X67837519Y-64168985D01*
X67976900Y-64075853D01*
X68131772Y-64011703D01*
X68296184Y-63979000D01*
X68463816Y-63979000D01*
X68628228Y-64011703D01*
X68628228Y-64011703D01*
G37*
G36*
X49584325Y-61533175D02*
G01*
X49774072Y-61570918D01*
X50019939Y-61672759D01*
X50241212Y-61820610D01*
X50429390Y-62008788D01*
X50577241Y-62230061D01*
X50679082Y-62475928D01*
X50731000Y-62736938D01*
X50731000Y-63003062D01*
X50679082Y-63264072D01*
X50577241Y-63509939D01*
X50502813Y-63621328D01*
X50429391Y-63731211D01*
X50241211Y-63919391D01*
X50163973Y-63971000D01*
X50019939Y-64067241D01*
X50019938Y-64067242D01*
X50019937Y-64067242D01*
X49774072Y-64169082D01*
X49513063Y-64221000D01*
X49246937Y-64221000D01*
X48985928Y-64169082D01*
X48740063Y-64067242D01*
X48740062Y-64067242D01*
X48740061Y-64067241D01*
X48596027Y-63971000D01*
X48518789Y-63919391D01*
X48330609Y-63731211D01*
X48257187Y-63621328D01*
X48182759Y-63509939D01*
X48080918Y-63264072D01*
X48029000Y-63003062D01*
X48029000Y-62736938D01*
X48080918Y-62475928D01*
X48182759Y-62230061D01*
X48330610Y-62008788D01*
X48518788Y-61820610D01*
X48740061Y-61672759D01*
X48985928Y-61570918D01*
X49175675Y-61533175D01*
X49246937Y-61519000D01*
X49513063Y-61519000D01*
X49584325Y-61533175D01*
X49584325Y-61533175D01*
G37*
G36*
X44584325Y-61533175D02*
G01*
X44774072Y-61570918D01*
X45019939Y-61672759D01*
X45241212Y-61820610D01*
X45429390Y-62008788D01*
X45577241Y-62230061D01*
X45679082Y-62475928D01*
X45731000Y-62736938D01*
X45731000Y-63003062D01*
X45679082Y-63264072D01*
X45577241Y-63509939D01*
X45502813Y-63621328D01*
X45429391Y-63731211D01*
X45241211Y-63919391D01*
X45163973Y-63971000D01*
X45019939Y-64067241D01*
X45019938Y-64067242D01*
X45019937Y-64067242D01*
X44774072Y-64169082D01*
X44513063Y-64221000D01*
X44246937Y-64221000D01*
X43985928Y-64169082D01*
X43740063Y-64067242D01*
X43740062Y-64067242D01*
X43740061Y-64067241D01*
X43596027Y-63971000D01*
X43518789Y-63919391D01*
X43330609Y-63731211D01*
X43257187Y-63621328D01*
X43182759Y-63509939D01*
X43080918Y-63264072D01*
X43029000Y-63003062D01*
X43029000Y-62736938D01*
X43080918Y-62475928D01*
X43182759Y-62230061D01*
X43330610Y-62008788D01*
X43518788Y-61820610D01*
X43740061Y-61672759D01*
X43985928Y-61570918D01*
X44175675Y-61533175D01*
X44246937Y-61519000D01*
X44513063Y-61519000D01*
X44584325Y-61533175D01*
X44584325Y-61533175D01*
G37*
G36*
X54046823Y-62281313D02*
G01*
X54207242Y-62329976D01*
X54339906Y-62400886D01*
X54355078Y-62408996D01*
X54484659Y-62515341D01*
X54591004Y-62644922D01*
X54591005Y-62644924D01*
X54670024Y-62792758D01*
X54718687Y-62953177D01*
X54735117Y-63120000D01*
X54718687Y-63286823D01*
X54670024Y-63447242D01*
X54599114Y-63579906D01*
X54591004Y-63595078D01*
X54484659Y-63724659D01*
X54355078Y-63831004D01*
X54355076Y-63831005D01*
X54207242Y-63910024D01*
X54046823Y-63958687D01*
X53921804Y-63971000D01*
X53838196Y-63971000D01*
X53713177Y-63958687D01*
X53552758Y-63910024D01*
X53404924Y-63831005D01*
X53404922Y-63831004D01*
X53275341Y-63724659D01*
X53168996Y-63595078D01*
X53160886Y-63579906D01*
X53089976Y-63447242D01*
X53041313Y-63286823D01*
X53024883Y-63120000D01*
X53041313Y-62953177D01*
X53089976Y-62792758D01*
X53168995Y-62644924D01*
X53168996Y-62644922D01*
X53275341Y-62515341D01*
X53404922Y-62408996D01*
X53420094Y-62400886D01*
X53552758Y-62329976D01*
X53713177Y-62281313D01*
X53838196Y-62269000D01*
X53921804Y-62269000D01*
X54046823Y-62281313D01*
X54046823Y-62281313D01*
G37*
G36*
X61666823Y-62281313D02*
G01*
X61827242Y-62329976D01*
X61959906Y-62400886D01*
X61975078Y-62408996D01*
X62104659Y-62515341D01*
X62211004Y-62644922D01*
X62211005Y-62644924D01*
X62290024Y-62792758D01*
X62338687Y-62953177D01*
X62355117Y-63120000D01*
X62338687Y-63286823D01*
X62290024Y-63447242D01*
X62219114Y-63579906D01*
X62211004Y-63595078D01*
X62104659Y-63724659D01*
X61975078Y-63831004D01*
X61975076Y-63831005D01*
X61827242Y-63910024D01*
X61666823Y-63958687D01*
X61541804Y-63971000D01*
X61458196Y-63971000D01*
X61333177Y-63958687D01*
X61172758Y-63910024D01*
X61024924Y-63831005D01*
X61024922Y-63831004D01*
X60895341Y-63724659D01*
X60788996Y-63595078D01*
X60780886Y-63579906D01*
X60709976Y-63447242D01*
X60661313Y-63286823D01*
X60644883Y-63120000D01*
X60661313Y-62953177D01*
X60709976Y-62792758D01*
X60788995Y-62644924D01*
X60788996Y-62644922D01*
X60895341Y-62515341D01*
X61024922Y-62408996D01*
X61040094Y-62400886D01*
X61172758Y-62329976D01*
X61333177Y-62281313D01*
X61458196Y-62269000D01*
X61541804Y-62269000D01*
X61666823Y-62281313D01*
X61666823Y-62281313D01*
G37*
G36*
X59126823Y-62281313D02*
G01*
X59287242Y-62329976D01*
X59419906Y-62400886D01*
X59435078Y-62408996D01*
X59564659Y-62515341D01*
X59671004Y-62644922D01*
X59671005Y-62644924D01*
X59750024Y-62792758D01*
X59798687Y-62953177D01*
X59815117Y-63120000D01*
X59798687Y-63286823D01*
X59750024Y-63447242D01*
X59679114Y-63579906D01*
X59671004Y-63595078D01*
X59564659Y-63724659D01*
X59435078Y-63831004D01*
X59435076Y-63831005D01*
X59287242Y-63910024D01*
X59126823Y-63958687D01*
X59001804Y-63971000D01*
X58918196Y-63971000D01*
X58793177Y-63958687D01*
X58632758Y-63910024D01*
X58484924Y-63831005D01*
X58484922Y-63831004D01*
X58355341Y-63724659D01*
X58248996Y-63595078D01*
X58240886Y-63579906D01*
X58169976Y-63447242D01*
X58121313Y-63286823D01*
X58104883Y-63120000D01*
X58121313Y-62953177D01*
X58169976Y-62792758D01*
X58248995Y-62644924D01*
X58248996Y-62644922D01*
X58355341Y-62515341D01*
X58484922Y-62408996D01*
X58500094Y-62400886D01*
X58632758Y-62329976D01*
X58793177Y-62281313D01*
X58918196Y-62269000D01*
X59001804Y-62269000D01*
X59126823Y-62281313D01*
X59126823Y-62281313D01*
G37*
G36*
X56586823Y-62281313D02*
G01*
X56747242Y-62329976D01*
X56879906Y-62400886D01*
X56895078Y-62408996D01*
X57024659Y-62515341D01*
X57131004Y-62644922D01*
X57131005Y-62644924D01*
X57210024Y-62792758D01*
X57258687Y-62953177D01*
X57275117Y-63120000D01*
X57258687Y-63286823D01*
X57210024Y-63447242D01*
X57139114Y-63579906D01*
X57131004Y-63595078D01*
X57024659Y-63724659D01*
X56895078Y-63831004D01*
X56895076Y-63831005D01*
X56747242Y-63910024D01*
X56586823Y-63958687D01*
X56461804Y-63971000D01*
X56378196Y-63971000D01*
X56253177Y-63958687D01*
X56092758Y-63910024D01*
X55944924Y-63831005D01*
X55944922Y-63831004D01*
X55815341Y-63724659D01*
X55708996Y-63595078D01*
X55700886Y-63579906D01*
X55629976Y-63447242D01*
X55581313Y-63286823D01*
X55564883Y-63120000D01*
X55581313Y-62953177D01*
X55629976Y-62792758D01*
X55708995Y-62644924D01*
X55708996Y-62644922D01*
X55815341Y-62515341D01*
X55944922Y-62408996D01*
X55960094Y-62400886D01*
X56092758Y-62329976D01*
X56253177Y-62281313D01*
X56378196Y-62269000D01*
X56461804Y-62269000D01*
X56586823Y-62281313D01*
X56586823Y-62281313D01*
G37*
G36*
X83341000Y-62551000D02*
G01*
X81639000Y-62551000D01*
X81639000Y-60849000D01*
X83341000Y-60849000D01*
X83341000Y-62551000D01*
X83341000Y-62551000D01*
G37*
G36*
X80116823Y-60861313D02*
G01*
X80277242Y-60909976D01*
X80409906Y-60980886D01*
X80425078Y-60988996D01*
X80554659Y-61095341D01*
X80661004Y-61224922D01*
X80661005Y-61224924D01*
X80740024Y-61372758D01*
X80788687Y-61533177D01*
X80805117Y-61700000D01*
X80788687Y-61866823D01*
X80740024Y-62027242D01*
X80669114Y-62159906D01*
X80661004Y-62175078D01*
X80554659Y-62304659D01*
X80425078Y-62411004D01*
X80425076Y-62411005D01*
X80277242Y-62490024D01*
X80116823Y-62538687D01*
X79991804Y-62551000D01*
X79908196Y-62551000D01*
X79783177Y-62538687D01*
X79622758Y-62490024D01*
X79474924Y-62411005D01*
X79474922Y-62411004D01*
X79345341Y-62304659D01*
X79238996Y-62175078D01*
X79230886Y-62159906D01*
X79159976Y-62027242D01*
X79111313Y-61866823D01*
X79094883Y-61700000D01*
X79111313Y-61533177D01*
X79159976Y-61372758D01*
X79238995Y-61224924D01*
X79238996Y-61224922D01*
X79345341Y-61095341D01*
X79474922Y-60988996D01*
X79490094Y-60980886D01*
X79622758Y-60909976D01*
X79783177Y-60861313D01*
X79908196Y-60849000D01*
X79991804Y-60849000D01*
X80116823Y-60861313D01*
X80116823Y-60861313D01*
G37*
G36*
X75036823Y-60861313D02*
G01*
X75197242Y-60909976D01*
X75329906Y-60980886D01*
X75345078Y-60988996D01*
X75474659Y-61095341D01*
X75581004Y-61224922D01*
X75581005Y-61224924D01*
X75660024Y-61372758D01*
X75708687Y-61533177D01*
X75725117Y-61700000D01*
X75708687Y-61866823D01*
X75660024Y-62027242D01*
X75589114Y-62159906D01*
X75581004Y-62175078D01*
X75474659Y-62304659D01*
X75345078Y-62411004D01*
X75345076Y-62411005D01*
X75197242Y-62490024D01*
X75036823Y-62538687D01*
X74911804Y-62551000D01*
X74828196Y-62551000D01*
X74703177Y-62538687D01*
X74542758Y-62490024D01*
X74394924Y-62411005D01*
X74394922Y-62411004D01*
X74265341Y-62304659D01*
X74158996Y-62175078D01*
X74150886Y-62159906D01*
X74079976Y-62027242D01*
X74031313Y-61866823D01*
X74014883Y-61700000D01*
X74031313Y-61533177D01*
X74079976Y-61372758D01*
X74158995Y-61224924D01*
X74158996Y-61224922D01*
X74265341Y-61095341D01*
X74394922Y-60988996D01*
X74410094Y-60980886D01*
X74542758Y-60909976D01*
X74703177Y-60861313D01*
X74828196Y-60849000D01*
X74911804Y-60849000D01*
X75036823Y-60861313D01*
X75036823Y-60861313D01*
G37*
G36*
X77576823Y-60861313D02*
G01*
X77737242Y-60909976D01*
X77869906Y-60980886D01*
X77885078Y-60988996D01*
X78014659Y-61095341D01*
X78121004Y-61224922D01*
X78121005Y-61224924D01*
X78200024Y-61372758D01*
X78248687Y-61533177D01*
X78265117Y-61700000D01*
X78248687Y-61866823D01*
X78200024Y-62027242D01*
X78129114Y-62159906D01*
X78121004Y-62175078D01*
X78014659Y-62304659D01*
X77885078Y-62411004D01*
X77885076Y-62411005D01*
X77737242Y-62490024D01*
X77576823Y-62538687D01*
X77451804Y-62551000D01*
X77368196Y-62551000D01*
X77243177Y-62538687D01*
X77082758Y-62490024D01*
X76934924Y-62411005D01*
X76934922Y-62411004D01*
X76805341Y-62304659D01*
X76698996Y-62175078D01*
X76690886Y-62159906D01*
X76619976Y-62027242D01*
X76571313Y-61866823D01*
X76554883Y-61700000D01*
X76571313Y-61533177D01*
X76619976Y-61372758D01*
X76698995Y-61224924D01*
X76698996Y-61224922D01*
X76805341Y-61095341D01*
X76934922Y-60988996D01*
X76950094Y-60980886D01*
X77082758Y-60909976D01*
X77243177Y-60861313D01*
X77368196Y-60849000D01*
X77451804Y-60849000D01*
X77576823Y-60861313D01*
X77576823Y-60861313D01*
G37*
G36*
X69231000Y-62181000D02*
G01*
X67529000Y-62181000D01*
X67529000Y-60479000D01*
X69231000Y-60479000D01*
X69231000Y-62181000D01*
X69231000Y-62181000D01*
G37*
G36*
X40389271Y-59240103D02*
G01*
X40445635Y-59245654D01*
X40662600Y-59311470D01*
X40662602Y-59311471D01*
X40862555Y-59418347D01*
X41037818Y-59562182D01*
X41181653Y-59737445D01*
X41267592Y-59898228D01*
X41288530Y-59937400D01*
X41354346Y-60154365D01*
X41376569Y-60380000D01*
X41354346Y-60605635D01*
X41319121Y-60721757D01*
X41288529Y-60822602D01*
X41181653Y-61022555D01*
X41037818Y-61197818D01*
X40862555Y-61341653D01*
X40662602Y-61448529D01*
X40662600Y-61448530D01*
X40445635Y-61514346D01*
X40398382Y-61519000D01*
X40276545Y-61531000D01*
X40163455Y-61531000D01*
X40041618Y-61519000D01*
X39994365Y-61514346D01*
X39777400Y-61448530D01*
X39777398Y-61448529D01*
X39577445Y-61341653D01*
X39402182Y-61197818D01*
X39258347Y-61022555D01*
X39151471Y-60822602D01*
X39120880Y-60721757D01*
X39085654Y-60605635D01*
X39063431Y-60380000D01*
X39085654Y-60154365D01*
X39151470Y-59937400D01*
X39172408Y-59898228D01*
X39258347Y-59737445D01*
X39402182Y-59562182D01*
X39577445Y-59418347D01*
X39777398Y-59311471D01*
X39777400Y-59311470D01*
X39994365Y-59245654D01*
X40050729Y-59240103D01*
X40163455Y-59229000D01*
X40276545Y-59229000D01*
X40389271Y-59240103D01*
X40389271Y-59240103D01*
G37*
G36*
X31782142Y-59158242D02*
G01*
X31930101Y-59219529D01*
X32063255Y-59308499D01*
X32176501Y-59421745D01*
X32265471Y-59554899D01*
X32326758Y-59702858D01*
X32358000Y-59859925D01*
X32358000Y-60020075D01*
X32326758Y-60177142D01*
X32265471Y-60325101D01*
X32176501Y-60458255D01*
X32063255Y-60571501D01*
X31930101Y-60660471D01*
X31782142Y-60721758D01*
X31625075Y-60753000D01*
X31464925Y-60753000D01*
X31307858Y-60721758D01*
X31159899Y-60660471D01*
X31026745Y-60571501D01*
X30913499Y-60458255D01*
X30824529Y-60325101D01*
X30763242Y-60177142D01*
X30732000Y-60020075D01*
X30732000Y-59859925D01*
X30763242Y-59702858D01*
X30824529Y-59554899D01*
X30913499Y-59421745D01*
X31026745Y-59308499D01*
X31159899Y-59219529D01*
X31307858Y-59158242D01*
X31464925Y-59127000D01*
X31625075Y-59127000D01*
X31782142Y-59158242D01*
X31782142Y-59158242D01*
G37*
G36*
X62776823Y-58811313D02*
G01*
X62937242Y-58859976D01*
X63004361Y-58895852D01*
X63085078Y-58938996D01*
X63214659Y-59045341D01*
X63321004Y-59174922D01*
X63321005Y-59174924D01*
X63400024Y-59322758D01*
X63448687Y-59483177D01*
X63465117Y-59650000D01*
X63448687Y-59816823D01*
X63400024Y-59977242D01*
X63359477Y-60053100D01*
X63321004Y-60125078D01*
X63214659Y-60254659D01*
X63085078Y-60361004D01*
X63085076Y-60361005D01*
X62937242Y-60440024D01*
X62776823Y-60488687D01*
X62651804Y-60501000D01*
X62568196Y-60501000D01*
X62443177Y-60488687D01*
X62282758Y-60440024D01*
X62134924Y-60361005D01*
X62134922Y-60361004D01*
X62005341Y-60254659D01*
X61898996Y-60125078D01*
X61860523Y-60053100D01*
X61819976Y-59977242D01*
X61771313Y-59816823D01*
X61754883Y-59650000D01*
X61771313Y-59483177D01*
X61819976Y-59322758D01*
X61898995Y-59174924D01*
X61898996Y-59174922D01*
X62005341Y-59045341D01*
X62134922Y-58938996D01*
X62215639Y-58895852D01*
X62282758Y-58859976D01*
X62443177Y-58811313D01*
X62568196Y-58799000D01*
X62651804Y-58799000D01*
X62776823Y-58811313D01*
X62776823Y-58811313D01*
G37*
G36*
X52698228Y-58831703D02*
G01*
X52853100Y-58895853D01*
X52992481Y-58988985D01*
X53111015Y-59107519D01*
X53204147Y-59246900D01*
X53268297Y-59401772D01*
X53301000Y-59566184D01*
X53301000Y-59733816D01*
X53268297Y-59898228D01*
X53204147Y-60053100D01*
X53111015Y-60192481D01*
X52992481Y-60311015D01*
X52853100Y-60404147D01*
X52698228Y-60468297D01*
X52533816Y-60501000D01*
X52366184Y-60501000D01*
X52201772Y-60468297D01*
X52046900Y-60404147D01*
X51907519Y-60311015D01*
X51788985Y-60192481D01*
X51695853Y-60053100D01*
X51631703Y-59898228D01*
X51599000Y-59733816D01*
X51599000Y-59566184D01*
X51631703Y-59401772D01*
X51695853Y-59246900D01*
X51788985Y-59107519D01*
X51907519Y-58988985D01*
X52046900Y-58895853D01*
X52201772Y-58831703D01*
X52366184Y-58799000D01*
X52533816Y-58799000D01*
X52698228Y-58831703D01*
X52698228Y-58831703D01*
G37*
G36*
X83026000Y-58876000D02*
G01*
X82074000Y-58876000D01*
X82074000Y-57924000D01*
X83026000Y-57924000D01*
X83026000Y-58876000D01*
X83026000Y-58876000D01*
G37*
G36*
X31782142Y-56618242D02*
G01*
X31930101Y-56679529D01*
X32063255Y-56768499D01*
X32176501Y-56881745D01*
X32265471Y-57014899D01*
X32326758Y-57162858D01*
X32358000Y-57319925D01*
X32358000Y-57480075D01*
X32326758Y-57637142D01*
X32265471Y-57785101D01*
X32176501Y-57918255D01*
X32063255Y-58031501D01*
X31930101Y-58120471D01*
X31782142Y-58181758D01*
X31625075Y-58213000D01*
X31464925Y-58213000D01*
X31307858Y-58181758D01*
X31159899Y-58120471D01*
X31026745Y-58031501D01*
X30913499Y-57918255D01*
X30824529Y-57785101D01*
X30763242Y-57637142D01*
X30732000Y-57480075D01*
X30732000Y-57319925D01*
X30763242Y-57162858D01*
X30824529Y-57014899D01*
X30913499Y-56881745D01*
X31026745Y-56768499D01*
X31159899Y-56679529D01*
X31307858Y-56618242D01*
X31464925Y-56587000D01*
X31625075Y-56587000D01*
X31782142Y-56618242D01*
X31782142Y-56618242D01*
G37*
G36*
X49693254Y-53377818D02*
G01*
X50066511Y-53532426D01*
X50066513Y-53532427D01*
X50402436Y-53756884D01*
X50688116Y-54042564D01*
X50888023Y-54341745D01*
X50912574Y-54378489D01*
X51067182Y-54751746D01*
X51146000Y-55147993D01*
X51146000Y-55552007D01*
X51067182Y-55948254D01*
X50915685Y-56314000D01*
X50912573Y-56321513D01*
X50688116Y-56657436D01*
X50402436Y-56943116D01*
X50066513Y-57167573D01*
X50066512Y-57167574D01*
X50066511Y-57167574D01*
X49693254Y-57322182D01*
X49297007Y-57401000D01*
X48892993Y-57401000D01*
X48496746Y-57322182D01*
X48123489Y-57167574D01*
X48123488Y-57167574D01*
X48123487Y-57167573D01*
X47787564Y-56943116D01*
X47501884Y-56657436D01*
X47277427Y-56321513D01*
X47274315Y-56314000D01*
X47122818Y-55948254D01*
X47044000Y-55552007D01*
X47044000Y-55147993D01*
X47122818Y-54751746D01*
X47277426Y-54378489D01*
X47301978Y-54341745D01*
X47501884Y-54042564D01*
X47787564Y-53756884D01*
X48123487Y-53532427D01*
X48123489Y-53532426D01*
X48496746Y-53377818D01*
X48892993Y-53299000D01*
X49297007Y-53299000D01*
X49693254Y-53377818D01*
X49693254Y-53377818D01*
G37*
G36*
X70193254Y-53377818D02*
G01*
X70566511Y-53532426D01*
X70566513Y-53532427D01*
X70902436Y-53756884D01*
X71188116Y-54042564D01*
X71388023Y-54341745D01*
X71412574Y-54378489D01*
X71567182Y-54751746D01*
X71646000Y-55147993D01*
X71646000Y-55552007D01*
X71567182Y-55948254D01*
X71415685Y-56314000D01*
X71412573Y-56321513D01*
X71188116Y-56657436D01*
X70902436Y-56943116D01*
X70566513Y-57167573D01*
X70566512Y-57167574D01*
X70566511Y-57167574D01*
X70193254Y-57322182D01*
X69797007Y-57401000D01*
X69392993Y-57401000D01*
X68996746Y-57322182D01*
X68623489Y-57167574D01*
X68623488Y-57167574D01*
X68623487Y-57167573D01*
X68287564Y-56943116D01*
X68001884Y-56657436D01*
X67777427Y-56321513D01*
X67774315Y-56314000D01*
X67622818Y-55948254D01*
X67544000Y-55552007D01*
X67544000Y-55147993D01*
X67622818Y-54751746D01*
X67777426Y-54378489D01*
X67801978Y-54341745D01*
X68001884Y-54042564D01*
X68287564Y-53756884D01*
X68623487Y-53532427D01*
X68623489Y-53532426D01*
X68996746Y-53377818D01*
X69392993Y-53299000D01*
X69797007Y-53299000D01*
X70193254Y-53377818D01*
X70193254Y-53377818D01*
G37*
G36*
X65276000Y-57266000D02*
G01*
X64324000Y-57266000D01*
X64324000Y-56314000D01*
X65276000Y-56314000D01*
X65276000Y-57266000D01*
X65276000Y-57266000D01*
G37*
G36*
X31782142Y-54078242D02*
G01*
X31930101Y-54139529D01*
X32063255Y-54228499D01*
X32176501Y-54341745D01*
X32265471Y-54474899D01*
X32326758Y-54622858D01*
X32358000Y-54779925D01*
X32358000Y-54940075D01*
X32326758Y-55097142D01*
X32265471Y-55245101D01*
X32176501Y-55378255D01*
X32063255Y-55491501D01*
X31930101Y-55580471D01*
X31782142Y-55641758D01*
X31625075Y-55673000D01*
X31464925Y-55673000D01*
X31307858Y-55641758D01*
X31159899Y-55580471D01*
X31026745Y-55491501D01*
X30913499Y-55378255D01*
X30824529Y-55245101D01*
X30763242Y-55097142D01*
X30732000Y-54940075D01*
X30732000Y-54779925D01*
X30763242Y-54622858D01*
X30824529Y-54474899D01*
X30913499Y-54341745D01*
X31026745Y-54228499D01*
X31159899Y-54139529D01*
X31307858Y-54078242D01*
X31464925Y-54047000D01*
X31625075Y-54047000D01*
X31782142Y-54078242D01*
X31782142Y-54078242D01*
G37*
G36*
X49198228Y-50181703D02*
G01*
X49353100Y-50245853D01*
X49492481Y-50338985D01*
X49611015Y-50457519D01*
X49704147Y-50596900D01*
X49768297Y-50751772D01*
X49801000Y-50916184D01*
X49801000Y-51083816D01*
X49768297Y-51248228D01*
X49704147Y-51403100D01*
X49611015Y-51542481D01*
X49492481Y-51661015D01*
X49353100Y-51754147D01*
X49198228Y-51818297D01*
X49033816Y-51851000D01*
X48866184Y-51851000D01*
X48701772Y-51818297D01*
X48546900Y-51754147D01*
X48407519Y-51661015D01*
X48288985Y-51542481D01*
X48195853Y-51403100D01*
X48131703Y-51248228D01*
X48099000Y-51083816D01*
X48099000Y-50916184D01*
X48131703Y-50751772D01*
X48195853Y-50596900D01*
X48288985Y-50457519D01*
X48407519Y-50338985D01*
X48546900Y-50245853D01*
X48701772Y-50181703D01*
X48866184Y-50149000D01*
X49033816Y-50149000D01*
X49198228Y-50181703D01*
X49198228Y-50181703D01*
G37*
G36*
X31782142Y-48998242D02*
G01*
X31930101Y-49059529D01*
X32063255Y-49148499D01*
X32176501Y-49261745D01*
X32265471Y-49394899D01*
X32326758Y-49542858D01*
X32358000Y-49699925D01*
X32358000Y-49860075D01*
X32326758Y-50017142D01*
X32265471Y-50165101D01*
X32176501Y-50298255D01*
X32063255Y-50411501D01*
X31930101Y-50500471D01*
X31782142Y-50561758D01*
X31625075Y-50593000D01*
X31464925Y-50593000D01*
X31307858Y-50561758D01*
X31159899Y-50500471D01*
X31026745Y-50411501D01*
X30913499Y-50298255D01*
X30824529Y-50165101D01*
X30763242Y-50017142D01*
X30732000Y-49860075D01*
X30732000Y-49699925D01*
X30763242Y-49542858D01*
X30824529Y-49394899D01*
X30913499Y-49261745D01*
X31026745Y-49148499D01*
X31159899Y-49059529D01*
X31307858Y-48998242D01*
X31464925Y-48967000D01*
X31625075Y-48967000D01*
X31782142Y-48998242D01*
X31782142Y-48998242D01*
G37*
G36*
X78166000Y-49836000D02*
G01*
X77214000Y-49836000D01*
X77214000Y-48884000D01*
X78166000Y-48884000D01*
X78166000Y-49836000D01*
X78166000Y-49836000D01*
G37*
G36*
X43857395Y-46505546D02*
G01*
X44030466Y-46577234D01*
X44030467Y-46577235D01*
X44186227Y-46681310D01*
X44318690Y-46813773D01*
X44318691Y-46813775D01*
X44422766Y-46969534D01*
X44494454Y-47142605D01*
X44531000Y-47326333D01*
X44531000Y-47513667D01*
X44494454Y-47697395D01*
X44422766Y-47870466D01*
X44422074Y-47871501D01*
X44318690Y-48026227D01*
X44186227Y-48158690D01*
X44107818Y-48211081D01*
X44030466Y-48262766D01*
X43857395Y-48334454D01*
X43673667Y-48371000D01*
X43486333Y-48371000D01*
X43302605Y-48334454D01*
X43129534Y-48262766D01*
X43052182Y-48211081D01*
X42973773Y-48158690D01*
X42841310Y-48026227D01*
X42737926Y-47871501D01*
X42737234Y-47870466D01*
X42665546Y-47697395D01*
X42629000Y-47513667D01*
X42629000Y-47326333D01*
X42665546Y-47142605D01*
X42737234Y-46969534D01*
X42841309Y-46813775D01*
X42841310Y-46813773D01*
X42973773Y-46681310D01*
X43129533Y-46577235D01*
X43129534Y-46577234D01*
X43302605Y-46505546D01*
X43486333Y-46469000D01*
X43673667Y-46469000D01*
X43857395Y-46505546D01*
X43857395Y-46505546D01*
G37*
G36*
X41991000Y-48371000D02*
G01*
X40089000Y-48371000D01*
X40089000Y-46469000D01*
X41991000Y-46469000D01*
X41991000Y-48371000D01*
X41991000Y-48371000D01*
G37*
G36*
X31782142Y-46458242D02*
G01*
X31930101Y-46519529D01*
X32063255Y-46608499D01*
X32176501Y-46721745D01*
X32265471Y-46854899D01*
X32326758Y-47002858D01*
X32358000Y-47159925D01*
X32358000Y-47320075D01*
X32326758Y-47477142D01*
X32265471Y-47625101D01*
X32176501Y-47758255D01*
X32063255Y-47871501D01*
X31930101Y-47960471D01*
X31782142Y-48021758D01*
X31625075Y-48053000D01*
X31464925Y-48053000D01*
X31307858Y-48021758D01*
X31159899Y-47960471D01*
X31026745Y-47871501D01*
X30913499Y-47758255D01*
X30824529Y-47625101D01*
X30763242Y-47477142D01*
X30732000Y-47320075D01*
X30732000Y-47159925D01*
X30763242Y-47002858D01*
X30824529Y-46854899D01*
X30913499Y-46721745D01*
X31026745Y-46608499D01*
X31159899Y-46519529D01*
X31307858Y-46458242D01*
X31464925Y-46427000D01*
X31625075Y-46427000D01*
X31782142Y-46458242D01*
X31782142Y-46458242D01*
G37*
G36*
X85327142Y-45588242D02*
G01*
X85475101Y-45649529D01*
X85608255Y-45738499D01*
X85721501Y-45851745D01*
X85810471Y-45984899D01*
X85871758Y-46132858D01*
X85903000Y-46289925D01*
X85903000Y-46450075D01*
X85871758Y-46607142D01*
X85810471Y-46755101D01*
X85721501Y-46888255D01*
X85608255Y-47001501D01*
X85475101Y-47090471D01*
X85327142Y-47151758D01*
X85170075Y-47183000D01*
X85009925Y-47183000D01*
X84852858Y-47151758D01*
X84704899Y-47090471D01*
X84571745Y-47001501D01*
X84458499Y-46888255D01*
X84369529Y-46755101D01*
X84308242Y-46607142D01*
X84277000Y-46450075D01*
X84277000Y-46289925D01*
X84308242Y-46132858D01*
X84369529Y-45984899D01*
X84458499Y-45851745D01*
X84571745Y-45738499D01*
X84704899Y-45649529D01*
X84852858Y-45588242D01*
X85009925Y-45557000D01*
X85170075Y-45557000D01*
X85327142Y-45588242D01*
X85327142Y-45588242D01*
G37*
G36*
X81627142Y-45588242D02*
G01*
X81775101Y-45649529D01*
X81908255Y-45738499D01*
X82021501Y-45851745D01*
X82110471Y-45984899D01*
X82171758Y-46132858D01*
X82203000Y-46289925D01*
X82203000Y-46450075D01*
X82171758Y-46607142D01*
X82110471Y-46755101D01*
X82021501Y-46888255D01*
X81908255Y-47001501D01*
X81775101Y-47090471D01*
X81627142Y-47151758D01*
X81470075Y-47183000D01*
X81309925Y-47183000D01*
X81152858Y-47151758D01*
X81004899Y-47090471D01*
X80871745Y-47001501D01*
X80758499Y-46888255D01*
X80669529Y-46755101D01*
X80608242Y-46607142D01*
X80577000Y-46450075D01*
X80577000Y-46289925D01*
X80608242Y-46132858D01*
X80669529Y-45984899D01*
X80758499Y-45851745D01*
X80871745Y-45738499D01*
X81004899Y-45649529D01*
X81152858Y-45588242D01*
X81309925Y-45557000D01*
X81470075Y-45557000D01*
X81627142Y-45588242D01*
X81627142Y-45588242D01*
G37*
G36*
X78827142Y-45588242D02*
G01*
X78975101Y-45649529D01*
X79108255Y-45738499D01*
X79221501Y-45851745D01*
X79310471Y-45984899D01*
X79371758Y-46132858D01*
X79403000Y-46289925D01*
X79403000Y-46450075D01*
X79371758Y-46607142D01*
X79310471Y-46755101D01*
X79221501Y-46888255D01*
X79108255Y-47001501D01*
X78975101Y-47090471D01*
X78827142Y-47151758D01*
X78670075Y-47183000D01*
X78509925Y-47183000D01*
X78352858Y-47151758D01*
X78204899Y-47090471D01*
X78071745Y-47001501D01*
X77958499Y-46888255D01*
X77869529Y-46755101D01*
X77808242Y-46607142D01*
X77777000Y-46450075D01*
X77777000Y-46289925D01*
X77808242Y-46132858D01*
X77869529Y-45984899D01*
X77958499Y-45851745D01*
X78071745Y-45738499D01*
X78204899Y-45649529D01*
X78352858Y-45588242D01*
X78509925Y-45557000D01*
X78670075Y-45557000D01*
X78827142Y-45588242D01*
X78827142Y-45588242D01*
G37*
G36*
X34336000Y-43546000D02*
G01*
X33384000Y-43546000D01*
X33384000Y-42594000D01*
X34336000Y-42594000D01*
X34336000Y-43546000D01*
X34336000Y-43546000D01*
G37*
G36*
X42060442Y-40985518D02*
G01*
X42126627Y-40992037D01*
X42296466Y-41043557D01*
X42452991Y-41127222D01*
X42488729Y-41156552D01*
X42590186Y-41239814D01*
X42673448Y-41341271D01*
X42702778Y-41377009D01*
X42786443Y-41533534D01*
X42837963Y-41703373D01*
X42855359Y-41880000D01*
X42837963Y-42056627D01*
X42786443Y-42226466D01*
X42702778Y-42382991D01*
X42673448Y-42418729D01*
X42590186Y-42520186D01*
X42500242Y-42594000D01*
X42452991Y-42632778D01*
X42296466Y-42716443D01*
X42126627Y-42767963D01*
X42060442Y-42774482D01*
X41994260Y-42781000D01*
X41905740Y-42781000D01*
X41839558Y-42774482D01*
X41773373Y-42767963D01*
X41603534Y-42716443D01*
X41447009Y-42632778D01*
X41399758Y-42594000D01*
X41309814Y-42520186D01*
X41226552Y-42418729D01*
X41197222Y-42382991D01*
X41113557Y-42226466D01*
X41062037Y-42056627D01*
X41044641Y-41880000D01*
X41062037Y-41703373D01*
X41113557Y-41533534D01*
X41197222Y-41377009D01*
X41226552Y-41341271D01*
X41309814Y-41239814D01*
X41411271Y-41156552D01*
X41447009Y-41127222D01*
X41603534Y-41043557D01*
X41773373Y-40992037D01*
X41839558Y-40985518D01*
X41905740Y-40979000D01*
X41994260Y-40979000D01*
X42060442Y-40985518D01*
X42060442Y-40985518D01*
G37*
G36*
X44600442Y-40985518D02*
G01*
X44666627Y-40992037D01*
X44836466Y-41043557D01*
X44992991Y-41127222D01*
X45028729Y-41156552D01*
X45130186Y-41239814D01*
X45213448Y-41341271D01*
X45242778Y-41377009D01*
X45326443Y-41533534D01*
X45377963Y-41703373D01*
X45395359Y-41880000D01*
X45377963Y-42056627D01*
X45326443Y-42226466D01*
X45242778Y-42382991D01*
X45213448Y-42418729D01*
X45130186Y-42520186D01*
X45040242Y-42594000D01*
X44992991Y-42632778D01*
X44836466Y-42716443D01*
X44666627Y-42767963D01*
X44600442Y-42774482D01*
X44534260Y-42781000D01*
X44445740Y-42781000D01*
X44379558Y-42774482D01*
X44313373Y-42767963D01*
X44143534Y-42716443D01*
X43987009Y-42632778D01*
X43939758Y-42594000D01*
X43849814Y-42520186D01*
X43766552Y-42418729D01*
X43737222Y-42382991D01*
X43653557Y-42226466D01*
X43602037Y-42056627D01*
X43584641Y-41880000D01*
X43602037Y-41703373D01*
X43653557Y-41533534D01*
X43737222Y-41377009D01*
X43766552Y-41341271D01*
X43849814Y-41239814D01*
X43951271Y-41156552D01*
X43987009Y-41127222D01*
X44143534Y-41043557D01*
X44313373Y-40992037D01*
X44379558Y-40985518D01*
X44445740Y-40979000D01*
X44534260Y-40979000D01*
X44600442Y-40985518D01*
X44600442Y-40985518D01*
G37*
G36*
X40311000Y-42781000D02*
G01*
X38509000Y-42781000D01*
X38509000Y-40979000D01*
X40311000Y-40979000D01*
X40311000Y-42781000D01*
X40311000Y-42781000D01*
G37*
G36*
X49116823Y-40001313D02*
G01*
X49277242Y-40049976D01*
X49409906Y-40120886D01*
X49425078Y-40128996D01*
X49554659Y-40235341D01*
X49661004Y-40364922D01*
X49661005Y-40364924D01*
X49740024Y-40512758D01*
X49788687Y-40673177D01*
X49805117Y-40840000D01*
X49788687Y-41006823D01*
X49740024Y-41167242D01*
X49701233Y-41239814D01*
X49661004Y-41315078D01*
X49554659Y-41444659D01*
X49425078Y-41551004D01*
X49425076Y-41551005D01*
X49277242Y-41630024D01*
X49116823Y-41678687D01*
X48991804Y-41691000D01*
X48908196Y-41691000D01*
X48783177Y-41678687D01*
X48622758Y-41630024D01*
X48474924Y-41551005D01*
X48474922Y-41551004D01*
X48345341Y-41444659D01*
X48238996Y-41315078D01*
X48198767Y-41239814D01*
X48159976Y-41167242D01*
X48111313Y-41006823D01*
X48094883Y-40840000D01*
X48111313Y-40673177D01*
X48159976Y-40512758D01*
X48238995Y-40364924D01*
X48238996Y-40364922D01*
X48345341Y-40235341D01*
X48474922Y-40128996D01*
X48490094Y-40120886D01*
X48622758Y-40049976D01*
X48783177Y-40001313D01*
X48908196Y-39989000D01*
X48991804Y-39989000D01*
X49116823Y-40001313D01*
X49116823Y-40001313D01*
G37*
G36*
X78827142Y-35288242D02*
G01*
X78975101Y-35349529D01*
X79108255Y-35438499D01*
X79221501Y-35551745D01*
X79310471Y-35684899D01*
X79371758Y-35832858D01*
X79403000Y-35989925D01*
X79403000Y-36150075D01*
X79371758Y-36307142D01*
X79310471Y-36455101D01*
X79221501Y-36588255D01*
X79108255Y-36701501D01*
X78975101Y-36790471D01*
X78827142Y-36851758D01*
X78670075Y-36883000D01*
X78509925Y-36883000D01*
X78352858Y-36851758D01*
X78204899Y-36790471D01*
X78071745Y-36701501D01*
X77958499Y-36588255D01*
X77869529Y-36455101D01*
X77808242Y-36307142D01*
X77777000Y-36150075D01*
X77777000Y-35989925D01*
X77808242Y-35832858D01*
X77869529Y-35684899D01*
X77958499Y-35551745D01*
X78071745Y-35438499D01*
X78204899Y-35349529D01*
X78352858Y-35288242D01*
X78509925Y-35257000D01*
X78670075Y-35257000D01*
X78827142Y-35288242D01*
X78827142Y-35288242D01*
G37*
G36*
X81627142Y-35288242D02*
G01*
X81775101Y-35349529D01*
X81908255Y-35438499D01*
X82021501Y-35551745D01*
X82110471Y-35684899D01*
X82171758Y-35832858D01*
X82203000Y-35989925D01*
X82203000Y-36150075D01*
X82171758Y-36307142D01*
X82110471Y-36455101D01*
X82021501Y-36588255D01*
X81908255Y-36701501D01*
X81775101Y-36790471D01*
X81627142Y-36851758D01*
X81470075Y-36883000D01*
X81309925Y-36883000D01*
X81152858Y-36851758D01*
X81004899Y-36790471D01*
X80871745Y-36701501D01*
X80758499Y-36588255D01*
X80669529Y-36455101D01*
X80608242Y-36307142D01*
X80577000Y-36150075D01*
X80577000Y-35989925D01*
X80608242Y-35832858D01*
X80669529Y-35684899D01*
X80758499Y-35551745D01*
X80871745Y-35438499D01*
X81004899Y-35349529D01*
X81152858Y-35288242D01*
X81309925Y-35257000D01*
X81470075Y-35257000D01*
X81627142Y-35288242D01*
X81627142Y-35288242D01*
G37*
G36*
X85327142Y-35288242D02*
G01*
X85475101Y-35349529D01*
X85608255Y-35438499D01*
X85721501Y-35551745D01*
X85810471Y-35684899D01*
X85871758Y-35832858D01*
X85903000Y-35989925D01*
X85903000Y-36150075D01*
X85871758Y-36307142D01*
X85810471Y-36455101D01*
X85721501Y-36588255D01*
X85608255Y-36701501D01*
X85475101Y-36790471D01*
X85327142Y-36851758D01*
X85170075Y-36883000D01*
X85009925Y-36883000D01*
X84852858Y-36851758D01*
X84704899Y-36790471D01*
X84571745Y-36701501D01*
X84458499Y-36588255D01*
X84369529Y-36455101D01*
X84308242Y-36307142D01*
X84277000Y-36150075D01*
X84277000Y-35989925D01*
X84308242Y-35832858D01*
X84369529Y-35684899D01*
X84458499Y-35551745D01*
X84571745Y-35438499D01*
X84704899Y-35349529D01*
X84852858Y-35288242D01*
X85009925Y-35257000D01*
X85170075Y-35257000D01*
X85327142Y-35288242D01*
X85327142Y-35288242D01*
G37*
G36*
X62031000Y-35243000D02*
G01*
X60929000Y-35243000D01*
X60929000Y-33617000D01*
X62031000Y-33617000D01*
X62031000Y-35243000D01*
X62031000Y-35243000D01*
G37*
G36*
X60541000Y-35233000D02*
G01*
X59439000Y-35233000D01*
X59439000Y-33607000D01*
X60541000Y-33607000D01*
X60541000Y-35233000D01*
X60541000Y-35233000D01*
G37*
G36*
X58861000Y-35233000D02*
G01*
X57759000Y-35233000D01*
X57759000Y-33607000D01*
X58861000Y-33607000D01*
X58861000Y-35233000D01*
X58861000Y-35233000D01*
G37*
G36*
X55601000Y-35233000D02*
G01*
X54499000Y-35233000D01*
X54499000Y-33607000D01*
X55601000Y-33607000D01*
X55601000Y-35233000D01*
X55601000Y-35233000D01*
G37*
G36*
X54141000Y-35233000D02*
G01*
X53039000Y-35233000D01*
X53039000Y-33607000D01*
X54141000Y-33607000D01*
X54141000Y-35233000D01*
X54141000Y-35233000D01*
G37*
G36*
X57311000Y-35223000D02*
G01*
X56209000Y-35223000D01*
X56209000Y-33597000D01*
X57311000Y-33597000D01*
X57311000Y-35223000D01*
X57311000Y-35223000D01*
G37*
G36*
X70193254Y-30377818D02*
G01*
X70482310Y-30497549D01*
X70566513Y-30532427D01*
X70902436Y-30756884D01*
X71188116Y-31042564D01*
X71411841Y-31377391D01*
X71412574Y-31378489D01*
X71567182Y-31751746D01*
X71646000Y-32147993D01*
X71646000Y-32552007D01*
X71567182Y-32948254D01*
X71466633Y-33191000D01*
X71412573Y-33321513D01*
X71188116Y-33657436D01*
X70902436Y-33943116D01*
X70566513Y-34167573D01*
X70566512Y-34167574D01*
X70566511Y-34167574D01*
X70193254Y-34322182D01*
X69797007Y-34401000D01*
X69392993Y-34401000D01*
X68996746Y-34322182D01*
X68623489Y-34167574D01*
X68623488Y-34167574D01*
X68623487Y-34167573D01*
X68287564Y-33943116D01*
X68001884Y-33657436D01*
X67777427Y-33321513D01*
X67723367Y-33191000D01*
X67622818Y-32948254D01*
X67544000Y-32552007D01*
X67544000Y-32147993D01*
X67622818Y-31751746D01*
X67777426Y-31378489D01*
X67778160Y-31377391D01*
X68001884Y-31042564D01*
X68287564Y-30756884D01*
X68623487Y-30532427D01*
X68707690Y-30497549D01*
X68996746Y-30377818D01*
X69392993Y-30299000D01*
X69797007Y-30299000D01*
X70193254Y-30377818D01*
X70193254Y-30377818D01*
G37*
G36*
X49693254Y-30377818D02*
G01*
X49982310Y-30497549D01*
X50066513Y-30532427D01*
X50402436Y-30756884D01*
X50688116Y-31042564D01*
X50911841Y-31377391D01*
X50912574Y-31378489D01*
X51067182Y-31751746D01*
X51146000Y-32147993D01*
X51146000Y-32552007D01*
X51067182Y-32948254D01*
X50966633Y-33191000D01*
X50912573Y-33321513D01*
X50688116Y-33657436D01*
X50402436Y-33943116D01*
X50066513Y-34167573D01*
X50066512Y-34167574D01*
X50066511Y-34167574D01*
X49693254Y-34322182D01*
X49297007Y-34401000D01*
X48892993Y-34401000D01*
X48496746Y-34322182D01*
X48123489Y-34167574D01*
X48123488Y-34167574D01*
X48123487Y-34167573D01*
X47787564Y-33943116D01*
X47501884Y-33657436D01*
X47277427Y-33321513D01*
X47223367Y-33191000D01*
X47122818Y-32948254D01*
X47044000Y-32552007D01*
X47044000Y-32147993D01*
X47122818Y-31751746D01*
X47277426Y-31378489D01*
X47278160Y-31377391D01*
X47501884Y-31042564D01*
X47787564Y-30756884D01*
X48123487Y-30532427D01*
X48207690Y-30497549D01*
X48496746Y-30377818D01*
X48892993Y-30299000D01*
X49297007Y-30299000D01*
X49693254Y-30377818D01*
X49693254Y-30377818D01*
G37*
G36*
X32645256Y-29941298D02*
G01*
X32751579Y-29962447D01*
X32921945Y-30033015D01*
X33027898Y-30076902D01*
X33052042Y-30086903D01*
X33322451Y-30267585D01*
X33552415Y-30497549D01*
X33733097Y-30767958D01*
X33857479Y-31068242D01*
X33857553Y-31068422D01*
X33921000Y-31387389D01*
X33921000Y-31712611D01*
X33909599Y-31769925D01*
X33857553Y-32031579D01*
X33733097Y-32332042D01*
X33552415Y-32602451D01*
X33322451Y-32832415D01*
X33052042Y-33013097D01*
X32751579Y-33137553D01*
X32645256Y-33158702D01*
X32432611Y-33201000D01*
X32107389Y-33201000D01*
X31894744Y-33158702D01*
X31788421Y-33137553D01*
X31487958Y-33013097D01*
X31217549Y-32832415D01*
X30987585Y-32602451D01*
X30806903Y-32332042D01*
X30682447Y-32031579D01*
X30630401Y-31769925D01*
X30619000Y-31712611D01*
X30619000Y-31387389D01*
X30682447Y-31068422D01*
X30682522Y-31068242D01*
X30806903Y-30767958D01*
X30987585Y-30497549D01*
X31217549Y-30267585D01*
X31487958Y-30086903D01*
X31512103Y-30076902D01*
X31618055Y-30033015D01*
X31788421Y-29962447D01*
X31894744Y-29941298D01*
X32107389Y-29899000D01*
X32432611Y-29899000D01*
X32645256Y-29941298D01*
X32645256Y-29941298D01*
G37*
G36*
X86495256Y-29931298D02*
G01*
X86601579Y-29952447D01*
X86902042Y-30076903D01*
X87172451Y-30257585D01*
X87402415Y-30487549D01*
X87583097Y-30757958D01*
X87707553Y-31058421D01*
X87709507Y-31068243D01*
X87771000Y-31377389D01*
X87771000Y-31702611D01*
X87739587Y-31860532D01*
X87707553Y-32021579D01*
X87583097Y-32322042D01*
X87402415Y-32592451D01*
X87172451Y-32822415D01*
X86902042Y-33003097D01*
X86902041Y-33003098D01*
X86902040Y-33003098D01*
X86814037Y-33039550D01*
X86601579Y-33127553D01*
X86495256Y-33148702D01*
X86282611Y-33191000D01*
X85957389Y-33191000D01*
X85744744Y-33148702D01*
X85638421Y-33127553D01*
X85425963Y-33039550D01*
X85337960Y-33003098D01*
X85337959Y-33003098D01*
X85337958Y-33003097D01*
X85067549Y-32822415D01*
X84837585Y-32592451D01*
X84656903Y-32322042D01*
X84532447Y-32021579D01*
X84500413Y-31860532D01*
X84469000Y-31702611D01*
X84469000Y-31377389D01*
X84530493Y-31068243D01*
X84532447Y-31058421D01*
X84656903Y-30757958D01*
X84837585Y-30487549D01*
X85067549Y-30257585D01*
X85337958Y-30076903D01*
X85638421Y-29952447D01*
X85744744Y-29931298D01*
X85957389Y-29889000D01*
X86282611Y-29889000D01*
X86495256Y-29931298D01*
X86495256Y-29931298D01*
G37*
G36*
X44253114Y-31781611D02*
G01*
X44352265Y-31811688D01*
X44443644Y-31860531D01*
X44523738Y-31926262D01*
X44589469Y-32006356D01*
X44638312Y-32097735D01*
X44668389Y-32196886D01*
X44678545Y-32300000D01*
X44668389Y-32403114D01*
X44638312Y-32502265D01*
X44589469Y-32593644D01*
X44523738Y-32673738D01*
X44443644Y-32739469D01*
X44352265Y-32788312D01*
X44253114Y-32818389D01*
X44175839Y-32826000D01*
X43824161Y-32826000D01*
X43746886Y-32818389D01*
X43647735Y-32788312D01*
X43556356Y-32739469D01*
X43476262Y-32673738D01*
X43410531Y-32593644D01*
X43361688Y-32502265D01*
X43331611Y-32403114D01*
X43321455Y-32300000D01*
X43331611Y-32196886D01*
X43361688Y-32097735D01*
X43410531Y-32006356D01*
X43476262Y-31926262D01*
X43556356Y-31860531D01*
X43647735Y-31811688D01*
X43746886Y-31781611D01*
X43824161Y-31774000D01*
X44175839Y-31774000D01*
X44253114Y-31781611D01*
X44253114Y-31781611D01*
G37*
G36*
X39253114Y-31781611D02*
G01*
X39352265Y-31811688D01*
X39443644Y-31860531D01*
X39523738Y-31926262D01*
X39589469Y-32006356D01*
X39638312Y-32097735D01*
X39668389Y-32196886D01*
X39678545Y-32300000D01*
X39668389Y-32403114D01*
X39638312Y-32502265D01*
X39589469Y-32593644D01*
X39523738Y-32673738D01*
X39443644Y-32739469D01*
X39352265Y-32788312D01*
X39253114Y-32818389D01*
X39175839Y-32826000D01*
X38824161Y-32826000D01*
X38746886Y-32818389D01*
X38647735Y-32788312D01*
X38556356Y-32739469D01*
X38476262Y-32673738D01*
X38410531Y-32593644D01*
X38361688Y-32502265D01*
X38331611Y-32403114D01*
X38321455Y-32300000D01*
X38331611Y-32196886D01*
X38361688Y-32097735D01*
X38410531Y-32006356D01*
X38476262Y-31926262D01*
X38556356Y-31860531D01*
X38647735Y-31811688D01*
X38746886Y-31781611D01*
X38824161Y-31774000D01*
X39175839Y-31774000D01*
X39253114Y-31781611D01*
X39253114Y-31781611D01*
G37*
G36*
X58312142Y-31068242D02*
G01*
X58460101Y-31129529D01*
X58593255Y-31218499D01*
X58706501Y-31331745D01*
X58795471Y-31464899D01*
X58856758Y-31612858D01*
X58888000Y-31769925D01*
X58888000Y-31930075D01*
X58856758Y-32087142D01*
X58795471Y-32235101D01*
X58706501Y-32368255D01*
X58593255Y-32481501D01*
X58460101Y-32570471D01*
X58312142Y-32631758D01*
X58155075Y-32663000D01*
X57994925Y-32663000D01*
X57837858Y-32631758D01*
X57689899Y-32570471D01*
X57556745Y-32481501D01*
X57443499Y-32368255D01*
X57354529Y-32235101D01*
X57293242Y-32087142D01*
X57262000Y-31930075D01*
X57262000Y-31769925D01*
X57293242Y-31612858D01*
X57354529Y-31464899D01*
X57443499Y-31331745D01*
X57556745Y-31218499D01*
X57689899Y-31129529D01*
X57837858Y-31068242D01*
X57994925Y-31037000D01*
X58155075Y-31037000D01*
X58312142Y-31068242D01*
X58312142Y-31068242D01*
G37*
G36*
X63392142Y-31068242D02*
G01*
X63540101Y-31129529D01*
X63673255Y-31218499D01*
X63786501Y-31331745D01*
X63875471Y-31464899D01*
X63936758Y-31612858D01*
X63968000Y-31769925D01*
X63968000Y-31930075D01*
X63936758Y-32087142D01*
X63875471Y-32235101D01*
X63786501Y-32368255D01*
X63673255Y-32481501D01*
X63540101Y-32570471D01*
X63392142Y-32631758D01*
X63235075Y-32663000D01*
X63074925Y-32663000D01*
X62917858Y-32631758D01*
X62769899Y-32570471D01*
X62636745Y-32481501D01*
X62523499Y-32368255D01*
X62434529Y-32235101D01*
X62373242Y-32087142D01*
X62342000Y-31930075D01*
X62342000Y-31769925D01*
X62373242Y-31612858D01*
X62434529Y-31464899D01*
X62523499Y-31331745D01*
X62636745Y-31218499D01*
X62769899Y-31129529D01*
X62917858Y-31068242D01*
X63074925Y-31037000D01*
X63235075Y-31037000D01*
X63392142Y-31068242D01*
X63392142Y-31068242D01*
G37*
G36*
X60852142Y-31068242D02*
G01*
X61000101Y-31129529D01*
X61133255Y-31218499D01*
X61246501Y-31331745D01*
X61335471Y-31464899D01*
X61396758Y-31612858D01*
X61428000Y-31769925D01*
X61428000Y-31930075D01*
X61396758Y-32087142D01*
X61335471Y-32235101D01*
X61246501Y-32368255D01*
X61133255Y-32481501D01*
X61000101Y-32570471D01*
X60852142Y-32631758D01*
X60695075Y-32663000D01*
X60534925Y-32663000D01*
X60377858Y-32631758D01*
X60229899Y-32570471D01*
X60096745Y-32481501D01*
X59983499Y-32368255D01*
X59894529Y-32235101D01*
X59833242Y-32087142D01*
X59802000Y-31930075D01*
X59802000Y-31769925D01*
X59833242Y-31612858D01*
X59894529Y-31464899D01*
X59983499Y-31331745D01*
X60096745Y-31218499D01*
X60229899Y-31129529D01*
X60377858Y-31068242D01*
X60534925Y-31037000D01*
X60695075Y-31037000D01*
X60852142Y-31068242D01*
X60852142Y-31068242D01*
G37*
G36*
X55772142Y-31068242D02*
G01*
X55920101Y-31129529D01*
X56053255Y-31218499D01*
X56166501Y-31331745D01*
X56255471Y-31464899D01*
X56316758Y-31612858D01*
X56348000Y-31769925D01*
X56348000Y-31930075D01*
X56316758Y-32087142D01*
X56255471Y-32235101D01*
X56166501Y-32368255D01*
X56053255Y-32481501D01*
X55920101Y-32570471D01*
X55772142Y-32631758D01*
X55615075Y-32663000D01*
X55454925Y-32663000D01*
X55297858Y-32631758D01*
X55149899Y-32570471D01*
X55016745Y-32481501D01*
X54903499Y-32368255D01*
X54814529Y-32235101D01*
X54753242Y-32087142D01*
X54722000Y-31930075D01*
X54722000Y-31769925D01*
X54753242Y-31612858D01*
X54814529Y-31464899D01*
X54903499Y-31331745D01*
X55016745Y-31218499D01*
X55149899Y-31129529D01*
X55297858Y-31068242D01*
X55454925Y-31037000D01*
X55615075Y-31037000D01*
X55772142Y-31068242D01*
X55772142Y-31068242D01*
G37*
G36*
X45108015Y-28731973D02*
G01*
X45211879Y-28763479D01*
X45239055Y-28778005D01*
X45307600Y-28814643D01*
X45391501Y-28883499D01*
X45460357Y-28967400D01*
X45496995Y-29035945D01*
X45511521Y-29063121D01*
X45543027Y-29166985D01*
X45551000Y-29247933D01*
X45551000Y-29952067D01*
X45543027Y-30033015D01*
X45511521Y-30136879D01*
X45460356Y-30232600D01*
X45391501Y-30316501D01*
X45322645Y-30373009D01*
X45307599Y-30385357D01*
X45255907Y-30412987D01*
X45211878Y-30436521D01*
X45108014Y-30468027D01*
X45000000Y-30478666D01*
X44891985Y-30468027D01*
X44788121Y-30436521D01*
X44744093Y-30412987D01*
X44692401Y-30385357D01*
X44679643Y-30374887D01*
X44608499Y-30316501D01*
X44539644Y-30232600D01*
X44488479Y-30136878D01*
X44456973Y-30033014D01*
X44449000Y-29952066D01*
X44449000Y-29247933D01*
X44456973Y-29166985D01*
X44488480Y-29063121D01*
X44488482Y-29063118D01*
X44539645Y-28967399D01*
X44608500Y-28883499D01*
X44692401Y-28814643D01*
X44760946Y-28778005D01*
X44788122Y-28763479D01*
X44891986Y-28731973D01*
X45000000Y-28721334D01*
X45108015Y-28731973D01*
X45108015Y-28731973D01*
G37*
G36*
X38108015Y-28731973D02*
G01*
X38211879Y-28763479D01*
X38239055Y-28778005D01*
X38307600Y-28814643D01*
X38391501Y-28883499D01*
X38460357Y-28967400D01*
X38496995Y-29035945D01*
X38511521Y-29063121D01*
X38543027Y-29166985D01*
X38551000Y-29247933D01*
X38551000Y-29952067D01*
X38543027Y-30033015D01*
X38511521Y-30136879D01*
X38460356Y-30232600D01*
X38391501Y-30316501D01*
X38322645Y-30373009D01*
X38307599Y-30385357D01*
X38255907Y-30412987D01*
X38211878Y-30436521D01*
X38108014Y-30468027D01*
X38000000Y-30478666D01*
X37891985Y-30468027D01*
X37788121Y-30436521D01*
X37744093Y-30412987D01*
X37692401Y-30385357D01*
X37679643Y-30374887D01*
X37608499Y-30316501D01*
X37539644Y-30232600D01*
X37488479Y-30136878D01*
X37456973Y-30033014D01*
X37449000Y-29952066D01*
X37449000Y-29247933D01*
X37456973Y-29166985D01*
X37488480Y-29063121D01*
X37488482Y-29063118D01*
X37539645Y-28967399D01*
X37608500Y-28883499D01*
X37692401Y-28814643D01*
X37760946Y-28778005D01*
X37788122Y-28763479D01*
X37891986Y-28731973D01*
X38000000Y-28721334D01*
X38108015Y-28731973D01*
X38108015Y-28731973D01*
G37*
M02*
