M48
INCH,TZ
T1C0.0157
T2C0.0197
T3C0.0217
T4C0.0300
T5C0.0315
T6C0.0354
T7C0.0394
T8C0.0433
T9C0.0512
T10C0.1575
T11C0.1260
T12C0.1575
%
G90
G05
T1
X12026Y-32069
X13339Y-29781
X13339Y-30530
X13689Y-32358
X14232Y-27370
X14394Y-31193
X14823Y-22642
X16819Y-20886
X17892Y-14911
X20488Y-15587
X20531Y-16909
X21118Y-14128
X21240Y-21272
X21240Y-22106
X22941Y-14354
X23882Y-30685
X24260Y-18724
X24827Y-19311
X26335Y-16657
X26868Y-28122
X29669Y-25425
X30083Y-20752
X30744Y-21965
X32693Y-19772
T2
X30646Y-33283
X13331Y-16957
X12669Y-30720
X30587Y-19433
X25512Y-22358
X32500Y-22992
X30638Y-34878
T4
X30941Y-14201
X30941Y-18256
X32043Y-14201
X32043Y-18256
X33500Y-14201
X33500Y-18256
X21864Y-12539
X22864Y-12539
X23864Y-12539
X24864Y-12539
X31445Y-31008
X32445Y-31008
X33445Y-31008
T5
X20650Y-23484
X24650Y-23484
X19272Y-16079
X19272Y-20079
X18331Y-27799
X18331Y-29177
X25248Y-30063
X26232Y-30063
X20898Y-29272
X20898Y-30256
X26921Y-24146
X26921Y-25524
X15748Y-28102
X15748Y-32102
X21213Y-24850
X21213Y-27850
X22213Y-24850
X22213Y-27850
X23213Y-24850
X23213Y-27850
X24213Y-24850
X24213Y-27850
X15268Y-34256
X16252Y-34256
X29476Y-24291
X29476Y-27291
X30476Y-24291
X30476Y-27291
X31476Y-24291
X31476Y-27291
X32476Y-24291
X32476Y-27291
T6
X16157Y-18669
X17157Y-18669
T7
X22902Y-31827
X23902Y-31827
X15516Y-16488
X16516Y-16488
X17516Y-16488
X22909Y-29307
X22909Y-30094
X12419Y-18598
X12419Y-19598
X12419Y-21598
X12419Y-22598
X12419Y-23598
T8
X15835Y-23772
X15835Y-26772
X29614Y-28579
X32614Y-28579
T9
X17472Y-24752
X19441Y-24752
T10
X19640Y-33520
X27140Y-33520
T11
X12705Y-34626
X12705Y-12421
X33906Y-34626
X33906Y-12417
T12
X19329Y-12736
X19329Y-21791
X27400Y-12736
X27400Y-21791
T2
G00X14961Y-11783
M15
G01X14961Y-11524
M16
G05
G00X17717Y-11781
M15
G01X17717Y-11526
M16
G05
T3
G00X15413Y-12717
M15
G01X15295Y-12717
M16
G05
G00X17382Y-12717
M15
G01X17264Y-12717
M16
G05
T0
M30
