G04 #@! TF.GenerationSoftware,KiCad,Pcbnew,(5.1.2-1)-1*
G04 #@! TF.CreationDate,2019-08-12T17:05:30-07:00*
G04 #@! TF.ProjectId,powersupply,706f7765-7273-4757-9070-6c792e6b6963,rev?*
G04 #@! TF.SameCoordinates,Original*
G04 #@! TF.FileFunction,Legend,Top*
G04 #@! TF.FilePolarity,Positive*
%FSLAX46Y46*%
G04 Gerber Fmt 4.6, Leading zero omitted, Abs format (unit mm)*
G04 Created by KiCad (PCBNEW (5.1.2-1)-1) date 2019-08-12 17:05:30*
%MOMM*%
%LPD*%
G04 APERTURE LIST*
%ADD10C,0.120000*%
%ADD11C,0.150000*%
%ADD12C,0.250000*%
%ADD13C,0.237500*%
G04 APERTURE END LIST*
D10*
X72740000Y-47290000D02*
G75*
G03X72740000Y-47290000I-320000J0D01*
G01*
D11*
X44188095Y-40192380D02*
X44188095Y-39192380D01*
X44426190Y-39192380D01*
X44569047Y-39240000D01*
X44664285Y-39335238D01*
X44711904Y-39430476D01*
X44759523Y-39620952D01*
X44759523Y-39763809D01*
X44711904Y-39954285D01*
X44664285Y-40049523D01*
X44569047Y-40144761D01*
X44426190Y-40192380D01*
X44188095Y-40192380D01*
X39729523Y-40117142D02*
X39681904Y-40164761D01*
X39539047Y-40212380D01*
X39443809Y-40212380D01*
X39300952Y-40164761D01*
X39205714Y-40069523D01*
X39158095Y-39974285D01*
X39110476Y-39783809D01*
X39110476Y-39640952D01*
X39158095Y-39450476D01*
X39205714Y-39355238D01*
X39300952Y-39260000D01*
X39443809Y-39212380D01*
X39539047Y-39212380D01*
X39681904Y-39260000D01*
X39729523Y-39307619D01*
D12*
X29517976Y-42326428D02*
X30279880Y-42326428D01*
X29898928Y-42707380D02*
X29898928Y-41945476D01*
X31232261Y-41707380D02*
X30756071Y-41707380D01*
X30708452Y-42183571D01*
X30756071Y-42135952D01*
X30851309Y-42088333D01*
X31089404Y-42088333D01*
X31184642Y-42135952D01*
X31232261Y-42183571D01*
X31279880Y-42278809D01*
X31279880Y-42516904D01*
X31232261Y-42612142D01*
X31184642Y-42659761D01*
X31089404Y-42707380D01*
X30851309Y-42707380D01*
X30756071Y-42659761D01*
X30708452Y-42612142D01*
X31565595Y-41707380D02*
X31898928Y-42707380D01*
X32232261Y-41707380D01*
X30375119Y-44457380D02*
X30375119Y-43457380D01*
X30803690Y-44409761D02*
X30898928Y-44457380D01*
X31089404Y-44457380D01*
X31184642Y-44409761D01*
X31232261Y-44314523D01*
X31232261Y-44266904D01*
X31184642Y-44171666D01*
X31089404Y-44124047D01*
X30946547Y-44124047D01*
X30851309Y-44076428D01*
X30803690Y-43981190D01*
X30803690Y-43933571D01*
X30851309Y-43838333D01*
X30946547Y-43790714D01*
X31089404Y-43790714D01*
X31184642Y-43838333D01*
X31803690Y-44457380D02*
X31708452Y-44409761D01*
X31660833Y-44362142D01*
X31613214Y-44266904D01*
X31613214Y-43981190D01*
X31660833Y-43885952D01*
X31708452Y-43838333D01*
X31803690Y-43790714D01*
X31946547Y-43790714D01*
X32041785Y-43838333D01*
X32089404Y-43885952D01*
X32137023Y-43981190D01*
X32137023Y-44266904D01*
X32089404Y-44362142D01*
X32041785Y-44409761D01*
X31946547Y-44457380D01*
X31803690Y-44457380D01*
X100565238Y56358571D02*
X101327142Y56358571D01*
X100946190Y55977619D02*
X100946190Y56739523D01*
X102279523Y56977619D02*
X101803333Y56977619D01*
X101755714Y56501428D01*
X101803333Y56549047D01*
X101898571Y56596666D01*
X102136666Y56596666D01*
X102231904Y56549047D01*
X102279523Y56501428D01*
X102327142Y56406190D01*
X102327142Y56168095D01*
X102279523Y56072857D01*
X102231904Y56025238D01*
X102136666Y55977619D01*
X101898571Y55977619D01*
X101803333Y56025238D01*
X101755714Y56072857D01*
X102612857Y56977619D02*
X102946190Y55977619D01*
X103279523Y56977619D01*
X104374761Y55977619D02*
X104374761Y56977619D01*
X72595238Y-49213571D02*
X72738095Y-49261190D01*
X72785714Y-49308809D01*
X72833333Y-49404047D01*
X72833333Y-49546904D01*
X72785714Y-49642142D01*
X72738095Y-49689761D01*
X72642857Y-49737380D01*
X72261904Y-49737380D01*
X72261904Y-48737380D01*
X72595238Y-48737380D01*
X72690476Y-48785000D01*
X72738095Y-48832619D01*
X72785714Y-48927857D01*
X72785714Y-49023095D01*
X72738095Y-49118333D01*
X72690476Y-49165952D01*
X72595238Y-49213571D01*
X72261904Y-49213571D01*
X73404761Y-49737380D02*
X73309523Y-49689761D01*
X73261904Y-49642142D01*
X73214285Y-49546904D01*
X73214285Y-49261190D01*
X73261904Y-49165952D01*
X73309523Y-49118333D01*
X73404761Y-49070714D01*
X73547619Y-49070714D01*
X73642857Y-49118333D01*
X73690476Y-49165952D01*
X73738095Y-49261190D01*
X73738095Y-49546904D01*
X73690476Y-49642142D01*
X73642857Y-49689761D01*
X73547619Y-49737380D01*
X73404761Y-49737380D01*
X74309523Y-49737380D02*
X74214285Y-49689761D01*
X74166666Y-49642142D01*
X74119047Y-49546904D01*
X74119047Y-49261190D01*
X74166666Y-49165952D01*
X74214285Y-49118333D01*
X74309523Y-49070714D01*
X74452380Y-49070714D01*
X74547619Y-49118333D01*
X74595238Y-49165952D01*
X74642857Y-49261190D01*
X74642857Y-49546904D01*
X74595238Y-49642142D01*
X74547619Y-49689761D01*
X74452380Y-49737380D01*
X74309523Y-49737380D01*
X75023809Y-49689761D02*
X75119047Y-49737380D01*
X75309523Y-49737380D01*
X75404761Y-49689761D01*
X75452380Y-49594523D01*
X75452380Y-49546904D01*
X75404761Y-49451666D01*
X75309523Y-49404047D01*
X75166666Y-49404047D01*
X75071428Y-49356428D01*
X75023809Y-49261190D01*
X75023809Y-49213571D01*
X75071428Y-49118333D01*
X75166666Y-49070714D01*
X75309523Y-49070714D01*
X75404761Y-49118333D01*
X75738095Y-49070714D02*
X76119047Y-49070714D01*
X75880952Y-48737380D02*
X75880952Y-49594523D01*
X75928571Y-49689761D01*
X76023809Y-49737380D01*
X76119047Y-49737380D01*
X73952380Y-51392142D02*
X73904761Y-51439761D01*
X73761904Y-51487380D01*
X73666666Y-51487380D01*
X73523809Y-51439761D01*
X73428571Y-51344523D01*
X73380952Y-51249285D01*
X73333333Y-51058809D01*
X73333333Y-50915952D01*
X73380952Y-50725476D01*
X73428571Y-50630238D01*
X73523809Y-50535000D01*
X73666666Y-50487380D01*
X73761904Y-50487380D01*
X73904761Y-50535000D01*
X73952380Y-50582619D01*
X74238095Y-50820714D02*
X74619047Y-50820714D01*
X74380952Y-50487380D02*
X74380952Y-51344523D01*
X74428571Y-51439761D01*
X74523809Y-51487380D01*
X74619047Y-51487380D01*
X74952380Y-51487380D02*
X74952380Y-50820714D01*
X74952380Y-51011190D02*
X75000000Y-50915952D01*
X75047619Y-50868333D01*
X75142857Y-50820714D01*
X75238095Y-50820714D01*
X75714285Y-51487380D02*
X75619047Y-51439761D01*
X75571428Y-51344523D01*
X75571428Y-50487380D01*
X54137142Y-57207142D02*
X54089523Y-57254761D01*
X53946666Y-57302380D01*
X53851428Y-57302380D01*
X53708571Y-57254761D01*
X53613333Y-57159523D01*
X53565714Y-57064285D01*
X53518095Y-56873809D01*
X53518095Y-56730952D01*
X53565714Y-56540476D01*
X53613333Y-56445238D01*
X53708571Y-56350000D01*
X53851428Y-56302380D01*
X53946666Y-56302380D01*
X54089523Y-56350000D01*
X54137142Y-56397619D01*
X54994285Y-56635714D02*
X54994285Y-57302380D01*
X54565714Y-56635714D02*
X54565714Y-57159523D01*
X54613333Y-57254761D01*
X54708571Y-57302380D01*
X54851428Y-57302380D01*
X54946666Y-57254761D01*
X54994285Y-57207142D01*
X55470476Y-57302380D02*
X55470476Y-56635714D01*
X55470476Y-56826190D02*
X55518095Y-56730952D01*
X55565714Y-56683333D01*
X55660952Y-56635714D01*
X55756190Y-56635714D01*
X56089523Y-57302380D02*
X56089523Y-56635714D01*
X56089523Y-56826190D02*
X56137142Y-56730952D01*
X56184761Y-56683333D01*
X56280000Y-56635714D01*
X56375238Y-56635714D01*
X57089523Y-57254761D02*
X56994285Y-57302380D01*
X56803809Y-57302380D01*
X56708571Y-57254761D01*
X56660952Y-57159523D01*
X56660952Y-56778571D01*
X56708571Y-56683333D01*
X56803809Y-56635714D01*
X56994285Y-56635714D01*
X57089523Y-56683333D01*
X57137142Y-56778571D01*
X57137142Y-56873809D01*
X56660952Y-56969047D01*
X57565714Y-56635714D02*
X57565714Y-57302380D01*
X57565714Y-56730952D02*
X57613333Y-56683333D01*
X57708571Y-56635714D01*
X57851428Y-56635714D01*
X57946666Y-56683333D01*
X57994285Y-56778571D01*
X57994285Y-57302380D01*
X58327619Y-56635714D02*
X58708571Y-56635714D01*
X58470476Y-56302380D02*
X58470476Y-57159523D01*
X58518095Y-57254761D01*
X58613333Y-57302380D01*
X58708571Y-57302380D01*
X60280000Y-57302380D02*
X59803809Y-57302380D01*
X59803809Y-56302380D01*
X60613333Y-57302380D02*
X60613333Y-56635714D01*
X60613333Y-56302380D02*
X60565714Y-56350000D01*
X60613333Y-56397619D01*
X60660952Y-56350000D01*
X60613333Y-56302380D01*
X60613333Y-56397619D01*
X61089523Y-57302380D02*
X61089523Y-56635714D01*
X61089523Y-56730952D02*
X61137142Y-56683333D01*
X61232380Y-56635714D01*
X61375238Y-56635714D01*
X61470476Y-56683333D01*
X61518095Y-56778571D01*
X61518095Y-57302380D01*
X61518095Y-56778571D02*
X61565714Y-56683333D01*
X61660952Y-56635714D01*
X61803809Y-56635714D01*
X61899047Y-56683333D01*
X61946666Y-56778571D01*
X61946666Y-57302380D01*
X62422857Y-57302380D02*
X62422857Y-56635714D01*
X62422857Y-56302380D02*
X62375238Y-56350000D01*
X62422857Y-56397619D01*
X62470476Y-56350000D01*
X62422857Y-56302380D01*
X62422857Y-56397619D01*
X62756190Y-56635714D02*
X63137142Y-56635714D01*
X62899047Y-56302380D02*
X62899047Y-57159523D01*
X62946666Y-57254761D01*
X63041904Y-57302380D01*
X63137142Y-57302380D01*
X33520000Y-78151428D02*
X34281904Y-78151428D01*
X33900952Y-78532380D02*
X33900952Y-77770476D01*
X34662857Y-77532380D02*
X35281904Y-77532380D01*
X34948571Y-77913333D01*
X35091428Y-77913333D01*
X35186666Y-77960952D01*
X35234285Y-78008571D01*
X35281904Y-78103809D01*
X35281904Y-78341904D01*
X35234285Y-78437142D01*
X35186666Y-78484761D01*
X35091428Y-78532380D01*
X34805714Y-78532380D01*
X34710476Y-78484761D01*
X34662857Y-78437142D01*
X35710476Y-78437142D02*
X35758095Y-78484761D01*
X35710476Y-78532380D01*
X35662857Y-78484761D01*
X35710476Y-78437142D01*
X35710476Y-78532380D01*
X36091428Y-77532380D02*
X36710476Y-77532380D01*
X36377142Y-77913333D01*
X36520000Y-77913333D01*
X36615238Y-77960952D01*
X36662857Y-78008571D01*
X36710476Y-78103809D01*
X36710476Y-78341904D01*
X36662857Y-78437142D01*
X36615238Y-78484761D01*
X36520000Y-78532380D01*
X36234285Y-78532380D01*
X36139047Y-78484761D01*
X36091428Y-78437142D01*
X36996190Y-77532380D02*
X37329523Y-78532380D01*
X37662857Y-77532380D01*
D13*
X84144851Y-56948511D02*
X84461517Y-57898511D01*
X84778184Y-56948511D01*
X84732946Y-59561011D02*
X84280565Y-59561011D01*
X84280565Y-58611011D01*
X85049613Y-59561011D02*
X85049613Y-58927678D01*
X85049613Y-58611011D02*
X85004375Y-58656250D01*
X85049613Y-58701488D01*
X85094851Y-58656250D01*
X85049613Y-58611011D01*
X85049613Y-58701488D01*
X85501994Y-59561011D02*
X85501994Y-58927678D01*
X85501994Y-59018154D02*
X85547232Y-58972916D01*
X85637708Y-58927678D01*
X85773422Y-58927678D01*
X85863898Y-58972916D01*
X85909136Y-59063392D01*
X85909136Y-59561011D01*
X85909136Y-59063392D02*
X85954375Y-58972916D01*
X86044851Y-58927678D01*
X86180565Y-58927678D01*
X86271041Y-58972916D01*
X86316279Y-59063392D01*
X86316279Y-59561011D01*
X86768660Y-59561011D02*
X86768660Y-58927678D01*
X86768660Y-58611011D02*
X86723422Y-58656250D01*
X86768660Y-58701488D01*
X86813898Y-58656250D01*
X86768660Y-58611011D01*
X86768660Y-58701488D01*
X87085327Y-58927678D02*
X87447232Y-58927678D01*
X87221041Y-58611011D02*
X87221041Y-59425297D01*
X87266279Y-59515773D01*
X87356755Y-59561011D01*
X87447232Y-59561011D01*
D12*
X79753928Y-83693571D02*
X79896785Y-83741190D01*
X79944404Y-83788809D01*
X79992023Y-83884047D01*
X79992023Y-84026904D01*
X79944404Y-84122142D01*
X79896785Y-84169761D01*
X79801547Y-84217380D01*
X79420595Y-84217380D01*
X79420595Y-83217380D01*
X79753928Y-83217380D01*
X79849166Y-83265000D01*
X79896785Y-83312619D01*
X79944404Y-83407857D01*
X79944404Y-83503095D01*
X79896785Y-83598333D01*
X79849166Y-83645952D01*
X79753928Y-83693571D01*
X79420595Y-83693571D01*
X80563452Y-84217380D02*
X80468214Y-84169761D01*
X80420595Y-84122142D01*
X80372976Y-84026904D01*
X80372976Y-83741190D01*
X80420595Y-83645952D01*
X80468214Y-83598333D01*
X80563452Y-83550714D01*
X80706309Y-83550714D01*
X80801547Y-83598333D01*
X80849166Y-83645952D01*
X80896785Y-83741190D01*
X80896785Y-84026904D01*
X80849166Y-84122142D01*
X80801547Y-84169761D01*
X80706309Y-84217380D01*
X80563452Y-84217380D01*
X81468214Y-84217380D02*
X81372976Y-84169761D01*
X81325357Y-84122142D01*
X81277738Y-84026904D01*
X81277738Y-83741190D01*
X81325357Y-83645952D01*
X81372976Y-83598333D01*
X81468214Y-83550714D01*
X81611071Y-83550714D01*
X81706309Y-83598333D01*
X81753928Y-83645952D01*
X81801547Y-83741190D01*
X81801547Y-84026904D01*
X81753928Y-84122142D01*
X81706309Y-84169761D01*
X81611071Y-84217380D01*
X81468214Y-84217380D01*
X82182500Y-84169761D02*
X82277738Y-84217380D01*
X82468214Y-84217380D01*
X82563452Y-84169761D01*
X82611071Y-84074523D01*
X82611071Y-84026904D01*
X82563452Y-83931666D01*
X82468214Y-83884047D01*
X82325357Y-83884047D01*
X82230119Y-83836428D01*
X82182500Y-83741190D01*
X82182500Y-83693571D01*
X82230119Y-83598333D01*
X82325357Y-83550714D01*
X82468214Y-83550714D01*
X82563452Y-83598333D01*
X82896785Y-83550714D02*
X83277738Y-83550714D01*
X83039642Y-83217380D02*
X83039642Y-84074523D01*
X83087261Y-84169761D01*
X83182500Y-84217380D01*
X83277738Y-84217380D01*
X79611071Y-84967380D02*
X79801547Y-84967380D01*
X79896785Y-85015000D01*
X79992023Y-85110238D01*
X80039642Y-85300714D01*
X80039642Y-85634047D01*
X79992023Y-85824523D01*
X79896785Y-85919761D01*
X79801547Y-85967380D01*
X79611071Y-85967380D01*
X79515833Y-85919761D01*
X79420595Y-85824523D01*
X79372976Y-85634047D01*
X79372976Y-85300714D01*
X79420595Y-85110238D01*
X79515833Y-85015000D01*
X79611071Y-84967380D01*
X80896785Y-85300714D02*
X80896785Y-85967380D01*
X80468214Y-85300714D02*
X80468214Y-85824523D01*
X80515833Y-85919761D01*
X80611071Y-85967380D01*
X80753928Y-85967380D01*
X80849166Y-85919761D01*
X80896785Y-85872142D01*
X81230119Y-85300714D02*
X81611071Y-85300714D01*
X81372976Y-84967380D02*
X81372976Y-85824523D01*
X81420595Y-85919761D01*
X81515833Y-85967380D01*
X81611071Y-85967380D01*
X79768095Y-88170000D02*
X79672857Y-88122380D01*
X79530000Y-88122380D01*
X79387142Y-88170000D01*
X79291904Y-88265238D01*
X79244285Y-88360476D01*
X79196666Y-88550952D01*
X79196666Y-88693809D01*
X79244285Y-88884285D01*
X79291904Y-88979523D01*
X79387142Y-89074761D01*
X79530000Y-89122380D01*
X79625238Y-89122380D01*
X79768095Y-89074761D01*
X79815714Y-89027142D01*
X79815714Y-88693809D01*
X79625238Y-88693809D01*
X80244285Y-89122380D02*
X80244285Y-88122380D01*
X80815714Y-89122380D01*
X80815714Y-88122380D01*
X81291904Y-89122380D02*
X81291904Y-88122380D01*
X81530000Y-88122380D01*
X81672857Y-88170000D01*
X81768095Y-88265238D01*
X81815714Y-88360476D01*
X81863333Y-88550952D01*
X81863333Y-88693809D01*
X81815714Y-88884285D01*
X81768095Y-88979523D01*
X81672857Y-89074761D01*
X81530000Y-89122380D01*
X81291904Y-89122380D01*
D10*
X71715000Y-57350000D02*
X71715000Y-52850000D01*
X46975000Y-57350000D02*
X46975000Y-52850000D01*
X52345000Y-57350000D02*
X46995000Y-57350000D01*
X66345000Y-57350000D02*
X71715000Y-57350000D01*
X66345000Y-55350000D02*
X66345000Y-57350000D01*
X52345000Y-55350000D02*
X66345000Y-55350000D01*
X52345000Y-57350000D02*
X52345000Y-55350000D01*
X46995000Y-30350000D02*
X46995000Y-34850000D01*
X71695000Y-30350000D02*
X71695000Y-34850000D01*
X71695000Y-30350000D02*
X46995000Y-30350000D01*
X35220000Y-37597936D02*
X35220000Y-38802064D01*
X37040000Y-37597936D02*
X37040000Y-38802064D01*
X39750000Y-45875000D02*
X39750000Y-48965000D01*
X44810000Y-47420000D02*
G75*
G03X44810000Y-47420000I-2500000J0D01*
G01*
X45300000Y-47419538D02*
G75*
G02X39750000Y-48964830I-2990000J-462D01*
G01*
X45300000Y-47420462D02*
G75*
G03X39750000Y-45875170I-2990000J462D01*
G01*
X77125000Y-87905000D02*
X77820000Y-87905000D01*
X77125000Y-88590000D02*
X77125000Y-87905000D01*
X78428276Y-89275000D02*
X78515000Y-89275000D01*
X77125000Y-89275000D02*
X77211724Y-89275000D01*
X78515000Y-89275000D02*
X78515000Y-89150000D01*
X77125000Y-89275000D02*
X77125000Y-89150000D01*
X77125000Y-89275000D02*
X78515000Y-89275000D01*
X76995000Y-48675000D02*
X77690000Y-48675000D01*
X76995000Y-49360000D02*
X76995000Y-48675000D01*
X78298276Y-50045000D02*
X78385000Y-50045000D01*
X76995000Y-50045000D02*
X77081724Y-50045000D01*
X78385000Y-50045000D02*
X78385000Y-49920000D01*
X76995000Y-50045000D02*
X76995000Y-49920000D01*
X76995000Y-50045000D02*
X78385000Y-50045000D01*
X81855000Y-57715000D02*
X82550000Y-57715000D01*
X81855000Y-58400000D02*
X81855000Y-57715000D01*
X83158276Y-59085000D02*
X83245000Y-59085000D01*
X81855000Y-59085000D02*
X81941724Y-59085000D01*
X83245000Y-59085000D02*
X83245000Y-58960000D01*
X81855000Y-59085000D02*
X81855000Y-58960000D01*
X81855000Y-59085000D02*
X83245000Y-59085000D01*
X64105000Y-56105000D02*
X64800000Y-56105000D01*
X64105000Y-56790000D02*
X64105000Y-56105000D01*
X65408276Y-57475000D02*
X65495000Y-57475000D01*
X64105000Y-57475000D02*
X64191724Y-57475000D01*
X65495000Y-57475000D02*
X65495000Y-57350000D01*
X64105000Y-57475000D02*
X64105000Y-57350000D01*
X64105000Y-57475000D02*
X65495000Y-57475000D01*
X31485000Y-77345000D02*
X32180000Y-77345000D01*
X31485000Y-78030000D02*
X31485000Y-77345000D01*
X32788276Y-78715000D02*
X32875000Y-78715000D01*
X31485000Y-78715000D02*
X31571724Y-78715000D01*
X32875000Y-78715000D02*
X32875000Y-78590000D01*
X31485000Y-78715000D02*
X31485000Y-78590000D01*
X31485000Y-78715000D02*
X32875000Y-78715000D01*
X33165000Y-42385000D02*
X33860000Y-42385000D01*
X33165000Y-43070000D02*
X33165000Y-42385000D01*
X34468276Y-43755000D02*
X34555000Y-43755000D01*
X33165000Y-43755000D02*
X33251724Y-43755000D01*
X34555000Y-43755000D02*
X34555000Y-43630000D01*
X33165000Y-43755000D02*
X33165000Y-43630000D01*
X33165000Y-43755000D02*
X34555000Y-43755000D01*
X77145000Y-83855000D02*
X77840000Y-83855000D01*
X77145000Y-84540000D02*
X77145000Y-83855000D01*
X78448276Y-85225000D02*
X78535000Y-85225000D01*
X77145000Y-85225000D02*
X77231724Y-85225000D01*
X78535000Y-85225000D02*
X78535000Y-85100000D01*
X77145000Y-85225000D02*
X77145000Y-85100000D01*
X77145000Y-85225000D02*
X78535000Y-85225000D01*
X48950000Y-41880000D02*
X48950000Y-42650000D01*
X48950000Y-49960000D02*
X48950000Y-49190000D01*
X47580000Y-42650000D02*
X47580000Y-49190000D01*
X50320000Y-42650000D02*
X47580000Y-42650000D01*
X50320000Y-49190000D02*
X50320000Y-42650000D01*
X47580000Y-49190000D02*
X50320000Y-49190000D01*
X35860000Y-81858578D02*
X35860000Y-81341422D01*
X37280000Y-81858578D02*
X37280000Y-81341422D01*
X83820000Y-68160000D02*
X83820000Y-66510000D01*
X73540000Y-68160000D02*
X83820000Y-68160000D01*
X73540000Y-62860000D02*
X73540000Y-68160000D01*
X83820000Y-62860000D02*
X73540000Y-62860000D01*
X83820000Y-64510000D02*
X83820000Y-62860000D01*
X83820000Y-66510000D02*
G75*
G02X83820000Y-64510000I0J1000000D01*
G01*
X33070000Y-80370000D02*
X31670000Y-80370000D01*
X31670000Y-82690000D02*
X33570000Y-82690000D01*
X52550000Y-64280000D02*
X52550000Y-65930000D01*
X62830000Y-64280000D02*
X52550000Y-64280000D01*
X62830000Y-69580000D02*
X62830000Y-64280000D01*
X52550000Y-69580000D02*
X62830000Y-69580000D01*
X52550000Y-67930000D02*
X52550000Y-69580000D01*
X52550000Y-65930000D02*
G75*
G02X52550000Y-67930000I0J-1000000D01*
G01*
X80765000Y-49071422D02*
X80765000Y-49588578D01*
X82185000Y-49071422D02*
X82185000Y-49588578D01*
X85520000Y-49578578D02*
X85520000Y-49061422D01*
X84100000Y-49578578D02*
X84100000Y-49061422D01*
X84050000Y-53351422D02*
X84050000Y-53868578D01*
X85470000Y-53351422D02*
X85470000Y-53868578D01*
X82150000Y-53868578D02*
X82150000Y-53351422D01*
X80730000Y-53868578D02*
X80730000Y-53351422D01*
X75260000Y-78798578D02*
X75260000Y-78281422D01*
X73840000Y-78798578D02*
X73840000Y-78281422D01*
X78750000Y-53918578D02*
X78750000Y-53401422D01*
X77330000Y-53918578D02*
X77330000Y-53401422D01*
X73960000Y-53401422D02*
X73960000Y-53918578D01*
X75380000Y-53401422D02*
X75380000Y-53918578D01*
X48691422Y-78980000D02*
X49208578Y-78980000D01*
X48691422Y-77560000D02*
X49208578Y-77560000D01*
X43971422Y-78980000D02*
X44488578Y-78980000D01*
X43971422Y-77560000D02*
X44488578Y-77560000D01*
X64470000Y-69171422D02*
X64470000Y-69688578D01*
X65890000Y-69171422D02*
X65890000Y-69688578D01*
X67520000Y-69171422D02*
X67520000Y-69688578D01*
X68940000Y-69171422D02*
X68940000Y-69688578D01*
X70470000Y-69141422D02*
X70470000Y-69658578D01*
X71890000Y-69141422D02*
X71890000Y-69658578D01*
X42348578Y-58490000D02*
X41831422Y-58490000D01*
X42348578Y-57070000D02*
X41831422Y-57070000D01*
X60690000Y-75440000D02*
G75*
G03X60690000Y-75440000I-2500000J0D01*
G01*
X61980000Y-79570000D02*
X61980000Y-80840000D01*
X60710000Y-79570000D02*
X61980000Y-79570000D01*
X57790000Y-81882929D02*
X57790000Y-82280000D01*
X58550000Y-81882929D02*
X58550000Y-82280000D01*
X57790000Y-90940000D02*
X57790000Y-84940000D01*
X58550000Y-90940000D02*
X57790000Y-90940000D01*
X58550000Y-84940000D02*
X58550000Y-90940000D01*
X59440000Y-82280000D02*
X59440000Y-84940000D01*
X60330000Y-81950000D02*
X60330000Y-82280000D01*
X61090000Y-81950000D02*
X61090000Y-82280000D01*
X60430000Y-84940000D02*
X60430000Y-90940000D01*
X60550000Y-84940000D02*
X60550000Y-90940000D01*
X60670000Y-84940000D02*
X60670000Y-90940000D01*
X60790000Y-84940000D02*
X60790000Y-90940000D01*
X60910000Y-84940000D02*
X60910000Y-90940000D01*
X61030000Y-84940000D02*
X61030000Y-90940000D01*
X60330000Y-90940000D02*
X60330000Y-84940000D01*
X61090000Y-90940000D02*
X60330000Y-90940000D01*
X61090000Y-84940000D02*
X61090000Y-90940000D01*
X62040000Y-84940000D02*
X62040000Y-82280000D01*
X56840000Y-84940000D02*
X62040000Y-84940000D01*
X56840000Y-82280000D02*
X56840000Y-84940000D01*
X62040000Y-82280000D02*
X56840000Y-82280000D01*
X31170000Y-39680000D02*
X31170000Y-37130000D01*
X32870000Y-39680000D02*
X32870000Y-37130000D01*
X31170000Y-39680000D02*
X32870000Y-39680000D01*
X43215241Y-89164000D02*
X43215241Y-88534000D01*
X43530241Y-88849000D02*
X42900241Y-88849000D01*
X36789000Y-87412000D02*
X36789000Y-86608000D01*
X36829000Y-87643000D02*
X36829000Y-86377000D01*
X36869000Y-87812000D02*
X36869000Y-86208000D01*
X36909000Y-87950000D02*
X36909000Y-86070000D01*
X36949000Y-88069000D02*
X36949000Y-85951000D01*
X36989000Y-88175000D02*
X36989000Y-85845000D01*
X37029000Y-88272000D02*
X37029000Y-85748000D01*
X37069000Y-88360000D02*
X37069000Y-85660000D01*
X37109000Y-88442000D02*
X37109000Y-85578000D01*
X37149000Y-88519000D02*
X37149000Y-85501000D01*
X37189000Y-88591000D02*
X37189000Y-85429000D01*
X37229000Y-88660000D02*
X37229000Y-85360000D01*
X37269000Y-88724000D02*
X37269000Y-85296000D01*
X37309000Y-88786000D02*
X37309000Y-85234000D01*
X37349000Y-88844000D02*
X37349000Y-85176000D01*
X37389000Y-88900000D02*
X37389000Y-85120000D01*
X37429000Y-88954000D02*
X37429000Y-85066000D01*
X37469000Y-89005000D02*
X37469000Y-85015000D01*
X37509000Y-89054000D02*
X37509000Y-84966000D01*
X37549000Y-89102000D02*
X37549000Y-84918000D01*
X37589000Y-89147000D02*
X37589000Y-84873000D01*
X37629000Y-89192000D02*
X37629000Y-84828000D01*
X37669000Y-89234000D02*
X37669000Y-84786000D01*
X37709000Y-89275000D02*
X37709000Y-84745000D01*
X37749000Y-85970000D02*
X37749000Y-84705000D01*
X37749000Y-89315000D02*
X37749000Y-88050000D01*
X37789000Y-85970000D02*
X37789000Y-84667000D01*
X37789000Y-89353000D02*
X37789000Y-88050000D01*
X37829000Y-85970000D02*
X37829000Y-84630000D01*
X37829000Y-89390000D02*
X37829000Y-88050000D01*
X37869000Y-85970000D02*
X37869000Y-84594000D01*
X37869000Y-89426000D02*
X37869000Y-88050000D01*
X37909000Y-85970000D02*
X37909000Y-84560000D01*
X37909000Y-89460000D02*
X37909000Y-88050000D01*
X37949000Y-85970000D02*
X37949000Y-84526000D01*
X37949000Y-89494000D02*
X37949000Y-88050000D01*
X37989000Y-85970000D02*
X37989000Y-84494000D01*
X37989000Y-89526000D02*
X37989000Y-88050000D01*
X38029000Y-85970000D02*
X38029000Y-84462000D01*
X38029000Y-89558000D02*
X38029000Y-88050000D01*
X38069000Y-85970000D02*
X38069000Y-84432000D01*
X38069000Y-89588000D02*
X38069000Y-88050000D01*
X38109000Y-85970000D02*
X38109000Y-84403000D01*
X38109000Y-89617000D02*
X38109000Y-88050000D01*
X38149000Y-85970000D02*
X38149000Y-84374000D01*
X38149000Y-89646000D02*
X38149000Y-88050000D01*
X38189000Y-85970000D02*
X38189000Y-84346000D01*
X38189000Y-89674000D02*
X38189000Y-88050000D01*
X38229000Y-85970000D02*
X38229000Y-84320000D01*
X38229000Y-89700000D02*
X38229000Y-88050000D01*
X38269000Y-85970000D02*
X38269000Y-84294000D01*
X38269000Y-89726000D02*
X38269000Y-88050000D01*
X38309000Y-85970000D02*
X38309000Y-84268000D01*
X38309000Y-89752000D02*
X38309000Y-88050000D01*
X38349000Y-85970000D02*
X38349000Y-84244000D01*
X38349000Y-89776000D02*
X38349000Y-88050000D01*
X38389000Y-85970000D02*
X38389000Y-84220000D01*
X38389000Y-89800000D02*
X38389000Y-88050000D01*
X38429000Y-85970000D02*
X38429000Y-84198000D01*
X38429000Y-89822000D02*
X38429000Y-88050000D01*
X38469000Y-85970000D02*
X38469000Y-84176000D01*
X38469000Y-89844000D02*
X38469000Y-88050000D01*
X38509000Y-85970000D02*
X38509000Y-84154000D01*
X38509000Y-89866000D02*
X38509000Y-88050000D01*
X38549000Y-85970000D02*
X38549000Y-84134000D01*
X38549000Y-89886000D02*
X38549000Y-88050000D01*
X38589000Y-85970000D02*
X38589000Y-84114000D01*
X38589000Y-89906000D02*
X38589000Y-88050000D01*
X38629000Y-85970000D02*
X38629000Y-84094000D01*
X38629000Y-89926000D02*
X38629000Y-88050000D01*
X38669000Y-85970000D02*
X38669000Y-84076000D01*
X38669000Y-89944000D02*
X38669000Y-88050000D01*
X38709000Y-85970000D02*
X38709000Y-84058000D01*
X38709000Y-89962000D02*
X38709000Y-88050000D01*
X38749000Y-85970000D02*
X38749000Y-84040000D01*
X38749000Y-89980000D02*
X38749000Y-88050000D01*
X38789000Y-85970000D02*
X38789000Y-84024000D01*
X38789000Y-89996000D02*
X38789000Y-88050000D01*
X38829000Y-85970000D02*
X38829000Y-84008000D01*
X38829000Y-90012000D02*
X38829000Y-88050000D01*
X38869000Y-85970000D02*
X38869000Y-83992000D01*
X38869000Y-90028000D02*
X38869000Y-88050000D01*
X38909000Y-85970000D02*
X38909000Y-83977000D01*
X38909000Y-90043000D02*
X38909000Y-88050000D01*
X38949000Y-85970000D02*
X38949000Y-83963000D01*
X38949000Y-90057000D02*
X38949000Y-88050000D01*
X38989000Y-85970000D02*
X38989000Y-83949000D01*
X38989000Y-90071000D02*
X38989000Y-88050000D01*
X39029000Y-85970000D02*
X39029000Y-83936000D01*
X39029000Y-90084000D02*
X39029000Y-88050000D01*
X39069000Y-85970000D02*
X39069000Y-83924000D01*
X39069000Y-90096000D02*
X39069000Y-88050000D01*
X39109000Y-85970000D02*
X39109000Y-83912000D01*
X39109000Y-90108000D02*
X39109000Y-88050000D01*
X39149000Y-85970000D02*
X39149000Y-83900000D01*
X39149000Y-90120000D02*
X39149000Y-88050000D01*
X39189000Y-85970000D02*
X39189000Y-83889000D01*
X39189000Y-90131000D02*
X39189000Y-88050000D01*
X39229000Y-85970000D02*
X39229000Y-83879000D01*
X39229000Y-90141000D02*
X39229000Y-88050000D01*
X39269000Y-85970000D02*
X39269000Y-83869000D01*
X39269000Y-90151000D02*
X39269000Y-88050000D01*
X39309000Y-85970000D02*
X39309000Y-83860000D01*
X39309000Y-90160000D02*
X39309000Y-88050000D01*
X39350000Y-85970000D02*
X39350000Y-83851000D01*
X39350000Y-90169000D02*
X39350000Y-88050000D01*
X39390000Y-85970000D02*
X39390000Y-83843000D01*
X39390000Y-90177000D02*
X39390000Y-88050000D01*
X39430000Y-85970000D02*
X39430000Y-83835000D01*
X39430000Y-90185000D02*
X39430000Y-88050000D01*
X39470000Y-85970000D02*
X39470000Y-83828000D01*
X39470000Y-90192000D02*
X39470000Y-88050000D01*
X39510000Y-85970000D02*
X39510000Y-83821000D01*
X39510000Y-90199000D02*
X39510000Y-88050000D01*
X39550000Y-85970000D02*
X39550000Y-83815000D01*
X39550000Y-90205000D02*
X39550000Y-88050000D01*
X39590000Y-85970000D02*
X39590000Y-83809000D01*
X39590000Y-90211000D02*
X39590000Y-88050000D01*
X39630000Y-85970000D02*
X39630000Y-83804000D01*
X39630000Y-90216000D02*
X39630000Y-88050000D01*
X39670000Y-85970000D02*
X39670000Y-83799000D01*
X39670000Y-90221000D02*
X39670000Y-88050000D01*
X39710000Y-85970000D02*
X39710000Y-83795000D01*
X39710000Y-90225000D02*
X39710000Y-88050000D01*
X39750000Y-85970000D02*
X39750000Y-83792000D01*
X39750000Y-90228000D02*
X39750000Y-88050000D01*
X39790000Y-85970000D02*
X39790000Y-83788000D01*
X39790000Y-90232000D02*
X39790000Y-88050000D01*
X39830000Y-90234000D02*
X39830000Y-83786000D01*
X39870000Y-90237000D02*
X39870000Y-83783000D01*
X39910000Y-90238000D02*
X39910000Y-83782000D01*
X39950000Y-90240000D02*
X39950000Y-83780000D01*
X39990000Y-90240000D02*
X39990000Y-83780000D01*
X40030000Y-90240000D02*
X40030000Y-83780000D01*
X43300000Y-87010000D02*
G75*
G03X43300000Y-87010000I-3270000J0D01*
G01*
X68565241Y-78514000D02*
X68565241Y-77884000D01*
X68880241Y-78199000D02*
X68250241Y-78199000D01*
X62139000Y-76762000D02*
X62139000Y-75958000D01*
X62179000Y-76993000D02*
X62179000Y-75727000D01*
X62219000Y-77162000D02*
X62219000Y-75558000D01*
X62259000Y-77300000D02*
X62259000Y-75420000D01*
X62299000Y-77419000D02*
X62299000Y-75301000D01*
X62339000Y-77525000D02*
X62339000Y-75195000D01*
X62379000Y-77622000D02*
X62379000Y-75098000D01*
X62419000Y-77710000D02*
X62419000Y-75010000D01*
X62459000Y-77792000D02*
X62459000Y-74928000D01*
X62499000Y-77869000D02*
X62499000Y-74851000D01*
X62539000Y-77941000D02*
X62539000Y-74779000D01*
X62579000Y-78010000D02*
X62579000Y-74710000D01*
X62619000Y-78074000D02*
X62619000Y-74646000D01*
X62659000Y-78136000D02*
X62659000Y-74584000D01*
X62699000Y-78194000D02*
X62699000Y-74526000D01*
X62739000Y-78250000D02*
X62739000Y-74470000D01*
X62779000Y-78304000D02*
X62779000Y-74416000D01*
X62819000Y-78355000D02*
X62819000Y-74365000D01*
X62859000Y-78404000D02*
X62859000Y-74316000D01*
X62899000Y-78452000D02*
X62899000Y-74268000D01*
X62939000Y-78497000D02*
X62939000Y-74223000D01*
X62979000Y-78542000D02*
X62979000Y-74178000D01*
X63019000Y-78584000D02*
X63019000Y-74136000D01*
X63059000Y-78625000D02*
X63059000Y-74095000D01*
X63099000Y-75320000D02*
X63099000Y-74055000D01*
X63099000Y-78665000D02*
X63099000Y-77400000D01*
X63139000Y-75320000D02*
X63139000Y-74017000D01*
X63139000Y-78703000D02*
X63139000Y-77400000D01*
X63179000Y-75320000D02*
X63179000Y-73980000D01*
X63179000Y-78740000D02*
X63179000Y-77400000D01*
X63219000Y-75320000D02*
X63219000Y-73944000D01*
X63219000Y-78776000D02*
X63219000Y-77400000D01*
X63259000Y-75320000D02*
X63259000Y-73910000D01*
X63259000Y-78810000D02*
X63259000Y-77400000D01*
X63299000Y-75320000D02*
X63299000Y-73876000D01*
X63299000Y-78844000D02*
X63299000Y-77400000D01*
X63339000Y-75320000D02*
X63339000Y-73844000D01*
X63339000Y-78876000D02*
X63339000Y-77400000D01*
X63379000Y-75320000D02*
X63379000Y-73812000D01*
X63379000Y-78908000D02*
X63379000Y-77400000D01*
X63419000Y-75320000D02*
X63419000Y-73782000D01*
X63419000Y-78938000D02*
X63419000Y-77400000D01*
X63459000Y-75320000D02*
X63459000Y-73753000D01*
X63459000Y-78967000D02*
X63459000Y-77400000D01*
X63499000Y-75320000D02*
X63499000Y-73724000D01*
X63499000Y-78996000D02*
X63499000Y-77400000D01*
X63539000Y-75320000D02*
X63539000Y-73696000D01*
X63539000Y-79024000D02*
X63539000Y-77400000D01*
X63579000Y-75320000D02*
X63579000Y-73670000D01*
X63579000Y-79050000D02*
X63579000Y-77400000D01*
X63619000Y-75320000D02*
X63619000Y-73644000D01*
X63619000Y-79076000D02*
X63619000Y-77400000D01*
X63659000Y-75320000D02*
X63659000Y-73618000D01*
X63659000Y-79102000D02*
X63659000Y-77400000D01*
X63699000Y-75320000D02*
X63699000Y-73594000D01*
X63699000Y-79126000D02*
X63699000Y-77400000D01*
X63739000Y-75320000D02*
X63739000Y-73570000D01*
X63739000Y-79150000D02*
X63739000Y-77400000D01*
X63779000Y-75320000D02*
X63779000Y-73548000D01*
X63779000Y-79172000D02*
X63779000Y-77400000D01*
X63819000Y-75320000D02*
X63819000Y-73526000D01*
X63819000Y-79194000D02*
X63819000Y-77400000D01*
X63859000Y-75320000D02*
X63859000Y-73504000D01*
X63859000Y-79216000D02*
X63859000Y-77400000D01*
X63899000Y-75320000D02*
X63899000Y-73484000D01*
X63899000Y-79236000D02*
X63899000Y-77400000D01*
X63939000Y-75320000D02*
X63939000Y-73464000D01*
X63939000Y-79256000D02*
X63939000Y-77400000D01*
X63979000Y-75320000D02*
X63979000Y-73444000D01*
X63979000Y-79276000D02*
X63979000Y-77400000D01*
X64019000Y-75320000D02*
X64019000Y-73426000D01*
X64019000Y-79294000D02*
X64019000Y-77400000D01*
X64059000Y-75320000D02*
X64059000Y-73408000D01*
X64059000Y-79312000D02*
X64059000Y-77400000D01*
X64099000Y-75320000D02*
X64099000Y-73390000D01*
X64099000Y-79330000D02*
X64099000Y-77400000D01*
X64139000Y-75320000D02*
X64139000Y-73374000D01*
X64139000Y-79346000D02*
X64139000Y-77400000D01*
X64179000Y-75320000D02*
X64179000Y-73358000D01*
X64179000Y-79362000D02*
X64179000Y-77400000D01*
X64219000Y-75320000D02*
X64219000Y-73342000D01*
X64219000Y-79378000D02*
X64219000Y-77400000D01*
X64259000Y-75320000D02*
X64259000Y-73327000D01*
X64259000Y-79393000D02*
X64259000Y-77400000D01*
X64299000Y-75320000D02*
X64299000Y-73313000D01*
X64299000Y-79407000D02*
X64299000Y-77400000D01*
X64339000Y-75320000D02*
X64339000Y-73299000D01*
X64339000Y-79421000D02*
X64339000Y-77400000D01*
X64379000Y-75320000D02*
X64379000Y-73286000D01*
X64379000Y-79434000D02*
X64379000Y-77400000D01*
X64419000Y-75320000D02*
X64419000Y-73274000D01*
X64419000Y-79446000D02*
X64419000Y-77400000D01*
X64459000Y-75320000D02*
X64459000Y-73262000D01*
X64459000Y-79458000D02*
X64459000Y-77400000D01*
X64499000Y-75320000D02*
X64499000Y-73250000D01*
X64499000Y-79470000D02*
X64499000Y-77400000D01*
X64539000Y-75320000D02*
X64539000Y-73239000D01*
X64539000Y-79481000D02*
X64539000Y-77400000D01*
X64579000Y-75320000D02*
X64579000Y-73229000D01*
X64579000Y-79491000D02*
X64579000Y-77400000D01*
X64619000Y-75320000D02*
X64619000Y-73219000D01*
X64619000Y-79501000D02*
X64619000Y-77400000D01*
X64659000Y-75320000D02*
X64659000Y-73210000D01*
X64659000Y-79510000D02*
X64659000Y-77400000D01*
X64700000Y-75320000D02*
X64700000Y-73201000D01*
X64700000Y-79519000D02*
X64700000Y-77400000D01*
X64740000Y-75320000D02*
X64740000Y-73193000D01*
X64740000Y-79527000D02*
X64740000Y-77400000D01*
X64780000Y-75320000D02*
X64780000Y-73185000D01*
X64780000Y-79535000D02*
X64780000Y-77400000D01*
X64820000Y-75320000D02*
X64820000Y-73178000D01*
X64820000Y-79542000D02*
X64820000Y-77400000D01*
X64860000Y-75320000D02*
X64860000Y-73171000D01*
X64860000Y-79549000D02*
X64860000Y-77400000D01*
X64900000Y-75320000D02*
X64900000Y-73165000D01*
X64900000Y-79555000D02*
X64900000Y-77400000D01*
X64940000Y-75320000D02*
X64940000Y-73159000D01*
X64940000Y-79561000D02*
X64940000Y-77400000D01*
X64980000Y-75320000D02*
X64980000Y-73154000D01*
X64980000Y-79566000D02*
X64980000Y-77400000D01*
X65020000Y-75320000D02*
X65020000Y-73149000D01*
X65020000Y-79571000D02*
X65020000Y-77400000D01*
X65060000Y-75320000D02*
X65060000Y-73145000D01*
X65060000Y-79575000D02*
X65060000Y-77400000D01*
X65100000Y-75320000D02*
X65100000Y-73142000D01*
X65100000Y-79578000D02*
X65100000Y-77400000D01*
X65140000Y-75320000D02*
X65140000Y-73138000D01*
X65140000Y-79582000D02*
X65140000Y-77400000D01*
X65180000Y-79584000D02*
X65180000Y-73136000D01*
X65220000Y-79587000D02*
X65220000Y-73133000D01*
X65260000Y-79588000D02*
X65260000Y-73132000D01*
X65300000Y-79590000D02*
X65300000Y-73130000D01*
X65340000Y-79590000D02*
X65340000Y-73130000D01*
X65380000Y-79590000D02*
X65380000Y-73130000D01*
X68650000Y-76360000D02*
G75*
G03X68650000Y-76360000I-3270000J0D01*
G01*
X49275000Y-68350302D02*
X48475000Y-68350302D01*
X48875000Y-67950302D02*
X48875000Y-68750302D01*
X47093000Y-76441000D02*
X46027000Y-76441000D01*
X47328000Y-76401000D02*
X45792000Y-76401000D01*
X47508000Y-76361000D02*
X45612000Y-76361000D01*
X47658000Y-76321000D02*
X45462000Y-76321000D01*
X47789000Y-76281000D02*
X45331000Y-76281000D01*
X47906000Y-76241000D02*
X45214000Y-76241000D01*
X48013000Y-76201000D02*
X45107000Y-76201000D01*
X48112000Y-76161000D02*
X45008000Y-76161000D01*
X48205000Y-76121000D02*
X44915000Y-76121000D01*
X48291000Y-76081000D02*
X44829000Y-76081000D01*
X48373000Y-76041000D02*
X44747000Y-76041000D01*
X48450000Y-76001000D02*
X44670000Y-76001000D01*
X48524000Y-75961000D02*
X44596000Y-75961000D01*
X48594000Y-75921000D02*
X44526000Y-75921000D01*
X48662000Y-75881000D02*
X44458000Y-75881000D01*
X48726000Y-75841000D02*
X44394000Y-75841000D01*
X48788000Y-75801000D02*
X44332000Y-75801000D01*
X48847000Y-75761000D02*
X44273000Y-75761000D01*
X48905000Y-75721000D02*
X44215000Y-75721000D01*
X48960000Y-75681000D02*
X44160000Y-75681000D01*
X49014000Y-75641000D02*
X44106000Y-75641000D01*
X49065000Y-75601000D02*
X44055000Y-75601000D01*
X49116000Y-75561000D02*
X44004000Y-75561000D01*
X49164000Y-75521000D02*
X43956000Y-75521000D01*
X49211000Y-75481000D02*
X43909000Y-75481000D01*
X49257000Y-75441000D02*
X43863000Y-75441000D01*
X49301000Y-75401000D02*
X43819000Y-75401000D01*
X49344000Y-75361000D02*
X43776000Y-75361000D01*
X49386000Y-75321000D02*
X43734000Y-75321000D01*
X49427000Y-75281000D02*
X43693000Y-75281000D01*
X49467000Y-75241000D02*
X43653000Y-75241000D01*
X49505000Y-75201000D02*
X43615000Y-75201000D01*
X49543000Y-75161000D02*
X43577000Y-75161000D01*
X45520000Y-75121000D02*
X43541000Y-75121000D01*
X49579000Y-75121000D02*
X47600000Y-75121000D01*
X45520000Y-75081000D02*
X43505000Y-75081000D01*
X49615000Y-75081000D02*
X47600000Y-75081000D01*
X45520000Y-75041000D02*
X43470000Y-75041000D01*
X49650000Y-75041000D02*
X47600000Y-75041000D01*
X45520000Y-75001000D02*
X43436000Y-75001000D01*
X49684000Y-75001000D02*
X47600000Y-75001000D01*
X45520000Y-74961000D02*
X43404000Y-74961000D01*
X49716000Y-74961000D02*
X47600000Y-74961000D01*
X45520000Y-74921000D02*
X43371000Y-74921000D01*
X49749000Y-74921000D02*
X47600000Y-74921000D01*
X45520000Y-74881000D02*
X43340000Y-74881000D01*
X49780000Y-74881000D02*
X47600000Y-74881000D01*
X45520000Y-74841000D02*
X43310000Y-74841000D01*
X49810000Y-74841000D02*
X47600000Y-74841000D01*
X45520000Y-74801000D02*
X43280000Y-74801000D01*
X49840000Y-74801000D02*
X47600000Y-74801000D01*
X45520000Y-74761000D02*
X43251000Y-74761000D01*
X49869000Y-74761000D02*
X47600000Y-74761000D01*
X45520000Y-74721000D02*
X43222000Y-74721000D01*
X49898000Y-74721000D02*
X47600000Y-74721000D01*
X45520000Y-74681000D02*
X43195000Y-74681000D01*
X49925000Y-74681000D02*
X47600000Y-74681000D01*
X45520000Y-74641000D02*
X43168000Y-74641000D01*
X49952000Y-74641000D02*
X47600000Y-74641000D01*
X45520000Y-74601000D02*
X43142000Y-74601000D01*
X49978000Y-74601000D02*
X47600000Y-74601000D01*
X45520000Y-74561000D02*
X43116000Y-74561000D01*
X50004000Y-74561000D02*
X47600000Y-74561000D01*
X45520000Y-74521000D02*
X43091000Y-74521000D01*
X50029000Y-74521000D02*
X47600000Y-74521000D01*
X45520000Y-74481000D02*
X43067000Y-74481000D01*
X50053000Y-74481000D02*
X47600000Y-74481000D01*
X45520000Y-74441000D02*
X43043000Y-74441000D01*
X50077000Y-74441000D02*
X47600000Y-74441000D01*
X45520000Y-74401000D02*
X43020000Y-74401000D01*
X50100000Y-74401000D02*
X47600000Y-74401000D01*
X45520000Y-74361000D02*
X42998000Y-74361000D01*
X50122000Y-74361000D02*
X47600000Y-74361000D01*
X45520000Y-74321000D02*
X42976000Y-74321000D01*
X50144000Y-74321000D02*
X47600000Y-74321000D01*
X45520000Y-74281000D02*
X42954000Y-74281000D01*
X50166000Y-74281000D02*
X47600000Y-74281000D01*
X45520000Y-74241000D02*
X42933000Y-74241000D01*
X50187000Y-74241000D02*
X47600000Y-74241000D01*
X45520000Y-74201000D02*
X42913000Y-74201000D01*
X50207000Y-74201000D02*
X47600000Y-74201000D01*
X45520000Y-74161000D02*
X42894000Y-74161000D01*
X50226000Y-74161000D02*
X47600000Y-74161000D01*
X45520000Y-74121000D02*
X42874000Y-74121000D01*
X50246000Y-74121000D02*
X47600000Y-74121000D01*
X45520000Y-74081000D02*
X42856000Y-74081000D01*
X50264000Y-74081000D02*
X47600000Y-74081000D01*
X45520000Y-74041000D02*
X42838000Y-74041000D01*
X50282000Y-74041000D02*
X47600000Y-74041000D01*
X45520000Y-74001000D02*
X42820000Y-74001000D01*
X50300000Y-74001000D02*
X47600000Y-74001000D01*
X45520000Y-73961000D02*
X42803000Y-73961000D01*
X50317000Y-73961000D02*
X47600000Y-73961000D01*
X45520000Y-73921000D02*
X42786000Y-73921000D01*
X50334000Y-73921000D02*
X47600000Y-73921000D01*
X45520000Y-73881000D02*
X42770000Y-73881000D01*
X50350000Y-73881000D02*
X47600000Y-73881000D01*
X45520000Y-73841000D02*
X42755000Y-73841000D01*
X50365000Y-73841000D02*
X47600000Y-73841000D01*
X45520000Y-73801000D02*
X42739000Y-73801000D01*
X50381000Y-73801000D02*
X47600000Y-73801000D01*
X45520000Y-73761000D02*
X42725000Y-73761000D01*
X50395000Y-73761000D02*
X47600000Y-73761000D01*
X45520000Y-73721000D02*
X42710000Y-73721000D01*
X50410000Y-73721000D02*
X47600000Y-73721000D01*
X45520000Y-73681000D02*
X42697000Y-73681000D01*
X50423000Y-73681000D02*
X47600000Y-73681000D01*
X45520000Y-73641000D02*
X42683000Y-73641000D01*
X50437000Y-73641000D02*
X47600000Y-73641000D01*
X45520000Y-73601000D02*
X42671000Y-73601000D01*
X50449000Y-73601000D02*
X47600000Y-73601000D01*
X45520000Y-73561000D02*
X42658000Y-73561000D01*
X50462000Y-73561000D02*
X47600000Y-73561000D01*
X45520000Y-73521000D02*
X42646000Y-73521000D01*
X50474000Y-73521000D02*
X47600000Y-73521000D01*
X45520000Y-73481000D02*
X42635000Y-73481000D01*
X50485000Y-73481000D02*
X47600000Y-73481000D01*
X45520000Y-73441000D02*
X42624000Y-73441000D01*
X50496000Y-73441000D02*
X47600000Y-73441000D01*
X45520000Y-73401000D02*
X42613000Y-73401000D01*
X50507000Y-73401000D02*
X47600000Y-73401000D01*
X45520000Y-73361000D02*
X42603000Y-73361000D01*
X50517000Y-73361000D02*
X47600000Y-73361000D01*
X45520000Y-73321000D02*
X42593000Y-73321000D01*
X50527000Y-73321000D02*
X47600000Y-73321000D01*
X45520000Y-73281000D02*
X42584000Y-73281000D01*
X50536000Y-73281000D02*
X47600000Y-73281000D01*
X45520000Y-73241000D02*
X42575000Y-73241000D01*
X50545000Y-73241000D02*
X47600000Y-73241000D01*
X45520000Y-73201000D02*
X42566000Y-73201000D01*
X50554000Y-73201000D02*
X47600000Y-73201000D01*
X45520000Y-73161000D02*
X42558000Y-73161000D01*
X50562000Y-73161000D02*
X47600000Y-73161000D01*
X45520000Y-73121000D02*
X42550000Y-73121000D01*
X50570000Y-73121000D02*
X47600000Y-73121000D01*
X45520000Y-73081000D02*
X42543000Y-73081000D01*
X50577000Y-73081000D02*
X47600000Y-73081000D01*
X50584000Y-73040000D02*
X42536000Y-73040000D01*
X50590000Y-73000000D02*
X42530000Y-73000000D01*
X50597000Y-72960000D02*
X42523000Y-72960000D01*
X50602000Y-72920000D02*
X42518000Y-72920000D01*
X50608000Y-72880000D02*
X42512000Y-72880000D01*
X50612000Y-72840000D02*
X42508000Y-72840000D01*
X50617000Y-72800000D02*
X42503000Y-72800000D01*
X50621000Y-72760000D02*
X42499000Y-72760000D01*
X50625000Y-72720000D02*
X42495000Y-72720000D01*
X50628000Y-72680000D02*
X42492000Y-72680000D01*
X50631000Y-72640000D02*
X42489000Y-72640000D01*
X50634000Y-72600000D02*
X42486000Y-72600000D01*
X50636000Y-72560000D02*
X42484000Y-72560000D01*
X50637000Y-72520000D02*
X42483000Y-72520000D01*
X50639000Y-72480000D02*
X42481000Y-72480000D01*
X50640000Y-72440000D02*
X42480000Y-72440000D01*
X50640000Y-72400000D02*
X42480000Y-72400000D01*
X50640000Y-72360000D02*
X42480000Y-72360000D01*
X50680000Y-72360000D02*
G75*
G03X50680000Y-72360000I-4120000J0D01*
G01*
X44170000Y-36850000D02*
X44170000Y-36950000D01*
X39770000Y-38450000D02*
X44170000Y-38450000D01*
X44170000Y-35350000D02*
X39770000Y-35350000D01*
X39770000Y-36850000D02*
X39770000Y-36950000D01*
X51350000Y-62870000D02*
G75*
G03X51350000Y-62870000I-4470000J0D01*
G01*
X71095000Y-59070302D02*
X70295000Y-59070302D01*
X70695000Y-58670302D02*
X70695000Y-59470302D01*
X68913000Y-67161000D02*
X67847000Y-67161000D01*
X69148000Y-67121000D02*
X67612000Y-67121000D01*
X69328000Y-67081000D02*
X67432000Y-67081000D01*
X69478000Y-67041000D02*
X67282000Y-67041000D01*
X69609000Y-67001000D02*
X67151000Y-67001000D01*
X69726000Y-66961000D02*
X67034000Y-66961000D01*
X69833000Y-66921000D02*
X66927000Y-66921000D01*
X69932000Y-66881000D02*
X66828000Y-66881000D01*
X70025000Y-66841000D02*
X66735000Y-66841000D01*
X70111000Y-66801000D02*
X66649000Y-66801000D01*
X70193000Y-66761000D02*
X66567000Y-66761000D01*
X70270000Y-66721000D02*
X66490000Y-66721000D01*
X70344000Y-66681000D02*
X66416000Y-66681000D01*
X70414000Y-66641000D02*
X66346000Y-66641000D01*
X70482000Y-66601000D02*
X66278000Y-66601000D01*
X70546000Y-66561000D02*
X66214000Y-66561000D01*
X70608000Y-66521000D02*
X66152000Y-66521000D01*
X70667000Y-66481000D02*
X66093000Y-66481000D01*
X70725000Y-66441000D02*
X66035000Y-66441000D01*
X70780000Y-66401000D02*
X65980000Y-66401000D01*
X70834000Y-66361000D02*
X65926000Y-66361000D01*
X70885000Y-66321000D02*
X65875000Y-66321000D01*
X70936000Y-66281000D02*
X65824000Y-66281000D01*
X70984000Y-66241000D02*
X65776000Y-66241000D01*
X71031000Y-66201000D02*
X65729000Y-66201000D01*
X71077000Y-66161000D02*
X65683000Y-66161000D01*
X71121000Y-66121000D02*
X65639000Y-66121000D01*
X71164000Y-66081000D02*
X65596000Y-66081000D01*
X71206000Y-66041000D02*
X65554000Y-66041000D01*
X71247000Y-66001000D02*
X65513000Y-66001000D01*
X71287000Y-65961000D02*
X65473000Y-65961000D01*
X71325000Y-65921000D02*
X65435000Y-65921000D01*
X71363000Y-65881000D02*
X65397000Y-65881000D01*
X67340000Y-65841000D02*
X65361000Y-65841000D01*
X71399000Y-65841000D02*
X69420000Y-65841000D01*
X67340000Y-65801000D02*
X65325000Y-65801000D01*
X71435000Y-65801000D02*
X69420000Y-65801000D01*
X67340000Y-65761000D02*
X65290000Y-65761000D01*
X71470000Y-65761000D02*
X69420000Y-65761000D01*
X67340000Y-65721000D02*
X65256000Y-65721000D01*
X71504000Y-65721000D02*
X69420000Y-65721000D01*
X67340000Y-65681000D02*
X65224000Y-65681000D01*
X71536000Y-65681000D02*
X69420000Y-65681000D01*
X67340000Y-65641000D02*
X65191000Y-65641000D01*
X71569000Y-65641000D02*
X69420000Y-65641000D01*
X67340000Y-65601000D02*
X65160000Y-65601000D01*
X71600000Y-65601000D02*
X69420000Y-65601000D01*
X67340000Y-65561000D02*
X65130000Y-65561000D01*
X71630000Y-65561000D02*
X69420000Y-65561000D01*
X67340000Y-65521000D02*
X65100000Y-65521000D01*
X71660000Y-65521000D02*
X69420000Y-65521000D01*
X67340000Y-65481000D02*
X65071000Y-65481000D01*
X71689000Y-65481000D02*
X69420000Y-65481000D01*
X67340000Y-65441000D02*
X65042000Y-65441000D01*
X71718000Y-65441000D02*
X69420000Y-65441000D01*
X67340000Y-65401000D02*
X65015000Y-65401000D01*
X71745000Y-65401000D02*
X69420000Y-65401000D01*
X67340000Y-65361000D02*
X64988000Y-65361000D01*
X71772000Y-65361000D02*
X69420000Y-65361000D01*
X67340000Y-65321000D02*
X64962000Y-65321000D01*
X71798000Y-65321000D02*
X69420000Y-65321000D01*
X67340000Y-65281000D02*
X64936000Y-65281000D01*
X71824000Y-65281000D02*
X69420000Y-65281000D01*
X67340000Y-65241000D02*
X64911000Y-65241000D01*
X71849000Y-65241000D02*
X69420000Y-65241000D01*
X67340000Y-65201000D02*
X64887000Y-65201000D01*
X71873000Y-65201000D02*
X69420000Y-65201000D01*
X67340000Y-65161000D02*
X64863000Y-65161000D01*
X71897000Y-65161000D02*
X69420000Y-65161000D01*
X67340000Y-65121000D02*
X64840000Y-65121000D01*
X71920000Y-65121000D02*
X69420000Y-65121000D01*
X67340000Y-65081000D02*
X64818000Y-65081000D01*
X71942000Y-65081000D02*
X69420000Y-65081000D01*
X67340000Y-65041000D02*
X64796000Y-65041000D01*
X71964000Y-65041000D02*
X69420000Y-65041000D01*
X67340000Y-65001000D02*
X64774000Y-65001000D01*
X71986000Y-65001000D02*
X69420000Y-65001000D01*
X67340000Y-64961000D02*
X64753000Y-64961000D01*
X72007000Y-64961000D02*
X69420000Y-64961000D01*
X67340000Y-64921000D02*
X64733000Y-64921000D01*
X72027000Y-64921000D02*
X69420000Y-64921000D01*
X67340000Y-64881000D02*
X64714000Y-64881000D01*
X72046000Y-64881000D02*
X69420000Y-64881000D01*
X67340000Y-64841000D02*
X64694000Y-64841000D01*
X72066000Y-64841000D02*
X69420000Y-64841000D01*
X67340000Y-64801000D02*
X64676000Y-64801000D01*
X72084000Y-64801000D02*
X69420000Y-64801000D01*
X67340000Y-64761000D02*
X64658000Y-64761000D01*
X72102000Y-64761000D02*
X69420000Y-64761000D01*
X67340000Y-64721000D02*
X64640000Y-64721000D01*
X72120000Y-64721000D02*
X69420000Y-64721000D01*
X67340000Y-64681000D02*
X64623000Y-64681000D01*
X72137000Y-64681000D02*
X69420000Y-64681000D01*
X67340000Y-64641000D02*
X64606000Y-64641000D01*
X72154000Y-64641000D02*
X69420000Y-64641000D01*
X67340000Y-64601000D02*
X64590000Y-64601000D01*
X72170000Y-64601000D02*
X69420000Y-64601000D01*
X67340000Y-64561000D02*
X64575000Y-64561000D01*
X72185000Y-64561000D02*
X69420000Y-64561000D01*
X67340000Y-64521000D02*
X64559000Y-64521000D01*
X72201000Y-64521000D02*
X69420000Y-64521000D01*
X67340000Y-64481000D02*
X64545000Y-64481000D01*
X72215000Y-64481000D02*
X69420000Y-64481000D01*
X67340000Y-64441000D02*
X64530000Y-64441000D01*
X72230000Y-64441000D02*
X69420000Y-64441000D01*
X67340000Y-64401000D02*
X64517000Y-64401000D01*
X72243000Y-64401000D02*
X69420000Y-64401000D01*
X67340000Y-64361000D02*
X64503000Y-64361000D01*
X72257000Y-64361000D02*
X69420000Y-64361000D01*
X67340000Y-64321000D02*
X64491000Y-64321000D01*
X72269000Y-64321000D02*
X69420000Y-64321000D01*
X67340000Y-64281000D02*
X64478000Y-64281000D01*
X72282000Y-64281000D02*
X69420000Y-64281000D01*
X67340000Y-64241000D02*
X64466000Y-64241000D01*
X72294000Y-64241000D02*
X69420000Y-64241000D01*
X67340000Y-64201000D02*
X64455000Y-64201000D01*
X72305000Y-64201000D02*
X69420000Y-64201000D01*
X67340000Y-64161000D02*
X64444000Y-64161000D01*
X72316000Y-64161000D02*
X69420000Y-64161000D01*
X67340000Y-64121000D02*
X64433000Y-64121000D01*
X72327000Y-64121000D02*
X69420000Y-64121000D01*
X67340000Y-64081000D02*
X64423000Y-64081000D01*
X72337000Y-64081000D02*
X69420000Y-64081000D01*
X67340000Y-64041000D02*
X64413000Y-64041000D01*
X72347000Y-64041000D02*
X69420000Y-64041000D01*
X67340000Y-64001000D02*
X64404000Y-64001000D01*
X72356000Y-64001000D02*
X69420000Y-64001000D01*
X67340000Y-63961000D02*
X64395000Y-63961000D01*
X72365000Y-63961000D02*
X69420000Y-63961000D01*
X67340000Y-63921000D02*
X64386000Y-63921000D01*
X72374000Y-63921000D02*
X69420000Y-63921000D01*
X67340000Y-63881000D02*
X64378000Y-63881000D01*
X72382000Y-63881000D02*
X69420000Y-63881000D01*
X67340000Y-63841000D02*
X64370000Y-63841000D01*
X72390000Y-63841000D02*
X69420000Y-63841000D01*
X67340000Y-63801000D02*
X64363000Y-63801000D01*
X72397000Y-63801000D02*
X69420000Y-63801000D01*
X72404000Y-63760000D02*
X64356000Y-63760000D01*
X72410000Y-63720000D02*
X64350000Y-63720000D01*
X72417000Y-63680000D02*
X64343000Y-63680000D01*
X72422000Y-63640000D02*
X64338000Y-63640000D01*
X72428000Y-63600000D02*
X64332000Y-63600000D01*
X72432000Y-63560000D02*
X64328000Y-63560000D01*
X72437000Y-63520000D02*
X64323000Y-63520000D01*
X72441000Y-63480000D02*
X64319000Y-63480000D01*
X72445000Y-63440000D02*
X64315000Y-63440000D01*
X72448000Y-63400000D02*
X64312000Y-63400000D01*
X72451000Y-63360000D02*
X64309000Y-63360000D01*
X72454000Y-63320000D02*
X64306000Y-63320000D01*
X72456000Y-63280000D02*
X64304000Y-63280000D01*
X72457000Y-63240000D02*
X64303000Y-63240000D01*
X72459000Y-63200000D02*
X64301000Y-63200000D01*
X72460000Y-63160000D02*
X64300000Y-63160000D01*
X72460000Y-63120000D02*
X64300000Y-63120000D01*
X72460000Y-63080000D02*
X64300000Y-63080000D01*
X72500000Y-63080000D02*
G75*
G03X72500000Y-63080000I-4120000J0D01*
G01*
X55535000Y-85140000D02*
G75*
G03X55535000Y-85140000I-5650000J0D01*
G01*
X74585000Y-85140000D02*
G75*
G03X74585000Y-85140000I-5650000J0D01*
G01*
X85640000Y-38120000D02*
G75*
G03X85640000Y-38120000I-600000J0D01*
G01*
X84876445Y-41220000D02*
G75*
G03X84876445Y-41220000I-3036445J0D01*
G01*
X86940000Y-36120000D02*
X76740000Y-36120000D01*
X86940000Y-46320000D02*
X76740000Y-46320000D01*
X86940000Y-46320000D02*
X86940000Y-36120000D01*
X76740000Y-36120000D02*
X76740000Y-46320000D01*
X37695000Y-64685000D02*
X37695000Y-45035000D01*
X30645000Y-45035000D02*
X30645000Y-64685000D01*
X37695000Y-45035000D02*
X30645000Y-45035000D01*
X37695000Y-64685000D02*
X30645000Y-64685000D01*
X73510000Y-47945000D02*
X75325000Y-47945000D01*
X73510000Y-48180000D02*
X73510000Y-47945000D01*
X69650000Y-48180000D02*
X73510000Y-48180000D01*
X65790000Y-48180000D02*
X65790000Y-47945000D01*
X69650000Y-48180000D02*
X65790000Y-48180000D01*
X73510000Y-35160000D02*
X73510000Y-35395000D01*
X69650000Y-35160000D02*
X73510000Y-35160000D01*
X65790000Y-35160000D02*
X65790000Y-35395000D01*
X69650000Y-35160000D02*
X65790000Y-35160000D01*
X37270000Y-66620000D02*
X37270000Y-72630000D01*
X30450000Y-68870000D02*
X30450000Y-72630000D01*
X37270000Y-72630000D02*
X36010000Y-72630000D01*
X30450000Y-72630000D02*
X31710000Y-72630000D01*
X75210000Y-31711422D02*
X75210000Y-32228578D01*
X76630000Y-31711422D02*
X76630000Y-32228578D01*
X80410000Y-31741422D02*
X80410000Y-32258578D01*
X78990000Y-31741422D02*
X78990000Y-32258578D01*
X59853422Y-42496800D02*
X60370578Y-42496800D01*
X59853422Y-41076800D02*
X60370578Y-41076800D01*
X59861422Y-45960000D02*
X60378578Y-45960000D01*
X59861422Y-44540000D02*
X60378578Y-44540000D01*
X59853422Y-39042400D02*
X60370578Y-39042400D01*
X59853422Y-37622400D02*
X60370578Y-37622400D01*
X40000000Y-72420000D02*
X40000000Y-73190000D01*
X40000000Y-80500000D02*
X40000000Y-79730000D01*
X38630000Y-73190000D02*
X38630000Y-79730000D01*
X41370000Y-73190000D02*
X38630000Y-73190000D01*
X41370000Y-79730000D02*
X41370000Y-73190000D01*
X38630000Y-79730000D02*
X41370000Y-79730000D01*
X61570000Y-59650000D02*
X60800000Y-59650000D01*
X53490000Y-59650000D02*
X54260000Y-59650000D01*
X60800000Y-58280000D02*
X54260000Y-58280000D01*
X60800000Y-61020000D02*
X60800000Y-58280000D01*
X54260000Y-61020000D02*
X60800000Y-61020000D01*
X54260000Y-58280000D02*
X54260000Y-61020000D01*
X81410000Y-81060000D02*
G75*
G02X83410000Y-81060000I1000000J0D01*
G01*
X77110000Y-76460000D02*
X87710000Y-76460000D01*
X77110000Y-81060000D02*
X87710000Y-81060000D01*
X87710000Y-76460000D02*
X87710000Y-81060000D01*
X77110000Y-81060000D02*
X77110000Y-76460000D01*
X45250000Y-30600000D02*
X45250000Y-32300000D01*
X45250000Y-27450000D02*
X45250000Y-28600000D01*
X42425000Y-34115000D02*
X42825000Y-33665000D01*
X43225000Y-34115000D02*
X42425000Y-34115000D01*
X42825000Y-33665000D02*
X43225000Y-34115000D01*
X45800000Y-26900000D02*
X45250000Y-27450000D01*
X37750000Y-30600000D02*
X37750000Y-32300000D01*
X37750000Y-27450000D02*
X37750000Y-28600000D01*
X37200000Y-26900000D02*
X37750000Y-27450000D01*
X38080000Y-43210000D02*
X38080000Y-41880000D01*
X39410000Y-43210000D02*
X38080000Y-43210000D01*
X40680000Y-43210000D02*
X40680000Y-40550000D01*
X40680000Y-40550000D02*
X45820000Y-40550000D01*
X40680000Y-43210000D02*
X45820000Y-43210000D01*
X45820000Y-43210000D02*
X45820000Y-40550000D01*
X77090000Y-71120000D02*
X77090000Y-74060000D01*
X77330000Y-71120000D02*
X77330000Y-74060000D01*
X77210000Y-71120000D02*
X77210000Y-74060000D01*
X81750000Y-74060000D02*
X81750000Y-73930000D01*
X76310000Y-74060000D02*
X81750000Y-74060000D01*
X76310000Y-73930000D02*
X76310000Y-74060000D01*
X81750000Y-71120000D02*
X81750000Y-71250000D01*
X76310000Y-71120000D02*
X81750000Y-71120000D01*
X76310000Y-71250000D02*
X76310000Y-71120000D01*
X38750000Y-66130000D02*
X41690000Y-66130000D01*
X38750000Y-65890000D02*
X41690000Y-65890000D01*
X38750000Y-66010000D02*
X41690000Y-66010000D01*
X41690000Y-61470000D02*
X41560000Y-61470000D01*
X41690000Y-66910000D02*
X41690000Y-61470000D01*
X41560000Y-66910000D02*
X41690000Y-66910000D01*
X38750000Y-61470000D02*
X38880000Y-61470000D01*
X38750000Y-66910000D02*
X38750000Y-61470000D01*
X38880000Y-66910000D02*
X38750000Y-66910000D01*
X54868578Y-40180000D02*
X54351422Y-40180000D01*
X54868578Y-38760000D02*
X54351422Y-38760000D01*
X54858578Y-43620000D02*
X54341422Y-43620000D01*
X54858578Y-42200000D02*
X54341422Y-42200000D01*
X45530000Y-53208578D02*
X45530000Y-52691422D01*
X44110000Y-53208578D02*
X44110000Y-52691422D01*
X39785000Y-52741422D02*
X39785000Y-53258578D01*
X41205000Y-52741422D02*
X41205000Y-53258578D01*
X52415000Y-77720000D02*
X51710000Y-77720000D01*
X54450000Y-77720000D02*
X53745000Y-77720000D01*
X52415000Y-73480000D02*
X51710000Y-73480000D01*
X54450000Y-73480000D02*
X53745000Y-73480000D01*
X51710000Y-73480000D02*
X51710000Y-77720000D01*
X54450000Y-73480000D02*
X54450000Y-77720000D01*
D11*
X57646666Y-29672380D02*
X57646666Y-28672380D01*
X57980000Y-29386666D01*
X58313333Y-28672380D01*
X58313333Y-29672380D01*
X58980000Y-28672380D02*
X59170476Y-28672380D01*
X59265714Y-28720000D01*
X59360952Y-28815238D01*
X59408571Y-29005714D01*
X59408571Y-29339047D01*
X59360952Y-29529523D01*
X59265714Y-29624761D01*
X59170476Y-29672380D01*
X58980000Y-29672380D01*
X58884761Y-29624761D01*
X58789523Y-29529523D01*
X58741904Y-29339047D01*
X58741904Y-29005714D01*
X58789523Y-28815238D01*
X58884761Y-28720000D01*
X58980000Y-28672380D01*
X59837142Y-29672380D02*
X59837142Y-28672380D01*
X60075238Y-28672380D01*
X60218095Y-28720000D01*
X60313333Y-28815238D01*
X60360952Y-28910476D01*
X60408571Y-29100952D01*
X60408571Y-29243809D01*
X60360952Y-29434285D01*
X60313333Y-29529523D01*
X60218095Y-29624761D01*
X60075238Y-29672380D01*
X59837142Y-29672380D01*
X61360952Y-29672380D02*
X60789523Y-29672380D01*
X61075238Y-29672380D02*
X61075238Y-28672380D01*
X60980000Y-28815238D01*
X60884761Y-28910476D01*
X60789523Y-28958095D01*
X34452380Y-39439047D02*
X33976190Y-39772380D01*
X34452380Y-40010476D02*
X33452380Y-40010476D01*
X33452380Y-39629523D01*
X33500000Y-39534285D01*
X33547619Y-39486666D01*
X33642857Y-39439047D01*
X33785714Y-39439047D01*
X33880952Y-39486666D01*
X33928571Y-39534285D01*
X33976190Y-39629523D01*
X33976190Y-40010476D01*
X34452380Y-38486666D02*
X34452380Y-39058095D01*
X34452380Y-38772380D02*
X33452380Y-38772380D01*
X33595238Y-38867619D01*
X33690476Y-38962857D01*
X33738095Y-39058095D01*
X33452380Y-37867619D02*
X33452380Y-37772380D01*
X33500000Y-37677142D01*
X33547619Y-37629523D01*
X33642857Y-37581904D01*
X33833333Y-37534285D01*
X34071428Y-37534285D01*
X34261904Y-37581904D01*
X34357142Y-37629523D01*
X34404761Y-37677142D01*
X34452380Y-37772380D01*
X34452380Y-37867619D01*
X34404761Y-37962857D01*
X34357142Y-38010476D01*
X34261904Y-38058095D01*
X34071428Y-38105714D01*
X33833333Y-38105714D01*
X33642857Y-38058095D01*
X33547619Y-38010476D01*
X33500000Y-37962857D01*
X33452380Y-37867619D01*
X34452380Y-36581904D02*
X34452380Y-37153333D01*
X34452380Y-36867619D02*
X33452380Y-36867619D01*
X33595238Y-36962857D01*
X33690476Y-37058095D01*
X33738095Y-37153333D01*
X38391904Y-50462380D02*
X38391904Y-49462380D01*
X38630000Y-49462380D01*
X38772857Y-49510000D01*
X38868095Y-49605238D01*
X38915714Y-49700476D01*
X38963333Y-49890952D01*
X38963333Y-50033809D01*
X38915714Y-50224285D01*
X38868095Y-50319523D01*
X38772857Y-50414761D01*
X38630000Y-50462380D01*
X38391904Y-50462380D01*
X39915714Y-50462380D02*
X39344285Y-50462380D01*
X39630000Y-50462380D02*
X39630000Y-49462380D01*
X39534761Y-49605238D01*
X39439523Y-49700476D01*
X39344285Y-49748095D01*
X76558095Y-86482380D02*
X77129523Y-86482380D01*
X76843809Y-87482380D02*
X76843809Y-86482380D01*
X77462857Y-87482380D02*
X77462857Y-86482380D01*
X77843809Y-86482380D01*
X77939047Y-86530000D01*
X77986666Y-86577619D01*
X78034285Y-86672857D01*
X78034285Y-86815714D01*
X77986666Y-86910952D01*
X77939047Y-86958571D01*
X77843809Y-87006190D01*
X77462857Y-87006190D01*
X78367619Y-86482380D02*
X79034285Y-86482380D01*
X78605714Y-87482380D01*
X75618095Y-47242380D02*
X76189523Y-47242380D01*
X75903809Y-48242380D02*
X75903809Y-47242380D01*
X76522857Y-48242380D02*
X76522857Y-47242380D01*
X76903809Y-47242380D01*
X76999047Y-47290000D01*
X77046666Y-47337619D01*
X77094285Y-47432857D01*
X77094285Y-47575714D01*
X77046666Y-47670952D01*
X76999047Y-47718571D01*
X76903809Y-47766190D01*
X76522857Y-47766190D01*
X77951428Y-47575714D02*
X77951428Y-48242380D01*
X77713333Y-47194761D02*
X77475238Y-47909047D01*
X78094285Y-47909047D01*
X81248095Y-56012380D02*
X81819523Y-56012380D01*
X81533809Y-57012380D02*
X81533809Y-56012380D01*
X82152857Y-57012380D02*
X82152857Y-56012380D01*
X82533809Y-56012380D01*
X82629047Y-56060000D01*
X82676666Y-56107619D01*
X82724285Y-56202857D01*
X82724285Y-56345714D01*
X82676666Y-56440952D01*
X82629047Y-56488571D01*
X82533809Y-56536190D01*
X82152857Y-56536190D01*
X83629047Y-56012380D02*
X83152857Y-56012380D01*
X83105238Y-56488571D01*
X83152857Y-56440952D01*
X83248095Y-56393333D01*
X83486190Y-56393333D01*
X83581428Y-56440952D01*
X83629047Y-56488571D01*
X83676666Y-56583809D01*
X83676666Y-56821904D01*
X83629047Y-56917142D01*
X83581428Y-56964761D01*
X83486190Y-57012380D01*
X83248095Y-57012380D01*
X83152857Y-56964761D01*
X83105238Y-56917142D01*
X64068095Y-58132380D02*
X64639523Y-58132380D01*
X64353809Y-59132380D02*
X64353809Y-58132380D01*
X64972857Y-59132380D02*
X64972857Y-58132380D01*
X65353809Y-58132380D01*
X65449047Y-58180000D01*
X65496666Y-58227619D01*
X65544285Y-58322857D01*
X65544285Y-58465714D01*
X65496666Y-58560952D01*
X65449047Y-58608571D01*
X65353809Y-58656190D01*
X64972857Y-58656190D01*
X65877619Y-58132380D02*
X66496666Y-58132380D01*
X66163333Y-58513333D01*
X66306190Y-58513333D01*
X66401428Y-58560952D01*
X66449047Y-58608571D01*
X66496666Y-58703809D01*
X66496666Y-58941904D01*
X66449047Y-59037142D01*
X66401428Y-59084761D01*
X66306190Y-59132380D01*
X66020476Y-59132380D01*
X65925238Y-59084761D01*
X65877619Y-59037142D01*
X30918095Y-75922380D02*
X31489523Y-75922380D01*
X31203809Y-76922380D02*
X31203809Y-75922380D01*
X31822857Y-76922380D02*
X31822857Y-75922380D01*
X32203809Y-75922380D01*
X32299047Y-75970000D01*
X32346666Y-76017619D01*
X32394285Y-76112857D01*
X32394285Y-76255714D01*
X32346666Y-76350952D01*
X32299047Y-76398571D01*
X32203809Y-76446190D01*
X31822857Y-76446190D01*
X32775238Y-76017619D02*
X32822857Y-75970000D01*
X32918095Y-75922380D01*
X33156190Y-75922380D01*
X33251428Y-75970000D01*
X33299047Y-76017619D01*
X33346666Y-76112857D01*
X33346666Y-76208095D01*
X33299047Y-76350952D01*
X32727619Y-76922380D01*
X33346666Y-76922380D01*
X32598095Y-40962380D02*
X33169523Y-40962380D01*
X32883809Y-41962380D02*
X32883809Y-40962380D01*
X33502857Y-41962380D02*
X33502857Y-40962380D01*
X33883809Y-40962380D01*
X33979047Y-41010000D01*
X34026666Y-41057619D01*
X34074285Y-41152857D01*
X34074285Y-41295714D01*
X34026666Y-41390952D01*
X33979047Y-41438571D01*
X33883809Y-41486190D01*
X33502857Y-41486190D01*
X35026666Y-41962380D02*
X34455238Y-41962380D01*
X34740952Y-41962380D02*
X34740952Y-40962380D01*
X34645714Y-41105238D01*
X34550476Y-41200476D01*
X34455238Y-41248095D01*
X76578095Y-82432380D02*
X77149523Y-82432380D01*
X76863809Y-83432380D02*
X76863809Y-82432380D01*
X77482857Y-83432380D02*
X77482857Y-82432380D01*
X77863809Y-82432380D01*
X77959047Y-82480000D01*
X78006666Y-82527619D01*
X78054285Y-82622857D01*
X78054285Y-82765714D01*
X78006666Y-82860952D01*
X77959047Y-82908571D01*
X77863809Y-82956190D01*
X77482857Y-82956190D01*
X78911428Y-82432380D02*
X78720952Y-82432380D01*
X78625714Y-82480000D01*
X78578095Y-82527619D01*
X78482857Y-82670476D01*
X78435238Y-82860952D01*
X78435238Y-83241904D01*
X78482857Y-83337142D01*
X78530476Y-83384761D01*
X78625714Y-83432380D01*
X78816190Y-83432380D01*
X78911428Y-83384761D01*
X78959047Y-83337142D01*
X79006666Y-83241904D01*
X79006666Y-83003809D01*
X78959047Y-82908571D01*
X78911428Y-82860952D01*
X78816190Y-82813333D01*
X78625714Y-82813333D01*
X78530476Y-82860952D01*
X78482857Y-82908571D01*
X78435238Y-83003809D01*
X48683333Y-46172380D02*
X48350000Y-45696190D01*
X48111904Y-46172380D02*
X48111904Y-45172380D01*
X48492857Y-45172380D01*
X48588095Y-45220000D01*
X48635714Y-45267619D01*
X48683333Y-45362857D01*
X48683333Y-45505714D01*
X48635714Y-45600952D01*
X48588095Y-45648571D01*
X48492857Y-45696190D01*
X48111904Y-45696190D01*
X49064285Y-45267619D02*
X49111904Y-45220000D01*
X49207142Y-45172380D01*
X49445238Y-45172380D01*
X49540476Y-45220000D01*
X49588095Y-45267619D01*
X49635714Y-45362857D01*
X49635714Y-45458095D01*
X49588095Y-45600952D01*
X49016666Y-46172380D01*
X49635714Y-46172380D01*
X35277142Y-82719047D02*
X35324761Y-82766666D01*
X35372380Y-82909523D01*
X35372380Y-83004761D01*
X35324761Y-83147619D01*
X35229523Y-83242857D01*
X35134285Y-83290476D01*
X34943809Y-83338095D01*
X34800952Y-83338095D01*
X34610476Y-83290476D01*
X34515238Y-83242857D01*
X34420000Y-83147619D01*
X34372380Y-83004761D01*
X34372380Y-82909523D01*
X34420000Y-82766666D01*
X34467619Y-82719047D01*
X35372380Y-81766666D02*
X35372380Y-82338095D01*
X35372380Y-82052380D02*
X34372380Y-82052380D01*
X34515238Y-82147619D01*
X34610476Y-82242857D01*
X34658095Y-82338095D01*
X34372380Y-81147619D02*
X34372380Y-81052380D01*
X34420000Y-80957142D01*
X34467619Y-80909523D01*
X34562857Y-80861904D01*
X34753333Y-80814285D01*
X34991428Y-80814285D01*
X35181904Y-80861904D01*
X35277142Y-80909523D01*
X35324761Y-80957142D01*
X35372380Y-81052380D01*
X35372380Y-81147619D01*
X35324761Y-81242857D01*
X35277142Y-81290476D01*
X35181904Y-81338095D01*
X34991428Y-81385714D01*
X34753333Y-81385714D01*
X34562857Y-81338095D01*
X34467619Y-81290476D01*
X34420000Y-81242857D01*
X34372380Y-81147619D01*
X34372380Y-79909523D02*
X34372380Y-80385714D01*
X34848571Y-80433333D01*
X34800952Y-80385714D01*
X34753333Y-80290476D01*
X34753333Y-80052380D01*
X34800952Y-79957142D01*
X34848571Y-79909523D01*
X34943809Y-79861904D01*
X35181904Y-79861904D01*
X35277142Y-79909523D01*
X35324761Y-79957142D01*
X35372380Y-80052380D01*
X35372380Y-80290476D01*
X35324761Y-80385714D01*
X35277142Y-80433333D01*
X78018095Y-65222380D02*
X78018095Y-66031904D01*
X78065714Y-66127142D01*
X78113333Y-66174761D01*
X78208571Y-66222380D01*
X78399047Y-66222380D01*
X78494285Y-66174761D01*
X78541904Y-66127142D01*
X78589523Y-66031904D01*
X78589523Y-65222380D01*
X78970476Y-65222380D02*
X79589523Y-65222380D01*
X79256190Y-65603333D01*
X79399047Y-65603333D01*
X79494285Y-65650952D01*
X79541904Y-65698571D01*
X79589523Y-65793809D01*
X79589523Y-66031904D01*
X79541904Y-66127142D01*
X79494285Y-66174761D01*
X79399047Y-66222380D01*
X79113333Y-66222380D01*
X79018095Y-66174761D01*
X78970476Y-66127142D01*
X31131904Y-82982380D02*
X31131904Y-83791904D01*
X31179523Y-83887142D01*
X31227142Y-83934761D01*
X31322380Y-83982380D01*
X31512857Y-83982380D01*
X31608095Y-83934761D01*
X31655714Y-83887142D01*
X31703333Y-83791904D01*
X31703333Y-82982380D01*
X32703333Y-83982380D02*
X32131904Y-83982380D01*
X32417619Y-83982380D02*
X32417619Y-82982380D01*
X32322380Y-83125238D01*
X32227142Y-83220476D01*
X32131904Y-83268095D01*
X33322380Y-82982380D02*
X33417619Y-82982380D01*
X33512857Y-83030000D01*
X33560476Y-83077619D01*
X33608095Y-83172857D01*
X33655714Y-83363333D01*
X33655714Y-83601428D01*
X33608095Y-83791904D01*
X33560476Y-83887142D01*
X33512857Y-83934761D01*
X33417619Y-83982380D01*
X33322380Y-83982380D01*
X33227142Y-83934761D01*
X33179523Y-83887142D01*
X33131904Y-83791904D01*
X33084285Y-83601428D01*
X33084285Y-83363333D01*
X33131904Y-83172857D01*
X33179523Y-83077619D01*
X33227142Y-83030000D01*
X33322380Y-82982380D01*
X56718095Y-66192380D02*
X56718095Y-67001904D01*
X56765714Y-67097142D01*
X56813333Y-67144761D01*
X56908571Y-67192380D01*
X57099047Y-67192380D01*
X57194285Y-67144761D01*
X57241904Y-67097142D01*
X57289523Y-67001904D01*
X57289523Y-66192380D01*
X57718095Y-66287619D02*
X57765714Y-66240000D01*
X57860952Y-66192380D01*
X58099047Y-66192380D01*
X58194285Y-66240000D01*
X58241904Y-66287619D01*
X58289523Y-66382857D01*
X58289523Y-66478095D01*
X58241904Y-66620952D01*
X57670476Y-67192380D01*
X58289523Y-67192380D01*
X83577380Y-50449047D02*
X83101190Y-50782380D01*
X83577380Y-51020476D02*
X82577380Y-51020476D01*
X82577380Y-50639523D01*
X82625000Y-50544285D01*
X82672619Y-50496666D01*
X82767857Y-50449047D01*
X82910714Y-50449047D01*
X83005952Y-50496666D01*
X83053571Y-50544285D01*
X83101190Y-50639523D01*
X83101190Y-51020476D01*
X83577380Y-49496666D02*
X83577380Y-50068095D01*
X83577380Y-49782380D02*
X82577380Y-49782380D01*
X82720238Y-49877619D01*
X82815476Y-49972857D01*
X82863095Y-50068095D01*
X83577380Y-48544285D02*
X83577380Y-49115714D01*
X83577380Y-48830000D02*
X82577380Y-48830000D01*
X82720238Y-48925238D01*
X82815476Y-49020476D01*
X82863095Y-49115714D01*
X83577380Y-47591904D02*
X83577380Y-48163333D01*
X83577380Y-47877619D02*
X82577380Y-47877619D01*
X82720238Y-47972857D01*
X82815476Y-48068095D01*
X82863095Y-48163333D01*
X87012380Y-50399047D02*
X86536190Y-50732380D01*
X87012380Y-50970476D02*
X86012380Y-50970476D01*
X86012380Y-50589523D01*
X86060000Y-50494285D01*
X86107619Y-50446666D01*
X86202857Y-50399047D01*
X86345714Y-50399047D01*
X86440952Y-50446666D01*
X86488571Y-50494285D01*
X86536190Y-50589523D01*
X86536190Y-50970476D01*
X87012380Y-49446666D02*
X87012380Y-50018095D01*
X87012380Y-49732380D02*
X86012380Y-49732380D01*
X86155238Y-49827619D01*
X86250476Y-49922857D01*
X86298095Y-50018095D01*
X87012380Y-48494285D02*
X87012380Y-49065714D01*
X87012380Y-48780000D02*
X86012380Y-48780000D01*
X86155238Y-48875238D01*
X86250476Y-48970476D01*
X86298095Y-49065714D01*
X86107619Y-48113333D02*
X86060000Y-48065714D01*
X86012380Y-47970476D01*
X86012380Y-47732380D01*
X86060000Y-47637142D01*
X86107619Y-47589523D01*
X86202857Y-47541904D01*
X86298095Y-47541904D01*
X86440952Y-47589523D01*
X87012380Y-48160952D01*
X87012380Y-47541904D01*
X86862380Y-54729047D02*
X86386190Y-55062380D01*
X86862380Y-55300476D02*
X85862380Y-55300476D01*
X85862380Y-54919523D01*
X85910000Y-54824285D01*
X85957619Y-54776666D01*
X86052857Y-54729047D01*
X86195714Y-54729047D01*
X86290952Y-54776666D01*
X86338571Y-54824285D01*
X86386190Y-54919523D01*
X86386190Y-55300476D01*
X86862380Y-53776666D02*
X86862380Y-54348095D01*
X86862380Y-54062380D02*
X85862380Y-54062380D01*
X86005238Y-54157619D01*
X86100476Y-54252857D01*
X86148095Y-54348095D01*
X86862380Y-52824285D02*
X86862380Y-53395714D01*
X86862380Y-53110000D02*
X85862380Y-53110000D01*
X86005238Y-53205238D01*
X86100476Y-53300476D01*
X86148095Y-53395714D01*
X85862380Y-51967142D02*
X85862380Y-52157619D01*
X85910000Y-52252857D01*
X85957619Y-52300476D01*
X86100476Y-52395714D01*
X86290952Y-52443333D01*
X86671904Y-52443333D01*
X86767142Y-52395714D01*
X86814761Y-52348095D01*
X86862380Y-52252857D01*
X86862380Y-52062380D01*
X86814761Y-51967142D01*
X86767142Y-51919523D01*
X86671904Y-51871904D01*
X86433809Y-51871904D01*
X86338571Y-51919523D01*
X86290952Y-51967142D01*
X86243333Y-52062380D01*
X86243333Y-52252857D01*
X86290952Y-52348095D01*
X86338571Y-52395714D01*
X86433809Y-52443333D01*
X83572380Y-54739047D02*
X83096190Y-55072380D01*
X83572380Y-55310476D02*
X82572380Y-55310476D01*
X82572380Y-54929523D01*
X82620000Y-54834285D01*
X82667619Y-54786666D01*
X82762857Y-54739047D01*
X82905714Y-54739047D01*
X83000952Y-54786666D01*
X83048571Y-54834285D01*
X83096190Y-54929523D01*
X83096190Y-55310476D01*
X83572380Y-53786666D02*
X83572380Y-54358095D01*
X83572380Y-54072380D02*
X82572380Y-54072380D01*
X82715238Y-54167619D01*
X82810476Y-54262857D01*
X82858095Y-54358095D01*
X83572380Y-52834285D02*
X83572380Y-53405714D01*
X83572380Y-53120000D02*
X82572380Y-53120000D01*
X82715238Y-53215238D01*
X82810476Y-53310476D01*
X82858095Y-53405714D01*
X82572380Y-51929523D02*
X82572380Y-52405714D01*
X83048571Y-52453333D01*
X83000952Y-52405714D01*
X82953333Y-52310476D01*
X82953333Y-52072380D01*
X83000952Y-51977142D01*
X83048571Y-51929523D01*
X83143809Y-51881904D01*
X83381904Y-51881904D01*
X83477142Y-51929523D01*
X83524761Y-51977142D01*
X83572380Y-52072380D01*
X83572380Y-52310476D01*
X83524761Y-52405714D01*
X83477142Y-52453333D01*
X70170952Y-78822380D02*
X69837619Y-78346190D01*
X69599523Y-78822380D02*
X69599523Y-77822380D01*
X69980476Y-77822380D01*
X70075714Y-77870000D01*
X70123333Y-77917619D01*
X70170952Y-78012857D01*
X70170952Y-78155714D01*
X70123333Y-78250952D01*
X70075714Y-78298571D01*
X69980476Y-78346190D01*
X69599523Y-78346190D01*
X71123333Y-78822380D02*
X70551904Y-78822380D01*
X70837619Y-78822380D02*
X70837619Y-77822380D01*
X70742380Y-77965238D01*
X70647142Y-78060476D01*
X70551904Y-78108095D01*
X72075714Y-78822380D02*
X71504285Y-78822380D01*
X71790000Y-78822380D02*
X71790000Y-77822380D01*
X71694761Y-77965238D01*
X71599523Y-78060476D01*
X71504285Y-78108095D01*
X72551904Y-78822380D02*
X72742380Y-78822380D01*
X72837619Y-78774761D01*
X72885238Y-78727142D01*
X72980476Y-78584285D01*
X73028095Y-78393809D01*
X73028095Y-78012857D01*
X72980476Y-77917619D01*
X72932857Y-77870000D01*
X72837619Y-77822380D01*
X72647142Y-77822380D01*
X72551904Y-77870000D01*
X72504285Y-77917619D01*
X72456666Y-78012857D01*
X72456666Y-78250952D01*
X72504285Y-78346190D01*
X72551904Y-78393809D01*
X72647142Y-78441428D01*
X72837619Y-78441428D01*
X72932857Y-78393809D01*
X72980476Y-78346190D01*
X73028095Y-78250952D01*
X80232380Y-54799047D02*
X79756190Y-55132380D01*
X80232380Y-55370476D02*
X79232380Y-55370476D01*
X79232380Y-54989523D01*
X79280000Y-54894285D01*
X79327619Y-54846666D01*
X79422857Y-54799047D01*
X79565714Y-54799047D01*
X79660952Y-54846666D01*
X79708571Y-54894285D01*
X79756190Y-54989523D01*
X79756190Y-55370476D01*
X80232380Y-53846666D02*
X80232380Y-54418095D01*
X80232380Y-54132380D02*
X79232380Y-54132380D01*
X79375238Y-54227619D01*
X79470476Y-54322857D01*
X79518095Y-54418095D01*
X80232380Y-52894285D02*
X80232380Y-53465714D01*
X80232380Y-53180000D02*
X79232380Y-53180000D01*
X79375238Y-53275238D01*
X79470476Y-53370476D01*
X79518095Y-53465714D01*
X79565714Y-52037142D02*
X80232380Y-52037142D01*
X79184761Y-52275238D02*
X79899047Y-52513333D01*
X79899047Y-51894285D01*
X76842380Y-54889047D02*
X76366190Y-55222380D01*
X76842380Y-55460476D02*
X75842380Y-55460476D01*
X75842380Y-55079523D01*
X75890000Y-54984285D01*
X75937619Y-54936666D01*
X76032857Y-54889047D01*
X76175714Y-54889047D01*
X76270952Y-54936666D01*
X76318571Y-54984285D01*
X76366190Y-55079523D01*
X76366190Y-55460476D01*
X76842380Y-53936666D02*
X76842380Y-54508095D01*
X76842380Y-54222380D02*
X75842380Y-54222380D01*
X75985238Y-54317619D01*
X76080476Y-54412857D01*
X76128095Y-54508095D01*
X76842380Y-52984285D02*
X76842380Y-53555714D01*
X76842380Y-53270000D02*
X75842380Y-53270000D01*
X75985238Y-53365238D01*
X76080476Y-53460476D01*
X76128095Y-53555714D01*
X75842380Y-52650952D02*
X75842380Y-52031904D01*
X76223333Y-52365238D01*
X76223333Y-52222380D01*
X76270952Y-52127142D01*
X76318571Y-52079523D01*
X76413809Y-52031904D01*
X76651904Y-52031904D01*
X76747142Y-52079523D01*
X76794761Y-52127142D01*
X76842380Y-52222380D01*
X76842380Y-52508095D01*
X76794761Y-52603333D01*
X76747142Y-52650952D01*
X51370952Y-79342380D02*
X51037619Y-78866190D01*
X50799523Y-79342380D02*
X50799523Y-78342380D01*
X51180476Y-78342380D01*
X51275714Y-78390000D01*
X51323333Y-78437619D01*
X51370952Y-78532857D01*
X51370952Y-78675714D01*
X51323333Y-78770952D01*
X51275714Y-78818571D01*
X51180476Y-78866190D01*
X50799523Y-78866190D01*
X52323333Y-79342380D02*
X51751904Y-79342380D01*
X52037619Y-79342380D02*
X52037619Y-78342380D01*
X51942380Y-78485238D01*
X51847142Y-78580476D01*
X51751904Y-78628095D01*
X53275714Y-79342380D02*
X52704285Y-79342380D01*
X52990000Y-79342380D02*
X52990000Y-78342380D01*
X52894761Y-78485238D01*
X52799523Y-78580476D01*
X52704285Y-78628095D01*
X53609047Y-78342380D02*
X54275714Y-78342380D01*
X53847142Y-79342380D01*
X43060952Y-80602380D02*
X42727619Y-80126190D01*
X42489523Y-80602380D02*
X42489523Y-79602380D01*
X42870476Y-79602380D01*
X42965714Y-79650000D01*
X43013333Y-79697619D01*
X43060952Y-79792857D01*
X43060952Y-79935714D01*
X43013333Y-80030952D01*
X42965714Y-80078571D01*
X42870476Y-80126190D01*
X42489523Y-80126190D01*
X44013333Y-80602380D02*
X43441904Y-80602380D01*
X43727619Y-80602380D02*
X43727619Y-79602380D01*
X43632380Y-79745238D01*
X43537142Y-79840476D01*
X43441904Y-79888095D01*
X44965714Y-80602380D02*
X44394285Y-80602380D01*
X44680000Y-80602380D02*
X44680000Y-79602380D01*
X44584761Y-79745238D01*
X44489523Y-79840476D01*
X44394285Y-79888095D01*
X45537142Y-80030952D02*
X45441904Y-79983333D01*
X45394285Y-79935714D01*
X45346666Y-79840476D01*
X45346666Y-79792857D01*
X45394285Y-79697619D01*
X45441904Y-79650000D01*
X45537142Y-79602380D01*
X45727619Y-79602380D01*
X45822857Y-79650000D01*
X45870476Y-79697619D01*
X45918095Y-79792857D01*
X45918095Y-79840476D01*
X45870476Y-79935714D01*
X45822857Y-79983333D01*
X45727619Y-80030952D01*
X45537142Y-80030952D01*
X45441904Y-80078571D01*
X45394285Y-80126190D01*
X45346666Y-80221428D01*
X45346666Y-80411904D01*
X45394285Y-80507142D01*
X45441904Y-80554761D01*
X45537142Y-80602380D01*
X45727619Y-80602380D01*
X45822857Y-80554761D01*
X45870476Y-80507142D01*
X45918095Y-80411904D01*
X45918095Y-80221428D01*
X45870476Y-80126190D01*
X45822857Y-80078571D01*
X45727619Y-80030952D01*
X64092380Y-70659047D02*
X63616190Y-70992380D01*
X64092380Y-71230476D02*
X63092380Y-71230476D01*
X63092380Y-70849523D01*
X63140000Y-70754285D01*
X63187619Y-70706666D01*
X63282857Y-70659047D01*
X63425714Y-70659047D01*
X63520952Y-70706666D01*
X63568571Y-70754285D01*
X63616190Y-70849523D01*
X63616190Y-71230476D01*
X64092380Y-69706666D02*
X64092380Y-70278095D01*
X64092380Y-69992380D02*
X63092380Y-69992380D01*
X63235238Y-70087619D01*
X63330476Y-70182857D01*
X63378095Y-70278095D01*
X63092380Y-69087619D02*
X63092380Y-68992380D01*
X63140000Y-68897142D01*
X63187619Y-68849523D01*
X63282857Y-68801904D01*
X63473333Y-68754285D01*
X63711428Y-68754285D01*
X63901904Y-68801904D01*
X63997142Y-68849523D01*
X64044761Y-68897142D01*
X64092380Y-68992380D01*
X64092380Y-69087619D01*
X64044761Y-69182857D01*
X63997142Y-69230476D01*
X63901904Y-69278095D01*
X63711428Y-69325714D01*
X63473333Y-69325714D01*
X63282857Y-69278095D01*
X63187619Y-69230476D01*
X63140000Y-69182857D01*
X63092380Y-69087619D01*
X63520952Y-68182857D02*
X63473333Y-68278095D01*
X63425714Y-68325714D01*
X63330476Y-68373333D01*
X63282857Y-68373333D01*
X63187619Y-68325714D01*
X63140000Y-68278095D01*
X63092380Y-68182857D01*
X63092380Y-67992380D01*
X63140000Y-67897142D01*
X63187619Y-67849523D01*
X63282857Y-67801904D01*
X63330476Y-67801904D01*
X63425714Y-67849523D01*
X63473333Y-67897142D01*
X63520952Y-67992380D01*
X63520952Y-68182857D01*
X63568571Y-68278095D01*
X63616190Y-68325714D01*
X63711428Y-68373333D01*
X63901904Y-68373333D01*
X63997142Y-68325714D01*
X64044761Y-68278095D01*
X64092380Y-68182857D01*
X64092380Y-67992380D01*
X64044761Y-67897142D01*
X63997142Y-67849523D01*
X63901904Y-67801904D01*
X63711428Y-67801904D01*
X63616190Y-67849523D01*
X63568571Y-67897142D01*
X63520952Y-67992380D01*
X67182380Y-70559047D02*
X66706190Y-70892380D01*
X67182380Y-71130476D02*
X66182380Y-71130476D01*
X66182380Y-70749523D01*
X66230000Y-70654285D01*
X66277619Y-70606666D01*
X66372857Y-70559047D01*
X66515714Y-70559047D01*
X66610952Y-70606666D01*
X66658571Y-70654285D01*
X66706190Y-70749523D01*
X66706190Y-71130476D01*
X67182380Y-69606666D02*
X67182380Y-70178095D01*
X67182380Y-69892380D02*
X66182380Y-69892380D01*
X66325238Y-69987619D01*
X66420476Y-70082857D01*
X66468095Y-70178095D01*
X66182380Y-68987619D02*
X66182380Y-68892380D01*
X66230000Y-68797142D01*
X66277619Y-68749523D01*
X66372857Y-68701904D01*
X66563333Y-68654285D01*
X66801428Y-68654285D01*
X66991904Y-68701904D01*
X67087142Y-68749523D01*
X67134761Y-68797142D01*
X67182380Y-68892380D01*
X67182380Y-68987619D01*
X67134761Y-69082857D01*
X67087142Y-69130476D01*
X66991904Y-69178095D01*
X66801428Y-69225714D01*
X66563333Y-69225714D01*
X66372857Y-69178095D01*
X66277619Y-69130476D01*
X66230000Y-69082857D01*
X66182380Y-68987619D01*
X66182380Y-68320952D02*
X66182380Y-67654285D01*
X67182380Y-68082857D01*
X70222380Y-70509047D02*
X69746190Y-70842380D01*
X70222380Y-71080476D02*
X69222380Y-71080476D01*
X69222380Y-70699523D01*
X69270000Y-70604285D01*
X69317619Y-70556666D01*
X69412857Y-70509047D01*
X69555714Y-70509047D01*
X69650952Y-70556666D01*
X69698571Y-70604285D01*
X69746190Y-70699523D01*
X69746190Y-71080476D01*
X70222380Y-69556666D02*
X70222380Y-70128095D01*
X70222380Y-69842380D02*
X69222380Y-69842380D01*
X69365238Y-69937619D01*
X69460476Y-70032857D01*
X69508095Y-70128095D01*
X69222380Y-68937619D02*
X69222380Y-68842380D01*
X69270000Y-68747142D01*
X69317619Y-68699523D01*
X69412857Y-68651904D01*
X69603333Y-68604285D01*
X69841428Y-68604285D01*
X70031904Y-68651904D01*
X70127142Y-68699523D01*
X70174761Y-68747142D01*
X70222380Y-68842380D01*
X70222380Y-68937619D01*
X70174761Y-69032857D01*
X70127142Y-69080476D01*
X70031904Y-69128095D01*
X69841428Y-69175714D01*
X69603333Y-69175714D01*
X69412857Y-69128095D01*
X69317619Y-69080476D01*
X69270000Y-69032857D01*
X69222380Y-68937619D01*
X69222380Y-67747142D02*
X69222380Y-67937619D01*
X69270000Y-68032857D01*
X69317619Y-68080476D01*
X69460476Y-68175714D01*
X69650952Y-68223333D01*
X70031904Y-68223333D01*
X70127142Y-68175714D01*
X70174761Y-68128095D01*
X70222380Y-68032857D01*
X70222380Y-67842380D01*
X70174761Y-67747142D01*
X70127142Y-67699523D01*
X70031904Y-67651904D01*
X69793809Y-67651904D01*
X69698571Y-67699523D01*
X69650952Y-67747142D01*
X69603333Y-67842380D01*
X69603333Y-68032857D01*
X69650952Y-68128095D01*
X69698571Y-68175714D01*
X69793809Y-68223333D01*
X40920952Y-56622380D02*
X40587619Y-56146190D01*
X40349523Y-56622380D02*
X40349523Y-55622380D01*
X40730476Y-55622380D01*
X40825714Y-55670000D01*
X40873333Y-55717619D01*
X40920952Y-55812857D01*
X40920952Y-55955714D01*
X40873333Y-56050952D01*
X40825714Y-56098571D01*
X40730476Y-56146190D01*
X40349523Y-56146190D01*
X41873333Y-56622380D02*
X41301904Y-56622380D01*
X41587619Y-56622380D02*
X41587619Y-55622380D01*
X41492380Y-55765238D01*
X41397142Y-55860476D01*
X41301904Y-55908095D01*
X42492380Y-55622380D02*
X42587619Y-55622380D01*
X42682857Y-55670000D01*
X42730476Y-55717619D01*
X42778095Y-55812857D01*
X42825714Y-56003333D01*
X42825714Y-56241428D01*
X42778095Y-56431904D01*
X42730476Y-56527142D01*
X42682857Y-56574761D01*
X42587619Y-56622380D01*
X42492380Y-56622380D01*
X42397142Y-56574761D01*
X42349523Y-56527142D01*
X42301904Y-56431904D01*
X42254285Y-56241428D01*
X42254285Y-56003333D01*
X42301904Y-55812857D01*
X42349523Y-55717619D01*
X42397142Y-55670000D01*
X42492380Y-55622380D01*
X43206666Y-55717619D02*
X43254285Y-55670000D01*
X43349523Y-55622380D01*
X43587619Y-55622380D01*
X43682857Y-55670000D01*
X43730476Y-55717619D01*
X43778095Y-55812857D01*
X43778095Y-55908095D01*
X43730476Y-56050952D01*
X43159047Y-56622380D01*
X43778095Y-56622380D01*
X56263333Y-78982380D02*
X55787142Y-78982380D01*
X55787142Y-77982380D01*
X56549047Y-78077619D02*
X56596666Y-78030000D01*
X56691904Y-77982380D01*
X56930000Y-77982380D01*
X57025238Y-78030000D01*
X57072857Y-78077619D01*
X57120476Y-78172857D01*
X57120476Y-78268095D01*
X57072857Y-78410952D01*
X56501428Y-78982380D01*
X57120476Y-78982380D01*
X59116666Y-87272380D02*
X59116666Y-87986666D01*
X59069047Y-88129523D01*
X58973809Y-88224761D01*
X58830952Y-88272380D01*
X58735714Y-88272380D01*
X59497619Y-87272380D02*
X60116666Y-87272380D01*
X59783333Y-87653333D01*
X59926190Y-87653333D01*
X60021428Y-87700952D01*
X60069047Y-87748571D01*
X60116666Y-87843809D01*
X60116666Y-88081904D01*
X60069047Y-88177142D01*
X60021428Y-88224761D01*
X59926190Y-88272380D01*
X59640476Y-88272380D01*
X59545238Y-88224761D01*
X59497619Y-88177142D01*
X30622380Y-39870476D02*
X29622380Y-39870476D01*
X29622380Y-39632380D01*
X29670000Y-39489523D01*
X29765238Y-39394285D01*
X29860476Y-39346666D01*
X30050952Y-39299047D01*
X30193809Y-39299047D01*
X30384285Y-39346666D01*
X30479523Y-39394285D01*
X30574761Y-39489523D01*
X30622380Y-39632380D01*
X30622380Y-39870476D01*
X30622380Y-38346666D02*
X30622380Y-38918095D01*
X30622380Y-38632380D02*
X29622380Y-38632380D01*
X29765238Y-38727619D01*
X29860476Y-38822857D01*
X29908095Y-38918095D01*
X29622380Y-37727619D02*
X29622380Y-37632380D01*
X29670000Y-37537142D01*
X29717619Y-37489523D01*
X29812857Y-37441904D01*
X30003333Y-37394285D01*
X30241428Y-37394285D01*
X30431904Y-37441904D01*
X30527142Y-37489523D01*
X30574761Y-37537142D01*
X30622380Y-37632380D01*
X30622380Y-37727619D01*
X30574761Y-37822857D01*
X30527142Y-37870476D01*
X30431904Y-37918095D01*
X30241428Y-37965714D01*
X30003333Y-37965714D01*
X29812857Y-37918095D01*
X29717619Y-37870476D01*
X29670000Y-37822857D01*
X29622380Y-37727619D01*
X30622380Y-36441904D02*
X30622380Y-37013333D01*
X30622380Y-36727619D02*
X29622380Y-36727619D01*
X29765238Y-36822857D01*
X29860476Y-36918095D01*
X29908095Y-37013333D01*
X42613333Y-90767142D02*
X42565714Y-90814761D01*
X42422857Y-90862380D01*
X42327619Y-90862380D01*
X42184761Y-90814761D01*
X42089523Y-90719523D01*
X42041904Y-90624285D01*
X41994285Y-90433809D01*
X41994285Y-90290952D01*
X42041904Y-90100476D01*
X42089523Y-90005238D01*
X42184761Y-89910000D01*
X42327619Y-89862380D01*
X42422857Y-89862380D01*
X42565714Y-89910000D01*
X42613333Y-89957619D01*
X43565714Y-90862380D02*
X42994285Y-90862380D01*
X43280000Y-90862380D02*
X43280000Y-89862380D01*
X43184761Y-90005238D01*
X43089523Y-90100476D01*
X42994285Y-90148095D01*
X61373333Y-74107142D02*
X61325714Y-74154761D01*
X61182857Y-74202380D01*
X61087619Y-74202380D01*
X60944761Y-74154761D01*
X60849523Y-74059523D01*
X60801904Y-73964285D01*
X60754285Y-73773809D01*
X60754285Y-73630952D01*
X60801904Y-73440476D01*
X60849523Y-73345238D01*
X60944761Y-73250000D01*
X61087619Y-73202380D01*
X61182857Y-73202380D01*
X61325714Y-73250000D01*
X61373333Y-73297619D01*
X61754285Y-73297619D02*
X61801904Y-73250000D01*
X61897142Y-73202380D01*
X62135238Y-73202380D01*
X62230476Y-73250000D01*
X62278095Y-73297619D01*
X62325714Y-73392857D01*
X62325714Y-73488095D01*
X62278095Y-73630952D01*
X61706666Y-74202380D01*
X62325714Y-74202380D01*
X50293333Y-69067142D02*
X50245714Y-69114761D01*
X50102857Y-69162380D01*
X50007619Y-69162380D01*
X49864761Y-69114761D01*
X49769523Y-69019523D01*
X49721904Y-68924285D01*
X49674285Y-68733809D01*
X49674285Y-68590952D01*
X49721904Y-68400476D01*
X49769523Y-68305238D01*
X49864761Y-68210000D01*
X50007619Y-68162380D01*
X50102857Y-68162380D01*
X50245714Y-68210000D01*
X50293333Y-68257619D01*
X51198095Y-68162380D02*
X50721904Y-68162380D01*
X50674285Y-68638571D01*
X50721904Y-68590952D01*
X50817142Y-68543333D01*
X51055238Y-68543333D01*
X51150476Y-68590952D01*
X51198095Y-68638571D01*
X51245714Y-68733809D01*
X51245714Y-68971904D01*
X51198095Y-69067142D01*
X51150476Y-69114761D01*
X51055238Y-69162380D01*
X50817142Y-69162380D01*
X50721904Y-69114761D01*
X50674285Y-69067142D01*
X40686666Y-37304761D02*
X40829523Y-37352380D01*
X41067619Y-37352380D01*
X41162857Y-37304761D01*
X41210476Y-37257142D01*
X41258095Y-37161904D01*
X41258095Y-37066666D01*
X41210476Y-36971428D01*
X41162857Y-36923809D01*
X41067619Y-36876190D01*
X40877142Y-36828571D01*
X40781904Y-36780952D01*
X40734285Y-36733333D01*
X40686666Y-36638095D01*
X40686666Y-36542857D01*
X40734285Y-36447619D01*
X40781904Y-36400000D01*
X40877142Y-36352380D01*
X41115238Y-36352380D01*
X41258095Y-36400000D01*
X41591428Y-36352380D02*
X41829523Y-37352380D01*
X42020000Y-36638095D01*
X42210476Y-37352380D01*
X42448571Y-36352380D01*
X43353333Y-37352380D02*
X42781904Y-37352380D01*
X43067619Y-37352380D02*
X43067619Y-36352380D01*
X42972380Y-36495238D01*
X42877142Y-36590476D01*
X42781904Y-36638095D01*
X50123333Y-58702380D02*
X49647142Y-58702380D01*
X49647142Y-57702380D01*
X50980476Y-58702380D02*
X50409047Y-58702380D01*
X50694761Y-58702380D02*
X50694761Y-57702380D01*
X50599523Y-57845238D01*
X50504285Y-57940476D01*
X50409047Y-57988095D01*
X72363333Y-59587142D02*
X72315714Y-59634761D01*
X72172857Y-59682380D01*
X72077619Y-59682380D01*
X71934761Y-59634761D01*
X71839523Y-59539523D01*
X71791904Y-59444285D01*
X71744285Y-59253809D01*
X71744285Y-59110952D01*
X71791904Y-58920476D01*
X71839523Y-58825238D01*
X71934761Y-58730000D01*
X72077619Y-58682380D01*
X72172857Y-58682380D01*
X72315714Y-58730000D01*
X72363333Y-58777619D01*
X73220476Y-59015714D02*
X73220476Y-59682380D01*
X72982380Y-58634761D02*
X72744285Y-59349047D01*
X73363333Y-59349047D01*
X73366666Y-89402380D02*
X73366666Y-90116666D01*
X73319047Y-90259523D01*
X73223809Y-90354761D01*
X73080952Y-90402380D01*
X72985714Y-90402380D01*
X74271428Y-89735714D02*
X74271428Y-90402380D01*
X74033333Y-89354761D02*
X73795238Y-90069047D01*
X74414285Y-90069047D01*
X80606666Y-41604761D02*
X80749523Y-41652380D01*
X80987619Y-41652380D01*
X81082857Y-41604761D01*
X81130476Y-41557142D01*
X81178095Y-41461904D01*
X81178095Y-41366666D01*
X81130476Y-41271428D01*
X81082857Y-41223809D01*
X80987619Y-41176190D01*
X80797142Y-41128571D01*
X80701904Y-41080952D01*
X80654285Y-41033333D01*
X80606666Y-40938095D01*
X80606666Y-40842857D01*
X80654285Y-40747619D01*
X80701904Y-40700000D01*
X80797142Y-40652380D01*
X81035238Y-40652380D01*
X81178095Y-40700000D01*
X81511428Y-40652380D02*
X81749523Y-41652380D01*
X81940000Y-40938095D01*
X82130476Y-41652380D01*
X82368571Y-40652380D01*
X82701904Y-40747619D02*
X82749523Y-40700000D01*
X82844761Y-40652380D01*
X83082857Y-40652380D01*
X83178095Y-40700000D01*
X83225714Y-40747619D01*
X83273333Y-40842857D01*
X83273333Y-40938095D01*
X83225714Y-41080952D01*
X82654285Y-41652380D01*
X83273333Y-41652380D01*
X33398095Y-54302380D02*
X33398095Y-55111904D01*
X33445714Y-55207142D01*
X33493333Y-55254761D01*
X33588571Y-55302380D01*
X33779047Y-55302380D01*
X33874285Y-55254761D01*
X33921904Y-55207142D01*
X33969523Y-55111904D01*
X33969523Y-54302380D01*
X34969523Y-55302380D02*
X34398095Y-55302380D01*
X34683809Y-55302380D02*
X34683809Y-54302380D01*
X34588571Y-54445238D01*
X34493333Y-54540476D01*
X34398095Y-54588095D01*
X68185714Y-40872380D02*
X68185714Y-41681904D01*
X68233333Y-41777142D01*
X68280952Y-41824761D01*
X68376190Y-41872380D01*
X68566666Y-41872380D01*
X68661904Y-41824761D01*
X68709523Y-41777142D01*
X68757142Y-41681904D01*
X68757142Y-40872380D01*
X69757142Y-41872380D02*
X69185714Y-41872380D01*
X69471428Y-41872380D02*
X69471428Y-40872380D01*
X69376190Y-41015238D01*
X69280952Y-41110476D01*
X69185714Y-41158095D01*
X70376190Y-40872380D02*
X70471428Y-40872380D01*
X70566666Y-40920000D01*
X70614285Y-40967619D01*
X70661904Y-41062857D01*
X70709523Y-41253333D01*
X70709523Y-41491428D01*
X70661904Y-41681904D01*
X70614285Y-41777142D01*
X70566666Y-41824761D01*
X70471428Y-41872380D01*
X70376190Y-41872380D01*
X70280952Y-41824761D01*
X70233333Y-41777142D01*
X70185714Y-41681904D01*
X70138095Y-41491428D01*
X70138095Y-41253333D01*
X70185714Y-41062857D01*
X70233333Y-40967619D01*
X70280952Y-40920000D01*
X70376190Y-40872380D01*
X71090476Y-40967619D02*
X71138095Y-40920000D01*
X71233333Y-40872380D01*
X71471428Y-40872380D01*
X71566666Y-40920000D01*
X71614285Y-40967619D01*
X71661904Y-41062857D01*
X71661904Y-41158095D01*
X71614285Y-41300952D01*
X71042857Y-41872380D01*
X71661904Y-41872380D01*
X32055714Y-70002380D02*
X32055714Y-70811904D01*
X32103333Y-70907142D01*
X32150952Y-70954761D01*
X32246190Y-71002380D01*
X32436666Y-71002380D01*
X32531904Y-70954761D01*
X32579523Y-70907142D01*
X32627142Y-70811904D01*
X32627142Y-70002380D01*
X33627142Y-71002380D02*
X33055714Y-71002380D01*
X33341428Y-71002380D02*
X33341428Y-70002380D01*
X33246190Y-70145238D01*
X33150952Y-70240476D01*
X33055714Y-70288095D01*
X34246190Y-70002380D02*
X34341428Y-70002380D01*
X34436666Y-70050000D01*
X34484285Y-70097619D01*
X34531904Y-70192857D01*
X34579523Y-70383333D01*
X34579523Y-70621428D01*
X34531904Y-70811904D01*
X34484285Y-70907142D01*
X34436666Y-70954761D01*
X34341428Y-71002380D01*
X34246190Y-71002380D01*
X34150952Y-70954761D01*
X34103333Y-70907142D01*
X34055714Y-70811904D01*
X34008095Y-70621428D01*
X34008095Y-70383333D01*
X34055714Y-70192857D01*
X34103333Y-70097619D01*
X34150952Y-70050000D01*
X34246190Y-70002380D01*
X35531904Y-71002380D02*
X34960476Y-71002380D01*
X35246190Y-71002380D02*
X35246190Y-70002380D01*
X35150952Y-70145238D01*
X35055714Y-70240476D01*
X34960476Y-70288095D01*
X78027142Y-33077142D02*
X77598571Y-33377142D01*
X78027142Y-33591428D02*
X77127142Y-33591428D01*
X77127142Y-33248571D01*
X77170000Y-33162857D01*
X77212857Y-33120000D01*
X77298571Y-33077142D01*
X77427142Y-33077142D01*
X77512857Y-33120000D01*
X77555714Y-33162857D01*
X77598571Y-33248571D01*
X77598571Y-33591428D01*
X78027142Y-32220000D02*
X78027142Y-32734285D01*
X78027142Y-32477142D02*
X77127142Y-32477142D01*
X77255714Y-32562857D01*
X77341428Y-32648571D01*
X77384285Y-32734285D01*
X77127142Y-31662857D02*
X77127142Y-31577142D01*
X77170000Y-31491428D01*
X77212857Y-31448571D01*
X77298571Y-31405714D01*
X77470000Y-31362857D01*
X77684285Y-31362857D01*
X77855714Y-31405714D01*
X77941428Y-31448571D01*
X77984285Y-31491428D01*
X78027142Y-31577142D01*
X78027142Y-31662857D01*
X77984285Y-31748571D01*
X77941428Y-31791428D01*
X77855714Y-31834285D01*
X77684285Y-31877142D01*
X77470000Y-31877142D01*
X77298571Y-31834285D01*
X77212857Y-31791428D01*
X77170000Y-31748571D01*
X77127142Y-31662857D01*
X78027142Y-30934285D02*
X78027142Y-30762857D01*
X77984285Y-30677142D01*
X77941428Y-30634285D01*
X77812857Y-30548571D01*
X77641428Y-30505714D01*
X77298571Y-30505714D01*
X77212857Y-30548571D01*
X77170000Y-30591428D01*
X77127142Y-30677142D01*
X77127142Y-30848571D01*
X77170000Y-30934285D01*
X77212857Y-30977142D01*
X77298571Y-31020000D01*
X77512857Y-31020000D01*
X77598571Y-30977142D01*
X77641428Y-30934285D01*
X77684285Y-30848571D01*
X77684285Y-30677142D01*
X77641428Y-30591428D01*
X77598571Y-30548571D01*
X77512857Y-30505714D01*
X81847142Y-32987142D02*
X81418571Y-33287142D01*
X81847142Y-33501428D02*
X80947142Y-33501428D01*
X80947142Y-33158571D01*
X80990000Y-33072857D01*
X81032857Y-33030000D01*
X81118571Y-32987142D01*
X81247142Y-32987142D01*
X81332857Y-33030000D01*
X81375714Y-33072857D01*
X81418571Y-33158571D01*
X81418571Y-33501428D01*
X81847142Y-32130000D02*
X81847142Y-32644285D01*
X81847142Y-32387142D02*
X80947142Y-32387142D01*
X81075714Y-32472857D01*
X81161428Y-32558571D01*
X81204285Y-32644285D01*
X81847142Y-31272857D02*
X81847142Y-31787142D01*
X81847142Y-31530000D02*
X80947142Y-31530000D01*
X81075714Y-31615714D01*
X81161428Y-31701428D01*
X81204285Y-31787142D01*
X80947142Y-30715714D02*
X80947142Y-30630000D01*
X80990000Y-30544285D01*
X81032857Y-30501428D01*
X81118571Y-30458571D01*
X81290000Y-30415714D01*
X81504285Y-30415714D01*
X81675714Y-30458571D01*
X81761428Y-30501428D01*
X81804285Y-30544285D01*
X81847142Y-30630000D01*
X81847142Y-30715714D01*
X81804285Y-30801428D01*
X81761428Y-30844285D01*
X81675714Y-30887142D01*
X81504285Y-30930000D01*
X81290000Y-30930000D01*
X81118571Y-30887142D01*
X81032857Y-30844285D01*
X80990000Y-30801428D01*
X80947142Y-30715714D01*
X58910952Y-43982380D02*
X58577619Y-43506190D01*
X58339523Y-43982380D02*
X58339523Y-42982380D01*
X58720476Y-42982380D01*
X58815714Y-43030000D01*
X58863333Y-43077619D01*
X58910952Y-43172857D01*
X58910952Y-43315714D01*
X58863333Y-43410952D01*
X58815714Y-43458571D01*
X58720476Y-43506190D01*
X58339523Y-43506190D01*
X59863333Y-43982380D02*
X59291904Y-43982380D01*
X59577619Y-43982380D02*
X59577619Y-42982380D01*
X59482380Y-43125238D01*
X59387142Y-43220476D01*
X59291904Y-43268095D01*
X60482380Y-42982380D02*
X60577619Y-42982380D01*
X60672857Y-43030000D01*
X60720476Y-43077619D01*
X60768095Y-43172857D01*
X60815714Y-43363333D01*
X60815714Y-43601428D01*
X60768095Y-43791904D01*
X60720476Y-43887142D01*
X60672857Y-43934761D01*
X60577619Y-43982380D01*
X60482380Y-43982380D01*
X60387142Y-43934761D01*
X60339523Y-43887142D01*
X60291904Y-43791904D01*
X60244285Y-43601428D01*
X60244285Y-43363333D01*
X60291904Y-43172857D01*
X60339523Y-43077619D01*
X60387142Y-43030000D01*
X60482380Y-42982380D01*
X61672857Y-43315714D02*
X61672857Y-43982380D01*
X61434761Y-42934761D02*
X61196666Y-43649047D01*
X61815714Y-43649047D01*
X58840552Y-47522380D02*
X58507219Y-47046190D01*
X58269123Y-47522380D02*
X58269123Y-46522380D01*
X58650076Y-46522380D01*
X58745314Y-46570000D01*
X58792933Y-46617619D01*
X58840552Y-46712857D01*
X58840552Y-46855714D01*
X58792933Y-46950952D01*
X58745314Y-46998571D01*
X58650076Y-47046190D01*
X58269123Y-47046190D01*
X59792933Y-47522380D02*
X59221504Y-47522380D01*
X59507219Y-47522380D02*
X59507219Y-46522380D01*
X59411980Y-46665238D01*
X59316742Y-46760476D01*
X59221504Y-46808095D01*
X60411980Y-46522380D02*
X60507219Y-46522380D01*
X60602457Y-46570000D01*
X60650076Y-46617619D01*
X60697695Y-46712857D01*
X60745314Y-46903333D01*
X60745314Y-47141428D01*
X60697695Y-47331904D01*
X60650076Y-47427142D01*
X60602457Y-47474761D01*
X60507219Y-47522380D01*
X60411980Y-47522380D01*
X60316742Y-47474761D01*
X60269123Y-47427142D01*
X60221504Y-47331904D01*
X60173885Y-47141428D01*
X60173885Y-46903333D01*
X60221504Y-46712857D01*
X60269123Y-46617619D01*
X60316742Y-46570000D01*
X60411980Y-46522380D01*
X61650076Y-46522380D02*
X61173885Y-46522380D01*
X61126266Y-46998571D01*
X61173885Y-46950952D01*
X61269123Y-46903333D01*
X61507219Y-46903333D01*
X61602457Y-46950952D01*
X61650076Y-46998571D01*
X61697695Y-47093809D01*
X61697695Y-47331904D01*
X61650076Y-47427142D01*
X61602457Y-47474761D01*
X61507219Y-47522380D01*
X61269123Y-47522380D01*
X61173885Y-47474761D01*
X61126266Y-47427142D01*
X59043752Y-40511980D02*
X58710419Y-40035790D01*
X58472323Y-40511980D02*
X58472323Y-39511980D01*
X58853276Y-39511980D01*
X58948514Y-39559600D01*
X58996133Y-39607219D01*
X59043752Y-39702457D01*
X59043752Y-39845314D01*
X58996133Y-39940552D01*
X58948514Y-39988171D01*
X58853276Y-40035790D01*
X58472323Y-40035790D01*
X59996133Y-40511980D02*
X59424704Y-40511980D01*
X59710419Y-40511980D02*
X59710419Y-39511980D01*
X59615180Y-39654838D01*
X59519942Y-39750076D01*
X59424704Y-39797695D01*
X60615180Y-39511980D02*
X60710419Y-39511980D01*
X60805657Y-39559600D01*
X60853276Y-39607219D01*
X60900895Y-39702457D01*
X60948514Y-39892933D01*
X60948514Y-40131028D01*
X60900895Y-40321504D01*
X60853276Y-40416742D01*
X60805657Y-40464361D01*
X60710419Y-40511980D01*
X60615180Y-40511980D01*
X60519942Y-40464361D01*
X60472323Y-40416742D01*
X60424704Y-40321504D01*
X60377085Y-40131028D01*
X60377085Y-39892933D01*
X60424704Y-39702457D01*
X60472323Y-39607219D01*
X60519942Y-39559600D01*
X60615180Y-39511980D01*
X61281847Y-39511980D02*
X61900895Y-39511980D01*
X61567561Y-39892933D01*
X61710419Y-39892933D01*
X61805657Y-39940552D01*
X61853276Y-39988171D01*
X61900895Y-40083409D01*
X61900895Y-40321504D01*
X61853276Y-40416742D01*
X61805657Y-40464361D01*
X61710419Y-40511980D01*
X61424704Y-40511980D01*
X61329466Y-40464361D01*
X61281847Y-40416742D01*
X39833333Y-76932380D02*
X39500000Y-76456190D01*
X39261904Y-76932380D02*
X39261904Y-75932380D01*
X39642857Y-75932380D01*
X39738095Y-75980000D01*
X39785714Y-76027619D01*
X39833333Y-76122857D01*
X39833333Y-76265714D01*
X39785714Y-76360952D01*
X39738095Y-76408571D01*
X39642857Y-76456190D01*
X39261904Y-76456190D01*
X40785714Y-76932380D02*
X40214285Y-76932380D01*
X40500000Y-76932380D02*
X40500000Y-75932380D01*
X40404761Y-76075238D01*
X40309523Y-76170476D01*
X40214285Y-76218095D01*
X57183333Y-60002380D02*
X56850000Y-59526190D01*
X56611904Y-60002380D02*
X56611904Y-59002380D01*
X56992857Y-59002380D01*
X57088095Y-59050000D01*
X57135714Y-59097619D01*
X57183333Y-59192857D01*
X57183333Y-59335714D01*
X57135714Y-59430952D01*
X57088095Y-59478571D01*
X56992857Y-59526190D01*
X56611904Y-59526190D01*
X57516666Y-59002380D02*
X58135714Y-59002380D01*
X57802380Y-59383333D01*
X57945238Y-59383333D01*
X58040476Y-59430952D01*
X58088095Y-59478571D01*
X58135714Y-59573809D01*
X58135714Y-59811904D01*
X58088095Y-59907142D01*
X58040476Y-59954761D01*
X57945238Y-60002380D01*
X57659523Y-60002380D01*
X57564285Y-59954761D01*
X57516666Y-59907142D01*
X78194761Y-77857619D02*
X78099523Y-77810000D01*
X78004285Y-77714761D01*
X77861428Y-77571904D01*
X77766190Y-77524285D01*
X77670952Y-77524285D01*
X77718571Y-77762380D02*
X77623333Y-77714761D01*
X77528095Y-77619523D01*
X77480476Y-77429047D01*
X77480476Y-77095714D01*
X77528095Y-76905238D01*
X77623333Y-76810000D01*
X77718571Y-76762380D01*
X77909047Y-76762380D01*
X78004285Y-76810000D01*
X78099523Y-76905238D01*
X78147142Y-77095714D01*
X78147142Y-77429047D01*
X78099523Y-77619523D01*
X78004285Y-77714761D01*
X77909047Y-77762380D01*
X77718571Y-77762380D01*
X79099523Y-77762380D02*
X78528095Y-77762380D01*
X78813809Y-77762380D02*
X78813809Y-76762380D01*
X78718571Y-76905238D01*
X78623333Y-77000476D01*
X78528095Y-77048095D01*
X35891666Y-28827380D02*
X35891666Y-29541666D01*
X35844047Y-29684523D01*
X35748809Y-29779761D01*
X35605952Y-29827380D01*
X35510714Y-29827380D01*
X36320238Y-28922619D02*
X36367857Y-28875000D01*
X36463095Y-28827380D01*
X36701190Y-28827380D01*
X36796428Y-28875000D01*
X36844047Y-28922619D01*
X36891666Y-29017857D01*
X36891666Y-29113095D01*
X36844047Y-29255952D01*
X36272619Y-29827380D01*
X36891666Y-29827380D01*
X36366666Y-43182380D02*
X36366666Y-43896666D01*
X36319047Y-44039523D01*
X36223809Y-44134761D01*
X36080952Y-44182380D01*
X35985714Y-44182380D01*
X37366666Y-44182380D02*
X36795238Y-44182380D01*
X37080952Y-44182380D02*
X37080952Y-43182380D01*
X36985714Y-43325238D01*
X36890476Y-43420476D01*
X36795238Y-43468095D01*
X78811904Y-73022380D02*
X78811904Y-72022380D01*
X79050000Y-72022380D01*
X79192857Y-72070000D01*
X79288095Y-72165238D01*
X79335714Y-72260476D01*
X79383333Y-72450952D01*
X79383333Y-72593809D01*
X79335714Y-72784285D01*
X79288095Y-72879523D01*
X79192857Y-72974761D01*
X79050000Y-73022380D01*
X78811904Y-73022380D01*
X79716666Y-72022380D02*
X80335714Y-72022380D01*
X80002380Y-72403333D01*
X80145238Y-72403333D01*
X80240476Y-72450952D01*
X80288095Y-72498571D01*
X80335714Y-72593809D01*
X80335714Y-72831904D01*
X80288095Y-72927142D01*
X80240476Y-72974761D01*
X80145238Y-73022380D01*
X79859523Y-73022380D01*
X79764285Y-72974761D01*
X79716666Y-72927142D01*
X39481904Y-64252380D02*
X39481904Y-63252380D01*
X39720000Y-63252380D01*
X39862857Y-63300000D01*
X39958095Y-63395238D01*
X40005714Y-63490476D01*
X40053333Y-63680952D01*
X40053333Y-63823809D01*
X40005714Y-64014285D01*
X39958095Y-64109523D01*
X39862857Y-64204761D01*
X39720000Y-64252380D01*
X39481904Y-64252380D01*
X40434285Y-63347619D02*
X40481904Y-63300000D01*
X40577142Y-63252380D01*
X40815238Y-63252380D01*
X40910476Y-63300000D01*
X40958095Y-63347619D01*
X41005714Y-63442857D01*
X41005714Y-63538095D01*
X40958095Y-63680952D01*
X40386666Y-64252380D01*
X41005714Y-64252380D01*
X53490952Y-41477142D02*
X53443333Y-41524761D01*
X53300476Y-41572380D01*
X53205238Y-41572380D01*
X53062380Y-41524761D01*
X52967142Y-41429523D01*
X52919523Y-41334285D01*
X52871904Y-41143809D01*
X52871904Y-41000952D01*
X52919523Y-40810476D01*
X52967142Y-40715238D01*
X53062380Y-40620000D01*
X53205238Y-40572380D01*
X53300476Y-40572380D01*
X53443333Y-40620000D01*
X53490952Y-40667619D01*
X54443333Y-41572380D02*
X53871904Y-41572380D01*
X54157619Y-41572380D02*
X54157619Y-40572380D01*
X54062380Y-40715238D01*
X53967142Y-40810476D01*
X53871904Y-40858095D01*
X55062380Y-40572380D02*
X55157619Y-40572380D01*
X55252857Y-40620000D01*
X55300476Y-40667619D01*
X55348095Y-40762857D01*
X55395714Y-40953333D01*
X55395714Y-41191428D01*
X55348095Y-41381904D01*
X55300476Y-41477142D01*
X55252857Y-41524761D01*
X55157619Y-41572380D01*
X55062380Y-41572380D01*
X54967142Y-41524761D01*
X54919523Y-41477142D01*
X54871904Y-41381904D01*
X54824285Y-41191428D01*
X54824285Y-40953333D01*
X54871904Y-40762857D01*
X54919523Y-40667619D01*
X54967142Y-40620000D01*
X55062380Y-40572380D01*
X55729047Y-40572380D02*
X56348095Y-40572380D01*
X56014761Y-40953333D01*
X56157619Y-40953333D01*
X56252857Y-41000952D01*
X56300476Y-41048571D01*
X56348095Y-41143809D01*
X56348095Y-41381904D01*
X56300476Y-41477142D01*
X56252857Y-41524761D01*
X56157619Y-41572380D01*
X55871904Y-41572380D01*
X55776666Y-41524761D01*
X55729047Y-41477142D01*
X53426752Y-45087142D02*
X53379133Y-45134761D01*
X53236276Y-45182380D01*
X53141038Y-45182380D01*
X52998180Y-45134761D01*
X52902942Y-45039523D01*
X52855323Y-44944285D01*
X52807704Y-44753809D01*
X52807704Y-44610952D01*
X52855323Y-44420476D01*
X52902942Y-44325238D01*
X52998180Y-44230000D01*
X53141038Y-44182380D01*
X53236276Y-44182380D01*
X53379133Y-44230000D01*
X53426752Y-44277619D01*
X54379133Y-45182380D02*
X53807704Y-45182380D01*
X54093419Y-45182380D02*
X54093419Y-44182380D01*
X53998180Y-44325238D01*
X53902942Y-44420476D01*
X53807704Y-44468095D01*
X54998180Y-44182380D02*
X55093419Y-44182380D01*
X55188657Y-44230000D01*
X55236276Y-44277619D01*
X55283895Y-44372857D01*
X55331514Y-44563333D01*
X55331514Y-44801428D01*
X55283895Y-44991904D01*
X55236276Y-45087142D01*
X55188657Y-45134761D01*
X55093419Y-45182380D01*
X54998180Y-45182380D01*
X54902942Y-45134761D01*
X54855323Y-45087142D01*
X54807704Y-44991904D01*
X54760085Y-44801428D01*
X54760085Y-44563333D01*
X54807704Y-44372857D01*
X54855323Y-44277619D01*
X54902942Y-44230000D01*
X54998180Y-44182380D01*
X56188657Y-44515714D02*
X56188657Y-45182380D01*
X55950561Y-44134761D02*
X55712466Y-44849047D01*
X56331514Y-44849047D01*
X43527142Y-54069047D02*
X43574761Y-54116666D01*
X43622380Y-54259523D01*
X43622380Y-54354761D01*
X43574761Y-54497619D01*
X43479523Y-54592857D01*
X43384285Y-54640476D01*
X43193809Y-54688095D01*
X43050952Y-54688095D01*
X42860476Y-54640476D01*
X42765238Y-54592857D01*
X42670000Y-54497619D01*
X42622380Y-54354761D01*
X42622380Y-54259523D01*
X42670000Y-54116666D01*
X42717619Y-54069047D01*
X43622380Y-53116666D02*
X43622380Y-53688095D01*
X43622380Y-53402380D02*
X42622380Y-53402380D01*
X42765238Y-53497619D01*
X42860476Y-53592857D01*
X42908095Y-53688095D01*
X42622380Y-52497619D02*
X42622380Y-52402380D01*
X42670000Y-52307142D01*
X42717619Y-52259523D01*
X42812857Y-52211904D01*
X43003333Y-52164285D01*
X43241428Y-52164285D01*
X43431904Y-52211904D01*
X43527142Y-52259523D01*
X43574761Y-52307142D01*
X43622380Y-52402380D01*
X43622380Y-52497619D01*
X43574761Y-52592857D01*
X43527142Y-52640476D01*
X43431904Y-52688095D01*
X43241428Y-52735714D01*
X43003333Y-52735714D01*
X42812857Y-52688095D01*
X42717619Y-52640476D01*
X42670000Y-52592857D01*
X42622380Y-52497619D01*
X42717619Y-51783333D02*
X42670000Y-51735714D01*
X42622380Y-51640476D01*
X42622380Y-51402380D01*
X42670000Y-51307142D01*
X42717619Y-51259523D01*
X42812857Y-51211904D01*
X42908095Y-51211904D01*
X43050952Y-51259523D01*
X43622380Y-51830952D01*
X43622380Y-51211904D01*
X39177142Y-54109047D02*
X39224761Y-54156666D01*
X39272380Y-54299523D01*
X39272380Y-54394761D01*
X39224761Y-54537619D01*
X39129523Y-54632857D01*
X39034285Y-54680476D01*
X38843809Y-54728095D01*
X38700952Y-54728095D01*
X38510476Y-54680476D01*
X38415238Y-54632857D01*
X38320000Y-54537619D01*
X38272380Y-54394761D01*
X38272380Y-54299523D01*
X38320000Y-54156666D01*
X38367619Y-54109047D01*
X39272380Y-53156666D02*
X39272380Y-53728095D01*
X39272380Y-53442380D02*
X38272380Y-53442380D01*
X38415238Y-53537619D01*
X38510476Y-53632857D01*
X38558095Y-53728095D01*
X38272380Y-52537619D02*
X38272380Y-52442380D01*
X38320000Y-52347142D01*
X38367619Y-52299523D01*
X38462857Y-52251904D01*
X38653333Y-52204285D01*
X38891428Y-52204285D01*
X39081904Y-52251904D01*
X39177142Y-52299523D01*
X39224761Y-52347142D01*
X39272380Y-52442380D01*
X39272380Y-52537619D01*
X39224761Y-52632857D01*
X39177142Y-52680476D01*
X39081904Y-52728095D01*
X38891428Y-52775714D01*
X38653333Y-52775714D01*
X38462857Y-52728095D01*
X38367619Y-52680476D01*
X38320000Y-52632857D01*
X38272380Y-52537619D01*
X39272380Y-51251904D02*
X39272380Y-51823333D01*
X39272380Y-51537619D02*
X38272380Y-51537619D01*
X38415238Y-51632857D01*
X38510476Y-51728095D01*
X38558095Y-51823333D01*
X52863333Y-72977142D02*
X52815714Y-73024761D01*
X52672857Y-73072380D01*
X52577619Y-73072380D01*
X52434761Y-73024761D01*
X52339523Y-72929523D01*
X52291904Y-72834285D01*
X52244285Y-72643809D01*
X52244285Y-72500952D01*
X52291904Y-72310476D01*
X52339523Y-72215238D01*
X52434761Y-72120000D01*
X52577619Y-72072380D01*
X52672857Y-72072380D01*
X52815714Y-72120000D01*
X52863333Y-72167619D01*
X53196666Y-72072380D02*
X53815714Y-72072380D01*
X53482380Y-72453333D01*
X53625238Y-72453333D01*
X53720476Y-72500952D01*
X53768095Y-72548571D01*
X53815714Y-72643809D01*
X53815714Y-72881904D01*
X53768095Y-72977142D01*
X53720476Y-73024761D01*
X53625238Y-73072380D01*
X53339523Y-73072380D01*
X53244285Y-73024761D01*
X53196666Y-72977142D01*
M02*
