G04 #@! TF.GenerationSoftware,KiCad,Pcbnew,(5.1.2-1)-1*
G04 #@! TF.CreationDate,2019-08-12T17:05:30-07:00*
G04 #@! TF.ProjectId,powersupply,706f7765-7273-4757-9070-6c792e6b6963,rev?*
G04 #@! TF.SameCoordinates,Original*
G04 #@! TF.FileFunction,Legend,Bot*
G04 #@! TF.FilePolarity,Positive*
%FSLAX46Y46*%
G04 Gerber Fmt 4.6, Leading zero omitted, Abs format (unit mm)*
G04 Created by KiCad (PCBNEW (5.1.2-1)-1) date 2019-08-12 17:05:30*
%MOMM*%
%LPD*%
G04 APERTURE LIST*
%ADD10C,0.120000*%
%ADD11C,0.500000*%
G04 APERTURE END LIST*
D10*
X59150000Y-34580000D02*
X59150000Y-35000000D01*
X59150000Y-35300000D02*
X59150000Y-35720000D01*
X59150000Y-33150000D02*
X59150000Y-33570000D01*
X59150000Y-33880000D02*
X59150000Y-34300000D01*
X55910000Y-35290000D02*
X55910000Y-35710000D01*
X55910000Y-34570000D02*
X55910000Y-34990000D01*
X55910000Y-33870000D02*
X55910000Y-34290000D01*
X55910000Y-33140000D02*
X55910000Y-33560000D01*
D11*
X69320952Y-40141904D02*
X69320952Y-35141904D01*
X67416190Y-35141904D01*
X66940000Y-35380000D01*
X66701904Y-35618095D01*
X66463809Y-36094285D01*
X66463809Y-36808571D01*
X66701904Y-37284761D01*
X66940000Y-37522857D01*
X67416190Y-37760952D01*
X69320952Y-37760952D01*
X63606666Y-40141904D02*
X64082857Y-39903809D01*
X64320952Y-39665714D01*
X64559047Y-39189523D01*
X64559047Y-37760952D01*
X64320952Y-37284761D01*
X64082857Y-37046666D01*
X63606666Y-36808571D01*
X62892380Y-36808571D01*
X62416190Y-37046666D01*
X62178095Y-37284761D01*
X61940000Y-37760952D01*
X61940000Y-39189523D01*
X62178095Y-39665714D01*
X62416190Y-39903809D01*
X62892380Y-40141904D01*
X63606666Y-40141904D01*
X60273333Y-36808571D02*
X59320952Y-40141904D01*
X58368571Y-37760952D01*
X57416190Y-40141904D01*
X56463809Y-36808571D01*
X52654285Y-39903809D02*
X53130476Y-40141904D01*
X54082857Y-40141904D01*
X54559047Y-39903809D01*
X54797142Y-39427619D01*
X54797142Y-37522857D01*
X54559047Y-37046666D01*
X54082857Y-36808571D01*
X53130476Y-36808571D01*
X52654285Y-37046666D01*
X52416190Y-37522857D01*
X52416190Y-37999047D01*
X54797142Y-38475238D01*
X50273333Y-40141904D02*
X50273333Y-36808571D01*
X50273333Y-37760952D02*
X50035238Y-37284761D01*
X49797142Y-37046666D01*
X49320952Y-36808571D01*
X48844761Y-36808571D01*
X70868571Y-47903809D02*
X70154285Y-48141904D01*
X68963809Y-48141904D01*
X68487619Y-47903809D01*
X68249523Y-47665714D01*
X68011428Y-47189523D01*
X68011428Y-46713333D01*
X68249523Y-46237142D01*
X68487619Y-45999047D01*
X68963809Y-45760952D01*
X69916190Y-45522857D01*
X70392380Y-45284761D01*
X70630476Y-45046666D01*
X70868571Y-44570476D01*
X70868571Y-44094285D01*
X70630476Y-43618095D01*
X70392380Y-43380000D01*
X69916190Y-43141904D01*
X68725714Y-43141904D01*
X68011428Y-43380000D01*
X63725714Y-44808571D02*
X63725714Y-48141904D01*
X65868571Y-44808571D02*
X65868571Y-47427619D01*
X65630476Y-47903809D01*
X65154285Y-48141904D01*
X64440000Y-48141904D01*
X63963809Y-47903809D01*
X63725714Y-47665714D01*
X61344761Y-44808571D02*
X61344761Y-49808571D01*
X61344761Y-45046666D02*
X60868571Y-44808571D01*
X59916190Y-44808571D01*
X59440000Y-45046666D01*
X59201904Y-45284761D01*
X58963809Y-45760952D01*
X58963809Y-47189523D01*
X59201904Y-47665714D01*
X59440000Y-47903809D01*
X59916190Y-48141904D01*
X60868571Y-48141904D01*
X61344761Y-47903809D01*
X56820952Y-44808571D02*
X56820952Y-49808571D01*
X56820952Y-45046666D02*
X56344761Y-44808571D01*
X55392380Y-44808571D01*
X54916190Y-45046666D01*
X54678095Y-45284761D01*
X54440000Y-45760952D01*
X54440000Y-47189523D01*
X54678095Y-47665714D01*
X54916190Y-47903809D01*
X55392380Y-48141904D01*
X56344761Y-48141904D01*
X56820952Y-47903809D01*
X51582857Y-48141904D02*
X52059047Y-47903809D01*
X52297142Y-47427619D01*
X52297142Y-43141904D01*
X50154285Y-44808571D02*
X48963809Y-48141904D01*
X47773333Y-44808571D02*
X48963809Y-48141904D01*
X49440000Y-49332380D01*
X49678095Y-49570476D01*
X50154285Y-49808571D01*
M02*
