G04 #@! TF.GenerationSoftware,KiCad,Pcbnew,(5.1.5-0-10_14)*
G04 #@! TF.CreationDate,2019-12-09T00:47:21-08:00*
G04 #@! TF.ProjectId,powersupply,706f7765-7273-4757-9070-6c792e6b6963,rev?*
G04 #@! TF.SameCoordinates,Original*
G04 #@! TF.FileFunction,Legend,Bot*
G04 #@! TF.FilePolarity,Positive*
%FSLAX46Y46*%
G04 Gerber Fmt 4.6, Leading zero omitted, Abs format (unit mm)*
G04 Created by KiCad (PCBNEW (5.1.5-0-10_14)) date 2019-12-09 00:47:21*
%MOMM*%
%LPD*%
G04 APERTURE LIST*
%ADD10C,0.625000*%
%ADD11C,0.010000*%
%ADD12C,0.150000*%
G04 APERTURE END LIST*
D10*
X81052380Y-36580952D02*
X80219047Y-39080952D01*
X79385714Y-36580952D01*
X77480952Y-39080952D02*
X77480952Y-37771428D01*
X77600000Y-37533333D01*
X77838095Y-37414285D01*
X78314285Y-37414285D01*
X78552380Y-37533333D01*
X77480952Y-38961904D02*
X77719047Y-39080952D01*
X78314285Y-39080952D01*
X78552380Y-38961904D01*
X78671428Y-38723809D01*
X78671428Y-38485714D01*
X78552380Y-38247619D01*
X78314285Y-38128571D01*
X77719047Y-38128571D01*
X77480952Y-38009523D01*
X76290476Y-39080952D02*
X76290476Y-37414285D01*
X76290476Y-37890476D02*
X76171428Y-37652380D01*
X76052380Y-37533333D01*
X75814285Y-37414285D01*
X75576190Y-37414285D01*
X74742857Y-39080952D02*
X74742857Y-37414285D01*
X74742857Y-36580952D02*
X74861904Y-36700000D01*
X74742857Y-36819047D01*
X74623809Y-36700000D01*
X74742857Y-36580952D01*
X74742857Y-36819047D01*
X72480952Y-39080952D02*
X72480952Y-37771428D01*
X72600000Y-37533333D01*
X72838095Y-37414285D01*
X73314285Y-37414285D01*
X73552380Y-37533333D01*
X72480952Y-38961904D02*
X72719047Y-39080952D01*
X73314285Y-39080952D01*
X73552380Y-38961904D01*
X73671428Y-38723809D01*
X73671428Y-38485714D01*
X73552380Y-38247619D01*
X73314285Y-38128571D01*
X72719047Y-38128571D01*
X72480952Y-38009523D01*
X71290476Y-39080952D02*
X71290476Y-36580952D01*
X71290476Y-37533333D02*
X71052380Y-37414285D01*
X70576190Y-37414285D01*
X70338095Y-37533333D01*
X70219047Y-37652380D01*
X70100000Y-37890476D01*
X70100000Y-38604761D01*
X70219047Y-38842857D01*
X70338095Y-38961904D01*
X70576190Y-39080952D01*
X71052380Y-39080952D01*
X71290476Y-38961904D01*
X68671428Y-39080952D02*
X68909523Y-38961904D01*
X69028571Y-38723809D01*
X69028571Y-36580952D01*
X66766666Y-38961904D02*
X67004761Y-39080952D01*
X67480952Y-39080952D01*
X67719047Y-38961904D01*
X67838095Y-38723809D01*
X67838095Y-37771428D01*
X67719047Y-37533333D01*
X67480952Y-37414285D01*
X67004761Y-37414285D01*
X66766666Y-37533333D01*
X66647619Y-37771428D01*
X66647619Y-38009523D01*
X67838095Y-38247619D01*
X63671428Y-39080952D02*
X63671428Y-36580952D01*
X62719047Y-36580952D01*
X62480952Y-36700000D01*
X62361904Y-36819047D01*
X62242857Y-37057142D01*
X62242857Y-37414285D01*
X62361904Y-37652380D01*
X62480952Y-37771428D01*
X62719047Y-37890476D01*
X63671428Y-37890476D01*
X60814285Y-39080952D02*
X61052380Y-38961904D01*
X61171428Y-38842857D01*
X61290476Y-38604761D01*
X61290476Y-37890476D01*
X61171428Y-37652380D01*
X61052380Y-37533333D01*
X60814285Y-37414285D01*
X60457142Y-37414285D01*
X60219047Y-37533333D01*
X60100000Y-37652380D01*
X59980952Y-37890476D01*
X59980952Y-38604761D01*
X60100000Y-38842857D01*
X60219047Y-38961904D01*
X60457142Y-39080952D01*
X60814285Y-39080952D01*
X59147619Y-37414285D02*
X58671428Y-39080952D01*
X58195238Y-37890476D01*
X57719047Y-39080952D01*
X57242857Y-37414285D01*
X55338095Y-38961904D02*
X55576190Y-39080952D01*
X56052380Y-39080952D01*
X56290476Y-38961904D01*
X56409523Y-38723809D01*
X56409523Y-37771428D01*
X56290476Y-37533333D01*
X56052380Y-37414285D01*
X55576190Y-37414285D01*
X55338095Y-37533333D01*
X55219047Y-37771428D01*
X55219047Y-38009523D01*
X56409523Y-38247619D01*
X54147619Y-39080952D02*
X54147619Y-37414285D01*
X54147619Y-37890476D02*
X54028571Y-37652380D01*
X53909523Y-37533333D01*
X53671428Y-37414285D01*
X53433333Y-37414285D01*
X50814285Y-38961904D02*
X50457142Y-39080952D01*
X49861904Y-39080952D01*
X49623809Y-38961904D01*
X49504761Y-38842857D01*
X49385714Y-38604761D01*
X49385714Y-38366666D01*
X49504761Y-38128571D01*
X49623809Y-38009523D01*
X49861904Y-37890476D01*
X50338095Y-37771428D01*
X50576190Y-37652380D01*
X50695238Y-37533333D01*
X50814285Y-37295238D01*
X50814285Y-37057142D01*
X50695238Y-36819047D01*
X50576190Y-36700000D01*
X50338095Y-36580952D01*
X49742857Y-36580952D01*
X49385714Y-36700000D01*
X47242857Y-37414285D02*
X47242857Y-39080952D01*
X48314285Y-37414285D02*
X48314285Y-38723809D01*
X48195238Y-38961904D01*
X47957142Y-39080952D01*
X47600000Y-39080952D01*
X47361904Y-38961904D01*
X47242857Y-38842857D01*
X46052380Y-37414285D02*
X46052380Y-39914285D01*
X46052380Y-37533333D02*
X45814285Y-37414285D01*
X45338095Y-37414285D01*
X45100000Y-37533333D01*
X44980952Y-37652380D01*
X44861904Y-37890476D01*
X44861904Y-38604761D01*
X44980952Y-38842857D01*
X45100000Y-38961904D01*
X45338095Y-39080952D01*
X45814285Y-39080952D01*
X46052380Y-38961904D01*
X43790476Y-37414285D02*
X43790476Y-39914285D01*
X43790476Y-37533333D02*
X43552380Y-37414285D01*
X43076190Y-37414285D01*
X42838095Y-37533333D01*
X42719047Y-37652380D01*
X42600000Y-37890476D01*
X42600000Y-38604761D01*
X42719047Y-38842857D01*
X42838095Y-38961904D01*
X43076190Y-39080952D01*
X43552380Y-39080952D01*
X43790476Y-38961904D01*
X41171428Y-39080952D02*
X41409523Y-38961904D01*
X41528571Y-38723809D01*
X41528571Y-36580952D01*
X40457142Y-37414285D02*
X39861904Y-39080952D01*
X39266666Y-37414285D02*
X39861904Y-39080952D01*
X40100000Y-39676190D01*
X40219047Y-39795238D01*
X40457142Y-39914285D01*
D11*
G36*
X59498602Y-44928395D02*
G01*
X59010199Y-44996262D01*
X58548273Y-45108257D01*
X58115649Y-45263345D01*
X57715151Y-45460487D01*
X57349604Y-45698646D01*
X57021833Y-45976785D01*
X56978882Y-46019095D01*
X56768406Y-46251297D01*
X56603562Y-46482828D01*
X56475394Y-46727378D01*
X56412983Y-46884344D01*
X56384215Y-46969932D01*
X56363249Y-47049233D01*
X56348492Y-47134612D01*
X56338349Y-47238429D01*
X56331229Y-47373048D01*
X56325538Y-47550832D01*
X56325128Y-47566080D01*
X56321768Y-47787081D01*
X56326391Y-47961718D01*
X56341305Y-48099787D01*
X56368819Y-48211083D01*
X56411239Y-48305401D01*
X56470874Y-48392536D01*
X56537960Y-48469486D01*
X56568587Y-48503348D01*
X56595728Y-48533561D01*
X56622599Y-48560329D01*
X56652419Y-48583858D01*
X56688405Y-48604352D01*
X56733775Y-48622014D01*
X56791746Y-48637050D01*
X56865536Y-48649664D01*
X56958362Y-48660060D01*
X57073443Y-48668442D01*
X57213996Y-48675016D01*
X57383238Y-48679984D01*
X57584388Y-48683552D01*
X57820663Y-48685925D01*
X58095280Y-48687306D01*
X58411457Y-48687900D01*
X58772412Y-48687911D01*
X59181363Y-48687544D01*
X59641526Y-48687002D01*
X59956955Y-48686666D01*
X60365846Y-48686084D01*
X60759915Y-48685153D01*
X61135363Y-48683903D01*
X61488392Y-48682363D01*
X61815203Y-48680560D01*
X62111996Y-48678525D01*
X62374974Y-48676286D01*
X62600338Y-48673872D01*
X62784288Y-48671312D01*
X62923027Y-48668634D01*
X63012755Y-48665868D01*
X63049222Y-48663165D01*
X63227003Y-48593047D01*
X63373483Y-48476479D01*
X63489599Y-48312641D01*
X63519583Y-48252111D01*
X63547757Y-48181422D01*
X63567465Y-48105877D01*
X63580688Y-48012100D01*
X63589405Y-47886714D01*
X63594787Y-47744111D01*
X63595295Y-47598526D01*
X63338754Y-47598526D01*
X63333439Y-47790078D01*
X63314856Y-47964327D01*
X63283732Y-48106650D01*
X63259446Y-48170424D01*
X63229320Y-48230846D01*
X63199511Y-48279212D01*
X63163660Y-48316994D01*
X63115407Y-48345662D01*
X63048392Y-48366684D01*
X62956256Y-48381531D01*
X62832639Y-48391673D01*
X62671181Y-48398579D01*
X62465523Y-48403720D01*
X62230777Y-48408173D01*
X61122207Y-48423853D01*
X60041352Y-48429589D01*
X58960377Y-48425439D01*
X58196919Y-48416801D01*
X57889439Y-48412352D01*
X57633310Y-48408336D01*
X57423441Y-48404470D01*
X57254744Y-48400475D01*
X57122129Y-48396069D01*
X57020506Y-48390970D01*
X56944786Y-48384899D01*
X56889880Y-48377573D01*
X56850697Y-48368712D01*
X56822149Y-48358035D01*
X56799146Y-48345261D01*
X56789754Y-48339094D01*
X56711757Y-48277222D01*
X56655464Y-48206056D01*
X56617198Y-48115165D01*
X56593282Y-47994119D01*
X56580038Y-47832490D01*
X56576281Y-47733622D01*
X56575961Y-47487590D01*
X56592108Y-47280931D01*
X56626989Y-47098390D01*
X56682874Y-46924711D01*
X56704594Y-46870818D01*
X56854831Y-46584522D01*
X57052974Y-46320083D01*
X57294285Y-46078984D01*
X57574031Y-45862712D01*
X57887476Y-45672750D01*
X58229884Y-45510585D01*
X58596519Y-45377700D01*
X58982648Y-45275582D01*
X59383533Y-45205714D01*
X59794440Y-45169583D01*
X60210633Y-45168672D01*
X60627377Y-45204467D01*
X61039937Y-45278453D01*
X61432170Y-45388290D01*
X61801084Y-45533457D01*
X62138937Y-45710822D01*
X62442128Y-45916862D01*
X62707056Y-46148054D01*
X62930120Y-46400876D01*
X63107718Y-46671804D01*
X63236250Y-46957316D01*
X63306669Y-47222000D01*
X63330074Y-47404293D01*
X63338754Y-47598526D01*
X63595295Y-47598526D01*
X63595707Y-47480675D01*
X63579626Y-47256093D01*
X63544286Y-47054732D01*
X63487427Y-46860963D01*
X63454398Y-46772531D01*
X63300838Y-46460656D01*
X63095632Y-46169606D01*
X62840079Y-45900643D01*
X62535480Y-45655031D01*
X62183133Y-45434031D01*
X61955708Y-45316812D01*
X61568749Y-45154197D01*
X61171712Y-45033992D01*
X60755218Y-44954215D01*
X60309891Y-44912885D01*
X60010658Y-44905695D01*
X59498602Y-44928395D01*
G37*
X59498602Y-44928395D02*
X59010199Y-44996262D01*
X58548273Y-45108257D01*
X58115649Y-45263345D01*
X57715151Y-45460487D01*
X57349604Y-45698646D01*
X57021833Y-45976785D01*
X56978882Y-46019095D01*
X56768406Y-46251297D01*
X56603562Y-46482828D01*
X56475394Y-46727378D01*
X56412983Y-46884344D01*
X56384215Y-46969932D01*
X56363249Y-47049233D01*
X56348492Y-47134612D01*
X56338349Y-47238429D01*
X56331229Y-47373048D01*
X56325538Y-47550832D01*
X56325128Y-47566080D01*
X56321768Y-47787081D01*
X56326391Y-47961718D01*
X56341305Y-48099787D01*
X56368819Y-48211083D01*
X56411239Y-48305401D01*
X56470874Y-48392536D01*
X56537960Y-48469486D01*
X56568587Y-48503348D01*
X56595728Y-48533561D01*
X56622599Y-48560329D01*
X56652419Y-48583858D01*
X56688405Y-48604352D01*
X56733775Y-48622014D01*
X56791746Y-48637050D01*
X56865536Y-48649664D01*
X56958362Y-48660060D01*
X57073443Y-48668442D01*
X57213996Y-48675016D01*
X57383238Y-48679984D01*
X57584388Y-48683552D01*
X57820663Y-48685925D01*
X58095280Y-48687306D01*
X58411457Y-48687900D01*
X58772412Y-48687911D01*
X59181363Y-48687544D01*
X59641526Y-48687002D01*
X59956955Y-48686666D01*
X60365846Y-48686084D01*
X60759915Y-48685153D01*
X61135363Y-48683903D01*
X61488392Y-48682363D01*
X61815203Y-48680560D01*
X62111996Y-48678525D01*
X62374974Y-48676286D01*
X62600338Y-48673872D01*
X62784288Y-48671312D01*
X62923027Y-48668634D01*
X63012755Y-48665868D01*
X63049222Y-48663165D01*
X63227003Y-48593047D01*
X63373483Y-48476479D01*
X63489599Y-48312641D01*
X63519583Y-48252111D01*
X63547757Y-48181422D01*
X63567465Y-48105877D01*
X63580688Y-48012100D01*
X63589405Y-47886714D01*
X63594787Y-47744111D01*
X63595295Y-47598526D01*
X63338754Y-47598526D01*
X63333439Y-47790078D01*
X63314856Y-47964327D01*
X63283732Y-48106650D01*
X63259446Y-48170424D01*
X63229320Y-48230846D01*
X63199511Y-48279212D01*
X63163660Y-48316994D01*
X63115407Y-48345662D01*
X63048392Y-48366684D01*
X62956256Y-48381531D01*
X62832639Y-48391673D01*
X62671181Y-48398579D01*
X62465523Y-48403720D01*
X62230777Y-48408173D01*
X61122207Y-48423853D01*
X60041352Y-48429589D01*
X58960377Y-48425439D01*
X58196919Y-48416801D01*
X57889439Y-48412352D01*
X57633310Y-48408336D01*
X57423441Y-48404470D01*
X57254744Y-48400475D01*
X57122129Y-48396069D01*
X57020506Y-48390970D01*
X56944786Y-48384899D01*
X56889880Y-48377573D01*
X56850697Y-48368712D01*
X56822149Y-48358035D01*
X56799146Y-48345261D01*
X56789754Y-48339094D01*
X56711757Y-48277222D01*
X56655464Y-48206056D01*
X56617198Y-48115165D01*
X56593282Y-47994119D01*
X56580038Y-47832490D01*
X56576281Y-47733622D01*
X56575961Y-47487590D01*
X56592108Y-47280931D01*
X56626989Y-47098390D01*
X56682874Y-46924711D01*
X56704594Y-46870818D01*
X56854831Y-46584522D01*
X57052974Y-46320083D01*
X57294285Y-46078984D01*
X57574031Y-45862712D01*
X57887476Y-45672750D01*
X58229884Y-45510585D01*
X58596519Y-45377700D01*
X58982648Y-45275582D01*
X59383533Y-45205714D01*
X59794440Y-45169583D01*
X60210633Y-45168672D01*
X60627377Y-45204467D01*
X61039937Y-45278453D01*
X61432170Y-45388290D01*
X61801084Y-45533457D01*
X62138937Y-45710822D01*
X62442128Y-45916862D01*
X62707056Y-46148054D01*
X62930120Y-46400876D01*
X63107718Y-46671804D01*
X63236250Y-46957316D01*
X63306669Y-47222000D01*
X63330074Y-47404293D01*
X63338754Y-47598526D01*
X63595295Y-47598526D01*
X63595707Y-47480675D01*
X63579626Y-47256093D01*
X63544286Y-47054732D01*
X63487427Y-46860963D01*
X63454398Y-46772531D01*
X63300838Y-46460656D01*
X63095632Y-46169606D01*
X62840079Y-45900643D01*
X62535480Y-45655031D01*
X62183133Y-45434031D01*
X61955708Y-45316812D01*
X61568749Y-45154197D01*
X61171712Y-45033992D01*
X60755218Y-44954215D01*
X60309891Y-44912885D01*
X60010658Y-44905695D01*
X59498602Y-44928395D01*
G36*
X59220997Y-49402166D02*
G01*
X58906193Y-50030111D01*
X58826265Y-49861429D01*
X58776430Y-49753626D01*
X58729911Y-49648647D01*
X58726424Y-49640337D01*
X56964084Y-49640337D01*
X56944414Y-49681815D01*
X56915550Y-49707456D01*
X56841573Y-49743058D01*
X56778115Y-49723434D01*
X56739778Y-49674013D01*
X56727707Y-49601996D01*
X56759983Y-49540788D01*
X56825070Y-49509137D01*
X56841931Y-49508000D01*
X56909906Y-49531048D01*
X56945756Y-49581871D01*
X56964084Y-49640337D01*
X58726424Y-49640337D01*
X58703730Y-49586262D01*
X58661123Y-49479777D01*
X57219608Y-49479777D01*
X57133226Y-49381393D01*
X57049641Y-49308446D01*
X56956882Y-49259354D01*
X56942698Y-49254966D01*
X56805769Y-49242614D01*
X56684613Y-49276284D01*
X56584594Y-49346520D01*
X56511075Y-49443866D01*
X56469421Y-49558868D01*
X56464995Y-49682069D01*
X56503160Y-49804016D01*
X56575582Y-49902129D01*
X56689242Y-49979513D01*
X56818656Y-50010236D01*
X56950082Y-49995763D01*
X57069780Y-49937559D01*
X57162389Y-49839611D01*
X57230790Y-49733777D01*
X58477871Y-49733777D01*
X58623435Y-50065389D01*
X58768999Y-50397000D01*
X58891221Y-50405205D01*
X59013444Y-50413411D01*
X59316748Y-49805483D01*
X59402126Y-49636070D01*
X59479963Y-49484870D01*
X59546565Y-49358801D01*
X59598235Y-49264778D01*
X59631280Y-49209716D01*
X59641304Y-49198055D01*
X59657511Y-49223201D01*
X59691346Y-49293440D01*
X59739567Y-49401419D01*
X59798933Y-49539787D01*
X59866203Y-49701191D01*
X59905664Y-49797778D01*
X60148773Y-50397000D01*
X60260882Y-50405452D01*
X60347824Y-50402006D01*
X60399504Y-50379197D01*
X60401140Y-50377230D01*
X60421430Y-50342338D01*
X60462935Y-50264549D01*
X60521707Y-50151496D01*
X60593797Y-50010806D01*
X60675257Y-49850110D01*
X60722704Y-49755804D01*
X60806375Y-49591231D01*
X60882157Y-49446306D01*
X60946355Y-49327762D01*
X60995272Y-49242334D01*
X61025212Y-49196753D01*
X61032551Y-49191360D01*
X61050346Y-49224639D01*
X61084589Y-49297268D01*
X61129466Y-49396727D01*
X61156695Y-49458611D01*
X61264407Y-49705555D01*
X61945148Y-49706626D01*
X62625888Y-49707697D01*
X62702133Y-49817973D01*
X62799724Y-49917965D01*
X62913823Y-49971629D01*
X63034224Y-49982355D01*
X63150717Y-49953536D01*
X63253094Y-49888563D01*
X63331146Y-49790827D01*
X63374665Y-49663721D01*
X63378291Y-49617913D01*
X63111672Y-49617913D01*
X63082957Y-49674906D01*
X63022566Y-49704559D01*
X63006888Y-49705555D01*
X62947238Y-49685201D01*
X62923347Y-49664578D01*
X62898676Y-49601623D01*
X62914034Y-49540195D01*
X62957402Y-49495437D01*
X63016763Y-49482494D01*
X63056277Y-49497058D01*
X63104263Y-49552368D01*
X63111672Y-49617913D01*
X63378291Y-49617913D01*
X63380290Y-49592666D01*
X63356932Y-49452897D01*
X63293713Y-49340492D01*
X63200911Y-49259104D01*
X63088808Y-49212387D01*
X62967683Y-49203995D01*
X62847817Y-49237582D01*
X62739490Y-49316803D01*
X62707947Y-49353688D01*
X62633300Y-49451555D01*
X62045649Y-49451555D01*
X61833655Y-49450622D01*
X61672764Y-49447618D01*
X61557662Y-49442236D01*
X61483036Y-49434168D01*
X61443571Y-49423108D01*
X61435310Y-49416277D01*
X61415346Y-49377366D01*
X61378427Y-49298608D01*
X61330053Y-49191939D01*
X61282467Y-49084666D01*
X61152311Y-48788333D01*
X60904333Y-48788333D01*
X60608000Y-49372888D01*
X60522911Y-49539198D01*
X60445393Y-49687802D01*
X60379299Y-49811545D01*
X60328484Y-49903273D01*
X60296801Y-49955832D01*
X60288695Y-49965555D01*
X60273368Y-49942789D01*
X60240572Y-49876707D01*
X60194155Y-49776258D01*
X60137961Y-49650391D01*
X60075838Y-49508055D01*
X60011633Y-49358199D01*
X59949192Y-49209772D01*
X59892361Y-49071723D01*
X59844987Y-48953001D01*
X59810916Y-48862554D01*
X59797860Y-48823611D01*
X59771680Y-48790446D01*
X59710785Y-48775961D01*
X59659386Y-48774222D01*
X59535801Y-48774222D01*
X59220997Y-49402166D01*
G37*
X59220997Y-49402166D02*
X58906193Y-50030111D01*
X58826265Y-49861429D01*
X58776430Y-49753626D01*
X58729911Y-49648647D01*
X58726424Y-49640337D01*
X56964084Y-49640337D01*
X56944414Y-49681815D01*
X56915550Y-49707456D01*
X56841573Y-49743058D01*
X56778115Y-49723434D01*
X56739778Y-49674013D01*
X56727707Y-49601996D01*
X56759983Y-49540788D01*
X56825070Y-49509137D01*
X56841931Y-49508000D01*
X56909906Y-49531048D01*
X56945756Y-49581871D01*
X56964084Y-49640337D01*
X58726424Y-49640337D01*
X58703730Y-49586262D01*
X58661123Y-49479777D01*
X57219608Y-49479777D01*
X57133226Y-49381393D01*
X57049641Y-49308446D01*
X56956882Y-49259354D01*
X56942698Y-49254966D01*
X56805769Y-49242614D01*
X56684613Y-49276284D01*
X56584594Y-49346520D01*
X56511075Y-49443866D01*
X56469421Y-49558868D01*
X56464995Y-49682069D01*
X56503160Y-49804016D01*
X56575582Y-49902129D01*
X56689242Y-49979513D01*
X56818656Y-50010236D01*
X56950082Y-49995763D01*
X57069780Y-49937559D01*
X57162389Y-49839611D01*
X57230790Y-49733777D01*
X58477871Y-49733777D01*
X58623435Y-50065389D01*
X58768999Y-50397000D01*
X58891221Y-50405205D01*
X59013444Y-50413411D01*
X59316748Y-49805483D01*
X59402126Y-49636070D01*
X59479963Y-49484870D01*
X59546565Y-49358801D01*
X59598235Y-49264778D01*
X59631280Y-49209716D01*
X59641304Y-49198055D01*
X59657511Y-49223201D01*
X59691346Y-49293440D01*
X59739567Y-49401419D01*
X59798933Y-49539787D01*
X59866203Y-49701191D01*
X59905664Y-49797778D01*
X60148773Y-50397000D01*
X60260882Y-50405452D01*
X60347824Y-50402006D01*
X60399504Y-50379197D01*
X60401140Y-50377230D01*
X60421430Y-50342338D01*
X60462935Y-50264549D01*
X60521707Y-50151496D01*
X60593797Y-50010806D01*
X60675257Y-49850110D01*
X60722704Y-49755804D01*
X60806375Y-49591231D01*
X60882157Y-49446306D01*
X60946355Y-49327762D01*
X60995272Y-49242334D01*
X61025212Y-49196753D01*
X61032551Y-49191360D01*
X61050346Y-49224639D01*
X61084589Y-49297268D01*
X61129466Y-49396727D01*
X61156695Y-49458611D01*
X61264407Y-49705555D01*
X61945148Y-49706626D01*
X62625888Y-49707697D01*
X62702133Y-49817973D01*
X62799724Y-49917965D01*
X62913823Y-49971629D01*
X63034224Y-49982355D01*
X63150717Y-49953536D01*
X63253094Y-49888563D01*
X63331146Y-49790827D01*
X63374665Y-49663721D01*
X63378291Y-49617913D01*
X63111672Y-49617913D01*
X63082957Y-49674906D01*
X63022566Y-49704559D01*
X63006888Y-49705555D01*
X62947238Y-49685201D01*
X62923347Y-49664578D01*
X62898676Y-49601623D01*
X62914034Y-49540195D01*
X62957402Y-49495437D01*
X63016763Y-49482494D01*
X63056277Y-49497058D01*
X63104263Y-49552368D01*
X63111672Y-49617913D01*
X63378291Y-49617913D01*
X63380290Y-49592666D01*
X63356932Y-49452897D01*
X63293713Y-49340492D01*
X63200911Y-49259104D01*
X63088808Y-49212387D01*
X62967683Y-49203995D01*
X62847817Y-49237582D01*
X62739490Y-49316803D01*
X62707947Y-49353688D01*
X62633300Y-49451555D01*
X62045649Y-49451555D01*
X61833655Y-49450622D01*
X61672764Y-49447618D01*
X61557662Y-49442236D01*
X61483036Y-49434168D01*
X61443571Y-49423108D01*
X61435310Y-49416277D01*
X61415346Y-49377366D01*
X61378427Y-49298608D01*
X61330053Y-49191939D01*
X61282467Y-49084666D01*
X61152311Y-48788333D01*
X60904333Y-48788333D01*
X60608000Y-49372888D01*
X60522911Y-49539198D01*
X60445393Y-49687802D01*
X60379299Y-49811545D01*
X60328484Y-49903273D01*
X60296801Y-49955832D01*
X60288695Y-49965555D01*
X60273368Y-49942789D01*
X60240572Y-49876707D01*
X60194155Y-49776258D01*
X60137961Y-49650391D01*
X60075838Y-49508055D01*
X60011633Y-49358199D01*
X59949192Y-49209772D01*
X59892361Y-49071723D01*
X59844987Y-48953001D01*
X59810916Y-48862554D01*
X59797860Y-48823611D01*
X59771680Y-48790446D01*
X59710785Y-48775961D01*
X59659386Y-48774222D01*
X59535801Y-48774222D01*
X59220997Y-49402166D01*
G36*
X59444549Y-50495867D02*
G01*
X58997225Y-50496022D01*
X58600144Y-50496330D01*
X58250207Y-50496837D01*
X57944312Y-50497590D01*
X57679361Y-50498632D01*
X57452251Y-50500009D01*
X57259884Y-50501768D01*
X57099159Y-50503952D01*
X56966974Y-50506609D01*
X56860231Y-50509783D01*
X56775828Y-50513519D01*
X56710666Y-50517863D01*
X56661643Y-50522861D01*
X56625660Y-50528557D01*
X56599616Y-50534998D01*
X56580412Y-50542229D01*
X56574228Y-50545210D01*
X56477441Y-50607216D01*
X56412520Y-50684276D01*
X56373357Y-50788494D01*
X56353842Y-50931977D01*
X56350751Y-50988115D01*
X56355557Y-51238621D01*
X56393673Y-51448764D01*
X56466401Y-51624675D01*
X56496553Y-51673774D01*
X56605973Y-51800886D01*
X56748155Y-51914763D01*
X56901168Y-51999039D01*
X56962329Y-52021352D01*
X57004890Y-52027226D01*
X57092996Y-52032691D01*
X57227773Y-52037764D01*
X57410346Y-52042460D01*
X57641838Y-52046797D01*
X57923375Y-52050792D01*
X58256082Y-52054461D01*
X58641082Y-52057820D01*
X59079502Y-52060886D01*
X59572465Y-52063676D01*
X59944777Y-52065448D01*
X60411593Y-52067490D01*
X60825364Y-52069197D01*
X61189488Y-52070520D01*
X61507364Y-52071416D01*
X61782390Y-52071836D01*
X62017965Y-52071736D01*
X62217487Y-52071069D01*
X62384355Y-52069789D01*
X62521967Y-52067849D01*
X62633721Y-52065204D01*
X62723017Y-52061807D01*
X62793252Y-52057613D01*
X62847826Y-52052575D01*
X62890136Y-52046646D01*
X62923581Y-52039782D01*
X62951559Y-52031935D01*
X62974005Y-52024306D01*
X63134842Y-51939929D01*
X63280640Y-51813289D01*
X63396536Y-51658569D01*
X63434285Y-51585122D01*
X63464839Y-51504639D01*
X63485503Y-51416845D01*
X63498667Y-51306567D01*
X63506725Y-51158632D01*
X63508139Y-51116666D01*
X63508280Y-51090343D01*
X63232666Y-51090343D01*
X63224698Y-51289748D01*
X63198061Y-51444574D01*
X63148657Y-51564776D01*
X63072388Y-51660307D01*
X62965155Y-51741120D01*
X62964555Y-51741490D01*
X62948904Y-51749991D01*
X62928897Y-51757519D01*
X62901208Y-51764132D01*
X62862510Y-51769890D01*
X62809477Y-51774852D01*
X62738783Y-51779077D01*
X62647101Y-51782623D01*
X62531106Y-51785549D01*
X62387470Y-51787915D01*
X62212869Y-51789779D01*
X62003975Y-51791201D01*
X61757463Y-51792238D01*
X61470006Y-51792951D01*
X61138277Y-51793398D01*
X60758951Y-51793637D01*
X60328702Y-51793729D01*
X60015333Y-51793737D01*
X59471257Y-51793442D01*
X58983210Y-51792574D01*
X58550778Y-51791130D01*
X58173547Y-51789105D01*
X57851105Y-51786496D01*
X57583039Y-51783297D01*
X57368935Y-51779506D01*
X57208380Y-51775117D01*
X57100960Y-51770126D01*
X57046263Y-51764530D01*
X57042947Y-51763742D01*
X56935278Y-51713914D01*
X56823564Y-51630821D01*
X56727234Y-51531434D01*
X56666685Y-51435073D01*
X56647086Y-51356063D01*
X56633917Y-51235199D01*
X56628695Y-51086856D01*
X56628666Y-51074541D01*
X56629321Y-50949480D01*
X56633176Y-50869214D01*
X56643070Y-50822091D01*
X56661839Y-50796462D01*
X56692321Y-50780677D01*
X56701059Y-50777301D01*
X56740388Y-50772934D01*
X56831515Y-50768934D01*
X56970062Y-50765301D01*
X57151655Y-50762033D01*
X57371915Y-50759129D01*
X57626465Y-50756588D01*
X57910930Y-50754409D01*
X58220932Y-50752591D01*
X58552095Y-50751132D01*
X58900041Y-50750031D01*
X59260394Y-50749288D01*
X59628778Y-50748901D01*
X60000814Y-50748869D01*
X60372128Y-50749190D01*
X60738341Y-50749865D01*
X61095077Y-50750890D01*
X61437959Y-50752267D01*
X61762611Y-50753992D01*
X62064655Y-50756066D01*
X62339715Y-50758486D01*
X62583414Y-50761253D01*
X62791376Y-50764364D01*
X62959223Y-50767818D01*
X63082579Y-50771615D01*
X63157067Y-50775753D01*
X63178077Y-50778993D01*
X63203244Y-50798382D01*
X63219303Y-50831557D01*
X63228235Y-50889803D01*
X63232018Y-50984406D01*
X63232666Y-51090343D01*
X63508280Y-51090343D01*
X63509120Y-50934395D01*
X63496939Y-50797960D01*
X63468300Y-50697622D01*
X63419911Y-50623643D01*
X63348478Y-50566284D01*
X63315593Y-50547347D01*
X63298911Y-50539474D01*
X63277782Y-50532445D01*
X63249096Y-50526211D01*
X63209745Y-50520725D01*
X63156620Y-50515939D01*
X63086611Y-50511805D01*
X62996610Y-50508278D01*
X62883509Y-50505307D01*
X62744197Y-50502847D01*
X62575566Y-50500850D01*
X62374507Y-50499268D01*
X62137911Y-50498054D01*
X61862669Y-50497159D01*
X61545672Y-50496537D01*
X61183812Y-50496140D01*
X60773979Y-50495921D01*
X60313064Y-50495832D01*
X59945218Y-50495821D01*
X59444549Y-50495867D01*
G37*
X59444549Y-50495867D02*
X58997225Y-50496022D01*
X58600144Y-50496330D01*
X58250207Y-50496837D01*
X57944312Y-50497590D01*
X57679361Y-50498632D01*
X57452251Y-50500009D01*
X57259884Y-50501768D01*
X57099159Y-50503952D01*
X56966974Y-50506609D01*
X56860231Y-50509783D01*
X56775828Y-50513519D01*
X56710666Y-50517863D01*
X56661643Y-50522861D01*
X56625660Y-50528557D01*
X56599616Y-50534998D01*
X56580412Y-50542229D01*
X56574228Y-50545210D01*
X56477441Y-50607216D01*
X56412520Y-50684276D01*
X56373357Y-50788494D01*
X56353842Y-50931977D01*
X56350751Y-50988115D01*
X56355557Y-51238621D01*
X56393673Y-51448764D01*
X56466401Y-51624675D01*
X56496553Y-51673774D01*
X56605973Y-51800886D01*
X56748155Y-51914763D01*
X56901168Y-51999039D01*
X56962329Y-52021352D01*
X57004890Y-52027226D01*
X57092996Y-52032691D01*
X57227773Y-52037764D01*
X57410346Y-52042460D01*
X57641838Y-52046797D01*
X57923375Y-52050792D01*
X58256082Y-52054461D01*
X58641082Y-52057820D01*
X59079502Y-52060886D01*
X59572465Y-52063676D01*
X59944777Y-52065448D01*
X60411593Y-52067490D01*
X60825364Y-52069197D01*
X61189488Y-52070520D01*
X61507364Y-52071416D01*
X61782390Y-52071836D01*
X62017965Y-52071736D01*
X62217487Y-52071069D01*
X62384355Y-52069789D01*
X62521967Y-52067849D01*
X62633721Y-52065204D01*
X62723017Y-52061807D01*
X62793252Y-52057613D01*
X62847826Y-52052575D01*
X62890136Y-52046646D01*
X62923581Y-52039782D01*
X62951559Y-52031935D01*
X62974005Y-52024306D01*
X63134842Y-51939929D01*
X63280640Y-51813289D01*
X63396536Y-51658569D01*
X63434285Y-51585122D01*
X63464839Y-51504639D01*
X63485503Y-51416845D01*
X63498667Y-51306567D01*
X63506725Y-51158632D01*
X63508139Y-51116666D01*
X63508280Y-51090343D01*
X63232666Y-51090343D01*
X63224698Y-51289748D01*
X63198061Y-51444574D01*
X63148657Y-51564776D01*
X63072388Y-51660307D01*
X62965155Y-51741120D01*
X62964555Y-51741490D01*
X62948904Y-51749991D01*
X62928897Y-51757519D01*
X62901208Y-51764132D01*
X62862510Y-51769890D01*
X62809477Y-51774852D01*
X62738783Y-51779077D01*
X62647101Y-51782623D01*
X62531106Y-51785549D01*
X62387470Y-51787915D01*
X62212869Y-51789779D01*
X62003975Y-51791201D01*
X61757463Y-51792238D01*
X61470006Y-51792951D01*
X61138277Y-51793398D01*
X60758951Y-51793637D01*
X60328702Y-51793729D01*
X60015333Y-51793737D01*
X59471257Y-51793442D01*
X58983210Y-51792574D01*
X58550778Y-51791130D01*
X58173547Y-51789105D01*
X57851105Y-51786496D01*
X57583039Y-51783297D01*
X57368935Y-51779506D01*
X57208380Y-51775117D01*
X57100960Y-51770126D01*
X57046263Y-51764530D01*
X57042947Y-51763742D01*
X56935278Y-51713914D01*
X56823564Y-51630821D01*
X56727234Y-51531434D01*
X56666685Y-51435073D01*
X56647086Y-51356063D01*
X56633917Y-51235199D01*
X56628695Y-51086856D01*
X56628666Y-51074541D01*
X56629321Y-50949480D01*
X56633176Y-50869214D01*
X56643070Y-50822091D01*
X56661839Y-50796462D01*
X56692321Y-50780677D01*
X56701059Y-50777301D01*
X56740388Y-50772934D01*
X56831515Y-50768934D01*
X56970062Y-50765301D01*
X57151655Y-50762033D01*
X57371915Y-50759129D01*
X57626465Y-50756588D01*
X57910930Y-50754409D01*
X58220932Y-50752591D01*
X58552095Y-50751132D01*
X58900041Y-50750031D01*
X59260394Y-50749288D01*
X59628778Y-50748901D01*
X60000814Y-50748869D01*
X60372128Y-50749190D01*
X60738341Y-50749865D01*
X61095077Y-50750890D01*
X61437959Y-50752267D01*
X61762611Y-50753992D01*
X62064655Y-50756066D01*
X62339715Y-50758486D01*
X62583414Y-50761253D01*
X62791376Y-50764364D01*
X62959223Y-50767818D01*
X63082579Y-50771615D01*
X63157067Y-50775753D01*
X63178077Y-50778993D01*
X63203244Y-50798382D01*
X63219303Y-50831557D01*
X63228235Y-50889803D01*
X63232018Y-50984406D01*
X63232666Y-51090343D01*
X63508280Y-51090343D01*
X63509120Y-50934395D01*
X63496939Y-50797960D01*
X63468300Y-50697622D01*
X63419911Y-50623643D01*
X63348478Y-50566284D01*
X63315593Y-50547347D01*
X63298911Y-50539474D01*
X63277782Y-50532445D01*
X63249096Y-50526211D01*
X63209745Y-50520725D01*
X63156620Y-50515939D01*
X63086611Y-50511805D01*
X62996610Y-50508278D01*
X62883509Y-50505307D01*
X62744197Y-50502847D01*
X62575566Y-50500850D01*
X62374507Y-50499268D01*
X62137911Y-50498054D01*
X61862669Y-50497159D01*
X61545672Y-50496537D01*
X61183812Y-50496140D01*
X60773979Y-50495921D01*
X60313064Y-50495832D01*
X59945218Y-50495821D01*
X59444549Y-50495867D01*
G36*
X59187126Y-41083180D02*
G01*
X58978166Y-41140933D01*
X58745333Y-41218145D01*
X58745333Y-41524850D01*
X58746612Y-41648786D01*
X58750080Y-41748719D01*
X58755177Y-41813189D01*
X58760249Y-41831555D01*
X58791261Y-41819772D01*
X58857612Y-41788995D01*
X58938113Y-41749299D01*
X59183382Y-41645079D01*
X59406962Y-41590709D01*
X59592450Y-41585111D01*
X59785899Y-41627428D01*
X59946952Y-41714616D01*
X60073413Y-41843857D01*
X60163085Y-42012338D01*
X60213774Y-42217242D01*
X60224871Y-42396000D01*
X60200856Y-42608870D01*
X60132123Y-42788935D01*
X60019371Y-42934664D01*
X59953929Y-42989014D01*
X59790243Y-43079357D01*
X59608327Y-43124690D01*
X59404739Y-43124879D01*
X59176038Y-43079789D01*
X58918783Y-42989285D01*
X58815888Y-42944360D01*
X58803034Y-42964796D01*
X58795940Y-43038469D01*
X58794802Y-43162443D01*
X58796410Y-43238306D01*
X58805153Y-43545146D01*
X59022188Y-43593090D01*
X59207801Y-43626101D01*
X59401600Y-43646858D01*
X59586196Y-43654405D01*
X59744199Y-43647785D01*
X59817777Y-43636874D01*
X60042426Y-43562642D01*
X60255525Y-43441287D01*
X60446605Y-43281893D01*
X60605195Y-43093542D01*
X60720823Y-42885316D01*
X60739625Y-42837275D01*
X60805576Y-42575973D01*
X60819038Y-42311077D01*
X60781792Y-42050781D01*
X60695620Y-41803280D01*
X60562305Y-41576770D01*
X60432681Y-41425819D01*
X60221095Y-41251136D01*
X59990275Y-41129439D01*
X59740691Y-41060818D01*
X59472818Y-41045368D01*
X59187126Y-41083180D01*
G37*
X59187126Y-41083180D02*
X58978166Y-41140933D01*
X58745333Y-41218145D01*
X58745333Y-41524850D01*
X58746612Y-41648786D01*
X58750080Y-41748719D01*
X58755177Y-41813189D01*
X58760249Y-41831555D01*
X58791261Y-41819772D01*
X58857612Y-41788995D01*
X58938113Y-41749299D01*
X59183382Y-41645079D01*
X59406962Y-41590709D01*
X59592450Y-41585111D01*
X59785899Y-41627428D01*
X59946952Y-41714616D01*
X60073413Y-41843857D01*
X60163085Y-42012338D01*
X60213774Y-42217242D01*
X60224871Y-42396000D01*
X60200856Y-42608870D01*
X60132123Y-42788935D01*
X60019371Y-42934664D01*
X59953929Y-42989014D01*
X59790243Y-43079357D01*
X59608327Y-43124690D01*
X59404739Y-43124879D01*
X59176038Y-43079789D01*
X58918783Y-42989285D01*
X58815888Y-42944360D01*
X58803034Y-42964796D01*
X58795940Y-43038469D01*
X58794802Y-43162443D01*
X58796410Y-43238306D01*
X58805153Y-43545146D01*
X59022188Y-43593090D01*
X59207801Y-43626101D01*
X59401600Y-43646858D01*
X59586196Y-43654405D01*
X59744199Y-43647785D01*
X59817777Y-43636874D01*
X60042426Y-43562642D01*
X60255525Y-43441287D01*
X60446605Y-43281893D01*
X60605195Y-43093542D01*
X60720823Y-42885316D01*
X60739625Y-42837275D01*
X60805576Y-42575973D01*
X60819038Y-42311077D01*
X60781792Y-42050781D01*
X60695620Y-41803280D01*
X60562305Y-41576770D01*
X60432681Y-41425819D01*
X60221095Y-41251136D01*
X59990275Y-41129439D01*
X59740691Y-41060818D01*
X59472818Y-41045368D01*
X59187126Y-41083180D01*
G36*
X62559698Y-41644937D02*
G01*
X62473076Y-41669279D01*
X62419838Y-41690719D01*
X62256271Y-41789811D01*
X62127240Y-41925800D01*
X62035440Y-42088981D01*
X61983562Y-42269649D01*
X61974300Y-42458096D01*
X62010346Y-42644618D01*
X62094392Y-42819509D01*
X62103093Y-42832450D01*
X62181758Y-42946784D01*
X61632963Y-43282010D01*
X61477377Y-43378461D01*
X61340911Y-43465783D01*
X61230005Y-43539625D01*
X61151101Y-43595638D01*
X61110639Y-43629474D01*
X61107140Y-43637086D01*
X61145299Y-43658593D01*
X61220755Y-43693733D01*
X61319018Y-43736490D01*
X61425596Y-43780848D01*
X61525998Y-43820793D01*
X61605735Y-43850308D01*
X61650313Y-43863377D01*
X61652683Y-43863555D01*
X61685628Y-43849304D01*
X61758796Y-43809490D01*
X61864578Y-43748520D01*
X61995369Y-43670802D01*
X62143560Y-43580746D01*
X62188444Y-43553111D01*
X62368931Y-43442284D01*
X62507214Y-43359162D01*
X62608640Y-43301044D01*
X62678559Y-43265231D01*
X62722320Y-43249020D01*
X62745273Y-43249711D01*
X62752767Y-43264603D01*
X62752888Y-43268118D01*
X62741605Y-43301054D01*
X62710367Y-43376126D01*
X62663094Y-43484322D01*
X62603706Y-43616632D01*
X62554427Y-43724412D01*
X62490066Y-43867986D01*
X62437061Y-43993722D01*
X62398862Y-44092799D01*
X62378917Y-44156396D01*
X62378038Y-44175530D01*
X62412465Y-44195109D01*
X62485805Y-44230268D01*
X62584897Y-44274807D01*
X62633385Y-44295829D01*
X62866660Y-44395853D01*
X62905163Y-44306093D01*
X62925079Y-44261407D01*
X62965825Y-44171391D01*
X63024679Y-44042014D01*
X63098920Y-43879241D01*
X63185823Y-43689039D01*
X63282667Y-43477375D01*
X63386729Y-43250215D01*
X63429008Y-43158000D01*
X63533634Y-42929548D01*
X63630751Y-42716901D01*
X63717866Y-42525563D01*
X63792486Y-42361036D01*
X63834474Y-42267941D01*
X63204444Y-42267941D01*
X63192790Y-42312635D01*
X63161936Y-42390383D01*
X63118043Y-42488591D01*
X63067271Y-42594666D01*
X63015781Y-42696016D01*
X62969735Y-42780048D01*
X62935292Y-42834168D01*
X62920882Y-42847555D01*
X62879339Y-42835578D01*
X62810322Y-42805579D01*
X62783537Y-42792348D01*
X62649993Y-42702121D01*
X62565212Y-42595246D01*
X62531505Y-42476907D01*
X62551183Y-42352292D01*
X62569283Y-42311645D01*
X62647542Y-42209257D01*
X62754424Y-42154161D01*
X62857375Y-42142000D01*
X62953124Y-42151218D01*
X63051216Y-42175061D01*
X63135891Y-42207811D01*
X63191390Y-42243749D01*
X63204444Y-42267941D01*
X63834474Y-42267941D01*
X63852118Y-42228824D01*
X63894266Y-42134433D01*
X63916439Y-42083364D01*
X63919231Y-42076004D01*
X63896164Y-42057887D01*
X63829116Y-42022042D01*
X63726225Y-41972407D01*
X63595629Y-41912920D01*
X63458444Y-41853061D01*
X63282823Y-41778922D01*
X63147498Y-41724905D01*
X63041473Y-41687567D01*
X62953754Y-41663465D01*
X62873347Y-41649157D01*
X62789256Y-41641201D01*
X62779877Y-41640601D01*
X62653957Y-41636492D01*
X62559698Y-41644937D01*
G37*
X62559698Y-41644937D02*
X62473076Y-41669279D01*
X62419838Y-41690719D01*
X62256271Y-41789811D01*
X62127240Y-41925800D01*
X62035440Y-42088981D01*
X61983562Y-42269649D01*
X61974300Y-42458096D01*
X62010346Y-42644618D01*
X62094392Y-42819509D01*
X62103093Y-42832450D01*
X62181758Y-42946784D01*
X61632963Y-43282010D01*
X61477377Y-43378461D01*
X61340911Y-43465783D01*
X61230005Y-43539625D01*
X61151101Y-43595638D01*
X61110639Y-43629474D01*
X61107140Y-43637086D01*
X61145299Y-43658593D01*
X61220755Y-43693733D01*
X61319018Y-43736490D01*
X61425596Y-43780848D01*
X61525998Y-43820793D01*
X61605735Y-43850308D01*
X61650313Y-43863377D01*
X61652683Y-43863555D01*
X61685628Y-43849304D01*
X61758796Y-43809490D01*
X61864578Y-43748520D01*
X61995369Y-43670802D01*
X62143560Y-43580746D01*
X62188444Y-43553111D01*
X62368931Y-43442284D01*
X62507214Y-43359162D01*
X62608640Y-43301044D01*
X62678559Y-43265231D01*
X62722320Y-43249020D01*
X62745273Y-43249711D01*
X62752767Y-43264603D01*
X62752888Y-43268118D01*
X62741605Y-43301054D01*
X62710367Y-43376126D01*
X62663094Y-43484322D01*
X62603706Y-43616632D01*
X62554427Y-43724412D01*
X62490066Y-43867986D01*
X62437061Y-43993722D01*
X62398862Y-44092799D01*
X62378917Y-44156396D01*
X62378038Y-44175530D01*
X62412465Y-44195109D01*
X62485805Y-44230268D01*
X62584897Y-44274807D01*
X62633385Y-44295829D01*
X62866660Y-44395853D01*
X62905163Y-44306093D01*
X62925079Y-44261407D01*
X62965825Y-44171391D01*
X63024679Y-44042014D01*
X63098920Y-43879241D01*
X63185823Y-43689039D01*
X63282667Y-43477375D01*
X63386729Y-43250215D01*
X63429008Y-43158000D01*
X63533634Y-42929548D01*
X63630751Y-42716901D01*
X63717866Y-42525563D01*
X63792486Y-42361036D01*
X63834474Y-42267941D01*
X63204444Y-42267941D01*
X63192790Y-42312635D01*
X63161936Y-42390383D01*
X63118043Y-42488591D01*
X63067271Y-42594666D01*
X63015781Y-42696016D01*
X62969735Y-42780048D01*
X62935292Y-42834168D01*
X62920882Y-42847555D01*
X62879339Y-42835578D01*
X62810322Y-42805579D01*
X62783537Y-42792348D01*
X62649993Y-42702121D01*
X62565212Y-42595246D01*
X62531505Y-42476907D01*
X62551183Y-42352292D01*
X62569283Y-42311645D01*
X62647542Y-42209257D01*
X62754424Y-42154161D01*
X62857375Y-42142000D01*
X62953124Y-42151218D01*
X63051216Y-42175061D01*
X63135891Y-42207811D01*
X63191390Y-42243749D01*
X63204444Y-42267941D01*
X63834474Y-42267941D01*
X63852118Y-42228824D01*
X63894266Y-42134433D01*
X63916439Y-42083364D01*
X63919231Y-42076004D01*
X63896164Y-42057887D01*
X63829116Y-42022042D01*
X63726225Y-41972407D01*
X63595629Y-41912920D01*
X63458444Y-41853061D01*
X63282823Y-41778922D01*
X63147498Y-41724905D01*
X63041473Y-41687567D01*
X62953754Y-41663465D01*
X62873347Y-41649157D01*
X62789256Y-41641201D01*
X62779877Y-41640601D01*
X62653957Y-41636492D01*
X62559698Y-41644937D01*
G36*
X56859055Y-41635023D02*
G01*
X56758664Y-41690003D01*
X56677305Y-41736517D01*
X56627962Y-41767065D01*
X56620307Y-41772926D01*
X56627927Y-41802050D01*
X56660393Y-41873874D01*
X56714472Y-41982134D01*
X56786928Y-42120565D01*
X56874528Y-42282904D01*
X56974036Y-42462887D01*
X57006124Y-42520092D01*
X57111189Y-42709239D01*
X57207466Y-42887280D01*
X57291244Y-43046980D01*
X57358815Y-43181103D01*
X57406468Y-43282413D01*
X57430494Y-43343676D01*
X57432264Y-43351199D01*
X57429854Y-43494638D01*
X57375390Y-43625113D01*
X57272899Y-43736057D01*
X57150777Y-43810214D01*
X56994697Y-43856876D01*
X56848556Y-43848049D01*
X56736642Y-43799911D01*
X56692805Y-43771806D01*
X56653893Y-43741728D01*
X56615787Y-43703650D01*
X56574372Y-43651544D01*
X56525531Y-43579383D01*
X56465147Y-43481140D01*
X56389104Y-43350788D01*
X56293284Y-43182299D01*
X56192191Y-43002777D01*
X56095718Y-42831381D01*
X56005564Y-42671668D01*
X55926354Y-42531796D01*
X55862714Y-42419920D01*
X55819266Y-42344197D01*
X55804760Y-42319420D01*
X55750448Y-42228729D01*
X55512224Y-42346876D01*
X55409209Y-42399458D01*
X55328613Y-42443434D01*
X55281557Y-42472587D01*
X55274000Y-42480096D01*
X55287784Y-42513675D01*
X55326381Y-42588566D01*
X55385657Y-42697624D01*
X55461480Y-42833703D01*
X55549715Y-42989658D01*
X55646229Y-43158343D01*
X55746889Y-43332615D01*
X55847561Y-43505326D01*
X55944113Y-43669333D01*
X56032410Y-43817489D01*
X56108319Y-43942650D01*
X56167707Y-44037670D01*
X56206441Y-44095403D01*
X56214046Y-44105125D01*
X56366347Y-44240794D01*
X56552059Y-44340735D01*
X56757587Y-44400467D01*
X56969339Y-44415511D01*
X57105387Y-44398889D01*
X57294127Y-44340280D01*
X57482906Y-44247219D01*
X57658409Y-44128973D01*
X57807327Y-43994810D01*
X57916346Y-43853996D01*
X57934236Y-43821917D01*
X57980100Y-43687037D01*
X58004896Y-43502931D01*
X58005773Y-43489138D01*
X58007534Y-43343928D01*
X57990575Y-43216206D01*
X57950136Y-43088866D01*
X57881456Y-42944802D01*
X57827218Y-42847555D01*
X57787391Y-42778013D01*
X57725144Y-42668628D01*
X57645768Y-42528733D01*
X57554556Y-42367659D01*
X57456800Y-42194737D01*
X57406466Y-42105589D01*
X57075333Y-41518845D01*
X56859055Y-41635023D01*
G37*
X56859055Y-41635023D02*
X56758664Y-41690003D01*
X56677305Y-41736517D01*
X56627962Y-41767065D01*
X56620307Y-41772926D01*
X56627927Y-41802050D01*
X56660393Y-41873874D01*
X56714472Y-41982134D01*
X56786928Y-42120565D01*
X56874528Y-42282904D01*
X56974036Y-42462887D01*
X57006124Y-42520092D01*
X57111189Y-42709239D01*
X57207466Y-42887280D01*
X57291244Y-43046980D01*
X57358815Y-43181103D01*
X57406468Y-43282413D01*
X57430494Y-43343676D01*
X57432264Y-43351199D01*
X57429854Y-43494638D01*
X57375390Y-43625113D01*
X57272899Y-43736057D01*
X57150777Y-43810214D01*
X56994697Y-43856876D01*
X56848556Y-43848049D01*
X56736642Y-43799911D01*
X56692805Y-43771806D01*
X56653893Y-43741728D01*
X56615787Y-43703650D01*
X56574372Y-43651544D01*
X56525531Y-43579383D01*
X56465147Y-43481140D01*
X56389104Y-43350788D01*
X56293284Y-43182299D01*
X56192191Y-43002777D01*
X56095718Y-42831381D01*
X56005564Y-42671668D01*
X55926354Y-42531796D01*
X55862714Y-42419920D01*
X55819266Y-42344197D01*
X55804760Y-42319420D01*
X55750448Y-42228729D01*
X55512224Y-42346876D01*
X55409209Y-42399458D01*
X55328613Y-42443434D01*
X55281557Y-42472587D01*
X55274000Y-42480096D01*
X55287784Y-42513675D01*
X55326381Y-42588566D01*
X55385657Y-42697624D01*
X55461480Y-42833703D01*
X55549715Y-42989658D01*
X55646229Y-43158343D01*
X55746889Y-43332615D01*
X55847561Y-43505326D01*
X55944113Y-43669333D01*
X56032410Y-43817489D01*
X56108319Y-43942650D01*
X56167707Y-44037670D01*
X56206441Y-44095403D01*
X56214046Y-44105125D01*
X56366347Y-44240794D01*
X56552059Y-44340735D01*
X56757587Y-44400467D01*
X56969339Y-44415511D01*
X57105387Y-44398889D01*
X57294127Y-44340280D01*
X57482906Y-44247219D01*
X57658409Y-44128973D01*
X57807327Y-43994810D01*
X57916346Y-43853996D01*
X57934236Y-43821917D01*
X57980100Y-43687037D01*
X58004896Y-43502931D01*
X58005773Y-43489138D01*
X58007534Y-43343928D01*
X57990575Y-43216206D01*
X57950136Y-43088866D01*
X57881456Y-42944802D01*
X57827218Y-42847555D01*
X57787391Y-42778013D01*
X57725144Y-42668628D01*
X57645768Y-42528733D01*
X57554556Y-42367659D01*
X57456800Y-42194737D01*
X57406466Y-42105589D01*
X57075333Y-41518845D01*
X56859055Y-41635023D01*
G36*
X65018226Y-42925422D02*
G01*
X64958414Y-42985347D01*
X64870111Y-43075933D01*
X64758063Y-43192156D01*
X64627021Y-43328989D01*
X64481733Y-43481407D01*
X64326948Y-43644386D01*
X64167414Y-43812900D01*
X64007880Y-43981924D01*
X63853094Y-44146433D01*
X63707806Y-44301402D01*
X63576763Y-44441805D01*
X63464715Y-44562617D01*
X63376410Y-44658814D01*
X63316597Y-44725369D01*
X63290024Y-44757258D01*
X63289111Y-44759111D01*
X63308855Y-44787399D01*
X63361798Y-44843057D01*
X63438504Y-44916463D01*
X63484150Y-44958007D01*
X63679189Y-45132629D01*
X64563650Y-44200416D01*
X64745212Y-44008746D01*
X64914446Y-43829497D01*
X65067458Y-43666838D01*
X65200354Y-43524937D01*
X65309238Y-43407962D01*
X65390217Y-43320080D01*
X65439395Y-43265460D01*
X65453269Y-43248379D01*
X65435918Y-43221501D01*
X65385670Y-43170496D01*
X65314217Y-43105302D01*
X65233248Y-43035854D01*
X65154454Y-42972089D01*
X65089525Y-42923945D01*
X65050151Y-42901357D01*
X65044798Y-42901183D01*
X65018226Y-42925422D01*
G37*
X65018226Y-42925422D02*
X64958414Y-42985347D01*
X64870111Y-43075933D01*
X64758063Y-43192156D01*
X64627021Y-43328989D01*
X64481733Y-43481407D01*
X64326948Y-43644386D01*
X64167414Y-43812900D01*
X64007880Y-43981924D01*
X63853094Y-44146433D01*
X63707806Y-44301402D01*
X63576763Y-44441805D01*
X63464715Y-44562617D01*
X63376410Y-44658814D01*
X63316597Y-44725369D01*
X63290024Y-44757258D01*
X63289111Y-44759111D01*
X63308855Y-44787399D01*
X63361798Y-44843057D01*
X63438504Y-44916463D01*
X63484150Y-44958007D01*
X63679189Y-45132629D01*
X64563650Y-44200416D01*
X64745212Y-44008746D01*
X64914446Y-43829497D01*
X65067458Y-43666838D01*
X65200354Y-43524937D01*
X65309238Y-43407962D01*
X65390217Y-43320080D01*
X65439395Y-43265460D01*
X65453269Y-43248379D01*
X65435918Y-43221501D01*
X65385670Y-43170496D01*
X65314217Y-43105302D01*
X65233248Y-43035854D01*
X65154454Y-42972089D01*
X65089525Y-42923945D01*
X65050151Y-42901357D01*
X65044798Y-42901183D01*
X65018226Y-42925422D01*
G36*
X54153287Y-43522968D02*
G01*
X54100305Y-43574942D01*
X54020526Y-43662810D01*
X54011453Y-43672975D01*
X53936632Y-43761020D01*
X53881093Y-43834499D01*
X53852415Y-43882938D01*
X53850795Y-43895042D01*
X53874153Y-43916775D01*
X53935207Y-43970079D01*
X54028715Y-44050529D01*
X54149439Y-44153700D01*
X54292138Y-44275167D01*
X54451574Y-44410507D01*
X54622506Y-44555294D01*
X54799695Y-44705103D01*
X54977901Y-44855511D01*
X55151884Y-45002093D01*
X55316406Y-45140423D01*
X55466226Y-45266077D01*
X55596104Y-45374631D01*
X55700801Y-45461661D01*
X55775078Y-45522740D01*
X55813694Y-45553446D01*
X55817982Y-45556232D01*
X55838354Y-45536470D01*
X55887027Y-45484439D01*
X55954791Y-45410044D01*
X55979555Y-45382516D01*
X56054382Y-45297738D01*
X56115197Y-45226343D01*
X56151430Y-45180816D01*
X56155633Y-45174568D01*
X56139912Y-45146640D01*
X56080030Y-45084059D01*
X55975947Y-44986788D01*
X55827621Y-44854790D01*
X55635010Y-44688027D01*
X55398071Y-44486463D01*
X55240149Y-44353451D01*
X55041059Y-44186348D01*
X54853748Y-44029266D01*
X54682981Y-43886192D01*
X54533525Y-43761113D01*
X54410143Y-43658013D01*
X54317602Y-43580881D01*
X54260666Y-43533702D01*
X54245627Y-43521470D01*
X54216530Y-43502325D01*
X54188889Y-43500793D01*
X54153287Y-43522968D01*
G37*
X54153287Y-43522968D02*
X54100305Y-43574942D01*
X54020526Y-43662810D01*
X54011453Y-43672975D01*
X53936632Y-43761020D01*
X53881093Y-43834499D01*
X53852415Y-43882938D01*
X53850795Y-43895042D01*
X53874153Y-43916775D01*
X53935207Y-43970079D01*
X54028715Y-44050529D01*
X54149439Y-44153700D01*
X54292138Y-44275167D01*
X54451574Y-44410507D01*
X54622506Y-44555294D01*
X54799695Y-44705103D01*
X54977901Y-44855511D01*
X55151884Y-45002093D01*
X55316406Y-45140423D01*
X55466226Y-45266077D01*
X55596104Y-45374631D01*
X55700801Y-45461661D01*
X55775078Y-45522740D01*
X55813694Y-45553446D01*
X55817982Y-45556232D01*
X55838354Y-45536470D01*
X55887027Y-45484439D01*
X55954791Y-45410044D01*
X55979555Y-45382516D01*
X56054382Y-45297738D01*
X56115197Y-45226343D01*
X56151430Y-45180816D01*
X56155633Y-45174568D01*
X56139912Y-45146640D01*
X56080030Y-45084059D01*
X55975947Y-44986788D01*
X55827621Y-44854790D01*
X55635010Y-44688027D01*
X55398071Y-44486463D01*
X55240149Y-44353451D01*
X55041059Y-44186348D01*
X54853748Y-44029266D01*
X54682981Y-43886192D01*
X54533525Y-43761113D01*
X54410143Y-43658013D01*
X54317602Y-43580881D01*
X54260666Y-43533702D01*
X54245627Y-43521470D01*
X54216530Y-43502325D01*
X54188889Y-43500793D01*
X54153287Y-43522968D01*
G36*
X65986076Y-44391355D02*
G01*
X65875878Y-44447479D01*
X65787407Y-44495169D01*
X65731100Y-44528630D01*
X65716222Y-44541173D01*
X65737954Y-44564610D01*
X65791105Y-44601097D01*
X65799394Y-44606072D01*
X65913085Y-44686886D01*
X66034387Y-44795057D01*
X66147732Y-44914713D01*
X66237549Y-45029982D01*
X66272757Y-45088632D01*
X66335733Y-45267620D01*
X66344631Y-45444746D01*
X66301727Y-45614985D01*
X66209300Y-45773315D01*
X66069625Y-45914712D01*
X65884982Y-46034152D01*
X65832498Y-46059792D01*
X65625130Y-46129538D01*
X65428046Y-46146523D01*
X65245626Y-46114118D01*
X65082254Y-46035696D01*
X64942312Y-45914631D01*
X64830183Y-45754295D01*
X64750248Y-45558062D01*
X64706891Y-45329303D01*
X64700222Y-45188353D01*
X64700222Y-45048374D01*
X64420294Y-45188848D01*
X64140366Y-45329323D01*
X64181149Y-45506606D01*
X64256414Y-45781977D01*
X64346145Y-46009235D01*
X64454597Y-46195777D01*
X64586021Y-46349002D01*
X64734728Y-46469554D01*
X64957068Y-46589865D01*
X65204932Y-46668159D01*
X65463551Y-46701598D01*
X65718153Y-46687342D01*
X65793106Y-46672987D01*
X66010521Y-46602940D01*
X66223026Y-46496387D01*
X66418666Y-46361926D01*
X66585483Y-46208152D01*
X66711523Y-46043663D01*
X66740451Y-45991829D01*
X66846717Y-45730568D01*
X66897052Y-45476251D01*
X66891472Y-45228365D01*
X66829997Y-44986394D01*
X66779199Y-44869275D01*
X66682235Y-44701265D01*
X66563834Y-44539311D01*
X66437498Y-44400324D01*
X66336387Y-44314596D01*
X66255930Y-44257305D01*
X65986076Y-44391355D01*
G37*
X65986076Y-44391355D02*
X65875878Y-44447479D01*
X65787407Y-44495169D01*
X65731100Y-44528630D01*
X65716222Y-44541173D01*
X65737954Y-44564610D01*
X65791105Y-44601097D01*
X65799394Y-44606072D01*
X65913085Y-44686886D01*
X66034387Y-44795057D01*
X66147732Y-44914713D01*
X66237549Y-45029982D01*
X66272757Y-45088632D01*
X66335733Y-45267620D01*
X66344631Y-45444746D01*
X66301727Y-45614985D01*
X66209300Y-45773315D01*
X66069625Y-45914712D01*
X65884982Y-46034152D01*
X65832498Y-46059792D01*
X65625130Y-46129538D01*
X65428046Y-46146523D01*
X65245626Y-46114118D01*
X65082254Y-46035696D01*
X64942312Y-45914631D01*
X64830183Y-45754295D01*
X64750248Y-45558062D01*
X64706891Y-45329303D01*
X64700222Y-45188353D01*
X64700222Y-45048374D01*
X64420294Y-45188848D01*
X64140366Y-45329323D01*
X64181149Y-45506606D01*
X64256414Y-45781977D01*
X64346145Y-46009235D01*
X64454597Y-46195777D01*
X64586021Y-46349002D01*
X64734728Y-46469554D01*
X64957068Y-46589865D01*
X65204932Y-46668159D01*
X65463551Y-46701598D01*
X65718153Y-46687342D01*
X65793106Y-46672987D01*
X66010521Y-46602940D01*
X66223026Y-46496387D01*
X66418666Y-46361926D01*
X66585483Y-46208152D01*
X66711523Y-46043663D01*
X66740451Y-45991829D01*
X66846717Y-45730568D01*
X66897052Y-45476251D01*
X66891472Y-45228365D01*
X66829997Y-44986394D01*
X66779199Y-44869275D01*
X66682235Y-44701265D01*
X66563834Y-44539311D01*
X66437498Y-44400324D01*
X66336387Y-44314596D01*
X66255930Y-44257305D01*
X65986076Y-44391355D01*
G36*
X53072509Y-44886940D02*
G01*
X53046064Y-44945163D01*
X52999607Y-45046065D01*
X52937050Y-45181205D01*
X52862309Y-45342139D01*
X52779296Y-45520425D01*
X52710164Y-45668582D01*
X52400955Y-46330609D01*
X52641337Y-46437638D01*
X52747963Y-46484227D01*
X52834463Y-46520367D01*
X52888445Y-46540960D01*
X52899582Y-46543832D01*
X52917943Y-46519404D01*
X52952923Y-46454324D01*
X52998754Y-46359754D01*
X53030333Y-46290666D01*
X53081523Y-46183113D01*
X53127776Y-46098205D01*
X53162641Y-46047184D01*
X53175654Y-46037501D01*
X53208282Y-46048186D01*
X53286510Y-46078938D01*
X53404226Y-46127203D01*
X53555317Y-46190425D01*
X53733670Y-46266050D01*
X53933172Y-46351522D01*
X54118895Y-46431777D01*
X54331183Y-46523637D01*
X54527024Y-46607934D01*
X54700411Y-46682119D01*
X54845340Y-46743640D01*
X54955805Y-46789948D01*
X55025803Y-46818491D01*
X55049146Y-46826889D01*
X55068769Y-46802993D01*
X55104649Y-46739133D01*
X55150404Y-46647049D01*
X55171294Y-46602206D01*
X55217498Y-46498622D01*
X55252922Y-46414436D01*
X55272100Y-46362841D01*
X55274000Y-46354229D01*
X55248978Y-46338125D01*
X55177815Y-46302703D01*
X55066358Y-46250614D01*
X54920457Y-46184512D01*
X54745963Y-46107050D01*
X54548725Y-46020881D01*
X54353748Y-45936856D01*
X54140118Y-45844620D01*
X53943293Y-45758192D01*
X53769240Y-45680302D01*
X53623926Y-45613683D01*
X53513318Y-45561066D01*
X53443381Y-45525183D01*
X53420143Y-45509449D01*
X53425663Y-45470788D01*
X53451525Y-45394625D01*
X53492986Y-45294022D01*
X53519926Y-45234697D01*
X53566449Y-45129173D01*
X53598576Y-45043838D01*
X53612138Y-44990524D01*
X53609996Y-44979017D01*
X53575106Y-44962121D01*
X53501529Y-44929121D01*
X53402553Y-44885933D01*
X53356288Y-44866043D01*
X53125646Y-44767324D01*
X53072509Y-44886940D01*
G37*
X53072509Y-44886940D02*
X53046064Y-44945163D01*
X52999607Y-45046065D01*
X52937050Y-45181205D01*
X52862309Y-45342139D01*
X52779296Y-45520425D01*
X52710164Y-45668582D01*
X52400955Y-46330609D01*
X52641337Y-46437638D01*
X52747963Y-46484227D01*
X52834463Y-46520367D01*
X52888445Y-46540960D01*
X52899582Y-46543832D01*
X52917943Y-46519404D01*
X52952923Y-46454324D01*
X52998754Y-46359754D01*
X53030333Y-46290666D01*
X53081523Y-46183113D01*
X53127776Y-46098205D01*
X53162641Y-46047184D01*
X53175654Y-46037501D01*
X53208282Y-46048186D01*
X53286510Y-46078938D01*
X53404226Y-46127203D01*
X53555317Y-46190425D01*
X53733670Y-46266050D01*
X53933172Y-46351522D01*
X54118895Y-46431777D01*
X54331183Y-46523637D01*
X54527024Y-46607934D01*
X54700411Y-46682119D01*
X54845340Y-46743640D01*
X54955805Y-46789948D01*
X55025803Y-46818491D01*
X55049146Y-46826889D01*
X55068769Y-46802993D01*
X55104649Y-46739133D01*
X55150404Y-46647049D01*
X55171294Y-46602206D01*
X55217498Y-46498622D01*
X55252922Y-46414436D01*
X55272100Y-46362841D01*
X55274000Y-46354229D01*
X55248978Y-46338125D01*
X55177815Y-46302703D01*
X55066358Y-46250614D01*
X54920457Y-46184512D01*
X54745963Y-46107050D01*
X54548725Y-46020881D01*
X54353748Y-45936856D01*
X54140118Y-45844620D01*
X53943293Y-45758192D01*
X53769240Y-45680302D01*
X53623926Y-45613683D01*
X53513318Y-45561066D01*
X53443381Y-45525183D01*
X53420143Y-45509449D01*
X53425663Y-45470788D01*
X53451525Y-45394625D01*
X53492986Y-45294022D01*
X53519926Y-45234697D01*
X53566449Y-45129173D01*
X53598576Y-45043838D01*
X53612138Y-44990524D01*
X53609996Y-44979017D01*
X53575106Y-44962121D01*
X53501529Y-44929121D01*
X53402553Y-44885933D01*
X53356288Y-44866043D01*
X53125646Y-44767324D01*
X53072509Y-44886940D01*
G36*
X65138654Y-50878730D02*
G01*
X65082177Y-50903296D01*
X64977645Y-50966564D01*
X64882022Y-51044521D01*
X64842003Y-51087599D01*
X64733262Y-51256697D01*
X64651826Y-51448045D01*
X64602433Y-51645331D01*
X64589826Y-51832244D01*
X64599650Y-51921361D01*
X64615920Y-51988808D01*
X64641884Y-52014110D01*
X64695653Y-52010938D01*
X64713922Y-52007605D01*
X64799299Y-51988491D01*
X64904542Y-51960930D01*
X64948211Y-51948392D01*
X65087744Y-51906956D01*
X65102283Y-51703750D01*
X65112924Y-51592297D01*
X65129009Y-51520538D01*
X65156161Y-51471721D01*
X65192318Y-51435605D01*
X65262901Y-51390814D01*
X65331113Y-51370745D01*
X65334487Y-51370666D01*
X65415354Y-51377876D01*
X65476307Y-51403898D01*
X65519989Y-51455321D01*
X65549044Y-51538734D01*
X65566114Y-51660725D01*
X65573842Y-51827885D01*
X65575111Y-51970501D01*
X65575760Y-52132418D01*
X65578776Y-52249998D01*
X65585762Y-52335343D01*
X65598323Y-52400556D01*
X65618060Y-52457739D01*
X65646578Y-52518996D01*
X65648213Y-52522280D01*
X65759534Y-52687365D01*
X65906192Y-52809835D01*
X66067066Y-52881366D01*
X66193282Y-52912052D01*
X66300529Y-52917488D01*
X66416209Y-52897371D01*
X66488834Y-52876698D01*
X66697060Y-52785541D01*
X66869108Y-52653972D01*
X67001909Y-52487292D01*
X67092393Y-52290804D01*
X67137493Y-52069808D01*
X67134139Y-51829607D01*
X67126621Y-51774886D01*
X67108600Y-51676003D01*
X67090632Y-51600600D01*
X67076558Y-51564743D01*
X67076363Y-51564558D01*
X67044788Y-51564495D01*
X66973799Y-51574413D01*
X66878895Y-51591220D01*
X66775571Y-51611826D01*
X66679325Y-51633139D01*
X66605653Y-51652069D01*
X66570052Y-51665525D01*
X66570019Y-51665553D01*
X66570934Y-51694108D01*
X66580511Y-51761802D01*
X66592476Y-51830800D01*
X66605570Y-51999324D01*
X66579724Y-52138628D01*
X66517868Y-52243603D01*
X66422930Y-52309141D01*
X66306182Y-52330222D01*
X66201424Y-52311788D01*
X66140655Y-52268456D01*
X66116393Y-52242040D01*
X66098673Y-52216820D01*
X66086430Y-52184043D01*
X66078604Y-52134955D01*
X66074133Y-52060804D01*
X66071954Y-51952835D01*
X66071005Y-51802297D01*
X66070597Y-51691027D01*
X66069000Y-51263499D01*
X65983460Y-51141362D01*
X65851571Y-50998879D01*
X65690717Y-50898620D01*
X65511328Y-50843339D01*
X65323831Y-50835791D01*
X65138654Y-50878730D01*
G37*
X65138654Y-50878730D02*
X65082177Y-50903296D01*
X64977645Y-50966564D01*
X64882022Y-51044521D01*
X64842003Y-51087599D01*
X64733262Y-51256697D01*
X64651826Y-51448045D01*
X64602433Y-51645331D01*
X64589826Y-51832244D01*
X64599650Y-51921361D01*
X64615920Y-51988808D01*
X64641884Y-52014110D01*
X64695653Y-52010938D01*
X64713922Y-52007605D01*
X64799299Y-51988491D01*
X64904542Y-51960930D01*
X64948211Y-51948392D01*
X65087744Y-51906956D01*
X65102283Y-51703750D01*
X65112924Y-51592297D01*
X65129009Y-51520538D01*
X65156161Y-51471721D01*
X65192318Y-51435605D01*
X65262901Y-51390814D01*
X65331113Y-51370745D01*
X65334487Y-51370666D01*
X65415354Y-51377876D01*
X65476307Y-51403898D01*
X65519989Y-51455321D01*
X65549044Y-51538734D01*
X65566114Y-51660725D01*
X65573842Y-51827885D01*
X65575111Y-51970501D01*
X65575760Y-52132418D01*
X65578776Y-52249998D01*
X65585762Y-52335343D01*
X65598323Y-52400556D01*
X65618060Y-52457739D01*
X65646578Y-52518996D01*
X65648213Y-52522280D01*
X65759534Y-52687365D01*
X65906192Y-52809835D01*
X66067066Y-52881366D01*
X66193282Y-52912052D01*
X66300529Y-52917488D01*
X66416209Y-52897371D01*
X66488834Y-52876698D01*
X66697060Y-52785541D01*
X66869108Y-52653972D01*
X67001909Y-52487292D01*
X67092393Y-52290804D01*
X67137493Y-52069808D01*
X67134139Y-51829607D01*
X67126621Y-51774886D01*
X67108600Y-51676003D01*
X67090632Y-51600600D01*
X67076558Y-51564743D01*
X67076363Y-51564558D01*
X67044788Y-51564495D01*
X66973799Y-51574413D01*
X66878895Y-51591220D01*
X66775571Y-51611826D01*
X66679325Y-51633139D01*
X66605653Y-51652069D01*
X66570052Y-51665525D01*
X66570019Y-51665553D01*
X66570934Y-51694108D01*
X66580511Y-51761802D01*
X66592476Y-51830800D01*
X66605570Y-51999324D01*
X66579724Y-52138628D01*
X66517868Y-52243603D01*
X66422930Y-52309141D01*
X66306182Y-52330222D01*
X66201424Y-52311788D01*
X66140655Y-52268456D01*
X66116393Y-52242040D01*
X66098673Y-52216820D01*
X66086430Y-52184043D01*
X66078604Y-52134955D01*
X66074133Y-52060804D01*
X66071954Y-51952835D01*
X66071005Y-51802297D01*
X66070597Y-51691027D01*
X66069000Y-51263499D01*
X65983460Y-51141362D01*
X65851571Y-50998879D01*
X65690717Y-50898620D01*
X65511328Y-50843339D01*
X65323831Y-50835791D01*
X65138654Y-50878730D01*
G36*
X54564302Y-50704059D02*
G01*
X54527644Y-50775936D01*
X54487242Y-50874211D01*
X54475268Y-50907156D01*
X54437951Y-51016037D01*
X54419058Y-51084001D01*
X54417186Y-51122978D01*
X54430933Y-51144898D01*
X54446135Y-51154850D01*
X54493139Y-51188482D01*
X54562923Y-51246415D01*
X54616255Y-51294062D01*
X54706804Y-51401087D01*
X54741305Y-51503385D01*
X54719713Y-51600643D01*
X54668505Y-51668282D01*
X54600362Y-51718970D01*
X54524489Y-51736737D01*
X54434157Y-51719697D01*
X54322640Y-51665963D01*
X54183213Y-51573646D01*
X54093918Y-51507065D01*
X53942171Y-51396752D01*
X53817304Y-51321606D01*
X53707076Y-51276106D01*
X53599246Y-51254732D01*
X53526518Y-51251166D01*
X53332618Y-51274420D01*
X53165528Y-51346824D01*
X53021734Y-51469922D01*
X53017284Y-51474936D01*
X52900671Y-51646959D01*
X52830773Y-51846522D01*
X52806315Y-52077362D01*
X52806266Y-52093188D01*
X52833774Y-52312224D01*
X52912618Y-52513636D01*
X53039027Y-52691999D01*
X53209226Y-52841890D01*
X53402770Y-52950657D01*
X53483893Y-52983838D01*
X53545798Y-53004342D01*
X53563758Y-53007555D01*
X53587764Y-52982899D01*
X53623318Y-52917276D01*
X53663936Y-52823206D01*
X53677057Y-52788833D01*
X53715959Y-52683712D01*
X53747768Y-52597769D01*
X53767020Y-52545764D01*
X53769459Y-52539183D01*
X53752453Y-52512196D01*
X53696338Y-52478027D01*
X53654366Y-52459923D01*
X53554616Y-52406618D01*
X53459586Y-52330296D01*
X53382106Y-52244252D01*
X53335008Y-52161783D01*
X53326666Y-52120311D01*
X53346526Y-51996556D01*
X53400721Y-51898867D01*
X53481172Y-51837749D01*
X53555861Y-51822222D01*
X53641105Y-51834367D01*
X53734951Y-51874169D01*
X53846536Y-51946677D01*
X53985002Y-52056938D01*
X53993038Y-52063740D01*
X54123902Y-52169595D01*
X54229456Y-52240428D01*
X54322844Y-52282532D01*
X54417211Y-52302206D01*
X54498814Y-52306031D01*
X54695636Y-52279991D01*
X54870382Y-52206249D01*
X55016484Y-52091377D01*
X55127377Y-51941945D01*
X55196494Y-51764523D01*
X55217555Y-51586819D01*
X55199987Y-51389668D01*
X55143208Y-51209456D01*
X55041102Y-51027342D01*
X55031301Y-51012868D01*
X54963285Y-50928998D01*
X54877103Y-50844207D01*
X54784424Y-50767513D01*
X54696918Y-50707932D01*
X54626255Y-50674481D01*
X54590502Y-50672267D01*
X54564302Y-50704059D01*
G37*
X54564302Y-50704059D02*
X54527644Y-50775936D01*
X54487242Y-50874211D01*
X54475268Y-50907156D01*
X54437951Y-51016037D01*
X54419058Y-51084001D01*
X54417186Y-51122978D01*
X54430933Y-51144898D01*
X54446135Y-51154850D01*
X54493139Y-51188482D01*
X54562923Y-51246415D01*
X54616255Y-51294062D01*
X54706804Y-51401087D01*
X54741305Y-51503385D01*
X54719713Y-51600643D01*
X54668505Y-51668282D01*
X54600362Y-51718970D01*
X54524489Y-51736737D01*
X54434157Y-51719697D01*
X54322640Y-51665963D01*
X54183213Y-51573646D01*
X54093918Y-51507065D01*
X53942171Y-51396752D01*
X53817304Y-51321606D01*
X53707076Y-51276106D01*
X53599246Y-51254732D01*
X53526518Y-51251166D01*
X53332618Y-51274420D01*
X53165528Y-51346824D01*
X53021734Y-51469922D01*
X53017284Y-51474936D01*
X52900671Y-51646959D01*
X52830773Y-51846522D01*
X52806315Y-52077362D01*
X52806266Y-52093188D01*
X52833774Y-52312224D01*
X52912618Y-52513636D01*
X53039027Y-52691999D01*
X53209226Y-52841890D01*
X53402770Y-52950657D01*
X53483893Y-52983838D01*
X53545798Y-53004342D01*
X53563758Y-53007555D01*
X53587764Y-52982899D01*
X53623318Y-52917276D01*
X53663936Y-52823206D01*
X53677057Y-52788833D01*
X53715959Y-52683712D01*
X53747768Y-52597769D01*
X53767020Y-52545764D01*
X53769459Y-52539183D01*
X53752453Y-52512196D01*
X53696338Y-52478027D01*
X53654366Y-52459923D01*
X53554616Y-52406618D01*
X53459586Y-52330296D01*
X53382106Y-52244252D01*
X53335008Y-52161783D01*
X53326666Y-52120311D01*
X53346526Y-51996556D01*
X53400721Y-51898867D01*
X53481172Y-51837749D01*
X53555861Y-51822222D01*
X53641105Y-51834367D01*
X53734951Y-51874169D01*
X53846536Y-51946677D01*
X53985002Y-52056938D01*
X53993038Y-52063740D01*
X54123902Y-52169595D01*
X54229456Y-52240428D01*
X54322844Y-52282532D01*
X54417211Y-52302206D01*
X54498814Y-52306031D01*
X54695636Y-52279991D01*
X54870382Y-52206249D01*
X55016484Y-52091377D01*
X55127377Y-51941945D01*
X55196494Y-51764523D01*
X55217555Y-51586819D01*
X55199987Y-51389668D01*
X55143208Y-51209456D01*
X55041102Y-51027342D01*
X55031301Y-51012868D01*
X54963285Y-50928998D01*
X54877103Y-50844207D01*
X54784424Y-50767513D01*
X54696918Y-50707932D01*
X54626255Y-50674481D01*
X54590502Y-50672267D01*
X54564302Y-50704059D01*
G36*
X59616554Y-43787598D02*
G01*
X59426100Y-43803714D01*
X58890469Y-43889190D01*
X58376415Y-44023976D01*
X57886329Y-44205364D01*
X57422601Y-44430650D01*
X56987622Y-44697129D01*
X56583782Y-45002096D01*
X56213473Y-45342844D01*
X55879085Y-45716670D01*
X55583008Y-46120867D01*
X55327634Y-46552731D01*
X55115352Y-47009556D01*
X54948555Y-47488637D01*
X54829631Y-47987269D01*
X54760973Y-48502746D01*
X54744970Y-49032364D01*
X54746769Y-49098777D01*
X54788784Y-49630380D01*
X54879221Y-50135638D01*
X55019459Y-50619397D01*
X55210875Y-51086502D01*
X55429367Y-51498910D01*
X55727125Y-51951022D01*
X56064789Y-52364378D01*
X56439560Y-52737134D01*
X56848641Y-53067443D01*
X57289232Y-53353460D01*
X57758536Y-53593338D01*
X58253754Y-53785232D01*
X58772087Y-53927296D01*
X59233612Y-54008132D01*
X59458255Y-54030151D01*
X59714541Y-54043141D01*
X59981868Y-54046897D01*
X60239634Y-54041212D01*
X60467238Y-54025882D01*
X60513783Y-54020897D01*
X61023480Y-53933870D01*
X61528221Y-53793845D01*
X62020408Y-53604206D01*
X62492442Y-53368339D01*
X62936723Y-53089627D01*
X63345652Y-52771456D01*
X63373273Y-52747339D01*
X63753708Y-52375355D01*
X64092990Y-51966519D01*
X64388776Y-51524962D01*
X64638725Y-51054815D01*
X64840493Y-50560211D01*
X64991738Y-50045281D01*
X65044199Y-49800091D01*
X65068056Y-49663161D01*
X65085351Y-49533723D01*
X65097064Y-49398095D01*
X65104171Y-49242592D01*
X65107651Y-49053534D01*
X65108440Y-48901222D01*
X65108410Y-48895309D01*
X64849812Y-48895309D01*
X64849737Y-48915333D01*
X64821137Y-49439207D01*
X64739809Y-49944393D01*
X64605091Y-50433049D01*
X64416318Y-50907329D01*
X64172826Y-51369391D01*
X64019621Y-51612684D01*
X63858253Y-51832469D01*
X63660393Y-52066243D01*
X63438313Y-52301723D01*
X63204286Y-52526628D01*
X62970582Y-52728677D01*
X62749476Y-52895588D01*
X62713106Y-52920193D01*
X62240046Y-53201868D01*
X61751990Y-53429249D01*
X61249266Y-53602215D01*
X60732204Y-53720646D01*
X60388762Y-53768307D01*
X60180335Y-53781606D01*
X59935110Y-53783669D01*
X59671442Y-53775277D01*
X59407684Y-53757209D01*
X59162189Y-53730247D01*
X59034993Y-53710769D01*
X58539425Y-53596865D01*
X58061621Y-53432013D01*
X57605256Y-53219351D01*
X57174008Y-52962019D01*
X56771554Y-52663156D01*
X56401570Y-52325900D01*
X56067733Y-51953390D01*
X55773720Y-51548767D01*
X55523208Y-51115168D01*
X55319872Y-50655733D01*
X55260007Y-50487843D01*
X55117812Y-49977117D01*
X55031763Y-49464330D01*
X55001718Y-48951641D01*
X55027535Y-48441207D01*
X55109072Y-47935183D01*
X55246190Y-47435729D01*
X55438745Y-46945000D01*
X55500954Y-46812777D01*
X55750094Y-46365209D01*
X56044758Y-45947486D01*
X56380813Y-45562811D01*
X56754129Y-45214386D01*
X57160572Y-44905414D01*
X57596011Y-44639098D01*
X58056313Y-44418641D01*
X58537348Y-44247244D01*
X58941377Y-44146162D01*
X59465129Y-44067516D01*
X59989804Y-44043791D01*
X60510938Y-44074740D01*
X61024067Y-44160118D01*
X61485692Y-44286673D01*
X61976518Y-44476402D01*
X62437987Y-44712314D01*
X62867477Y-44991615D01*
X63262365Y-45311511D01*
X63620028Y-45669208D01*
X63937845Y-46061912D01*
X64213193Y-46486830D01*
X64443449Y-46941166D01*
X64625991Y-47422126D01*
X64711946Y-47724013D01*
X64768301Y-47966924D01*
X64807993Y-48185866D01*
X64833294Y-48400483D01*
X64846476Y-48630416D01*
X64849812Y-48895309D01*
X65108410Y-48895309D01*
X65107197Y-48660597D01*
X65101378Y-48461190D01*
X65089268Y-48287850D01*
X65069154Y-48125422D01*
X65039320Y-47958753D01*
X64998054Y-47772691D01*
X64965781Y-47640168D01*
X64813310Y-47142415D01*
X64610755Y-46666419D01*
X64361357Y-46215432D01*
X64068356Y-45792703D01*
X63734993Y-45401485D01*
X63364508Y-45045027D01*
X62960141Y-44726580D01*
X62525133Y-44449395D01*
X62062725Y-44216723D01*
X61576157Y-44031815D01*
X61285333Y-43948035D01*
X60876754Y-43861933D01*
X60450568Y-43805571D01*
X60024569Y-43780333D01*
X59616554Y-43787598D01*
G37*
X59616554Y-43787598D02*
X59426100Y-43803714D01*
X58890469Y-43889190D01*
X58376415Y-44023976D01*
X57886329Y-44205364D01*
X57422601Y-44430650D01*
X56987622Y-44697129D01*
X56583782Y-45002096D01*
X56213473Y-45342844D01*
X55879085Y-45716670D01*
X55583008Y-46120867D01*
X55327634Y-46552731D01*
X55115352Y-47009556D01*
X54948555Y-47488637D01*
X54829631Y-47987269D01*
X54760973Y-48502746D01*
X54744970Y-49032364D01*
X54746769Y-49098777D01*
X54788784Y-49630380D01*
X54879221Y-50135638D01*
X55019459Y-50619397D01*
X55210875Y-51086502D01*
X55429367Y-51498910D01*
X55727125Y-51951022D01*
X56064789Y-52364378D01*
X56439560Y-52737134D01*
X56848641Y-53067443D01*
X57289232Y-53353460D01*
X57758536Y-53593338D01*
X58253754Y-53785232D01*
X58772087Y-53927296D01*
X59233612Y-54008132D01*
X59458255Y-54030151D01*
X59714541Y-54043141D01*
X59981868Y-54046897D01*
X60239634Y-54041212D01*
X60467238Y-54025882D01*
X60513783Y-54020897D01*
X61023480Y-53933870D01*
X61528221Y-53793845D01*
X62020408Y-53604206D01*
X62492442Y-53368339D01*
X62936723Y-53089627D01*
X63345652Y-52771456D01*
X63373273Y-52747339D01*
X63753708Y-52375355D01*
X64092990Y-51966519D01*
X64388776Y-51524962D01*
X64638725Y-51054815D01*
X64840493Y-50560211D01*
X64991738Y-50045281D01*
X65044199Y-49800091D01*
X65068056Y-49663161D01*
X65085351Y-49533723D01*
X65097064Y-49398095D01*
X65104171Y-49242592D01*
X65107651Y-49053534D01*
X65108440Y-48901222D01*
X65108410Y-48895309D01*
X64849812Y-48895309D01*
X64849737Y-48915333D01*
X64821137Y-49439207D01*
X64739809Y-49944393D01*
X64605091Y-50433049D01*
X64416318Y-50907329D01*
X64172826Y-51369391D01*
X64019621Y-51612684D01*
X63858253Y-51832469D01*
X63660393Y-52066243D01*
X63438313Y-52301723D01*
X63204286Y-52526628D01*
X62970582Y-52728677D01*
X62749476Y-52895588D01*
X62713106Y-52920193D01*
X62240046Y-53201868D01*
X61751990Y-53429249D01*
X61249266Y-53602215D01*
X60732204Y-53720646D01*
X60388762Y-53768307D01*
X60180335Y-53781606D01*
X59935110Y-53783669D01*
X59671442Y-53775277D01*
X59407684Y-53757209D01*
X59162189Y-53730247D01*
X59034993Y-53710769D01*
X58539425Y-53596865D01*
X58061621Y-53432013D01*
X57605256Y-53219351D01*
X57174008Y-52962019D01*
X56771554Y-52663156D01*
X56401570Y-52325900D01*
X56067733Y-51953390D01*
X55773720Y-51548767D01*
X55523208Y-51115168D01*
X55319872Y-50655733D01*
X55260007Y-50487843D01*
X55117812Y-49977117D01*
X55031763Y-49464330D01*
X55001718Y-48951641D01*
X55027535Y-48441207D01*
X55109072Y-47935183D01*
X55246190Y-47435729D01*
X55438745Y-46945000D01*
X55500954Y-46812777D01*
X55750094Y-46365209D01*
X56044758Y-45947486D01*
X56380813Y-45562811D01*
X56754129Y-45214386D01*
X57160572Y-44905414D01*
X57596011Y-44639098D01*
X58056313Y-44418641D01*
X58537348Y-44247244D01*
X58941377Y-44146162D01*
X59465129Y-44067516D01*
X59989804Y-44043791D01*
X60510938Y-44074740D01*
X61024067Y-44160118D01*
X61485692Y-44286673D01*
X61976518Y-44476402D01*
X62437987Y-44712314D01*
X62867477Y-44991615D01*
X63262365Y-45311511D01*
X63620028Y-45669208D01*
X63937845Y-46061912D01*
X64213193Y-46486830D01*
X64443449Y-46941166D01*
X64625991Y-47422126D01*
X64711946Y-47724013D01*
X64768301Y-47966924D01*
X64807993Y-48185866D01*
X64833294Y-48400483D01*
X64846476Y-48630416D01*
X64849812Y-48895309D01*
X65108410Y-48895309D01*
X65107197Y-48660597D01*
X65101378Y-48461190D01*
X65089268Y-48287850D01*
X65069154Y-48125422D01*
X65039320Y-47958753D01*
X64998054Y-47772691D01*
X64965781Y-47640168D01*
X64813310Y-47142415D01*
X64610755Y-46666419D01*
X64361357Y-46215432D01*
X64068356Y-45792703D01*
X63734993Y-45401485D01*
X63364508Y-45045027D01*
X62960141Y-44726580D01*
X62525133Y-44449395D01*
X62062725Y-44216723D01*
X61576157Y-44031815D01*
X61285333Y-43948035D01*
X60876754Y-43861933D01*
X60450568Y-43805571D01*
X60024569Y-43780333D01*
X59616554Y-43787598D01*
G36*
X55687765Y-52302976D02*
G01*
X55680918Y-52380001D01*
X55675505Y-52505654D01*
X55671660Y-52676032D01*
X55669522Y-52887232D01*
X55669111Y-53046449D01*
X55669111Y-53823824D01*
X55549166Y-53856897D01*
X55488396Y-53873195D01*
X55382187Y-53901197D01*
X55239751Y-53938492D01*
X55070301Y-53982673D01*
X54883049Y-54031331D01*
X54754603Y-54064620D01*
X54079984Y-54239272D01*
X54322532Y-54441858D01*
X54421803Y-54523086D01*
X54505943Y-54588789D01*
X54565244Y-54631586D01*
X54589006Y-54644444D01*
X54621799Y-54637520D01*
X54701541Y-54618040D01*
X54820631Y-54587940D01*
X54971467Y-54549158D01*
X55146447Y-54503630D01*
X55302579Y-54462631D01*
X55490616Y-54413469D01*
X55659803Y-54370020D01*
X55802758Y-54334117D01*
X55912104Y-54307589D01*
X55980461Y-54292268D01*
X56000795Y-54289388D01*
X55986882Y-54313146D01*
X55943098Y-54374539D01*
X55874466Y-54466836D01*
X55786008Y-54583304D01*
X55682745Y-54717212D01*
X55655793Y-54751869D01*
X55548935Y-54890167D01*
X55455040Y-55013819D01*
X55379305Y-55115804D01*
X55326930Y-55189099D01*
X55303114Y-55226680D01*
X55302222Y-55229513D01*
X55322157Y-55254019D01*
X55374100Y-55303567D01*
X55446254Y-55368054D01*
X55526826Y-55437373D01*
X55604020Y-55501421D01*
X55666041Y-55550092D01*
X55701094Y-55573281D01*
X55704233Y-55573920D01*
X55722416Y-55551921D01*
X55771542Y-55489728D01*
X55848098Y-55391857D01*
X55948573Y-55262822D01*
X56069455Y-55107138D01*
X56207233Y-54929321D01*
X56358395Y-54733885D01*
X56473444Y-54584930D01*
X56632351Y-54378780D01*
X56780414Y-54186128D01*
X56914097Y-54011617D01*
X57029865Y-53859888D01*
X57124182Y-53735584D01*
X57193512Y-53643348D01*
X57234320Y-53587820D01*
X57244033Y-53573243D01*
X57227033Y-53548187D01*
X57177334Y-53498475D01*
X57106707Y-53434210D01*
X57026925Y-53365496D01*
X56949760Y-53302437D01*
X56886983Y-53255135D01*
X56850367Y-53233696D01*
X56847995Y-53233333D01*
X56827003Y-53254543D01*
X56777253Y-53313530D01*
X56704396Y-53403326D01*
X56614086Y-53516966D01*
X56512450Y-53646872D01*
X56191222Y-54060412D01*
X56182482Y-53357595D01*
X56173743Y-52654777D01*
X55948225Y-52471333D01*
X55851474Y-52393773D01*
X55769883Y-52330484D01*
X55713991Y-52289521D01*
X55695909Y-52278481D01*
X55687765Y-52302976D01*
G37*
X55687765Y-52302976D02*
X55680918Y-52380001D01*
X55675505Y-52505654D01*
X55671660Y-52676032D01*
X55669522Y-52887232D01*
X55669111Y-53046449D01*
X55669111Y-53823824D01*
X55549166Y-53856897D01*
X55488396Y-53873195D01*
X55382187Y-53901197D01*
X55239751Y-53938492D01*
X55070301Y-53982673D01*
X54883049Y-54031331D01*
X54754603Y-54064620D01*
X54079984Y-54239272D01*
X54322532Y-54441858D01*
X54421803Y-54523086D01*
X54505943Y-54588789D01*
X54565244Y-54631586D01*
X54589006Y-54644444D01*
X54621799Y-54637520D01*
X54701541Y-54618040D01*
X54820631Y-54587940D01*
X54971467Y-54549158D01*
X55146447Y-54503630D01*
X55302579Y-54462631D01*
X55490616Y-54413469D01*
X55659803Y-54370020D01*
X55802758Y-54334117D01*
X55912104Y-54307589D01*
X55980461Y-54292268D01*
X56000795Y-54289388D01*
X55986882Y-54313146D01*
X55943098Y-54374539D01*
X55874466Y-54466836D01*
X55786008Y-54583304D01*
X55682745Y-54717212D01*
X55655793Y-54751869D01*
X55548935Y-54890167D01*
X55455040Y-55013819D01*
X55379305Y-55115804D01*
X55326930Y-55189099D01*
X55303114Y-55226680D01*
X55302222Y-55229513D01*
X55322157Y-55254019D01*
X55374100Y-55303567D01*
X55446254Y-55368054D01*
X55526826Y-55437373D01*
X55604020Y-55501421D01*
X55666041Y-55550092D01*
X55701094Y-55573281D01*
X55704233Y-55573920D01*
X55722416Y-55551921D01*
X55771542Y-55489728D01*
X55848098Y-55391857D01*
X55948573Y-55262822D01*
X56069455Y-55107138D01*
X56207233Y-54929321D01*
X56358395Y-54733885D01*
X56473444Y-54584930D01*
X56632351Y-54378780D01*
X56780414Y-54186128D01*
X56914097Y-54011617D01*
X57029865Y-53859888D01*
X57124182Y-53735584D01*
X57193512Y-53643348D01*
X57234320Y-53587820D01*
X57244033Y-53573243D01*
X57227033Y-53548187D01*
X57177334Y-53498475D01*
X57106707Y-53434210D01*
X57026925Y-53365496D01*
X56949760Y-53302437D01*
X56886983Y-53255135D01*
X56850367Y-53233696D01*
X56847995Y-53233333D01*
X56827003Y-53254543D01*
X56777253Y-53313530D01*
X56704396Y-53403326D01*
X56614086Y-53516966D01*
X56512450Y-53646872D01*
X56191222Y-54060412D01*
X56182482Y-53357595D01*
X56173743Y-52654777D01*
X55948225Y-52471333D01*
X55851474Y-52393773D01*
X55769883Y-52330484D01*
X55713991Y-52289521D01*
X55695909Y-52278481D01*
X55687765Y-52302976D01*
G36*
X64169442Y-52367984D02*
G01*
X64102456Y-52410280D01*
X64001894Y-52485615D01*
X64000182Y-52486945D01*
X63945067Y-52527869D01*
X63900216Y-52560553D01*
X63864782Y-52590962D01*
X63837915Y-52625060D01*
X63818766Y-52668813D01*
X63806487Y-52728185D01*
X63800229Y-52809141D01*
X63799143Y-52917647D01*
X63802380Y-53059666D01*
X63809092Y-53241163D01*
X63818430Y-53468104D01*
X63827712Y-53699000D01*
X63835441Y-53909387D01*
X63841773Y-54105421D01*
X63846507Y-54278810D01*
X63849445Y-54421261D01*
X63850387Y-54524484D01*
X63849133Y-54580187D01*
X63848958Y-54582095D01*
X63844601Y-54607109D01*
X63835264Y-54618807D01*
X63817240Y-54613040D01*
X63786823Y-54585659D01*
X63740307Y-54532517D01*
X63673983Y-54449463D01*
X63584147Y-54332348D01*
X63467091Y-54177025D01*
X63363586Y-54038817D01*
X63239740Y-53874234D01*
X63126384Y-53725466D01*
X63028001Y-53598244D01*
X62949074Y-53498303D01*
X62894085Y-53431376D01*
X62867516Y-53403197D01*
X62866239Y-53402666D01*
X62835562Y-53419239D01*
X62774908Y-53462111D01*
X62697294Y-53521013D01*
X62615739Y-53585674D01*
X62543260Y-53645825D01*
X62492877Y-53691195D01*
X62477392Y-53709420D01*
X62492188Y-53735158D01*
X62536928Y-53800318D01*
X62607465Y-53899336D01*
X62699655Y-54026647D01*
X62809350Y-54176685D01*
X62932406Y-54343885D01*
X63064677Y-54522682D01*
X63202016Y-54707512D01*
X63340278Y-54892808D01*
X63475318Y-55073006D01*
X63602989Y-55242542D01*
X63719145Y-55395848D01*
X63819642Y-55527362D01*
X63900333Y-55631517D01*
X63957072Y-55702748D01*
X63985713Y-55735491D01*
X63987848Y-55736981D01*
X64018860Y-55723562D01*
X64079282Y-55682640D01*
X64149888Y-55627974D01*
X64232769Y-55561339D01*
X64305002Y-55504824D01*
X64344063Y-55475650D01*
X64358393Y-55463551D01*
X64369584Y-55445775D01*
X64377759Y-55416454D01*
X64383037Y-55369724D01*
X64385542Y-55299719D01*
X64385393Y-55200574D01*
X64382714Y-55066424D01*
X64377624Y-54891401D01*
X64370245Y-54669642D01*
X64364295Y-54498102D01*
X64356024Y-54269785D01*
X64347737Y-54056664D01*
X64339761Y-53866040D01*
X64332423Y-53705217D01*
X64326051Y-53581497D01*
X64320973Y-53502183D01*
X64318539Y-53478010D01*
X64316459Y-53424412D01*
X64329569Y-53407423D01*
X64329649Y-53407454D01*
X64352142Y-53431674D01*
X64403681Y-53495417D01*
X64479745Y-53592829D01*
X64575814Y-53718054D01*
X64687365Y-53865238D01*
X64809877Y-54028525D01*
X64827228Y-54051777D01*
X64950146Y-54216572D01*
X65061717Y-54366094D01*
X65157590Y-54494517D01*
X65233415Y-54596013D01*
X65284839Y-54664758D01*
X65307512Y-54694924D01*
X65308156Y-54695751D01*
X65332374Y-54684744D01*
X65387132Y-54645746D01*
X65460834Y-54588322D01*
X65541880Y-54522035D01*
X65618673Y-54456447D01*
X65679613Y-54401124D01*
X65713105Y-54365627D01*
X65716222Y-54359272D01*
X65699978Y-54333492D01*
X65654033Y-54268204D01*
X65582570Y-54169045D01*
X65489770Y-54041652D01*
X65379815Y-53891661D01*
X65256885Y-53724708D01*
X65125163Y-53546431D01*
X64988831Y-53362465D01*
X64852069Y-53178448D01*
X64719060Y-53000015D01*
X64593985Y-52832804D01*
X64481026Y-52682451D01*
X64384364Y-52554592D01*
X64308181Y-52454864D01*
X64256659Y-52388904D01*
X64236700Y-52364968D01*
X64211356Y-52354342D01*
X64169442Y-52367984D01*
G37*
X64169442Y-52367984D02*
X64102456Y-52410280D01*
X64001894Y-52485615D01*
X64000182Y-52486945D01*
X63945067Y-52527869D01*
X63900216Y-52560553D01*
X63864782Y-52590962D01*
X63837915Y-52625060D01*
X63818766Y-52668813D01*
X63806487Y-52728185D01*
X63800229Y-52809141D01*
X63799143Y-52917647D01*
X63802380Y-53059666D01*
X63809092Y-53241163D01*
X63818430Y-53468104D01*
X63827712Y-53699000D01*
X63835441Y-53909387D01*
X63841773Y-54105421D01*
X63846507Y-54278810D01*
X63849445Y-54421261D01*
X63850387Y-54524484D01*
X63849133Y-54580187D01*
X63848958Y-54582095D01*
X63844601Y-54607109D01*
X63835264Y-54618807D01*
X63817240Y-54613040D01*
X63786823Y-54585659D01*
X63740307Y-54532517D01*
X63673983Y-54449463D01*
X63584147Y-54332348D01*
X63467091Y-54177025D01*
X63363586Y-54038817D01*
X63239740Y-53874234D01*
X63126384Y-53725466D01*
X63028001Y-53598244D01*
X62949074Y-53498303D01*
X62894085Y-53431376D01*
X62867516Y-53403197D01*
X62866239Y-53402666D01*
X62835562Y-53419239D01*
X62774908Y-53462111D01*
X62697294Y-53521013D01*
X62615739Y-53585674D01*
X62543260Y-53645825D01*
X62492877Y-53691195D01*
X62477392Y-53709420D01*
X62492188Y-53735158D01*
X62536928Y-53800318D01*
X62607465Y-53899336D01*
X62699655Y-54026647D01*
X62809350Y-54176685D01*
X62932406Y-54343885D01*
X63064677Y-54522682D01*
X63202016Y-54707512D01*
X63340278Y-54892808D01*
X63475318Y-55073006D01*
X63602989Y-55242542D01*
X63719145Y-55395848D01*
X63819642Y-55527362D01*
X63900333Y-55631517D01*
X63957072Y-55702748D01*
X63985713Y-55735491D01*
X63987848Y-55736981D01*
X64018860Y-55723562D01*
X64079282Y-55682640D01*
X64149888Y-55627974D01*
X64232769Y-55561339D01*
X64305002Y-55504824D01*
X64344063Y-55475650D01*
X64358393Y-55463551D01*
X64369584Y-55445775D01*
X64377759Y-55416454D01*
X64383037Y-55369724D01*
X64385542Y-55299719D01*
X64385393Y-55200574D01*
X64382714Y-55066424D01*
X64377624Y-54891401D01*
X64370245Y-54669642D01*
X64364295Y-54498102D01*
X64356024Y-54269785D01*
X64347737Y-54056664D01*
X64339761Y-53866040D01*
X64332423Y-53705217D01*
X64326051Y-53581497D01*
X64320973Y-53502183D01*
X64318539Y-53478010D01*
X64316459Y-53424412D01*
X64329569Y-53407423D01*
X64329649Y-53407454D01*
X64352142Y-53431674D01*
X64403681Y-53495417D01*
X64479745Y-53592829D01*
X64575814Y-53718054D01*
X64687365Y-53865238D01*
X64809877Y-54028525D01*
X64827228Y-54051777D01*
X64950146Y-54216572D01*
X65061717Y-54366094D01*
X65157590Y-54494517D01*
X65233415Y-54596013D01*
X65284839Y-54664758D01*
X65307512Y-54694924D01*
X65308156Y-54695751D01*
X65332374Y-54684744D01*
X65387132Y-54645746D01*
X65460834Y-54588322D01*
X65541880Y-54522035D01*
X65618673Y-54456447D01*
X65679613Y-54401124D01*
X65713105Y-54365627D01*
X65716222Y-54359272D01*
X65699978Y-54333492D01*
X65654033Y-54268204D01*
X65582570Y-54169045D01*
X65489770Y-54041652D01*
X65379815Y-53891661D01*
X65256885Y-53724708D01*
X65125163Y-53546431D01*
X64988831Y-53362465D01*
X64852069Y-53178448D01*
X64719060Y-53000015D01*
X64593985Y-52832804D01*
X64481026Y-52682451D01*
X64384364Y-52554592D01*
X64308181Y-52454864D01*
X64256659Y-52388904D01*
X64236700Y-52364968D01*
X64211356Y-52354342D01*
X64169442Y-52367984D01*
G36*
X57806005Y-53866636D02*
G01*
X57622446Y-53886294D01*
X57548889Y-54179843D01*
X57518875Y-54300572D01*
X57494771Y-54399334D01*
X57479414Y-54464389D01*
X57475333Y-54484229D01*
X57499930Y-54483825D01*
X57563285Y-54471327D01*
X57622594Y-54456865D01*
X57788176Y-54427572D01*
X57965511Y-54418840D01*
X58135366Y-54430104D01*
X58278506Y-54460796D01*
X58322000Y-54477482D01*
X58481312Y-54569957D01*
X58594475Y-54685322D01*
X58665601Y-54830415D01*
X58698800Y-55012070D01*
X58702469Y-55110111D01*
X58682392Y-55344316D01*
X58623387Y-55546840D01*
X58528770Y-55713933D01*
X58401853Y-55841847D01*
X58245952Y-55926834D01*
X58064380Y-55965145D01*
X57947161Y-55964386D01*
X57796517Y-55940195D01*
X57656205Y-55888866D01*
X57511379Y-55803546D01*
X57375196Y-55700451D01*
X57296954Y-55638878D01*
X57237405Y-55596064D01*
X57208094Y-55580241D01*
X57207123Y-55580580D01*
X57196676Y-55610167D01*
X57175985Y-55682480D01*
X57148405Y-55785462D01*
X57127379Y-55867049D01*
X57057020Y-56144134D01*
X57210375Y-56242234D01*
X57439551Y-56370393D01*
X57668847Y-56458101D01*
X57814000Y-56495025D01*
X57933837Y-56518795D01*
X58022696Y-56529045D01*
X58104268Y-56526294D01*
X58202245Y-56511066D01*
X58237333Y-56504346D01*
X58330693Y-56478183D01*
X58446249Y-56434982D01*
X58542997Y-56391661D01*
X58755410Y-56257179D01*
X58933342Y-56083964D01*
X59074752Y-55879471D01*
X59177601Y-55651157D01*
X59239850Y-55406479D01*
X59259459Y-55152892D01*
X59234388Y-54897852D01*
X59162599Y-54648816D01*
X59071183Y-54460663D01*
X58922557Y-54261155D01*
X58735233Y-54097910D01*
X58516381Y-53974293D01*
X58273171Y-53893670D01*
X58012771Y-53859408D01*
X57806005Y-53866636D01*
G37*
X57806005Y-53866636D02*
X57622446Y-53886294D01*
X57548889Y-54179843D01*
X57518875Y-54300572D01*
X57494771Y-54399334D01*
X57479414Y-54464389D01*
X57475333Y-54484229D01*
X57499930Y-54483825D01*
X57563285Y-54471327D01*
X57622594Y-54456865D01*
X57788176Y-54427572D01*
X57965511Y-54418840D01*
X58135366Y-54430104D01*
X58278506Y-54460796D01*
X58322000Y-54477482D01*
X58481312Y-54569957D01*
X58594475Y-54685322D01*
X58665601Y-54830415D01*
X58698800Y-55012070D01*
X58702469Y-55110111D01*
X58682392Y-55344316D01*
X58623387Y-55546840D01*
X58528770Y-55713933D01*
X58401853Y-55841847D01*
X58245952Y-55926834D01*
X58064380Y-55965145D01*
X57947161Y-55964386D01*
X57796517Y-55940195D01*
X57656205Y-55888866D01*
X57511379Y-55803546D01*
X57375196Y-55700451D01*
X57296954Y-55638878D01*
X57237405Y-55596064D01*
X57208094Y-55580241D01*
X57207123Y-55580580D01*
X57196676Y-55610167D01*
X57175985Y-55682480D01*
X57148405Y-55785462D01*
X57127379Y-55867049D01*
X57057020Y-56144134D01*
X57210375Y-56242234D01*
X57439551Y-56370393D01*
X57668847Y-56458101D01*
X57814000Y-56495025D01*
X57933837Y-56518795D01*
X58022696Y-56529045D01*
X58104268Y-56526294D01*
X58202245Y-56511066D01*
X58237333Y-56504346D01*
X58330693Y-56478183D01*
X58446249Y-56434982D01*
X58542997Y-56391661D01*
X58755410Y-56257179D01*
X58933342Y-56083964D01*
X59074752Y-55879471D01*
X59177601Y-55651157D01*
X59239850Y-55406479D01*
X59259459Y-55152892D01*
X59234388Y-54897852D01*
X59162599Y-54648816D01*
X59071183Y-54460663D01*
X58922557Y-54261155D01*
X58735233Y-54097910D01*
X58516381Y-53974293D01*
X58273171Y-53893670D01*
X58012771Y-53859408D01*
X57806005Y-53866636D01*
G36*
X61128197Y-54075733D02*
G01*
X61036804Y-54088016D01*
X60943836Y-54104412D01*
X60867109Y-54122092D01*
X60824438Y-54138230D01*
X60822038Y-54140387D01*
X60815269Y-54168958D01*
X60799097Y-54246410D01*
X60774798Y-54366202D01*
X60743654Y-54521789D01*
X60706941Y-54706630D01*
X60665939Y-54914182D01*
X60621926Y-55137902D01*
X60576182Y-55371247D01*
X60529985Y-55607675D01*
X60484613Y-55840643D01*
X60441345Y-56063608D01*
X60401460Y-56270028D01*
X60366238Y-56453360D01*
X60336955Y-56607061D01*
X60314892Y-56724588D01*
X60301326Y-56799399D01*
X60297432Y-56824611D01*
X60320603Y-56840707D01*
X60391350Y-56839201D01*
X60511960Y-56819912D01*
X60605777Y-56800481D01*
X60700246Y-56778375D01*
X60770413Y-56759245D01*
X60800105Y-56747746D01*
X60811362Y-56715988D01*
X60830288Y-56642272D01*
X60853548Y-56540003D01*
X60863958Y-56491042D01*
X60888282Y-56380368D01*
X60910029Y-56292250D01*
X60925751Y-56240238D01*
X60929749Y-56232399D01*
X60961127Y-56222081D01*
X61038397Y-56203094D01*
X61152049Y-56177592D01*
X61292579Y-56147728D01*
X61404253Y-56124897D01*
X61588588Y-56089135D01*
X61723596Y-56066245D01*
X61814742Y-56055548D01*
X61867494Y-56056367D01*
X61885940Y-56065164D01*
X61910413Y-56103748D01*
X61955243Y-56176511D01*
X62011699Y-56269260D01*
X62024875Y-56291042D01*
X62141585Y-56484195D01*
X62293467Y-56465218D01*
X62406345Y-56447351D01*
X62517277Y-56423967D01*
X62558098Y-56413176D01*
X62670846Y-56380111D01*
X62197904Y-55615862D01*
X61591714Y-55615862D01*
X61559174Y-55626283D01*
X61486885Y-55643082D01*
X61390733Y-55663129D01*
X61286607Y-55683295D01*
X61190396Y-55700450D01*
X61117986Y-55711465D01*
X61094833Y-55713736D01*
X61045463Y-55703022D01*
X61031377Y-55681611D01*
X61036843Y-55634700D01*
X61051313Y-55547086D01*
X61071975Y-55433259D01*
X61096017Y-55307710D01*
X61120628Y-55184930D01*
X61142995Y-55079409D01*
X61160306Y-55005637D01*
X61166920Y-54983113D01*
X61180576Y-54970561D01*
X61205525Y-54986797D01*
X61245779Y-55036855D01*
X61305350Y-55125771D01*
X61388251Y-55258580D01*
X61394275Y-55268414D01*
X61468005Y-55390543D01*
X61528743Y-55494346D01*
X61571479Y-55571008D01*
X61591203Y-55611714D01*
X61591714Y-55615862D01*
X62197904Y-55615862D01*
X61965065Y-55239608D01*
X61822577Y-55009663D01*
X61688708Y-54794215D01*
X61566465Y-54598064D01*
X61458857Y-54426011D01*
X61368892Y-54282854D01*
X61299578Y-54173395D01*
X61253925Y-54102431D01*
X61235000Y-54074822D01*
X61200201Y-54070392D01*
X61128197Y-54075733D01*
G37*
X61128197Y-54075733D02*
X61036804Y-54088016D01*
X60943836Y-54104412D01*
X60867109Y-54122092D01*
X60824438Y-54138230D01*
X60822038Y-54140387D01*
X60815269Y-54168958D01*
X60799097Y-54246410D01*
X60774798Y-54366202D01*
X60743654Y-54521789D01*
X60706941Y-54706630D01*
X60665939Y-54914182D01*
X60621926Y-55137902D01*
X60576182Y-55371247D01*
X60529985Y-55607675D01*
X60484613Y-55840643D01*
X60441345Y-56063608D01*
X60401460Y-56270028D01*
X60366238Y-56453360D01*
X60336955Y-56607061D01*
X60314892Y-56724588D01*
X60301326Y-56799399D01*
X60297432Y-56824611D01*
X60320603Y-56840707D01*
X60391350Y-56839201D01*
X60511960Y-56819912D01*
X60605777Y-56800481D01*
X60700246Y-56778375D01*
X60770413Y-56759245D01*
X60800105Y-56747746D01*
X60811362Y-56715988D01*
X60830288Y-56642272D01*
X60853548Y-56540003D01*
X60863958Y-56491042D01*
X60888282Y-56380368D01*
X60910029Y-56292250D01*
X60925751Y-56240238D01*
X60929749Y-56232399D01*
X60961127Y-56222081D01*
X61038397Y-56203094D01*
X61152049Y-56177592D01*
X61292579Y-56147728D01*
X61404253Y-56124897D01*
X61588588Y-56089135D01*
X61723596Y-56066245D01*
X61814742Y-56055548D01*
X61867494Y-56056367D01*
X61885940Y-56065164D01*
X61910413Y-56103748D01*
X61955243Y-56176511D01*
X62011699Y-56269260D01*
X62024875Y-56291042D01*
X62141585Y-56484195D01*
X62293467Y-56465218D01*
X62406345Y-56447351D01*
X62517277Y-56423967D01*
X62558098Y-56413176D01*
X62670846Y-56380111D01*
X62197904Y-55615862D01*
X61591714Y-55615862D01*
X61559174Y-55626283D01*
X61486885Y-55643082D01*
X61390733Y-55663129D01*
X61286607Y-55683295D01*
X61190396Y-55700450D01*
X61117986Y-55711465D01*
X61094833Y-55713736D01*
X61045463Y-55703022D01*
X61031377Y-55681611D01*
X61036843Y-55634700D01*
X61051313Y-55547086D01*
X61071975Y-55433259D01*
X61096017Y-55307710D01*
X61120628Y-55184930D01*
X61142995Y-55079409D01*
X61160306Y-55005637D01*
X61166920Y-54983113D01*
X61180576Y-54970561D01*
X61205525Y-54986797D01*
X61245779Y-55036855D01*
X61305350Y-55125771D01*
X61388251Y-55258580D01*
X61394275Y-55268414D01*
X61468005Y-55390543D01*
X61528743Y-55494346D01*
X61571479Y-55571008D01*
X61591203Y-55611714D01*
X61591714Y-55615862D01*
X62197904Y-55615862D01*
X61965065Y-55239608D01*
X61822577Y-55009663D01*
X61688708Y-54794215D01*
X61566465Y-54598064D01*
X61458857Y-54426011D01*
X61368892Y-54282854D01*
X61299578Y-54173395D01*
X61253925Y-54102431D01*
X61235000Y-54074822D01*
X61200201Y-54070392D01*
X61128197Y-54075733D01*
G36*
X58941867Y-40707561D02*
G01*
X58271727Y-40807536D01*
X57613686Y-40960851D01*
X57197438Y-41088042D01*
X56562045Y-41329852D01*
X55951150Y-41620301D01*
X55368038Y-41957106D01*
X54815995Y-42337986D01*
X54298306Y-42760658D01*
X53818257Y-43222842D01*
X53379135Y-43722256D01*
X53347931Y-43761163D01*
X52948909Y-44305579D01*
X52600575Y-44871538D01*
X52302753Y-45456111D01*
X52055268Y-46056370D01*
X51857944Y-46669386D01*
X51710606Y-47292229D01*
X51613079Y-47921970D01*
X51565186Y-48555681D01*
X51566753Y-49190432D01*
X51617603Y-49823294D01*
X51717562Y-50451339D01*
X51866454Y-51071638D01*
X52064103Y-51681261D01*
X52310334Y-52277279D01*
X52604971Y-52856764D01*
X52947839Y-53416787D01*
X53338762Y-53954418D01*
X53777565Y-54466729D01*
X54003437Y-54701077D01*
X54505294Y-55163004D01*
X55040175Y-55580498D01*
X55604789Y-55952338D01*
X56195845Y-56277302D01*
X56810052Y-56554168D01*
X57444118Y-56781714D01*
X58094752Y-56958719D01*
X58758663Y-57083961D01*
X59432561Y-57156218D01*
X60113153Y-57174269D01*
X60608000Y-57152831D01*
X61281108Y-57076522D01*
X61938817Y-56948027D01*
X62578575Y-56769302D01*
X63197831Y-56542301D01*
X63794034Y-56268979D01*
X64364634Y-55951289D01*
X64907080Y-55591186D01*
X65418820Y-55190626D01*
X65897305Y-54751561D01*
X66339983Y-54275947D01*
X66744304Y-53765739D01*
X67107717Y-53222890D01*
X67427670Y-52649355D01*
X67701614Y-52047089D01*
X67872276Y-51586845D01*
X68061918Y-50935852D01*
X68196433Y-50276455D01*
X68275975Y-49611653D01*
X68300699Y-48944443D01*
X68300468Y-48939283D01*
X68042013Y-48939283D01*
X68017514Y-49591749D01*
X67938708Y-50243445D01*
X67805261Y-50891433D01*
X67616839Y-51532775D01*
X67534437Y-51764279D01*
X67480429Y-51902597D01*
X67418465Y-52050843D01*
X67352830Y-52199933D01*
X67287806Y-52340779D01*
X67227678Y-52464297D01*
X67176730Y-52561400D01*
X67139244Y-52623002D01*
X67121253Y-52640666D01*
X67107328Y-52657570D01*
X67110501Y-52664486D01*
X67102254Y-52696883D01*
X67068304Y-52767570D01*
X67013901Y-52867638D01*
X66944295Y-52988175D01*
X66864736Y-53120273D01*
X66780474Y-53255020D01*
X66696760Y-53383507D01*
X66626103Y-53486598D01*
X66295232Y-53922247D01*
X65931747Y-54337402D01*
X65701939Y-54573889D01*
X65202655Y-55031408D01*
X64674628Y-55440364D01*
X64118010Y-55800683D01*
X63532953Y-56112290D01*
X62919607Y-56375112D01*
X62278125Y-56589073D01*
X61608658Y-56754100D01*
X61073666Y-56847853D01*
X60928641Y-56865575D01*
X60739148Y-56883473D01*
X60517157Y-56900603D01*
X60274632Y-56916019D01*
X60085888Y-56925914D01*
X60029249Y-56925604D01*
X59928081Y-56922125D01*
X59794180Y-56915995D01*
X59639342Y-56907731D01*
X59543144Y-56902078D01*
X59045914Y-56860113D01*
X58582041Y-56795095D01*
X58131873Y-56703372D01*
X57675763Y-56581288D01*
X57462677Y-56515259D01*
X56828652Y-56281757D01*
X56217197Y-55997221D01*
X55631607Y-55663669D01*
X55075179Y-55283120D01*
X54551206Y-54857591D01*
X54171109Y-54499720D01*
X53718605Y-54007619D01*
X53314960Y-53490870D01*
X52959975Y-52952332D01*
X52653452Y-52394863D01*
X52395192Y-51821325D01*
X52184996Y-51234577D01*
X52022666Y-50637478D01*
X51908003Y-50032888D01*
X51840808Y-49423667D01*
X51820884Y-48812675D01*
X51848030Y-48202770D01*
X51922050Y-47596813D01*
X52042743Y-46997663D01*
X52209912Y-46408181D01*
X52423357Y-45831225D01*
X52682881Y-45269655D01*
X52988284Y-44726332D01*
X53339368Y-44204114D01*
X53735935Y-43705861D01*
X54177785Y-43234434D01*
X54664720Y-42792691D01*
X55002846Y-42524682D01*
X55548300Y-42149885D01*
X56120853Y-41823266D01*
X56717023Y-41545560D01*
X57333329Y-41317503D01*
X57966291Y-41139828D01*
X58612428Y-41013270D01*
X59268259Y-40938565D01*
X59930304Y-40916446D01*
X60595081Y-40947649D01*
X61259110Y-41032908D01*
X61678989Y-41115488D01*
X62324944Y-41288666D01*
X62952537Y-41514005D01*
X63558569Y-41789293D01*
X64139837Y-42112321D01*
X64693142Y-42480879D01*
X65215284Y-42892755D01*
X65703062Y-43345741D01*
X66153275Y-43837626D01*
X66562723Y-44366199D01*
X66720924Y-44597333D01*
X67067236Y-45172901D01*
X67361575Y-45768270D01*
X67603608Y-46380502D01*
X67793002Y-47006658D01*
X67929424Y-47643799D01*
X68012538Y-48288987D01*
X68042013Y-48939283D01*
X68300468Y-48939283D01*
X68270758Y-48277824D01*
X68186306Y-47614795D01*
X68047497Y-46958354D01*
X67854486Y-46311498D01*
X67607427Y-45677227D01*
X67563622Y-45578726D01*
X67262339Y-44980397D01*
X66914169Y-44411058D01*
X66521938Y-43872974D01*
X66088474Y-43368409D01*
X65616604Y-42899625D01*
X65109157Y-42468887D01*
X64568959Y-42078459D01*
X63998838Y-41730605D01*
X63401623Y-41427587D01*
X62780139Y-41171671D01*
X62137216Y-40965119D01*
X61652222Y-40846005D01*
X60979283Y-40730147D01*
X60300205Y-40668618D01*
X59619546Y-40661172D01*
X58941867Y-40707561D01*
G37*
X58941867Y-40707561D02*
X58271727Y-40807536D01*
X57613686Y-40960851D01*
X57197438Y-41088042D01*
X56562045Y-41329852D01*
X55951150Y-41620301D01*
X55368038Y-41957106D01*
X54815995Y-42337986D01*
X54298306Y-42760658D01*
X53818257Y-43222842D01*
X53379135Y-43722256D01*
X53347931Y-43761163D01*
X52948909Y-44305579D01*
X52600575Y-44871538D01*
X52302753Y-45456111D01*
X52055268Y-46056370D01*
X51857944Y-46669386D01*
X51710606Y-47292229D01*
X51613079Y-47921970D01*
X51565186Y-48555681D01*
X51566753Y-49190432D01*
X51617603Y-49823294D01*
X51717562Y-50451339D01*
X51866454Y-51071638D01*
X52064103Y-51681261D01*
X52310334Y-52277279D01*
X52604971Y-52856764D01*
X52947839Y-53416787D01*
X53338762Y-53954418D01*
X53777565Y-54466729D01*
X54003437Y-54701077D01*
X54505294Y-55163004D01*
X55040175Y-55580498D01*
X55604789Y-55952338D01*
X56195845Y-56277302D01*
X56810052Y-56554168D01*
X57444118Y-56781714D01*
X58094752Y-56958719D01*
X58758663Y-57083961D01*
X59432561Y-57156218D01*
X60113153Y-57174269D01*
X60608000Y-57152831D01*
X61281108Y-57076522D01*
X61938817Y-56948027D01*
X62578575Y-56769302D01*
X63197831Y-56542301D01*
X63794034Y-56268979D01*
X64364634Y-55951289D01*
X64907080Y-55591186D01*
X65418820Y-55190626D01*
X65897305Y-54751561D01*
X66339983Y-54275947D01*
X66744304Y-53765739D01*
X67107717Y-53222890D01*
X67427670Y-52649355D01*
X67701614Y-52047089D01*
X67872276Y-51586845D01*
X68061918Y-50935852D01*
X68196433Y-50276455D01*
X68275975Y-49611653D01*
X68300699Y-48944443D01*
X68300468Y-48939283D01*
X68042013Y-48939283D01*
X68017514Y-49591749D01*
X67938708Y-50243445D01*
X67805261Y-50891433D01*
X67616839Y-51532775D01*
X67534437Y-51764279D01*
X67480429Y-51902597D01*
X67418465Y-52050843D01*
X67352830Y-52199933D01*
X67287806Y-52340779D01*
X67227678Y-52464297D01*
X67176730Y-52561400D01*
X67139244Y-52623002D01*
X67121253Y-52640666D01*
X67107328Y-52657570D01*
X67110501Y-52664486D01*
X67102254Y-52696883D01*
X67068304Y-52767570D01*
X67013901Y-52867638D01*
X66944295Y-52988175D01*
X66864736Y-53120273D01*
X66780474Y-53255020D01*
X66696760Y-53383507D01*
X66626103Y-53486598D01*
X66295232Y-53922247D01*
X65931747Y-54337402D01*
X65701939Y-54573889D01*
X65202655Y-55031408D01*
X64674628Y-55440364D01*
X64118010Y-55800683D01*
X63532953Y-56112290D01*
X62919607Y-56375112D01*
X62278125Y-56589073D01*
X61608658Y-56754100D01*
X61073666Y-56847853D01*
X60928641Y-56865575D01*
X60739148Y-56883473D01*
X60517157Y-56900603D01*
X60274632Y-56916019D01*
X60085888Y-56925914D01*
X60029249Y-56925604D01*
X59928081Y-56922125D01*
X59794180Y-56915995D01*
X59639342Y-56907731D01*
X59543144Y-56902078D01*
X59045914Y-56860113D01*
X58582041Y-56795095D01*
X58131873Y-56703372D01*
X57675763Y-56581288D01*
X57462677Y-56515259D01*
X56828652Y-56281757D01*
X56217197Y-55997221D01*
X55631607Y-55663669D01*
X55075179Y-55283120D01*
X54551206Y-54857591D01*
X54171109Y-54499720D01*
X53718605Y-54007619D01*
X53314960Y-53490870D01*
X52959975Y-52952332D01*
X52653452Y-52394863D01*
X52395192Y-51821325D01*
X52184996Y-51234577D01*
X52022666Y-50637478D01*
X51908003Y-50032888D01*
X51840808Y-49423667D01*
X51820884Y-48812675D01*
X51848030Y-48202770D01*
X51922050Y-47596813D01*
X52042743Y-46997663D01*
X52209912Y-46408181D01*
X52423357Y-45831225D01*
X52682881Y-45269655D01*
X52988284Y-44726332D01*
X53339368Y-44204114D01*
X53735935Y-43705861D01*
X54177785Y-43234434D01*
X54664720Y-42792691D01*
X55002846Y-42524682D01*
X55548300Y-42149885D01*
X56120853Y-41823266D01*
X56717023Y-41545560D01*
X57333329Y-41317503D01*
X57966291Y-41139828D01*
X58612428Y-41013270D01*
X59268259Y-40938565D01*
X59930304Y-40916446D01*
X60595081Y-40947649D01*
X61259110Y-41032908D01*
X61678989Y-41115488D01*
X62324944Y-41288666D01*
X62952537Y-41514005D01*
X63558569Y-41789293D01*
X64139837Y-42112321D01*
X64693142Y-42480879D01*
X65215284Y-42892755D01*
X65703062Y-43345741D01*
X66153275Y-43837626D01*
X66562723Y-44366199D01*
X66720924Y-44597333D01*
X67067236Y-45172901D01*
X67361575Y-45768270D01*
X67603608Y-46380502D01*
X67793002Y-47006658D01*
X67929424Y-47643799D01*
X68012538Y-48288987D01*
X68042013Y-48939283D01*
X68300468Y-48939283D01*
X68270758Y-48277824D01*
X68186306Y-47614795D01*
X68047497Y-46958354D01*
X67854486Y-46311498D01*
X67607427Y-45677227D01*
X67563622Y-45578726D01*
X67262339Y-44980397D01*
X66914169Y-44411058D01*
X66521938Y-43872974D01*
X66088474Y-43368409D01*
X65616604Y-42899625D01*
X65109157Y-42468887D01*
X64568959Y-42078459D01*
X63998838Y-41730605D01*
X63401623Y-41427587D01*
X62780139Y-41171671D01*
X62137216Y-40965119D01*
X61652222Y-40846005D01*
X60979283Y-40730147D01*
X60300205Y-40668618D01*
X59619546Y-40661172D01*
X58941867Y-40707561D01*
D12*
X56638571Y-35241904D02*
X56638571Y-35813333D01*
X56676666Y-35927619D01*
X56752857Y-36003809D01*
X56867142Y-36041904D01*
X56943333Y-36041904D01*
X55838571Y-36041904D02*
X56295714Y-36041904D01*
X56067142Y-36041904D02*
X56067142Y-35241904D01*
X56143333Y-35356190D01*
X56219523Y-35432380D01*
X56295714Y-35470476D01*
X55343333Y-35241904D02*
X55267142Y-35241904D01*
X55190952Y-35280000D01*
X55152857Y-35318095D01*
X55114761Y-35394285D01*
X55076666Y-35546666D01*
X55076666Y-35737142D01*
X55114761Y-35889523D01*
X55152857Y-35965714D01*
X55190952Y-36003809D01*
X55267142Y-36041904D01*
X55343333Y-36041904D01*
X55419523Y-36003809D01*
X55457619Y-35965714D01*
X55495714Y-35889523D01*
X55533809Y-35737142D01*
X55533809Y-35546666D01*
X55495714Y-35394285D01*
X55457619Y-35318095D01*
X55419523Y-35280000D01*
X55343333Y-35241904D01*
X54390952Y-35508571D02*
X54390952Y-36041904D01*
X54581428Y-35203809D02*
X54771904Y-35775238D01*
X54276666Y-35775238D01*
X61308571Y-35311904D02*
X61308571Y-35883333D01*
X61346666Y-35997619D01*
X61422857Y-36073809D01*
X61537142Y-36111904D01*
X61613333Y-36111904D01*
X60508571Y-36111904D02*
X60965714Y-36111904D01*
X60737142Y-36111904D02*
X60737142Y-35311904D01*
X60813333Y-35426190D01*
X60889523Y-35502380D01*
X60965714Y-35540476D01*
X60013333Y-35311904D02*
X59937142Y-35311904D01*
X59860952Y-35350000D01*
X59822857Y-35388095D01*
X59784761Y-35464285D01*
X59746666Y-35616666D01*
X59746666Y-35807142D01*
X59784761Y-35959523D01*
X59822857Y-36035714D01*
X59860952Y-36073809D01*
X59937142Y-36111904D01*
X60013333Y-36111904D01*
X60089523Y-36073809D01*
X60127619Y-36035714D01*
X60165714Y-35959523D01*
X60203809Y-35807142D01*
X60203809Y-35616666D01*
X60165714Y-35464285D01*
X60127619Y-35388095D01*
X60089523Y-35350000D01*
X60013333Y-35311904D01*
X59480000Y-35311904D02*
X58984761Y-35311904D01*
X59251428Y-35616666D01*
X59137142Y-35616666D01*
X59060952Y-35654761D01*
X59022857Y-35692857D01*
X58984761Y-35769047D01*
X58984761Y-35959523D01*
X59022857Y-36035714D01*
X59060952Y-36073809D01*
X59137142Y-36111904D01*
X59365714Y-36111904D01*
X59441904Y-36073809D01*
X59480000Y-36035714D01*
M02*
