G04 #@! TF.GenerationSoftware,KiCad,Pcbnew,(5.1.5-0-10_14)*
G04 #@! TF.CreationDate,2019-12-09T00:47:21-08:00*
G04 #@! TF.ProjectId,powersupply,706f7765-7273-4757-9070-6c792e6b6963,rev?*
G04 #@! TF.SameCoordinates,Original*
G04 #@! TF.FileFunction,Legend,Top*
G04 #@! TF.FilePolarity,Positive*
%FSLAX46Y46*%
G04 Gerber Fmt 4.6, Leading zero omitted, Abs format (unit mm)*
G04 Created by KiCad (PCBNEW (5.1.5-0-10_14)) date 2019-12-09 00:47:21*
%MOMM*%
%LPD*%
G04 APERTURE LIST*
%ADD10C,0.200000*%
%ADD11C,0.250000*%
%ADD12C,0.175000*%
%ADD13C,0.300000*%
%ADD14C,0.375000*%
%ADD15C,0.120000*%
%ADD16C,0.100000*%
%ADD17C,0.150000*%
G04 APERTURE END LIST*
D10*
X72383333Y-45767857D02*
X72497619Y-45805952D01*
X72535714Y-45844047D01*
X72573809Y-45920238D01*
X72573809Y-46034523D01*
X72535714Y-46110714D01*
X72497619Y-46148809D01*
X72421428Y-46186904D01*
X72116666Y-46186904D01*
X72116666Y-45386904D01*
X72383333Y-45386904D01*
X72459523Y-45425000D01*
X72497619Y-45463095D01*
X72535714Y-45539285D01*
X72535714Y-45615476D01*
X72497619Y-45691666D01*
X72459523Y-45729761D01*
X72383333Y-45767857D01*
X72116666Y-45767857D01*
X73069047Y-45386904D02*
X73221428Y-45386904D01*
X73297619Y-45425000D01*
X73373809Y-45501190D01*
X73411904Y-45653571D01*
X73411904Y-45920238D01*
X73373809Y-46072619D01*
X73297619Y-46148809D01*
X73221428Y-46186904D01*
X73069047Y-46186904D01*
X72992857Y-46148809D01*
X72916666Y-46072619D01*
X72878571Y-45920238D01*
X72878571Y-45653571D01*
X72916666Y-45501190D01*
X72992857Y-45425000D01*
X73069047Y-45386904D01*
X73907142Y-45386904D02*
X74059523Y-45386904D01*
X74135714Y-45425000D01*
X74211904Y-45501190D01*
X74250000Y-45653571D01*
X74250000Y-45920238D01*
X74211904Y-46072619D01*
X74135714Y-46148809D01*
X74059523Y-46186904D01*
X73907142Y-46186904D01*
X73830952Y-46148809D01*
X73754761Y-46072619D01*
X73716666Y-45920238D01*
X73716666Y-45653571D01*
X73754761Y-45501190D01*
X73830952Y-45425000D01*
X73907142Y-45386904D01*
X74478571Y-45386904D02*
X74935714Y-45386904D01*
X74707142Y-46186904D02*
X74707142Y-45386904D01*
X75621428Y-46186904D02*
X75164285Y-46186904D01*
X75392857Y-46186904D02*
X75392857Y-45386904D01*
X75316666Y-45501190D01*
X75240476Y-45577380D01*
X75164285Y-45615476D01*
X46863095Y-44086904D02*
X46596428Y-43705952D01*
X46405952Y-44086904D02*
X46405952Y-43286904D01*
X46710714Y-43286904D01*
X46786904Y-43325000D01*
X46825000Y-43363095D01*
X46863095Y-43439285D01*
X46863095Y-43553571D01*
X46825000Y-43629761D01*
X46786904Y-43667857D01*
X46710714Y-43705952D01*
X46405952Y-43705952D01*
X47205952Y-43667857D02*
X47472619Y-43667857D01*
X47586904Y-44086904D02*
X47205952Y-44086904D01*
X47205952Y-43286904D01*
X47586904Y-43286904D01*
X47891666Y-44048809D02*
X48005952Y-44086904D01*
X48196428Y-44086904D01*
X48272619Y-44048809D01*
X48310714Y-44010714D01*
X48348809Y-43934523D01*
X48348809Y-43858333D01*
X48310714Y-43782142D01*
X48272619Y-43744047D01*
X48196428Y-43705952D01*
X48044047Y-43667857D01*
X47967857Y-43629761D01*
X47929761Y-43591666D01*
X47891666Y-43515476D01*
X47891666Y-43439285D01*
X47929761Y-43363095D01*
X47967857Y-43325000D01*
X48044047Y-43286904D01*
X48234523Y-43286904D01*
X48348809Y-43325000D01*
X48691666Y-43667857D02*
X48958333Y-43667857D01*
X49072619Y-44086904D02*
X48691666Y-44086904D01*
X48691666Y-43286904D01*
X49072619Y-43286904D01*
X49301190Y-43286904D02*
X49758333Y-43286904D01*
X49529761Y-44086904D02*
X49529761Y-43286904D01*
D11*
X77419642Y-50852380D02*
X77752976Y-51852380D01*
X78086309Y-50852380D01*
X79657738Y-51852380D02*
X79181547Y-51852380D01*
X79181547Y-50852380D01*
X79991071Y-51852380D02*
X79991071Y-51185714D01*
X79991071Y-50852380D02*
X79943452Y-50900000D01*
X79991071Y-50947619D01*
X80038690Y-50900000D01*
X79991071Y-50852380D01*
X79991071Y-50947619D01*
X80467261Y-51852380D02*
X80467261Y-51185714D01*
X80467261Y-51280952D02*
X80514880Y-51233333D01*
X80610119Y-51185714D01*
X80752976Y-51185714D01*
X80848214Y-51233333D01*
X80895833Y-51328571D01*
X80895833Y-51852380D01*
X80895833Y-51328571D02*
X80943452Y-51233333D01*
X81038690Y-51185714D01*
X81181547Y-51185714D01*
X81276785Y-51233333D01*
X81324404Y-51328571D01*
X81324404Y-51852380D01*
X82562500Y-51852380D02*
X82562500Y-50852380D01*
X82800595Y-50852380D01*
X82943452Y-50900000D01*
X83038690Y-50995238D01*
X83086309Y-51090476D01*
X83133928Y-51280952D01*
X83133928Y-51423809D01*
X83086309Y-51614285D01*
X83038690Y-51709523D01*
X82943452Y-51804761D01*
X82800595Y-51852380D01*
X82562500Y-51852380D01*
X83562500Y-51852380D02*
X83562500Y-51185714D01*
X83562500Y-50852380D02*
X83514880Y-50900000D01*
X83562500Y-50947619D01*
X83610119Y-50900000D01*
X83562500Y-50852380D01*
X83562500Y-50947619D01*
X83943452Y-51185714D02*
X84181547Y-51852380D01*
X84419642Y-51185714D01*
D12*
X72466666Y-56008333D02*
X73166666Y-55775000D01*
X72466666Y-55541666D01*
X73166666Y-54441666D02*
X73166666Y-54775000D01*
X72466666Y-54775000D01*
X73166666Y-54208333D02*
X72700000Y-54208333D01*
X72466666Y-54208333D02*
X72500000Y-54241666D01*
X72533333Y-54208333D01*
X72500000Y-54175000D01*
X72466666Y-54208333D01*
X72533333Y-54208333D01*
X72700000Y-53875000D02*
X73166666Y-53875000D01*
X72766666Y-53875000D02*
X72733333Y-53841666D01*
X72700000Y-53775000D01*
X72700000Y-53675000D01*
X72733333Y-53608333D01*
X72800000Y-53575000D01*
X73166666Y-53575000D01*
X73100000Y-52308333D02*
X73133333Y-52341666D01*
X73166666Y-52441666D01*
X73166666Y-52508333D01*
X73133333Y-52608333D01*
X73066666Y-52675000D01*
X73000000Y-52708333D01*
X72866666Y-52741666D01*
X72766666Y-52741666D01*
X72633333Y-52708333D01*
X72566666Y-52675000D01*
X72500000Y-52608333D01*
X72466666Y-52508333D01*
X72466666Y-52441666D01*
X72500000Y-52341666D01*
X72533333Y-52308333D01*
D13*
X37964285Y-30778571D02*
X37964285Y-29278571D01*
X38321428Y-29278571D01*
X38535714Y-29350000D01*
X38678571Y-29492857D01*
X38750000Y-29635714D01*
X38821428Y-29921428D01*
X38821428Y-30135714D01*
X38750000Y-30421428D01*
X38678571Y-30564285D01*
X38535714Y-30707142D01*
X38321428Y-30778571D01*
X37964285Y-30778571D01*
X41392857Y-29350000D02*
X41250000Y-29278571D01*
X41035714Y-29278571D01*
X40821428Y-29350000D01*
X40678571Y-29492857D01*
X40607142Y-29635714D01*
X40535714Y-29921428D01*
X40535714Y-30135714D01*
X40607142Y-30421428D01*
X40678571Y-30564285D01*
X40821428Y-30707142D01*
X41035714Y-30778571D01*
X41178571Y-30778571D01*
X41392857Y-30707142D01*
X41464285Y-30635714D01*
X41464285Y-30135714D01*
X41178571Y-30135714D01*
X44107142Y-30635714D02*
X44035714Y-30707142D01*
X43821428Y-30778571D01*
X43678571Y-30778571D01*
X43464285Y-30707142D01*
X43321428Y-30564285D01*
X43250000Y-30421428D01*
X43178571Y-30135714D01*
X43178571Y-29921428D01*
X43250000Y-29635714D01*
X43321428Y-29492857D01*
X43464285Y-29350000D01*
X43678571Y-29278571D01*
X43821428Y-29278571D01*
X44035714Y-29350000D01*
X44107142Y-29421428D01*
D11*
X49373214Y-52252380D02*
X49706547Y-53252380D01*
X50039880Y-52252380D01*
X51468452Y-52728571D02*
X51611309Y-52776190D01*
X51658928Y-52823809D01*
X51706547Y-52919047D01*
X51706547Y-53061904D01*
X51658928Y-53157142D01*
X51611309Y-53204761D01*
X51516071Y-53252380D01*
X51135119Y-53252380D01*
X51135119Y-52252380D01*
X51468452Y-52252380D01*
X51563690Y-52300000D01*
X51611309Y-52347619D01*
X51658928Y-52442857D01*
X51658928Y-52538095D01*
X51611309Y-52633333D01*
X51563690Y-52680952D01*
X51468452Y-52728571D01*
X51135119Y-52728571D01*
X52277976Y-53252380D02*
X52182738Y-53204761D01*
X52135119Y-53157142D01*
X52087500Y-53061904D01*
X52087500Y-52776190D01*
X52135119Y-52680952D01*
X52182738Y-52633333D01*
X52277976Y-52585714D01*
X52420833Y-52585714D01*
X52516071Y-52633333D01*
X52563690Y-52680952D01*
X52611309Y-52776190D01*
X52611309Y-53061904D01*
X52563690Y-53157142D01*
X52516071Y-53204761D01*
X52420833Y-53252380D01*
X52277976Y-53252380D01*
X53182738Y-53252380D02*
X53087500Y-53204761D01*
X53039880Y-53157142D01*
X52992261Y-53061904D01*
X52992261Y-52776190D01*
X53039880Y-52680952D01*
X53087500Y-52633333D01*
X53182738Y-52585714D01*
X53325595Y-52585714D01*
X53420833Y-52633333D01*
X53468452Y-52680952D01*
X53516071Y-52776190D01*
X53516071Y-53061904D01*
X53468452Y-53157142D01*
X53420833Y-53204761D01*
X53325595Y-53252380D01*
X53182738Y-53252380D01*
X53897023Y-53204761D02*
X53992261Y-53252380D01*
X54182738Y-53252380D01*
X54277976Y-53204761D01*
X54325595Y-53109523D01*
X54325595Y-53061904D01*
X54277976Y-52966666D01*
X54182738Y-52919047D01*
X54039880Y-52919047D01*
X53944642Y-52871428D01*
X53897023Y-52776190D01*
X53897023Y-52728571D01*
X53944642Y-52633333D01*
X54039880Y-52585714D01*
X54182738Y-52585714D01*
X54277976Y-52633333D01*
X54611309Y-52585714D02*
X54992261Y-52585714D01*
X54754166Y-52252380D02*
X54754166Y-53109523D01*
X54801785Y-53204761D01*
X54897023Y-53252380D01*
X54992261Y-53252380D01*
X53182738Y-54907142D02*
X53135119Y-54954761D01*
X52992261Y-55002380D01*
X52897023Y-55002380D01*
X52754166Y-54954761D01*
X52658928Y-54859523D01*
X52611309Y-54764285D01*
X52563690Y-54573809D01*
X52563690Y-54430952D01*
X52611309Y-54240476D01*
X52658928Y-54145238D01*
X52754166Y-54050000D01*
X52897023Y-54002380D01*
X52992261Y-54002380D01*
X53135119Y-54050000D01*
X53182738Y-54097619D01*
X53468452Y-54335714D02*
X53849404Y-54335714D01*
X53611309Y-54002380D02*
X53611309Y-54859523D01*
X53658928Y-54954761D01*
X53754166Y-55002380D01*
X53849404Y-55002380D01*
X54182738Y-55002380D02*
X54182738Y-54335714D01*
X54182738Y-54526190D02*
X54230357Y-54430952D01*
X54277976Y-54383333D01*
X54373214Y-54335714D01*
X54468452Y-54335714D01*
X54944642Y-55002380D02*
X54849404Y-54954761D01*
X54801785Y-54859523D01*
X54801785Y-54002380D01*
D14*
X54348571Y-90177142D02*
X55491428Y-90177142D01*
X63078571Y-90107142D02*
X64221428Y-90107142D01*
X63650000Y-90678571D02*
X63650000Y-89535714D01*
D15*
X34684165Y-52178000D02*
G75*
G03X34684165Y-52178000I-194165J0D01*
G01*
D11*
X29531976Y-39187428D02*
X30293880Y-39187428D01*
X29912928Y-39568380D02*
X29912928Y-38806476D01*
X31246261Y-38568380D02*
X30770071Y-38568380D01*
X30722452Y-39044571D01*
X30770071Y-38996952D01*
X30865309Y-38949333D01*
X31103404Y-38949333D01*
X31198642Y-38996952D01*
X31246261Y-39044571D01*
X31293880Y-39139809D01*
X31293880Y-39377904D01*
X31246261Y-39473142D01*
X31198642Y-39520761D01*
X31103404Y-39568380D01*
X30865309Y-39568380D01*
X30770071Y-39520761D01*
X30722452Y-39473142D01*
X31579595Y-38568380D02*
X31912928Y-39568380D01*
X32246261Y-38568380D01*
D12*
X64879166Y-56433333D02*
X65579166Y-56200000D01*
X64879166Y-55966666D01*
X65512500Y-54800000D02*
X65545833Y-54833333D01*
X65579166Y-54933333D01*
X65579166Y-55000000D01*
X65545833Y-55100000D01*
X65479166Y-55166666D01*
X65412500Y-55200000D01*
X65279166Y-55233333D01*
X65179166Y-55233333D01*
X65045833Y-55200000D01*
X64979166Y-55166666D01*
X64912500Y-55100000D01*
X64879166Y-55000000D01*
X64879166Y-54933333D01*
X64912500Y-54833333D01*
X64945833Y-54800000D01*
X65112500Y-54200000D02*
X65579166Y-54200000D01*
X65112500Y-54500000D02*
X65479166Y-54500000D01*
X65545833Y-54466666D01*
X65579166Y-54400000D01*
X65579166Y-54300000D01*
X65545833Y-54233333D01*
X65512500Y-54200000D01*
X65579166Y-53866666D02*
X65112500Y-53866666D01*
X65245833Y-53866666D02*
X65179166Y-53833333D01*
X65145833Y-53800000D01*
X65112500Y-53733333D01*
X65112500Y-53666666D01*
X66804166Y-53600000D02*
X66804166Y-53933333D01*
X66104166Y-53933333D01*
X66804166Y-53366666D02*
X66337500Y-53366666D01*
X66104166Y-53366666D02*
X66137500Y-53400000D01*
X66170833Y-53366666D01*
X66137500Y-53333333D01*
X66104166Y-53366666D01*
X66170833Y-53366666D01*
X66804166Y-53033333D02*
X66337500Y-53033333D01*
X66404166Y-53033333D02*
X66370833Y-53000000D01*
X66337500Y-52933333D01*
X66337500Y-52833333D01*
X66370833Y-52766666D01*
X66437500Y-52733333D01*
X66804166Y-52733333D01*
X66437500Y-52733333D02*
X66370833Y-52700000D01*
X66337500Y-52633333D01*
X66337500Y-52533333D01*
X66370833Y-52466666D01*
X66437500Y-52433333D01*
X66804166Y-52433333D01*
D11*
X40025000Y-36771428D02*
X40786904Y-36771428D01*
X40405952Y-37152380D02*
X40405952Y-36390476D01*
X41167857Y-36152380D02*
X41786904Y-36152380D01*
X41453571Y-36533333D01*
X41596428Y-36533333D01*
X41691666Y-36580952D01*
X41739285Y-36628571D01*
X41786904Y-36723809D01*
X41786904Y-36961904D01*
X41739285Y-37057142D01*
X41691666Y-37104761D01*
X41596428Y-37152380D01*
X41310714Y-37152380D01*
X41215476Y-37104761D01*
X41167857Y-37057142D01*
X42215476Y-37057142D02*
X42263095Y-37104761D01*
X42215476Y-37152380D01*
X42167857Y-37104761D01*
X42215476Y-37057142D01*
X42215476Y-37152380D01*
X42596428Y-36152380D02*
X43215476Y-36152380D01*
X42882142Y-36533333D01*
X43025000Y-36533333D01*
X43120238Y-36580952D01*
X43167857Y-36628571D01*
X43215476Y-36723809D01*
X43215476Y-36961904D01*
X43167857Y-37057142D01*
X43120238Y-37104761D01*
X43025000Y-37152380D01*
X42739285Y-37152380D01*
X42644047Y-37104761D01*
X42596428Y-37057142D01*
X43501190Y-36152380D02*
X43834523Y-37152380D01*
X44167857Y-36152380D01*
X85293452Y-77403571D02*
X85436309Y-77451190D01*
X85483928Y-77498809D01*
X85531547Y-77594047D01*
X85531547Y-77736904D01*
X85483928Y-77832142D01*
X85436309Y-77879761D01*
X85341071Y-77927380D01*
X84960119Y-77927380D01*
X84960119Y-76927380D01*
X85293452Y-76927380D01*
X85388690Y-76975000D01*
X85436309Y-77022619D01*
X85483928Y-77117857D01*
X85483928Y-77213095D01*
X85436309Y-77308333D01*
X85388690Y-77355952D01*
X85293452Y-77403571D01*
X84960119Y-77403571D01*
X86102976Y-77927380D02*
X86007738Y-77879761D01*
X85960119Y-77832142D01*
X85912500Y-77736904D01*
X85912500Y-77451190D01*
X85960119Y-77355952D01*
X86007738Y-77308333D01*
X86102976Y-77260714D01*
X86245833Y-77260714D01*
X86341071Y-77308333D01*
X86388690Y-77355952D01*
X86436309Y-77451190D01*
X86436309Y-77736904D01*
X86388690Y-77832142D01*
X86341071Y-77879761D01*
X86245833Y-77927380D01*
X86102976Y-77927380D01*
X87007738Y-77927380D02*
X86912500Y-77879761D01*
X86864880Y-77832142D01*
X86817261Y-77736904D01*
X86817261Y-77451190D01*
X86864880Y-77355952D01*
X86912500Y-77308333D01*
X87007738Y-77260714D01*
X87150595Y-77260714D01*
X87245833Y-77308333D01*
X87293452Y-77355952D01*
X87341071Y-77451190D01*
X87341071Y-77736904D01*
X87293452Y-77832142D01*
X87245833Y-77879761D01*
X87150595Y-77927380D01*
X87007738Y-77927380D01*
X87722023Y-77879761D02*
X87817261Y-77927380D01*
X88007738Y-77927380D01*
X88102976Y-77879761D01*
X88150595Y-77784523D01*
X88150595Y-77736904D01*
X88102976Y-77641666D01*
X88007738Y-77594047D01*
X87864880Y-77594047D01*
X87769642Y-77546428D01*
X87722023Y-77451190D01*
X87722023Y-77403571D01*
X87769642Y-77308333D01*
X87864880Y-77260714D01*
X88007738Y-77260714D01*
X88102976Y-77308333D01*
X88436309Y-77260714D02*
X88817261Y-77260714D01*
X88579166Y-76927380D02*
X88579166Y-77784523D01*
X88626785Y-77879761D01*
X88722023Y-77927380D01*
X88817261Y-77927380D01*
X86817261Y-78677380D02*
X87007738Y-78677380D01*
X87102976Y-78725000D01*
X87198214Y-78820238D01*
X87245833Y-79010714D01*
X87245833Y-79344047D01*
X87198214Y-79534523D01*
X87102976Y-79629761D01*
X87007738Y-79677380D01*
X86817261Y-79677380D01*
X86722023Y-79629761D01*
X86626785Y-79534523D01*
X86579166Y-79344047D01*
X86579166Y-79010714D01*
X86626785Y-78820238D01*
X86722023Y-78725000D01*
X86817261Y-78677380D01*
X88102976Y-79010714D02*
X88102976Y-79677380D01*
X87674404Y-79010714D02*
X87674404Y-79534523D01*
X87722023Y-79629761D01*
X87817261Y-79677380D01*
X87960119Y-79677380D01*
X88055357Y-79629761D01*
X88102976Y-79582142D01*
X88436309Y-79010714D02*
X88817261Y-79010714D01*
X88579166Y-78677380D02*
X88579166Y-79534523D01*
X88626785Y-79629761D01*
X88722023Y-79677380D01*
X88817261Y-79677380D01*
X76988095Y-89600000D02*
X76892857Y-89552380D01*
X76750000Y-89552380D01*
X76607142Y-89600000D01*
X76511904Y-89695238D01*
X76464285Y-89790476D01*
X76416666Y-89980952D01*
X76416666Y-90123809D01*
X76464285Y-90314285D01*
X76511904Y-90409523D01*
X76607142Y-90504761D01*
X76750000Y-90552380D01*
X76845238Y-90552380D01*
X76988095Y-90504761D01*
X77035714Y-90457142D01*
X77035714Y-90123809D01*
X76845238Y-90123809D01*
X77464285Y-90552380D02*
X77464285Y-89552380D01*
X78035714Y-90552380D01*
X78035714Y-89552380D01*
X78511904Y-90552380D02*
X78511904Y-89552380D01*
X78750000Y-89552380D01*
X78892857Y-89600000D01*
X78988095Y-89695238D01*
X79035714Y-89790476D01*
X79083333Y-89980952D01*
X79083333Y-90123809D01*
X79035714Y-90314285D01*
X78988095Y-90409523D01*
X78892857Y-90504761D01*
X78750000Y-90552380D01*
X78511904Y-90552380D01*
D15*
X74550000Y-56450000D02*
X74550000Y-58350000D01*
X72650000Y-56450000D02*
X74550000Y-56450000D01*
X72650000Y-58350000D02*
X72650000Y-56450000D01*
X74550000Y-58350000D02*
X72650000Y-58350000D01*
X76750000Y-88650000D02*
X76750000Y-86750000D01*
X78650000Y-88650000D02*
X76750000Y-88650000D01*
X78650000Y-86750000D02*
X78650000Y-88650000D01*
X76750000Y-86750000D02*
X78650000Y-86750000D01*
X81550000Y-77750000D02*
X81550000Y-75850000D01*
X83450000Y-77750000D02*
X81550000Y-77750000D01*
X83450000Y-75850000D02*
X83450000Y-77750000D01*
X81550000Y-75850000D02*
X83450000Y-75850000D01*
X75650000Y-58350000D02*
X75650000Y-56450000D01*
X77550000Y-58350000D02*
X75650000Y-58350000D01*
X77550000Y-56450000D02*
X77550000Y-58350000D01*
X75650000Y-56450000D02*
X77550000Y-56450000D01*
X53150000Y-58050000D02*
X53150000Y-56150000D01*
X55050000Y-58050000D02*
X53150000Y-58050000D01*
X55050000Y-56150000D02*
X55050000Y-58050000D01*
X53150000Y-56150000D02*
X55050000Y-56150000D01*
X63900000Y-59050000D02*
X63900000Y-57150000D01*
X65800000Y-59050000D02*
X63900000Y-59050000D01*
X65800000Y-57150000D02*
X65800000Y-59050000D01*
X63900000Y-57150000D02*
X65800000Y-57150000D01*
X46625000Y-35025000D02*
X46625000Y-36925000D01*
X44725000Y-35025000D02*
X46625000Y-35025000D01*
X44725000Y-36925000D02*
X44725000Y-35025000D01*
X46625000Y-36925000D02*
X44725000Y-36925000D01*
X33086000Y-39304000D02*
X33086000Y-37404000D01*
X34986000Y-39304000D02*
X33086000Y-39304000D01*
X34986000Y-37404000D02*
X34986000Y-39304000D01*
X33086000Y-37404000D02*
X34986000Y-37404000D01*
X71695000Y-30350000D02*
X46995000Y-30350000D01*
X71695000Y-30350000D02*
X71695000Y-34850000D01*
X46995000Y-30350000D02*
X46995000Y-34850000D01*
X52345000Y-57350000D02*
X52345000Y-55350000D01*
X66345000Y-55350000D02*
X66345000Y-57350000D01*
X66345000Y-57350000D02*
X71715000Y-57350000D01*
X52345000Y-57350000D02*
X46995000Y-57350000D01*
X46975000Y-57350000D02*
X46975000Y-52850000D01*
X71715000Y-57350000D02*
X71715000Y-52850000D01*
X56758578Y-35190000D02*
X56241422Y-35190000D01*
X56758578Y-36610000D02*
X56241422Y-36610000D01*
X54485000Y-34940000D02*
X51800000Y-34940000D01*
X54485000Y-36860000D02*
X54485000Y-34940000D01*
X51800000Y-36860000D02*
X54485000Y-36860000D01*
X73750000Y-47050000D02*
X73850000Y-47050000D01*
X75350000Y-51450000D02*
X75350000Y-47050000D01*
X72250000Y-47050000D02*
X72250000Y-51450000D01*
X73750000Y-51450000D02*
X73850000Y-51450000D01*
X80720000Y-72250000D02*
X80720000Y-69710000D01*
X83260000Y-72250000D02*
X83260000Y-69710000D01*
X85800000Y-72250000D02*
X85800000Y-69710000D01*
X78140000Y-55180000D02*
X78140000Y-53980000D01*
X78140000Y-57580000D02*
X78140000Y-56380000D01*
X78140000Y-59980000D02*
X78140000Y-58780000D01*
X88380000Y-55180000D02*
X88380000Y-53980000D01*
X88380000Y-57580000D02*
X88380000Y-56380000D01*
X88380000Y-59980000D02*
X88380000Y-58780000D01*
X78780000Y-53820000D02*
X78140000Y-53820000D01*
X81180000Y-53820000D02*
X79980000Y-53820000D01*
X83580000Y-53820000D02*
X82380000Y-53820000D01*
X85981000Y-53820000D02*
X84780000Y-53820000D01*
X88380000Y-53820000D02*
X87180000Y-53820000D01*
X78140000Y-69710000D02*
X78140000Y-60220000D01*
X88380000Y-69710000D02*
X88380000Y-60220000D01*
X88380000Y-60220000D02*
X78140000Y-60220000D01*
X88380000Y-69710000D02*
X78140000Y-69710000D01*
X66910000Y-50091422D02*
X66910000Y-50608578D01*
X65490000Y-50091422D02*
X65490000Y-50608578D01*
D16*
X86220000Y-37600000D02*
X86220000Y-47600000D01*
X86220000Y-47600000D02*
X76220000Y-47600000D01*
X76220000Y-47600000D02*
X76220000Y-37600000D01*
X76220000Y-37600000D02*
X86220000Y-37600000D01*
X82720000Y-42600000D02*
G75*
G03X82720000Y-42600000I-1500000J0D01*
G01*
D15*
X48101252Y-49640000D02*
X47578748Y-49640000D01*
X48101252Y-51060000D02*
X47578748Y-51060000D01*
X44865000Y-37648000D02*
X42180000Y-37648000D01*
X44865000Y-39568000D02*
X44865000Y-37648000D01*
X42180000Y-39568000D02*
X44865000Y-39568000D01*
X38095422Y-39318000D02*
X38612578Y-39318000D01*
X38095422Y-37898000D02*
X38612578Y-37898000D01*
X37120000Y-32900000D02*
X37120000Y-31570000D01*
X37120000Y-31570000D02*
X38450000Y-31570000D01*
X39720000Y-31570000D02*
X44860000Y-31570000D01*
X44860000Y-34230000D02*
X44860000Y-31570000D01*
X39720000Y-34230000D02*
X44860000Y-34230000D01*
X39720000Y-34230000D02*
X39720000Y-31570000D01*
X34558578Y-82190000D02*
X34041422Y-82190000D01*
X34558578Y-83610000D02*
X34041422Y-83610000D01*
X69241422Y-50610000D02*
X69758578Y-50610000D01*
X69241422Y-49190000D02*
X69758578Y-49190000D01*
X60670000Y-35271422D02*
X60670000Y-35788578D01*
X62090000Y-35271422D02*
X62090000Y-35788578D01*
X55570000Y-45831422D02*
X55570000Y-46348578D01*
X56990000Y-45831422D02*
X56990000Y-46348578D01*
X52290000Y-45781422D02*
X52290000Y-46298578D01*
X53710000Y-45781422D02*
X53710000Y-46298578D01*
X57603922Y-39310000D02*
X58121078Y-39310000D01*
X57603922Y-37890000D02*
X58121078Y-37890000D01*
X71748578Y-38190000D02*
X71231422Y-38190000D01*
X71748578Y-39610000D02*
X71231422Y-39610000D01*
X69241422Y-48140000D02*
X69758578Y-48140000D01*
X69241422Y-46720000D02*
X69758578Y-46720000D01*
X51794000Y-37336000D02*
X51794000Y-43086000D01*
X55394000Y-37336000D02*
X51794000Y-37336000D01*
X55394000Y-43086000D02*
X55394000Y-37336000D01*
X50130000Y-45960000D02*
X50130000Y-46060000D01*
X45730000Y-47560000D02*
X50130000Y-47560000D01*
X50130000Y-44460000D02*
X45730000Y-44460000D01*
X45730000Y-45960000D02*
X45730000Y-46060000D01*
X71758578Y-40390000D02*
X71241422Y-40390000D01*
X71758578Y-41810000D02*
X71241422Y-41810000D01*
X64510000Y-50958578D02*
X64510000Y-50441422D01*
X63090000Y-50958578D02*
X63090000Y-50441422D01*
X60890000Y-50441422D02*
X60890000Y-50958578D01*
X62310000Y-50441422D02*
X62310000Y-50958578D01*
X58290000Y-50091422D02*
X58290000Y-50608578D01*
X59710000Y-50091422D02*
X59710000Y-50608578D01*
X62310000Y-55408578D02*
X62310000Y-54891422D01*
X60890000Y-55408578D02*
X60890000Y-54891422D01*
X54910000Y-50208578D02*
X54910000Y-49691422D01*
X53490000Y-50208578D02*
X53490000Y-49691422D01*
X49788578Y-41200000D02*
X49271422Y-41200000D01*
X49788578Y-42620000D02*
X49271422Y-42620000D01*
X49788578Y-37898000D02*
X49271422Y-37898000D01*
X49788578Y-39318000D02*
X49271422Y-39318000D01*
X45295078Y-41200000D02*
X44777922Y-41200000D01*
X45295078Y-42620000D02*
X44777922Y-42620000D01*
X52760000Y-50208578D02*
X52760000Y-49691422D01*
X51340000Y-50208578D02*
X51340000Y-49691422D01*
X57510000Y-50608578D02*
X57510000Y-50091422D01*
X56090000Y-50608578D02*
X56090000Y-50091422D01*
X64510000Y-55408578D02*
X64510000Y-54891422D01*
X63090000Y-55408578D02*
X63090000Y-54891422D01*
X60100000Y-39790000D02*
X58810000Y-39790000D01*
X60100000Y-39340000D02*
X60100000Y-39790000D01*
X60550000Y-39340000D02*
X60100000Y-39340000D01*
X67320000Y-39340000D02*
X67320000Y-39790000D01*
X66870000Y-39340000D02*
X67320000Y-39340000D01*
X60100000Y-46560000D02*
X60100000Y-46110000D01*
X60550000Y-46560000D02*
X60100000Y-46560000D01*
X67320000Y-46560000D02*
X67320000Y-46110000D01*
X66870000Y-46560000D02*
X67320000Y-46560000D01*
X42154000Y-83164759D02*
X41524000Y-83164759D01*
X41839000Y-82849759D02*
X41839000Y-83479759D01*
X40402000Y-89591000D02*
X39598000Y-89591000D01*
X40633000Y-89551000D02*
X39367000Y-89551000D01*
X40802000Y-89511000D02*
X39198000Y-89511000D01*
X40940000Y-89471000D02*
X39060000Y-89471000D01*
X41059000Y-89431000D02*
X38941000Y-89431000D01*
X41165000Y-89391000D02*
X38835000Y-89391000D01*
X41262000Y-89351000D02*
X38738000Y-89351000D01*
X41350000Y-89311000D02*
X38650000Y-89311000D01*
X41432000Y-89271000D02*
X38568000Y-89271000D01*
X41509000Y-89231000D02*
X38491000Y-89231000D01*
X41581000Y-89191000D02*
X38419000Y-89191000D01*
X41650000Y-89151000D02*
X38350000Y-89151000D01*
X41714000Y-89111000D02*
X38286000Y-89111000D01*
X41776000Y-89071000D02*
X38224000Y-89071000D01*
X41834000Y-89031000D02*
X38166000Y-89031000D01*
X41890000Y-88991000D02*
X38110000Y-88991000D01*
X41944000Y-88951000D02*
X38056000Y-88951000D01*
X41995000Y-88911000D02*
X38005000Y-88911000D01*
X42044000Y-88871000D02*
X37956000Y-88871000D01*
X42092000Y-88831000D02*
X37908000Y-88831000D01*
X42137000Y-88791000D02*
X37863000Y-88791000D01*
X42182000Y-88751000D02*
X37818000Y-88751000D01*
X42224000Y-88711000D02*
X37776000Y-88711000D01*
X42265000Y-88671000D02*
X37735000Y-88671000D01*
X38960000Y-88631000D02*
X37695000Y-88631000D01*
X42305000Y-88631000D02*
X41040000Y-88631000D01*
X38960000Y-88591000D02*
X37657000Y-88591000D01*
X42343000Y-88591000D02*
X41040000Y-88591000D01*
X38960000Y-88551000D02*
X37620000Y-88551000D01*
X42380000Y-88551000D02*
X41040000Y-88551000D01*
X38960000Y-88511000D02*
X37584000Y-88511000D01*
X42416000Y-88511000D02*
X41040000Y-88511000D01*
X38960000Y-88471000D02*
X37550000Y-88471000D01*
X42450000Y-88471000D02*
X41040000Y-88471000D01*
X38960000Y-88431000D02*
X37516000Y-88431000D01*
X42484000Y-88431000D02*
X41040000Y-88431000D01*
X38960000Y-88391000D02*
X37484000Y-88391000D01*
X42516000Y-88391000D02*
X41040000Y-88391000D01*
X38960000Y-88351000D02*
X37452000Y-88351000D01*
X42548000Y-88351000D02*
X41040000Y-88351000D01*
X38960000Y-88311000D02*
X37422000Y-88311000D01*
X42578000Y-88311000D02*
X41040000Y-88311000D01*
X38960000Y-88271000D02*
X37393000Y-88271000D01*
X42607000Y-88271000D02*
X41040000Y-88271000D01*
X38960000Y-88231000D02*
X37364000Y-88231000D01*
X42636000Y-88231000D02*
X41040000Y-88231000D01*
X38960000Y-88191000D02*
X37336000Y-88191000D01*
X42664000Y-88191000D02*
X41040000Y-88191000D01*
X38960000Y-88151000D02*
X37310000Y-88151000D01*
X42690000Y-88151000D02*
X41040000Y-88151000D01*
X38960000Y-88111000D02*
X37284000Y-88111000D01*
X42716000Y-88111000D02*
X41040000Y-88111000D01*
X38960000Y-88071000D02*
X37258000Y-88071000D01*
X42742000Y-88071000D02*
X41040000Y-88071000D01*
X38960000Y-88031000D02*
X37234000Y-88031000D01*
X42766000Y-88031000D02*
X41040000Y-88031000D01*
X38960000Y-87991000D02*
X37210000Y-87991000D01*
X42790000Y-87991000D02*
X41040000Y-87991000D01*
X38960000Y-87951000D02*
X37188000Y-87951000D01*
X42812000Y-87951000D02*
X41040000Y-87951000D01*
X38960000Y-87911000D02*
X37166000Y-87911000D01*
X42834000Y-87911000D02*
X41040000Y-87911000D01*
X38960000Y-87871000D02*
X37144000Y-87871000D01*
X42856000Y-87871000D02*
X41040000Y-87871000D01*
X38960000Y-87831000D02*
X37124000Y-87831000D01*
X42876000Y-87831000D02*
X41040000Y-87831000D01*
X38960000Y-87791000D02*
X37104000Y-87791000D01*
X42896000Y-87791000D02*
X41040000Y-87791000D01*
X38960000Y-87751000D02*
X37084000Y-87751000D01*
X42916000Y-87751000D02*
X41040000Y-87751000D01*
X38960000Y-87711000D02*
X37066000Y-87711000D01*
X42934000Y-87711000D02*
X41040000Y-87711000D01*
X38960000Y-87671000D02*
X37048000Y-87671000D01*
X42952000Y-87671000D02*
X41040000Y-87671000D01*
X38960000Y-87631000D02*
X37030000Y-87631000D01*
X42970000Y-87631000D02*
X41040000Y-87631000D01*
X38960000Y-87591000D02*
X37014000Y-87591000D01*
X42986000Y-87591000D02*
X41040000Y-87591000D01*
X38960000Y-87551000D02*
X36998000Y-87551000D01*
X43002000Y-87551000D02*
X41040000Y-87551000D01*
X38960000Y-87511000D02*
X36982000Y-87511000D01*
X43018000Y-87511000D02*
X41040000Y-87511000D01*
X38960000Y-87471000D02*
X36967000Y-87471000D01*
X43033000Y-87471000D02*
X41040000Y-87471000D01*
X38960000Y-87431000D02*
X36953000Y-87431000D01*
X43047000Y-87431000D02*
X41040000Y-87431000D01*
X38960000Y-87391000D02*
X36939000Y-87391000D01*
X43061000Y-87391000D02*
X41040000Y-87391000D01*
X38960000Y-87351000D02*
X36926000Y-87351000D01*
X43074000Y-87351000D02*
X41040000Y-87351000D01*
X38960000Y-87311000D02*
X36914000Y-87311000D01*
X43086000Y-87311000D02*
X41040000Y-87311000D01*
X38960000Y-87271000D02*
X36902000Y-87271000D01*
X43098000Y-87271000D02*
X41040000Y-87271000D01*
X38960000Y-87231000D02*
X36890000Y-87231000D01*
X43110000Y-87231000D02*
X41040000Y-87231000D01*
X38960000Y-87191000D02*
X36879000Y-87191000D01*
X43121000Y-87191000D02*
X41040000Y-87191000D01*
X38960000Y-87151000D02*
X36869000Y-87151000D01*
X43131000Y-87151000D02*
X41040000Y-87151000D01*
X38960000Y-87111000D02*
X36859000Y-87111000D01*
X43141000Y-87111000D02*
X41040000Y-87111000D01*
X38960000Y-87071000D02*
X36850000Y-87071000D01*
X43150000Y-87071000D02*
X41040000Y-87071000D01*
X38960000Y-87030000D02*
X36841000Y-87030000D01*
X43159000Y-87030000D02*
X41040000Y-87030000D01*
X38960000Y-86990000D02*
X36833000Y-86990000D01*
X43167000Y-86990000D02*
X41040000Y-86990000D01*
X38960000Y-86950000D02*
X36825000Y-86950000D01*
X43175000Y-86950000D02*
X41040000Y-86950000D01*
X38960000Y-86910000D02*
X36818000Y-86910000D01*
X43182000Y-86910000D02*
X41040000Y-86910000D01*
X38960000Y-86870000D02*
X36811000Y-86870000D01*
X43189000Y-86870000D02*
X41040000Y-86870000D01*
X38960000Y-86830000D02*
X36805000Y-86830000D01*
X43195000Y-86830000D02*
X41040000Y-86830000D01*
X38960000Y-86790000D02*
X36799000Y-86790000D01*
X43201000Y-86790000D02*
X41040000Y-86790000D01*
X38960000Y-86750000D02*
X36794000Y-86750000D01*
X43206000Y-86750000D02*
X41040000Y-86750000D01*
X38960000Y-86710000D02*
X36789000Y-86710000D01*
X43211000Y-86710000D02*
X41040000Y-86710000D01*
X38960000Y-86670000D02*
X36785000Y-86670000D01*
X43215000Y-86670000D02*
X41040000Y-86670000D01*
X38960000Y-86630000D02*
X36782000Y-86630000D01*
X43218000Y-86630000D02*
X41040000Y-86630000D01*
X38960000Y-86590000D02*
X36778000Y-86590000D01*
X43222000Y-86590000D02*
X41040000Y-86590000D01*
X43224000Y-86550000D02*
X36776000Y-86550000D01*
X43227000Y-86510000D02*
X36773000Y-86510000D01*
X43228000Y-86470000D02*
X36772000Y-86470000D01*
X43230000Y-86430000D02*
X36770000Y-86430000D01*
X43230000Y-86390000D02*
X36770000Y-86390000D01*
X43230000Y-86350000D02*
X36770000Y-86350000D01*
X43270000Y-86350000D02*
G75*
G03X43270000Y-86350000I-3270000J0D01*
G01*
X39825000Y-71020354D02*
X38825000Y-71020354D01*
X39325000Y-70520354D02*
X39325000Y-71520354D01*
X37049000Y-81081000D02*
X35851000Y-81081000D01*
X37312000Y-81041000D02*
X35588000Y-81041000D01*
X37512000Y-81001000D02*
X35388000Y-81001000D01*
X37680000Y-80961000D02*
X35220000Y-80961000D01*
X37828000Y-80921000D02*
X35072000Y-80921000D01*
X37960000Y-80881000D02*
X34940000Y-80881000D01*
X38080000Y-80841000D02*
X34820000Y-80841000D01*
X38192000Y-80801000D02*
X34708000Y-80801000D01*
X38296000Y-80761000D02*
X34604000Y-80761000D01*
X38394000Y-80721000D02*
X34506000Y-80721000D01*
X38487000Y-80681000D02*
X34413000Y-80681000D01*
X38575000Y-80641000D02*
X34325000Y-80641000D01*
X38659000Y-80601000D02*
X34241000Y-80601000D01*
X38739000Y-80561000D02*
X34161000Y-80561000D01*
X38815000Y-80521000D02*
X34085000Y-80521000D01*
X38889000Y-80481000D02*
X34011000Y-80481000D01*
X38960000Y-80441000D02*
X33940000Y-80441000D01*
X39029000Y-80401000D02*
X33871000Y-80401000D01*
X39095000Y-80361000D02*
X33805000Y-80361000D01*
X39159000Y-80321000D02*
X33741000Y-80321000D01*
X39220000Y-80281000D02*
X33680000Y-80281000D01*
X39280000Y-80241000D02*
X33620000Y-80241000D01*
X39339000Y-80201000D02*
X33561000Y-80201000D01*
X39395000Y-80161000D02*
X33505000Y-80161000D01*
X39450000Y-80121000D02*
X33450000Y-80121000D01*
X39504000Y-80081000D02*
X33396000Y-80081000D01*
X39556000Y-80041000D02*
X33344000Y-80041000D01*
X39606000Y-80001000D02*
X33294000Y-80001000D01*
X39656000Y-79961000D02*
X33244000Y-79961000D01*
X39704000Y-79921000D02*
X33196000Y-79921000D01*
X39751000Y-79881000D02*
X33149000Y-79881000D01*
X39797000Y-79841000D02*
X33103000Y-79841000D01*
X39842000Y-79801000D02*
X33058000Y-79801000D01*
X39886000Y-79761000D02*
X33014000Y-79761000D01*
X35209000Y-79721000D02*
X32972000Y-79721000D01*
X39928000Y-79721000D02*
X37691000Y-79721000D01*
X35209000Y-79681000D02*
X32930000Y-79681000D01*
X39970000Y-79681000D02*
X37691000Y-79681000D01*
X35209000Y-79641000D02*
X32889000Y-79641000D01*
X40011000Y-79641000D02*
X37691000Y-79641000D01*
X35209000Y-79601000D02*
X32849000Y-79601000D01*
X40051000Y-79601000D02*
X37691000Y-79601000D01*
X35209000Y-79561000D02*
X32810000Y-79561000D01*
X40090000Y-79561000D02*
X37691000Y-79561000D01*
X35209000Y-79521000D02*
X32771000Y-79521000D01*
X40129000Y-79521000D02*
X37691000Y-79521000D01*
X35209000Y-79481000D02*
X32734000Y-79481000D01*
X40166000Y-79481000D02*
X37691000Y-79481000D01*
X35209000Y-79441000D02*
X32697000Y-79441000D01*
X40203000Y-79441000D02*
X37691000Y-79441000D01*
X35209000Y-79401000D02*
X32661000Y-79401000D01*
X40239000Y-79401000D02*
X37691000Y-79401000D01*
X35209000Y-79361000D02*
X32626000Y-79361000D01*
X40274000Y-79361000D02*
X37691000Y-79361000D01*
X35209000Y-79321000D02*
X32592000Y-79321000D01*
X40308000Y-79321000D02*
X37691000Y-79321000D01*
X35209000Y-79281000D02*
X32558000Y-79281000D01*
X40342000Y-79281000D02*
X37691000Y-79281000D01*
X35209000Y-79241000D02*
X32525000Y-79241000D01*
X40375000Y-79241000D02*
X37691000Y-79241000D01*
X35209000Y-79201000D02*
X32493000Y-79201000D01*
X40407000Y-79201000D02*
X37691000Y-79201000D01*
X35209000Y-79161000D02*
X32461000Y-79161000D01*
X40439000Y-79161000D02*
X37691000Y-79161000D01*
X35209000Y-79121000D02*
X32430000Y-79121000D01*
X40470000Y-79121000D02*
X37691000Y-79121000D01*
X35209000Y-79081000D02*
X32400000Y-79081000D01*
X40500000Y-79081000D02*
X37691000Y-79081000D01*
X35209000Y-79041000D02*
X32370000Y-79041000D01*
X40530000Y-79041000D02*
X37691000Y-79041000D01*
X35209000Y-79001000D02*
X32340000Y-79001000D01*
X40560000Y-79001000D02*
X37691000Y-79001000D01*
X35209000Y-78961000D02*
X32312000Y-78961000D01*
X40588000Y-78961000D02*
X37691000Y-78961000D01*
X35209000Y-78921000D02*
X32284000Y-78921000D01*
X40616000Y-78921000D02*
X37691000Y-78921000D01*
X35209000Y-78881000D02*
X32256000Y-78881000D01*
X40644000Y-78881000D02*
X37691000Y-78881000D01*
X35209000Y-78841000D02*
X32229000Y-78841000D01*
X40671000Y-78841000D02*
X37691000Y-78841000D01*
X35209000Y-78801000D02*
X32203000Y-78801000D01*
X40697000Y-78801000D02*
X37691000Y-78801000D01*
X35209000Y-78761000D02*
X32177000Y-78761000D01*
X40723000Y-78761000D02*
X37691000Y-78761000D01*
X35209000Y-78721000D02*
X32152000Y-78721000D01*
X40748000Y-78721000D02*
X37691000Y-78721000D01*
X35209000Y-78681000D02*
X32127000Y-78681000D01*
X40773000Y-78681000D02*
X37691000Y-78681000D01*
X35209000Y-78641000D02*
X32103000Y-78641000D01*
X40797000Y-78641000D02*
X37691000Y-78641000D01*
X35209000Y-78601000D02*
X32079000Y-78601000D01*
X40821000Y-78601000D02*
X37691000Y-78601000D01*
X35209000Y-78561000D02*
X32055000Y-78561000D01*
X40845000Y-78561000D02*
X37691000Y-78561000D01*
X35209000Y-78521000D02*
X32033000Y-78521000D01*
X40867000Y-78521000D02*
X37691000Y-78521000D01*
X35209000Y-78481000D02*
X32010000Y-78481000D01*
X40890000Y-78481000D02*
X37691000Y-78481000D01*
X35209000Y-78441000D02*
X31988000Y-78441000D01*
X40912000Y-78441000D02*
X37691000Y-78441000D01*
X35209000Y-78401000D02*
X31967000Y-78401000D01*
X40933000Y-78401000D02*
X37691000Y-78401000D01*
X35209000Y-78361000D02*
X31946000Y-78361000D01*
X40954000Y-78361000D02*
X37691000Y-78361000D01*
X35209000Y-78321000D02*
X31925000Y-78321000D01*
X40975000Y-78321000D02*
X37691000Y-78321000D01*
X35209000Y-78281000D02*
X31905000Y-78281000D01*
X40995000Y-78281000D02*
X37691000Y-78281000D01*
X35209000Y-78241000D02*
X31886000Y-78241000D01*
X41014000Y-78241000D02*
X37691000Y-78241000D01*
X35209000Y-78201000D02*
X31866000Y-78201000D01*
X41034000Y-78201000D02*
X37691000Y-78201000D01*
X35209000Y-78161000D02*
X31847000Y-78161000D01*
X41053000Y-78161000D02*
X37691000Y-78161000D01*
X35209000Y-78121000D02*
X31829000Y-78121000D01*
X41071000Y-78121000D02*
X37691000Y-78121000D01*
X35209000Y-78081000D02*
X31811000Y-78081000D01*
X41089000Y-78081000D02*
X37691000Y-78081000D01*
X35209000Y-78041000D02*
X31793000Y-78041000D01*
X41107000Y-78041000D02*
X37691000Y-78041000D01*
X35209000Y-78001000D02*
X31776000Y-78001000D01*
X41124000Y-78001000D02*
X37691000Y-78001000D01*
X35209000Y-77961000D02*
X31760000Y-77961000D01*
X41140000Y-77961000D02*
X37691000Y-77961000D01*
X35209000Y-77921000D02*
X31743000Y-77921000D01*
X41157000Y-77921000D02*
X37691000Y-77921000D01*
X35209000Y-77881000D02*
X31727000Y-77881000D01*
X41173000Y-77881000D02*
X37691000Y-77881000D01*
X35209000Y-77841000D02*
X31712000Y-77841000D01*
X41188000Y-77841000D02*
X37691000Y-77841000D01*
X35209000Y-77801000D02*
X31696000Y-77801000D01*
X41204000Y-77801000D02*
X37691000Y-77801000D01*
X35209000Y-77761000D02*
X31682000Y-77761000D01*
X41218000Y-77761000D02*
X37691000Y-77761000D01*
X35209000Y-77721000D02*
X31667000Y-77721000D01*
X41233000Y-77721000D02*
X37691000Y-77721000D01*
X35209000Y-77681000D02*
X31653000Y-77681000D01*
X41247000Y-77681000D02*
X37691000Y-77681000D01*
X35209000Y-77641000D02*
X31639000Y-77641000D01*
X41261000Y-77641000D02*
X37691000Y-77641000D01*
X35209000Y-77601000D02*
X31626000Y-77601000D01*
X41274000Y-77601000D02*
X37691000Y-77601000D01*
X35209000Y-77561000D02*
X31613000Y-77561000D01*
X41287000Y-77561000D02*
X37691000Y-77561000D01*
X35209000Y-77521000D02*
X31600000Y-77521000D01*
X41300000Y-77521000D02*
X37691000Y-77521000D01*
X35209000Y-77481000D02*
X31588000Y-77481000D01*
X41312000Y-77481000D02*
X37691000Y-77481000D01*
X35209000Y-77441000D02*
X31576000Y-77441000D01*
X41324000Y-77441000D02*
X37691000Y-77441000D01*
X35209000Y-77401000D02*
X31565000Y-77401000D01*
X41335000Y-77401000D02*
X37691000Y-77401000D01*
X35209000Y-77361000D02*
X31553000Y-77361000D01*
X41347000Y-77361000D02*
X37691000Y-77361000D01*
X35209000Y-77321000D02*
X31543000Y-77321000D01*
X41357000Y-77321000D02*
X37691000Y-77321000D01*
X35209000Y-77281000D02*
X31532000Y-77281000D01*
X41368000Y-77281000D02*
X37691000Y-77281000D01*
X41378000Y-77241000D02*
X31522000Y-77241000D01*
X41388000Y-77201000D02*
X31512000Y-77201000D01*
X41397000Y-77161000D02*
X31503000Y-77161000D01*
X41406000Y-77121000D02*
X31494000Y-77121000D01*
X41415000Y-77081000D02*
X31485000Y-77081000D01*
X41424000Y-77041000D02*
X31476000Y-77041000D01*
X41432000Y-77001000D02*
X31468000Y-77001000D01*
X41440000Y-76961000D02*
X31460000Y-76961000D01*
X41447000Y-76921000D02*
X31453000Y-76921000D01*
X41454000Y-76881000D02*
X31446000Y-76881000D01*
X41461000Y-76841000D02*
X31439000Y-76841000D01*
X41468000Y-76801000D02*
X31432000Y-76801000D01*
X41474000Y-76761000D02*
X31426000Y-76761000D01*
X41480000Y-76721000D02*
X31420000Y-76721000D01*
X41485000Y-76680000D02*
X31415000Y-76680000D01*
X41490000Y-76640000D02*
X31410000Y-76640000D01*
X41495000Y-76600000D02*
X31405000Y-76600000D01*
X41500000Y-76560000D02*
X31400000Y-76560000D01*
X41504000Y-76520000D02*
X31396000Y-76520000D01*
X41508000Y-76480000D02*
X31392000Y-76480000D01*
X41512000Y-76440000D02*
X31388000Y-76440000D01*
X41515000Y-76400000D02*
X31385000Y-76400000D01*
X41518000Y-76360000D02*
X31382000Y-76360000D01*
X41520000Y-76320000D02*
X31380000Y-76320000D01*
X41523000Y-76280000D02*
X31377000Y-76280000D01*
X41525000Y-76240000D02*
X31375000Y-76240000D01*
X41527000Y-76200000D02*
X31373000Y-76200000D01*
X41528000Y-76160000D02*
X31372000Y-76160000D01*
X41529000Y-76120000D02*
X31371000Y-76120000D01*
X41530000Y-76080000D02*
X31370000Y-76080000D01*
X41530000Y-76040000D02*
X31370000Y-76040000D01*
X41530000Y-76000000D02*
X31370000Y-76000000D01*
X41570000Y-76000000D02*
G75*
G03X41570000Y-76000000I-5120000J0D01*
G01*
X63225000Y-57970354D02*
X62225000Y-57970354D01*
X62725000Y-57470354D02*
X62725000Y-58470354D01*
X60449000Y-68031000D02*
X59251000Y-68031000D01*
X60712000Y-67991000D02*
X58988000Y-67991000D01*
X60912000Y-67951000D02*
X58788000Y-67951000D01*
X61080000Y-67911000D02*
X58620000Y-67911000D01*
X61228000Y-67871000D02*
X58472000Y-67871000D01*
X61360000Y-67831000D02*
X58340000Y-67831000D01*
X61480000Y-67791000D02*
X58220000Y-67791000D01*
X61592000Y-67751000D02*
X58108000Y-67751000D01*
X61696000Y-67711000D02*
X58004000Y-67711000D01*
X61794000Y-67671000D02*
X57906000Y-67671000D01*
X61887000Y-67631000D02*
X57813000Y-67631000D01*
X61975000Y-67591000D02*
X57725000Y-67591000D01*
X62059000Y-67551000D02*
X57641000Y-67551000D01*
X62139000Y-67511000D02*
X57561000Y-67511000D01*
X62215000Y-67471000D02*
X57485000Y-67471000D01*
X62289000Y-67431000D02*
X57411000Y-67431000D01*
X62360000Y-67391000D02*
X57340000Y-67391000D01*
X62429000Y-67351000D02*
X57271000Y-67351000D01*
X62495000Y-67311000D02*
X57205000Y-67311000D01*
X62559000Y-67271000D02*
X57141000Y-67271000D01*
X62620000Y-67231000D02*
X57080000Y-67231000D01*
X62680000Y-67191000D02*
X57020000Y-67191000D01*
X62739000Y-67151000D02*
X56961000Y-67151000D01*
X62795000Y-67111000D02*
X56905000Y-67111000D01*
X62850000Y-67071000D02*
X56850000Y-67071000D01*
X62904000Y-67031000D02*
X56796000Y-67031000D01*
X62956000Y-66991000D02*
X56744000Y-66991000D01*
X63006000Y-66951000D02*
X56694000Y-66951000D01*
X63056000Y-66911000D02*
X56644000Y-66911000D01*
X63104000Y-66871000D02*
X56596000Y-66871000D01*
X63151000Y-66831000D02*
X56549000Y-66831000D01*
X63197000Y-66791000D02*
X56503000Y-66791000D01*
X63242000Y-66751000D02*
X56458000Y-66751000D01*
X63286000Y-66711000D02*
X56414000Y-66711000D01*
X58609000Y-66671000D02*
X56372000Y-66671000D01*
X63328000Y-66671000D02*
X61091000Y-66671000D01*
X58609000Y-66631000D02*
X56330000Y-66631000D01*
X63370000Y-66631000D02*
X61091000Y-66631000D01*
X58609000Y-66591000D02*
X56289000Y-66591000D01*
X63411000Y-66591000D02*
X61091000Y-66591000D01*
X58609000Y-66551000D02*
X56249000Y-66551000D01*
X63451000Y-66551000D02*
X61091000Y-66551000D01*
X58609000Y-66511000D02*
X56210000Y-66511000D01*
X63490000Y-66511000D02*
X61091000Y-66511000D01*
X58609000Y-66471000D02*
X56171000Y-66471000D01*
X63529000Y-66471000D02*
X61091000Y-66471000D01*
X58609000Y-66431000D02*
X56134000Y-66431000D01*
X63566000Y-66431000D02*
X61091000Y-66431000D01*
X58609000Y-66391000D02*
X56097000Y-66391000D01*
X63603000Y-66391000D02*
X61091000Y-66391000D01*
X58609000Y-66351000D02*
X56061000Y-66351000D01*
X63639000Y-66351000D02*
X61091000Y-66351000D01*
X58609000Y-66311000D02*
X56026000Y-66311000D01*
X63674000Y-66311000D02*
X61091000Y-66311000D01*
X58609000Y-66271000D02*
X55992000Y-66271000D01*
X63708000Y-66271000D02*
X61091000Y-66271000D01*
X58609000Y-66231000D02*
X55958000Y-66231000D01*
X63742000Y-66231000D02*
X61091000Y-66231000D01*
X58609000Y-66191000D02*
X55925000Y-66191000D01*
X63775000Y-66191000D02*
X61091000Y-66191000D01*
X58609000Y-66151000D02*
X55893000Y-66151000D01*
X63807000Y-66151000D02*
X61091000Y-66151000D01*
X58609000Y-66111000D02*
X55861000Y-66111000D01*
X63839000Y-66111000D02*
X61091000Y-66111000D01*
X58609000Y-66071000D02*
X55830000Y-66071000D01*
X63870000Y-66071000D02*
X61091000Y-66071000D01*
X58609000Y-66031000D02*
X55800000Y-66031000D01*
X63900000Y-66031000D02*
X61091000Y-66031000D01*
X58609000Y-65991000D02*
X55770000Y-65991000D01*
X63930000Y-65991000D02*
X61091000Y-65991000D01*
X58609000Y-65951000D02*
X55740000Y-65951000D01*
X63960000Y-65951000D02*
X61091000Y-65951000D01*
X58609000Y-65911000D02*
X55712000Y-65911000D01*
X63988000Y-65911000D02*
X61091000Y-65911000D01*
X58609000Y-65871000D02*
X55684000Y-65871000D01*
X64016000Y-65871000D02*
X61091000Y-65871000D01*
X58609000Y-65831000D02*
X55656000Y-65831000D01*
X64044000Y-65831000D02*
X61091000Y-65831000D01*
X58609000Y-65791000D02*
X55629000Y-65791000D01*
X64071000Y-65791000D02*
X61091000Y-65791000D01*
X58609000Y-65751000D02*
X55603000Y-65751000D01*
X64097000Y-65751000D02*
X61091000Y-65751000D01*
X58609000Y-65711000D02*
X55577000Y-65711000D01*
X64123000Y-65711000D02*
X61091000Y-65711000D01*
X58609000Y-65671000D02*
X55552000Y-65671000D01*
X64148000Y-65671000D02*
X61091000Y-65671000D01*
X58609000Y-65631000D02*
X55527000Y-65631000D01*
X64173000Y-65631000D02*
X61091000Y-65631000D01*
X58609000Y-65591000D02*
X55503000Y-65591000D01*
X64197000Y-65591000D02*
X61091000Y-65591000D01*
X58609000Y-65551000D02*
X55479000Y-65551000D01*
X64221000Y-65551000D02*
X61091000Y-65551000D01*
X58609000Y-65511000D02*
X55455000Y-65511000D01*
X64245000Y-65511000D02*
X61091000Y-65511000D01*
X58609000Y-65471000D02*
X55433000Y-65471000D01*
X64267000Y-65471000D02*
X61091000Y-65471000D01*
X58609000Y-65431000D02*
X55410000Y-65431000D01*
X64290000Y-65431000D02*
X61091000Y-65431000D01*
X58609000Y-65391000D02*
X55388000Y-65391000D01*
X64312000Y-65391000D02*
X61091000Y-65391000D01*
X58609000Y-65351000D02*
X55367000Y-65351000D01*
X64333000Y-65351000D02*
X61091000Y-65351000D01*
X58609000Y-65311000D02*
X55346000Y-65311000D01*
X64354000Y-65311000D02*
X61091000Y-65311000D01*
X58609000Y-65271000D02*
X55325000Y-65271000D01*
X64375000Y-65271000D02*
X61091000Y-65271000D01*
X58609000Y-65231000D02*
X55305000Y-65231000D01*
X64395000Y-65231000D02*
X61091000Y-65231000D01*
X58609000Y-65191000D02*
X55286000Y-65191000D01*
X64414000Y-65191000D02*
X61091000Y-65191000D01*
X58609000Y-65151000D02*
X55266000Y-65151000D01*
X64434000Y-65151000D02*
X61091000Y-65151000D01*
X58609000Y-65111000D02*
X55247000Y-65111000D01*
X64453000Y-65111000D02*
X61091000Y-65111000D01*
X58609000Y-65071000D02*
X55229000Y-65071000D01*
X64471000Y-65071000D02*
X61091000Y-65071000D01*
X58609000Y-65031000D02*
X55211000Y-65031000D01*
X64489000Y-65031000D02*
X61091000Y-65031000D01*
X58609000Y-64991000D02*
X55193000Y-64991000D01*
X64507000Y-64991000D02*
X61091000Y-64991000D01*
X58609000Y-64951000D02*
X55176000Y-64951000D01*
X64524000Y-64951000D02*
X61091000Y-64951000D01*
X58609000Y-64911000D02*
X55160000Y-64911000D01*
X64540000Y-64911000D02*
X61091000Y-64911000D01*
X58609000Y-64871000D02*
X55143000Y-64871000D01*
X64557000Y-64871000D02*
X61091000Y-64871000D01*
X58609000Y-64831000D02*
X55127000Y-64831000D01*
X64573000Y-64831000D02*
X61091000Y-64831000D01*
X58609000Y-64791000D02*
X55112000Y-64791000D01*
X64588000Y-64791000D02*
X61091000Y-64791000D01*
X58609000Y-64751000D02*
X55096000Y-64751000D01*
X64604000Y-64751000D02*
X61091000Y-64751000D01*
X58609000Y-64711000D02*
X55082000Y-64711000D01*
X64618000Y-64711000D02*
X61091000Y-64711000D01*
X58609000Y-64671000D02*
X55067000Y-64671000D01*
X64633000Y-64671000D02*
X61091000Y-64671000D01*
X58609000Y-64631000D02*
X55053000Y-64631000D01*
X64647000Y-64631000D02*
X61091000Y-64631000D01*
X58609000Y-64591000D02*
X55039000Y-64591000D01*
X64661000Y-64591000D02*
X61091000Y-64591000D01*
X58609000Y-64551000D02*
X55026000Y-64551000D01*
X64674000Y-64551000D02*
X61091000Y-64551000D01*
X58609000Y-64511000D02*
X55013000Y-64511000D01*
X64687000Y-64511000D02*
X61091000Y-64511000D01*
X58609000Y-64471000D02*
X55000000Y-64471000D01*
X64700000Y-64471000D02*
X61091000Y-64471000D01*
X58609000Y-64431000D02*
X54988000Y-64431000D01*
X64712000Y-64431000D02*
X61091000Y-64431000D01*
X58609000Y-64391000D02*
X54976000Y-64391000D01*
X64724000Y-64391000D02*
X61091000Y-64391000D01*
X58609000Y-64351000D02*
X54965000Y-64351000D01*
X64735000Y-64351000D02*
X61091000Y-64351000D01*
X58609000Y-64311000D02*
X54953000Y-64311000D01*
X64747000Y-64311000D02*
X61091000Y-64311000D01*
X58609000Y-64271000D02*
X54943000Y-64271000D01*
X64757000Y-64271000D02*
X61091000Y-64271000D01*
X58609000Y-64231000D02*
X54932000Y-64231000D01*
X64768000Y-64231000D02*
X61091000Y-64231000D01*
X64778000Y-64191000D02*
X54922000Y-64191000D01*
X64788000Y-64151000D02*
X54912000Y-64151000D01*
X64797000Y-64111000D02*
X54903000Y-64111000D01*
X64806000Y-64071000D02*
X54894000Y-64071000D01*
X64815000Y-64031000D02*
X54885000Y-64031000D01*
X64824000Y-63991000D02*
X54876000Y-63991000D01*
X64832000Y-63951000D02*
X54868000Y-63951000D01*
X64840000Y-63911000D02*
X54860000Y-63911000D01*
X64847000Y-63871000D02*
X54853000Y-63871000D01*
X64854000Y-63831000D02*
X54846000Y-63831000D01*
X64861000Y-63791000D02*
X54839000Y-63791000D01*
X64868000Y-63751000D02*
X54832000Y-63751000D01*
X64874000Y-63711000D02*
X54826000Y-63711000D01*
X64880000Y-63671000D02*
X54820000Y-63671000D01*
X64885000Y-63630000D02*
X54815000Y-63630000D01*
X64890000Y-63590000D02*
X54810000Y-63590000D01*
X64895000Y-63550000D02*
X54805000Y-63550000D01*
X64900000Y-63510000D02*
X54800000Y-63510000D01*
X64904000Y-63470000D02*
X54796000Y-63470000D01*
X64908000Y-63430000D02*
X54792000Y-63430000D01*
X64912000Y-63390000D02*
X54788000Y-63390000D01*
X64915000Y-63350000D02*
X54785000Y-63350000D01*
X64918000Y-63310000D02*
X54782000Y-63310000D01*
X64920000Y-63270000D02*
X54780000Y-63270000D01*
X64923000Y-63230000D02*
X54777000Y-63230000D01*
X64925000Y-63190000D02*
X54775000Y-63190000D01*
X64927000Y-63150000D02*
X54773000Y-63150000D01*
X64928000Y-63110000D02*
X54772000Y-63110000D01*
X64929000Y-63070000D02*
X54771000Y-63070000D01*
X64930000Y-63030000D02*
X54770000Y-63030000D01*
X64930000Y-62990000D02*
X54770000Y-62990000D01*
X64930000Y-62950000D02*
X54770000Y-62950000D01*
X64970000Y-62950000D02*
G75*
G03X64970000Y-62950000I-5120000J0D01*
G01*
X34010000Y-53908578D02*
X34010000Y-53391422D01*
X32590000Y-53908578D02*
X32590000Y-53391422D01*
X66320000Y-61240000D02*
X66320000Y-62890000D01*
X76600000Y-61240000D02*
X66320000Y-61240000D01*
X76600000Y-66540000D02*
X76600000Y-61240000D01*
X66320000Y-66540000D02*
X76600000Y-66540000D01*
X66320000Y-64890000D02*
X66320000Y-66540000D01*
X66320000Y-62890000D02*
G75*
G02X66320000Y-64890000I0J-1000000D01*
G01*
X35460000Y-54518000D02*
X36860000Y-54518000D01*
X36860000Y-52198000D02*
X34960000Y-52198000D01*
X43120000Y-67940000D02*
X43120000Y-69590000D01*
X53400000Y-67940000D02*
X43120000Y-67940000D01*
X53400000Y-73240000D02*
X53400000Y-67940000D01*
X43120000Y-73240000D02*
X53400000Y-73240000D01*
X43120000Y-71590000D02*
X43120000Y-73240000D01*
X43120000Y-69590000D02*
G75*
G02X43120000Y-71590000I0J-1000000D01*
G01*
X73540000Y-53841422D02*
X73540000Y-54358578D01*
X74960000Y-53841422D02*
X74960000Y-54358578D01*
X77060000Y-54358578D02*
X77060000Y-53841422D01*
X75640000Y-54358578D02*
X75640000Y-53841422D01*
X65160000Y-71108578D02*
X65160000Y-70591422D01*
X63740000Y-71108578D02*
X63740000Y-70591422D01*
X57460000Y-54408578D02*
X57460000Y-53891422D01*
X56040000Y-54408578D02*
X56040000Y-53891422D01*
X58290000Y-53891422D02*
X58290000Y-54408578D01*
X59710000Y-53891422D02*
X59710000Y-54408578D01*
X72608578Y-77190000D02*
X72091422Y-77190000D01*
X72608578Y-78610000D02*
X72091422Y-78610000D01*
X72091422Y-76510000D02*
X72608578Y-76510000D01*
X72091422Y-75090000D02*
X72608578Y-75090000D01*
X55590000Y-70591422D02*
X55590000Y-71108578D01*
X57010000Y-70591422D02*
X57010000Y-71108578D01*
X58042796Y-70590190D02*
X58042796Y-71107346D01*
X59462796Y-70590190D02*
X59462796Y-71107346D01*
X60640000Y-70591422D02*
X60640000Y-71108578D01*
X62060000Y-70591422D02*
X62060000Y-71108578D01*
X45791422Y-64610000D02*
X46308578Y-64610000D01*
X45791422Y-63190000D02*
X46308578Y-63190000D01*
X67900000Y-76400000D02*
G75*
G03X67900000Y-76400000I-2500000J0D01*
G01*
X61980000Y-79570000D02*
X61980000Y-80840000D01*
X60710000Y-79570000D02*
X61980000Y-79570000D01*
X57790000Y-81882929D02*
X57790000Y-82280000D01*
X58550000Y-81882929D02*
X58550000Y-82280000D01*
X57790000Y-90940000D02*
X57790000Y-84940000D01*
X58550000Y-90940000D02*
X57790000Y-90940000D01*
X58550000Y-84940000D02*
X58550000Y-90940000D01*
X59440000Y-82280000D02*
X59440000Y-84940000D01*
X60330000Y-81950000D02*
X60330000Y-82280000D01*
X61090000Y-81950000D02*
X61090000Y-82280000D01*
X60430000Y-84940000D02*
X60430000Y-90940000D01*
X60550000Y-84940000D02*
X60550000Y-90940000D01*
X60670000Y-84940000D02*
X60670000Y-90940000D01*
X60790000Y-84940000D02*
X60790000Y-90940000D01*
X60910000Y-84940000D02*
X60910000Y-90940000D01*
X61030000Y-84940000D02*
X61030000Y-90940000D01*
X60330000Y-90940000D02*
X60330000Y-84940000D01*
X61090000Y-90940000D02*
X60330000Y-90940000D01*
X61090000Y-84940000D02*
X61090000Y-90940000D01*
X62040000Y-84940000D02*
X62040000Y-82280000D01*
X56840000Y-84940000D02*
X62040000Y-84940000D01*
X56840000Y-82280000D02*
X56840000Y-84940000D01*
X62040000Y-82280000D02*
X56840000Y-82280000D01*
X80554000Y-77264759D02*
X79924000Y-77264759D01*
X80239000Y-76949759D02*
X80239000Y-77579759D01*
X78802000Y-83691000D02*
X77998000Y-83691000D01*
X79033000Y-83651000D02*
X77767000Y-83651000D01*
X79202000Y-83611000D02*
X77598000Y-83611000D01*
X79340000Y-83571000D02*
X77460000Y-83571000D01*
X79459000Y-83531000D02*
X77341000Y-83531000D01*
X79565000Y-83491000D02*
X77235000Y-83491000D01*
X79662000Y-83451000D02*
X77138000Y-83451000D01*
X79750000Y-83411000D02*
X77050000Y-83411000D01*
X79832000Y-83371000D02*
X76968000Y-83371000D01*
X79909000Y-83331000D02*
X76891000Y-83331000D01*
X79981000Y-83291000D02*
X76819000Y-83291000D01*
X80050000Y-83251000D02*
X76750000Y-83251000D01*
X80114000Y-83211000D02*
X76686000Y-83211000D01*
X80176000Y-83171000D02*
X76624000Y-83171000D01*
X80234000Y-83131000D02*
X76566000Y-83131000D01*
X80290000Y-83091000D02*
X76510000Y-83091000D01*
X80344000Y-83051000D02*
X76456000Y-83051000D01*
X80395000Y-83011000D02*
X76405000Y-83011000D01*
X80444000Y-82971000D02*
X76356000Y-82971000D01*
X80492000Y-82931000D02*
X76308000Y-82931000D01*
X80537000Y-82891000D02*
X76263000Y-82891000D01*
X80582000Y-82851000D02*
X76218000Y-82851000D01*
X80624000Y-82811000D02*
X76176000Y-82811000D01*
X80665000Y-82771000D02*
X76135000Y-82771000D01*
X77360000Y-82731000D02*
X76095000Y-82731000D01*
X80705000Y-82731000D02*
X79440000Y-82731000D01*
X77360000Y-82691000D02*
X76057000Y-82691000D01*
X80743000Y-82691000D02*
X79440000Y-82691000D01*
X77360000Y-82651000D02*
X76020000Y-82651000D01*
X80780000Y-82651000D02*
X79440000Y-82651000D01*
X77360000Y-82611000D02*
X75984000Y-82611000D01*
X80816000Y-82611000D02*
X79440000Y-82611000D01*
X77360000Y-82571000D02*
X75950000Y-82571000D01*
X80850000Y-82571000D02*
X79440000Y-82571000D01*
X77360000Y-82531000D02*
X75916000Y-82531000D01*
X80884000Y-82531000D02*
X79440000Y-82531000D01*
X77360000Y-82491000D02*
X75884000Y-82491000D01*
X80916000Y-82491000D02*
X79440000Y-82491000D01*
X77360000Y-82451000D02*
X75852000Y-82451000D01*
X80948000Y-82451000D02*
X79440000Y-82451000D01*
X77360000Y-82411000D02*
X75822000Y-82411000D01*
X80978000Y-82411000D02*
X79440000Y-82411000D01*
X77360000Y-82371000D02*
X75793000Y-82371000D01*
X81007000Y-82371000D02*
X79440000Y-82371000D01*
X77360000Y-82331000D02*
X75764000Y-82331000D01*
X81036000Y-82331000D02*
X79440000Y-82331000D01*
X77360000Y-82291000D02*
X75736000Y-82291000D01*
X81064000Y-82291000D02*
X79440000Y-82291000D01*
X77360000Y-82251000D02*
X75710000Y-82251000D01*
X81090000Y-82251000D02*
X79440000Y-82251000D01*
X77360000Y-82211000D02*
X75684000Y-82211000D01*
X81116000Y-82211000D02*
X79440000Y-82211000D01*
X77360000Y-82171000D02*
X75658000Y-82171000D01*
X81142000Y-82171000D02*
X79440000Y-82171000D01*
X77360000Y-82131000D02*
X75634000Y-82131000D01*
X81166000Y-82131000D02*
X79440000Y-82131000D01*
X77360000Y-82091000D02*
X75610000Y-82091000D01*
X81190000Y-82091000D02*
X79440000Y-82091000D01*
X77360000Y-82051000D02*
X75588000Y-82051000D01*
X81212000Y-82051000D02*
X79440000Y-82051000D01*
X77360000Y-82011000D02*
X75566000Y-82011000D01*
X81234000Y-82011000D02*
X79440000Y-82011000D01*
X77360000Y-81971000D02*
X75544000Y-81971000D01*
X81256000Y-81971000D02*
X79440000Y-81971000D01*
X77360000Y-81931000D02*
X75524000Y-81931000D01*
X81276000Y-81931000D02*
X79440000Y-81931000D01*
X77360000Y-81891000D02*
X75504000Y-81891000D01*
X81296000Y-81891000D02*
X79440000Y-81891000D01*
X77360000Y-81851000D02*
X75484000Y-81851000D01*
X81316000Y-81851000D02*
X79440000Y-81851000D01*
X77360000Y-81811000D02*
X75466000Y-81811000D01*
X81334000Y-81811000D02*
X79440000Y-81811000D01*
X77360000Y-81771000D02*
X75448000Y-81771000D01*
X81352000Y-81771000D02*
X79440000Y-81771000D01*
X77360000Y-81731000D02*
X75430000Y-81731000D01*
X81370000Y-81731000D02*
X79440000Y-81731000D01*
X77360000Y-81691000D02*
X75414000Y-81691000D01*
X81386000Y-81691000D02*
X79440000Y-81691000D01*
X77360000Y-81651000D02*
X75398000Y-81651000D01*
X81402000Y-81651000D02*
X79440000Y-81651000D01*
X77360000Y-81611000D02*
X75382000Y-81611000D01*
X81418000Y-81611000D02*
X79440000Y-81611000D01*
X77360000Y-81571000D02*
X75367000Y-81571000D01*
X81433000Y-81571000D02*
X79440000Y-81571000D01*
X77360000Y-81531000D02*
X75353000Y-81531000D01*
X81447000Y-81531000D02*
X79440000Y-81531000D01*
X77360000Y-81491000D02*
X75339000Y-81491000D01*
X81461000Y-81491000D02*
X79440000Y-81491000D01*
X77360000Y-81451000D02*
X75326000Y-81451000D01*
X81474000Y-81451000D02*
X79440000Y-81451000D01*
X77360000Y-81411000D02*
X75314000Y-81411000D01*
X81486000Y-81411000D02*
X79440000Y-81411000D01*
X77360000Y-81371000D02*
X75302000Y-81371000D01*
X81498000Y-81371000D02*
X79440000Y-81371000D01*
X77360000Y-81331000D02*
X75290000Y-81331000D01*
X81510000Y-81331000D02*
X79440000Y-81331000D01*
X77360000Y-81291000D02*
X75279000Y-81291000D01*
X81521000Y-81291000D02*
X79440000Y-81291000D01*
X77360000Y-81251000D02*
X75269000Y-81251000D01*
X81531000Y-81251000D02*
X79440000Y-81251000D01*
X77360000Y-81211000D02*
X75259000Y-81211000D01*
X81541000Y-81211000D02*
X79440000Y-81211000D01*
X77360000Y-81171000D02*
X75250000Y-81171000D01*
X81550000Y-81171000D02*
X79440000Y-81171000D01*
X77360000Y-81130000D02*
X75241000Y-81130000D01*
X81559000Y-81130000D02*
X79440000Y-81130000D01*
X77360000Y-81090000D02*
X75233000Y-81090000D01*
X81567000Y-81090000D02*
X79440000Y-81090000D01*
X77360000Y-81050000D02*
X75225000Y-81050000D01*
X81575000Y-81050000D02*
X79440000Y-81050000D01*
X77360000Y-81010000D02*
X75218000Y-81010000D01*
X81582000Y-81010000D02*
X79440000Y-81010000D01*
X77360000Y-80970000D02*
X75211000Y-80970000D01*
X81589000Y-80970000D02*
X79440000Y-80970000D01*
X77360000Y-80930000D02*
X75205000Y-80930000D01*
X81595000Y-80930000D02*
X79440000Y-80930000D01*
X77360000Y-80890000D02*
X75199000Y-80890000D01*
X81601000Y-80890000D02*
X79440000Y-80890000D01*
X77360000Y-80850000D02*
X75194000Y-80850000D01*
X81606000Y-80850000D02*
X79440000Y-80850000D01*
X77360000Y-80810000D02*
X75189000Y-80810000D01*
X81611000Y-80810000D02*
X79440000Y-80810000D01*
X77360000Y-80770000D02*
X75185000Y-80770000D01*
X81615000Y-80770000D02*
X79440000Y-80770000D01*
X77360000Y-80730000D02*
X75182000Y-80730000D01*
X81618000Y-80730000D02*
X79440000Y-80730000D01*
X77360000Y-80690000D02*
X75178000Y-80690000D01*
X81622000Y-80690000D02*
X79440000Y-80690000D01*
X81624000Y-80650000D02*
X75176000Y-80650000D01*
X81627000Y-80610000D02*
X75173000Y-80610000D01*
X81628000Y-80570000D02*
X75172000Y-80570000D01*
X81630000Y-80530000D02*
X75170000Y-80530000D01*
X81630000Y-80490000D02*
X75170000Y-80490000D01*
X81630000Y-80450000D02*
X75170000Y-80450000D01*
X81670000Y-80450000D02*
G75*
G03X81670000Y-80450000I-3270000J0D01*
G01*
X40320000Y-61000000D02*
G75*
G03X40320000Y-61000000I-4470000J0D01*
G01*
X55535000Y-85140000D02*
G75*
G03X55535000Y-85140000I-5650000J0D01*
G01*
X74585000Y-85140000D02*
G75*
G03X74585000Y-85140000I-5650000J0D01*
G01*
X32868000Y-42056000D02*
X38878000Y-42056000D01*
X35118000Y-48876000D02*
X38878000Y-48876000D01*
X38878000Y-42056000D02*
X38878000Y-43316000D01*
X38878000Y-48876000D02*
X38878000Y-47616000D01*
X68518578Y-35640000D02*
X68001422Y-35640000D01*
X68518578Y-37060000D02*
X68001422Y-37060000D01*
X63740000Y-35301422D02*
X63740000Y-35818578D01*
X65160000Y-35301422D02*
X65160000Y-35818578D01*
X51870000Y-60500000D02*
X51100000Y-60500000D01*
X43790000Y-60500000D02*
X44560000Y-60500000D01*
X51100000Y-59130000D02*
X44560000Y-59130000D01*
X51100000Y-61870000D02*
X51100000Y-59130000D01*
X44560000Y-61870000D02*
X51100000Y-61870000D01*
X44560000Y-59130000D02*
X44560000Y-61870000D01*
X81100000Y-30550000D02*
X81100000Y-32250000D01*
X81100000Y-27400000D02*
X81100000Y-28550000D01*
X78275000Y-34065000D02*
X78675000Y-33615000D01*
X79075000Y-34065000D02*
X78275000Y-34065000D01*
X78675000Y-33615000D02*
X79075000Y-34065000D01*
X81650000Y-26850000D02*
X81100000Y-27400000D01*
X73600000Y-30550000D02*
X73600000Y-32250000D01*
X73600000Y-27400000D02*
X73600000Y-28550000D01*
X73050000Y-26850000D02*
X73600000Y-27400000D01*
X73030000Y-72920000D02*
X73030000Y-69980000D01*
X72790000Y-72920000D02*
X72790000Y-69980000D01*
X72910000Y-72920000D02*
X72910000Y-69980000D01*
X68370000Y-69980000D02*
X68370000Y-70110000D01*
X73810000Y-69980000D02*
X68370000Y-69980000D01*
X73810000Y-70110000D02*
X73810000Y-69980000D01*
X68370000Y-72920000D02*
X68370000Y-72790000D01*
X73810000Y-72920000D02*
X68370000Y-72920000D01*
X73810000Y-72790000D02*
X73810000Y-72920000D01*
X38330000Y-69520000D02*
X38330000Y-66580000D01*
X38090000Y-69520000D02*
X38090000Y-66580000D01*
X38210000Y-69520000D02*
X38210000Y-66580000D01*
X33670000Y-66580000D02*
X33670000Y-66710000D01*
X39110000Y-66580000D02*
X33670000Y-66580000D01*
X39110000Y-66710000D02*
X39110000Y-66580000D01*
X33670000Y-69520000D02*
X33670000Y-69390000D01*
X39110000Y-69520000D02*
X33670000Y-69520000D01*
X39110000Y-69390000D02*
X39110000Y-69520000D01*
X42462000Y-46223422D02*
X42462000Y-46740578D01*
X43882000Y-46223422D02*
X43882000Y-46740578D01*
X31551180Y-47069066D02*
X31551180Y-46551910D01*
X30131180Y-47069066D02*
X30131180Y-46551910D01*
X59220000Y-76815000D02*
X59220000Y-77520000D01*
X59220000Y-74780000D02*
X59220000Y-75485000D01*
X54980000Y-76815000D02*
X54980000Y-77520000D01*
X54980000Y-74780000D02*
X54980000Y-75485000D01*
X54980000Y-77520000D02*
X59220000Y-77520000D01*
X54980000Y-74780000D02*
X59220000Y-74780000D01*
D17*
X69186904Y-57727380D02*
X69758333Y-57727380D01*
X69472619Y-58727380D02*
X69472619Y-57727380D01*
X70091666Y-58727380D02*
X70091666Y-57727380D01*
X70472619Y-57727380D01*
X70567857Y-57775000D01*
X70615476Y-57822619D01*
X70663095Y-57917857D01*
X70663095Y-58060714D01*
X70615476Y-58155952D01*
X70567857Y-58203571D01*
X70472619Y-58251190D01*
X70091666Y-58251190D01*
X71615476Y-58727380D02*
X71044047Y-58727380D01*
X71329761Y-58727380D02*
X71329761Y-57727380D01*
X71234523Y-57870238D01*
X71139285Y-57965476D01*
X71044047Y-58013095D01*
X72567857Y-58727380D02*
X71996428Y-58727380D01*
X72282142Y-58727380D02*
X72282142Y-57727380D01*
X72186904Y-57870238D01*
X72091666Y-57965476D01*
X71996428Y-58013095D01*
X76438095Y-85504380D02*
X77009523Y-85504380D01*
X76723809Y-86504380D02*
X76723809Y-85504380D01*
X77342857Y-86504380D02*
X77342857Y-85504380D01*
X77723809Y-85504380D01*
X77819047Y-85552000D01*
X77866666Y-85599619D01*
X77914285Y-85694857D01*
X77914285Y-85837714D01*
X77866666Y-85932952D01*
X77819047Y-85980571D01*
X77723809Y-86028190D01*
X77342857Y-86028190D01*
X78247619Y-85504380D02*
X78914285Y-85504380D01*
X78485714Y-86504380D01*
X84663095Y-75502380D02*
X85234523Y-75502380D01*
X84948809Y-76502380D02*
X84948809Y-75502380D01*
X85567857Y-76502380D02*
X85567857Y-75502380D01*
X85948809Y-75502380D01*
X86044047Y-75550000D01*
X86091666Y-75597619D01*
X86139285Y-75692857D01*
X86139285Y-75835714D01*
X86091666Y-75930952D01*
X86044047Y-75978571D01*
X85948809Y-76026190D01*
X85567857Y-76026190D01*
X86996428Y-75502380D02*
X86805952Y-75502380D01*
X86710714Y-75550000D01*
X86663095Y-75597619D01*
X86567857Y-75740476D01*
X86520238Y-75930952D01*
X86520238Y-76311904D01*
X86567857Y-76407142D01*
X86615476Y-76454761D01*
X86710714Y-76502380D01*
X86901190Y-76502380D01*
X86996428Y-76454761D01*
X87044047Y-76407142D01*
X87091666Y-76311904D01*
X87091666Y-76073809D01*
X87044047Y-75978571D01*
X86996428Y-75930952D01*
X86901190Y-75883333D01*
X86710714Y-75883333D01*
X86615476Y-75930952D01*
X86567857Y-75978571D01*
X86520238Y-76073809D01*
X77838095Y-52352380D02*
X78409523Y-52352380D01*
X78123809Y-53352380D02*
X78123809Y-52352380D01*
X78742857Y-53352380D02*
X78742857Y-52352380D01*
X79123809Y-52352380D01*
X79219047Y-52400000D01*
X79266666Y-52447619D01*
X79314285Y-52542857D01*
X79314285Y-52685714D01*
X79266666Y-52780952D01*
X79219047Y-52828571D01*
X79123809Y-52876190D01*
X78742857Y-52876190D01*
X80219047Y-52352380D02*
X79742857Y-52352380D01*
X79695238Y-52828571D01*
X79742857Y-52780952D01*
X79838095Y-52733333D01*
X80076190Y-52733333D01*
X80171428Y-52780952D01*
X80219047Y-52828571D01*
X80266666Y-52923809D01*
X80266666Y-53161904D01*
X80219047Y-53257142D01*
X80171428Y-53304761D01*
X80076190Y-53352380D01*
X79838095Y-53352380D01*
X79742857Y-53304761D01*
X79695238Y-53257142D01*
X55463095Y-56502380D02*
X56034523Y-56502380D01*
X55748809Y-57502380D02*
X55748809Y-56502380D01*
X56367857Y-57502380D02*
X56367857Y-56502380D01*
X56748809Y-56502380D01*
X56844047Y-56550000D01*
X56891666Y-56597619D01*
X56939285Y-56692857D01*
X56939285Y-56835714D01*
X56891666Y-56930952D01*
X56844047Y-56978571D01*
X56748809Y-57026190D01*
X56367857Y-57026190D01*
X57796428Y-56835714D02*
X57796428Y-57502380D01*
X57558333Y-56454761D02*
X57320238Y-57169047D01*
X57939285Y-57169047D01*
X66063095Y-57752380D02*
X66634523Y-57752380D01*
X66348809Y-58752380D02*
X66348809Y-57752380D01*
X66967857Y-58752380D02*
X66967857Y-57752380D01*
X67348809Y-57752380D01*
X67444047Y-57800000D01*
X67491666Y-57847619D01*
X67539285Y-57942857D01*
X67539285Y-58085714D01*
X67491666Y-58180952D01*
X67444047Y-58228571D01*
X67348809Y-58276190D01*
X66967857Y-58276190D01*
X67872619Y-57752380D02*
X68491666Y-57752380D01*
X68158333Y-58133333D01*
X68301190Y-58133333D01*
X68396428Y-58180952D01*
X68444047Y-58228571D01*
X68491666Y-58323809D01*
X68491666Y-58561904D01*
X68444047Y-58657142D01*
X68396428Y-58704761D01*
X68301190Y-58752380D01*
X68015476Y-58752380D01*
X67920238Y-58704761D01*
X67872619Y-58657142D01*
X41663095Y-34827380D02*
X42234523Y-34827380D01*
X41948809Y-35827380D02*
X41948809Y-34827380D01*
X42567857Y-35827380D02*
X42567857Y-34827380D01*
X42948809Y-34827380D01*
X43044047Y-34875000D01*
X43091666Y-34922619D01*
X43139285Y-35017857D01*
X43139285Y-35160714D01*
X43091666Y-35255952D01*
X43044047Y-35303571D01*
X42948809Y-35351190D01*
X42567857Y-35351190D01*
X43520238Y-34922619D02*
X43567857Y-34875000D01*
X43663095Y-34827380D01*
X43901190Y-34827380D01*
X43996428Y-34875000D01*
X44044047Y-34922619D01*
X44091666Y-35017857D01*
X44091666Y-35113095D01*
X44044047Y-35255952D01*
X43472619Y-35827380D01*
X44091666Y-35827380D01*
X30013095Y-36952380D02*
X30584523Y-36952380D01*
X30298809Y-37952380D02*
X30298809Y-36952380D01*
X30917857Y-37952380D02*
X30917857Y-36952380D01*
X31298809Y-36952380D01*
X31394047Y-37000000D01*
X31441666Y-37047619D01*
X31489285Y-37142857D01*
X31489285Y-37285714D01*
X31441666Y-37380952D01*
X31394047Y-37428571D01*
X31298809Y-37476190D01*
X30917857Y-37476190D01*
X32441666Y-37952380D02*
X31870238Y-37952380D01*
X32155952Y-37952380D02*
X32155952Y-36952380D01*
X32060714Y-37095238D01*
X31965476Y-37190476D01*
X31870238Y-37238095D01*
X57646666Y-29672380D02*
X57646666Y-28672380D01*
X57980000Y-29386666D01*
X58313333Y-28672380D01*
X58313333Y-29672380D01*
X58980000Y-28672380D02*
X59170476Y-28672380D01*
X59265714Y-28720000D01*
X59360952Y-28815238D01*
X59408571Y-29005714D01*
X59408571Y-29339047D01*
X59360952Y-29529523D01*
X59265714Y-29624761D01*
X59170476Y-29672380D01*
X58980000Y-29672380D01*
X58884761Y-29624761D01*
X58789523Y-29529523D01*
X58741904Y-29339047D01*
X58741904Y-29005714D01*
X58789523Y-28815238D01*
X58884761Y-28720000D01*
X58980000Y-28672380D01*
X59837142Y-29672380D02*
X59837142Y-28672380D01*
X60075238Y-28672380D01*
X60218095Y-28720000D01*
X60313333Y-28815238D01*
X60360952Y-28910476D01*
X60408571Y-29100952D01*
X60408571Y-29243809D01*
X60360952Y-29434285D01*
X60313333Y-29529523D01*
X60218095Y-29624761D01*
X60075238Y-29672380D01*
X59837142Y-29672380D01*
X61360952Y-29672380D02*
X60789523Y-29672380D01*
X61075238Y-29672380D02*
X61075238Y-28672380D01*
X60980000Y-28815238D01*
X60884761Y-28910476D01*
X60789523Y-28958095D01*
X83164761Y-53367619D02*
X83069523Y-53320000D01*
X82974285Y-53224761D01*
X82831428Y-53081904D01*
X82736190Y-53034285D01*
X82640952Y-53034285D01*
X82688571Y-53272380D02*
X82593333Y-53224761D01*
X82498095Y-53129523D01*
X82450476Y-52939047D01*
X82450476Y-52605714D01*
X82498095Y-52415238D01*
X82593333Y-52320000D01*
X82688571Y-52272380D01*
X82879047Y-52272380D01*
X82974285Y-52320000D01*
X83069523Y-52415238D01*
X83117142Y-52605714D01*
X83117142Y-52939047D01*
X83069523Y-53129523D01*
X82974285Y-53224761D01*
X82879047Y-53272380D01*
X82688571Y-53272380D01*
X84069523Y-53272380D02*
X83498095Y-53272380D01*
X83783809Y-53272380D02*
X83783809Y-52272380D01*
X83688571Y-52415238D01*
X83593333Y-52510476D01*
X83498095Y-52558095D01*
X43183333Y-89807142D02*
X43135714Y-89854761D01*
X42992857Y-89902380D01*
X42897619Y-89902380D01*
X42754761Y-89854761D01*
X42659523Y-89759523D01*
X42611904Y-89664285D01*
X42564285Y-89473809D01*
X42564285Y-89330952D01*
X42611904Y-89140476D01*
X42659523Y-89045238D01*
X42754761Y-88950000D01*
X42897619Y-88902380D01*
X42992857Y-88902380D01*
X43135714Y-88950000D01*
X43183333Y-88997619D01*
X44135714Y-89902380D02*
X43564285Y-89902380D01*
X43850000Y-89902380D02*
X43850000Y-88902380D01*
X43754761Y-89045238D01*
X43659523Y-89140476D01*
X43564285Y-89188095D01*
X41333333Y-80407142D02*
X41285714Y-80454761D01*
X41142857Y-80502380D01*
X41047619Y-80502380D01*
X40904761Y-80454761D01*
X40809523Y-80359523D01*
X40761904Y-80264285D01*
X40714285Y-80073809D01*
X40714285Y-79930952D01*
X40761904Y-79740476D01*
X40809523Y-79645238D01*
X40904761Y-79550000D01*
X41047619Y-79502380D01*
X41142857Y-79502380D01*
X41285714Y-79550000D01*
X41333333Y-79597619D01*
X42238095Y-79502380D02*
X41761904Y-79502380D01*
X41714285Y-79978571D01*
X41761904Y-79930952D01*
X41857142Y-79883333D01*
X42095238Y-79883333D01*
X42190476Y-79930952D01*
X42238095Y-79978571D01*
X42285714Y-80073809D01*
X42285714Y-80311904D01*
X42238095Y-80407142D01*
X42190476Y-80454761D01*
X42095238Y-80502380D01*
X41857142Y-80502380D01*
X41761904Y-80454761D01*
X41714285Y-80407142D01*
X55483333Y-68057142D02*
X55435714Y-68104761D01*
X55292857Y-68152380D01*
X55197619Y-68152380D01*
X55054761Y-68104761D01*
X54959523Y-68009523D01*
X54911904Y-67914285D01*
X54864285Y-67723809D01*
X54864285Y-67580952D01*
X54911904Y-67390476D01*
X54959523Y-67295238D01*
X55054761Y-67200000D01*
X55197619Y-67152380D01*
X55292857Y-67152380D01*
X55435714Y-67200000D01*
X55483333Y-67247619D01*
X56340476Y-67485714D02*
X56340476Y-68152380D01*
X56102380Y-67104761D02*
X55864285Y-67819047D01*
X56483333Y-67819047D01*
X64188095Y-66627380D02*
X64188095Y-67436904D01*
X64235714Y-67532142D01*
X64283333Y-67579761D01*
X64378571Y-67627380D01*
X64569047Y-67627380D01*
X64664285Y-67579761D01*
X64711904Y-67532142D01*
X64759523Y-67436904D01*
X64759523Y-66627380D01*
X65140476Y-66627380D02*
X65759523Y-66627380D01*
X65426190Y-67008333D01*
X65569047Y-67008333D01*
X65664285Y-67055952D01*
X65711904Y-67103571D01*
X65759523Y-67198809D01*
X65759523Y-67436904D01*
X65711904Y-67532142D01*
X65664285Y-67579761D01*
X65569047Y-67627380D01*
X65283333Y-67627380D01*
X65188095Y-67579761D01*
X65140476Y-67532142D01*
X47663095Y-75902380D02*
X47663095Y-76711904D01*
X47710714Y-76807142D01*
X47758333Y-76854761D01*
X47853571Y-76902380D01*
X48044047Y-76902380D01*
X48139285Y-76854761D01*
X48186904Y-76807142D01*
X48234523Y-76711904D01*
X48234523Y-75902380D01*
X48663095Y-75997619D02*
X48710714Y-75950000D01*
X48805952Y-75902380D01*
X49044047Y-75902380D01*
X49139285Y-75950000D01*
X49186904Y-75997619D01*
X49234523Y-76092857D01*
X49234523Y-76188095D01*
X49186904Y-76330952D01*
X48615476Y-76902380D01*
X49234523Y-76902380D01*
X61808333Y-77052380D02*
X61332142Y-77052380D01*
X61332142Y-76052380D01*
X62094047Y-76147619D02*
X62141666Y-76100000D01*
X62236904Y-76052380D01*
X62475000Y-76052380D01*
X62570238Y-76100000D01*
X62617857Y-76147619D01*
X62665476Y-76242857D01*
X62665476Y-76338095D01*
X62617857Y-76480952D01*
X62046428Y-77052380D01*
X62665476Y-77052380D01*
X59116666Y-87272380D02*
X59116666Y-87986666D01*
X59069047Y-88129523D01*
X58973809Y-88224761D01*
X58830952Y-88272380D01*
X58735714Y-88272380D01*
X59545238Y-87367619D02*
X59592857Y-87320000D01*
X59688095Y-87272380D01*
X59926190Y-87272380D01*
X60021428Y-87320000D01*
X60069047Y-87367619D01*
X60116666Y-87462857D01*
X60116666Y-87558095D01*
X60069047Y-87700952D01*
X59497619Y-88272380D01*
X60116666Y-88272380D01*
X81508333Y-83832142D02*
X81460714Y-83879761D01*
X81317857Y-83927380D01*
X81222619Y-83927380D01*
X81079761Y-83879761D01*
X80984523Y-83784523D01*
X80936904Y-83689285D01*
X80889285Y-83498809D01*
X80889285Y-83355952D01*
X80936904Y-83165476D01*
X80984523Y-83070238D01*
X81079761Y-82975000D01*
X81222619Y-82927380D01*
X81317857Y-82927380D01*
X81460714Y-82975000D01*
X81508333Y-83022619D01*
X81889285Y-83022619D02*
X81936904Y-82975000D01*
X82032142Y-82927380D01*
X82270238Y-82927380D01*
X82365476Y-82975000D01*
X82413095Y-83022619D01*
X82460714Y-83117857D01*
X82460714Y-83213095D01*
X82413095Y-83355952D01*
X81841666Y-83927380D01*
X82460714Y-83927380D01*
X39833333Y-65252380D02*
X39357142Y-65252380D01*
X39357142Y-64252380D01*
X40690476Y-65252380D02*
X40119047Y-65252380D01*
X40404761Y-65252380D02*
X40404761Y-64252380D01*
X40309523Y-64395238D01*
X40214285Y-64490476D01*
X40119047Y-64538095D01*
X73366666Y-89402380D02*
X73366666Y-90116666D01*
X73319047Y-90259523D01*
X73223809Y-90354761D01*
X73080952Y-90402380D01*
X72985714Y-90402380D01*
X74366666Y-90402380D02*
X73795238Y-90402380D01*
X74080952Y-90402380D02*
X74080952Y-89402380D01*
X73985714Y-89545238D01*
X73890476Y-89640476D01*
X73795238Y-89688095D01*
X49458333Y-63402380D02*
X49125000Y-62926190D01*
X48886904Y-63402380D02*
X48886904Y-62402380D01*
X49267857Y-62402380D01*
X49363095Y-62450000D01*
X49410714Y-62497619D01*
X49458333Y-62592857D01*
X49458333Y-62735714D01*
X49410714Y-62830952D01*
X49363095Y-62878571D01*
X49267857Y-62926190D01*
X48886904Y-62926190D01*
X49791666Y-62402380D02*
X50410714Y-62402380D01*
X50077380Y-62783333D01*
X50220238Y-62783333D01*
X50315476Y-62830952D01*
X50363095Y-62878571D01*
X50410714Y-62973809D01*
X50410714Y-63211904D01*
X50363095Y-63307142D01*
X50315476Y-63354761D01*
X50220238Y-63402380D01*
X49934523Y-63402380D01*
X49839285Y-63354761D01*
X49791666Y-63307142D01*
X70011904Y-74327380D02*
X70011904Y-73327380D01*
X70250000Y-73327380D01*
X70392857Y-73375000D01*
X70488095Y-73470238D01*
X70535714Y-73565476D01*
X70583333Y-73755952D01*
X70583333Y-73898809D01*
X70535714Y-74089285D01*
X70488095Y-74184523D01*
X70392857Y-74279761D01*
X70250000Y-74327380D01*
X70011904Y-74327380D01*
X70916666Y-73327380D02*
X71535714Y-73327380D01*
X71202380Y-73708333D01*
X71345238Y-73708333D01*
X71440476Y-73755952D01*
X71488095Y-73803571D01*
X71535714Y-73898809D01*
X71535714Y-74136904D01*
X71488095Y-74232142D01*
X71440476Y-74279761D01*
X71345238Y-74327380D01*
X71059523Y-74327380D01*
X70964285Y-74279761D01*
X70916666Y-74232142D01*
X33461904Y-70852380D02*
X33461904Y-69852380D01*
X33700000Y-69852380D01*
X33842857Y-69900000D01*
X33938095Y-69995238D01*
X33985714Y-70090476D01*
X34033333Y-70280952D01*
X34033333Y-70423809D01*
X33985714Y-70614285D01*
X33938095Y-70709523D01*
X33842857Y-70804761D01*
X33700000Y-70852380D01*
X33461904Y-70852380D01*
X34414285Y-69947619D02*
X34461904Y-69900000D01*
X34557142Y-69852380D01*
X34795238Y-69852380D01*
X34890476Y-69900000D01*
X34938095Y-69947619D01*
X34985714Y-70042857D01*
X34985714Y-70138095D01*
X34938095Y-70280952D01*
X34366666Y-70852380D01*
X34985714Y-70852380D01*
X57083333Y-74007142D02*
X57035714Y-74054761D01*
X56892857Y-74102380D01*
X56797619Y-74102380D01*
X56654761Y-74054761D01*
X56559523Y-73959523D01*
X56511904Y-73864285D01*
X56464285Y-73673809D01*
X56464285Y-73530952D01*
X56511904Y-73340476D01*
X56559523Y-73245238D01*
X56654761Y-73150000D01*
X56797619Y-73102380D01*
X56892857Y-73102380D01*
X57035714Y-73150000D01*
X57083333Y-73197619D01*
X57416666Y-73102380D02*
X58035714Y-73102380D01*
X57702380Y-73483333D01*
X57845238Y-73483333D01*
X57940476Y-73530952D01*
X57988095Y-73578571D01*
X58035714Y-73673809D01*
X58035714Y-73911904D01*
X57988095Y-74007142D01*
X57940476Y-74054761D01*
X57845238Y-74102380D01*
X57559523Y-74102380D01*
X57464285Y-74054761D01*
X57416666Y-74007142D01*
M02*
