G04 #@! TF.GenerationSoftware,KiCad,Pcbnew,(5.1.5-0-10_14)*
G04 #@! TF.CreationDate,2019-12-09T00:47:22-08:00*
G04 #@! TF.ProjectId,powersupply,706f7765-7273-4757-9070-6c792e6b6963,rev?*
G04 #@! TF.SameCoordinates,Original*
G04 #@! TF.FileFunction,Soldermask,Bot*
G04 #@! TF.FilePolarity,Negative*
%FSLAX46Y46*%
G04 Gerber Fmt 4.6, Leading zero omitted, Abs format (unit mm)*
G04 Created by KiCad (PCBNEW (5.1.5-0-10_14)) date 2019-12-09 00:47:22*
%MOMM*%
%LPD*%
G04 APERTURE LIST*
%ADD10C,0.100000*%
G04 APERTURE END LIST*
D10*
G36*
X86495256Y-86341298D02*
G01*
X86601579Y-86362447D01*
X86902042Y-86486903D01*
X87172451Y-86667585D01*
X87402415Y-86897549D01*
X87509304Y-87057520D01*
X87583098Y-87167960D01*
X87619550Y-87255963D01*
X87680716Y-87403630D01*
X87707553Y-87468422D01*
X87771000Y-87787389D01*
X87771000Y-88112611D01*
X87765058Y-88142481D01*
X87707553Y-88431579D01*
X87583097Y-88732042D01*
X87402415Y-89002451D01*
X87172451Y-89232415D01*
X86902042Y-89413097D01*
X86601579Y-89537553D01*
X86495256Y-89558702D01*
X86282611Y-89601000D01*
X85957389Y-89601000D01*
X85744744Y-89558702D01*
X85638421Y-89537553D01*
X85337958Y-89413097D01*
X85067549Y-89232415D01*
X84837585Y-89002451D01*
X84656903Y-88732042D01*
X84532447Y-88431579D01*
X84474942Y-88142481D01*
X84469000Y-88112611D01*
X84469000Y-87787389D01*
X84532447Y-87468422D01*
X84559285Y-87403630D01*
X84620450Y-87255963D01*
X84656902Y-87167960D01*
X84730696Y-87057520D01*
X84837585Y-86897549D01*
X85067549Y-86667585D01*
X85337958Y-86486903D01*
X85638421Y-86362447D01*
X85744744Y-86341298D01*
X85957389Y-86299000D01*
X86282611Y-86299000D01*
X86495256Y-86341298D01*
G37*
G36*
X32645256Y-86341298D02*
G01*
X32751579Y-86362447D01*
X33052042Y-86486903D01*
X33322451Y-86667585D01*
X33552415Y-86897549D01*
X33659304Y-87057520D01*
X33733098Y-87167960D01*
X33769550Y-87255963D01*
X33830716Y-87403630D01*
X33857553Y-87468422D01*
X33921000Y-87787389D01*
X33921000Y-88112611D01*
X33915058Y-88142481D01*
X33857553Y-88431579D01*
X33733097Y-88732042D01*
X33552415Y-89002451D01*
X33322451Y-89232415D01*
X33052042Y-89413097D01*
X32751579Y-89537553D01*
X32645256Y-89558702D01*
X32432611Y-89601000D01*
X32107389Y-89601000D01*
X31894744Y-89558702D01*
X31788421Y-89537553D01*
X31487958Y-89413097D01*
X31217549Y-89232415D01*
X30987585Y-89002451D01*
X30806903Y-88732042D01*
X30682447Y-88431579D01*
X30624942Y-88142481D01*
X30619000Y-88112611D01*
X30619000Y-87787389D01*
X30682447Y-87468422D01*
X30709285Y-87403630D01*
X30770450Y-87255963D01*
X30806902Y-87167960D01*
X30880696Y-87057520D01*
X30987585Y-86897549D01*
X31217549Y-86667585D01*
X31487958Y-86486903D01*
X31788421Y-86362447D01*
X31894744Y-86341298D01*
X32107389Y-86299000D01*
X32432611Y-86299000D01*
X32645256Y-86341298D01*
G37*
G36*
X69970787Y-81725462D02*
G01*
X69970790Y-81725463D01*
X69970789Y-81725463D01*
X70617029Y-81993144D01*
X71198631Y-82381758D01*
X71693242Y-82876369D01*
X72081856Y-83457971D01*
X72081856Y-83457972D01*
X72349538Y-84104213D01*
X72486000Y-84790256D01*
X72486000Y-85489744D01*
X72349538Y-86175787D01*
X72349537Y-86175789D01*
X72081856Y-86822029D01*
X71693242Y-87403631D01*
X71198631Y-87898242D01*
X70617029Y-88286856D01*
X70267636Y-88431579D01*
X69970787Y-88554538D01*
X69284744Y-88691000D01*
X68585256Y-88691000D01*
X67899213Y-88554538D01*
X67602364Y-88431579D01*
X67252971Y-88286856D01*
X66671369Y-87898242D01*
X66176758Y-87403631D01*
X65788144Y-86822029D01*
X65520463Y-86175789D01*
X65520462Y-86175787D01*
X65384000Y-85489744D01*
X65384000Y-84790256D01*
X65520462Y-84104213D01*
X65788144Y-83457972D01*
X65788144Y-83457971D01*
X66176758Y-82876369D01*
X66671369Y-82381758D01*
X67252971Y-81993144D01*
X67899211Y-81725463D01*
X67899210Y-81725463D01*
X67899213Y-81725462D01*
X68585256Y-81589000D01*
X69284744Y-81589000D01*
X69970787Y-81725462D01*
G37*
G36*
X50920787Y-81725462D02*
G01*
X50920790Y-81725463D01*
X50920789Y-81725463D01*
X51567029Y-81993144D01*
X52148631Y-82381758D01*
X52643242Y-82876369D01*
X53031856Y-83457971D01*
X53031856Y-83457972D01*
X53299538Y-84104213D01*
X53436000Y-84790256D01*
X53436000Y-85489744D01*
X53299538Y-86175787D01*
X53299537Y-86175789D01*
X53031856Y-86822029D01*
X52643242Y-87403631D01*
X52148631Y-87898242D01*
X51567029Y-88286856D01*
X51217636Y-88431579D01*
X50920787Y-88554538D01*
X50234744Y-88691000D01*
X49535256Y-88691000D01*
X48849213Y-88554538D01*
X48552364Y-88431579D01*
X48202971Y-88286856D01*
X47621369Y-87898242D01*
X47126758Y-87403631D01*
X46738144Y-86822029D01*
X46470463Y-86175789D01*
X46470462Y-86175787D01*
X46334000Y-85489744D01*
X46334000Y-84790256D01*
X46470462Y-84104213D01*
X46738144Y-83457972D01*
X46738144Y-83457971D01*
X47126758Y-82876369D01*
X47621369Y-82381758D01*
X48202971Y-81993144D01*
X48849211Y-81725463D01*
X48849210Y-81725463D01*
X48849213Y-81725462D01*
X49535256Y-81589000D01*
X50234744Y-81589000D01*
X50920787Y-81725462D01*
G37*
G36*
X78501000Y-88501000D02*
G01*
X76899000Y-88501000D01*
X76899000Y-86899000D01*
X78501000Y-86899000D01*
X78501000Y-88501000D01*
G37*
G36*
X40248228Y-86781703D02*
G01*
X40403100Y-86845853D01*
X40542481Y-86938985D01*
X40661015Y-87057519D01*
X40754147Y-87196900D01*
X40818297Y-87351772D01*
X40851000Y-87516184D01*
X40851000Y-87683816D01*
X40818297Y-87848228D01*
X40754147Y-88003100D01*
X40661015Y-88142481D01*
X40542481Y-88261015D01*
X40403100Y-88354147D01*
X40248228Y-88418297D01*
X40083816Y-88451000D01*
X39916184Y-88451000D01*
X39751772Y-88418297D01*
X39596900Y-88354147D01*
X39457519Y-88261015D01*
X39338985Y-88142481D01*
X39245853Y-88003100D01*
X39181703Y-87848228D01*
X39149000Y-87683816D01*
X39149000Y-87516184D01*
X39181703Y-87351772D01*
X39245853Y-87196900D01*
X39338985Y-87057519D01*
X39457519Y-86938985D01*
X39596900Y-86845853D01*
X39751772Y-86781703D01*
X39916184Y-86749000D01*
X40083816Y-86749000D01*
X40248228Y-86781703D01*
G37*
G36*
X40851000Y-85951000D02*
G01*
X39149000Y-85951000D01*
X39149000Y-84249000D01*
X40851000Y-84249000D01*
X40851000Y-85951000D01*
G37*
G36*
X78648228Y-80881703D02*
G01*
X78803100Y-80945853D01*
X78942481Y-81038985D01*
X79061015Y-81157519D01*
X79154147Y-81296900D01*
X79218297Y-81451772D01*
X79251000Y-81616184D01*
X79251000Y-81783816D01*
X79218297Y-81948228D01*
X79154147Y-82103100D01*
X79061015Y-82242481D01*
X78942481Y-82361015D01*
X78803100Y-82454147D01*
X78648228Y-82518297D01*
X78483816Y-82551000D01*
X78316184Y-82551000D01*
X78151772Y-82518297D01*
X77996900Y-82454147D01*
X77857519Y-82361015D01*
X77738985Y-82242481D01*
X77645853Y-82103100D01*
X77581703Y-81948228D01*
X77549000Y-81783816D01*
X77549000Y-81616184D01*
X77581703Y-81451772D01*
X77645853Y-81296900D01*
X77738985Y-81157519D01*
X77857519Y-81038985D01*
X77996900Y-80945853D01*
X78151772Y-80881703D01*
X78316184Y-80849000D01*
X78483816Y-80849000D01*
X78648228Y-80881703D01*
G37*
G36*
X61611000Y-81741000D02*
G01*
X59809000Y-81741000D01*
X59809000Y-79939000D01*
X61611000Y-79939000D01*
X61611000Y-81741000D01*
G37*
G36*
X58283512Y-79943927D02*
G01*
X58432812Y-79973624D01*
X58596784Y-80041544D01*
X58744354Y-80140147D01*
X58869853Y-80265646D01*
X58968456Y-80413216D01*
X59036376Y-80577188D01*
X59066073Y-80726488D01*
X59071000Y-80751258D01*
X59071000Y-80928742D01*
X59067596Y-80945853D01*
X59036376Y-81102812D01*
X58968456Y-81266784D01*
X58869853Y-81414354D01*
X58744354Y-81539853D01*
X58596784Y-81638456D01*
X58432812Y-81706376D01*
X58283512Y-81736073D01*
X58258742Y-81741000D01*
X58081258Y-81741000D01*
X58056488Y-81736073D01*
X57907188Y-81706376D01*
X57743216Y-81638456D01*
X57595646Y-81539853D01*
X57470147Y-81414354D01*
X57371544Y-81266784D01*
X57303624Y-81102812D01*
X57272404Y-80945853D01*
X57269000Y-80928742D01*
X57269000Y-80751258D01*
X57273927Y-80726488D01*
X57303624Y-80577188D01*
X57371544Y-80413216D01*
X57470147Y-80265646D01*
X57595646Y-80140147D01*
X57743216Y-80041544D01*
X57907188Y-79973624D01*
X58056488Y-79943927D01*
X58081258Y-79939000D01*
X58258742Y-79939000D01*
X58283512Y-79943927D01*
G37*
G36*
X79251000Y-80051000D02*
G01*
X77549000Y-80051000D01*
X77549000Y-78349000D01*
X79251000Y-78349000D01*
X79251000Y-80051000D01*
G37*
G36*
X36756564Y-77489389D02*
G01*
X36947833Y-77568615D01*
X36947835Y-77568616D01*
X36996301Y-77601000D01*
X37119973Y-77683635D01*
X37266365Y-77830027D01*
X37381385Y-78002167D01*
X37460611Y-78193436D01*
X37501000Y-78396484D01*
X37501000Y-78603516D01*
X37460611Y-78806564D01*
X37381385Y-78997833D01*
X37381384Y-78997835D01*
X37266365Y-79169973D01*
X37119973Y-79316365D01*
X36947835Y-79431384D01*
X36947834Y-79431385D01*
X36947833Y-79431385D01*
X36756564Y-79510611D01*
X36553516Y-79551000D01*
X36346484Y-79551000D01*
X36143436Y-79510611D01*
X35952167Y-79431385D01*
X35952166Y-79431385D01*
X35952165Y-79431384D01*
X35780027Y-79316365D01*
X35633635Y-79169973D01*
X35518616Y-78997835D01*
X35518615Y-78997833D01*
X35439389Y-78806564D01*
X35399000Y-78603516D01*
X35399000Y-78396484D01*
X35439389Y-78193436D01*
X35518615Y-78002167D01*
X35633635Y-77830027D01*
X35780027Y-77683635D01*
X35903699Y-77601000D01*
X35952165Y-77568616D01*
X35952167Y-77568615D01*
X36143436Y-77489389D01*
X36346484Y-77449000D01*
X36553516Y-77449000D01*
X36756564Y-77489389D01*
G37*
G36*
X83301000Y-77601000D02*
G01*
X81699000Y-77601000D01*
X81699000Y-75999000D01*
X83301000Y-75999000D01*
X83301000Y-77601000D01*
G37*
G36*
X64513512Y-75503927D02*
G01*
X64662812Y-75533624D01*
X64826784Y-75601544D01*
X64974354Y-75700147D01*
X65099853Y-75825646D01*
X65198456Y-75973216D01*
X65266376Y-76137188D01*
X65277405Y-76192638D01*
X65284516Y-76216078D01*
X65296067Y-76237689D01*
X65311613Y-76256631D01*
X65330555Y-76272176D01*
X65352165Y-76283727D01*
X65375614Y-76290840D01*
X65400000Y-76293242D01*
X65424387Y-76290840D01*
X65447835Y-76283727D01*
X65469446Y-76272176D01*
X65488388Y-76256630D01*
X65503933Y-76237688D01*
X65515484Y-76216078D01*
X65522595Y-76192638D01*
X65533624Y-76137188D01*
X65601544Y-75973216D01*
X65700147Y-75825646D01*
X65825646Y-75700147D01*
X65973216Y-75601544D01*
X66137188Y-75533624D01*
X66286488Y-75503927D01*
X66311258Y-75499000D01*
X66488742Y-75499000D01*
X66513512Y-75503927D01*
X66662812Y-75533624D01*
X66826784Y-75601544D01*
X66974354Y-75700147D01*
X67099853Y-75825646D01*
X67198456Y-75973216D01*
X67266376Y-76137188D01*
X67301000Y-76311259D01*
X67301000Y-76488741D01*
X67266376Y-76662812D01*
X67198456Y-76826784D01*
X67099853Y-76974354D01*
X66974354Y-77099853D01*
X66826784Y-77198456D01*
X66662812Y-77266376D01*
X66513512Y-77296073D01*
X66488742Y-77301000D01*
X66311258Y-77301000D01*
X66286488Y-77296073D01*
X66137188Y-77266376D01*
X65973216Y-77198456D01*
X65825646Y-77099853D01*
X65700147Y-76974354D01*
X65601544Y-76826784D01*
X65533624Y-76662812D01*
X65522595Y-76607362D01*
X65515484Y-76583922D01*
X65503933Y-76562311D01*
X65488387Y-76543369D01*
X65469445Y-76527824D01*
X65447835Y-76516273D01*
X65424386Y-76509160D01*
X65400000Y-76506758D01*
X65375613Y-76509160D01*
X65352165Y-76516273D01*
X65330554Y-76527824D01*
X65311612Y-76543370D01*
X65296067Y-76562312D01*
X65284516Y-76583922D01*
X65277405Y-76607362D01*
X65266376Y-76662812D01*
X65198456Y-76826784D01*
X65099853Y-76974354D01*
X64974354Y-77099853D01*
X64826784Y-77198456D01*
X64662812Y-77266376D01*
X64513512Y-77296073D01*
X64488742Y-77301000D01*
X64311258Y-77301000D01*
X64286488Y-77296073D01*
X64137188Y-77266376D01*
X63973216Y-77198456D01*
X63825646Y-77099853D01*
X63700147Y-76974354D01*
X63601544Y-76826784D01*
X63533624Y-76662812D01*
X63499000Y-76488741D01*
X63499000Y-76311259D01*
X63533624Y-76137188D01*
X63601544Y-75973216D01*
X63700147Y-75825646D01*
X63825646Y-75700147D01*
X63973216Y-75601544D01*
X64137188Y-75533624D01*
X64286488Y-75503927D01*
X64311258Y-75499000D01*
X64488742Y-75499000D01*
X64513512Y-75503927D01*
G37*
G36*
X56098228Y-75331703D02*
G01*
X56253100Y-75395853D01*
X56392481Y-75488985D01*
X56511015Y-75607519D01*
X56604147Y-75746900D01*
X56668297Y-75901772D01*
X56701000Y-76066184D01*
X56701000Y-76233816D01*
X56668297Y-76398228D01*
X56604147Y-76553100D01*
X56511015Y-76692481D01*
X56392481Y-76811015D01*
X56253100Y-76904147D01*
X56098228Y-76968297D01*
X55933816Y-77001000D01*
X55766184Y-77001000D01*
X55601772Y-76968297D01*
X55446900Y-76904147D01*
X55307519Y-76811015D01*
X55188985Y-76692481D01*
X55095853Y-76553100D01*
X55031703Y-76398228D01*
X54999000Y-76233816D01*
X54999000Y-76066184D01*
X55031703Y-75901772D01*
X55095853Y-75746900D01*
X55188985Y-75607519D01*
X55307519Y-75488985D01*
X55446900Y-75395853D01*
X55601772Y-75331703D01*
X55766184Y-75299000D01*
X55933816Y-75299000D01*
X56098228Y-75331703D01*
G37*
G36*
X58598228Y-75331703D02*
G01*
X58753100Y-75395853D01*
X58892481Y-75488985D01*
X59011015Y-75607519D01*
X59104147Y-75746900D01*
X59168297Y-75901772D01*
X59201000Y-76066184D01*
X59201000Y-76233816D01*
X59168297Y-76398228D01*
X59104147Y-76553100D01*
X59011015Y-76692481D01*
X58892481Y-76811015D01*
X58753100Y-76904147D01*
X58598228Y-76968297D01*
X58433816Y-77001000D01*
X58266184Y-77001000D01*
X58101772Y-76968297D01*
X57946900Y-76904147D01*
X57807519Y-76811015D01*
X57688985Y-76692481D01*
X57595853Y-76553100D01*
X57531703Y-76398228D01*
X57499000Y-76233816D01*
X57499000Y-76066184D01*
X57531703Y-75901772D01*
X57595853Y-75746900D01*
X57688985Y-75607519D01*
X57807519Y-75488985D01*
X57946900Y-75395853D01*
X58101772Y-75331703D01*
X58266184Y-75299000D01*
X58433816Y-75299000D01*
X58598228Y-75331703D01*
G37*
G36*
X45301000Y-75251000D02*
G01*
X43599000Y-75251000D01*
X43599000Y-73549000D01*
X45301000Y-73549000D01*
X45301000Y-75251000D01*
G37*
G36*
X52318228Y-73581703D02*
G01*
X52473100Y-73645853D01*
X52612481Y-73738985D01*
X52731015Y-73857519D01*
X52824147Y-73996900D01*
X52888297Y-74151772D01*
X52921000Y-74316184D01*
X52921000Y-74483816D01*
X52888297Y-74648228D01*
X52824147Y-74803100D01*
X52731015Y-74942481D01*
X52612481Y-75061015D01*
X52473100Y-75154147D01*
X52318228Y-75218297D01*
X52153816Y-75251000D01*
X51986184Y-75251000D01*
X51821772Y-75218297D01*
X51666900Y-75154147D01*
X51527519Y-75061015D01*
X51408985Y-74942481D01*
X51315853Y-74803100D01*
X51251703Y-74648228D01*
X51219000Y-74483816D01*
X51219000Y-74316184D01*
X51251703Y-74151772D01*
X51315853Y-73996900D01*
X51408985Y-73857519D01*
X51527519Y-73738985D01*
X51666900Y-73645853D01*
X51821772Y-73581703D01*
X51986184Y-73549000D01*
X52153816Y-73549000D01*
X52318228Y-73581703D01*
G37*
G36*
X49778228Y-73581703D02*
G01*
X49933100Y-73645853D01*
X50072481Y-73738985D01*
X50191015Y-73857519D01*
X50284147Y-73996900D01*
X50348297Y-74151772D01*
X50381000Y-74316184D01*
X50381000Y-74483816D01*
X50348297Y-74648228D01*
X50284147Y-74803100D01*
X50191015Y-74942481D01*
X50072481Y-75061015D01*
X49933100Y-75154147D01*
X49778228Y-75218297D01*
X49613816Y-75251000D01*
X49446184Y-75251000D01*
X49281772Y-75218297D01*
X49126900Y-75154147D01*
X48987519Y-75061015D01*
X48868985Y-74942481D01*
X48775853Y-74803100D01*
X48711703Y-74648228D01*
X48679000Y-74483816D01*
X48679000Y-74316184D01*
X48711703Y-74151772D01*
X48775853Y-73996900D01*
X48868985Y-73857519D01*
X48987519Y-73738985D01*
X49126900Y-73645853D01*
X49281772Y-73581703D01*
X49446184Y-73549000D01*
X49613816Y-73549000D01*
X49778228Y-73581703D01*
G37*
G36*
X47238228Y-73581703D02*
G01*
X47393100Y-73645853D01*
X47532481Y-73738985D01*
X47651015Y-73857519D01*
X47744147Y-73996900D01*
X47808297Y-74151772D01*
X47841000Y-74316184D01*
X47841000Y-74483816D01*
X47808297Y-74648228D01*
X47744147Y-74803100D01*
X47651015Y-74942481D01*
X47532481Y-75061015D01*
X47393100Y-75154147D01*
X47238228Y-75218297D01*
X47073816Y-75251000D01*
X46906184Y-75251000D01*
X46741772Y-75218297D01*
X46586900Y-75154147D01*
X46447519Y-75061015D01*
X46328985Y-74942481D01*
X46235853Y-74803100D01*
X46171703Y-74648228D01*
X46139000Y-74483816D01*
X46139000Y-74316184D01*
X46171703Y-74151772D01*
X46235853Y-73996900D01*
X46328985Y-73857519D01*
X46447519Y-73738985D01*
X46586900Y-73645853D01*
X46741772Y-73581703D01*
X46906184Y-73549000D01*
X47073816Y-73549000D01*
X47238228Y-73581703D01*
G37*
G36*
X37501000Y-74551000D02*
G01*
X35399000Y-74551000D01*
X35399000Y-72449000D01*
X37501000Y-72449000D01*
X37501000Y-74551000D01*
G37*
G36*
X83456720Y-72363520D02*
G01*
X83645881Y-72420901D01*
X83820212Y-72514083D01*
X83973015Y-72639485D01*
X84098417Y-72792288D01*
X84142182Y-72874167D01*
X84191598Y-72966617D01*
X84191599Y-72966620D01*
X84248980Y-73155781D01*
X84263500Y-73303207D01*
X84263500Y-73496794D01*
X84248980Y-73644220D01*
X84191599Y-73833381D01*
X84098417Y-74007712D01*
X83973015Y-74160515D01*
X83820212Y-74285917D01*
X83763586Y-74316184D01*
X83645883Y-74379098D01*
X83645880Y-74379099D01*
X83456719Y-74436480D01*
X83260000Y-74455855D01*
X83063280Y-74436480D01*
X82874119Y-74379099D01*
X82699788Y-74285917D01*
X82546985Y-74160515D01*
X82421583Y-74007712D01*
X82341304Y-73857520D01*
X82328402Y-73833383D01*
X82271516Y-73645853D01*
X82271020Y-73644219D01*
X82256500Y-73496793D01*
X82256500Y-73303206D01*
X82271020Y-73155780D01*
X82328401Y-72966619D01*
X82421583Y-72792288D01*
X82546985Y-72639485D01*
X82699788Y-72514083D01*
X82874120Y-72420901D01*
X83063281Y-72363520D01*
X83260000Y-72344145D01*
X83456720Y-72363520D01*
G37*
G36*
X80916720Y-72363520D02*
G01*
X81105881Y-72420901D01*
X81280212Y-72514083D01*
X81433015Y-72639485D01*
X81558417Y-72792288D01*
X81602182Y-72874167D01*
X81651598Y-72966617D01*
X81651599Y-72966620D01*
X81708980Y-73155781D01*
X81723500Y-73303207D01*
X81723500Y-73496794D01*
X81708980Y-73644220D01*
X81651599Y-73833381D01*
X81558417Y-74007712D01*
X81433015Y-74160515D01*
X81280212Y-74285917D01*
X81223586Y-74316184D01*
X81105883Y-74379098D01*
X81105880Y-74379099D01*
X80916719Y-74436480D01*
X80720000Y-74455855D01*
X80523280Y-74436480D01*
X80334119Y-74379099D01*
X80159788Y-74285917D01*
X80006985Y-74160515D01*
X79881583Y-74007712D01*
X79801304Y-73857520D01*
X79788402Y-73833383D01*
X79731516Y-73645853D01*
X79731020Y-73644219D01*
X79716500Y-73496793D01*
X79716500Y-73303206D01*
X79731020Y-73155780D01*
X79788401Y-72966619D01*
X79881583Y-72792288D01*
X80006985Y-72639485D01*
X80159788Y-72514083D01*
X80334120Y-72420901D01*
X80523281Y-72363520D01*
X80720000Y-72344145D01*
X80916720Y-72363520D01*
G37*
G36*
X86803500Y-74451000D02*
G01*
X84796500Y-74451000D01*
X84796500Y-72349000D01*
X86803500Y-72349000D01*
X86803500Y-74451000D01*
G37*
G36*
X67504549Y-70321116D02*
G01*
X67615734Y-70343232D01*
X67825203Y-70429997D01*
X68013720Y-70555960D01*
X68174040Y-70716280D01*
X68300003Y-70904797D01*
X68386768Y-71114266D01*
X68431000Y-71336636D01*
X68431000Y-71563364D01*
X68386768Y-71785734D01*
X68300003Y-71995203D01*
X68174040Y-72183720D01*
X68013720Y-72344040D01*
X67825203Y-72470003D01*
X67615734Y-72556768D01*
X67504549Y-72578884D01*
X67393365Y-72601000D01*
X67166635Y-72601000D01*
X67055451Y-72578884D01*
X66944266Y-72556768D01*
X66734797Y-72470003D01*
X66546280Y-72344040D01*
X66385960Y-72183720D01*
X66259997Y-71995203D01*
X66173232Y-71785734D01*
X66129000Y-71563364D01*
X66129000Y-71336636D01*
X66173232Y-71114266D01*
X66259997Y-70904797D01*
X66385960Y-70716280D01*
X66546280Y-70555960D01*
X66734797Y-70429997D01*
X66944266Y-70343232D01*
X67055451Y-70321116D01*
X67166635Y-70299000D01*
X67393365Y-70299000D01*
X67504549Y-70321116D01*
G37*
G36*
X76051000Y-72601000D02*
G01*
X73749000Y-72601000D01*
X73749000Y-70299000D01*
X76051000Y-70299000D01*
X76051000Y-72601000D01*
G37*
G36*
X41351000Y-69201000D02*
G01*
X39049000Y-69201000D01*
X39049000Y-66899000D01*
X41351000Y-66899000D01*
X41351000Y-69201000D01*
G37*
G36*
X32804549Y-66921116D02*
G01*
X32915734Y-66943232D01*
X33063850Y-67004584D01*
X33120933Y-67028228D01*
X33125203Y-67029997D01*
X33313720Y-67155960D01*
X33474040Y-67316280D01*
X33600003Y-67504797D01*
X33686768Y-67714266D01*
X33731000Y-67936636D01*
X33731000Y-68163364D01*
X33686768Y-68385734D01*
X33600003Y-68595203D01*
X33474040Y-68783720D01*
X33313720Y-68944040D01*
X33125203Y-69070003D01*
X32915734Y-69156768D01*
X32804549Y-69178884D01*
X32693365Y-69201000D01*
X32466635Y-69201000D01*
X32355451Y-69178884D01*
X32244266Y-69156768D01*
X32034797Y-69070003D01*
X31846280Y-68944040D01*
X31685960Y-68783720D01*
X31559997Y-68595203D01*
X31473232Y-68385734D01*
X31429000Y-68163364D01*
X31429000Y-67936636D01*
X31473232Y-67714266D01*
X31559997Y-67504797D01*
X31685960Y-67316280D01*
X31846280Y-67155960D01*
X32034797Y-67029997D01*
X32039068Y-67028228D01*
X32096150Y-67004584D01*
X32244266Y-66943232D01*
X32355451Y-66921116D01*
X32466635Y-66899000D01*
X32693365Y-66899000D01*
X32804549Y-66921116D01*
G37*
G36*
X72978228Y-66881703D02*
G01*
X73133100Y-66945853D01*
X73272481Y-67038985D01*
X73391015Y-67157519D01*
X73484147Y-67296900D01*
X73548297Y-67451772D01*
X73581000Y-67616184D01*
X73581000Y-67783816D01*
X73548297Y-67948228D01*
X73484147Y-68103100D01*
X73391015Y-68242481D01*
X73272481Y-68361015D01*
X73133100Y-68454147D01*
X72978228Y-68518297D01*
X72813816Y-68551000D01*
X72646184Y-68551000D01*
X72481772Y-68518297D01*
X72326900Y-68454147D01*
X72187519Y-68361015D01*
X72068985Y-68242481D01*
X71975853Y-68103100D01*
X71911703Y-67948228D01*
X71879000Y-67783816D01*
X71879000Y-67616184D01*
X71911703Y-67451772D01*
X71975853Y-67296900D01*
X72068985Y-67157519D01*
X72187519Y-67038985D01*
X72326900Y-66945853D01*
X72481772Y-66881703D01*
X72646184Y-66849000D01*
X72813816Y-66849000D01*
X72978228Y-66881703D01*
G37*
G36*
X70438228Y-66881703D02*
G01*
X70593100Y-66945853D01*
X70732481Y-67038985D01*
X70851015Y-67157519D01*
X70944147Y-67296900D01*
X71008297Y-67451772D01*
X71041000Y-67616184D01*
X71041000Y-67783816D01*
X71008297Y-67948228D01*
X70944147Y-68103100D01*
X70851015Y-68242481D01*
X70732481Y-68361015D01*
X70593100Y-68454147D01*
X70438228Y-68518297D01*
X70273816Y-68551000D01*
X70106184Y-68551000D01*
X69941772Y-68518297D01*
X69786900Y-68454147D01*
X69647519Y-68361015D01*
X69528985Y-68242481D01*
X69435853Y-68103100D01*
X69371703Y-67948228D01*
X69339000Y-67783816D01*
X69339000Y-67616184D01*
X69371703Y-67451772D01*
X69435853Y-67296900D01*
X69528985Y-67157519D01*
X69647519Y-67038985D01*
X69786900Y-66945853D01*
X69941772Y-66881703D01*
X70106184Y-66849000D01*
X70273816Y-66849000D01*
X70438228Y-66881703D01*
G37*
G36*
X68501000Y-68551000D02*
G01*
X66799000Y-68551000D01*
X66799000Y-66849000D01*
X68501000Y-66849000D01*
X68501000Y-68551000D01*
G37*
G36*
X75518228Y-66881703D02*
G01*
X75673100Y-66945853D01*
X75812481Y-67038985D01*
X75931015Y-67157519D01*
X76024147Y-67296900D01*
X76088297Y-67451772D01*
X76121000Y-67616184D01*
X76121000Y-67783816D01*
X76088297Y-67948228D01*
X76024147Y-68103100D01*
X75931015Y-68242481D01*
X75812481Y-68361015D01*
X75673100Y-68454147D01*
X75518228Y-68518297D01*
X75353816Y-68551000D01*
X75186184Y-68551000D01*
X75021772Y-68518297D01*
X74866900Y-68454147D01*
X74727519Y-68361015D01*
X74608985Y-68242481D01*
X74515853Y-68103100D01*
X74451703Y-67948228D01*
X74419000Y-67783816D01*
X74419000Y-67616184D01*
X74451703Y-67451772D01*
X74515853Y-67296900D01*
X74608985Y-67157519D01*
X74727519Y-67038985D01*
X74866900Y-66945853D01*
X75021772Y-66881703D01*
X75186184Y-66849000D01*
X75353816Y-66849000D01*
X75518228Y-66881703D01*
G37*
G36*
X44698228Y-65961703D02*
G01*
X44853100Y-66025853D01*
X44992481Y-66118985D01*
X45111015Y-66237519D01*
X45204147Y-66376900D01*
X45268297Y-66531772D01*
X45301000Y-66696184D01*
X45301000Y-66863816D01*
X45268297Y-67028228D01*
X45204147Y-67183100D01*
X45111015Y-67322481D01*
X44992481Y-67441015D01*
X44853100Y-67534147D01*
X44698228Y-67598297D01*
X44533816Y-67631000D01*
X44366184Y-67631000D01*
X44201772Y-67598297D01*
X44046900Y-67534147D01*
X43907519Y-67441015D01*
X43788985Y-67322481D01*
X43695853Y-67183100D01*
X43631703Y-67028228D01*
X43599000Y-66863816D01*
X43599000Y-66696184D01*
X43631703Y-66531772D01*
X43695853Y-66376900D01*
X43788985Y-66237519D01*
X43907519Y-66118985D01*
X44046900Y-66025853D01*
X44201772Y-65961703D01*
X44366184Y-65929000D01*
X44533816Y-65929000D01*
X44698228Y-65961703D01*
G37*
G36*
X52318228Y-65961703D02*
G01*
X52473100Y-66025853D01*
X52612481Y-66118985D01*
X52731015Y-66237519D01*
X52824147Y-66376900D01*
X52888297Y-66531772D01*
X52921000Y-66696184D01*
X52921000Y-66863816D01*
X52888297Y-67028228D01*
X52824147Y-67183100D01*
X52731015Y-67322481D01*
X52612481Y-67441015D01*
X52473100Y-67534147D01*
X52318228Y-67598297D01*
X52153816Y-67631000D01*
X51986184Y-67631000D01*
X51821772Y-67598297D01*
X51666900Y-67534147D01*
X51527519Y-67441015D01*
X51408985Y-67322481D01*
X51315853Y-67183100D01*
X51251703Y-67028228D01*
X51219000Y-66863816D01*
X51219000Y-66696184D01*
X51251703Y-66531772D01*
X51315853Y-66376900D01*
X51408985Y-66237519D01*
X51527519Y-66118985D01*
X51666900Y-66025853D01*
X51821772Y-65961703D01*
X51986184Y-65929000D01*
X52153816Y-65929000D01*
X52318228Y-65961703D01*
G37*
G36*
X49778228Y-65961703D02*
G01*
X49933100Y-66025853D01*
X50072481Y-66118985D01*
X50191015Y-66237519D01*
X50284147Y-66376900D01*
X50348297Y-66531772D01*
X50381000Y-66696184D01*
X50381000Y-66863816D01*
X50348297Y-67028228D01*
X50284147Y-67183100D01*
X50191015Y-67322481D01*
X50072481Y-67441015D01*
X49933100Y-67534147D01*
X49778228Y-67598297D01*
X49613816Y-67631000D01*
X49446184Y-67631000D01*
X49281772Y-67598297D01*
X49126900Y-67534147D01*
X48987519Y-67441015D01*
X48868985Y-67322481D01*
X48775853Y-67183100D01*
X48711703Y-67028228D01*
X48679000Y-66863816D01*
X48679000Y-66696184D01*
X48711703Y-66531772D01*
X48775853Y-66376900D01*
X48868985Y-66237519D01*
X48987519Y-66118985D01*
X49126900Y-66025853D01*
X49281772Y-65961703D01*
X49446184Y-65929000D01*
X49613816Y-65929000D01*
X49778228Y-65961703D01*
G37*
G36*
X47238228Y-65961703D02*
G01*
X47393100Y-66025853D01*
X47532481Y-66118985D01*
X47651015Y-66237519D01*
X47744147Y-66376900D01*
X47808297Y-66531772D01*
X47841000Y-66696184D01*
X47841000Y-66863816D01*
X47808297Y-67028228D01*
X47744147Y-67183100D01*
X47651015Y-67322481D01*
X47532481Y-67441015D01*
X47393100Y-67534147D01*
X47238228Y-67598297D01*
X47073816Y-67631000D01*
X46906184Y-67631000D01*
X46741772Y-67598297D01*
X46586900Y-67534147D01*
X46447519Y-67441015D01*
X46328985Y-67322481D01*
X46235853Y-67183100D01*
X46171703Y-67028228D01*
X46139000Y-66863816D01*
X46139000Y-66696184D01*
X46171703Y-66531772D01*
X46235853Y-66376900D01*
X46328985Y-66237519D01*
X46447519Y-66118985D01*
X46586900Y-66025853D01*
X46741772Y-65961703D01*
X46906184Y-65929000D01*
X47073816Y-65929000D01*
X47238228Y-65961703D01*
G37*
G36*
X60156564Y-64439389D02*
G01*
X60347833Y-64518615D01*
X60347835Y-64518616D01*
X60519973Y-64633635D01*
X60666365Y-64780027D01*
X60781385Y-64952167D01*
X60860611Y-65143436D01*
X60901000Y-65346484D01*
X60901000Y-65553516D01*
X60860611Y-65756564D01*
X60789186Y-65929000D01*
X60781384Y-65947835D01*
X60666365Y-66119973D01*
X60519973Y-66266365D01*
X60347835Y-66381384D01*
X60347834Y-66381385D01*
X60347833Y-66381385D01*
X60156564Y-66460611D01*
X59953516Y-66501000D01*
X59746484Y-66501000D01*
X59543436Y-66460611D01*
X59352167Y-66381385D01*
X59352166Y-66381385D01*
X59352165Y-66381384D01*
X59180027Y-66266365D01*
X59033635Y-66119973D01*
X58918616Y-65947835D01*
X58910814Y-65929000D01*
X58839389Y-65756564D01*
X58799000Y-65553516D01*
X58799000Y-65346484D01*
X58839389Y-65143436D01*
X58918615Y-64952167D01*
X59033635Y-64780027D01*
X59180027Y-64633635D01*
X59352165Y-64518616D01*
X59352167Y-64518615D01*
X59543436Y-64439389D01*
X59746484Y-64399000D01*
X59953516Y-64399000D01*
X60156564Y-64439389D01*
G37*
G36*
X38647482Y-59681705D02*
G01*
X38744072Y-59700918D01*
X38989939Y-59802759D01*
X39101328Y-59877187D01*
X39211211Y-59950609D01*
X39399391Y-60138789D01*
X39472813Y-60248672D01*
X39525971Y-60328228D01*
X39547242Y-60360063D01*
X39649082Y-60605928D01*
X39694478Y-60834147D01*
X39701000Y-60866938D01*
X39701000Y-61133062D01*
X39649082Y-61394072D01*
X39547241Y-61639939D01*
X39399390Y-61861212D01*
X39211212Y-62049390D01*
X38989939Y-62197241D01*
X38989938Y-62197242D01*
X38989937Y-62197242D01*
X38744072Y-62299082D01*
X38483063Y-62351000D01*
X38216937Y-62351000D01*
X37955928Y-62299082D01*
X37710063Y-62197242D01*
X37710062Y-62197242D01*
X37710061Y-62197241D01*
X37488788Y-62049390D01*
X37300610Y-61861212D01*
X37152759Y-61639939D01*
X37050918Y-61394072D01*
X36999000Y-61133062D01*
X36999000Y-60866938D01*
X37005523Y-60834147D01*
X37050918Y-60605928D01*
X37152758Y-60360063D01*
X37174030Y-60328228D01*
X37227187Y-60248672D01*
X37300609Y-60138789D01*
X37488789Y-59950609D01*
X37598672Y-59877187D01*
X37710061Y-59802759D01*
X37955928Y-59700918D01*
X38052518Y-59681705D01*
X38216937Y-59649000D01*
X38483063Y-59649000D01*
X38647482Y-59681705D01*
G37*
G36*
X33647482Y-59681705D02*
G01*
X33744072Y-59700918D01*
X33989939Y-59802759D01*
X34101328Y-59877187D01*
X34211211Y-59950609D01*
X34399391Y-60138789D01*
X34472813Y-60248672D01*
X34525971Y-60328228D01*
X34547242Y-60360063D01*
X34649082Y-60605928D01*
X34694478Y-60834147D01*
X34701000Y-60866938D01*
X34701000Y-61133062D01*
X34649082Y-61394072D01*
X34547241Y-61639939D01*
X34399390Y-61861212D01*
X34211212Y-62049390D01*
X33989939Y-62197241D01*
X33989938Y-62197242D01*
X33989937Y-62197242D01*
X33744072Y-62299082D01*
X33483063Y-62351000D01*
X33216937Y-62351000D01*
X32955928Y-62299082D01*
X32710063Y-62197242D01*
X32710062Y-62197242D01*
X32710061Y-62197241D01*
X32488788Y-62049390D01*
X32300610Y-61861212D01*
X32152759Y-61639939D01*
X32050918Y-61394072D01*
X31999000Y-61133062D01*
X31999000Y-60866938D01*
X32005523Y-60834147D01*
X32050918Y-60605928D01*
X32152758Y-60360063D01*
X32174030Y-60328228D01*
X32227187Y-60248672D01*
X32300609Y-60138789D01*
X32488789Y-59950609D01*
X32598672Y-59877187D01*
X32710061Y-59802759D01*
X32955928Y-59700918D01*
X33052518Y-59681705D01*
X33216937Y-59649000D01*
X33483063Y-59649000D01*
X33647482Y-59681705D01*
G37*
G36*
X60901000Y-61501000D02*
G01*
X58799000Y-61501000D01*
X58799000Y-59399000D01*
X60901000Y-59399000D01*
X60901000Y-61501000D01*
G37*
G36*
X53158228Y-59681703D02*
G01*
X53313100Y-59745853D01*
X53452481Y-59838985D01*
X53571015Y-59957519D01*
X53664147Y-60096900D01*
X53728297Y-60251772D01*
X53761000Y-60416184D01*
X53761000Y-60583816D01*
X53728297Y-60748228D01*
X53664147Y-60903100D01*
X53571015Y-61042481D01*
X53452481Y-61161015D01*
X53313100Y-61254147D01*
X53158228Y-61318297D01*
X52993816Y-61351000D01*
X52826184Y-61351000D01*
X52661772Y-61318297D01*
X52506900Y-61254147D01*
X52367519Y-61161015D01*
X52248985Y-61042481D01*
X52155853Y-60903100D01*
X52091703Y-60748228D01*
X52059000Y-60583816D01*
X52059000Y-60416184D01*
X52091703Y-60251772D01*
X52155853Y-60096900D01*
X52248985Y-59957519D01*
X52367519Y-59838985D01*
X52506900Y-59745853D01*
X52661772Y-59681703D01*
X52826184Y-59649000D01*
X52993816Y-59649000D01*
X53158228Y-59681703D01*
G37*
G36*
X42998228Y-59681703D02*
G01*
X43153100Y-59745853D01*
X43292481Y-59838985D01*
X43411015Y-59957519D01*
X43504147Y-60096900D01*
X43568297Y-60251772D01*
X43601000Y-60416184D01*
X43601000Y-60583816D01*
X43568297Y-60748228D01*
X43504147Y-60903100D01*
X43411015Y-61042481D01*
X43292481Y-61161015D01*
X43153100Y-61254147D01*
X42998228Y-61318297D01*
X42833816Y-61351000D01*
X42666184Y-61351000D01*
X42501772Y-61318297D01*
X42346900Y-61254147D01*
X42207519Y-61161015D01*
X42088985Y-61042481D01*
X41995853Y-60903100D01*
X41931703Y-60748228D01*
X41899000Y-60583816D01*
X41899000Y-60416184D01*
X41931703Y-60251772D01*
X41995853Y-60096900D01*
X42088985Y-59957519D01*
X42207519Y-59838985D01*
X42346900Y-59745853D01*
X42501772Y-59681703D01*
X42666184Y-59649000D01*
X42833816Y-59649000D01*
X42998228Y-59681703D01*
G37*
G36*
X70438228Y-59261703D02*
G01*
X70593100Y-59325853D01*
X70732481Y-59418985D01*
X70851015Y-59537519D01*
X70944147Y-59676900D01*
X71008297Y-59831772D01*
X71041000Y-59996184D01*
X71041000Y-60163816D01*
X71008297Y-60328228D01*
X70944147Y-60483100D01*
X70851015Y-60622481D01*
X70732481Y-60741015D01*
X70593100Y-60834147D01*
X70438228Y-60898297D01*
X70273816Y-60931000D01*
X70106184Y-60931000D01*
X69941772Y-60898297D01*
X69786900Y-60834147D01*
X69647519Y-60741015D01*
X69528985Y-60622481D01*
X69435853Y-60483100D01*
X69371703Y-60328228D01*
X69339000Y-60163816D01*
X69339000Y-59996184D01*
X69371703Y-59831772D01*
X69435853Y-59676900D01*
X69528985Y-59537519D01*
X69647519Y-59418985D01*
X69786900Y-59325853D01*
X69941772Y-59261703D01*
X70106184Y-59229000D01*
X70273816Y-59229000D01*
X70438228Y-59261703D01*
G37*
G36*
X75518228Y-59261703D02*
G01*
X75673100Y-59325853D01*
X75812481Y-59418985D01*
X75931015Y-59537519D01*
X76024147Y-59676900D01*
X76088297Y-59831772D01*
X76121000Y-59996184D01*
X76121000Y-60163816D01*
X76088297Y-60328228D01*
X76024147Y-60483100D01*
X75931015Y-60622481D01*
X75812481Y-60741015D01*
X75673100Y-60834147D01*
X75518228Y-60898297D01*
X75353816Y-60931000D01*
X75186184Y-60931000D01*
X75021772Y-60898297D01*
X74866900Y-60834147D01*
X74727519Y-60741015D01*
X74608985Y-60622481D01*
X74515853Y-60483100D01*
X74451703Y-60328228D01*
X74419000Y-60163816D01*
X74419000Y-59996184D01*
X74451703Y-59831772D01*
X74515853Y-59676900D01*
X74608985Y-59537519D01*
X74727519Y-59418985D01*
X74866900Y-59325853D01*
X75021772Y-59261703D01*
X75186184Y-59229000D01*
X75353816Y-59229000D01*
X75518228Y-59261703D01*
G37*
G36*
X72978228Y-59261703D02*
G01*
X73133100Y-59325853D01*
X73272481Y-59418985D01*
X73391015Y-59537519D01*
X73484147Y-59676900D01*
X73548297Y-59831772D01*
X73581000Y-59996184D01*
X73581000Y-60163816D01*
X73548297Y-60328228D01*
X73484147Y-60483100D01*
X73391015Y-60622481D01*
X73272481Y-60741015D01*
X73133100Y-60834147D01*
X72978228Y-60898297D01*
X72813816Y-60931000D01*
X72646184Y-60931000D01*
X72481772Y-60898297D01*
X72326900Y-60834147D01*
X72187519Y-60741015D01*
X72068985Y-60622481D01*
X71975853Y-60483100D01*
X71911703Y-60328228D01*
X71879000Y-60163816D01*
X71879000Y-59996184D01*
X71911703Y-59831772D01*
X71975853Y-59676900D01*
X72068985Y-59537519D01*
X72187519Y-59418985D01*
X72326900Y-59325853D01*
X72481772Y-59261703D01*
X72646184Y-59229000D01*
X72813816Y-59229000D01*
X72978228Y-59261703D01*
G37*
G36*
X67898228Y-59261703D02*
G01*
X68053100Y-59325853D01*
X68192481Y-59418985D01*
X68311015Y-59537519D01*
X68404147Y-59676900D01*
X68468297Y-59831772D01*
X68501000Y-59996184D01*
X68501000Y-60163816D01*
X68468297Y-60328228D01*
X68404147Y-60483100D01*
X68311015Y-60622481D01*
X68192481Y-60741015D01*
X68053100Y-60834147D01*
X67898228Y-60898297D01*
X67733816Y-60931000D01*
X67566184Y-60931000D01*
X67401772Y-60898297D01*
X67246900Y-60834147D01*
X67107519Y-60741015D01*
X66988985Y-60622481D01*
X66895853Y-60483100D01*
X66831703Y-60328228D01*
X66799000Y-60163816D01*
X66799000Y-59996184D01*
X66831703Y-59831772D01*
X66895853Y-59676900D01*
X66988985Y-59537519D01*
X67107519Y-59418985D01*
X67246900Y-59325853D01*
X67401772Y-59261703D01*
X67566184Y-59229000D01*
X67733816Y-59229000D01*
X67898228Y-59261703D01*
G37*
G36*
X65651000Y-58901000D02*
G01*
X64049000Y-58901000D01*
X64049000Y-57299000D01*
X65651000Y-57299000D01*
X65651000Y-58901000D01*
G37*
G36*
X83785331Y-55008211D02*
G01*
X84113092Y-55143974D01*
X84408070Y-55341072D01*
X84658928Y-55591930D01*
X84856026Y-55886908D01*
X84991789Y-56214669D01*
X85061000Y-56562616D01*
X85061000Y-56917384D01*
X84991789Y-57265331D01*
X84856026Y-57593092D01*
X84658928Y-57888070D01*
X84408070Y-58138928D01*
X84113092Y-58336026D01*
X83785331Y-58471789D01*
X83437384Y-58541000D01*
X83082616Y-58541000D01*
X82734669Y-58471789D01*
X82406908Y-58336026D01*
X82111930Y-58138928D01*
X81861072Y-57888070D01*
X81663974Y-57593092D01*
X81528211Y-57265331D01*
X81459000Y-56917384D01*
X81459000Y-56562616D01*
X81528211Y-56214669D01*
X81663974Y-55886908D01*
X81861072Y-55591930D01*
X82111930Y-55341072D01*
X82406908Y-55143974D01*
X82734669Y-55008211D01*
X83082616Y-54939000D01*
X83437384Y-54939000D01*
X83785331Y-55008211D01*
G37*
G36*
X77401000Y-58201000D02*
G01*
X75799000Y-58201000D01*
X75799000Y-56599000D01*
X77401000Y-56599000D01*
X77401000Y-58201000D01*
G37*
G36*
X74401000Y-58201000D02*
G01*
X72799000Y-58201000D01*
X72799000Y-56599000D01*
X74401000Y-56599000D01*
X74401000Y-58201000D01*
G37*
G36*
X54901000Y-57901000D02*
G01*
X53299000Y-57901000D01*
X53299000Y-56299000D01*
X54901000Y-56299000D01*
X54901000Y-57901000D01*
G37*
G36*
X69970256Y-53741298D02*
G01*
X70076579Y-53762447D01*
X70377042Y-53886903D01*
X70647451Y-54067585D01*
X70877415Y-54297549D01*
X71058097Y-54567958D01*
X71182553Y-54868421D01*
X71246000Y-55187391D01*
X71246000Y-55512609D01*
X71182553Y-55831579D01*
X71058097Y-56132042D01*
X70877415Y-56402451D01*
X70647451Y-56632415D01*
X70377042Y-56813097D01*
X70076579Y-56937553D01*
X69970256Y-56958702D01*
X69757611Y-57001000D01*
X69432389Y-57001000D01*
X69219744Y-56958702D01*
X69113421Y-56937553D01*
X68812958Y-56813097D01*
X68542549Y-56632415D01*
X68312585Y-56402451D01*
X68131903Y-56132042D01*
X68007447Y-55831579D01*
X67944000Y-55512609D01*
X67944000Y-55187391D01*
X68007447Y-54868421D01*
X68131903Y-54567958D01*
X68312585Y-54297549D01*
X68542549Y-54067585D01*
X68812958Y-53886903D01*
X69113421Y-53762447D01*
X69219744Y-53741298D01*
X69432389Y-53699000D01*
X69757611Y-53699000D01*
X69970256Y-53741298D01*
G37*
G36*
X49470256Y-53741298D02*
G01*
X49576579Y-53762447D01*
X49877042Y-53886903D01*
X50147451Y-54067585D01*
X50377415Y-54297549D01*
X50558097Y-54567958D01*
X50682553Y-54868421D01*
X50746000Y-55187391D01*
X50746000Y-55512609D01*
X50682553Y-55831579D01*
X50558097Y-56132042D01*
X50377415Y-56402451D01*
X50147451Y-56632415D01*
X49877042Y-56813097D01*
X49576579Y-56937553D01*
X49470256Y-56958702D01*
X49257611Y-57001000D01*
X48932389Y-57001000D01*
X48719744Y-56958702D01*
X48613421Y-56937553D01*
X48312958Y-56813097D01*
X48042549Y-56632415D01*
X47812585Y-56402451D01*
X47631903Y-56132042D01*
X47507447Y-55831579D01*
X47444000Y-55512609D01*
X47444000Y-55187391D01*
X47507447Y-54868421D01*
X47631903Y-54567958D01*
X47812585Y-54297549D01*
X48042549Y-54067585D01*
X48312958Y-53886903D01*
X48613421Y-53762447D01*
X48719744Y-53741298D01*
X48932389Y-53699000D01*
X49257611Y-53699000D01*
X49470256Y-53741298D01*
G37*
G36*
X83517740Y-44308627D02*
G01*
X83566136Y-44318253D01*
X83603902Y-44333896D01*
X83657311Y-44356019D01*
X83657312Y-44356020D01*
X83739369Y-44410848D01*
X83809152Y-44480631D01*
X83809153Y-44480633D01*
X83863981Y-44562689D01*
X83901747Y-44653865D01*
X83921000Y-44750655D01*
X83921000Y-44849345D01*
X83901747Y-44946135D01*
X83863981Y-45037311D01*
X83863980Y-45037312D01*
X83809152Y-45119369D01*
X83739369Y-45189152D01*
X83698062Y-45216752D01*
X83657311Y-45243981D01*
X83603902Y-45266104D01*
X83566136Y-45281747D01*
X83517740Y-45291373D01*
X83469345Y-45301000D01*
X83370655Y-45301000D01*
X83322260Y-45291373D01*
X83273864Y-45281747D01*
X83236098Y-45266104D01*
X83182689Y-45243981D01*
X83141938Y-45216752D01*
X83100631Y-45189152D01*
X83030848Y-45119369D01*
X82976020Y-45037312D01*
X82976019Y-45037311D01*
X82938253Y-44946135D01*
X82919000Y-44849345D01*
X82919000Y-44750655D01*
X82938253Y-44653865D01*
X82976019Y-44562689D01*
X83030847Y-44480633D01*
X83030848Y-44480631D01*
X83100631Y-44410848D01*
X83182688Y-44356020D01*
X83182689Y-44356019D01*
X83236098Y-44333896D01*
X83273864Y-44318253D01*
X83322260Y-44308627D01*
X83370655Y-44299000D01*
X83469345Y-44299000D01*
X83517740Y-44308627D01*
G37*
G36*
X83517740Y-39908627D02*
G01*
X83566136Y-39918253D01*
X83603902Y-39933896D01*
X83657311Y-39956019D01*
X83657312Y-39956020D01*
X83739369Y-40010848D01*
X83809152Y-40080631D01*
X83809153Y-40080633D01*
X83863981Y-40162689D01*
X83901747Y-40253865D01*
X83921000Y-40350655D01*
X83921000Y-40449345D01*
X83901747Y-40546135D01*
X83863981Y-40637311D01*
X83863980Y-40637312D01*
X83809152Y-40719369D01*
X83739369Y-40789152D01*
X83698062Y-40816752D01*
X83657311Y-40843981D01*
X83603902Y-40866104D01*
X83566136Y-40881747D01*
X83517740Y-40891374D01*
X83469345Y-40901000D01*
X83370655Y-40901000D01*
X83322260Y-40891374D01*
X83273864Y-40881747D01*
X83236098Y-40866104D01*
X83182689Y-40843981D01*
X83141938Y-40816752D01*
X83100631Y-40789152D01*
X83030848Y-40719369D01*
X82976020Y-40637312D01*
X82976019Y-40637311D01*
X82938253Y-40546135D01*
X82919000Y-40449345D01*
X82919000Y-40350655D01*
X82938253Y-40253865D01*
X82976019Y-40162689D01*
X83030847Y-40080633D01*
X83030848Y-40080631D01*
X83100631Y-40010848D01*
X83182688Y-39956020D01*
X83182689Y-39956019D01*
X83236098Y-39933896D01*
X83273864Y-39918253D01*
X83322260Y-39908627D01*
X83370655Y-39899000D01*
X83469345Y-39899000D01*
X83517740Y-39908627D01*
G37*
G36*
X34837000Y-39155000D02*
G01*
X33235000Y-39155000D01*
X33235000Y-37553000D01*
X34837000Y-37553000D01*
X34837000Y-39155000D01*
G37*
G36*
X46476000Y-36776000D02*
G01*
X44874000Y-36776000D01*
X44874000Y-35174000D01*
X46476000Y-35174000D01*
X46476000Y-36776000D01*
G37*
G36*
X57145613Y-33491245D02*
G01*
X57157747Y-33493045D01*
X57224572Y-33499626D01*
X57322415Y-33529307D01*
X57412589Y-33577506D01*
X57491628Y-33642372D01*
X57556494Y-33721411D01*
X57604693Y-33811585D01*
X57634374Y-33909428D01*
X57645000Y-34017324D01*
X57645000Y-34562676D01*
X57634374Y-34670572D01*
X57604693Y-34768415D01*
X57556494Y-34858589D01*
X57491628Y-34937628D01*
X57412589Y-35002494D01*
X57322415Y-35050693D01*
X57224572Y-35080374D01*
X57157747Y-35086955D01*
X57137409Y-35091000D01*
X54049788Y-35091000D01*
X54042387Y-35088755D01*
X54030253Y-35086955D01*
X53963428Y-35080374D01*
X53865585Y-35050693D01*
X53775411Y-35002494D01*
X53696372Y-34937628D01*
X53631506Y-34858589D01*
X53583307Y-34768415D01*
X53553626Y-34670572D01*
X53543000Y-34562676D01*
X53543000Y-34017324D01*
X53553626Y-33909428D01*
X53583307Y-33811585D01*
X53631506Y-33721411D01*
X53696372Y-33642372D01*
X53775411Y-33577506D01*
X53865585Y-33529307D01*
X53963428Y-33499626D01*
X54030253Y-33493045D01*
X54050591Y-33489000D01*
X57138212Y-33489000D01*
X57145613Y-33491245D01*
G37*
G36*
X61717613Y-33491245D02*
G01*
X61729747Y-33493045D01*
X61796572Y-33499626D01*
X61894415Y-33529307D01*
X61984589Y-33577506D01*
X62063628Y-33642372D01*
X62128494Y-33721411D01*
X62176693Y-33811585D01*
X62206374Y-33909428D01*
X62217000Y-34017324D01*
X62217000Y-34562676D01*
X62206374Y-34670572D01*
X62176693Y-34768415D01*
X62128494Y-34858589D01*
X62063628Y-34937628D01*
X61984589Y-35002494D01*
X61894415Y-35050693D01*
X61796572Y-35080374D01*
X61729747Y-35086955D01*
X61709409Y-35091000D01*
X58621788Y-35091000D01*
X58614387Y-35088755D01*
X58602253Y-35086955D01*
X58535428Y-35080374D01*
X58437585Y-35050693D01*
X58347411Y-35002494D01*
X58268372Y-34937628D01*
X58203506Y-34858589D01*
X58155307Y-34768415D01*
X58125626Y-34670572D01*
X58115000Y-34562676D01*
X58115000Y-34017324D01*
X58125626Y-33909428D01*
X58155307Y-33811585D01*
X58203506Y-33721411D01*
X58268372Y-33642372D01*
X58347411Y-33577506D01*
X58437585Y-33529307D01*
X58535428Y-33499626D01*
X58602253Y-33493045D01*
X58622591Y-33489000D01*
X61710212Y-33489000D01*
X61717613Y-33491245D01*
G37*
G36*
X69970256Y-30741298D02*
G01*
X70076579Y-30762447D01*
X70377042Y-30886903D01*
X70647451Y-31067585D01*
X70877415Y-31297549D01*
X71058097Y-31567958D01*
X71182553Y-31868421D01*
X71194817Y-31930075D01*
X71246000Y-32187389D01*
X71246000Y-32512611D01*
X71210821Y-32689468D01*
X71182553Y-32831579D01*
X71182206Y-32832416D01*
X71059957Y-33127553D01*
X71058097Y-33132042D01*
X70877415Y-33402451D01*
X70647451Y-33632415D01*
X70377042Y-33813097D01*
X70076579Y-33937553D01*
X69970256Y-33958702D01*
X69757611Y-34001000D01*
X69432389Y-34001000D01*
X69219744Y-33958702D01*
X69113421Y-33937553D01*
X68812958Y-33813097D01*
X68542549Y-33632415D01*
X68312585Y-33402451D01*
X68131903Y-33132042D01*
X68130044Y-33127553D01*
X68007794Y-32832416D01*
X68007447Y-32831579D01*
X67979179Y-32689468D01*
X67944000Y-32512611D01*
X67944000Y-32187389D01*
X67995183Y-31930075D01*
X68007447Y-31868421D01*
X68131903Y-31567958D01*
X68312585Y-31297549D01*
X68542549Y-31067585D01*
X68812958Y-30886903D01*
X69113421Y-30762447D01*
X69219744Y-30741298D01*
X69432389Y-30699000D01*
X69757611Y-30699000D01*
X69970256Y-30741298D01*
G37*
G36*
X49470256Y-30741298D02*
G01*
X49576579Y-30762447D01*
X49877042Y-30886903D01*
X50147451Y-31067585D01*
X50377415Y-31297549D01*
X50558097Y-31567958D01*
X50682553Y-31868421D01*
X50694817Y-31930075D01*
X50746000Y-32187389D01*
X50746000Y-32512611D01*
X50710821Y-32689468D01*
X50682553Y-32831579D01*
X50682206Y-32832416D01*
X50559957Y-33127553D01*
X50558097Y-33132042D01*
X50377415Y-33402451D01*
X50147451Y-33632415D01*
X49877042Y-33813097D01*
X49576579Y-33937553D01*
X49470256Y-33958702D01*
X49257611Y-34001000D01*
X48932389Y-34001000D01*
X48719744Y-33958702D01*
X48613421Y-33937553D01*
X48312958Y-33813097D01*
X48042549Y-33632415D01*
X47812585Y-33402451D01*
X47631903Y-33132042D01*
X47630044Y-33127553D01*
X47507794Y-32832416D01*
X47507447Y-32831579D01*
X47479179Y-32689468D01*
X47444000Y-32512611D01*
X47444000Y-32187389D01*
X47495183Y-31930075D01*
X47507447Y-31868421D01*
X47631903Y-31567958D01*
X47812585Y-31297549D01*
X48042549Y-31067585D01*
X48312958Y-30886903D01*
X48613421Y-30762447D01*
X48719744Y-30741298D01*
X48932389Y-30699000D01*
X49257611Y-30699000D01*
X49470256Y-30741298D01*
G37*
G36*
X43643512Y-32003927D02*
G01*
X43792812Y-32033624D01*
X43956784Y-32101544D01*
X44104354Y-32200147D01*
X44229853Y-32325646D01*
X44328456Y-32473216D01*
X44396376Y-32637188D01*
X44416490Y-32738311D01*
X44431000Y-32811258D01*
X44431000Y-32988742D01*
X44428144Y-33003098D01*
X44396376Y-33162812D01*
X44328456Y-33326784D01*
X44229853Y-33474354D01*
X44104354Y-33599853D01*
X43956784Y-33698456D01*
X43792812Y-33766376D01*
X43643512Y-33796073D01*
X43618742Y-33801000D01*
X43441258Y-33801000D01*
X43416488Y-33796073D01*
X43267188Y-33766376D01*
X43103216Y-33698456D01*
X42955646Y-33599853D01*
X42830147Y-33474354D01*
X42731544Y-33326784D01*
X42663624Y-33162812D01*
X42631856Y-33003098D01*
X42629000Y-32988742D01*
X42629000Y-32811258D01*
X42643510Y-32738311D01*
X42663624Y-32637188D01*
X42731544Y-32473216D01*
X42830147Y-32325646D01*
X42955646Y-32200147D01*
X43103216Y-32101544D01*
X43267188Y-32033624D01*
X43416488Y-32003927D01*
X43441258Y-31999000D01*
X43618742Y-31999000D01*
X43643512Y-32003927D01*
G37*
G36*
X39351000Y-33801000D02*
G01*
X37549000Y-33801000D01*
X37549000Y-31999000D01*
X39351000Y-31999000D01*
X39351000Y-33801000D01*
G37*
G36*
X41103512Y-32003927D02*
G01*
X41252812Y-32033624D01*
X41416784Y-32101544D01*
X41564354Y-32200147D01*
X41689853Y-32325646D01*
X41788456Y-32473216D01*
X41856376Y-32637188D01*
X41876490Y-32738311D01*
X41891000Y-32811258D01*
X41891000Y-32988742D01*
X41888144Y-33003098D01*
X41856376Y-33162812D01*
X41788456Y-33326784D01*
X41689853Y-33474354D01*
X41564354Y-33599853D01*
X41416784Y-33698456D01*
X41252812Y-33766376D01*
X41103512Y-33796073D01*
X41078742Y-33801000D01*
X40901258Y-33801000D01*
X40876488Y-33796073D01*
X40727188Y-33766376D01*
X40563216Y-33698456D01*
X40415646Y-33599853D01*
X40290147Y-33474354D01*
X40191544Y-33326784D01*
X40123624Y-33162812D01*
X40091856Y-33003098D01*
X40089000Y-32988742D01*
X40089000Y-32811258D01*
X40103510Y-32738311D01*
X40123624Y-32637188D01*
X40191544Y-32473216D01*
X40290147Y-32325646D01*
X40415646Y-32200147D01*
X40563216Y-32101544D01*
X40727188Y-32033624D01*
X40876488Y-32003927D01*
X40901258Y-31999000D01*
X41078742Y-31999000D01*
X41103512Y-32003927D01*
G37*
G36*
X32645256Y-29941298D02*
G01*
X32751579Y-29962447D01*
X32801234Y-29983015D01*
X33051992Y-30086882D01*
X33052042Y-30086903D01*
X33322451Y-30267585D01*
X33552415Y-30497549D01*
X33733097Y-30767958D01*
X33857479Y-31068242D01*
X33857553Y-31068422D01*
X33921000Y-31387389D01*
X33921000Y-31712611D01*
X33888447Y-31876263D01*
X33857553Y-32031579D01*
X33733097Y-32332042D01*
X33552415Y-32602451D01*
X33322451Y-32832415D01*
X33052042Y-33013097D01*
X32751579Y-33137553D01*
X32645256Y-33158702D01*
X32432611Y-33201000D01*
X32107389Y-33201000D01*
X31894744Y-33158702D01*
X31788421Y-33137553D01*
X31487958Y-33013097D01*
X31217549Y-32832415D01*
X30987585Y-32602451D01*
X30806903Y-32332042D01*
X30682447Y-32031579D01*
X30651553Y-31876263D01*
X30619000Y-31712611D01*
X30619000Y-31387389D01*
X30682447Y-31068422D01*
X30682522Y-31068242D01*
X30806903Y-30767958D01*
X30987585Y-30497549D01*
X31217549Y-30267585D01*
X31487958Y-30086903D01*
X31488009Y-30086882D01*
X31738766Y-29983015D01*
X31788421Y-29962447D01*
X31894744Y-29941298D01*
X32107389Y-29899000D01*
X32432611Y-29899000D01*
X32645256Y-29941298D01*
G37*
G36*
X86495256Y-29931298D02*
G01*
X86601579Y-29952447D01*
X86902042Y-30076903D01*
X87172451Y-30257585D01*
X87402415Y-30487549D01*
X87409098Y-30497551D01*
X87583098Y-30757960D01*
X87587239Y-30767958D01*
X87707553Y-31058421D01*
X87709507Y-31068243D01*
X87771000Y-31377389D01*
X87771000Y-31702611D01*
X87757610Y-31769925D01*
X87707553Y-32021579D01*
X87583097Y-32322042D01*
X87402415Y-32592451D01*
X87172451Y-32822415D01*
X86902042Y-33003097D01*
X86902041Y-33003098D01*
X86902040Y-33003098D01*
X86814037Y-33039550D01*
X86601579Y-33127553D01*
X86495256Y-33148702D01*
X86282611Y-33191000D01*
X85957389Y-33191000D01*
X85744744Y-33148702D01*
X85638421Y-33127553D01*
X85425963Y-33039550D01*
X85337960Y-33003098D01*
X85337959Y-33003098D01*
X85337958Y-33003097D01*
X85067549Y-32822415D01*
X84837585Y-32592451D01*
X84656903Y-32322042D01*
X84532447Y-32021579D01*
X84482390Y-31769925D01*
X84469000Y-31702611D01*
X84469000Y-31377389D01*
X84530493Y-31068243D01*
X84532447Y-31058421D01*
X84652761Y-30767958D01*
X84656902Y-30757960D01*
X84830902Y-30497551D01*
X84837585Y-30487549D01*
X85067549Y-30257585D01*
X85337958Y-30076903D01*
X85638421Y-29952447D01*
X85744744Y-29931298D01*
X85957389Y-29889000D01*
X86282611Y-29889000D01*
X86495256Y-29931298D01*
G37*
G36*
X80103114Y-31731611D02*
G01*
X80202265Y-31761688D01*
X80293644Y-31810531D01*
X80373738Y-31876262D01*
X80439469Y-31956356D01*
X80488312Y-32047735D01*
X80518389Y-32146886D01*
X80528545Y-32250000D01*
X80518389Y-32353114D01*
X80488312Y-32452265D01*
X80439469Y-32543644D01*
X80373738Y-32623738D01*
X80293644Y-32689469D01*
X80202265Y-32738312D01*
X80103114Y-32768389D01*
X80025839Y-32776000D01*
X79674161Y-32776000D01*
X79596886Y-32768389D01*
X79497735Y-32738312D01*
X79406356Y-32689469D01*
X79326262Y-32623738D01*
X79260531Y-32543644D01*
X79211688Y-32452265D01*
X79181611Y-32353114D01*
X79171455Y-32250000D01*
X79181611Y-32146886D01*
X79211688Y-32047735D01*
X79260531Y-31956356D01*
X79326262Y-31876262D01*
X79406356Y-31810531D01*
X79497735Y-31761688D01*
X79596886Y-31731611D01*
X79674161Y-31724000D01*
X80025839Y-31724000D01*
X80103114Y-31731611D01*
G37*
G36*
X75103114Y-31731611D02*
G01*
X75202265Y-31761688D01*
X75293644Y-31810531D01*
X75373738Y-31876262D01*
X75439469Y-31956356D01*
X75488312Y-32047735D01*
X75518389Y-32146886D01*
X75528545Y-32250000D01*
X75518389Y-32353114D01*
X75488312Y-32452265D01*
X75439469Y-32543644D01*
X75373738Y-32623738D01*
X75293644Y-32689469D01*
X75202265Y-32738312D01*
X75103114Y-32768389D01*
X75025839Y-32776000D01*
X74674161Y-32776000D01*
X74596886Y-32768389D01*
X74497735Y-32738312D01*
X74406356Y-32689469D01*
X74326262Y-32623738D01*
X74260531Y-32543644D01*
X74211688Y-32452265D01*
X74181611Y-32353114D01*
X74171455Y-32250000D01*
X74181611Y-32146886D01*
X74211688Y-32047735D01*
X74260531Y-31956356D01*
X74326262Y-31876262D01*
X74406356Y-31810531D01*
X74497735Y-31761688D01*
X74596886Y-31731611D01*
X74674161Y-31724000D01*
X75025839Y-31724000D01*
X75103114Y-31731611D01*
G37*
G36*
X63392142Y-31068242D02*
G01*
X63540101Y-31129529D01*
X63673255Y-31218499D01*
X63786501Y-31331745D01*
X63875471Y-31464899D01*
X63936758Y-31612858D01*
X63968000Y-31769925D01*
X63968000Y-31930075D01*
X63936758Y-32087142D01*
X63875471Y-32235101D01*
X63786501Y-32368255D01*
X63673255Y-32481501D01*
X63540101Y-32570471D01*
X63392142Y-32631758D01*
X63235075Y-32663000D01*
X63074925Y-32663000D01*
X62917858Y-32631758D01*
X62769899Y-32570471D01*
X62636745Y-32481501D01*
X62523499Y-32368255D01*
X62434529Y-32235101D01*
X62373242Y-32087142D01*
X62342000Y-31930075D01*
X62342000Y-31769925D01*
X62373242Y-31612858D01*
X62434529Y-31464899D01*
X62523499Y-31331745D01*
X62636745Y-31218499D01*
X62769899Y-31129529D01*
X62917858Y-31068242D01*
X63074925Y-31037000D01*
X63235075Y-31037000D01*
X63392142Y-31068242D01*
G37*
G36*
X60852142Y-31068242D02*
G01*
X61000101Y-31129529D01*
X61133255Y-31218499D01*
X61246501Y-31331745D01*
X61335471Y-31464899D01*
X61396758Y-31612858D01*
X61428000Y-31769925D01*
X61428000Y-31930075D01*
X61396758Y-32087142D01*
X61335471Y-32235101D01*
X61246501Y-32368255D01*
X61133255Y-32481501D01*
X61000101Y-32570471D01*
X60852142Y-32631758D01*
X60695075Y-32663000D01*
X60534925Y-32663000D01*
X60377858Y-32631758D01*
X60229899Y-32570471D01*
X60096745Y-32481501D01*
X59983499Y-32368255D01*
X59894529Y-32235101D01*
X59833242Y-32087142D01*
X59802000Y-31930075D01*
X59802000Y-31769925D01*
X59833242Y-31612858D01*
X59894529Y-31464899D01*
X59983499Y-31331745D01*
X60096745Y-31218499D01*
X60229899Y-31129529D01*
X60377858Y-31068242D01*
X60534925Y-31037000D01*
X60695075Y-31037000D01*
X60852142Y-31068242D01*
G37*
G36*
X58312142Y-31068242D02*
G01*
X58460101Y-31129529D01*
X58593255Y-31218499D01*
X58706501Y-31331745D01*
X58795471Y-31464899D01*
X58856758Y-31612858D01*
X58888000Y-31769925D01*
X58888000Y-31930075D01*
X58856758Y-32087142D01*
X58795471Y-32235101D01*
X58706501Y-32368255D01*
X58593255Y-32481501D01*
X58460101Y-32570471D01*
X58312142Y-32631758D01*
X58155075Y-32663000D01*
X57994925Y-32663000D01*
X57837858Y-32631758D01*
X57689899Y-32570471D01*
X57556745Y-32481501D01*
X57443499Y-32368255D01*
X57354529Y-32235101D01*
X57293242Y-32087142D01*
X57262000Y-31930075D01*
X57262000Y-31769925D01*
X57293242Y-31612858D01*
X57354529Y-31464899D01*
X57443499Y-31331745D01*
X57556745Y-31218499D01*
X57689899Y-31129529D01*
X57837858Y-31068242D01*
X57994925Y-31037000D01*
X58155075Y-31037000D01*
X58312142Y-31068242D01*
G37*
G36*
X55772142Y-31068242D02*
G01*
X55920101Y-31129529D01*
X56053255Y-31218499D01*
X56166501Y-31331745D01*
X56255471Y-31464899D01*
X56316758Y-31612858D01*
X56348000Y-31769925D01*
X56348000Y-31930075D01*
X56316758Y-32087142D01*
X56255471Y-32235101D01*
X56166501Y-32368255D01*
X56053255Y-32481501D01*
X55920101Y-32570471D01*
X55772142Y-32631758D01*
X55615075Y-32663000D01*
X55454925Y-32663000D01*
X55297858Y-32631758D01*
X55149899Y-32570471D01*
X55016745Y-32481501D01*
X54903499Y-32368255D01*
X54814529Y-32235101D01*
X54753242Y-32087142D01*
X54722000Y-31930075D01*
X54722000Y-31769925D01*
X54753242Y-31612858D01*
X54814529Y-31464899D01*
X54903499Y-31331745D01*
X55016745Y-31218499D01*
X55149899Y-31129529D01*
X55297858Y-31068242D01*
X55454925Y-31037000D01*
X55615075Y-31037000D01*
X55772142Y-31068242D01*
G37*
G36*
X80958015Y-28681973D02*
G01*
X81061879Y-28713479D01*
X81089055Y-28728005D01*
X81157600Y-28764643D01*
X81241501Y-28833499D01*
X81310357Y-28917400D01*
X81346995Y-28985945D01*
X81361521Y-29013121D01*
X81393027Y-29116985D01*
X81401000Y-29197933D01*
X81401000Y-29902067D01*
X81393027Y-29983015D01*
X81361521Y-30086879D01*
X81310356Y-30182600D01*
X81241501Y-30266501D01*
X81172645Y-30323009D01*
X81157599Y-30335357D01*
X81105907Y-30362987D01*
X81061878Y-30386521D01*
X80958014Y-30418027D01*
X80850000Y-30428666D01*
X80741985Y-30418027D01*
X80638121Y-30386521D01*
X80594093Y-30362987D01*
X80542401Y-30335357D01*
X80529643Y-30324887D01*
X80458499Y-30266501D01*
X80389644Y-30182600D01*
X80338479Y-30086878D01*
X80306973Y-29983014D01*
X80299000Y-29902066D01*
X80299000Y-29197933D01*
X80306973Y-29116985D01*
X80338480Y-29013121D01*
X80338482Y-29013118D01*
X80389645Y-28917399D01*
X80458500Y-28833499D01*
X80542401Y-28764643D01*
X80610946Y-28728005D01*
X80638122Y-28713479D01*
X80741986Y-28681973D01*
X80850000Y-28671334D01*
X80958015Y-28681973D01*
G37*
G36*
X73958015Y-28681973D02*
G01*
X74061879Y-28713479D01*
X74089055Y-28728005D01*
X74157600Y-28764643D01*
X74241501Y-28833499D01*
X74310357Y-28917400D01*
X74346995Y-28985945D01*
X74361521Y-29013121D01*
X74393027Y-29116985D01*
X74401000Y-29197933D01*
X74401000Y-29902067D01*
X74393027Y-29983015D01*
X74361521Y-30086879D01*
X74310356Y-30182600D01*
X74241501Y-30266501D01*
X74172645Y-30323009D01*
X74157599Y-30335357D01*
X74105907Y-30362987D01*
X74061878Y-30386521D01*
X73958014Y-30418027D01*
X73850000Y-30428666D01*
X73741985Y-30418027D01*
X73638121Y-30386521D01*
X73594093Y-30362987D01*
X73542401Y-30335357D01*
X73529643Y-30324887D01*
X73458499Y-30266501D01*
X73389644Y-30182600D01*
X73338479Y-30086878D01*
X73306973Y-29983014D01*
X73299000Y-29902066D01*
X73299000Y-29197933D01*
X73306973Y-29116985D01*
X73338480Y-29013121D01*
X73338482Y-29013118D01*
X73389645Y-28917399D01*
X73458500Y-28833499D01*
X73542401Y-28764643D01*
X73610946Y-28728005D01*
X73638122Y-28713479D01*
X73741986Y-28681973D01*
X73850000Y-28671334D01*
X73958015Y-28681973D01*
G37*
M02*
