G04 #@! TF.GenerationSoftware,KiCad,Pcbnew,(5.1.5-0-10_14)*
G04 #@! TF.CreationDate,2019-12-09T00:47:21-08:00*
G04 #@! TF.ProjectId,powersupply,706f7765-7273-4757-9070-6c792e6b6963,rev?*
G04 #@! TF.SameCoordinates,Original*
G04 #@! TF.FileFunction,Soldermask,Top*
G04 #@! TF.FilePolarity,Negative*
%FSLAX46Y46*%
G04 Gerber Fmt 4.6, Leading zero omitted, Abs format (unit mm)*
G04 Created by KiCad (PCBNEW (5.1.5-0-10_14)) date 2019-12-09 00:47:21*
%MOMM*%
%LPD*%
G04 APERTURE LIST*
%ADD10C,0.100000*%
G04 APERTURE END LIST*
D10*
G36*
X82218766Y-89278821D02*
G01*
X82355257Y-89335358D01*
X82478097Y-89417437D01*
X82582563Y-89521903D01*
X82664642Y-89644743D01*
X82721179Y-89781234D01*
X82750000Y-89926130D01*
X82750000Y-90073870D01*
X82721179Y-90218766D01*
X82664642Y-90355257D01*
X82582563Y-90478097D01*
X82478097Y-90582563D01*
X82355257Y-90664642D01*
X82218766Y-90721179D01*
X82073870Y-90750000D01*
X81926130Y-90750000D01*
X81781234Y-90721179D01*
X81644743Y-90664642D01*
X81521903Y-90582563D01*
X81417437Y-90478097D01*
X81335358Y-90355257D01*
X81278821Y-90218766D01*
X81250000Y-90073870D01*
X81250000Y-89926130D01*
X81278821Y-89781234D01*
X81335358Y-89644743D01*
X81417437Y-89521903D01*
X81521903Y-89417437D01*
X81644743Y-89335358D01*
X81781234Y-89278821D01*
X81926130Y-89250000D01*
X82073870Y-89250000D01*
X82218766Y-89278821D01*
G37*
G36*
X86495256Y-86341298D02*
G01*
X86601579Y-86362447D01*
X86902042Y-86486903D01*
X87172451Y-86667585D01*
X87402415Y-86897549D01*
X87509304Y-87057520D01*
X87583098Y-87167960D01*
X87619550Y-87255963D01*
X87680716Y-87403630D01*
X87707553Y-87468422D01*
X87771000Y-87787389D01*
X87771000Y-88112611D01*
X87765058Y-88142481D01*
X87707553Y-88431579D01*
X87583097Y-88732042D01*
X87402415Y-89002451D01*
X87172451Y-89232415D01*
X86902042Y-89413097D01*
X86902041Y-89413098D01*
X86902040Y-89413098D01*
X86814037Y-89449550D01*
X86601579Y-89537553D01*
X86495256Y-89558702D01*
X86282611Y-89601000D01*
X85957389Y-89601000D01*
X85744744Y-89558702D01*
X85638421Y-89537553D01*
X85425963Y-89449550D01*
X85337960Y-89413098D01*
X85337959Y-89413098D01*
X85337958Y-89413097D01*
X85067549Y-89232415D01*
X84837585Y-89002451D01*
X84656903Y-88732042D01*
X84532447Y-88431579D01*
X84474942Y-88142481D01*
X84469000Y-88112611D01*
X84469000Y-87787389D01*
X84532447Y-87468422D01*
X84559285Y-87403630D01*
X84620450Y-87255963D01*
X84656902Y-87167960D01*
X84730696Y-87057520D01*
X84837585Y-86897549D01*
X85067549Y-86667585D01*
X85337958Y-86486903D01*
X85638421Y-86362447D01*
X85744744Y-86341298D01*
X85957389Y-86299000D01*
X86282611Y-86299000D01*
X86495256Y-86341298D01*
G37*
G36*
X32645256Y-86341298D02*
G01*
X32751579Y-86362447D01*
X33052042Y-86486903D01*
X33322451Y-86667585D01*
X33552415Y-86897549D01*
X33659304Y-87057520D01*
X33733098Y-87167960D01*
X33769550Y-87255963D01*
X33830716Y-87403630D01*
X33857553Y-87468422D01*
X33921000Y-87787389D01*
X33921000Y-88112611D01*
X33915058Y-88142481D01*
X33857553Y-88431579D01*
X33733097Y-88732042D01*
X33552415Y-89002451D01*
X33322451Y-89232415D01*
X33052042Y-89413097D01*
X33052041Y-89413098D01*
X33052040Y-89413098D01*
X32964037Y-89449550D01*
X32751579Y-89537553D01*
X32645256Y-89558702D01*
X32432611Y-89601000D01*
X32107389Y-89601000D01*
X31894744Y-89558702D01*
X31788421Y-89537553D01*
X31575963Y-89449550D01*
X31487960Y-89413098D01*
X31487959Y-89413098D01*
X31487958Y-89413097D01*
X31217549Y-89232415D01*
X30987585Y-89002451D01*
X30806903Y-88732042D01*
X30682447Y-88431579D01*
X30624942Y-88142481D01*
X30619000Y-88112611D01*
X30619000Y-87787389D01*
X30682447Y-87468422D01*
X30709285Y-87403630D01*
X30770450Y-87255963D01*
X30806902Y-87167960D01*
X30880696Y-87057520D01*
X30987585Y-86897549D01*
X31217549Y-86667585D01*
X31487958Y-86486903D01*
X31788421Y-86362447D01*
X31894744Y-86341298D01*
X32107389Y-86299000D01*
X32432611Y-86299000D01*
X32645256Y-86341298D01*
G37*
G36*
X69970787Y-81725462D02*
G01*
X69970790Y-81725463D01*
X69970789Y-81725463D01*
X70617029Y-81993144D01*
X71198631Y-82381758D01*
X71693242Y-82876369D01*
X72081856Y-83457971D01*
X72081856Y-83457972D01*
X72349538Y-84104213D01*
X72486000Y-84790256D01*
X72486000Y-85489744D01*
X72349538Y-86175787D01*
X72349537Y-86175789D01*
X72081856Y-86822029D01*
X71693242Y-87403631D01*
X71198631Y-87898242D01*
X70617029Y-88286856D01*
X70267636Y-88431579D01*
X69970787Y-88554538D01*
X69284744Y-88691000D01*
X68585256Y-88691000D01*
X67899213Y-88554538D01*
X67602364Y-88431579D01*
X67252971Y-88286856D01*
X66671369Y-87898242D01*
X66176758Y-87403631D01*
X65788144Y-86822029D01*
X65520463Y-86175789D01*
X65520462Y-86175787D01*
X65384000Y-85489744D01*
X65384000Y-84790256D01*
X65520462Y-84104213D01*
X65788144Y-83457972D01*
X65788144Y-83457971D01*
X66176758Y-82876369D01*
X66671369Y-82381758D01*
X67252971Y-81993144D01*
X67899211Y-81725463D01*
X67899210Y-81725463D01*
X67899213Y-81725462D01*
X68585256Y-81589000D01*
X69284744Y-81589000D01*
X69970787Y-81725462D01*
G37*
G36*
X50920787Y-81725462D02*
G01*
X50920790Y-81725463D01*
X50920789Y-81725463D01*
X51567029Y-81993144D01*
X52148631Y-82381758D01*
X52643242Y-82876369D01*
X53031856Y-83457971D01*
X53031856Y-83457972D01*
X53299538Y-84104213D01*
X53436000Y-84790256D01*
X53436000Y-85489744D01*
X53299538Y-86175787D01*
X53299537Y-86175789D01*
X53031856Y-86822029D01*
X52643242Y-87403631D01*
X52148631Y-87898242D01*
X51567029Y-88286856D01*
X51217636Y-88431579D01*
X50920787Y-88554538D01*
X50234744Y-88691000D01*
X49535256Y-88691000D01*
X48849213Y-88554538D01*
X48552364Y-88431579D01*
X48202971Y-88286856D01*
X47621369Y-87898242D01*
X47126758Y-87403631D01*
X46738144Y-86822029D01*
X46470463Y-86175789D01*
X46470462Y-86175787D01*
X46334000Y-85489744D01*
X46334000Y-84790256D01*
X46470462Y-84104213D01*
X46738144Y-83457972D01*
X46738144Y-83457971D01*
X47126758Y-82876369D01*
X47621369Y-82381758D01*
X48202971Y-81993144D01*
X48849211Y-81725463D01*
X48849210Y-81725463D01*
X48849213Y-81725462D01*
X49535256Y-81589000D01*
X50234744Y-81589000D01*
X50920787Y-81725462D01*
G37*
G36*
X78501000Y-88501000D02*
G01*
X76899000Y-88501000D01*
X76899000Y-86899000D01*
X78501000Y-86899000D01*
X78501000Y-88501000D01*
G37*
G36*
X40248228Y-86781703D02*
G01*
X40403100Y-86845853D01*
X40542481Y-86938985D01*
X40661015Y-87057519D01*
X40754147Y-87196900D01*
X40818297Y-87351772D01*
X40851000Y-87516184D01*
X40851000Y-87683816D01*
X40818297Y-87848228D01*
X40754147Y-88003100D01*
X40661015Y-88142481D01*
X40542481Y-88261015D01*
X40403100Y-88354147D01*
X40248228Y-88418297D01*
X40083816Y-88451000D01*
X39916184Y-88451000D01*
X39751772Y-88418297D01*
X39596900Y-88354147D01*
X39457519Y-88261015D01*
X39338985Y-88142481D01*
X39245853Y-88003100D01*
X39181703Y-87848228D01*
X39149000Y-87683816D01*
X39149000Y-87516184D01*
X39181703Y-87351772D01*
X39245853Y-87196900D01*
X39338985Y-87057519D01*
X39457519Y-86938985D01*
X39596900Y-86845853D01*
X39751772Y-86781703D01*
X39916184Y-86749000D01*
X40083816Y-86749000D01*
X40248228Y-86781703D01*
G37*
G36*
X40851000Y-85951000D02*
G01*
X39149000Y-85951000D01*
X39149000Y-84249000D01*
X40851000Y-84249000D01*
X40851000Y-85951000D01*
G37*
G36*
X30218766Y-83278821D02*
G01*
X30355257Y-83335358D01*
X30478097Y-83417437D01*
X30582563Y-83521903D01*
X30664642Y-83644743D01*
X30721179Y-83781234D01*
X30750000Y-83926130D01*
X30750000Y-84073870D01*
X30721179Y-84218766D01*
X30664642Y-84355257D01*
X30582563Y-84478097D01*
X30478097Y-84582563D01*
X30355257Y-84664642D01*
X30218766Y-84721179D01*
X30073870Y-84750000D01*
X29926130Y-84750000D01*
X29781234Y-84721179D01*
X29644743Y-84664642D01*
X29521903Y-84582563D01*
X29417437Y-84478097D01*
X29335358Y-84355257D01*
X29278821Y-84218766D01*
X29250000Y-84073870D01*
X29250000Y-83926130D01*
X29278821Y-83781234D01*
X29335358Y-83644743D01*
X29417437Y-83521903D01*
X29521903Y-83417437D01*
X29644743Y-83335358D01*
X29781234Y-83278821D01*
X29926130Y-83250000D01*
X30073870Y-83250000D01*
X30218766Y-83278821D01*
G37*
G36*
X33734468Y-82153565D02*
G01*
X33773138Y-82165296D01*
X33808777Y-82184346D01*
X33840017Y-82209983D01*
X33865654Y-82241223D01*
X33884704Y-82276862D01*
X33896435Y-82315532D01*
X33901000Y-82361888D01*
X33901000Y-83438112D01*
X33896435Y-83484468D01*
X33884704Y-83523138D01*
X33865654Y-83558777D01*
X33840017Y-83590017D01*
X33808777Y-83615654D01*
X33773138Y-83634704D01*
X33734468Y-83646435D01*
X33688112Y-83651000D01*
X33036888Y-83651000D01*
X32990532Y-83646435D01*
X32951862Y-83634704D01*
X32916223Y-83615654D01*
X32884983Y-83590017D01*
X32859346Y-83558777D01*
X32840296Y-83523138D01*
X32828565Y-83484468D01*
X32824000Y-83438112D01*
X32824000Y-82361888D01*
X32828565Y-82315532D01*
X32840296Y-82276862D01*
X32859346Y-82241223D01*
X32884983Y-82209983D01*
X32916223Y-82184346D01*
X32951862Y-82165296D01*
X32990532Y-82153565D01*
X33036888Y-82149000D01*
X33688112Y-82149000D01*
X33734468Y-82153565D01*
G37*
G36*
X35609468Y-82153565D02*
G01*
X35648138Y-82165296D01*
X35683777Y-82184346D01*
X35715017Y-82209983D01*
X35740654Y-82241223D01*
X35759704Y-82276862D01*
X35771435Y-82315532D01*
X35776000Y-82361888D01*
X35776000Y-83438112D01*
X35771435Y-83484468D01*
X35759704Y-83523138D01*
X35740654Y-83558777D01*
X35715017Y-83590017D01*
X35683777Y-83615654D01*
X35648138Y-83634704D01*
X35609468Y-83646435D01*
X35563112Y-83651000D01*
X34911888Y-83651000D01*
X34865532Y-83646435D01*
X34826862Y-83634704D01*
X34791223Y-83615654D01*
X34759983Y-83590017D01*
X34734346Y-83558777D01*
X34715296Y-83523138D01*
X34703565Y-83484468D01*
X34699000Y-83438112D01*
X34699000Y-82361888D01*
X34703565Y-82315532D01*
X34715296Y-82276862D01*
X34734346Y-82241223D01*
X34759983Y-82209983D01*
X34791223Y-82184346D01*
X34826862Y-82165296D01*
X34865532Y-82153565D01*
X34911888Y-82149000D01*
X35563112Y-82149000D01*
X35609468Y-82153565D01*
G37*
G36*
X78648228Y-80881703D02*
G01*
X78803100Y-80945853D01*
X78942481Y-81038985D01*
X79061015Y-81157519D01*
X79154147Y-81296900D01*
X79218297Y-81451772D01*
X79251000Y-81616184D01*
X79251000Y-81783816D01*
X79218297Y-81948228D01*
X79154147Y-82103100D01*
X79061015Y-82242481D01*
X78942481Y-82361015D01*
X78803100Y-82454147D01*
X78648228Y-82518297D01*
X78483816Y-82551000D01*
X78316184Y-82551000D01*
X78151772Y-82518297D01*
X77996900Y-82454147D01*
X77857519Y-82361015D01*
X77738985Y-82242481D01*
X77645853Y-82103100D01*
X77581703Y-81948228D01*
X77549000Y-81783816D01*
X77549000Y-81616184D01*
X77581703Y-81451772D01*
X77645853Y-81296900D01*
X77738985Y-81157519D01*
X77857519Y-81038985D01*
X77996900Y-80945853D01*
X78151772Y-80881703D01*
X78316184Y-80849000D01*
X78483816Y-80849000D01*
X78648228Y-80881703D01*
G37*
G36*
X61611000Y-81741000D02*
G01*
X59809000Y-81741000D01*
X59809000Y-79939000D01*
X61611000Y-79939000D01*
X61611000Y-81741000D01*
G37*
G36*
X58283512Y-79943927D02*
G01*
X58432812Y-79973624D01*
X58596784Y-80041544D01*
X58744354Y-80140147D01*
X58869853Y-80265646D01*
X58968456Y-80413216D01*
X59036376Y-80577188D01*
X59066073Y-80726488D01*
X59071000Y-80751258D01*
X59071000Y-80928742D01*
X59067596Y-80945853D01*
X59036376Y-81102812D01*
X58968456Y-81266784D01*
X58869853Y-81414354D01*
X58744354Y-81539853D01*
X58596784Y-81638456D01*
X58432812Y-81706376D01*
X58283512Y-81736073D01*
X58258742Y-81741000D01*
X58081258Y-81741000D01*
X58056488Y-81736073D01*
X57907188Y-81706376D01*
X57743216Y-81638456D01*
X57595646Y-81539853D01*
X57470147Y-81414354D01*
X57371544Y-81266784D01*
X57303624Y-81102812D01*
X57272404Y-80945853D01*
X57269000Y-80928742D01*
X57269000Y-80751258D01*
X57273927Y-80726488D01*
X57303624Y-80577188D01*
X57371544Y-80413216D01*
X57470147Y-80265646D01*
X57595646Y-80140147D01*
X57743216Y-80041544D01*
X57907188Y-79973624D01*
X58056488Y-79943927D01*
X58081258Y-79939000D01*
X58258742Y-79939000D01*
X58283512Y-79943927D01*
G37*
G36*
X79251000Y-80051000D02*
G01*
X77549000Y-80051000D01*
X77549000Y-78349000D01*
X79251000Y-78349000D01*
X79251000Y-80051000D01*
G37*
G36*
X36756564Y-77489389D02*
G01*
X36947833Y-77568615D01*
X36947835Y-77568616D01*
X36996301Y-77601000D01*
X37119973Y-77683635D01*
X37266365Y-77830027D01*
X37381385Y-78002167D01*
X37460611Y-78193436D01*
X37501000Y-78396484D01*
X37501000Y-78603516D01*
X37460611Y-78806564D01*
X37381385Y-78997833D01*
X37381384Y-78997835D01*
X37266365Y-79169973D01*
X37119973Y-79316365D01*
X36947835Y-79431384D01*
X36947834Y-79431385D01*
X36947833Y-79431385D01*
X36756564Y-79510611D01*
X36553516Y-79551000D01*
X36346484Y-79551000D01*
X36143436Y-79510611D01*
X35952167Y-79431385D01*
X35952166Y-79431385D01*
X35952165Y-79431384D01*
X35780027Y-79316365D01*
X35633635Y-79169973D01*
X35518616Y-78997835D01*
X35518615Y-78997833D01*
X35439389Y-78806564D01*
X35399000Y-78603516D01*
X35399000Y-78396484D01*
X35439389Y-78193436D01*
X35518615Y-78002167D01*
X35633635Y-77830027D01*
X35780027Y-77683635D01*
X35903699Y-77601000D01*
X35952165Y-77568616D01*
X35952167Y-77568615D01*
X36143436Y-77489389D01*
X36346484Y-77449000D01*
X36553516Y-77449000D01*
X36756564Y-77489389D01*
G37*
G36*
X71784468Y-77153565D02*
G01*
X71823138Y-77165296D01*
X71858777Y-77184346D01*
X71890017Y-77209983D01*
X71915654Y-77241223D01*
X71934704Y-77276862D01*
X71946435Y-77315532D01*
X71951000Y-77361888D01*
X71951000Y-78438112D01*
X71946435Y-78484468D01*
X71934704Y-78523138D01*
X71915654Y-78558777D01*
X71890017Y-78590017D01*
X71858777Y-78615654D01*
X71823138Y-78634704D01*
X71784468Y-78646435D01*
X71738112Y-78651000D01*
X71086888Y-78651000D01*
X71040532Y-78646435D01*
X71001862Y-78634704D01*
X70966223Y-78615654D01*
X70934983Y-78590017D01*
X70909346Y-78558777D01*
X70890296Y-78523138D01*
X70878565Y-78484468D01*
X70874000Y-78438112D01*
X70874000Y-77361888D01*
X70878565Y-77315532D01*
X70890296Y-77276862D01*
X70909346Y-77241223D01*
X70934983Y-77209983D01*
X70966223Y-77184346D01*
X71001862Y-77165296D01*
X71040532Y-77153565D01*
X71086888Y-77149000D01*
X71738112Y-77149000D01*
X71784468Y-77153565D01*
G37*
G36*
X73659468Y-77153565D02*
G01*
X73698138Y-77165296D01*
X73733777Y-77184346D01*
X73765017Y-77209983D01*
X73790654Y-77241223D01*
X73809704Y-77276862D01*
X73821435Y-77315532D01*
X73826000Y-77361888D01*
X73826000Y-78438112D01*
X73821435Y-78484468D01*
X73809704Y-78523138D01*
X73790654Y-78558777D01*
X73765017Y-78590017D01*
X73733777Y-78615654D01*
X73698138Y-78634704D01*
X73659468Y-78646435D01*
X73613112Y-78651000D01*
X72961888Y-78651000D01*
X72915532Y-78646435D01*
X72876862Y-78634704D01*
X72841223Y-78615654D01*
X72809983Y-78590017D01*
X72784346Y-78558777D01*
X72765296Y-78523138D01*
X72753565Y-78484468D01*
X72749000Y-78438112D01*
X72749000Y-77361888D01*
X72753565Y-77315532D01*
X72765296Y-77276862D01*
X72784346Y-77241223D01*
X72809983Y-77209983D01*
X72841223Y-77184346D01*
X72876862Y-77165296D01*
X72915532Y-77153565D01*
X72961888Y-77149000D01*
X73613112Y-77149000D01*
X73659468Y-77153565D01*
G37*
G36*
X83301000Y-77601000D02*
G01*
X81699000Y-77601000D01*
X81699000Y-75999000D01*
X83301000Y-75999000D01*
X83301000Y-77601000D01*
G37*
G36*
X64513512Y-75503927D02*
G01*
X64662812Y-75533624D01*
X64826784Y-75601544D01*
X64974354Y-75700147D01*
X65099853Y-75825646D01*
X65198456Y-75973216D01*
X65266376Y-76137188D01*
X65277405Y-76192638D01*
X65284516Y-76216078D01*
X65296067Y-76237689D01*
X65311613Y-76256631D01*
X65330555Y-76272176D01*
X65352165Y-76283727D01*
X65375614Y-76290840D01*
X65400000Y-76293242D01*
X65424387Y-76290840D01*
X65447835Y-76283727D01*
X65469446Y-76272176D01*
X65488388Y-76256630D01*
X65503933Y-76237688D01*
X65515484Y-76216078D01*
X65522595Y-76192638D01*
X65533624Y-76137188D01*
X65601544Y-75973216D01*
X65700147Y-75825646D01*
X65825646Y-75700147D01*
X65973216Y-75601544D01*
X66137188Y-75533624D01*
X66286488Y-75503927D01*
X66311258Y-75499000D01*
X66488742Y-75499000D01*
X66513512Y-75503927D01*
X66662812Y-75533624D01*
X66826784Y-75601544D01*
X66974354Y-75700147D01*
X67099853Y-75825646D01*
X67198456Y-75973216D01*
X67266376Y-76137188D01*
X67301000Y-76311259D01*
X67301000Y-76488741D01*
X67266376Y-76662812D01*
X67198456Y-76826784D01*
X67099853Y-76974354D01*
X66974354Y-77099853D01*
X66826784Y-77198456D01*
X66662812Y-77266376D01*
X66513512Y-77296073D01*
X66488742Y-77301000D01*
X66311258Y-77301000D01*
X66286488Y-77296073D01*
X66137188Y-77266376D01*
X65973216Y-77198456D01*
X65825646Y-77099853D01*
X65700147Y-76974354D01*
X65601544Y-76826784D01*
X65533624Y-76662812D01*
X65522595Y-76607362D01*
X65515484Y-76583922D01*
X65503933Y-76562311D01*
X65488387Y-76543369D01*
X65469445Y-76527824D01*
X65447835Y-76516273D01*
X65424386Y-76509160D01*
X65400000Y-76506758D01*
X65375613Y-76509160D01*
X65352165Y-76516273D01*
X65330554Y-76527824D01*
X65311612Y-76543370D01*
X65296067Y-76562312D01*
X65284516Y-76583922D01*
X65277405Y-76607362D01*
X65266376Y-76662812D01*
X65198456Y-76826784D01*
X65099853Y-76974354D01*
X64974354Y-77099853D01*
X64826784Y-77198456D01*
X64662812Y-77266376D01*
X64513512Y-77296073D01*
X64488742Y-77301000D01*
X64311258Y-77301000D01*
X64286488Y-77296073D01*
X64137188Y-77266376D01*
X63973216Y-77198456D01*
X63825646Y-77099853D01*
X63700147Y-76974354D01*
X63601544Y-76826784D01*
X63533624Y-76662812D01*
X63499000Y-76488741D01*
X63499000Y-76311259D01*
X63533624Y-76137188D01*
X63601544Y-75973216D01*
X63700147Y-75825646D01*
X63825646Y-75700147D01*
X63973216Y-75601544D01*
X64137188Y-75533624D01*
X64286488Y-75503927D01*
X64311258Y-75499000D01*
X64488742Y-75499000D01*
X64513512Y-75503927D01*
G37*
G36*
X56098228Y-75331703D02*
G01*
X56253100Y-75395853D01*
X56392481Y-75488985D01*
X56511015Y-75607519D01*
X56604147Y-75746900D01*
X56668297Y-75901772D01*
X56701000Y-76066184D01*
X56701000Y-76233816D01*
X56668297Y-76398228D01*
X56604147Y-76553100D01*
X56511015Y-76692481D01*
X56392481Y-76811015D01*
X56253100Y-76904147D01*
X56098228Y-76968297D01*
X55933816Y-77001000D01*
X55766184Y-77001000D01*
X55601772Y-76968297D01*
X55446900Y-76904147D01*
X55307519Y-76811015D01*
X55188985Y-76692481D01*
X55095853Y-76553100D01*
X55031703Y-76398228D01*
X54999000Y-76233816D01*
X54999000Y-76066184D01*
X55031703Y-75901772D01*
X55095853Y-75746900D01*
X55188985Y-75607519D01*
X55307519Y-75488985D01*
X55446900Y-75395853D01*
X55601772Y-75331703D01*
X55766184Y-75299000D01*
X55933816Y-75299000D01*
X56098228Y-75331703D01*
G37*
G36*
X58598228Y-75331703D02*
G01*
X58753100Y-75395853D01*
X58892481Y-75488985D01*
X59011015Y-75607519D01*
X59104147Y-75746900D01*
X59168297Y-75901772D01*
X59201000Y-76066184D01*
X59201000Y-76233816D01*
X59168297Y-76398228D01*
X59104147Y-76553100D01*
X59011015Y-76692481D01*
X58892481Y-76811015D01*
X58753100Y-76904147D01*
X58598228Y-76968297D01*
X58433816Y-77001000D01*
X58266184Y-77001000D01*
X58101772Y-76968297D01*
X57946900Y-76904147D01*
X57807519Y-76811015D01*
X57688985Y-76692481D01*
X57595853Y-76553100D01*
X57531703Y-76398228D01*
X57499000Y-76233816D01*
X57499000Y-76066184D01*
X57531703Y-75901772D01*
X57595853Y-75746900D01*
X57688985Y-75607519D01*
X57807519Y-75488985D01*
X57946900Y-75395853D01*
X58101772Y-75331703D01*
X58266184Y-75299000D01*
X58433816Y-75299000D01*
X58598228Y-75331703D01*
G37*
G36*
X73659468Y-75053565D02*
G01*
X73698138Y-75065296D01*
X73733777Y-75084346D01*
X73765017Y-75109983D01*
X73790654Y-75141223D01*
X73809704Y-75176862D01*
X73821435Y-75215532D01*
X73826000Y-75261888D01*
X73826000Y-76338112D01*
X73821435Y-76384468D01*
X73809704Y-76423138D01*
X73790654Y-76458777D01*
X73765017Y-76490017D01*
X73733777Y-76515654D01*
X73698138Y-76534704D01*
X73659468Y-76546435D01*
X73613112Y-76551000D01*
X72961888Y-76551000D01*
X72915532Y-76546435D01*
X72876862Y-76534704D01*
X72841223Y-76515654D01*
X72809983Y-76490017D01*
X72784346Y-76458777D01*
X72765296Y-76423138D01*
X72753565Y-76384468D01*
X72749000Y-76338112D01*
X72749000Y-75261888D01*
X72753565Y-75215532D01*
X72765296Y-75176862D01*
X72784346Y-75141223D01*
X72809983Y-75109983D01*
X72841223Y-75084346D01*
X72876862Y-75065296D01*
X72915532Y-75053565D01*
X72961888Y-75049000D01*
X73613112Y-75049000D01*
X73659468Y-75053565D01*
G37*
G36*
X71784468Y-75053565D02*
G01*
X71823138Y-75065296D01*
X71858777Y-75084346D01*
X71890017Y-75109983D01*
X71915654Y-75141223D01*
X71934704Y-75176862D01*
X71946435Y-75215532D01*
X71951000Y-75261888D01*
X71951000Y-76338112D01*
X71946435Y-76384468D01*
X71934704Y-76423138D01*
X71915654Y-76458777D01*
X71890017Y-76490017D01*
X71858777Y-76515654D01*
X71823138Y-76534704D01*
X71784468Y-76546435D01*
X71738112Y-76551000D01*
X71086888Y-76551000D01*
X71040532Y-76546435D01*
X71001862Y-76534704D01*
X70966223Y-76515654D01*
X70934983Y-76490017D01*
X70909346Y-76458777D01*
X70890296Y-76423138D01*
X70878565Y-76384468D01*
X70874000Y-76338112D01*
X70874000Y-75261888D01*
X70878565Y-75215532D01*
X70890296Y-75176862D01*
X70909346Y-75141223D01*
X70934983Y-75109983D01*
X70966223Y-75084346D01*
X71001862Y-75065296D01*
X71040532Y-75053565D01*
X71086888Y-75049000D01*
X71738112Y-75049000D01*
X71784468Y-75053565D01*
G37*
G36*
X52318228Y-73581703D02*
G01*
X52473100Y-73645853D01*
X52612481Y-73738985D01*
X52731015Y-73857519D01*
X52824147Y-73996900D01*
X52888297Y-74151772D01*
X52921000Y-74316184D01*
X52921000Y-74483816D01*
X52888297Y-74648228D01*
X52824147Y-74803100D01*
X52731015Y-74942481D01*
X52612481Y-75061015D01*
X52473100Y-75154147D01*
X52318228Y-75218297D01*
X52153816Y-75251000D01*
X51986184Y-75251000D01*
X51821772Y-75218297D01*
X51666900Y-75154147D01*
X51527519Y-75061015D01*
X51408985Y-74942481D01*
X51315853Y-74803100D01*
X51251703Y-74648228D01*
X51219000Y-74483816D01*
X51219000Y-74316184D01*
X51251703Y-74151772D01*
X51315853Y-73996900D01*
X51408985Y-73857519D01*
X51527519Y-73738985D01*
X51666900Y-73645853D01*
X51821772Y-73581703D01*
X51986184Y-73549000D01*
X52153816Y-73549000D01*
X52318228Y-73581703D01*
G37*
G36*
X49778228Y-73581703D02*
G01*
X49933100Y-73645853D01*
X50072481Y-73738985D01*
X50191015Y-73857519D01*
X50284147Y-73996900D01*
X50348297Y-74151772D01*
X50381000Y-74316184D01*
X50381000Y-74483816D01*
X50348297Y-74648228D01*
X50284147Y-74803100D01*
X50191015Y-74942481D01*
X50072481Y-75061015D01*
X49933100Y-75154147D01*
X49778228Y-75218297D01*
X49613816Y-75251000D01*
X49446184Y-75251000D01*
X49281772Y-75218297D01*
X49126900Y-75154147D01*
X48987519Y-75061015D01*
X48868985Y-74942481D01*
X48775853Y-74803100D01*
X48711703Y-74648228D01*
X48679000Y-74483816D01*
X48679000Y-74316184D01*
X48711703Y-74151772D01*
X48775853Y-73996900D01*
X48868985Y-73857519D01*
X48987519Y-73738985D01*
X49126900Y-73645853D01*
X49281772Y-73581703D01*
X49446184Y-73549000D01*
X49613816Y-73549000D01*
X49778228Y-73581703D01*
G37*
G36*
X47238228Y-73581703D02*
G01*
X47393100Y-73645853D01*
X47532481Y-73738985D01*
X47651015Y-73857519D01*
X47744147Y-73996900D01*
X47808297Y-74151772D01*
X47841000Y-74316184D01*
X47841000Y-74483816D01*
X47808297Y-74648228D01*
X47744147Y-74803100D01*
X47651015Y-74942481D01*
X47532481Y-75061015D01*
X47393100Y-75154147D01*
X47238228Y-75218297D01*
X47073816Y-75251000D01*
X46906184Y-75251000D01*
X46741772Y-75218297D01*
X46586900Y-75154147D01*
X46447519Y-75061015D01*
X46328985Y-74942481D01*
X46235853Y-74803100D01*
X46171703Y-74648228D01*
X46139000Y-74483816D01*
X46139000Y-74316184D01*
X46171703Y-74151772D01*
X46235853Y-73996900D01*
X46328985Y-73857519D01*
X46447519Y-73738985D01*
X46586900Y-73645853D01*
X46741772Y-73581703D01*
X46906184Y-73549000D01*
X47073816Y-73549000D01*
X47238228Y-73581703D01*
G37*
G36*
X45301000Y-75251000D02*
G01*
X43599000Y-75251000D01*
X43599000Y-73549000D01*
X45301000Y-73549000D01*
X45301000Y-75251000D01*
G37*
G36*
X37501000Y-74551000D02*
G01*
X35399000Y-74551000D01*
X35399000Y-72449000D01*
X37501000Y-72449000D01*
X37501000Y-74551000D01*
G37*
G36*
X80916720Y-72363520D02*
G01*
X81105881Y-72420901D01*
X81280212Y-72514083D01*
X81433015Y-72639485D01*
X81558417Y-72792288D01*
X81602182Y-72874167D01*
X81651598Y-72966617D01*
X81651599Y-72966620D01*
X81708980Y-73155781D01*
X81723500Y-73303207D01*
X81723500Y-73496794D01*
X81708980Y-73644220D01*
X81651599Y-73833381D01*
X81558417Y-74007712D01*
X81433015Y-74160515D01*
X81280212Y-74285917D01*
X81223586Y-74316184D01*
X81105883Y-74379098D01*
X81105880Y-74379099D01*
X80916719Y-74436480D01*
X80720000Y-74455855D01*
X80523280Y-74436480D01*
X80334119Y-74379099D01*
X80159788Y-74285917D01*
X80006985Y-74160515D01*
X79881583Y-74007712D01*
X79801304Y-73857520D01*
X79788402Y-73833383D01*
X79731516Y-73645853D01*
X79731020Y-73644219D01*
X79716500Y-73496793D01*
X79716500Y-73303206D01*
X79731020Y-73155780D01*
X79788401Y-72966619D01*
X79881583Y-72792288D01*
X80006985Y-72639485D01*
X80159788Y-72514083D01*
X80334120Y-72420901D01*
X80523281Y-72363520D01*
X80720000Y-72344145D01*
X80916720Y-72363520D01*
G37*
G36*
X83456720Y-72363520D02*
G01*
X83645881Y-72420901D01*
X83820212Y-72514083D01*
X83973015Y-72639485D01*
X84098417Y-72792288D01*
X84142182Y-72874167D01*
X84191598Y-72966617D01*
X84191599Y-72966620D01*
X84248980Y-73155781D01*
X84263500Y-73303207D01*
X84263500Y-73496794D01*
X84248980Y-73644220D01*
X84191599Y-73833381D01*
X84098417Y-74007712D01*
X83973015Y-74160515D01*
X83820212Y-74285917D01*
X83763586Y-74316184D01*
X83645883Y-74379098D01*
X83645880Y-74379099D01*
X83456719Y-74436480D01*
X83260000Y-74455855D01*
X83063280Y-74436480D01*
X82874119Y-74379099D01*
X82699788Y-74285917D01*
X82546985Y-74160515D01*
X82421583Y-74007712D01*
X82341304Y-73857520D01*
X82328402Y-73833383D01*
X82271516Y-73645853D01*
X82271020Y-73644219D01*
X82256500Y-73496793D01*
X82256500Y-73303206D01*
X82271020Y-73155780D01*
X82328401Y-72966619D01*
X82421583Y-72792288D01*
X82546985Y-72639485D01*
X82699788Y-72514083D01*
X82874120Y-72420901D01*
X83063281Y-72363520D01*
X83260000Y-72344145D01*
X83456720Y-72363520D01*
G37*
G36*
X86803500Y-74451000D02*
G01*
X84796500Y-74451000D01*
X84796500Y-72349000D01*
X86803500Y-72349000D01*
X86803500Y-74451000D01*
G37*
G36*
X76051000Y-72601000D02*
G01*
X73749000Y-72601000D01*
X73749000Y-70299000D01*
X76051000Y-70299000D01*
X76051000Y-72601000D01*
G37*
G36*
X67504549Y-70321116D02*
G01*
X67615734Y-70343232D01*
X67728683Y-70390017D01*
X67823456Y-70429273D01*
X67825203Y-70429997D01*
X68013720Y-70555960D01*
X68174040Y-70716280D01*
X68300003Y-70904797D01*
X68300004Y-70904799D01*
X68386768Y-71114267D01*
X68429010Y-71326629D01*
X68431000Y-71336636D01*
X68431000Y-71563364D01*
X68386768Y-71785734D01*
X68300003Y-71995203D01*
X68174040Y-72183720D01*
X68013720Y-72344040D01*
X67825203Y-72470003D01*
X67615734Y-72556768D01*
X67504549Y-72578884D01*
X67393365Y-72601000D01*
X67166635Y-72601000D01*
X67055451Y-72578884D01*
X66944266Y-72556768D01*
X66734797Y-72470003D01*
X66546280Y-72344040D01*
X66385960Y-72183720D01*
X66259997Y-71995203D01*
X66173232Y-71785734D01*
X66129000Y-71563364D01*
X66129000Y-71336636D01*
X66130991Y-71326629D01*
X66173232Y-71114267D01*
X66259996Y-70904799D01*
X66259997Y-70904797D01*
X66385960Y-70716280D01*
X66546280Y-70555960D01*
X66734797Y-70429997D01*
X66736545Y-70429273D01*
X66831317Y-70390017D01*
X66944266Y-70343232D01*
X67055451Y-70321116D01*
X67166635Y-70299000D01*
X67393365Y-70299000D01*
X67504549Y-70321116D01*
G37*
G36*
X65034468Y-71253565D02*
G01*
X65073138Y-71265296D01*
X65108777Y-71284346D01*
X65140017Y-71309983D01*
X65165654Y-71341223D01*
X65184704Y-71376862D01*
X65196435Y-71415532D01*
X65201000Y-71461888D01*
X65201000Y-72113112D01*
X65196435Y-72159468D01*
X65184704Y-72198138D01*
X65165654Y-72233777D01*
X65140017Y-72265017D01*
X65108777Y-72290654D01*
X65073138Y-72309704D01*
X65034468Y-72321435D01*
X64988112Y-72326000D01*
X63911888Y-72326000D01*
X63865532Y-72321435D01*
X63826862Y-72309704D01*
X63791223Y-72290654D01*
X63759983Y-72265017D01*
X63734346Y-72233777D01*
X63715296Y-72198138D01*
X63703565Y-72159468D01*
X63699000Y-72113112D01*
X63699000Y-71461888D01*
X63703565Y-71415532D01*
X63715296Y-71376862D01*
X63734346Y-71341223D01*
X63759983Y-71309983D01*
X63791223Y-71284346D01*
X63826862Y-71265296D01*
X63865532Y-71253565D01*
X63911888Y-71249000D01*
X64988112Y-71249000D01*
X65034468Y-71253565D01*
G37*
G36*
X56884468Y-71253565D02*
G01*
X56923138Y-71265296D01*
X56958777Y-71284346D01*
X56990017Y-71309983D01*
X57015654Y-71341223D01*
X57034704Y-71376862D01*
X57046435Y-71415532D01*
X57051000Y-71461888D01*
X57051000Y-72113112D01*
X57046435Y-72159468D01*
X57034704Y-72198138D01*
X57015654Y-72233777D01*
X56990017Y-72265017D01*
X56958777Y-72290654D01*
X56923138Y-72309704D01*
X56884468Y-72321435D01*
X56838112Y-72326000D01*
X55761888Y-72326000D01*
X55715532Y-72321435D01*
X55676862Y-72309704D01*
X55641223Y-72290654D01*
X55609983Y-72265017D01*
X55584346Y-72233777D01*
X55565296Y-72198138D01*
X55553565Y-72159468D01*
X55549000Y-72113112D01*
X55549000Y-71461888D01*
X55553565Y-71415532D01*
X55565296Y-71376862D01*
X55584346Y-71341223D01*
X55609983Y-71309983D01*
X55641223Y-71284346D01*
X55676862Y-71265296D01*
X55715532Y-71253565D01*
X55761888Y-71249000D01*
X56838112Y-71249000D01*
X56884468Y-71253565D01*
G37*
G36*
X61934468Y-71253565D02*
G01*
X61973138Y-71265296D01*
X62008777Y-71284346D01*
X62040017Y-71309983D01*
X62065654Y-71341223D01*
X62084704Y-71376862D01*
X62096435Y-71415532D01*
X62101000Y-71461888D01*
X62101000Y-72113112D01*
X62096435Y-72159468D01*
X62084704Y-72198138D01*
X62065654Y-72233777D01*
X62040017Y-72265017D01*
X62008777Y-72290654D01*
X61973138Y-72309704D01*
X61934468Y-72321435D01*
X61888112Y-72326000D01*
X60811888Y-72326000D01*
X60765532Y-72321435D01*
X60726862Y-72309704D01*
X60691223Y-72290654D01*
X60659983Y-72265017D01*
X60634346Y-72233777D01*
X60615296Y-72198138D01*
X60603565Y-72159468D01*
X60599000Y-72113112D01*
X60599000Y-71461888D01*
X60603565Y-71415532D01*
X60615296Y-71376862D01*
X60634346Y-71341223D01*
X60659983Y-71309983D01*
X60691223Y-71284346D01*
X60726862Y-71265296D01*
X60765532Y-71253565D01*
X60811888Y-71249000D01*
X61888112Y-71249000D01*
X61934468Y-71253565D01*
G37*
G36*
X59337264Y-71252333D02*
G01*
X59375934Y-71264064D01*
X59411573Y-71283114D01*
X59442813Y-71308751D01*
X59468450Y-71339991D01*
X59487500Y-71375630D01*
X59499231Y-71414300D01*
X59503796Y-71460656D01*
X59503796Y-72111880D01*
X59499231Y-72158236D01*
X59487500Y-72196906D01*
X59468450Y-72232545D01*
X59442813Y-72263785D01*
X59411573Y-72289422D01*
X59375934Y-72308472D01*
X59337264Y-72320203D01*
X59290908Y-72324768D01*
X58214684Y-72324768D01*
X58168328Y-72320203D01*
X58129658Y-72308472D01*
X58094019Y-72289422D01*
X58062779Y-72263785D01*
X58037142Y-72232545D01*
X58018092Y-72196906D01*
X58006361Y-72158236D01*
X58001796Y-72111880D01*
X58001796Y-71460656D01*
X58006361Y-71414300D01*
X58018092Y-71375630D01*
X58037142Y-71339991D01*
X58062779Y-71308751D01*
X58094019Y-71283114D01*
X58129658Y-71264064D01*
X58168328Y-71252333D01*
X58214684Y-71247768D01*
X59290908Y-71247768D01*
X59337264Y-71252333D01*
G37*
G36*
X65034468Y-69378565D02*
G01*
X65073138Y-69390296D01*
X65108777Y-69409346D01*
X65140017Y-69434983D01*
X65165654Y-69466223D01*
X65184704Y-69501862D01*
X65196435Y-69540532D01*
X65201000Y-69586888D01*
X65201000Y-70238112D01*
X65196435Y-70284468D01*
X65184704Y-70323138D01*
X65165654Y-70358777D01*
X65140017Y-70390017D01*
X65108777Y-70415654D01*
X65073138Y-70434704D01*
X65034468Y-70446435D01*
X64988112Y-70451000D01*
X63911888Y-70451000D01*
X63865532Y-70446435D01*
X63826862Y-70434704D01*
X63791223Y-70415654D01*
X63759983Y-70390017D01*
X63734346Y-70358777D01*
X63715296Y-70323138D01*
X63703565Y-70284468D01*
X63699000Y-70238112D01*
X63699000Y-69586888D01*
X63703565Y-69540532D01*
X63715296Y-69501862D01*
X63734346Y-69466223D01*
X63759983Y-69434983D01*
X63791223Y-69409346D01*
X63826862Y-69390296D01*
X63865532Y-69378565D01*
X63911888Y-69374000D01*
X64988112Y-69374000D01*
X65034468Y-69378565D01*
G37*
G36*
X56884468Y-69378565D02*
G01*
X56923138Y-69390296D01*
X56958777Y-69409346D01*
X56990017Y-69434983D01*
X57015654Y-69466223D01*
X57034704Y-69501862D01*
X57046435Y-69540532D01*
X57051000Y-69586888D01*
X57051000Y-70238112D01*
X57046435Y-70284468D01*
X57034704Y-70323138D01*
X57015654Y-70358777D01*
X56990017Y-70390017D01*
X56958777Y-70415654D01*
X56923138Y-70434704D01*
X56884468Y-70446435D01*
X56838112Y-70451000D01*
X55761888Y-70451000D01*
X55715532Y-70446435D01*
X55676862Y-70434704D01*
X55641223Y-70415654D01*
X55609983Y-70390017D01*
X55584346Y-70358777D01*
X55565296Y-70323138D01*
X55553565Y-70284468D01*
X55549000Y-70238112D01*
X55549000Y-69586888D01*
X55553565Y-69540532D01*
X55565296Y-69501862D01*
X55584346Y-69466223D01*
X55609983Y-69434983D01*
X55641223Y-69409346D01*
X55676862Y-69390296D01*
X55715532Y-69378565D01*
X55761888Y-69374000D01*
X56838112Y-69374000D01*
X56884468Y-69378565D01*
G37*
G36*
X61934468Y-69378565D02*
G01*
X61973138Y-69390296D01*
X62008777Y-69409346D01*
X62040017Y-69434983D01*
X62065654Y-69466223D01*
X62084704Y-69501862D01*
X62096435Y-69540532D01*
X62101000Y-69586888D01*
X62101000Y-70238112D01*
X62096435Y-70284468D01*
X62084704Y-70323138D01*
X62065654Y-70358777D01*
X62040017Y-70390017D01*
X62008777Y-70415654D01*
X61973138Y-70434704D01*
X61934468Y-70446435D01*
X61888112Y-70451000D01*
X60811888Y-70451000D01*
X60765532Y-70446435D01*
X60726862Y-70434704D01*
X60691223Y-70415654D01*
X60659983Y-70390017D01*
X60634346Y-70358777D01*
X60615296Y-70323138D01*
X60603565Y-70284468D01*
X60599000Y-70238112D01*
X60599000Y-69586888D01*
X60603565Y-69540532D01*
X60615296Y-69501862D01*
X60634346Y-69466223D01*
X60659983Y-69434983D01*
X60691223Y-69409346D01*
X60726862Y-69390296D01*
X60765532Y-69378565D01*
X60811888Y-69374000D01*
X61888112Y-69374000D01*
X61934468Y-69378565D01*
G37*
G36*
X59337264Y-69377333D02*
G01*
X59375934Y-69389064D01*
X59411573Y-69408114D01*
X59442813Y-69433751D01*
X59468450Y-69464991D01*
X59487500Y-69500630D01*
X59499231Y-69539300D01*
X59503796Y-69585656D01*
X59503796Y-70236880D01*
X59499231Y-70283236D01*
X59487500Y-70321906D01*
X59468450Y-70357545D01*
X59442813Y-70388785D01*
X59411573Y-70414422D01*
X59375934Y-70433472D01*
X59337264Y-70445203D01*
X59290908Y-70449768D01*
X58214684Y-70449768D01*
X58168328Y-70445203D01*
X58129658Y-70433472D01*
X58094019Y-70414422D01*
X58062779Y-70388785D01*
X58037142Y-70357545D01*
X58018092Y-70321906D01*
X58006361Y-70283236D01*
X58001796Y-70236880D01*
X58001796Y-69585656D01*
X58006361Y-69539300D01*
X58018092Y-69500630D01*
X58037142Y-69464991D01*
X58062779Y-69433751D01*
X58094019Y-69408114D01*
X58129658Y-69389064D01*
X58168328Y-69377333D01*
X58214684Y-69372768D01*
X59290908Y-69372768D01*
X59337264Y-69377333D01*
G37*
G36*
X41351000Y-69201000D02*
G01*
X39049000Y-69201000D01*
X39049000Y-66899000D01*
X41351000Y-66899000D01*
X41351000Y-69201000D01*
G37*
G36*
X32804549Y-66921116D02*
G01*
X32915734Y-66943232D01*
X33063850Y-67004584D01*
X33120933Y-67028228D01*
X33125203Y-67029997D01*
X33313720Y-67155960D01*
X33474040Y-67316280D01*
X33600003Y-67504797D01*
X33686768Y-67714266D01*
X33731000Y-67936636D01*
X33731000Y-68163364D01*
X33686768Y-68385734D01*
X33600003Y-68595203D01*
X33474040Y-68783720D01*
X33313720Y-68944040D01*
X33125203Y-69070003D01*
X32915734Y-69156768D01*
X32804549Y-69178884D01*
X32693365Y-69201000D01*
X32466635Y-69201000D01*
X32355451Y-69178884D01*
X32244266Y-69156768D01*
X32034797Y-69070003D01*
X31846280Y-68944040D01*
X31685960Y-68783720D01*
X31559997Y-68595203D01*
X31473232Y-68385734D01*
X31429000Y-68163364D01*
X31429000Y-67936636D01*
X31473232Y-67714266D01*
X31559997Y-67504797D01*
X31685960Y-67316280D01*
X31846280Y-67155960D01*
X32034797Y-67029997D01*
X32039068Y-67028228D01*
X32096150Y-67004584D01*
X32244266Y-66943232D01*
X32355451Y-66921116D01*
X32466635Y-66899000D01*
X32693365Y-66899000D01*
X32804549Y-66921116D01*
G37*
G36*
X75518228Y-66881703D02*
G01*
X75673100Y-66945853D01*
X75812481Y-67038985D01*
X75931015Y-67157519D01*
X76024147Y-67296900D01*
X76088297Y-67451772D01*
X76121000Y-67616184D01*
X76121000Y-67783816D01*
X76088297Y-67948228D01*
X76024147Y-68103100D01*
X75931015Y-68242481D01*
X75812481Y-68361015D01*
X75673100Y-68454147D01*
X75518228Y-68518297D01*
X75353816Y-68551000D01*
X75186184Y-68551000D01*
X75021772Y-68518297D01*
X74866900Y-68454147D01*
X74727519Y-68361015D01*
X74608985Y-68242481D01*
X74515853Y-68103100D01*
X74451703Y-67948228D01*
X74419000Y-67783816D01*
X74419000Y-67616184D01*
X74451703Y-67451772D01*
X74515853Y-67296900D01*
X74608985Y-67157519D01*
X74727519Y-67038985D01*
X74866900Y-66945853D01*
X75021772Y-66881703D01*
X75186184Y-66849000D01*
X75353816Y-66849000D01*
X75518228Y-66881703D01*
G37*
G36*
X72978228Y-66881703D02*
G01*
X73133100Y-66945853D01*
X73272481Y-67038985D01*
X73391015Y-67157519D01*
X73484147Y-67296900D01*
X73548297Y-67451772D01*
X73581000Y-67616184D01*
X73581000Y-67783816D01*
X73548297Y-67948228D01*
X73484147Y-68103100D01*
X73391015Y-68242481D01*
X73272481Y-68361015D01*
X73133100Y-68454147D01*
X72978228Y-68518297D01*
X72813816Y-68551000D01*
X72646184Y-68551000D01*
X72481772Y-68518297D01*
X72326900Y-68454147D01*
X72187519Y-68361015D01*
X72068985Y-68242481D01*
X71975853Y-68103100D01*
X71911703Y-67948228D01*
X71879000Y-67783816D01*
X71879000Y-67616184D01*
X71911703Y-67451772D01*
X71975853Y-67296900D01*
X72068985Y-67157519D01*
X72187519Y-67038985D01*
X72326900Y-66945853D01*
X72481772Y-66881703D01*
X72646184Y-66849000D01*
X72813816Y-66849000D01*
X72978228Y-66881703D01*
G37*
G36*
X70438228Y-66881703D02*
G01*
X70593100Y-66945853D01*
X70732481Y-67038985D01*
X70851015Y-67157519D01*
X70944147Y-67296900D01*
X71008297Y-67451772D01*
X71041000Y-67616184D01*
X71041000Y-67783816D01*
X71008297Y-67948228D01*
X70944147Y-68103100D01*
X70851015Y-68242481D01*
X70732481Y-68361015D01*
X70593100Y-68454147D01*
X70438228Y-68518297D01*
X70273816Y-68551000D01*
X70106184Y-68551000D01*
X69941772Y-68518297D01*
X69786900Y-68454147D01*
X69647519Y-68361015D01*
X69528985Y-68242481D01*
X69435853Y-68103100D01*
X69371703Y-67948228D01*
X69339000Y-67783816D01*
X69339000Y-67616184D01*
X69371703Y-67451772D01*
X69435853Y-67296900D01*
X69528985Y-67157519D01*
X69647519Y-67038985D01*
X69786900Y-66945853D01*
X69941772Y-66881703D01*
X70106184Y-66849000D01*
X70273816Y-66849000D01*
X70438228Y-66881703D01*
G37*
G36*
X68501000Y-68551000D02*
G01*
X66799000Y-68551000D01*
X66799000Y-66849000D01*
X68501000Y-66849000D01*
X68501000Y-68551000D01*
G37*
G36*
X44698228Y-65961703D02*
G01*
X44853100Y-66025853D01*
X44992481Y-66118985D01*
X45111015Y-66237519D01*
X45204147Y-66376900D01*
X45268297Y-66531772D01*
X45301000Y-66696184D01*
X45301000Y-66863816D01*
X45268297Y-67028228D01*
X45204147Y-67183100D01*
X45111015Y-67322481D01*
X44992481Y-67441015D01*
X44853100Y-67534147D01*
X44698228Y-67598297D01*
X44533816Y-67631000D01*
X44366184Y-67631000D01*
X44201772Y-67598297D01*
X44046900Y-67534147D01*
X43907519Y-67441015D01*
X43788985Y-67322481D01*
X43695853Y-67183100D01*
X43631703Y-67028228D01*
X43599000Y-66863816D01*
X43599000Y-66696184D01*
X43631703Y-66531772D01*
X43695853Y-66376900D01*
X43788985Y-66237519D01*
X43907519Y-66118985D01*
X44046900Y-66025853D01*
X44201772Y-65961703D01*
X44366184Y-65929000D01*
X44533816Y-65929000D01*
X44698228Y-65961703D01*
G37*
G36*
X47238228Y-65961703D02*
G01*
X47393100Y-66025853D01*
X47532481Y-66118985D01*
X47651015Y-66237519D01*
X47744147Y-66376900D01*
X47808297Y-66531772D01*
X47841000Y-66696184D01*
X47841000Y-66863816D01*
X47808297Y-67028228D01*
X47744147Y-67183100D01*
X47651015Y-67322481D01*
X47532481Y-67441015D01*
X47393100Y-67534147D01*
X47238228Y-67598297D01*
X47073816Y-67631000D01*
X46906184Y-67631000D01*
X46741772Y-67598297D01*
X46586900Y-67534147D01*
X46447519Y-67441015D01*
X46328985Y-67322481D01*
X46235853Y-67183100D01*
X46171703Y-67028228D01*
X46139000Y-66863816D01*
X46139000Y-66696184D01*
X46171703Y-66531772D01*
X46235853Y-66376900D01*
X46328985Y-66237519D01*
X46447519Y-66118985D01*
X46586900Y-66025853D01*
X46741772Y-65961703D01*
X46906184Y-65929000D01*
X47073816Y-65929000D01*
X47238228Y-65961703D01*
G37*
G36*
X52318228Y-65961703D02*
G01*
X52473100Y-66025853D01*
X52612481Y-66118985D01*
X52731015Y-66237519D01*
X52824147Y-66376900D01*
X52888297Y-66531772D01*
X52921000Y-66696184D01*
X52921000Y-66863816D01*
X52888297Y-67028228D01*
X52824147Y-67183100D01*
X52731015Y-67322481D01*
X52612481Y-67441015D01*
X52473100Y-67534147D01*
X52318228Y-67598297D01*
X52153816Y-67631000D01*
X51986184Y-67631000D01*
X51821772Y-67598297D01*
X51666900Y-67534147D01*
X51527519Y-67441015D01*
X51408985Y-67322481D01*
X51315853Y-67183100D01*
X51251703Y-67028228D01*
X51219000Y-66863816D01*
X51219000Y-66696184D01*
X51251703Y-66531772D01*
X51315853Y-66376900D01*
X51408985Y-66237519D01*
X51527519Y-66118985D01*
X51666900Y-66025853D01*
X51821772Y-65961703D01*
X51986184Y-65929000D01*
X52153816Y-65929000D01*
X52318228Y-65961703D01*
G37*
G36*
X49778228Y-65961703D02*
G01*
X49933100Y-66025853D01*
X50072481Y-66118985D01*
X50191015Y-66237519D01*
X50284147Y-66376900D01*
X50348297Y-66531772D01*
X50381000Y-66696184D01*
X50381000Y-66863816D01*
X50348297Y-67028228D01*
X50284147Y-67183100D01*
X50191015Y-67322481D01*
X50072481Y-67441015D01*
X49933100Y-67534147D01*
X49778228Y-67598297D01*
X49613816Y-67631000D01*
X49446184Y-67631000D01*
X49281772Y-67598297D01*
X49126900Y-67534147D01*
X48987519Y-67441015D01*
X48868985Y-67322481D01*
X48775853Y-67183100D01*
X48711703Y-67028228D01*
X48679000Y-66863816D01*
X48679000Y-66696184D01*
X48711703Y-66531772D01*
X48775853Y-66376900D01*
X48868985Y-66237519D01*
X48987519Y-66118985D01*
X49126900Y-66025853D01*
X49281772Y-65961703D01*
X49446184Y-65929000D01*
X49613816Y-65929000D01*
X49778228Y-65961703D01*
G37*
G36*
X60156564Y-64439389D02*
G01*
X60347833Y-64518615D01*
X60347835Y-64518616D01*
X60515289Y-64630505D01*
X60519973Y-64633635D01*
X60666365Y-64780027D01*
X60781385Y-64952167D01*
X60860611Y-65143436D01*
X60901000Y-65346484D01*
X60901000Y-65553516D01*
X60860611Y-65756564D01*
X60789186Y-65929000D01*
X60781384Y-65947835D01*
X60666365Y-66119973D01*
X60519973Y-66266365D01*
X60347835Y-66381384D01*
X60347834Y-66381385D01*
X60347833Y-66381385D01*
X60156564Y-66460611D01*
X59953516Y-66501000D01*
X59746484Y-66501000D01*
X59543436Y-66460611D01*
X59352167Y-66381385D01*
X59352166Y-66381385D01*
X59352165Y-66381384D01*
X59180027Y-66266365D01*
X59033635Y-66119973D01*
X58918616Y-65947835D01*
X58910814Y-65929000D01*
X58839389Y-65756564D01*
X58799000Y-65553516D01*
X58799000Y-65346484D01*
X58839389Y-65143436D01*
X58918615Y-64952167D01*
X59033635Y-64780027D01*
X59180027Y-64633635D01*
X59184711Y-64630505D01*
X59352165Y-64518616D01*
X59352167Y-64518615D01*
X59543436Y-64439389D01*
X59746484Y-64399000D01*
X59953516Y-64399000D01*
X60156564Y-64439389D01*
G37*
G36*
X47359468Y-63153565D02*
G01*
X47398138Y-63165296D01*
X47433777Y-63184346D01*
X47465017Y-63209983D01*
X47490654Y-63241223D01*
X47509704Y-63276862D01*
X47521435Y-63315532D01*
X47526000Y-63361888D01*
X47526000Y-64438112D01*
X47521435Y-64484468D01*
X47509704Y-64523138D01*
X47490654Y-64558777D01*
X47465017Y-64590017D01*
X47433777Y-64615654D01*
X47398138Y-64634704D01*
X47359468Y-64646435D01*
X47313112Y-64651000D01*
X46661888Y-64651000D01*
X46615532Y-64646435D01*
X46576862Y-64634704D01*
X46541223Y-64615654D01*
X46509983Y-64590017D01*
X46484346Y-64558777D01*
X46465296Y-64523138D01*
X46453565Y-64484468D01*
X46449000Y-64438112D01*
X46449000Y-63361888D01*
X46453565Y-63315532D01*
X46465296Y-63276862D01*
X46484346Y-63241223D01*
X46509983Y-63209983D01*
X46541223Y-63184346D01*
X46576862Y-63165296D01*
X46615532Y-63153565D01*
X46661888Y-63149000D01*
X47313112Y-63149000D01*
X47359468Y-63153565D01*
G37*
G36*
X45484468Y-63153565D02*
G01*
X45523138Y-63165296D01*
X45558777Y-63184346D01*
X45590017Y-63209983D01*
X45615654Y-63241223D01*
X45634704Y-63276862D01*
X45646435Y-63315532D01*
X45651000Y-63361888D01*
X45651000Y-64438112D01*
X45646435Y-64484468D01*
X45634704Y-64523138D01*
X45615654Y-64558777D01*
X45590017Y-64590017D01*
X45558777Y-64615654D01*
X45523138Y-64634704D01*
X45484468Y-64646435D01*
X45438112Y-64651000D01*
X44786888Y-64651000D01*
X44740532Y-64646435D01*
X44701862Y-64634704D01*
X44666223Y-64615654D01*
X44634983Y-64590017D01*
X44609346Y-64558777D01*
X44590296Y-64523138D01*
X44578565Y-64484468D01*
X44574000Y-64438112D01*
X44574000Y-63361888D01*
X44578565Y-63315532D01*
X44590296Y-63276862D01*
X44609346Y-63241223D01*
X44634983Y-63209983D01*
X44666223Y-63184346D01*
X44701862Y-63165296D01*
X44740532Y-63153565D01*
X44786888Y-63149000D01*
X45438112Y-63149000D01*
X45484468Y-63153565D01*
G37*
G36*
X38647482Y-59681705D02*
G01*
X38744072Y-59700918D01*
X38989939Y-59802759D01*
X39101328Y-59877187D01*
X39211211Y-59950609D01*
X39399391Y-60138789D01*
X39472813Y-60248672D01*
X39525971Y-60328228D01*
X39547242Y-60360063D01*
X39649082Y-60605928D01*
X39694478Y-60834147D01*
X39701000Y-60866938D01*
X39701000Y-61133062D01*
X39649082Y-61394072D01*
X39547241Y-61639939D01*
X39399390Y-61861212D01*
X39211212Y-62049390D01*
X38989939Y-62197241D01*
X38989938Y-62197242D01*
X38989937Y-62197242D01*
X38744072Y-62299082D01*
X38483063Y-62351000D01*
X38216937Y-62351000D01*
X37955928Y-62299082D01*
X37710063Y-62197242D01*
X37710062Y-62197242D01*
X37710061Y-62197241D01*
X37488788Y-62049390D01*
X37300610Y-61861212D01*
X37152759Y-61639939D01*
X37050918Y-61394072D01*
X36999000Y-61133062D01*
X36999000Y-60866938D01*
X37005523Y-60834147D01*
X37050918Y-60605928D01*
X37152758Y-60360063D01*
X37174030Y-60328228D01*
X37227187Y-60248672D01*
X37300609Y-60138789D01*
X37488789Y-59950609D01*
X37598672Y-59877187D01*
X37710061Y-59802759D01*
X37955928Y-59700918D01*
X38052518Y-59681705D01*
X38216937Y-59649000D01*
X38483063Y-59649000D01*
X38647482Y-59681705D01*
G37*
G36*
X33647482Y-59681705D02*
G01*
X33744072Y-59700918D01*
X33989939Y-59802759D01*
X34101328Y-59877187D01*
X34211211Y-59950609D01*
X34399391Y-60138789D01*
X34472813Y-60248672D01*
X34525971Y-60328228D01*
X34547242Y-60360063D01*
X34649082Y-60605928D01*
X34694478Y-60834147D01*
X34701000Y-60866938D01*
X34701000Y-61133062D01*
X34649082Y-61394072D01*
X34547241Y-61639939D01*
X34399390Y-61861212D01*
X34211212Y-62049390D01*
X33989939Y-62197241D01*
X33989938Y-62197242D01*
X33989937Y-62197242D01*
X33744072Y-62299082D01*
X33483063Y-62351000D01*
X33216937Y-62351000D01*
X32955928Y-62299082D01*
X32710063Y-62197242D01*
X32710062Y-62197242D01*
X32710061Y-62197241D01*
X32488788Y-62049390D01*
X32300610Y-61861212D01*
X32152759Y-61639939D01*
X32050918Y-61394072D01*
X31999000Y-61133062D01*
X31999000Y-60866938D01*
X32005523Y-60834147D01*
X32050918Y-60605928D01*
X32152758Y-60360063D01*
X32174030Y-60328228D01*
X32227187Y-60248672D01*
X32300609Y-60138789D01*
X32488789Y-59950609D01*
X32598672Y-59877187D01*
X32710061Y-59802759D01*
X32955928Y-59700918D01*
X33052518Y-59681705D01*
X33216937Y-59649000D01*
X33483063Y-59649000D01*
X33647482Y-59681705D01*
G37*
G36*
X60901000Y-61501000D02*
G01*
X58799000Y-61501000D01*
X58799000Y-59399000D01*
X60901000Y-59399000D01*
X60901000Y-61501000D01*
G37*
G36*
X42998228Y-59681703D02*
G01*
X43153100Y-59745853D01*
X43292481Y-59838985D01*
X43411015Y-59957519D01*
X43504147Y-60096900D01*
X43568297Y-60251772D01*
X43601000Y-60416184D01*
X43601000Y-60583816D01*
X43568297Y-60748228D01*
X43504147Y-60903100D01*
X43411015Y-61042481D01*
X43292481Y-61161015D01*
X43153100Y-61254147D01*
X42998228Y-61318297D01*
X42833816Y-61351000D01*
X42666184Y-61351000D01*
X42501772Y-61318297D01*
X42346900Y-61254147D01*
X42207519Y-61161015D01*
X42088985Y-61042481D01*
X41995853Y-60903100D01*
X41931703Y-60748228D01*
X41899000Y-60583816D01*
X41899000Y-60416184D01*
X41931703Y-60251772D01*
X41995853Y-60096900D01*
X42088985Y-59957519D01*
X42207519Y-59838985D01*
X42346900Y-59745853D01*
X42501772Y-59681703D01*
X42666184Y-59649000D01*
X42833816Y-59649000D01*
X42998228Y-59681703D01*
G37*
G36*
X53158228Y-59681703D02*
G01*
X53313100Y-59745853D01*
X53452481Y-59838985D01*
X53571015Y-59957519D01*
X53664147Y-60096900D01*
X53728297Y-60251772D01*
X53761000Y-60416184D01*
X53761000Y-60583816D01*
X53728297Y-60748228D01*
X53664147Y-60903100D01*
X53571015Y-61042481D01*
X53452481Y-61161015D01*
X53313100Y-61254147D01*
X53158228Y-61318297D01*
X52993816Y-61351000D01*
X52826184Y-61351000D01*
X52661772Y-61318297D01*
X52506900Y-61254147D01*
X52367519Y-61161015D01*
X52248985Y-61042481D01*
X52155853Y-60903100D01*
X52091703Y-60748228D01*
X52059000Y-60583816D01*
X52059000Y-60416184D01*
X52091703Y-60251772D01*
X52155853Y-60096900D01*
X52248985Y-59957519D01*
X52367519Y-59838985D01*
X52506900Y-59745853D01*
X52661772Y-59681703D01*
X52826184Y-59649000D01*
X52993816Y-59649000D01*
X53158228Y-59681703D01*
G37*
G36*
X67898228Y-59261703D02*
G01*
X68053100Y-59325853D01*
X68192481Y-59418985D01*
X68311015Y-59537519D01*
X68404147Y-59676900D01*
X68468297Y-59831772D01*
X68501000Y-59996184D01*
X68501000Y-60163816D01*
X68468297Y-60328228D01*
X68404147Y-60483100D01*
X68311015Y-60622481D01*
X68192481Y-60741015D01*
X68053100Y-60834147D01*
X67898228Y-60898297D01*
X67733816Y-60931000D01*
X67566184Y-60931000D01*
X67401772Y-60898297D01*
X67246900Y-60834147D01*
X67107519Y-60741015D01*
X66988985Y-60622481D01*
X66895853Y-60483100D01*
X66831703Y-60328228D01*
X66799000Y-60163816D01*
X66799000Y-59996184D01*
X66831703Y-59831772D01*
X66895853Y-59676900D01*
X66988985Y-59537519D01*
X67107519Y-59418985D01*
X67246900Y-59325853D01*
X67401772Y-59261703D01*
X67566184Y-59229000D01*
X67733816Y-59229000D01*
X67898228Y-59261703D01*
G37*
G36*
X70438228Y-59261703D02*
G01*
X70593100Y-59325853D01*
X70732481Y-59418985D01*
X70851015Y-59537519D01*
X70944147Y-59676900D01*
X71008297Y-59831772D01*
X71041000Y-59996184D01*
X71041000Y-60163816D01*
X71008297Y-60328228D01*
X70944147Y-60483100D01*
X70851015Y-60622481D01*
X70732481Y-60741015D01*
X70593100Y-60834147D01*
X70438228Y-60898297D01*
X70273816Y-60931000D01*
X70106184Y-60931000D01*
X69941772Y-60898297D01*
X69786900Y-60834147D01*
X69647519Y-60741015D01*
X69528985Y-60622481D01*
X69435853Y-60483100D01*
X69371703Y-60328228D01*
X69339000Y-60163816D01*
X69339000Y-59996184D01*
X69371703Y-59831772D01*
X69435853Y-59676900D01*
X69528985Y-59537519D01*
X69647519Y-59418985D01*
X69786900Y-59325853D01*
X69941772Y-59261703D01*
X70106184Y-59229000D01*
X70273816Y-59229000D01*
X70438228Y-59261703D01*
G37*
G36*
X72978228Y-59261703D02*
G01*
X73133100Y-59325853D01*
X73272481Y-59418985D01*
X73391015Y-59537519D01*
X73484147Y-59676900D01*
X73548297Y-59831772D01*
X73581000Y-59996184D01*
X73581000Y-60163816D01*
X73548297Y-60328228D01*
X73484147Y-60483100D01*
X73391015Y-60622481D01*
X73272481Y-60741015D01*
X73133100Y-60834147D01*
X72978228Y-60898297D01*
X72813816Y-60931000D01*
X72646184Y-60931000D01*
X72481772Y-60898297D01*
X72326900Y-60834147D01*
X72187519Y-60741015D01*
X72068985Y-60622481D01*
X71975853Y-60483100D01*
X71911703Y-60328228D01*
X71879000Y-60163816D01*
X71879000Y-59996184D01*
X71911703Y-59831772D01*
X71975853Y-59676900D01*
X72068985Y-59537519D01*
X72187519Y-59418985D01*
X72326900Y-59325853D01*
X72481772Y-59261703D01*
X72646184Y-59229000D01*
X72813816Y-59229000D01*
X72978228Y-59261703D01*
G37*
G36*
X75518228Y-59261703D02*
G01*
X75673100Y-59325853D01*
X75812481Y-59418985D01*
X75931015Y-59537519D01*
X76024147Y-59676900D01*
X76088297Y-59831772D01*
X76121000Y-59996184D01*
X76121000Y-60163816D01*
X76088297Y-60328228D01*
X76024147Y-60483100D01*
X75931015Y-60622481D01*
X75812481Y-60741015D01*
X75673100Y-60834147D01*
X75518228Y-60898297D01*
X75353816Y-60931000D01*
X75186184Y-60931000D01*
X75021772Y-60898297D01*
X74866900Y-60834147D01*
X74727519Y-60741015D01*
X74608985Y-60622481D01*
X74515853Y-60483100D01*
X74451703Y-60328228D01*
X74419000Y-60163816D01*
X74419000Y-59996184D01*
X74451703Y-59831772D01*
X74515853Y-59676900D01*
X74608985Y-59537519D01*
X74727519Y-59418985D01*
X74866900Y-59325853D01*
X75021772Y-59261703D01*
X75186184Y-59229000D01*
X75353816Y-59229000D01*
X75518228Y-59261703D01*
G37*
G36*
X65651000Y-58901000D02*
G01*
X64049000Y-58901000D01*
X64049000Y-57299000D01*
X65651000Y-57299000D01*
X65651000Y-58901000D01*
G37*
G36*
X83785331Y-55008211D02*
G01*
X84113092Y-55143974D01*
X84408070Y-55341072D01*
X84658928Y-55591930D01*
X84856026Y-55886908D01*
X84991789Y-56214669D01*
X85061000Y-56562616D01*
X85061000Y-56917384D01*
X84991789Y-57265331D01*
X84856026Y-57593092D01*
X84658928Y-57888070D01*
X84408070Y-58138928D01*
X84113092Y-58336026D01*
X83785331Y-58471789D01*
X83437384Y-58541000D01*
X83082616Y-58541000D01*
X82734669Y-58471789D01*
X82406908Y-58336026D01*
X82111930Y-58138928D01*
X81861072Y-57888070D01*
X81663974Y-57593092D01*
X81528211Y-57265331D01*
X81459000Y-56917384D01*
X81459000Y-56562616D01*
X81528211Y-56214669D01*
X81663974Y-55886908D01*
X81861072Y-55591930D01*
X82111930Y-55341072D01*
X82406908Y-55143974D01*
X82734669Y-55008211D01*
X83082616Y-54939000D01*
X83437384Y-54939000D01*
X83785331Y-55008211D01*
G37*
G36*
X74401000Y-58201000D02*
G01*
X72799000Y-58201000D01*
X72799000Y-56599000D01*
X74401000Y-56599000D01*
X74401000Y-58201000D01*
G37*
G36*
X77401000Y-58201000D02*
G01*
X75799000Y-58201000D01*
X75799000Y-56599000D01*
X77401000Y-56599000D01*
X77401000Y-58201000D01*
G37*
G36*
X54901000Y-57901000D02*
G01*
X53299000Y-57901000D01*
X53299000Y-56299000D01*
X54901000Y-56299000D01*
X54901000Y-57901000D01*
G37*
G36*
X69938508Y-53734983D02*
G01*
X70076579Y-53762447D01*
X70377042Y-53886903D01*
X70647451Y-54067585D01*
X70877415Y-54297549D01*
X71052768Y-54559983D01*
X71058098Y-54567960D01*
X71088444Y-54641223D01*
X71182553Y-54868421D01*
X71196592Y-54939000D01*
X71246000Y-55187389D01*
X71246000Y-55512611D01*
X71224353Y-55621435D01*
X71182553Y-55831579D01*
X71058097Y-56132042D01*
X70877415Y-56402451D01*
X70647451Y-56632415D01*
X70377042Y-56813097D01*
X70076579Y-56937553D01*
X69970256Y-56958702D01*
X69757611Y-57001000D01*
X69432389Y-57001000D01*
X69219744Y-56958702D01*
X69113421Y-56937553D01*
X68812958Y-56813097D01*
X68542549Y-56632415D01*
X68312585Y-56402451D01*
X68131903Y-56132042D01*
X68007447Y-55831579D01*
X67965647Y-55621435D01*
X67944000Y-55512611D01*
X67944000Y-55187389D01*
X67993408Y-54939000D01*
X68007447Y-54868421D01*
X68101556Y-54641223D01*
X68131902Y-54567960D01*
X68137232Y-54559983D01*
X68312585Y-54297549D01*
X68542549Y-54067585D01*
X68812958Y-53886903D01*
X69113421Y-53762447D01*
X69251492Y-53734983D01*
X69432389Y-53699000D01*
X69757611Y-53699000D01*
X69938508Y-53734983D01*
G37*
G36*
X49438508Y-53734983D02*
G01*
X49576579Y-53762447D01*
X49877042Y-53886903D01*
X50147451Y-54067585D01*
X50377415Y-54297549D01*
X50552768Y-54559983D01*
X50558098Y-54567960D01*
X50588444Y-54641223D01*
X50682553Y-54868421D01*
X50696592Y-54939000D01*
X50746000Y-55187389D01*
X50746000Y-55512611D01*
X50724353Y-55621435D01*
X50682553Y-55831579D01*
X50558097Y-56132042D01*
X50377415Y-56402451D01*
X50147451Y-56632415D01*
X49877042Y-56813097D01*
X49576579Y-56937553D01*
X49470256Y-56958702D01*
X49257611Y-57001000D01*
X48932389Y-57001000D01*
X48719744Y-56958702D01*
X48613421Y-56937553D01*
X48312958Y-56813097D01*
X48042549Y-56632415D01*
X47812585Y-56402451D01*
X47631903Y-56132042D01*
X47507447Y-55831579D01*
X47465647Y-55621435D01*
X47444000Y-55512611D01*
X47444000Y-55187389D01*
X47493408Y-54939000D01*
X47507447Y-54868421D01*
X47601556Y-54641223D01*
X47631902Y-54567960D01*
X47637232Y-54559983D01*
X47812585Y-54297549D01*
X48042549Y-54067585D01*
X48312958Y-53886903D01*
X48613421Y-53762447D01*
X48751492Y-53734983D01*
X48932389Y-53699000D01*
X49257611Y-53699000D01*
X49438508Y-53734983D01*
G37*
G36*
X62184468Y-55553565D02*
G01*
X62223138Y-55565296D01*
X62258777Y-55584346D01*
X62290017Y-55609983D01*
X62315654Y-55641223D01*
X62334704Y-55676862D01*
X62346435Y-55715532D01*
X62351000Y-55761888D01*
X62351000Y-56413112D01*
X62346435Y-56459468D01*
X62334704Y-56498138D01*
X62315654Y-56533777D01*
X62290017Y-56565017D01*
X62258777Y-56590654D01*
X62223138Y-56609704D01*
X62184468Y-56621435D01*
X62138112Y-56626000D01*
X61061888Y-56626000D01*
X61015532Y-56621435D01*
X60976862Y-56609704D01*
X60941223Y-56590654D01*
X60909983Y-56565017D01*
X60884346Y-56533777D01*
X60865296Y-56498138D01*
X60853565Y-56459468D01*
X60849000Y-56413112D01*
X60849000Y-55761888D01*
X60853565Y-55715532D01*
X60865296Y-55676862D01*
X60884346Y-55641223D01*
X60909983Y-55609983D01*
X60941223Y-55584346D01*
X60976862Y-55565296D01*
X61015532Y-55553565D01*
X61061888Y-55549000D01*
X62138112Y-55549000D01*
X62184468Y-55553565D01*
G37*
G36*
X64384468Y-55553565D02*
G01*
X64423138Y-55565296D01*
X64458777Y-55584346D01*
X64490017Y-55609983D01*
X64515654Y-55641223D01*
X64534704Y-55676862D01*
X64546435Y-55715532D01*
X64551000Y-55761888D01*
X64551000Y-56413112D01*
X64546435Y-56459468D01*
X64534704Y-56498138D01*
X64515654Y-56533777D01*
X64490017Y-56565017D01*
X64458777Y-56590654D01*
X64423138Y-56609704D01*
X64384468Y-56621435D01*
X64338112Y-56626000D01*
X63261888Y-56626000D01*
X63215532Y-56621435D01*
X63176862Y-56609704D01*
X63141223Y-56590654D01*
X63109983Y-56565017D01*
X63084346Y-56533777D01*
X63065296Y-56498138D01*
X63053565Y-56459468D01*
X63049000Y-56413112D01*
X63049000Y-55761888D01*
X63053565Y-55715532D01*
X63065296Y-55676862D01*
X63084346Y-55641223D01*
X63109983Y-55609983D01*
X63141223Y-55584346D01*
X63176862Y-55565296D01*
X63215532Y-55553565D01*
X63261888Y-55549000D01*
X64338112Y-55549000D01*
X64384468Y-55553565D01*
G37*
G36*
X59584468Y-54553565D02*
G01*
X59623138Y-54565296D01*
X59658777Y-54584346D01*
X59690017Y-54609983D01*
X59715654Y-54641223D01*
X59734704Y-54676862D01*
X59746435Y-54715532D01*
X59751000Y-54761888D01*
X59751000Y-55413112D01*
X59746435Y-55459468D01*
X59734704Y-55498138D01*
X59715654Y-55533777D01*
X59690017Y-55565017D01*
X59658777Y-55590654D01*
X59623138Y-55609704D01*
X59584468Y-55621435D01*
X59538112Y-55626000D01*
X58461888Y-55626000D01*
X58415532Y-55621435D01*
X58376862Y-55609704D01*
X58341223Y-55590654D01*
X58309983Y-55565017D01*
X58284346Y-55533777D01*
X58265296Y-55498138D01*
X58253565Y-55459468D01*
X58249000Y-55413112D01*
X58249000Y-54761888D01*
X58253565Y-54715532D01*
X58265296Y-54676862D01*
X58284346Y-54641223D01*
X58309983Y-54609983D01*
X58341223Y-54584346D01*
X58376862Y-54565296D01*
X58415532Y-54553565D01*
X58461888Y-54549000D01*
X59538112Y-54549000D01*
X59584468Y-54553565D01*
G37*
G36*
X57334468Y-54553565D02*
G01*
X57373138Y-54565296D01*
X57408777Y-54584346D01*
X57440017Y-54609983D01*
X57465654Y-54641223D01*
X57484704Y-54676862D01*
X57496435Y-54715532D01*
X57501000Y-54761888D01*
X57501000Y-55413112D01*
X57496435Y-55459468D01*
X57484704Y-55498138D01*
X57465654Y-55533777D01*
X57440017Y-55565017D01*
X57408777Y-55590654D01*
X57373138Y-55609704D01*
X57334468Y-55621435D01*
X57288112Y-55626000D01*
X56211888Y-55626000D01*
X56165532Y-55621435D01*
X56126862Y-55609704D01*
X56091223Y-55590654D01*
X56059983Y-55565017D01*
X56034346Y-55533777D01*
X56015296Y-55498138D01*
X56003565Y-55459468D01*
X55999000Y-55413112D01*
X55999000Y-54761888D01*
X56003565Y-54715532D01*
X56015296Y-54676862D01*
X56034346Y-54641223D01*
X56059983Y-54609983D01*
X56091223Y-54584346D01*
X56126862Y-54565296D01*
X56165532Y-54553565D01*
X56211888Y-54549000D01*
X57288112Y-54549000D01*
X57334468Y-54553565D01*
G37*
G36*
X76934468Y-54503565D02*
G01*
X76973138Y-54515296D01*
X77008777Y-54534346D01*
X77040017Y-54559983D01*
X77065654Y-54591223D01*
X77084704Y-54626862D01*
X77096435Y-54665532D01*
X77101000Y-54711888D01*
X77101000Y-55363112D01*
X77096435Y-55409468D01*
X77084704Y-55448138D01*
X77065654Y-55483777D01*
X77040017Y-55515017D01*
X77008777Y-55540654D01*
X76973138Y-55559704D01*
X76934468Y-55571435D01*
X76888112Y-55576000D01*
X75811888Y-55576000D01*
X75765532Y-55571435D01*
X75726862Y-55559704D01*
X75691223Y-55540654D01*
X75659983Y-55515017D01*
X75634346Y-55483777D01*
X75615296Y-55448138D01*
X75603565Y-55409468D01*
X75599000Y-55363112D01*
X75599000Y-54711888D01*
X75603565Y-54665532D01*
X75615296Y-54626862D01*
X75634346Y-54591223D01*
X75659983Y-54559983D01*
X75691223Y-54534346D01*
X75726862Y-54515296D01*
X75765532Y-54503565D01*
X75811888Y-54499000D01*
X76888112Y-54499000D01*
X76934468Y-54503565D01*
G37*
G36*
X74834468Y-54503565D02*
G01*
X74873138Y-54515296D01*
X74908777Y-54534346D01*
X74940017Y-54559983D01*
X74965654Y-54591223D01*
X74984704Y-54626862D01*
X74996435Y-54665532D01*
X75001000Y-54711888D01*
X75001000Y-55363112D01*
X74996435Y-55409468D01*
X74984704Y-55448138D01*
X74965654Y-55483777D01*
X74940017Y-55515017D01*
X74908777Y-55540654D01*
X74873138Y-55559704D01*
X74834468Y-55571435D01*
X74788112Y-55576000D01*
X73711888Y-55576000D01*
X73665532Y-55571435D01*
X73626862Y-55559704D01*
X73591223Y-55540654D01*
X73559983Y-55515017D01*
X73534346Y-55483777D01*
X73515296Y-55448138D01*
X73503565Y-55409468D01*
X73499000Y-55363112D01*
X73499000Y-54711888D01*
X73503565Y-54665532D01*
X73515296Y-54626862D01*
X73534346Y-54591223D01*
X73559983Y-54559983D01*
X73591223Y-54534346D01*
X73626862Y-54515296D01*
X73665532Y-54503565D01*
X73711888Y-54499000D01*
X74788112Y-54499000D01*
X74834468Y-54503565D01*
G37*
G36*
X33884468Y-54053565D02*
G01*
X33923138Y-54065296D01*
X33958777Y-54084346D01*
X33990017Y-54109983D01*
X34015654Y-54141223D01*
X34034704Y-54176862D01*
X34046435Y-54215532D01*
X34051000Y-54261888D01*
X34051000Y-54913112D01*
X34046435Y-54959468D01*
X34034704Y-54998138D01*
X34015654Y-55033777D01*
X33990017Y-55065017D01*
X33958777Y-55090654D01*
X33923138Y-55109704D01*
X33884468Y-55121435D01*
X33838112Y-55126000D01*
X32761888Y-55126000D01*
X32715532Y-55121435D01*
X32676862Y-55109704D01*
X32641223Y-55090654D01*
X32609983Y-55065017D01*
X32584346Y-55033777D01*
X32565296Y-54998138D01*
X32553565Y-54959468D01*
X32549000Y-54913112D01*
X32549000Y-54261888D01*
X32553565Y-54215532D01*
X32565296Y-54176862D01*
X32584346Y-54141223D01*
X32609983Y-54109983D01*
X32641223Y-54084346D01*
X32676862Y-54065296D01*
X32715532Y-54053565D01*
X32761888Y-54049000D01*
X33838112Y-54049000D01*
X33884468Y-54053565D01*
G37*
G36*
X64384468Y-53678565D02*
G01*
X64423138Y-53690296D01*
X64458777Y-53709346D01*
X64490017Y-53734983D01*
X64515654Y-53766223D01*
X64534704Y-53801862D01*
X64546435Y-53840532D01*
X64551000Y-53886888D01*
X64551000Y-54538112D01*
X64546435Y-54584468D01*
X64534704Y-54623138D01*
X64515654Y-54658777D01*
X64490017Y-54690017D01*
X64458777Y-54715654D01*
X64423138Y-54734704D01*
X64384468Y-54746435D01*
X64338112Y-54751000D01*
X63261888Y-54751000D01*
X63215532Y-54746435D01*
X63176862Y-54734704D01*
X63141223Y-54715654D01*
X63109983Y-54690017D01*
X63084346Y-54658777D01*
X63065296Y-54623138D01*
X63053565Y-54584468D01*
X63049000Y-54538112D01*
X63049000Y-53886888D01*
X63053565Y-53840532D01*
X63065296Y-53801862D01*
X63084346Y-53766223D01*
X63109983Y-53734983D01*
X63141223Y-53709346D01*
X63176862Y-53690296D01*
X63215532Y-53678565D01*
X63261888Y-53674000D01*
X64338112Y-53674000D01*
X64384468Y-53678565D01*
G37*
G36*
X62184468Y-53678565D02*
G01*
X62223138Y-53690296D01*
X62258777Y-53709346D01*
X62290017Y-53734983D01*
X62315654Y-53766223D01*
X62334704Y-53801862D01*
X62346435Y-53840532D01*
X62351000Y-53886888D01*
X62351000Y-54538112D01*
X62346435Y-54584468D01*
X62334704Y-54623138D01*
X62315654Y-54658777D01*
X62290017Y-54690017D01*
X62258777Y-54715654D01*
X62223138Y-54734704D01*
X62184468Y-54746435D01*
X62138112Y-54751000D01*
X61061888Y-54751000D01*
X61015532Y-54746435D01*
X60976862Y-54734704D01*
X60941223Y-54715654D01*
X60909983Y-54690017D01*
X60884346Y-54658777D01*
X60865296Y-54623138D01*
X60853565Y-54584468D01*
X60849000Y-54538112D01*
X60849000Y-53886888D01*
X60853565Y-53840532D01*
X60865296Y-53801862D01*
X60884346Y-53766223D01*
X60909983Y-53734983D01*
X60941223Y-53709346D01*
X60976862Y-53690296D01*
X61015532Y-53678565D01*
X61061888Y-53674000D01*
X62138112Y-53674000D01*
X62184468Y-53678565D01*
G37*
G36*
X37486000Y-54259000D02*
G01*
X36734000Y-54259000D01*
X36734000Y-52457000D01*
X37486000Y-52457000D01*
X37486000Y-54259000D01*
G37*
G36*
X35586000Y-54259000D02*
G01*
X34834000Y-54259000D01*
X34834000Y-52457000D01*
X35586000Y-52457000D01*
X35586000Y-54259000D01*
G37*
G36*
X59584468Y-52678565D02*
G01*
X59623138Y-52690296D01*
X59658777Y-52709346D01*
X59690017Y-52734983D01*
X59715654Y-52766223D01*
X59734704Y-52801862D01*
X59746435Y-52840532D01*
X59751000Y-52886888D01*
X59751000Y-53538112D01*
X59746435Y-53584468D01*
X59734704Y-53623138D01*
X59715654Y-53658777D01*
X59690017Y-53690017D01*
X59658777Y-53715654D01*
X59623138Y-53734704D01*
X59584468Y-53746435D01*
X59538112Y-53751000D01*
X58461888Y-53751000D01*
X58415532Y-53746435D01*
X58376862Y-53734704D01*
X58341223Y-53715654D01*
X58309983Y-53690017D01*
X58284346Y-53658777D01*
X58265296Y-53623138D01*
X58253565Y-53584468D01*
X58249000Y-53538112D01*
X58249000Y-52886888D01*
X58253565Y-52840532D01*
X58265296Y-52801862D01*
X58284346Y-52766223D01*
X58309983Y-52734983D01*
X58341223Y-52709346D01*
X58376862Y-52690296D01*
X58415532Y-52678565D01*
X58461888Y-52674000D01*
X59538112Y-52674000D01*
X59584468Y-52678565D01*
G37*
G36*
X57334468Y-52678565D02*
G01*
X57373138Y-52690296D01*
X57408777Y-52709346D01*
X57440017Y-52734983D01*
X57465654Y-52766223D01*
X57484704Y-52801862D01*
X57496435Y-52840532D01*
X57501000Y-52886888D01*
X57501000Y-53538112D01*
X57496435Y-53584468D01*
X57484704Y-53623138D01*
X57465654Y-53658777D01*
X57440017Y-53690017D01*
X57408777Y-53715654D01*
X57373138Y-53734704D01*
X57334468Y-53746435D01*
X57288112Y-53751000D01*
X56211888Y-53751000D01*
X56165532Y-53746435D01*
X56126862Y-53734704D01*
X56091223Y-53715654D01*
X56059983Y-53690017D01*
X56034346Y-53658777D01*
X56015296Y-53623138D01*
X56003565Y-53584468D01*
X55999000Y-53538112D01*
X55999000Y-52886888D01*
X56003565Y-52840532D01*
X56015296Y-52801862D01*
X56034346Y-52766223D01*
X56059983Y-52734983D01*
X56091223Y-52709346D01*
X56126862Y-52690296D01*
X56165532Y-52678565D01*
X56211888Y-52674000D01*
X57288112Y-52674000D01*
X57334468Y-52678565D01*
G37*
G36*
X76934468Y-52628565D02*
G01*
X76973138Y-52640296D01*
X77008777Y-52659346D01*
X77040017Y-52684983D01*
X77065654Y-52716223D01*
X77084704Y-52751862D01*
X77096435Y-52790532D01*
X77101000Y-52836888D01*
X77101000Y-53488112D01*
X77096435Y-53534468D01*
X77084704Y-53573138D01*
X77065654Y-53608777D01*
X77040017Y-53640017D01*
X77008777Y-53665654D01*
X76973138Y-53684704D01*
X76934468Y-53696435D01*
X76888112Y-53701000D01*
X75811888Y-53701000D01*
X75765532Y-53696435D01*
X75726862Y-53684704D01*
X75691223Y-53665654D01*
X75659983Y-53640017D01*
X75634346Y-53608777D01*
X75615296Y-53573138D01*
X75603565Y-53534468D01*
X75599000Y-53488112D01*
X75599000Y-52836888D01*
X75603565Y-52790532D01*
X75615296Y-52751862D01*
X75634346Y-52716223D01*
X75659983Y-52684983D01*
X75691223Y-52659346D01*
X75726862Y-52640296D01*
X75765532Y-52628565D01*
X75811888Y-52624000D01*
X76888112Y-52624000D01*
X76934468Y-52628565D01*
G37*
G36*
X74834468Y-52628565D02*
G01*
X74873138Y-52640296D01*
X74908777Y-52659346D01*
X74940017Y-52684983D01*
X74965654Y-52716223D01*
X74984704Y-52751862D01*
X74996435Y-52790532D01*
X75001000Y-52836888D01*
X75001000Y-53488112D01*
X74996435Y-53534468D01*
X74984704Y-53573138D01*
X74965654Y-53608777D01*
X74940017Y-53640017D01*
X74908777Y-53665654D01*
X74873138Y-53684704D01*
X74834468Y-53696435D01*
X74788112Y-53701000D01*
X73711888Y-53701000D01*
X73665532Y-53696435D01*
X73626862Y-53684704D01*
X73591223Y-53665654D01*
X73559983Y-53640017D01*
X73534346Y-53608777D01*
X73515296Y-53573138D01*
X73503565Y-53534468D01*
X73499000Y-53488112D01*
X73499000Y-52836888D01*
X73503565Y-52790532D01*
X73515296Y-52751862D01*
X73534346Y-52716223D01*
X73559983Y-52684983D01*
X73591223Y-52659346D01*
X73626862Y-52640296D01*
X73665532Y-52628565D01*
X73711888Y-52624000D01*
X74788112Y-52624000D01*
X74834468Y-52628565D01*
G37*
G36*
X33884468Y-52178565D02*
G01*
X33923138Y-52190296D01*
X33958777Y-52209346D01*
X33990017Y-52234983D01*
X34015654Y-52266223D01*
X34034704Y-52301862D01*
X34046435Y-52340532D01*
X34051000Y-52386888D01*
X34051000Y-53038112D01*
X34046435Y-53084468D01*
X34034704Y-53123138D01*
X34015654Y-53158777D01*
X33990017Y-53190017D01*
X33958777Y-53215654D01*
X33923138Y-53234704D01*
X33884468Y-53246435D01*
X33838112Y-53251000D01*
X32761888Y-53251000D01*
X32715532Y-53246435D01*
X32676862Y-53234704D01*
X32641223Y-53215654D01*
X32609983Y-53190017D01*
X32584346Y-53158777D01*
X32565296Y-53123138D01*
X32553565Y-53084468D01*
X32549000Y-53038112D01*
X32549000Y-52386888D01*
X32553565Y-52340532D01*
X32565296Y-52301862D01*
X32584346Y-52266223D01*
X32609983Y-52234983D01*
X32641223Y-52209346D01*
X32676862Y-52190296D01*
X32715532Y-52178565D01*
X32761888Y-52174000D01*
X33838112Y-52174000D01*
X33884468Y-52178565D01*
G37*
G36*
X62184468Y-51103565D02*
G01*
X62223138Y-51115296D01*
X62258777Y-51134346D01*
X62290017Y-51159983D01*
X62315654Y-51191223D01*
X62334704Y-51226862D01*
X62346435Y-51265532D01*
X62351000Y-51311888D01*
X62351000Y-51963112D01*
X62346435Y-52009468D01*
X62334704Y-52048138D01*
X62315654Y-52083777D01*
X62290017Y-52115017D01*
X62258777Y-52140654D01*
X62223138Y-52159704D01*
X62184468Y-52171435D01*
X62138112Y-52176000D01*
X61061888Y-52176000D01*
X61015532Y-52171435D01*
X60976862Y-52159704D01*
X60941223Y-52140654D01*
X60909983Y-52115017D01*
X60884346Y-52083777D01*
X60865296Y-52048138D01*
X60853565Y-52009468D01*
X60849000Y-51963112D01*
X60849000Y-51311888D01*
X60853565Y-51265532D01*
X60865296Y-51226862D01*
X60884346Y-51191223D01*
X60909983Y-51159983D01*
X60941223Y-51134346D01*
X60976862Y-51115296D01*
X61015532Y-51103565D01*
X61061888Y-51099000D01*
X62138112Y-51099000D01*
X62184468Y-51103565D01*
G37*
G36*
X64384468Y-51103565D02*
G01*
X64423138Y-51115296D01*
X64458777Y-51134346D01*
X64490017Y-51159983D01*
X64515654Y-51191223D01*
X64534704Y-51226862D01*
X64546435Y-51265532D01*
X64551000Y-51311888D01*
X64551000Y-51963112D01*
X64546435Y-52009468D01*
X64534704Y-52048138D01*
X64515654Y-52083777D01*
X64490017Y-52115017D01*
X64458777Y-52140654D01*
X64423138Y-52159704D01*
X64384468Y-52171435D01*
X64338112Y-52176000D01*
X63261888Y-52176000D01*
X63215532Y-52171435D01*
X63176862Y-52159704D01*
X63141223Y-52140654D01*
X63109983Y-52115017D01*
X63084346Y-52083777D01*
X63065296Y-52048138D01*
X63053565Y-52009468D01*
X63049000Y-51963112D01*
X63049000Y-51311888D01*
X63053565Y-51265532D01*
X63065296Y-51226862D01*
X63084346Y-51191223D01*
X63109983Y-51159983D01*
X63141223Y-51134346D01*
X63176862Y-51115296D01*
X63215532Y-51103565D01*
X63261888Y-51099000D01*
X64338112Y-51099000D01*
X64384468Y-51103565D01*
G37*
G36*
X66784468Y-50753565D02*
G01*
X66823138Y-50765296D01*
X66858777Y-50784346D01*
X66890017Y-50809983D01*
X66915654Y-50841223D01*
X66934704Y-50876862D01*
X66946435Y-50915532D01*
X66951000Y-50961888D01*
X66951000Y-51613112D01*
X66946435Y-51659468D01*
X66934704Y-51698138D01*
X66915654Y-51733777D01*
X66890017Y-51765017D01*
X66858777Y-51790654D01*
X66823138Y-51809704D01*
X66784468Y-51821435D01*
X66738112Y-51826000D01*
X65661888Y-51826000D01*
X65615532Y-51821435D01*
X65576862Y-51809704D01*
X65541223Y-51790654D01*
X65509983Y-51765017D01*
X65484346Y-51733777D01*
X65465296Y-51698138D01*
X65453565Y-51659468D01*
X65449000Y-51613112D01*
X65449000Y-50961888D01*
X65453565Y-50915532D01*
X65465296Y-50876862D01*
X65484346Y-50841223D01*
X65509983Y-50809983D01*
X65541223Y-50784346D01*
X65576862Y-50765296D01*
X65615532Y-50753565D01*
X65661888Y-50749000D01*
X66738112Y-50749000D01*
X66784468Y-50753565D01*
G37*
G36*
X57384468Y-50753565D02*
G01*
X57423138Y-50765296D01*
X57458777Y-50784346D01*
X57490017Y-50809983D01*
X57515654Y-50841223D01*
X57534704Y-50876862D01*
X57546435Y-50915532D01*
X57551000Y-50961888D01*
X57551000Y-51613112D01*
X57546435Y-51659468D01*
X57534704Y-51698138D01*
X57515654Y-51733777D01*
X57490017Y-51765017D01*
X57458777Y-51790654D01*
X57423138Y-51809704D01*
X57384468Y-51821435D01*
X57338112Y-51826000D01*
X56261888Y-51826000D01*
X56215532Y-51821435D01*
X56176862Y-51809704D01*
X56141223Y-51790654D01*
X56109983Y-51765017D01*
X56084346Y-51733777D01*
X56065296Y-51698138D01*
X56053565Y-51659468D01*
X56049000Y-51613112D01*
X56049000Y-50961888D01*
X56053565Y-50915532D01*
X56065296Y-50876862D01*
X56084346Y-50841223D01*
X56109983Y-50809983D01*
X56141223Y-50784346D01*
X56176862Y-50765296D01*
X56215532Y-50753565D01*
X56261888Y-50749000D01*
X57338112Y-50749000D01*
X57384468Y-50753565D01*
G37*
G36*
X59584468Y-50753565D02*
G01*
X59623138Y-50765296D01*
X59658777Y-50784346D01*
X59690017Y-50809983D01*
X59715654Y-50841223D01*
X59734704Y-50876862D01*
X59746435Y-50915532D01*
X59751000Y-50961888D01*
X59751000Y-51613112D01*
X59746435Y-51659468D01*
X59734704Y-51698138D01*
X59715654Y-51733777D01*
X59690017Y-51765017D01*
X59658777Y-51790654D01*
X59623138Y-51809704D01*
X59584468Y-51821435D01*
X59538112Y-51826000D01*
X58461888Y-51826000D01*
X58415532Y-51821435D01*
X58376862Y-51809704D01*
X58341223Y-51790654D01*
X58309983Y-51765017D01*
X58284346Y-51733777D01*
X58265296Y-51698138D01*
X58253565Y-51659468D01*
X58249000Y-51613112D01*
X58249000Y-50961888D01*
X58253565Y-50915532D01*
X58265296Y-50876862D01*
X58284346Y-50841223D01*
X58309983Y-50809983D01*
X58341223Y-50784346D01*
X58376862Y-50765296D01*
X58415532Y-50753565D01*
X58461888Y-50749000D01*
X59538112Y-50749000D01*
X59584468Y-50753565D01*
G37*
G36*
X73551000Y-51801000D02*
G01*
X72449000Y-51801000D01*
X72449000Y-50799000D01*
X73551000Y-50799000D01*
X73551000Y-51801000D01*
G37*
G36*
X75151000Y-51801000D02*
G01*
X74049000Y-51801000D01*
X74049000Y-50799000D01*
X75151000Y-50799000D01*
X75151000Y-51801000D01*
G37*
G36*
X52634468Y-50353565D02*
G01*
X52673138Y-50365296D01*
X52708777Y-50384346D01*
X52740017Y-50409983D01*
X52765654Y-50441223D01*
X52784704Y-50476862D01*
X52796435Y-50515532D01*
X52801000Y-50561888D01*
X52801000Y-51213112D01*
X52796435Y-51259468D01*
X52784704Y-51298138D01*
X52765654Y-51333777D01*
X52740017Y-51365017D01*
X52708777Y-51390654D01*
X52673138Y-51409704D01*
X52634468Y-51421435D01*
X52588112Y-51426000D01*
X51511888Y-51426000D01*
X51465532Y-51421435D01*
X51426862Y-51409704D01*
X51391223Y-51390654D01*
X51359983Y-51365017D01*
X51334346Y-51333777D01*
X51315296Y-51298138D01*
X51303565Y-51259468D01*
X51299000Y-51213112D01*
X51299000Y-50561888D01*
X51303565Y-50515532D01*
X51315296Y-50476862D01*
X51334346Y-50441223D01*
X51359983Y-50409983D01*
X51391223Y-50384346D01*
X51426862Y-50365296D01*
X51465532Y-50353565D01*
X51511888Y-50349000D01*
X52588112Y-50349000D01*
X52634468Y-50353565D01*
G37*
G36*
X54784468Y-50353565D02*
G01*
X54823138Y-50365296D01*
X54858777Y-50384346D01*
X54890017Y-50409983D01*
X54915654Y-50441223D01*
X54934704Y-50476862D01*
X54946435Y-50515532D01*
X54951000Y-50561888D01*
X54951000Y-51213112D01*
X54946435Y-51259468D01*
X54934704Y-51298138D01*
X54915654Y-51333777D01*
X54890017Y-51365017D01*
X54858777Y-51390654D01*
X54823138Y-51409704D01*
X54784468Y-51421435D01*
X54738112Y-51426000D01*
X53661888Y-51426000D01*
X53615532Y-51421435D01*
X53576862Y-51409704D01*
X53541223Y-51390654D01*
X53509983Y-51365017D01*
X53484346Y-51333777D01*
X53465296Y-51298138D01*
X53453565Y-51259468D01*
X53449000Y-51213112D01*
X53449000Y-50561888D01*
X53453565Y-50515532D01*
X53465296Y-50476862D01*
X53484346Y-50441223D01*
X53509983Y-50409983D01*
X53541223Y-50384346D01*
X53576862Y-50365296D01*
X53615532Y-50353565D01*
X53661888Y-50349000D01*
X54738112Y-50349000D01*
X54784468Y-50353565D01*
G37*
G36*
X47278674Y-49603465D02*
G01*
X47316367Y-49614899D01*
X47351103Y-49633466D01*
X47381548Y-49658452D01*
X47406534Y-49688897D01*
X47425101Y-49723633D01*
X47436535Y-49761326D01*
X47441000Y-49806661D01*
X47441000Y-50893339D01*
X47436535Y-50938674D01*
X47425101Y-50976367D01*
X47406534Y-51011103D01*
X47381548Y-51041548D01*
X47351103Y-51066534D01*
X47316367Y-51085101D01*
X47278674Y-51096535D01*
X47233339Y-51101000D01*
X46396661Y-51101000D01*
X46351326Y-51096535D01*
X46313633Y-51085101D01*
X46278897Y-51066534D01*
X46248452Y-51041548D01*
X46223466Y-51011103D01*
X46204899Y-50976367D01*
X46193465Y-50938674D01*
X46189000Y-50893339D01*
X46189000Y-49806661D01*
X46193465Y-49761326D01*
X46204899Y-49723633D01*
X46223466Y-49688897D01*
X46248452Y-49658452D01*
X46278897Y-49633466D01*
X46313633Y-49614899D01*
X46351326Y-49603465D01*
X46396661Y-49599000D01*
X47233339Y-49599000D01*
X47278674Y-49603465D01*
G37*
G36*
X49328674Y-49603465D02*
G01*
X49366367Y-49614899D01*
X49401103Y-49633466D01*
X49431548Y-49658452D01*
X49456534Y-49688897D01*
X49475101Y-49723633D01*
X49486535Y-49761326D01*
X49491000Y-49806661D01*
X49491000Y-50893339D01*
X49486535Y-50938674D01*
X49475101Y-50976367D01*
X49456534Y-51011103D01*
X49431548Y-51041548D01*
X49401103Y-51066534D01*
X49366367Y-51085101D01*
X49328674Y-51096535D01*
X49283339Y-51101000D01*
X48446661Y-51101000D01*
X48401326Y-51096535D01*
X48363633Y-51085101D01*
X48328897Y-51066534D01*
X48298452Y-51041548D01*
X48273466Y-51011103D01*
X48254899Y-50976367D01*
X48243465Y-50938674D01*
X48239000Y-50893339D01*
X48239000Y-49806661D01*
X48243465Y-49761326D01*
X48254899Y-49723633D01*
X48273466Y-49688897D01*
X48298452Y-49658452D01*
X48328897Y-49633466D01*
X48363633Y-49614899D01*
X48401326Y-49603465D01*
X48446661Y-49599000D01*
X49283339Y-49599000D01*
X49328674Y-49603465D01*
G37*
G36*
X68934468Y-49153565D02*
G01*
X68973138Y-49165296D01*
X69008777Y-49184346D01*
X69040017Y-49209983D01*
X69065654Y-49241223D01*
X69084704Y-49276862D01*
X69096435Y-49315532D01*
X69101000Y-49361888D01*
X69101000Y-50438112D01*
X69096435Y-50484468D01*
X69084704Y-50523138D01*
X69065654Y-50558777D01*
X69040017Y-50590017D01*
X69008777Y-50615654D01*
X68973138Y-50634704D01*
X68934468Y-50646435D01*
X68888112Y-50651000D01*
X68236888Y-50651000D01*
X68190532Y-50646435D01*
X68151862Y-50634704D01*
X68116223Y-50615654D01*
X68084983Y-50590017D01*
X68059346Y-50558777D01*
X68040296Y-50523138D01*
X68028565Y-50484468D01*
X68024000Y-50438112D01*
X68024000Y-49361888D01*
X68028565Y-49315532D01*
X68040296Y-49276862D01*
X68059346Y-49241223D01*
X68084983Y-49209983D01*
X68116223Y-49184346D01*
X68151862Y-49165296D01*
X68190532Y-49153565D01*
X68236888Y-49149000D01*
X68888112Y-49149000D01*
X68934468Y-49153565D01*
G37*
G36*
X70809468Y-49153565D02*
G01*
X70848138Y-49165296D01*
X70883777Y-49184346D01*
X70915017Y-49209983D01*
X70940654Y-49241223D01*
X70959704Y-49276862D01*
X70971435Y-49315532D01*
X70976000Y-49361888D01*
X70976000Y-50438112D01*
X70971435Y-50484468D01*
X70959704Y-50523138D01*
X70940654Y-50558777D01*
X70915017Y-50590017D01*
X70883777Y-50615654D01*
X70848138Y-50634704D01*
X70809468Y-50646435D01*
X70763112Y-50651000D01*
X70111888Y-50651000D01*
X70065532Y-50646435D01*
X70026862Y-50634704D01*
X69991223Y-50615654D01*
X69959983Y-50590017D01*
X69934346Y-50558777D01*
X69915296Y-50523138D01*
X69903565Y-50484468D01*
X69899000Y-50438112D01*
X69899000Y-49361888D01*
X69903565Y-49315532D01*
X69915296Y-49276862D01*
X69934346Y-49241223D01*
X69959983Y-49209983D01*
X69991223Y-49184346D01*
X70026862Y-49165296D01*
X70065532Y-49153565D01*
X70111888Y-49149000D01*
X70763112Y-49149000D01*
X70809468Y-49153565D01*
G37*
G36*
X62184468Y-49228565D02*
G01*
X62223138Y-49240296D01*
X62258777Y-49259346D01*
X62290017Y-49284983D01*
X62315654Y-49316223D01*
X62334704Y-49351862D01*
X62346435Y-49390532D01*
X62351000Y-49436888D01*
X62351000Y-50088112D01*
X62346435Y-50134468D01*
X62334704Y-50173138D01*
X62315654Y-50208777D01*
X62290017Y-50240017D01*
X62258777Y-50265654D01*
X62223138Y-50284704D01*
X62184468Y-50296435D01*
X62138112Y-50301000D01*
X61061888Y-50301000D01*
X61015532Y-50296435D01*
X60976862Y-50284704D01*
X60941223Y-50265654D01*
X60909983Y-50240017D01*
X60884346Y-50208777D01*
X60865296Y-50173138D01*
X60853565Y-50134468D01*
X60849000Y-50088112D01*
X60849000Y-49436888D01*
X60853565Y-49390532D01*
X60865296Y-49351862D01*
X60884346Y-49316223D01*
X60909983Y-49284983D01*
X60941223Y-49259346D01*
X60976862Y-49240296D01*
X61015532Y-49228565D01*
X61061888Y-49224000D01*
X62138112Y-49224000D01*
X62184468Y-49228565D01*
G37*
G36*
X64384468Y-49228565D02*
G01*
X64423138Y-49240296D01*
X64458777Y-49259346D01*
X64490017Y-49284983D01*
X64515654Y-49316223D01*
X64534704Y-49351862D01*
X64546435Y-49390532D01*
X64551000Y-49436888D01*
X64551000Y-50088112D01*
X64546435Y-50134468D01*
X64534704Y-50173138D01*
X64515654Y-50208777D01*
X64490017Y-50240017D01*
X64458777Y-50265654D01*
X64423138Y-50284704D01*
X64384468Y-50296435D01*
X64338112Y-50301000D01*
X63261888Y-50301000D01*
X63215532Y-50296435D01*
X63176862Y-50284704D01*
X63141223Y-50265654D01*
X63109983Y-50240017D01*
X63084346Y-50208777D01*
X63065296Y-50173138D01*
X63053565Y-50134468D01*
X63049000Y-50088112D01*
X63049000Y-49436888D01*
X63053565Y-49390532D01*
X63065296Y-49351862D01*
X63084346Y-49316223D01*
X63109983Y-49284983D01*
X63141223Y-49259346D01*
X63176862Y-49240296D01*
X63215532Y-49228565D01*
X63261888Y-49224000D01*
X64338112Y-49224000D01*
X64384468Y-49228565D01*
G37*
G36*
X57384468Y-48878565D02*
G01*
X57423138Y-48890296D01*
X57458777Y-48909346D01*
X57490017Y-48934983D01*
X57515654Y-48966223D01*
X57534704Y-49001862D01*
X57546435Y-49040532D01*
X57551000Y-49086888D01*
X57551000Y-49738112D01*
X57546435Y-49784468D01*
X57534704Y-49823138D01*
X57515654Y-49858777D01*
X57490017Y-49890017D01*
X57458777Y-49915654D01*
X57423138Y-49934704D01*
X57384468Y-49946435D01*
X57338112Y-49951000D01*
X56261888Y-49951000D01*
X56215532Y-49946435D01*
X56176862Y-49934704D01*
X56141223Y-49915654D01*
X56109983Y-49890017D01*
X56084346Y-49858777D01*
X56065296Y-49823138D01*
X56053565Y-49784468D01*
X56049000Y-49738112D01*
X56049000Y-49086888D01*
X56053565Y-49040532D01*
X56065296Y-49001862D01*
X56084346Y-48966223D01*
X56109983Y-48934983D01*
X56141223Y-48909346D01*
X56176862Y-48890296D01*
X56215532Y-48878565D01*
X56261888Y-48874000D01*
X57338112Y-48874000D01*
X57384468Y-48878565D01*
G37*
G36*
X59584468Y-48878565D02*
G01*
X59623138Y-48890296D01*
X59658777Y-48909346D01*
X59690017Y-48934983D01*
X59715654Y-48966223D01*
X59734704Y-49001862D01*
X59746435Y-49040532D01*
X59751000Y-49086888D01*
X59751000Y-49738112D01*
X59746435Y-49784468D01*
X59734704Y-49823138D01*
X59715654Y-49858777D01*
X59690017Y-49890017D01*
X59658777Y-49915654D01*
X59623138Y-49934704D01*
X59584468Y-49946435D01*
X59538112Y-49951000D01*
X58461888Y-49951000D01*
X58415532Y-49946435D01*
X58376862Y-49934704D01*
X58341223Y-49915654D01*
X58309983Y-49890017D01*
X58284346Y-49858777D01*
X58265296Y-49823138D01*
X58253565Y-49784468D01*
X58249000Y-49738112D01*
X58249000Y-49086888D01*
X58253565Y-49040532D01*
X58265296Y-49001862D01*
X58284346Y-48966223D01*
X58309983Y-48934983D01*
X58341223Y-48909346D01*
X58376862Y-48890296D01*
X58415532Y-48878565D01*
X58461888Y-48874000D01*
X59538112Y-48874000D01*
X59584468Y-48878565D01*
G37*
G36*
X66784468Y-48878565D02*
G01*
X66823138Y-48890296D01*
X66858777Y-48909346D01*
X66890017Y-48934983D01*
X66915654Y-48966223D01*
X66934704Y-49001862D01*
X66946435Y-49040532D01*
X66951000Y-49086888D01*
X66951000Y-49738112D01*
X66946435Y-49784468D01*
X66934704Y-49823138D01*
X66915654Y-49858777D01*
X66890017Y-49890017D01*
X66858777Y-49915654D01*
X66823138Y-49934704D01*
X66784468Y-49946435D01*
X66738112Y-49951000D01*
X65661888Y-49951000D01*
X65615532Y-49946435D01*
X65576862Y-49934704D01*
X65541223Y-49915654D01*
X65509983Y-49890017D01*
X65484346Y-49858777D01*
X65465296Y-49823138D01*
X65453565Y-49784468D01*
X65449000Y-49738112D01*
X65449000Y-49086888D01*
X65453565Y-49040532D01*
X65465296Y-49001862D01*
X65484346Y-48966223D01*
X65509983Y-48934983D01*
X65541223Y-48909346D01*
X65576862Y-48890296D01*
X65615532Y-48878565D01*
X65661888Y-48874000D01*
X66738112Y-48874000D01*
X66784468Y-48878565D01*
G37*
G36*
X52634468Y-48478565D02*
G01*
X52673138Y-48490296D01*
X52708777Y-48509346D01*
X52740017Y-48534983D01*
X52765654Y-48566223D01*
X52784704Y-48601862D01*
X52796435Y-48640532D01*
X52801000Y-48686888D01*
X52801000Y-49338112D01*
X52796435Y-49384468D01*
X52784704Y-49423138D01*
X52765654Y-49458777D01*
X52740017Y-49490017D01*
X52708777Y-49515654D01*
X52673138Y-49534704D01*
X52634468Y-49546435D01*
X52588112Y-49551000D01*
X51511888Y-49551000D01*
X51465532Y-49546435D01*
X51426862Y-49534704D01*
X51391223Y-49515654D01*
X51359983Y-49490017D01*
X51334346Y-49458777D01*
X51315296Y-49423138D01*
X51303565Y-49384468D01*
X51299000Y-49338112D01*
X51299000Y-48686888D01*
X51303565Y-48640532D01*
X51315296Y-48601862D01*
X51334346Y-48566223D01*
X51359983Y-48534983D01*
X51391223Y-48509346D01*
X51426862Y-48490296D01*
X51465532Y-48478565D01*
X51511888Y-48474000D01*
X52588112Y-48474000D01*
X52634468Y-48478565D01*
G37*
G36*
X54784468Y-48478565D02*
G01*
X54823138Y-48490296D01*
X54858777Y-48509346D01*
X54890017Y-48534983D01*
X54915654Y-48566223D01*
X54934704Y-48601862D01*
X54946435Y-48640532D01*
X54951000Y-48686888D01*
X54951000Y-49338112D01*
X54946435Y-49384468D01*
X54934704Y-49423138D01*
X54915654Y-49458777D01*
X54890017Y-49490017D01*
X54858777Y-49515654D01*
X54823138Y-49534704D01*
X54784468Y-49546435D01*
X54738112Y-49551000D01*
X53661888Y-49551000D01*
X53615532Y-49546435D01*
X53576862Y-49534704D01*
X53541223Y-49515654D01*
X53509983Y-49490017D01*
X53484346Y-49458777D01*
X53465296Y-49423138D01*
X53453565Y-49384468D01*
X53449000Y-49338112D01*
X53449000Y-48686888D01*
X53453565Y-48640532D01*
X53465296Y-48601862D01*
X53484346Y-48566223D01*
X53509983Y-48534983D01*
X53541223Y-48509346D01*
X53576862Y-48490296D01*
X53615532Y-48478565D01*
X53661888Y-48474000D01*
X54738112Y-48474000D01*
X54784468Y-48478565D01*
G37*
G36*
X85171000Y-49351000D02*
G01*
X83769000Y-49351000D01*
X83769000Y-47649000D01*
X85171000Y-47649000D01*
X85171000Y-49351000D01*
G37*
G36*
X82371000Y-49351000D02*
G01*
X80969000Y-49351000D01*
X80969000Y-47649000D01*
X82371000Y-47649000D01*
X82371000Y-49351000D01*
G37*
G36*
X78671000Y-49351000D02*
G01*
X77269000Y-49351000D01*
X77269000Y-47649000D01*
X78671000Y-47649000D01*
X78671000Y-49351000D01*
G37*
G36*
X34869000Y-48567000D02*
G01*
X32767000Y-48567000D01*
X32767000Y-46965000D01*
X34869000Y-46965000D01*
X34869000Y-48567000D01*
G37*
G36*
X31425648Y-47214053D02*
G01*
X31464318Y-47225784D01*
X31499957Y-47244834D01*
X31531197Y-47270471D01*
X31556834Y-47301711D01*
X31575884Y-47337350D01*
X31587615Y-47376020D01*
X31592180Y-47422376D01*
X31592180Y-48073600D01*
X31587615Y-48119956D01*
X31575884Y-48158626D01*
X31556834Y-48194265D01*
X31531197Y-48225505D01*
X31499957Y-48251142D01*
X31464318Y-48270192D01*
X31425648Y-48281923D01*
X31379292Y-48286488D01*
X30303068Y-48286488D01*
X30256712Y-48281923D01*
X30218042Y-48270192D01*
X30182403Y-48251142D01*
X30151163Y-48225505D01*
X30125526Y-48194265D01*
X30106476Y-48158626D01*
X30094745Y-48119956D01*
X30090180Y-48073600D01*
X30090180Y-47422376D01*
X30094745Y-47376020D01*
X30106476Y-47337350D01*
X30125526Y-47301711D01*
X30151163Y-47270471D01*
X30182403Y-47244834D01*
X30218042Y-47225784D01*
X30256712Y-47214053D01*
X30303068Y-47209488D01*
X31379292Y-47209488D01*
X31425648Y-47214053D01*
G37*
G36*
X68934468Y-46683565D02*
G01*
X68973138Y-46695296D01*
X69008777Y-46714346D01*
X69040017Y-46739983D01*
X69065654Y-46771223D01*
X69084704Y-46806862D01*
X69096435Y-46845532D01*
X69101000Y-46891888D01*
X69101000Y-47968112D01*
X69096435Y-48014468D01*
X69084704Y-48053138D01*
X69065654Y-48088777D01*
X69040017Y-48120017D01*
X69008777Y-48145654D01*
X68973138Y-48164704D01*
X68934468Y-48176435D01*
X68888112Y-48181000D01*
X68236888Y-48181000D01*
X68190532Y-48176435D01*
X68151862Y-48164704D01*
X68116223Y-48145654D01*
X68084983Y-48120017D01*
X68059346Y-48088777D01*
X68040296Y-48053138D01*
X68028565Y-48014468D01*
X68024000Y-47968112D01*
X68024000Y-46891888D01*
X68028565Y-46845532D01*
X68040296Y-46806862D01*
X68059346Y-46771223D01*
X68084983Y-46739983D01*
X68116223Y-46714346D01*
X68151862Y-46695296D01*
X68190532Y-46683565D01*
X68236888Y-46679000D01*
X68888112Y-46679000D01*
X68934468Y-46683565D01*
G37*
G36*
X70809468Y-46683565D02*
G01*
X70848138Y-46695296D01*
X70883777Y-46714346D01*
X70915017Y-46739983D01*
X70940654Y-46771223D01*
X70959704Y-46806862D01*
X70971435Y-46845532D01*
X70976000Y-46891888D01*
X70976000Y-47968112D01*
X70971435Y-48014468D01*
X70959704Y-48053138D01*
X70940654Y-48088777D01*
X70915017Y-48120017D01*
X70883777Y-48145654D01*
X70848138Y-48164704D01*
X70809468Y-48176435D01*
X70763112Y-48181000D01*
X70111888Y-48181000D01*
X70065532Y-48176435D01*
X70026862Y-48164704D01*
X69991223Y-48145654D01*
X69959983Y-48120017D01*
X69934346Y-48088777D01*
X69915296Y-48053138D01*
X69903565Y-48014468D01*
X69899000Y-47968112D01*
X69899000Y-46891888D01*
X69903565Y-46845532D01*
X69915296Y-46806862D01*
X69934346Y-46771223D01*
X69959983Y-46739983D01*
X69991223Y-46714346D01*
X70026862Y-46695296D01*
X70065532Y-46683565D01*
X70111888Y-46679000D01*
X70763112Y-46679000D01*
X70809468Y-46683565D01*
G37*
G36*
X43756468Y-46885565D02*
G01*
X43795138Y-46897296D01*
X43830777Y-46916346D01*
X43862017Y-46941983D01*
X43887654Y-46973223D01*
X43906704Y-47008862D01*
X43918435Y-47047532D01*
X43923000Y-47093888D01*
X43923000Y-47745112D01*
X43918435Y-47791468D01*
X43906704Y-47830138D01*
X43887654Y-47865777D01*
X43862017Y-47897017D01*
X43830777Y-47922654D01*
X43795138Y-47941704D01*
X43756468Y-47953435D01*
X43710112Y-47958000D01*
X42633888Y-47958000D01*
X42587532Y-47953435D01*
X42548862Y-47941704D01*
X42513223Y-47922654D01*
X42481983Y-47897017D01*
X42456346Y-47865777D01*
X42437296Y-47830138D01*
X42425565Y-47791468D01*
X42421000Y-47745112D01*
X42421000Y-47093888D01*
X42425565Y-47047532D01*
X42437296Y-47008862D01*
X42456346Y-46973223D01*
X42481983Y-46941983D01*
X42513223Y-46916346D01*
X42548862Y-46897296D01*
X42587532Y-46885565D01*
X42633888Y-46881000D01*
X43710112Y-46881000D01*
X43756468Y-46885565D01*
G37*
G36*
X61130295Y-46325323D02*
G01*
X61137309Y-46327451D01*
X61151077Y-46334810D01*
X61173716Y-46344187D01*
X61197749Y-46348967D01*
X61222253Y-46348967D01*
X61246286Y-46344186D01*
X61268923Y-46334810D01*
X61282691Y-46327451D01*
X61289705Y-46325323D01*
X61303140Y-46324000D01*
X61616860Y-46324000D01*
X61630295Y-46325323D01*
X61637309Y-46327451D01*
X61651077Y-46334810D01*
X61673716Y-46344187D01*
X61697749Y-46348967D01*
X61722253Y-46348967D01*
X61746286Y-46344186D01*
X61768923Y-46334810D01*
X61782691Y-46327451D01*
X61789705Y-46325323D01*
X61803140Y-46324000D01*
X62116860Y-46324000D01*
X62130295Y-46325323D01*
X62137309Y-46327451D01*
X62151077Y-46334810D01*
X62173716Y-46344187D01*
X62197749Y-46348967D01*
X62222253Y-46348967D01*
X62246286Y-46344186D01*
X62268923Y-46334810D01*
X62282691Y-46327451D01*
X62289705Y-46325323D01*
X62303140Y-46324000D01*
X62616860Y-46324000D01*
X62630295Y-46325323D01*
X62637309Y-46327451D01*
X62651077Y-46334810D01*
X62673716Y-46344187D01*
X62697749Y-46348967D01*
X62722253Y-46348967D01*
X62746286Y-46344186D01*
X62768923Y-46334810D01*
X62782691Y-46327451D01*
X62789705Y-46325323D01*
X62803140Y-46324000D01*
X63116860Y-46324000D01*
X63130295Y-46325323D01*
X63137309Y-46327451D01*
X63151077Y-46334810D01*
X63173716Y-46344187D01*
X63197749Y-46348967D01*
X63222253Y-46348967D01*
X63246286Y-46344186D01*
X63268923Y-46334810D01*
X63282691Y-46327451D01*
X63289705Y-46325323D01*
X63303140Y-46324000D01*
X63616860Y-46324000D01*
X63630295Y-46325323D01*
X63637309Y-46327451D01*
X63651077Y-46334810D01*
X63673716Y-46344187D01*
X63697749Y-46348967D01*
X63722253Y-46348967D01*
X63746286Y-46344186D01*
X63768923Y-46334810D01*
X63782691Y-46327451D01*
X63789705Y-46325323D01*
X63803140Y-46324000D01*
X64116860Y-46324000D01*
X64130295Y-46325323D01*
X64137309Y-46327451D01*
X64151077Y-46334810D01*
X64173716Y-46344187D01*
X64197749Y-46348967D01*
X64222253Y-46348967D01*
X64246286Y-46344186D01*
X64268923Y-46334810D01*
X64282691Y-46327451D01*
X64289705Y-46325323D01*
X64303140Y-46324000D01*
X64616860Y-46324000D01*
X64630295Y-46325323D01*
X64637309Y-46327451D01*
X64651077Y-46334810D01*
X64673716Y-46344187D01*
X64697749Y-46348967D01*
X64722253Y-46348967D01*
X64746286Y-46344186D01*
X64768923Y-46334810D01*
X64782691Y-46327451D01*
X64789705Y-46325323D01*
X64803140Y-46324000D01*
X65116860Y-46324000D01*
X65130295Y-46325323D01*
X65137309Y-46327451D01*
X65151077Y-46334810D01*
X65173716Y-46344187D01*
X65197749Y-46348967D01*
X65222253Y-46348967D01*
X65246286Y-46344186D01*
X65268923Y-46334810D01*
X65282691Y-46327451D01*
X65289705Y-46325323D01*
X65303140Y-46324000D01*
X65616860Y-46324000D01*
X65630295Y-46325323D01*
X65637309Y-46327451D01*
X65651077Y-46334810D01*
X65673716Y-46344187D01*
X65697749Y-46348967D01*
X65722253Y-46348967D01*
X65746286Y-46344186D01*
X65768923Y-46334810D01*
X65782691Y-46327451D01*
X65789705Y-46325323D01*
X65803140Y-46324000D01*
X66116860Y-46324000D01*
X66130295Y-46325323D01*
X66137309Y-46327451D01*
X66151077Y-46334810D01*
X66173716Y-46344187D01*
X66197749Y-46348967D01*
X66222253Y-46348967D01*
X66246286Y-46344186D01*
X66268923Y-46334810D01*
X66282691Y-46327451D01*
X66289705Y-46325323D01*
X66303140Y-46324000D01*
X66616860Y-46324000D01*
X66630295Y-46325323D01*
X66637310Y-46327451D01*
X66643776Y-46330908D01*
X66649442Y-46335558D01*
X66654092Y-46341224D01*
X66657549Y-46347690D01*
X66659677Y-46354705D01*
X66661000Y-46368140D01*
X66661000Y-47856860D01*
X66659677Y-47870295D01*
X66657549Y-47877310D01*
X66654092Y-47883776D01*
X66649442Y-47889442D01*
X66643776Y-47894092D01*
X66637310Y-47897549D01*
X66630295Y-47899677D01*
X66616860Y-47901000D01*
X66303140Y-47901000D01*
X66289705Y-47899677D01*
X66282691Y-47897549D01*
X66268923Y-47890190D01*
X66246284Y-47880813D01*
X66222251Y-47876033D01*
X66197747Y-47876033D01*
X66173714Y-47880814D01*
X66151077Y-47890190D01*
X66137309Y-47897549D01*
X66130295Y-47899677D01*
X66116860Y-47901000D01*
X65803140Y-47901000D01*
X65789705Y-47899677D01*
X65782691Y-47897549D01*
X65768923Y-47890190D01*
X65746284Y-47880813D01*
X65722251Y-47876033D01*
X65697747Y-47876033D01*
X65673714Y-47880814D01*
X65651077Y-47890190D01*
X65637309Y-47897549D01*
X65630295Y-47899677D01*
X65616860Y-47901000D01*
X65303140Y-47901000D01*
X65289705Y-47899677D01*
X65282691Y-47897549D01*
X65268923Y-47890190D01*
X65246284Y-47880813D01*
X65222251Y-47876033D01*
X65197747Y-47876033D01*
X65173714Y-47880814D01*
X65151077Y-47890190D01*
X65137309Y-47897549D01*
X65130295Y-47899677D01*
X65116860Y-47901000D01*
X64803140Y-47901000D01*
X64789705Y-47899677D01*
X64782691Y-47897549D01*
X64768923Y-47890190D01*
X64746284Y-47880813D01*
X64722251Y-47876033D01*
X64697747Y-47876033D01*
X64673714Y-47880814D01*
X64651077Y-47890190D01*
X64637309Y-47897549D01*
X64630295Y-47899677D01*
X64616860Y-47901000D01*
X64303140Y-47901000D01*
X64289705Y-47899677D01*
X64282691Y-47897549D01*
X64268923Y-47890190D01*
X64246284Y-47880813D01*
X64222251Y-47876033D01*
X64197747Y-47876033D01*
X64173714Y-47880814D01*
X64151077Y-47890190D01*
X64137309Y-47897549D01*
X64130295Y-47899677D01*
X64116860Y-47901000D01*
X63803140Y-47901000D01*
X63789705Y-47899677D01*
X63782691Y-47897549D01*
X63768923Y-47890190D01*
X63746284Y-47880813D01*
X63722251Y-47876033D01*
X63697747Y-47876033D01*
X63673714Y-47880814D01*
X63651077Y-47890190D01*
X63637309Y-47897549D01*
X63630295Y-47899677D01*
X63616860Y-47901000D01*
X63303140Y-47901000D01*
X63289705Y-47899677D01*
X63282691Y-47897549D01*
X63268923Y-47890190D01*
X63246284Y-47880813D01*
X63222251Y-47876033D01*
X63197747Y-47876033D01*
X63173714Y-47880814D01*
X63151077Y-47890190D01*
X63137309Y-47897549D01*
X63130295Y-47899677D01*
X63116860Y-47901000D01*
X62803140Y-47901000D01*
X62789705Y-47899677D01*
X62782691Y-47897549D01*
X62768923Y-47890190D01*
X62746284Y-47880813D01*
X62722251Y-47876033D01*
X62697747Y-47876033D01*
X62673714Y-47880814D01*
X62651077Y-47890190D01*
X62637309Y-47897549D01*
X62630295Y-47899677D01*
X62616860Y-47901000D01*
X62303140Y-47901000D01*
X62289705Y-47899677D01*
X62282691Y-47897549D01*
X62268923Y-47890190D01*
X62246284Y-47880813D01*
X62222251Y-47876033D01*
X62197747Y-47876033D01*
X62173714Y-47880814D01*
X62151077Y-47890190D01*
X62137309Y-47897549D01*
X62130295Y-47899677D01*
X62116860Y-47901000D01*
X61803140Y-47901000D01*
X61789705Y-47899677D01*
X61782691Y-47897549D01*
X61768923Y-47890190D01*
X61746284Y-47880813D01*
X61722251Y-47876033D01*
X61697747Y-47876033D01*
X61673714Y-47880814D01*
X61651077Y-47890190D01*
X61637309Y-47897549D01*
X61630295Y-47899677D01*
X61616860Y-47901000D01*
X61303140Y-47901000D01*
X61289705Y-47899677D01*
X61282691Y-47897549D01*
X61268923Y-47890190D01*
X61246284Y-47880813D01*
X61222251Y-47876033D01*
X61197747Y-47876033D01*
X61173714Y-47880814D01*
X61151077Y-47890190D01*
X61137309Y-47897549D01*
X61130295Y-47899677D01*
X61116860Y-47901000D01*
X60803140Y-47901000D01*
X60789705Y-47899677D01*
X60782690Y-47897549D01*
X60776224Y-47894092D01*
X60770558Y-47889442D01*
X60765908Y-47883776D01*
X60762451Y-47877310D01*
X60760323Y-47870295D01*
X60759000Y-47856860D01*
X60759000Y-46368140D01*
X60760323Y-46354705D01*
X60762451Y-46347690D01*
X60765908Y-46341224D01*
X60770558Y-46335558D01*
X60776224Y-46330908D01*
X60782690Y-46327451D01*
X60789705Y-46325323D01*
X60803140Y-46324000D01*
X61116860Y-46324000D01*
X61130295Y-46325323D01*
G37*
G36*
X75151000Y-47701000D02*
G01*
X74049000Y-47701000D01*
X74049000Y-46699000D01*
X75151000Y-46699000D01*
X75151000Y-47701000D01*
G37*
G36*
X73551000Y-47701000D02*
G01*
X72449000Y-47701000D01*
X72449000Y-46699000D01*
X73551000Y-46699000D01*
X73551000Y-47701000D01*
G37*
G36*
X56864468Y-46493565D02*
G01*
X56903138Y-46505296D01*
X56938777Y-46524346D01*
X56970017Y-46549983D01*
X56995654Y-46581223D01*
X57014704Y-46616862D01*
X57026435Y-46655532D01*
X57031000Y-46701888D01*
X57031000Y-47353112D01*
X57026435Y-47399468D01*
X57014704Y-47438138D01*
X56995654Y-47473777D01*
X56970017Y-47505017D01*
X56938777Y-47530654D01*
X56903138Y-47549704D01*
X56864468Y-47561435D01*
X56818112Y-47566000D01*
X55741888Y-47566000D01*
X55695532Y-47561435D01*
X55656862Y-47549704D01*
X55621223Y-47530654D01*
X55589983Y-47505017D01*
X55564346Y-47473777D01*
X55545296Y-47438138D01*
X55533565Y-47399468D01*
X55529000Y-47353112D01*
X55529000Y-46701888D01*
X55533565Y-46655532D01*
X55545296Y-46616862D01*
X55564346Y-46581223D01*
X55589983Y-46549983D01*
X55621223Y-46524346D01*
X55656862Y-46505296D01*
X55695532Y-46493565D01*
X55741888Y-46489000D01*
X56818112Y-46489000D01*
X56864468Y-46493565D01*
G37*
G36*
X53584468Y-46443565D02*
G01*
X53623138Y-46455296D01*
X53658777Y-46474346D01*
X53690017Y-46499983D01*
X53715654Y-46531223D01*
X53734704Y-46566862D01*
X53746435Y-46605532D01*
X53751000Y-46651888D01*
X53751000Y-47303112D01*
X53746435Y-47349468D01*
X53734704Y-47388138D01*
X53715654Y-47423777D01*
X53690017Y-47455017D01*
X53658777Y-47480654D01*
X53623138Y-47499704D01*
X53584468Y-47511435D01*
X53538112Y-47516000D01*
X52461888Y-47516000D01*
X52415532Y-47511435D01*
X52376862Y-47499704D01*
X52341223Y-47480654D01*
X52309983Y-47455017D01*
X52284346Y-47423777D01*
X52265296Y-47388138D01*
X52253565Y-47349468D01*
X52249000Y-47303112D01*
X52249000Y-46651888D01*
X52253565Y-46605532D01*
X52265296Y-46566862D01*
X52284346Y-46531223D01*
X52309983Y-46499983D01*
X52341223Y-46474346D01*
X52376862Y-46455296D01*
X52415532Y-46443565D01*
X52461888Y-46439000D01*
X53538112Y-46439000D01*
X53584468Y-46443565D01*
G37*
G36*
X41169000Y-47417000D02*
G01*
X39067000Y-47417000D01*
X39067000Y-43515000D01*
X41169000Y-43515000D01*
X41169000Y-47417000D01*
G37*
G36*
X50531000Y-47311000D02*
G01*
X49429000Y-47311000D01*
X49429000Y-46309000D01*
X50531000Y-46309000D01*
X50531000Y-47311000D01*
G37*
G36*
X46431000Y-47311000D02*
G01*
X45329000Y-47311000D01*
X45329000Y-46309000D01*
X46431000Y-46309000D01*
X46431000Y-47311000D01*
G37*
G36*
X31425648Y-45339053D02*
G01*
X31464318Y-45350784D01*
X31499957Y-45369834D01*
X31531197Y-45395471D01*
X31556834Y-45426711D01*
X31575884Y-45462350D01*
X31587615Y-45501020D01*
X31592180Y-45547376D01*
X31592180Y-46198600D01*
X31587615Y-46244956D01*
X31575884Y-46283626D01*
X31556834Y-46319265D01*
X31531197Y-46350505D01*
X31499957Y-46376142D01*
X31464318Y-46395192D01*
X31425648Y-46406923D01*
X31379292Y-46411488D01*
X30303068Y-46411488D01*
X30256712Y-46406923D01*
X30218042Y-46395192D01*
X30182403Y-46376142D01*
X30151163Y-46350505D01*
X30125526Y-46319265D01*
X30106476Y-46283626D01*
X30094745Y-46244956D01*
X30090180Y-46198600D01*
X30090180Y-45547376D01*
X30094745Y-45501020D01*
X30106476Y-45462350D01*
X30125526Y-45426711D01*
X30151163Y-45395471D01*
X30182403Y-45369834D01*
X30218042Y-45350784D01*
X30256712Y-45339053D01*
X30303068Y-45334488D01*
X31379292Y-45334488D01*
X31425648Y-45339053D01*
G37*
G36*
X34869000Y-46267000D02*
G01*
X32767000Y-46267000D01*
X32767000Y-44665000D01*
X34869000Y-44665000D01*
X34869000Y-46267000D01*
G37*
G36*
X43756468Y-45010565D02*
G01*
X43795138Y-45022296D01*
X43830777Y-45041346D01*
X43862017Y-45066983D01*
X43887654Y-45098223D01*
X43906704Y-45133862D01*
X43918435Y-45172532D01*
X43923000Y-45218888D01*
X43923000Y-45870112D01*
X43918435Y-45916468D01*
X43906704Y-45955138D01*
X43887654Y-45990777D01*
X43862017Y-46022017D01*
X43830777Y-46047654D01*
X43795138Y-46066704D01*
X43756468Y-46078435D01*
X43710112Y-46083000D01*
X42633888Y-46083000D01*
X42587532Y-46078435D01*
X42548862Y-46066704D01*
X42513223Y-46047654D01*
X42481983Y-46022017D01*
X42456346Y-45990777D01*
X42437296Y-45955138D01*
X42425565Y-45916468D01*
X42421000Y-45870112D01*
X42421000Y-45218888D01*
X42425565Y-45172532D01*
X42437296Y-45133862D01*
X42456346Y-45098223D01*
X42481983Y-45066983D01*
X42513223Y-45041346D01*
X42548862Y-45022296D01*
X42587532Y-45010565D01*
X42633888Y-45006000D01*
X43710112Y-45006000D01*
X43756468Y-45010565D01*
G37*
G36*
X60305295Y-40000323D02*
G01*
X60312310Y-40002451D01*
X60318776Y-40005908D01*
X60324442Y-40010558D01*
X60329092Y-40016224D01*
X60332549Y-40022690D01*
X60334677Y-40029705D01*
X60336000Y-40043140D01*
X60336000Y-40356860D01*
X60334677Y-40370295D01*
X60332549Y-40377309D01*
X60325190Y-40391077D01*
X60315813Y-40413716D01*
X60311033Y-40437749D01*
X60311033Y-40462253D01*
X60315814Y-40486286D01*
X60325190Y-40508923D01*
X60332549Y-40522691D01*
X60334677Y-40529705D01*
X60336000Y-40543140D01*
X60336000Y-40856860D01*
X60334677Y-40870295D01*
X60332549Y-40877309D01*
X60325190Y-40891077D01*
X60315813Y-40913716D01*
X60311033Y-40937749D01*
X60311033Y-40962253D01*
X60315814Y-40986286D01*
X60325190Y-41008923D01*
X60332549Y-41022691D01*
X60334677Y-41029705D01*
X60336000Y-41043140D01*
X60336000Y-41356860D01*
X60334677Y-41370295D01*
X60332549Y-41377309D01*
X60325190Y-41391077D01*
X60315813Y-41413716D01*
X60311033Y-41437749D01*
X60311033Y-41462253D01*
X60315814Y-41486286D01*
X60325190Y-41508923D01*
X60332549Y-41522691D01*
X60334677Y-41529705D01*
X60336000Y-41543140D01*
X60336000Y-41856860D01*
X60334677Y-41870295D01*
X60332549Y-41877309D01*
X60325190Y-41891077D01*
X60315813Y-41913716D01*
X60311033Y-41937749D01*
X60311033Y-41962253D01*
X60315814Y-41986286D01*
X60325190Y-42008923D01*
X60332549Y-42022691D01*
X60334677Y-42029705D01*
X60336000Y-42043140D01*
X60336000Y-42356860D01*
X60334677Y-42370295D01*
X60332549Y-42377309D01*
X60325190Y-42391077D01*
X60315813Y-42413716D01*
X60311033Y-42437749D01*
X60311033Y-42462253D01*
X60315814Y-42486286D01*
X60325190Y-42508923D01*
X60332549Y-42522691D01*
X60334677Y-42529705D01*
X60336000Y-42543140D01*
X60336000Y-42856860D01*
X60334677Y-42870295D01*
X60332549Y-42877309D01*
X60325190Y-42891077D01*
X60315813Y-42913716D01*
X60311033Y-42937749D01*
X60311033Y-42962253D01*
X60315814Y-42986286D01*
X60325190Y-43008923D01*
X60332549Y-43022691D01*
X60334677Y-43029705D01*
X60336000Y-43043140D01*
X60336000Y-43356860D01*
X60334677Y-43370295D01*
X60332549Y-43377309D01*
X60325190Y-43391077D01*
X60315813Y-43413716D01*
X60311033Y-43437749D01*
X60311033Y-43462253D01*
X60315814Y-43486286D01*
X60325190Y-43508923D01*
X60332549Y-43522691D01*
X60334677Y-43529705D01*
X60336000Y-43543140D01*
X60336000Y-43856860D01*
X60334677Y-43870295D01*
X60332549Y-43877309D01*
X60325190Y-43891077D01*
X60315813Y-43913716D01*
X60311033Y-43937749D01*
X60311033Y-43962253D01*
X60315814Y-43986286D01*
X60325190Y-44008923D01*
X60332549Y-44022691D01*
X60334677Y-44029705D01*
X60336000Y-44043140D01*
X60336000Y-44356860D01*
X60334677Y-44370295D01*
X60332549Y-44377309D01*
X60325190Y-44391077D01*
X60315813Y-44413716D01*
X60311033Y-44437749D01*
X60311033Y-44462253D01*
X60315814Y-44486286D01*
X60325190Y-44508923D01*
X60332549Y-44522691D01*
X60334677Y-44529705D01*
X60336000Y-44543140D01*
X60336000Y-44856860D01*
X60334677Y-44870295D01*
X60332549Y-44877309D01*
X60325190Y-44891077D01*
X60315813Y-44913716D01*
X60311033Y-44937749D01*
X60311033Y-44962253D01*
X60315814Y-44986286D01*
X60325190Y-45008923D01*
X60332549Y-45022691D01*
X60334677Y-45029705D01*
X60336000Y-45043140D01*
X60336000Y-45356860D01*
X60334677Y-45370295D01*
X60332549Y-45377309D01*
X60325190Y-45391077D01*
X60315813Y-45413716D01*
X60311033Y-45437749D01*
X60311033Y-45462253D01*
X60315814Y-45486286D01*
X60325190Y-45508923D01*
X60332549Y-45522691D01*
X60334677Y-45529705D01*
X60336000Y-45543140D01*
X60336000Y-45856860D01*
X60334677Y-45870295D01*
X60332549Y-45877310D01*
X60329092Y-45883776D01*
X60324442Y-45889442D01*
X60318776Y-45894092D01*
X60312310Y-45897549D01*
X60305295Y-45899677D01*
X60291860Y-45901000D01*
X58803140Y-45901000D01*
X58789705Y-45899677D01*
X58782690Y-45897549D01*
X58776224Y-45894092D01*
X58770558Y-45889442D01*
X58765908Y-45883776D01*
X58762451Y-45877310D01*
X58760323Y-45870295D01*
X58759000Y-45856860D01*
X58759000Y-45543140D01*
X58760323Y-45529705D01*
X58762451Y-45522691D01*
X58769810Y-45508923D01*
X58779187Y-45486284D01*
X58783967Y-45462251D01*
X58783967Y-45437747D01*
X58779186Y-45413714D01*
X58769810Y-45391077D01*
X58762451Y-45377309D01*
X58760323Y-45370295D01*
X58759000Y-45356860D01*
X58759000Y-45043140D01*
X58760323Y-45029705D01*
X58762451Y-45022691D01*
X58769810Y-45008923D01*
X58779187Y-44986284D01*
X58783967Y-44962251D01*
X58783967Y-44937747D01*
X58779186Y-44913714D01*
X58769810Y-44891077D01*
X58762451Y-44877309D01*
X58760323Y-44870295D01*
X58759000Y-44856860D01*
X58759000Y-44543140D01*
X58760323Y-44529705D01*
X58762451Y-44522691D01*
X58769810Y-44508923D01*
X58779187Y-44486284D01*
X58783967Y-44462251D01*
X58783967Y-44437747D01*
X58779186Y-44413714D01*
X58769810Y-44391077D01*
X58762451Y-44377309D01*
X58760323Y-44370295D01*
X58759000Y-44356860D01*
X58759000Y-44043140D01*
X58760323Y-44029705D01*
X58762451Y-44022691D01*
X58769810Y-44008923D01*
X58779187Y-43986284D01*
X58783967Y-43962251D01*
X58783967Y-43937747D01*
X58779186Y-43913714D01*
X58769810Y-43891077D01*
X58762451Y-43877309D01*
X58760323Y-43870295D01*
X58759000Y-43856860D01*
X58759000Y-43543140D01*
X58760323Y-43529705D01*
X58762451Y-43522691D01*
X58769810Y-43508923D01*
X58779187Y-43486284D01*
X58783967Y-43462251D01*
X58783967Y-43437747D01*
X58779186Y-43413714D01*
X58769810Y-43391077D01*
X58762451Y-43377309D01*
X58760323Y-43370295D01*
X58759000Y-43356860D01*
X58759000Y-43043140D01*
X58760323Y-43029705D01*
X58762451Y-43022691D01*
X58769810Y-43008923D01*
X58779187Y-42986284D01*
X58783967Y-42962251D01*
X58783967Y-42937747D01*
X58779186Y-42913714D01*
X58769810Y-42891077D01*
X58762451Y-42877309D01*
X58760323Y-42870295D01*
X58759000Y-42856860D01*
X58759000Y-42543140D01*
X58760323Y-42529705D01*
X58762451Y-42522691D01*
X58769810Y-42508923D01*
X58779187Y-42486284D01*
X58783967Y-42462251D01*
X58783967Y-42437747D01*
X58779186Y-42413714D01*
X58769810Y-42391077D01*
X58762451Y-42377309D01*
X58760323Y-42370295D01*
X58759000Y-42356860D01*
X58759000Y-42043140D01*
X58760323Y-42029705D01*
X58762451Y-42022691D01*
X58769810Y-42008923D01*
X58779187Y-41986284D01*
X58783967Y-41962251D01*
X58783967Y-41937747D01*
X58779186Y-41913714D01*
X58769810Y-41891077D01*
X58762451Y-41877309D01*
X58760323Y-41870295D01*
X58759000Y-41856860D01*
X58759000Y-41543140D01*
X58760323Y-41529705D01*
X58762451Y-41522691D01*
X58769810Y-41508923D01*
X58779187Y-41486284D01*
X58783967Y-41462251D01*
X58783967Y-41437747D01*
X58779186Y-41413714D01*
X58769810Y-41391077D01*
X58762451Y-41377309D01*
X58760323Y-41370295D01*
X58759000Y-41356860D01*
X58759000Y-41043140D01*
X58760323Y-41029705D01*
X58762451Y-41022691D01*
X58769810Y-41008923D01*
X58779187Y-40986284D01*
X58783967Y-40962251D01*
X58783967Y-40937747D01*
X58779186Y-40913714D01*
X58769810Y-40891077D01*
X58762451Y-40877309D01*
X58760323Y-40870295D01*
X58759000Y-40856860D01*
X58759000Y-40543140D01*
X58760323Y-40529705D01*
X58762451Y-40522691D01*
X58769810Y-40508923D01*
X58779187Y-40486284D01*
X58783967Y-40462251D01*
X58783967Y-40437747D01*
X58779186Y-40413714D01*
X58769810Y-40391077D01*
X58762451Y-40377309D01*
X58760323Y-40370295D01*
X58759000Y-40356860D01*
X58759000Y-40043140D01*
X58760323Y-40029705D01*
X58762451Y-40022690D01*
X58765908Y-40016224D01*
X58770558Y-40010558D01*
X58776224Y-40005908D01*
X58782690Y-40002451D01*
X58789705Y-40000323D01*
X58803140Y-39999000D01*
X60291860Y-39999000D01*
X60305295Y-40000323D01*
G37*
G36*
X68630295Y-40000323D02*
G01*
X68637310Y-40002451D01*
X68643776Y-40005908D01*
X68649442Y-40010558D01*
X68654092Y-40016224D01*
X68657549Y-40022690D01*
X68659677Y-40029705D01*
X68661000Y-40043140D01*
X68661000Y-40356860D01*
X68659677Y-40370295D01*
X68657549Y-40377309D01*
X68650190Y-40391077D01*
X68640813Y-40413716D01*
X68636033Y-40437749D01*
X68636033Y-40462253D01*
X68640814Y-40486286D01*
X68650190Y-40508923D01*
X68657549Y-40522691D01*
X68659677Y-40529705D01*
X68661000Y-40543140D01*
X68661000Y-40856860D01*
X68659677Y-40870295D01*
X68657549Y-40877309D01*
X68650190Y-40891077D01*
X68640813Y-40913716D01*
X68636033Y-40937749D01*
X68636033Y-40962253D01*
X68640814Y-40986286D01*
X68650190Y-41008923D01*
X68657549Y-41022691D01*
X68659677Y-41029705D01*
X68661000Y-41043140D01*
X68661000Y-41356860D01*
X68659677Y-41370295D01*
X68657549Y-41377309D01*
X68650190Y-41391077D01*
X68640813Y-41413716D01*
X68636033Y-41437749D01*
X68636033Y-41462253D01*
X68640814Y-41486286D01*
X68650190Y-41508923D01*
X68657549Y-41522691D01*
X68659677Y-41529705D01*
X68661000Y-41543140D01*
X68661000Y-41856860D01*
X68659677Y-41870295D01*
X68657549Y-41877309D01*
X68650190Y-41891077D01*
X68640813Y-41913716D01*
X68636033Y-41937749D01*
X68636033Y-41962253D01*
X68640814Y-41986286D01*
X68650190Y-42008923D01*
X68657549Y-42022691D01*
X68659677Y-42029705D01*
X68661000Y-42043140D01*
X68661000Y-42356860D01*
X68659677Y-42370295D01*
X68657549Y-42377309D01*
X68650190Y-42391077D01*
X68640813Y-42413716D01*
X68636033Y-42437749D01*
X68636033Y-42462253D01*
X68640814Y-42486286D01*
X68650190Y-42508923D01*
X68657549Y-42522691D01*
X68659677Y-42529705D01*
X68661000Y-42543140D01*
X68661000Y-42856860D01*
X68659677Y-42870295D01*
X68657549Y-42877309D01*
X68650190Y-42891077D01*
X68640813Y-42913716D01*
X68636033Y-42937749D01*
X68636033Y-42962253D01*
X68640814Y-42986286D01*
X68650190Y-43008923D01*
X68657549Y-43022691D01*
X68659677Y-43029705D01*
X68661000Y-43043140D01*
X68661000Y-43356860D01*
X68659677Y-43370295D01*
X68657549Y-43377309D01*
X68650190Y-43391077D01*
X68640813Y-43413716D01*
X68636033Y-43437749D01*
X68636033Y-43462253D01*
X68640814Y-43486286D01*
X68650190Y-43508923D01*
X68657549Y-43522691D01*
X68659677Y-43529705D01*
X68661000Y-43543140D01*
X68661000Y-43856860D01*
X68659677Y-43870295D01*
X68657549Y-43877309D01*
X68650190Y-43891077D01*
X68640813Y-43913716D01*
X68636033Y-43937749D01*
X68636033Y-43962253D01*
X68640814Y-43986286D01*
X68650190Y-44008923D01*
X68657549Y-44022691D01*
X68659677Y-44029705D01*
X68661000Y-44043140D01*
X68661000Y-44356860D01*
X68659677Y-44370295D01*
X68657549Y-44377309D01*
X68650190Y-44391077D01*
X68640813Y-44413716D01*
X68636033Y-44437749D01*
X68636033Y-44462253D01*
X68640814Y-44486286D01*
X68650190Y-44508923D01*
X68657549Y-44522691D01*
X68659677Y-44529705D01*
X68661000Y-44543140D01*
X68661000Y-44856860D01*
X68659677Y-44870295D01*
X68657549Y-44877309D01*
X68650190Y-44891077D01*
X68640813Y-44913716D01*
X68636033Y-44937749D01*
X68636033Y-44962253D01*
X68640814Y-44986286D01*
X68650190Y-45008923D01*
X68657549Y-45022691D01*
X68659677Y-45029705D01*
X68661000Y-45043140D01*
X68661000Y-45356860D01*
X68659677Y-45370295D01*
X68657549Y-45377309D01*
X68650190Y-45391077D01*
X68640813Y-45413716D01*
X68636033Y-45437749D01*
X68636033Y-45462253D01*
X68640814Y-45486286D01*
X68650190Y-45508923D01*
X68657549Y-45522691D01*
X68659677Y-45529705D01*
X68661000Y-45543140D01*
X68661000Y-45856860D01*
X68659677Y-45870295D01*
X68657549Y-45877310D01*
X68654092Y-45883776D01*
X68649442Y-45889442D01*
X68643776Y-45894092D01*
X68637310Y-45897549D01*
X68630295Y-45899677D01*
X68616860Y-45901000D01*
X67128140Y-45901000D01*
X67114705Y-45899677D01*
X67107690Y-45897549D01*
X67101224Y-45894092D01*
X67095558Y-45889442D01*
X67090908Y-45883776D01*
X67087451Y-45877310D01*
X67085323Y-45870295D01*
X67084000Y-45856860D01*
X67084000Y-45543140D01*
X67085323Y-45529705D01*
X67087451Y-45522691D01*
X67094810Y-45508923D01*
X67104187Y-45486284D01*
X67108967Y-45462251D01*
X67108967Y-45437747D01*
X67104186Y-45413714D01*
X67094810Y-45391077D01*
X67087451Y-45377309D01*
X67085323Y-45370295D01*
X67084000Y-45356860D01*
X67084000Y-45043140D01*
X67085323Y-45029705D01*
X67087451Y-45022691D01*
X67094810Y-45008923D01*
X67104187Y-44986284D01*
X67108967Y-44962251D01*
X67108967Y-44937747D01*
X67104186Y-44913714D01*
X67094810Y-44891077D01*
X67087451Y-44877309D01*
X67085323Y-44870295D01*
X67084000Y-44856860D01*
X67084000Y-44543140D01*
X67085323Y-44529705D01*
X67087451Y-44522691D01*
X67094810Y-44508923D01*
X67104187Y-44486284D01*
X67108967Y-44462251D01*
X67108967Y-44437747D01*
X67104186Y-44413714D01*
X67094810Y-44391077D01*
X67087451Y-44377309D01*
X67085323Y-44370295D01*
X67084000Y-44356860D01*
X67084000Y-44043140D01*
X67085323Y-44029705D01*
X67087451Y-44022691D01*
X67094810Y-44008923D01*
X67104187Y-43986284D01*
X67108967Y-43962251D01*
X67108967Y-43937747D01*
X67104186Y-43913714D01*
X67094810Y-43891077D01*
X67087451Y-43877309D01*
X67085323Y-43870295D01*
X67084000Y-43856860D01*
X67084000Y-43543140D01*
X67085323Y-43529705D01*
X67087451Y-43522691D01*
X67094810Y-43508923D01*
X67104187Y-43486284D01*
X67108967Y-43462251D01*
X67108967Y-43437747D01*
X67104186Y-43413714D01*
X67094810Y-43391077D01*
X67087451Y-43377309D01*
X67085323Y-43370295D01*
X67084000Y-43356860D01*
X67084000Y-43043140D01*
X67085323Y-43029705D01*
X67087451Y-43022691D01*
X67094810Y-43008923D01*
X67104187Y-42986284D01*
X67108967Y-42962251D01*
X67108967Y-42937747D01*
X67104186Y-42913714D01*
X67094810Y-42891077D01*
X67087451Y-42877309D01*
X67085323Y-42870295D01*
X67084000Y-42856860D01*
X67084000Y-42543140D01*
X67085323Y-42529705D01*
X67087451Y-42522691D01*
X67094810Y-42508923D01*
X67104187Y-42486284D01*
X67108967Y-42462251D01*
X67108967Y-42437747D01*
X67104186Y-42413714D01*
X67094810Y-42391077D01*
X67087451Y-42377309D01*
X67085323Y-42370295D01*
X67084000Y-42356860D01*
X67084000Y-42043140D01*
X67085323Y-42029705D01*
X67087451Y-42022691D01*
X67094810Y-42008923D01*
X67104187Y-41986284D01*
X67108967Y-41962251D01*
X67108967Y-41937747D01*
X67104186Y-41913714D01*
X67094810Y-41891077D01*
X67087451Y-41877309D01*
X67085323Y-41870295D01*
X67084000Y-41856860D01*
X67084000Y-41543140D01*
X67085323Y-41529705D01*
X67087451Y-41522691D01*
X67094810Y-41508923D01*
X67104187Y-41486284D01*
X67108967Y-41462251D01*
X67108967Y-41437747D01*
X67104186Y-41413714D01*
X67094810Y-41391077D01*
X67087451Y-41377309D01*
X67085323Y-41370295D01*
X67084000Y-41356860D01*
X67084000Y-41043140D01*
X67085323Y-41029705D01*
X67087451Y-41022691D01*
X67094810Y-41008923D01*
X67104187Y-40986284D01*
X67108967Y-40962251D01*
X67108967Y-40937747D01*
X67104186Y-40913714D01*
X67094810Y-40891077D01*
X67087451Y-40877309D01*
X67085323Y-40870295D01*
X67084000Y-40856860D01*
X67084000Y-40543140D01*
X67085323Y-40529705D01*
X67087451Y-40522691D01*
X67094810Y-40508923D01*
X67104187Y-40486284D01*
X67108967Y-40462251D01*
X67108967Y-40437747D01*
X67104186Y-40413714D01*
X67094810Y-40391077D01*
X67087451Y-40377309D01*
X67085323Y-40370295D01*
X67084000Y-40356860D01*
X67084000Y-40043140D01*
X67085323Y-40029705D01*
X67087451Y-40022690D01*
X67090908Y-40016224D01*
X67095558Y-40010558D01*
X67101224Y-40005908D01*
X67107690Y-40002451D01*
X67114705Y-40000323D01*
X67128140Y-39999000D01*
X68616860Y-39999000D01*
X68630295Y-40000323D01*
G37*
G36*
X50531000Y-45711000D02*
G01*
X49429000Y-45711000D01*
X49429000Y-44709000D01*
X50531000Y-44709000D01*
X50531000Y-45711000D01*
G37*
G36*
X46431000Y-45711000D02*
G01*
X45329000Y-45711000D01*
X45329000Y-44709000D01*
X46431000Y-44709000D01*
X46431000Y-45711000D01*
G37*
G36*
X56864468Y-44618565D02*
G01*
X56903138Y-44630296D01*
X56938777Y-44649346D01*
X56970017Y-44674983D01*
X56995654Y-44706223D01*
X57014704Y-44741862D01*
X57026435Y-44780532D01*
X57031000Y-44826888D01*
X57031000Y-45478112D01*
X57026435Y-45524468D01*
X57014704Y-45563138D01*
X56995654Y-45598777D01*
X56970017Y-45630017D01*
X56938777Y-45655654D01*
X56903138Y-45674704D01*
X56864468Y-45686435D01*
X56818112Y-45691000D01*
X55741888Y-45691000D01*
X55695532Y-45686435D01*
X55656862Y-45674704D01*
X55621223Y-45655654D01*
X55589983Y-45630017D01*
X55564346Y-45598777D01*
X55545296Y-45563138D01*
X55533565Y-45524468D01*
X55529000Y-45478112D01*
X55529000Y-44826888D01*
X55533565Y-44780532D01*
X55545296Y-44741862D01*
X55564346Y-44706223D01*
X55589983Y-44674983D01*
X55621223Y-44649346D01*
X55656862Y-44630296D01*
X55695532Y-44618565D01*
X55741888Y-44614000D01*
X56818112Y-44614000D01*
X56864468Y-44618565D01*
G37*
G36*
X53584468Y-44568565D02*
G01*
X53623138Y-44580296D01*
X53658777Y-44599346D01*
X53690017Y-44624983D01*
X53715654Y-44656223D01*
X53734704Y-44691862D01*
X53746435Y-44730532D01*
X53751000Y-44776888D01*
X53751000Y-45428112D01*
X53746435Y-45474468D01*
X53734704Y-45513138D01*
X53715654Y-45548777D01*
X53690017Y-45580017D01*
X53658777Y-45605654D01*
X53623138Y-45624704D01*
X53584468Y-45636435D01*
X53538112Y-45641000D01*
X52461888Y-45641000D01*
X52415532Y-45636435D01*
X52376862Y-45624704D01*
X52341223Y-45605654D01*
X52309983Y-45580017D01*
X52284346Y-45548777D01*
X52265296Y-45513138D01*
X52253565Y-45474468D01*
X52249000Y-45428112D01*
X52249000Y-44776888D01*
X52253565Y-44730532D01*
X52265296Y-44691862D01*
X52284346Y-44656223D01*
X52309983Y-44624983D01*
X52341223Y-44599346D01*
X52376862Y-44580296D01*
X52415532Y-44568565D01*
X52461888Y-44564000D01*
X53538112Y-44564000D01*
X53584468Y-44568565D01*
G37*
G36*
X83517740Y-44308627D02*
G01*
X83566136Y-44318253D01*
X83603902Y-44333896D01*
X83657311Y-44356019D01*
X83680576Y-44371564D01*
X83739369Y-44410848D01*
X83809152Y-44480631D01*
X83822716Y-44500931D01*
X83863981Y-44562689D01*
X83866667Y-44569174D01*
X83901747Y-44653864D01*
X83903962Y-44665000D01*
X83921000Y-44750655D01*
X83921000Y-44849345D01*
X83901747Y-44946135D01*
X83863981Y-45037311D01*
X83863980Y-45037312D01*
X83809152Y-45119369D01*
X83739369Y-45189152D01*
X83698062Y-45216752D01*
X83657311Y-45243981D01*
X83603902Y-45266104D01*
X83566136Y-45281747D01*
X83517740Y-45291373D01*
X83469345Y-45301000D01*
X83370655Y-45301000D01*
X83322260Y-45291373D01*
X83273864Y-45281747D01*
X83236098Y-45266104D01*
X83182689Y-45243981D01*
X83141938Y-45216752D01*
X83100631Y-45189152D01*
X83030848Y-45119369D01*
X82976020Y-45037312D01*
X82976019Y-45037311D01*
X82938253Y-44946135D01*
X82919000Y-44849345D01*
X82919000Y-44750655D01*
X82936038Y-44665000D01*
X82938253Y-44653864D01*
X82973333Y-44569174D01*
X82976019Y-44562689D01*
X83017284Y-44500931D01*
X83030848Y-44480631D01*
X83100631Y-44410848D01*
X83159424Y-44371564D01*
X83182689Y-44356019D01*
X83236098Y-44333896D01*
X83273864Y-44318253D01*
X83322260Y-44308627D01*
X83370655Y-44299000D01*
X83469345Y-44299000D01*
X83517740Y-44308627D01*
G37*
G36*
X34869000Y-43967000D02*
G01*
X32767000Y-43967000D01*
X32767000Y-42365000D01*
X34869000Y-42365000D01*
X34869000Y-43967000D01*
G37*
G36*
X54845000Y-43287000D02*
G01*
X52343000Y-43287000D01*
X52343000Y-41185000D01*
X54845000Y-41185000D01*
X54845000Y-43287000D01*
G37*
G36*
X50839468Y-41163565D02*
G01*
X50878138Y-41175296D01*
X50913777Y-41194346D01*
X50945017Y-41219983D01*
X50970654Y-41251223D01*
X50989704Y-41286862D01*
X51001435Y-41325532D01*
X51006000Y-41371888D01*
X51006000Y-42448112D01*
X51001435Y-42494468D01*
X50989704Y-42533138D01*
X50970654Y-42568777D01*
X50945017Y-42600017D01*
X50913777Y-42625654D01*
X50878138Y-42644704D01*
X50839468Y-42656435D01*
X50793112Y-42661000D01*
X50141888Y-42661000D01*
X50095532Y-42656435D01*
X50056862Y-42644704D01*
X50021223Y-42625654D01*
X49989983Y-42600017D01*
X49964346Y-42568777D01*
X49945296Y-42533138D01*
X49933565Y-42494468D01*
X49929000Y-42448112D01*
X49929000Y-41371888D01*
X49933565Y-41325532D01*
X49945296Y-41286862D01*
X49964346Y-41251223D01*
X49989983Y-41219983D01*
X50021223Y-41194346D01*
X50056862Y-41175296D01*
X50095532Y-41163565D01*
X50141888Y-41159000D01*
X50793112Y-41159000D01*
X50839468Y-41163565D01*
G37*
G36*
X48964468Y-41163565D02*
G01*
X49003138Y-41175296D01*
X49038777Y-41194346D01*
X49070017Y-41219983D01*
X49095654Y-41251223D01*
X49114704Y-41286862D01*
X49126435Y-41325532D01*
X49131000Y-41371888D01*
X49131000Y-42448112D01*
X49126435Y-42494468D01*
X49114704Y-42533138D01*
X49095654Y-42568777D01*
X49070017Y-42600017D01*
X49038777Y-42625654D01*
X49003138Y-42644704D01*
X48964468Y-42656435D01*
X48918112Y-42661000D01*
X48266888Y-42661000D01*
X48220532Y-42656435D01*
X48181862Y-42644704D01*
X48146223Y-42625654D01*
X48114983Y-42600017D01*
X48089346Y-42568777D01*
X48070296Y-42533138D01*
X48058565Y-42494468D01*
X48054000Y-42448112D01*
X48054000Y-41371888D01*
X48058565Y-41325532D01*
X48070296Y-41286862D01*
X48089346Y-41251223D01*
X48114983Y-41219983D01*
X48146223Y-41194346D01*
X48181862Y-41175296D01*
X48220532Y-41163565D01*
X48266888Y-41159000D01*
X48918112Y-41159000D01*
X48964468Y-41163565D01*
G37*
G36*
X46345968Y-41163565D02*
G01*
X46384638Y-41175296D01*
X46420277Y-41194346D01*
X46451517Y-41219983D01*
X46477154Y-41251223D01*
X46496204Y-41286862D01*
X46507935Y-41325532D01*
X46512500Y-41371888D01*
X46512500Y-42448112D01*
X46507935Y-42494468D01*
X46496204Y-42533138D01*
X46477154Y-42568777D01*
X46451517Y-42600017D01*
X46420277Y-42625654D01*
X46384638Y-42644704D01*
X46345968Y-42656435D01*
X46299612Y-42661000D01*
X45648388Y-42661000D01*
X45602032Y-42656435D01*
X45563362Y-42644704D01*
X45527723Y-42625654D01*
X45496483Y-42600017D01*
X45470846Y-42568777D01*
X45451796Y-42533138D01*
X45440065Y-42494468D01*
X45435500Y-42448112D01*
X45435500Y-41371888D01*
X45440065Y-41325532D01*
X45451796Y-41286862D01*
X45470846Y-41251223D01*
X45496483Y-41219983D01*
X45527723Y-41194346D01*
X45563362Y-41175296D01*
X45602032Y-41163565D01*
X45648388Y-41159000D01*
X46299612Y-41159000D01*
X46345968Y-41163565D01*
G37*
G36*
X44470968Y-41163565D02*
G01*
X44509638Y-41175296D01*
X44545277Y-41194346D01*
X44576517Y-41219983D01*
X44602154Y-41251223D01*
X44621204Y-41286862D01*
X44632935Y-41325532D01*
X44637500Y-41371888D01*
X44637500Y-42448112D01*
X44632935Y-42494468D01*
X44621204Y-42533138D01*
X44602154Y-42568777D01*
X44576517Y-42600017D01*
X44545277Y-42625654D01*
X44509638Y-42644704D01*
X44470968Y-42656435D01*
X44424612Y-42661000D01*
X43773388Y-42661000D01*
X43727032Y-42656435D01*
X43688362Y-42644704D01*
X43652723Y-42625654D01*
X43621483Y-42600017D01*
X43595846Y-42568777D01*
X43576796Y-42533138D01*
X43565065Y-42494468D01*
X43560500Y-42448112D01*
X43560500Y-41371888D01*
X43565065Y-41325532D01*
X43576796Y-41286862D01*
X43595846Y-41251223D01*
X43621483Y-41219983D01*
X43652723Y-41194346D01*
X43688362Y-41175296D01*
X43727032Y-41163565D01*
X43773388Y-41159000D01*
X44424612Y-41159000D01*
X44470968Y-41163565D01*
G37*
G36*
X70934468Y-40353565D02*
G01*
X70973138Y-40365296D01*
X71008777Y-40384346D01*
X71040017Y-40409983D01*
X71065654Y-40441223D01*
X71084704Y-40476862D01*
X71096435Y-40515532D01*
X71101000Y-40561888D01*
X71101000Y-41638112D01*
X71096435Y-41684468D01*
X71084704Y-41723138D01*
X71065654Y-41758777D01*
X71040017Y-41790017D01*
X71008777Y-41815654D01*
X70973138Y-41834704D01*
X70934468Y-41846435D01*
X70888112Y-41851000D01*
X70236888Y-41851000D01*
X70190532Y-41846435D01*
X70151862Y-41834704D01*
X70116223Y-41815654D01*
X70084983Y-41790017D01*
X70059346Y-41758777D01*
X70040296Y-41723138D01*
X70028565Y-41684468D01*
X70024000Y-41638112D01*
X70024000Y-40561888D01*
X70028565Y-40515532D01*
X70040296Y-40476862D01*
X70059346Y-40441223D01*
X70084983Y-40409983D01*
X70116223Y-40384346D01*
X70151862Y-40365296D01*
X70190532Y-40353565D01*
X70236888Y-40349000D01*
X70888112Y-40349000D01*
X70934468Y-40353565D01*
G37*
G36*
X72809468Y-40353565D02*
G01*
X72848138Y-40365296D01*
X72883777Y-40384346D01*
X72915017Y-40409983D01*
X72940654Y-40441223D01*
X72959704Y-40476862D01*
X72971435Y-40515532D01*
X72976000Y-40561888D01*
X72976000Y-41638112D01*
X72971435Y-41684468D01*
X72959704Y-41723138D01*
X72940654Y-41758777D01*
X72915017Y-41790017D01*
X72883777Y-41815654D01*
X72848138Y-41834704D01*
X72809468Y-41846435D01*
X72763112Y-41851000D01*
X72111888Y-41851000D01*
X72065532Y-41846435D01*
X72026862Y-41834704D01*
X71991223Y-41815654D01*
X71959983Y-41790017D01*
X71934346Y-41758777D01*
X71915296Y-41723138D01*
X71903565Y-41684468D01*
X71899000Y-41638112D01*
X71899000Y-40561888D01*
X71903565Y-40515532D01*
X71915296Y-40476862D01*
X71934346Y-40441223D01*
X71959983Y-40409983D01*
X71991223Y-40384346D01*
X72026862Y-40365296D01*
X72065532Y-40353565D01*
X72111888Y-40349000D01*
X72763112Y-40349000D01*
X72809468Y-40353565D01*
G37*
G36*
X83517740Y-39908627D02*
G01*
X83566136Y-39918253D01*
X83603902Y-39933896D01*
X83657311Y-39956019D01*
X83657312Y-39956020D01*
X83739369Y-40010848D01*
X83809152Y-40080631D01*
X83809153Y-40080633D01*
X83863981Y-40162689D01*
X83901747Y-40253865D01*
X83914924Y-40320107D01*
X83921000Y-40350656D01*
X83921000Y-40449344D01*
X83902239Y-40543665D01*
X83901747Y-40546135D01*
X83863981Y-40637311D01*
X83863980Y-40637312D01*
X83809152Y-40719369D01*
X83739369Y-40789152D01*
X83722385Y-40800500D01*
X83657311Y-40843981D01*
X83603902Y-40866104D01*
X83566136Y-40881747D01*
X83519231Y-40891077D01*
X83469345Y-40901000D01*
X83370655Y-40901000D01*
X83320769Y-40891077D01*
X83273864Y-40881747D01*
X83236098Y-40866104D01*
X83182689Y-40843981D01*
X83117615Y-40800500D01*
X83100631Y-40789152D01*
X83030848Y-40719369D01*
X82976020Y-40637312D01*
X82976019Y-40637311D01*
X82938253Y-40546135D01*
X82937762Y-40543665D01*
X82919000Y-40449344D01*
X82919000Y-40350656D01*
X82925077Y-40320107D01*
X82938253Y-40253865D01*
X82976019Y-40162689D01*
X83030847Y-40080633D01*
X83030848Y-40080631D01*
X83100631Y-40010848D01*
X83182688Y-39956020D01*
X83182689Y-39956019D01*
X83236098Y-39933896D01*
X83273864Y-39918253D01*
X83322260Y-39908627D01*
X83370655Y-39899000D01*
X83469345Y-39899000D01*
X83517740Y-39908627D01*
G37*
G36*
X72799468Y-38153565D02*
G01*
X72838138Y-38165296D01*
X72873777Y-38184346D01*
X72905017Y-38209983D01*
X72930654Y-38241223D01*
X72949704Y-38276862D01*
X72961435Y-38315532D01*
X72966000Y-38361888D01*
X72966000Y-39438112D01*
X72961435Y-39484468D01*
X72949704Y-39523138D01*
X72930654Y-39558777D01*
X72905017Y-39590017D01*
X72873777Y-39615654D01*
X72838138Y-39634704D01*
X72799468Y-39646435D01*
X72753112Y-39651000D01*
X72101888Y-39651000D01*
X72055532Y-39646435D01*
X72016862Y-39634704D01*
X71981223Y-39615654D01*
X71949983Y-39590017D01*
X71924346Y-39558777D01*
X71905296Y-39523138D01*
X71893565Y-39484468D01*
X71889000Y-39438112D01*
X71889000Y-38361888D01*
X71893565Y-38315532D01*
X71905296Y-38276862D01*
X71924346Y-38241223D01*
X71949983Y-38209983D01*
X71981223Y-38184346D01*
X72016862Y-38165296D01*
X72055532Y-38153565D01*
X72101888Y-38149000D01*
X72753112Y-38149000D01*
X72799468Y-38153565D01*
G37*
G36*
X70924468Y-38153565D02*
G01*
X70963138Y-38165296D01*
X70998777Y-38184346D01*
X71030017Y-38209983D01*
X71055654Y-38241223D01*
X71074704Y-38276862D01*
X71086435Y-38315532D01*
X71091000Y-38361888D01*
X71091000Y-39438112D01*
X71086435Y-39484468D01*
X71074704Y-39523138D01*
X71055654Y-39558777D01*
X71030017Y-39590017D01*
X70998777Y-39615654D01*
X70963138Y-39634704D01*
X70924468Y-39646435D01*
X70878112Y-39651000D01*
X70226888Y-39651000D01*
X70180532Y-39646435D01*
X70141862Y-39634704D01*
X70106223Y-39615654D01*
X70074983Y-39590017D01*
X70049346Y-39558777D01*
X70030296Y-39523138D01*
X70018565Y-39484468D01*
X70014000Y-39438112D01*
X70014000Y-38361888D01*
X70018565Y-38315532D01*
X70030296Y-38276862D01*
X70049346Y-38241223D01*
X70074983Y-38209983D01*
X70106223Y-38184346D01*
X70141862Y-38165296D01*
X70180532Y-38153565D01*
X70226888Y-38149000D01*
X70878112Y-38149000D01*
X70924468Y-38153565D01*
G37*
G36*
X54845000Y-39587000D02*
G01*
X52343000Y-39587000D01*
X52343000Y-37485000D01*
X54845000Y-37485000D01*
X54845000Y-39587000D01*
G37*
G36*
X61130295Y-38000323D02*
G01*
X61137309Y-38002451D01*
X61151077Y-38009810D01*
X61173716Y-38019187D01*
X61197749Y-38023967D01*
X61222253Y-38023967D01*
X61246286Y-38019186D01*
X61268923Y-38009810D01*
X61282691Y-38002451D01*
X61289705Y-38000323D01*
X61303140Y-37999000D01*
X61616860Y-37999000D01*
X61630295Y-38000323D01*
X61637309Y-38002451D01*
X61651077Y-38009810D01*
X61673716Y-38019187D01*
X61697749Y-38023967D01*
X61722253Y-38023967D01*
X61746286Y-38019186D01*
X61768923Y-38009810D01*
X61782691Y-38002451D01*
X61789705Y-38000323D01*
X61803140Y-37999000D01*
X62116860Y-37999000D01*
X62130295Y-38000323D01*
X62137309Y-38002451D01*
X62151077Y-38009810D01*
X62173716Y-38019187D01*
X62197749Y-38023967D01*
X62222253Y-38023967D01*
X62246286Y-38019186D01*
X62268923Y-38009810D01*
X62282691Y-38002451D01*
X62289705Y-38000323D01*
X62303140Y-37999000D01*
X62616860Y-37999000D01*
X62630295Y-38000323D01*
X62637309Y-38002451D01*
X62651077Y-38009810D01*
X62673716Y-38019187D01*
X62697749Y-38023967D01*
X62722253Y-38023967D01*
X62746286Y-38019186D01*
X62768923Y-38009810D01*
X62782691Y-38002451D01*
X62789705Y-38000323D01*
X62803140Y-37999000D01*
X63116860Y-37999000D01*
X63130295Y-38000323D01*
X63137309Y-38002451D01*
X63151077Y-38009810D01*
X63173716Y-38019187D01*
X63197749Y-38023967D01*
X63222253Y-38023967D01*
X63246286Y-38019186D01*
X63268923Y-38009810D01*
X63282691Y-38002451D01*
X63289705Y-38000323D01*
X63303140Y-37999000D01*
X63616860Y-37999000D01*
X63630295Y-38000323D01*
X63637309Y-38002451D01*
X63651077Y-38009810D01*
X63673716Y-38019187D01*
X63697749Y-38023967D01*
X63722253Y-38023967D01*
X63746286Y-38019186D01*
X63768923Y-38009810D01*
X63782691Y-38002451D01*
X63789705Y-38000323D01*
X63803140Y-37999000D01*
X64116860Y-37999000D01*
X64130295Y-38000323D01*
X64137309Y-38002451D01*
X64151077Y-38009810D01*
X64173716Y-38019187D01*
X64197749Y-38023967D01*
X64222253Y-38023967D01*
X64246286Y-38019186D01*
X64268923Y-38009810D01*
X64282691Y-38002451D01*
X64289705Y-38000323D01*
X64303140Y-37999000D01*
X64616860Y-37999000D01*
X64630295Y-38000323D01*
X64637309Y-38002451D01*
X64651077Y-38009810D01*
X64673716Y-38019187D01*
X64697749Y-38023967D01*
X64722253Y-38023967D01*
X64746286Y-38019186D01*
X64768923Y-38009810D01*
X64782691Y-38002451D01*
X64789705Y-38000323D01*
X64803140Y-37999000D01*
X65116860Y-37999000D01*
X65130295Y-38000323D01*
X65137309Y-38002451D01*
X65151077Y-38009810D01*
X65173716Y-38019187D01*
X65197749Y-38023967D01*
X65222253Y-38023967D01*
X65246286Y-38019186D01*
X65268923Y-38009810D01*
X65282691Y-38002451D01*
X65289705Y-38000323D01*
X65303140Y-37999000D01*
X65616860Y-37999000D01*
X65630295Y-38000323D01*
X65637309Y-38002451D01*
X65651077Y-38009810D01*
X65673716Y-38019187D01*
X65697749Y-38023967D01*
X65722253Y-38023967D01*
X65746286Y-38019186D01*
X65768923Y-38009810D01*
X65782691Y-38002451D01*
X65789705Y-38000323D01*
X65803140Y-37999000D01*
X66116860Y-37999000D01*
X66130295Y-38000323D01*
X66137309Y-38002451D01*
X66151077Y-38009810D01*
X66173716Y-38019187D01*
X66197749Y-38023967D01*
X66222253Y-38023967D01*
X66246286Y-38019186D01*
X66268923Y-38009810D01*
X66282691Y-38002451D01*
X66289705Y-38000323D01*
X66303140Y-37999000D01*
X66616860Y-37999000D01*
X66630295Y-38000323D01*
X66637310Y-38002451D01*
X66643776Y-38005908D01*
X66649442Y-38010558D01*
X66654092Y-38016224D01*
X66657549Y-38022690D01*
X66659677Y-38029705D01*
X66661000Y-38043140D01*
X66661000Y-39531860D01*
X66659677Y-39545295D01*
X66657549Y-39552310D01*
X66654092Y-39558776D01*
X66649442Y-39564442D01*
X66643776Y-39569092D01*
X66637310Y-39572549D01*
X66630295Y-39574677D01*
X66616860Y-39576000D01*
X66303140Y-39576000D01*
X66289705Y-39574677D01*
X66282691Y-39572549D01*
X66268923Y-39565190D01*
X66246284Y-39555813D01*
X66222251Y-39551033D01*
X66197747Y-39551033D01*
X66173714Y-39555814D01*
X66151077Y-39565190D01*
X66137309Y-39572549D01*
X66130295Y-39574677D01*
X66116860Y-39576000D01*
X65803140Y-39576000D01*
X65789705Y-39574677D01*
X65782691Y-39572549D01*
X65768923Y-39565190D01*
X65746284Y-39555813D01*
X65722251Y-39551033D01*
X65697747Y-39551033D01*
X65673714Y-39555814D01*
X65651077Y-39565190D01*
X65637309Y-39572549D01*
X65630295Y-39574677D01*
X65616860Y-39576000D01*
X65303140Y-39576000D01*
X65289705Y-39574677D01*
X65282691Y-39572549D01*
X65268923Y-39565190D01*
X65246284Y-39555813D01*
X65222251Y-39551033D01*
X65197747Y-39551033D01*
X65173714Y-39555814D01*
X65151077Y-39565190D01*
X65137309Y-39572549D01*
X65130295Y-39574677D01*
X65116860Y-39576000D01*
X64803140Y-39576000D01*
X64789705Y-39574677D01*
X64782691Y-39572549D01*
X64768923Y-39565190D01*
X64746284Y-39555813D01*
X64722251Y-39551033D01*
X64697747Y-39551033D01*
X64673714Y-39555814D01*
X64651077Y-39565190D01*
X64637309Y-39572549D01*
X64630295Y-39574677D01*
X64616860Y-39576000D01*
X64303140Y-39576000D01*
X64289705Y-39574677D01*
X64282691Y-39572549D01*
X64268923Y-39565190D01*
X64246284Y-39555813D01*
X64222251Y-39551033D01*
X64197747Y-39551033D01*
X64173714Y-39555814D01*
X64151077Y-39565190D01*
X64137309Y-39572549D01*
X64130295Y-39574677D01*
X64116860Y-39576000D01*
X63803140Y-39576000D01*
X63789705Y-39574677D01*
X63782691Y-39572549D01*
X63768923Y-39565190D01*
X63746284Y-39555813D01*
X63722251Y-39551033D01*
X63697747Y-39551033D01*
X63673714Y-39555814D01*
X63651077Y-39565190D01*
X63637309Y-39572549D01*
X63630295Y-39574677D01*
X63616860Y-39576000D01*
X63303140Y-39576000D01*
X63289705Y-39574677D01*
X63282691Y-39572549D01*
X63268923Y-39565190D01*
X63246284Y-39555813D01*
X63222251Y-39551033D01*
X63197747Y-39551033D01*
X63173714Y-39555814D01*
X63151077Y-39565190D01*
X63137309Y-39572549D01*
X63130295Y-39574677D01*
X63116860Y-39576000D01*
X62803140Y-39576000D01*
X62789705Y-39574677D01*
X62782691Y-39572549D01*
X62768923Y-39565190D01*
X62746284Y-39555813D01*
X62722251Y-39551033D01*
X62697747Y-39551033D01*
X62673714Y-39555814D01*
X62651077Y-39565190D01*
X62637309Y-39572549D01*
X62630295Y-39574677D01*
X62616860Y-39576000D01*
X62303140Y-39576000D01*
X62289705Y-39574677D01*
X62282691Y-39572549D01*
X62268923Y-39565190D01*
X62246284Y-39555813D01*
X62222251Y-39551033D01*
X62197747Y-39551033D01*
X62173714Y-39555814D01*
X62151077Y-39565190D01*
X62137309Y-39572549D01*
X62130295Y-39574677D01*
X62116860Y-39576000D01*
X61803140Y-39576000D01*
X61789705Y-39574677D01*
X61782691Y-39572549D01*
X61768923Y-39565190D01*
X61746284Y-39555813D01*
X61722251Y-39551033D01*
X61697747Y-39551033D01*
X61673714Y-39555814D01*
X61651077Y-39565190D01*
X61637309Y-39572549D01*
X61630295Y-39574677D01*
X61616860Y-39576000D01*
X61303140Y-39576000D01*
X61289705Y-39574677D01*
X61282691Y-39572549D01*
X61268923Y-39565190D01*
X61246284Y-39555813D01*
X61222251Y-39551033D01*
X61197747Y-39551033D01*
X61173714Y-39555814D01*
X61151077Y-39565190D01*
X61137309Y-39572549D01*
X61130295Y-39574677D01*
X61116860Y-39576000D01*
X60803140Y-39576000D01*
X60789705Y-39574677D01*
X60782690Y-39572549D01*
X60776224Y-39569092D01*
X60770558Y-39564442D01*
X60765908Y-39558776D01*
X60762451Y-39552310D01*
X60760323Y-39545295D01*
X60759000Y-39531860D01*
X60759000Y-38043140D01*
X60760323Y-38029705D01*
X60762451Y-38022690D01*
X60765908Y-38016224D01*
X60770558Y-38010558D01*
X60776224Y-38005908D01*
X60782690Y-38002451D01*
X60789705Y-38000323D01*
X60803140Y-37999000D01*
X61116860Y-37999000D01*
X61130295Y-38000323D01*
G37*
G36*
X44489468Y-37861565D02*
G01*
X44528138Y-37873296D01*
X44563777Y-37892346D01*
X44595017Y-37917983D01*
X44620654Y-37949223D01*
X44639704Y-37984862D01*
X44651435Y-38023532D01*
X44656000Y-38069888D01*
X44656000Y-39146112D01*
X44651435Y-39192468D01*
X44639704Y-39231138D01*
X44620654Y-39266777D01*
X44595017Y-39298017D01*
X44563777Y-39323654D01*
X44528138Y-39342704D01*
X44489468Y-39354435D01*
X44443112Y-39359000D01*
X43791888Y-39359000D01*
X43745532Y-39354435D01*
X43706862Y-39342704D01*
X43671223Y-39323654D01*
X43639983Y-39298017D01*
X43614346Y-39266777D01*
X43595296Y-39231138D01*
X43583565Y-39192468D01*
X43579000Y-39146112D01*
X43579000Y-38069888D01*
X43583565Y-38023532D01*
X43595296Y-37984862D01*
X43614346Y-37949223D01*
X43639983Y-37917983D01*
X43671223Y-37892346D01*
X43706862Y-37873296D01*
X43745532Y-37861565D01*
X43791888Y-37857000D01*
X44443112Y-37857000D01*
X44489468Y-37861565D01*
G37*
G36*
X39663468Y-37861565D02*
G01*
X39702138Y-37873296D01*
X39737777Y-37892346D01*
X39769017Y-37917983D01*
X39794654Y-37949223D01*
X39813704Y-37984862D01*
X39825435Y-38023532D01*
X39830000Y-38069888D01*
X39830000Y-39146112D01*
X39825435Y-39192468D01*
X39813704Y-39231138D01*
X39794654Y-39266777D01*
X39769017Y-39298017D01*
X39737777Y-39323654D01*
X39702138Y-39342704D01*
X39663468Y-39354435D01*
X39617112Y-39359000D01*
X38965888Y-39359000D01*
X38919532Y-39354435D01*
X38880862Y-39342704D01*
X38845223Y-39323654D01*
X38813983Y-39298017D01*
X38788346Y-39266777D01*
X38769296Y-39231138D01*
X38757565Y-39192468D01*
X38753000Y-39146112D01*
X38753000Y-38069888D01*
X38757565Y-38023532D01*
X38769296Y-37984862D01*
X38788346Y-37949223D01*
X38813983Y-37917983D01*
X38845223Y-37892346D01*
X38880862Y-37873296D01*
X38919532Y-37861565D01*
X38965888Y-37857000D01*
X39617112Y-37857000D01*
X39663468Y-37861565D01*
G37*
G36*
X42614468Y-37861565D02*
G01*
X42653138Y-37873296D01*
X42688777Y-37892346D01*
X42720017Y-37917983D01*
X42745654Y-37949223D01*
X42764704Y-37984862D01*
X42776435Y-38023532D01*
X42781000Y-38069888D01*
X42781000Y-39146112D01*
X42776435Y-39192468D01*
X42764704Y-39231138D01*
X42745654Y-39266777D01*
X42720017Y-39298017D01*
X42688777Y-39323654D01*
X42653138Y-39342704D01*
X42614468Y-39354435D01*
X42568112Y-39359000D01*
X41916888Y-39359000D01*
X41870532Y-39354435D01*
X41831862Y-39342704D01*
X41796223Y-39323654D01*
X41764983Y-39298017D01*
X41739346Y-39266777D01*
X41720296Y-39231138D01*
X41708565Y-39192468D01*
X41704000Y-39146112D01*
X41704000Y-38069888D01*
X41708565Y-38023532D01*
X41720296Y-37984862D01*
X41739346Y-37949223D01*
X41764983Y-37917983D01*
X41796223Y-37892346D01*
X41831862Y-37873296D01*
X41870532Y-37861565D01*
X41916888Y-37857000D01*
X42568112Y-37857000D01*
X42614468Y-37861565D01*
G37*
G36*
X50839468Y-37861565D02*
G01*
X50878138Y-37873296D01*
X50913777Y-37892346D01*
X50945017Y-37917983D01*
X50970654Y-37949223D01*
X50989704Y-37984862D01*
X51001435Y-38023532D01*
X51006000Y-38069888D01*
X51006000Y-39146112D01*
X51001435Y-39192468D01*
X50989704Y-39231138D01*
X50970654Y-39266777D01*
X50945017Y-39298017D01*
X50913777Y-39323654D01*
X50878138Y-39342704D01*
X50839468Y-39354435D01*
X50793112Y-39359000D01*
X50141888Y-39359000D01*
X50095532Y-39354435D01*
X50056862Y-39342704D01*
X50021223Y-39323654D01*
X49989983Y-39298017D01*
X49964346Y-39266777D01*
X49945296Y-39231138D01*
X49933565Y-39192468D01*
X49929000Y-39146112D01*
X49929000Y-38069888D01*
X49933565Y-38023532D01*
X49945296Y-37984862D01*
X49964346Y-37949223D01*
X49989983Y-37917983D01*
X50021223Y-37892346D01*
X50056862Y-37873296D01*
X50095532Y-37861565D01*
X50141888Y-37857000D01*
X50793112Y-37857000D01*
X50839468Y-37861565D01*
G37*
G36*
X48964468Y-37861565D02*
G01*
X49003138Y-37873296D01*
X49038777Y-37892346D01*
X49070017Y-37917983D01*
X49095654Y-37949223D01*
X49114704Y-37984862D01*
X49126435Y-38023532D01*
X49131000Y-38069888D01*
X49131000Y-39146112D01*
X49126435Y-39192468D01*
X49114704Y-39231138D01*
X49095654Y-39266777D01*
X49070017Y-39298017D01*
X49038777Y-39323654D01*
X49003138Y-39342704D01*
X48964468Y-39354435D01*
X48918112Y-39359000D01*
X48266888Y-39359000D01*
X48220532Y-39354435D01*
X48181862Y-39342704D01*
X48146223Y-39323654D01*
X48114983Y-39298017D01*
X48089346Y-39266777D01*
X48070296Y-39231138D01*
X48058565Y-39192468D01*
X48054000Y-39146112D01*
X48054000Y-38069888D01*
X48058565Y-38023532D01*
X48070296Y-37984862D01*
X48089346Y-37949223D01*
X48114983Y-37917983D01*
X48146223Y-37892346D01*
X48181862Y-37873296D01*
X48220532Y-37861565D01*
X48266888Y-37857000D01*
X48918112Y-37857000D01*
X48964468Y-37861565D01*
G37*
G36*
X37788468Y-37861565D02*
G01*
X37827138Y-37873296D01*
X37862777Y-37892346D01*
X37894017Y-37917983D01*
X37919654Y-37949223D01*
X37938704Y-37984862D01*
X37950435Y-38023532D01*
X37955000Y-38069888D01*
X37955000Y-39146112D01*
X37950435Y-39192468D01*
X37938704Y-39231138D01*
X37919654Y-39266777D01*
X37894017Y-39298017D01*
X37862777Y-39323654D01*
X37827138Y-39342704D01*
X37788468Y-39354435D01*
X37742112Y-39359000D01*
X37090888Y-39359000D01*
X37044532Y-39354435D01*
X37005862Y-39342704D01*
X36970223Y-39323654D01*
X36938983Y-39298017D01*
X36913346Y-39266777D01*
X36894296Y-39231138D01*
X36882565Y-39192468D01*
X36878000Y-39146112D01*
X36878000Y-38069888D01*
X36882565Y-38023532D01*
X36894296Y-37984862D01*
X36913346Y-37949223D01*
X36938983Y-37917983D01*
X36970223Y-37892346D01*
X37005862Y-37873296D01*
X37044532Y-37861565D01*
X37090888Y-37857000D01*
X37742112Y-37857000D01*
X37788468Y-37861565D01*
G37*
G36*
X59171968Y-37853565D02*
G01*
X59210638Y-37865296D01*
X59246277Y-37884346D01*
X59277517Y-37909983D01*
X59303154Y-37941223D01*
X59322204Y-37976862D01*
X59333935Y-38015532D01*
X59338500Y-38061888D01*
X59338500Y-39138112D01*
X59333935Y-39184468D01*
X59322204Y-39223138D01*
X59303154Y-39258777D01*
X59277517Y-39290017D01*
X59246277Y-39315654D01*
X59210638Y-39334704D01*
X59171968Y-39346435D01*
X59125612Y-39351000D01*
X58474388Y-39351000D01*
X58428032Y-39346435D01*
X58389362Y-39334704D01*
X58353723Y-39315654D01*
X58322483Y-39290017D01*
X58296846Y-39258777D01*
X58277796Y-39223138D01*
X58266065Y-39184468D01*
X58261500Y-39138112D01*
X58261500Y-38061888D01*
X58266065Y-38015532D01*
X58277796Y-37976862D01*
X58296846Y-37941223D01*
X58322483Y-37909983D01*
X58353723Y-37884346D01*
X58389362Y-37865296D01*
X58428032Y-37853565D01*
X58474388Y-37849000D01*
X59125612Y-37849000D01*
X59171968Y-37853565D01*
G37*
G36*
X57296968Y-37853565D02*
G01*
X57335638Y-37865296D01*
X57371277Y-37884346D01*
X57402517Y-37909983D01*
X57428154Y-37941223D01*
X57447204Y-37976862D01*
X57458935Y-38015532D01*
X57463500Y-38061888D01*
X57463500Y-39138112D01*
X57458935Y-39184468D01*
X57447204Y-39223138D01*
X57428154Y-39258777D01*
X57402517Y-39290017D01*
X57371277Y-39315654D01*
X57335638Y-39334704D01*
X57296968Y-39346435D01*
X57250612Y-39351000D01*
X56599388Y-39351000D01*
X56553032Y-39346435D01*
X56514362Y-39334704D01*
X56478723Y-39315654D01*
X56447483Y-39290017D01*
X56421846Y-39258777D01*
X56402796Y-39223138D01*
X56391065Y-39184468D01*
X56386500Y-39138112D01*
X56386500Y-38061888D01*
X56391065Y-38015532D01*
X56402796Y-37976862D01*
X56421846Y-37941223D01*
X56447483Y-37909983D01*
X56478723Y-37884346D01*
X56514362Y-37865296D01*
X56553032Y-37853565D01*
X56599388Y-37849000D01*
X57250612Y-37849000D01*
X57296968Y-37853565D01*
G37*
G36*
X34837000Y-39155000D02*
G01*
X33235000Y-39155000D01*
X33235000Y-37553000D01*
X34837000Y-37553000D01*
X34837000Y-39155000D01*
G37*
G36*
X82371000Y-37551000D02*
G01*
X80969000Y-37551000D01*
X80969000Y-35849000D01*
X82371000Y-35849000D01*
X82371000Y-37551000D01*
G37*
G36*
X78671000Y-37551000D02*
G01*
X77269000Y-37551000D01*
X77269000Y-35849000D01*
X78671000Y-35849000D01*
X78671000Y-37551000D01*
G37*
G36*
X85171000Y-37551000D02*
G01*
X83769000Y-37551000D01*
X83769000Y-35849000D01*
X85171000Y-35849000D01*
X85171000Y-37551000D01*
G37*
G36*
X67694468Y-35603565D02*
G01*
X67733138Y-35615296D01*
X67768777Y-35634346D01*
X67800017Y-35659983D01*
X67825654Y-35691223D01*
X67844704Y-35726862D01*
X67856435Y-35765532D01*
X67861000Y-35811888D01*
X67861000Y-36888112D01*
X67856435Y-36934468D01*
X67844704Y-36973138D01*
X67825654Y-37008777D01*
X67800017Y-37040017D01*
X67768777Y-37065654D01*
X67733138Y-37084704D01*
X67694468Y-37096435D01*
X67648112Y-37101000D01*
X66996888Y-37101000D01*
X66950532Y-37096435D01*
X66911862Y-37084704D01*
X66876223Y-37065654D01*
X66844983Y-37040017D01*
X66819346Y-37008777D01*
X66800296Y-36973138D01*
X66788565Y-36934468D01*
X66784000Y-36888112D01*
X66784000Y-35811888D01*
X66788565Y-35765532D01*
X66800296Y-35726862D01*
X66819346Y-35691223D01*
X66844983Y-35659983D01*
X66876223Y-35634346D01*
X66911862Y-35615296D01*
X66950532Y-35603565D01*
X66996888Y-35599000D01*
X67648112Y-35599000D01*
X67694468Y-35603565D01*
G37*
G36*
X69569468Y-35603565D02*
G01*
X69608138Y-35615296D01*
X69643777Y-35634346D01*
X69675017Y-35659983D01*
X69700654Y-35691223D01*
X69719704Y-35726862D01*
X69731435Y-35765532D01*
X69736000Y-35811888D01*
X69736000Y-36888112D01*
X69731435Y-36934468D01*
X69719704Y-36973138D01*
X69700654Y-37008777D01*
X69675017Y-37040017D01*
X69643777Y-37065654D01*
X69608138Y-37084704D01*
X69569468Y-37096435D01*
X69523112Y-37101000D01*
X68871888Y-37101000D01*
X68825532Y-37096435D01*
X68786862Y-37084704D01*
X68751223Y-37065654D01*
X68719983Y-37040017D01*
X68694346Y-37008777D01*
X68675296Y-36973138D01*
X68663565Y-36934468D01*
X68659000Y-36888112D01*
X68659000Y-35811888D01*
X68663565Y-35765532D01*
X68675296Y-35726862D01*
X68694346Y-35691223D01*
X68719983Y-35659983D01*
X68751223Y-35634346D01*
X68786862Y-35615296D01*
X68825532Y-35603565D01*
X68871888Y-35599000D01*
X69523112Y-35599000D01*
X69569468Y-35603565D01*
G37*
G36*
X65034468Y-35963565D02*
G01*
X65073138Y-35975296D01*
X65108777Y-35994346D01*
X65140017Y-36019983D01*
X65165654Y-36051223D01*
X65184704Y-36086862D01*
X65196435Y-36125532D01*
X65201000Y-36171888D01*
X65201000Y-36823112D01*
X65196435Y-36869468D01*
X65184704Y-36908138D01*
X65165654Y-36943777D01*
X65140017Y-36975017D01*
X65108777Y-37000654D01*
X65073138Y-37019704D01*
X65034468Y-37031435D01*
X64988112Y-37036000D01*
X63911888Y-37036000D01*
X63865532Y-37031435D01*
X63826862Y-37019704D01*
X63791223Y-37000654D01*
X63759983Y-36975017D01*
X63734346Y-36943777D01*
X63715296Y-36908138D01*
X63703565Y-36869468D01*
X63699000Y-36823112D01*
X63699000Y-36171888D01*
X63703565Y-36125532D01*
X63715296Y-36086862D01*
X63734346Y-36051223D01*
X63759983Y-36019983D01*
X63791223Y-35994346D01*
X63826862Y-35975296D01*
X63865532Y-35963565D01*
X63911888Y-35959000D01*
X64988112Y-35959000D01*
X65034468Y-35963565D01*
G37*
G36*
X61964468Y-35933565D02*
G01*
X62003138Y-35945296D01*
X62038777Y-35964346D01*
X62070017Y-35989983D01*
X62095654Y-36021223D01*
X62114704Y-36056862D01*
X62126435Y-36095532D01*
X62131000Y-36141888D01*
X62131000Y-36793112D01*
X62126435Y-36839468D01*
X62114704Y-36878138D01*
X62095654Y-36913777D01*
X62070017Y-36945017D01*
X62038777Y-36970654D01*
X62003138Y-36989704D01*
X61964468Y-37001435D01*
X61918112Y-37006000D01*
X60841888Y-37006000D01*
X60795532Y-37001435D01*
X60756862Y-36989704D01*
X60721223Y-36970654D01*
X60689983Y-36945017D01*
X60664346Y-36913777D01*
X60645296Y-36878138D01*
X60633565Y-36839468D01*
X60629000Y-36793112D01*
X60629000Y-36141888D01*
X60633565Y-36095532D01*
X60645296Y-36056862D01*
X60664346Y-36021223D01*
X60689983Y-35989983D01*
X60721223Y-35964346D01*
X60756862Y-35945296D01*
X60795532Y-35933565D01*
X60841888Y-35929000D01*
X61918112Y-35929000D01*
X61964468Y-35933565D01*
G37*
G36*
X46476000Y-36776000D02*
G01*
X44874000Y-36776000D01*
X44874000Y-35174000D01*
X46476000Y-35174000D01*
X46476000Y-36776000D01*
G37*
G36*
X87218766Y-35278821D02*
G01*
X87355257Y-35335358D01*
X87478097Y-35417437D01*
X87582563Y-35521903D01*
X87664642Y-35644743D01*
X87721179Y-35781234D01*
X87750000Y-35926130D01*
X87750000Y-36073870D01*
X87721179Y-36218766D01*
X87664642Y-36355257D01*
X87582563Y-36478097D01*
X87478097Y-36582563D01*
X87355257Y-36664642D01*
X87218766Y-36721179D01*
X87073870Y-36750000D01*
X86926130Y-36750000D01*
X86781234Y-36721179D01*
X86644743Y-36664642D01*
X86521903Y-36582563D01*
X86417437Y-36478097D01*
X86335358Y-36355257D01*
X86278821Y-36218766D01*
X86250000Y-36073870D01*
X86250000Y-35926130D01*
X86278821Y-35781234D01*
X86335358Y-35644743D01*
X86417437Y-35521903D01*
X86521903Y-35417437D01*
X86644743Y-35335358D01*
X86781234Y-35278821D01*
X86926130Y-35250000D01*
X87073870Y-35250000D01*
X87218766Y-35278821D01*
G37*
G36*
X52234468Y-35153565D02*
G01*
X52273138Y-35165296D01*
X52308777Y-35184346D01*
X52340017Y-35209983D01*
X52365654Y-35241223D01*
X52384704Y-35276862D01*
X52396435Y-35315532D01*
X52401000Y-35361888D01*
X52401000Y-36438112D01*
X52396435Y-36484468D01*
X52384704Y-36523138D01*
X52365654Y-36558777D01*
X52340017Y-36590017D01*
X52308777Y-36615654D01*
X52273138Y-36634704D01*
X52234468Y-36646435D01*
X52188112Y-36651000D01*
X51536888Y-36651000D01*
X51490532Y-36646435D01*
X51451862Y-36634704D01*
X51416223Y-36615654D01*
X51384983Y-36590017D01*
X51359346Y-36558777D01*
X51340296Y-36523138D01*
X51328565Y-36484468D01*
X51324000Y-36438112D01*
X51324000Y-35361888D01*
X51328565Y-35315532D01*
X51340296Y-35276862D01*
X51359346Y-35241223D01*
X51384983Y-35209983D01*
X51416223Y-35184346D01*
X51451862Y-35165296D01*
X51490532Y-35153565D01*
X51536888Y-35149000D01*
X52188112Y-35149000D01*
X52234468Y-35153565D01*
G37*
G36*
X55934468Y-35153565D02*
G01*
X55973138Y-35165296D01*
X56008777Y-35184346D01*
X56040017Y-35209983D01*
X56065654Y-35241223D01*
X56084704Y-35276862D01*
X56096435Y-35315532D01*
X56101000Y-35361888D01*
X56101000Y-36438112D01*
X56096435Y-36484468D01*
X56084704Y-36523138D01*
X56065654Y-36558777D01*
X56040017Y-36590017D01*
X56008777Y-36615654D01*
X55973138Y-36634704D01*
X55934468Y-36646435D01*
X55888112Y-36651000D01*
X55236888Y-36651000D01*
X55190532Y-36646435D01*
X55151862Y-36634704D01*
X55116223Y-36615654D01*
X55084983Y-36590017D01*
X55059346Y-36558777D01*
X55040296Y-36523138D01*
X55028565Y-36484468D01*
X55024000Y-36438112D01*
X55024000Y-35361888D01*
X55028565Y-35315532D01*
X55040296Y-35276862D01*
X55059346Y-35241223D01*
X55084983Y-35209983D01*
X55116223Y-35184346D01*
X55151862Y-35165296D01*
X55190532Y-35153565D01*
X55236888Y-35149000D01*
X55888112Y-35149000D01*
X55934468Y-35153565D01*
G37*
G36*
X57809468Y-35153565D02*
G01*
X57848138Y-35165296D01*
X57883777Y-35184346D01*
X57915017Y-35209983D01*
X57940654Y-35241223D01*
X57959704Y-35276862D01*
X57971435Y-35315532D01*
X57976000Y-35361888D01*
X57976000Y-36438112D01*
X57971435Y-36484468D01*
X57959704Y-36523138D01*
X57940654Y-36558777D01*
X57915017Y-36590017D01*
X57883777Y-36615654D01*
X57848138Y-36634704D01*
X57809468Y-36646435D01*
X57763112Y-36651000D01*
X57111888Y-36651000D01*
X57065532Y-36646435D01*
X57026862Y-36634704D01*
X56991223Y-36615654D01*
X56959983Y-36590017D01*
X56934346Y-36558777D01*
X56915296Y-36523138D01*
X56903565Y-36484468D01*
X56899000Y-36438112D01*
X56899000Y-35361888D01*
X56903565Y-35315532D01*
X56915296Y-35276862D01*
X56934346Y-35241223D01*
X56959983Y-35209983D01*
X56991223Y-35184346D01*
X57026862Y-35165296D01*
X57065532Y-35153565D01*
X57111888Y-35149000D01*
X57763112Y-35149000D01*
X57809468Y-35153565D01*
G37*
G36*
X54109468Y-35153565D02*
G01*
X54148138Y-35165296D01*
X54183777Y-35184346D01*
X54215017Y-35209983D01*
X54240654Y-35241223D01*
X54259704Y-35276862D01*
X54271435Y-35315532D01*
X54276000Y-35361888D01*
X54276000Y-36438112D01*
X54271435Y-36484468D01*
X54259704Y-36523138D01*
X54240654Y-36558777D01*
X54215017Y-36590017D01*
X54183777Y-36615654D01*
X54148138Y-36634704D01*
X54109468Y-36646435D01*
X54063112Y-36651000D01*
X53411888Y-36651000D01*
X53365532Y-36646435D01*
X53326862Y-36634704D01*
X53291223Y-36615654D01*
X53259983Y-36590017D01*
X53234346Y-36558777D01*
X53215296Y-36523138D01*
X53203565Y-36484468D01*
X53199000Y-36438112D01*
X53199000Y-35361888D01*
X53203565Y-35315532D01*
X53215296Y-35276862D01*
X53234346Y-35241223D01*
X53259983Y-35209983D01*
X53291223Y-35184346D01*
X53326862Y-35165296D01*
X53365532Y-35153565D01*
X53411888Y-35149000D01*
X54063112Y-35149000D01*
X54109468Y-35153565D01*
G37*
G36*
X65034468Y-34088565D02*
G01*
X65073138Y-34100296D01*
X65108777Y-34119346D01*
X65140017Y-34144983D01*
X65165654Y-34176223D01*
X65184704Y-34211862D01*
X65196435Y-34250532D01*
X65201000Y-34296888D01*
X65201000Y-34948112D01*
X65196435Y-34994468D01*
X65184704Y-35033138D01*
X65165654Y-35068777D01*
X65140017Y-35100017D01*
X65108777Y-35125654D01*
X65073138Y-35144704D01*
X65034468Y-35156435D01*
X64988112Y-35161000D01*
X63911888Y-35161000D01*
X63865532Y-35156435D01*
X63826862Y-35144704D01*
X63791223Y-35125654D01*
X63759983Y-35100017D01*
X63734346Y-35068777D01*
X63715296Y-35033138D01*
X63703565Y-34994468D01*
X63699000Y-34948112D01*
X63699000Y-34296888D01*
X63703565Y-34250532D01*
X63715296Y-34211862D01*
X63734346Y-34176223D01*
X63759983Y-34144983D01*
X63791223Y-34119346D01*
X63826862Y-34100296D01*
X63865532Y-34088565D01*
X63911888Y-34084000D01*
X64988112Y-34084000D01*
X65034468Y-34088565D01*
G37*
G36*
X61964468Y-34058565D02*
G01*
X62003138Y-34070296D01*
X62038777Y-34089346D01*
X62070017Y-34114983D01*
X62095654Y-34146223D01*
X62114704Y-34181862D01*
X62126435Y-34220532D01*
X62131000Y-34266888D01*
X62131000Y-34918112D01*
X62126435Y-34964468D01*
X62114704Y-35003138D01*
X62095654Y-35038777D01*
X62070017Y-35070017D01*
X62038777Y-35095654D01*
X62003138Y-35114704D01*
X61964468Y-35126435D01*
X61918112Y-35131000D01*
X60841888Y-35131000D01*
X60795532Y-35126435D01*
X60756862Y-35114704D01*
X60721223Y-35095654D01*
X60689983Y-35070017D01*
X60664346Y-35038777D01*
X60645296Y-35003138D01*
X60633565Y-34964468D01*
X60629000Y-34918112D01*
X60629000Y-34266888D01*
X60633565Y-34220532D01*
X60645296Y-34181862D01*
X60664346Y-34146223D01*
X60689983Y-34114983D01*
X60721223Y-34089346D01*
X60756862Y-34070296D01*
X60795532Y-34058565D01*
X60841888Y-34054000D01*
X61918112Y-34054000D01*
X61964468Y-34058565D01*
G37*
G36*
X69970256Y-30741298D02*
G01*
X70076579Y-30762447D01*
X70377042Y-30886903D01*
X70647451Y-31067585D01*
X70877415Y-31297549D01*
X71058097Y-31567958D01*
X71182553Y-31868421D01*
X71194817Y-31930075D01*
X71246000Y-32187389D01*
X71246000Y-32512611D01*
X71210821Y-32689468D01*
X71182553Y-32831579D01*
X71182206Y-32832416D01*
X71059957Y-33127553D01*
X71058097Y-33132042D01*
X70877415Y-33402451D01*
X70647451Y-33632415D01*
X70377042Y-33813097D01*
X70076579Y-33937553D01*
X69970256Y-33958702D01*
X69757611Y-34001000D01*
X69432389Y-34001000D01*
X69219744Y-33958702D01*
X69113421Y-33937553D01*
X68812958Y-33813097D01*
X68542549Y-33632415D01*
X68312585Y-33402451D01*
X68131903Y-33132042D01*
X68130044Y-33127553D01*
X68007794Y-32832416D01*
X68007447Y-32831579D01*
X67979179Y-32689468D01*
X67944000Y-32512611D01*
X67944000Y-32187389D01*
X67995183Y-31930075D01*
X68007447Y-31868421D01*
X68131903Y-31567958D01*
X68312585Y-31297549D01*
X68542549Y-31067585D01*
X68812958Y-30886903D01*
X69113421Y-30762447D01*
X69219744Y-30741298D01*
X69432389Y-30699000D01*
X69757611Y-30699000D01*
X69970256Y-30741298D01*
G37*
G36*
X49470256Y-30741298D02*
G01*
X49576579Y-30762447D01*
X49877042Y-30886903D01*
X50147451Y-31067585D01*
X50377415Y-31297549D01*
X50558097Y-31567958D01*
X50682553Y-31868421D01*
X50694817Y-31930075D01*
X50746000Y-32187389D01*
X50746000Y-32512611D01*
X50710821Y-32689468D01*
X50682553Y-32831579D01*
X50682206Y-32832416D01*
X50559957Y-33127553D01*
X50558097Y-33132042D01*
X50377415Y-33402451D01*
X50147451Y-33632415D01*
X49877042Y-33813097D01*
X49576579Y-33937553D01*
X49470256Y-33958702D01*
X49257611Y-34001000D01*
X48932389Y-34001000D01*
X48719744Y-33958702D01*
X48613421Y-33937553D01*
X48312958Y-33813097D01*
X48042549Y-33632415D01*
X47812585Y-33402451D01*
X47631903Y-33132042D01*
X47630044Y-33127553D01*
X47507794Y-32832416D01*
X47507447Y-32831579D01*
X47479179Y-32689468D01*
X47444000Y-32512611D01*
X47444000Y-32187389D01*
X47495183Y-31930075D01*
X47507447Y-31868421D01*
X47631903Y-31567958D01*
X47812585Y-31297549D01*
X48042549Y-31067585D01*
X48312958Y-30886903D01*
X48613421Y-30762447D01*
X48719744Y-30741298D01*
X48932389Y-30699000D01*
X49257611Y-30699000D01*
X49470256Y-30741298D01*
G37*
G36*
X43643512Y-32003927D02*
G01*
X43792812Y-32033624D01*
X43956784Y-32101544D01*
X44104354Y-32200147D01*
X44229853Y-32325646D01*
X44328456Y-32473216D01*
X44396376Y-32637188D01*
X44416490Y-32738311D01*
X44431000Y-32811258D01*
X44431000Y-32988742D01*
X44428144Y-33003098D01*
X44396376Y-33162812D01*
X44328456Y-33326784D01*
X44229853Y-33474354D01*
X44104354Y-33599853D01*
X43956784Y-33698456D01*
X43792812Y-33766376D01*
X43643512Y-33796073D01*
X43618742Y-33801000D01*
X43441258Y-33801000D01*
X43416488Y-33796073D01*
X43267188Y-33766376D01*
X43103216Y-33698456D01*
X42955646Y-33599853D01*
X42830147Y-33474354D01*
X42731544Y-33326784D01*
X42663624Y-33162812D01*
X42631856Y-33003098D01*
X42629000Y-32988742D01*
X42629000Y-32811258D01*
X42643510Y-32738311D01*
X42663624Y-32637188D01*
X42731544Y-32473216D01*
X42830147Y-32325646D01*
X42955646Y-32200147D01*
X43103216Y-32101544D01*
X43267188Y-32033624D01*
X43416488Y-32003927D01*
X43441258Y-31999000D01*
X43618742Y-31999000D01*
X43643512Y-32003927D01*
G37*
G36*
X41103512Y-32003927D02*
G01*
X41252812Y-32033624D01*
X41416784Y-32101544D01*
X41564354Y-32200147D01*
X41689853Y-32325646D01*
X41788456Y-32473216D01*
X41856376Y-32637188D01*
X41876490Y-32738311D01*
X41891000Y-32811258D01*
X41891000Y-32988742D01*
X41888144Y-33003098D01*
X41856376Y-33162812D01*
X41788456Y-33326784D01*
X41689853Y-33474354D01*
X41564354Y-33599853D01*
X41416784Y-33698456D01*
X41252812Y-33766376D01*
X41103512Y-33796073D01*
X41078742Y-33801000D01*
X40901258Y-33801000D01*
X40876488Y-33796073D01*
X40727188Y-33766376D01*
X40563216Y-33698456D01*
X40415646Y-33599853D01*
X40290147Y-33474354D01*
X40191544Y-33326784D01*
X40123624Y-33162812D01*
X40091856Y-33003098D01*
X40089000Y-32988742D01*
X40089000Y-32811258D01*
X40103510Y-32738311D01*
X40123624Y-32637188D01*
X40191544Y-32473216D01*
X40290147Y-32325646D01*
X40415646Y-32200147D01*
X40563216Y-32101544D01*
X40727188Y-32033624D01*
X40876488Y-32003927D01*
X40901258Y-31999000D01*
X41078742Y-31999000D01*
X41103512Y-32003927D01*
G37*
G36*
X39351000Y-33801000D02*
G01*
X37549000Y-33801000D01*
X37549000Y-31999000D01*
X39351000Y-31999000D01*
X39351000Y-33801000D01*
G37*
G36*
X32645256Y-29941298D02*
G01*
X32751579Y-29962447D01*
X32801234Y-29983015D01*
X33051992Y-30086882D01*
X33052042Y-30086903D01*
X33322451Y-30267585D01*
X33552415Y-30497549D01*
X33733097Y-30767958D01*
X33857479Y-31068242D01*
X33857553Y-31068422D01*
X33921000Y-31387389D01*
X33921000Y-31712611D01*
X33888447Y-31876263D01*
X33857553Y-32031579D01*
X33733097Y-32332042D01*
X33552415Y-32602451D01*
X33322451Y-32832415D01*
X33052042Y-33013097D01*
X32751579Y-33137553D01*
X32645256Y-33158702D01*
X32432611Y-33201000D01*
X32107389Y-33201000D01*
X31894744Y-33158702D01*
X31788421Y-33137553D01*
X31487958Y-33013097D01*
X31217549Y-32832415D01*
X30987585Y-32602451D01*
X30806903Y-32332042D01*
X30682447Y-32031579D01*
X30651553Y-31876263D01*
X30619000Y-31712611D01*
X30619000Y-31387389D01*
X30682447Y-31068422D01*
X30682522Y-31068242D01*
X30806903Y-30767958D01*
X30987585Y-30497549D01*
X31217549Y-30267585D01*
X31487958Y-30086903D01*
X31488009Y-30086882D01*
X31738766Y-29983015D01*
X31788421Y-29962447D01*
X31894744Y-29941298D01*
X32107389Y-29899000D01*
X32432611Y-29899000D01*
X32645256Y-29941298D01*
G37*
G36*
X86495256Y-29931298D02*
G01*
X86601579Y-29952447D01*
X86902042Y-30076903D01*
X87172451Y-30257585D01*
X87402415Y-30487549D01*
X87409098Y-30497551D01*
X87583098Y-30757960D01*
X87587239Y-30767958D01*
X87707553Y-31058421D01*
X87709507Y-31068243D01*
X87771000Y-31377389D01*
X87771000Y-31702611D01*
X87757610Y-31769925D01*
X87707553Y-32021579D01*
X87583097Y-32322042D01*
X87402415Y-32592451D01*
X87172451Y-32822415D01*
X86902042Y-33003097D01*
X86902041Y-33003098D01*
X86902040Y-33003098D01*
X86814037Y-33039550D01*
X86601579Y-33127553D01*
X86495256Y-33148702D01*
X86282611Y-33191000D01*
X85957389Y-33191000D01*
X85744744Y-33148702D01*
X85638421Y-33127553D01*
X85425963Y-33039550D01*
X85337960Y-33003098D01*
X85337959Y-33003098D01*
X85337958Y-33003097D01*
X85067549Y-32822415D01*
X84837585Y-32592451D01*
X84656903Y-32322042D01*
X84532447Y-32021579D01*
X84482390Y-31769925D01*
X84469000Y-31702611D01*
X84469000Y-31377389D01*
X84530493Y-31068243D01*
X84532447Y-31058421D01*
X84652761Y-30767958D01*
X84656902Y-30757960D01*
X84830902Y-30497551D01*
X84837585Y-30487549D01*
X85067549Y-30257585D01*
X85337958Y-30076903D01*
X85638421Y-29952447D01*
X85744744Y-29931298D01*
X85957389Y-29889000D01*
X86282611Y-29889000D01*
X86495256Y-29931298D01*
G37*
G36*
X78926000Y-32197740D02*
G01*
X78928402Y-32222126D01*
X78935515Y-32245575D01*
X78937947Y-32250126D01*
X78931382Y-32265975D01*
X78926602Y-32290008D01*
X78926000Y-32302260D01*
X78926000Y-33126000D01*
X75824000Y-33126000D01*
X75824000Y-31374000D01*
X78926000Y-31374000D01*
X78926000Y-32197740D01*
G37*
G36*
X75103114Y-31731611D02*
G01*
X75202265Y-31761688D01*
X75293644Y-31810531D01*
X75373738Y-31876262D01*
X75439469Y-31956356D01*
X75488312Y-32047735D01*
X75518389Y-32146886D01*
X75528545Y-32250000D01*
X75518389Y-32353114D01*
X75488312Y-32452265D01*
X75439469Y-32543644D01*
X75373738Y-32623738D01*
X75293644Y-32689469D01*
X75202265Y-32738312D01*
X75103114Y-32768389D01*
X75025839Y-32776000D01*
X74674161Y-32776000D01*
X74596886Y-32768389D01*
X74497735Y-32738312D01*
X74406356Y-32689469D01*
X74326262Y-32623738D01*
X74260531Y-32543644D01*
X74211688Y-32452265D01*
X74181611Y-32353114D01*
X74171455Y-32250000D01*
X74181611Y-32146886D01*
X74211688Y-32047735D01*
X74260531Y-31956356D01*
X74326262Y-31876262D01*
X74406356Y-31810531D01*
X74497735Y-31761688D01*
X74596886Y-31731611D01*
X74674161Y-31724000D01*
X75025839Y-31724000D01*
X75103114Y-31731611D01*
G37*
G36*
X80103114Y-31731611D02*
G01*
X80202265Y-31761688D01*
X80293644Y-31810531D01*
X80373738Y-31876262D01*
X80439469Y-31956356D01*
X80488312Y-32047735D01*
X80518389Y-32146886D01*
X80528545Y-32250000D01*
X80518389Y-32353114D01*
X80488312Y-32452265D01*
X80439469Y-32543644D01*
X80373738Y-32623738D01*
X80293644Y-32689469D01*
X80202265Y-32738312D01*
X80103114Y-32768389D01*
X80025839Y-32776000D01*
X79674161Y-32776000D01*
X79596886Y-32768389D01*
X79497735Y-32738312D01*
X79406356Y-32689469D01*
X79326262Y-32623738D01*
X79260531Y-32543644D01*
X79211688Y-32452265D01*
X79181611Y-32353114D01*
X79175395Y-32290003D01*
X79170616Y-32265975D01*
X79164051Y-32250126D01*
X79166483Y-32245575D01*
X79173596Y-32222126D01*
X79175396Y-32209992D01*
X79176366Y-32200148D01*
X79181611Y-32146886D01*
X79211688Y-32047735D01*
X79260531Y-31956356D01*
X79326262Y-31876262D01*
X79406356Y-31810531D01*
X79497735Y-31761688D01*
X79596886Y-31731611D01*
X79674161Y-31724000D01*
X80025839Y-31724000D01*
X80103114Y-31731611D01*
G37*
G36*
X63392142Y-31068242D02*
G01*
X63540101Y-31129529D01*
X63673255Y-31218499D01*
X63786501Y-31331745D01*
X63875471Y-31464899D01*
X63936758Y-31612858D01*
X63968000Y-31769925D01*
X63968000Y-31930075D01*
X63936758Y-32087142D01*
X63875471Y-32235101D01*
X63786501Y-32368255D01*
X63673255Y-32481501D01*
X63540101Y-32570471D01*
X63392142Y-32631758D01*
X63235075Y-32663000D01*
X63074925Y-32663000D01*
X62917858Y-32631758D01*
X62769899Y-32570471D01*
X62636745Y-32481501D01*
X62523499Y-32368255D01*
X62434529Y-32235101D01*
X62373242Y-32087142D01*
X62342000Y-31930075D01*
X62342000Y-31769925D01*
X62373242Y-31612858D01*
X62434529Y-31464899D01*
X62523499Y-31331745D01*
X62636745Y-31218499D01*
X62769899Y-31129529D01*
X62917858Y-31068242D01*
X63074925Y-31037000D01*
X63235075Y-31037000D01*
X63392142Y-31068242D01*
G37*
G36*
X60852142Y-31068242D02*
G01*
X61000101Y-31129529D01*
X61133255Y-31218499D01*
X61246501Y-31331745D01*
X61335471Y-31464899D01*
X61396758Y-31612858D01*
X61428000Y-31769925D01*
X61428000Y-31930075D01*
X61396758Y-32087142D01*
X61335471Y-32235101D01*
X61246501Y-32368255D01*
X61133255Y-32481501D01*
X61000101Y-32570471D01*
X60852142Y-32631758D01*
X60695075Y-32663000D01*
X60534925Y-32663000D01*
X60377858Y-32631758D01*
X60229899Y-32570471D01*
X60096745Y-32481501D01*
X59983499Y-32368255D01*
X59894529Y-32235101D01*
X59833242Y-32087142D01*
X59802000Y-31930075D01*
X59802000Y-31769925D01*
X59833242Y-31612858D01*
X59894529Y-31464899D01*
X59983499Y-31331745D01*
X60096745Y-31218499D01*
X60229899Y-31129529D01*
X60377858Y-31068242D01*
X60534925Y-31037000D01*
X60695075Y-31037000D01*
X60852142Y-31068242D01*
G37*
G36*
X58312142Y-31068242D02*
G01*
X58460101Y-31129529D01*
X58593255Y-31218499D01*
X58706501Y-31331745D01*
X58795471Y-31464899D01*
X58856758Y-31612858D01*
X58888000Y-31769925D01*
X58888000Y-31930075D01*
X58856758Y-32087142D01*
X58795471Y-32235101D01*
X58706501Y-32368255D01*
X58593255Y-32481501D01*
X58460101Y-32570471D01*
X58312142Y-32631758D01*
X58155075Y-32663000D01*
X57994925Y-32663000D01*
X57837858Y-32631758D01*
X57689899Y-32570471D01*
X57556745Y-32481501D01*
X57443499Y-32368255D01*
X57354529Y-32235101D01*
X57293242Y-32087142D01*
X57262000Y-31930075D01*
X57262000Y-31769925D01*
X57293242Y-31612858D01*
X57354529Y-31464899D01*
X57443499Y-31331745D01*
X57556745Y-31218499D01*
X57689899Y-31129529D01*
X57837858Y-31068242D01*
X57994925Y-31037000D01*
X58155075Y-31037000D01*
X58312142Y-31068242D01*
G37*
G36*
X55772142Y-31068242D02*
G01*
X55920101Y-31129529D01*
X56053255Y-31218499D01*
X56166501Y-31331745D01*
X56255471Y-31464899D01*
X56316758Y-31612858D01*
X56348000Y-31769925D01*
X56348000Y-31930075D01*
X56316758Y-32087142D01*
X56255471Y-32235101D01*
X56166501Y-32368255D01*
X56053255Y-32481501D01*
X55920101Y-32570471D01*
X55772142Y-32631758D01*
X55615075Y-32663000D01*
X55454925Y-32663000D01*
X55297858Y-32631758D01*
X55149899Y-32570471D01*
X55016745Y-32481501D01*
X54903499Y-32368255D01*
X54814529Y-32235101D01*
X54753242Y-32087142D01*
X54722000Y-31930075D01*
X54722000Y-31769925D01*
X54753242Y-31612858D01*
X54814529Y-31464899D01*
X54903499Y-31331745D01*
X55016745Y-31218499D01*
X55149899Y-31129529D01*
X55297858Y-31068242D01*
X55454925Y-31037000D01*
X55615075Y-31037000D01*
X55772142Y-31068242D01*
G37*
G36*
X80870961Y-28673399D02*
G01*
X80883201Y-28674000D01*
X80954232Y-28674000D01*
X80956553Y-28675905D01*
X80989713Y-28691588D01*
X81021518Y-28701236D01*
X81061879Y-28713479D01*
X81095221Y-28731301D01*
X81157600Y-28764643D01*
X81241501Y-28833499D01*
X81310357Y-28917400D01*
X81346995Y-28985945D01*
X81361521Y-29013121D01*
X81393027Y-29116985D01*
X81401000Y-29197933D01*
X81401000Y-29902067D01*
X81393027Y-29983015D01*
X81361521Y-30086879D01*
X81310356Y-30182600D01*
X81241501Y-30266501D01*
X81172645Y-30323009D01*
X81157599Y-30335357D01*
X81105907Y-30362987D01*
X81061878Y-30386521D01*
X80989704Y-30408414D01*
X80967075Y-30417787D01*
X80954784Y-30426000D01*
X80883201Y-30426000D01*
X80870961Y-30426601D01*
X80850000Y-30428666D01*
X80829039Y-30426601D01*
X80816799Y-30426000D01*
X79599000Y-30426000D01*
X79599000Y-28674000D01*
X80816799Y-28674000D01*
X80829039Y-28673399D01*
X80850000Y-28671334D01*
X80870961Y-28673399D01*
G37*
G36*
X73870961Y-28673399D02*
G01*
X73883201Y-28674000D01*
X75101000Y-28674000D01*
X75101000Y-30426000D01*
X73883201Y-30426000D01*
X73870961Y-30426601D01*
X73850000Y-30428666D01*
X73829039Y-30426601D01*
X73816799Y-30426000D01*
X73745768Y-30426000D01*
X73743447Y-30424095D01*
X73710287Y-30408412D01*
X73678482Y-30398764D01*
X73638121Y-30386521D01*
X73586957Y-30359173D01*
X73542401Y-30335357D01*
X73529643Y-30324887D01*
X73458499Y-30266501D01*
X73389644Y-30182600D01*
X73338479Y-30086878D01*
X73306973Y-29983014D01*
X73299000Y-29902066D01*
X73299000Y-29197933D01*
X73306973Y-29116985D01*
X73338480Y-29013121D01*
X73338482Y-29013118D01*
X73389645Y-28917399D01*
X73458500Y-28833499D01*
X73542401Y-28764643D01*
X73610946Y-28728005D01*
X73638122Y-28713479D01*
X73710296Y-28691586D01*
X73732925Y-28682213D01*
X73745216Y-28674000D01*
X73816799Y-28674000D01*
X73829039Y-28673399D01*
X73850000Y-28671334D01*
X73870961Y-28673399D01*
G37*
G36*
X79151000Y-30426000D02*
G01*
X77549000Y-30426000D01*
X77549000Y-28674000D01*
X79151000Y-28674000D01*
X79151000Y-30426000D01*
G37*
G36*
X77151000Y-30426000D02*
G01*
X75549000Y-30426000D01*
X75549000Y-28674000D01*
X77151000Y-28674000D01*
X77151000Y-30426000D01*
G37*
M02*
