M48
INCH,TZ
T1C0.0157
T2C0.0197
T3C0.0217
T4C0.0300
T5C0.0315
T6C0.0394
T7C0.0433
T8C0.0512
T9C0.0551
T10C0.1575
T11C0.0354
T12C0.1260
%
G90
G05
T1
X11900Y-23000
X12000Y-19900
X13000Y-16200
X13311Y-22342
X13900Y-25000
X14974Y-22572
X15600Y-21000
X15600Y-21900
X16193Y-30126
X16800Y-16500
X16800Y-19800
X18000Y-15200
X18600Y-16500
X18862Y-18390
X19202Y-14602
X20602Y-20689
X22350Y-15756
X23187Y-14300
X23488Y-20358
X24256Y-17217
X24496Y-15957
X25800Y-17900
X25827Y-16169
X25986Y-20461
X26496Y-15236
X27402Y-28071
X28224Y-18681
X28583Y-14724
X29033Y-15728
X29520Y-13543
X30827Y-13583
X30929Y-20669
X33256Y-15311
X34311Y-20148
T4
X21864Y-12539
X22864Y-12539
X23864Y-12539
X24864Y-12539
T5
X22224Y-24933
X22224Y-27933
X23224Y-24933
X23224Y-27933
X24224Y-24933
X24224Y-27933
X25224Y-24933
X25224Y-27933
X21579Y-23783
X25579Y-23783
X23504Y-29252
X23504Y-30236
X15268Y-34256
X16252Y-34256
X31087Y-22618
X31087Y-25618
X32087Y-22618
X32087Y-25618
X33087Y-22618
X33087Y-25618
X34087Y-22618
X34087Y-25618
X27283Y-29961
X28268Y-29961
T6
X31142Y-33445
X28150Y-24134
X28150Y-26102
X25256Y-29232
X25256Y-30020
X34409Y-28878
X13400Y-15100
X22902Y-31827
X23902Y-31827
X14131Y-26280
X29843Y-22402
X31319Y-28752
X18878Y-28051
X18878Y-30020
X15138Y-12953
X16138Y-12953
X17138Y-12953
X25472Y-22449
T7
X30965Y-26894
X33965Y-26894
X15862Y-24900
X15862Y-27900
T8
X18579Y-24008
X18579Y-25976
T9
X30339Y-30846
X31339Y-30846
X32339Y-30846
T10
X19640Y-33520
X27140Y-33520
T11
X31110Y-15906
X31110Y-17638
T12
X12705Y-34626
X19329Y-12736
X19329Y-21791
X27400Y-12736
X27400Y-21791
X33906Y-12417
X12705Y-12421
X33906Y-34626
T2
X29075Y-11764G85X29075Y-11504
G05
X31831Y-11762G85X31831Y-11506
G05
T3
X29528Y-12697G85X29409Y-12697
G05
X31496Y-12697G85X31378Y-12697
G05
T0
M30
