G04 #@! TF.GenerationSoftware,KiCad,Pcbnew,(5.0.1-3-g963ef8bb5)*
G04 #@! TF.CreationDate,2019-10-14T22:43:49-07:00*
G04 #@! TF.ProjectId,powersupply,706F776572737570706C792E6B696361,rev?*
G04 #@! TF.SameCoordinates,Original*
G04 #@! TF.FileFunction,Copper,L2,Bot,Signal*
G04 #@! TF.FilePolarity,Positive*
%FSLAX46Y46*%
G04 Gerber Fmt 4.6, Leading zero omitted, Abs format (unit mm)*
G04 Created by KiCad (PCBNEW (5.0.1-3-g963ef8bb5)) date Monday, October 14, 2019 at 10:43:49 PM*
%MOMM*%
%LPD*%
G01*
G04 APERTURE LIST*
G04 #@! TA.AperFunction,EtchedComponent*
%ADD10C,0.150000*%
G04 #@! TD*
G04 #@! TA.AperFunction,Conductor*
%ADD11C,0.100000*%
G04 #@! TD*
G04 #@! TA.AperFunction,SMDPad,CuDef*
%ADD12C,1.200000*%
G04 #@! TD*
G04 #@! TA.AperFunction,SMDPad,CuDef*
%ADD13R,0.600000X1.500000*%
G04 #@! TD*
G04 #@! TA.AperFunction,SMDPad,CuDef*
%ADD14R,1.000000X1.500000*%
G04 #@! TD*
G04 #@! TA.AperFunction,ComponentPad*
%ADD15C,1.524000*%
G04 #@! TD*
G04 #@! TA.AperFunction,ComponentPad*
%ADD16O,1.700000X1.700000*%
G04 #@! TD*
G04 #@! TA.AperFunction,ComponentPad*
%ADD17R,1.700000X1.700000*%
G04 #@! TD*
G04 #@! TA.AperFunction,ComponentPad*
%ADD18C,1.600000*%
G04 #@! TD*
G04 #@! TA.AperFunction,ComponentPad*
%ADD19R,1.600000X1.600000*%
G04 #@! TD*
G04 #@! TA.AperFunction,ComponentPad*
%ADD20C,2.000000*%
G04 #@! TD*
G04 #@! TA.AperFunction,ComponentPad*
%ADD21R,2.000000X2.000000*%
G04 #@! TD*
G04 #@! TA.AperFunction,ComponentPad*
%ADD22O,1.600000X1.600000*%
G04 #@! TD*
G04 #@! TA.AperFunction,ComponentPad*
%ADD23C,1.700000*%
G04 #@! TD*
G04 #@! TA.AperFunction,ComponentPad*
%ADD24C,2.600000*%
G04 #@! TD*
G04 #@! TA.AperFunction,ComponentPad*
%ADD25C,7.000000*%
G04 #@! TD*
G04 #@! TA.AperFunction,ComponentPad*
%ADD26O,1.250000X0.950000*%
G04 #@! TD*
G04 #@! TA.AperFunction,ComponentPad*
%ADD27O,1.000000X1.650000*%
G04 #@! TD*
G04 #@! TA.AperFunction,ComponentPad*
%ADD28O,2.200000X2.200000*%
G04 #@! TD*
G04 #@! TA.AperFunction,ComponentPad*
%ADD29R,2.200000X2.200000*%
G04 #@! TD*
G04 #@! TA.AperFunction,ViaPad*
%ADD30C,0.800000*%
G04 #@! TD*
G04 #@! TA.AperFunction,Conductor*
%ADD31C,0.400000*%
G04 #@! TD*
G04 #@! TA.AperFunction,Conductor*
%ADD32C,0.250000*%
G04 #@! TD*
G04 #@! TA.AperFunction,Conductor*
%ADD33C,0.200000*%
G04 #@! TD*
G04 APERTURE END LIST*
D10*
G04 #@! TO.C,J104*
X54694000Y-34290000D02*
X55194000Y-34290000D01*
G04 #@! TO.C,J103*
X59266000Y-34290000D02*
X59766000Y-34290000D01*
G04 #@! TD*
D11*
G04 #@! TO.N,+3V3*
G04 #@! TO.C,J104*
G36*
X57142648Y-33542410D02*
X57191223Y-33549615D01*
X57238858Y-33561547D01*
X57285095Y-33578091D01*
X57329487Y-33599087D01*
X57371607Y-33624333D01*
X57411050Y-33653586D01*
X57447436Y-33686564D01*
X57480414Y-33722950D01*
X57509667Y-33762393D01*
X57534913Y-33804513D01*
X57555909Y-33848905D01*
X57572453Y-33895142D01*
X57584385Y-33942777D01*
X57591590Y-33991352D01*
X57594000Y-34040400D01*
X57594000Y-34539600D01*
X57591590Y-34588648D01*
X57584385Y-34637223D01*
X57572453Y-34684858D01*
X57555909Y-34731095D01*
X57534913Y-34775487D01*
X57509667Y-34817607D01*
X57480414Y-34857050D01*
X57447436Y-34893436D01*
X57411050Y-34926414D01*
X57371607Y-34955667D01*
X57329487Y-34980913D01*
X57285095Y-35001909D01*
X57238858Y-35018453D01*
X57191223Y-35030385D01*
X57142648Y-35037590D01*
X57093600Y-35040000D01*
X56894400Y-35040000D01*
X56845352Y-35037590D01*
X56796777Y-35030385D01*
X56749142Y-35018453D01*
X56702905Y-35001909D01*
X56658513Y-34980913D01*
X56616393Y-34955667D01*
X56576950Y-34926414D01*
X56540564Y-34893436D01*
X56507586Y-34857050D01*
X56478333Y-34817607D01*
X56453087Y-34775487D01*
X56432091Y-34731095D01*
X56415547Y-34684858D01*
X56403615Y-34637223D01*
X56396410Y-34588648D01*
X56394000Y-34539600D01*
X56394000Y-34040400D01*
X56396410Y-33991352D01*
X56403615Y-33942777D01*
X56415547Y-33895142D01*
X56432091Y-33848905D01*
X56453087Y-33804513D01*
X56478333Y-33762393D01*
X56507586Y-33722950D01*
X56540564Y-33686564D01*
X56576950Y-33653586D01*
X56616393Y-33624333D01*
X56658513Y-33599087D01*
X56702905Y-33578091D01*
X56749142Y-33561547D01*
X56796777Y-33549615D01*
X56845352Y-33542410D01*
X56894400Y-33540000D01*
X57093600Y-33540000D01*
X57142648Y-33542410D01*
X57142648Y-33542410D01*
G37*
D12*
G04 #@! TD*
G04 #@! TO.P,J104,3*
G04 #@! TO.N,+3V3*
X56994000Y-34290000D03*
D13*
G04 #@! TO.P,J104,3*
G04 #@! TO.N,+3V3*
X56694000Y-34290000D03*
D14*
G04 #@! TO.P,J104,2*
G04 #@! TO.N,Net-(J104-Pad2)*
X55594000Y-34290000D03*
D13*
G04 #@! TO.P,J104,1*
G04 #@! TO.N,GND*
X54494000Y-34290000D03*
D11*
G04 #@! TD*
G04 #@! TO.N,GND*
G04 #@! TO.C,J104*
G36*
X54342648Y-33542410D02*
X54391223Y-33549615D01*
X54438858Y-33561547D01*
X54485095Y-33578091D01*
X54529487Y-33599087D01*
X54571607Y-33624333D01*
X54611050Y-33653586D01*
X54647436Y-33686564D01*
X54680414Y-33722950D01*
X54709667Y-33762393D01*
X54734913Y-33804513D01*
X54755909Y-33848905D01*
X54772453Y-33895142D01*
X54784385Y-33942777D01*
X54791590Y-33991352D01*
X54794000Y-34040400D01*
X54794000Y-34539600D01*
X54791590Y-34588648D01*
X54784385Y-34637223D01*
X54772453Y-34684858D01*
X54755909Y-34731095D01*
X54734913Y-34775487D01*
X54709667Y-34817607D01*
X54680414Y-34857050D01*
X54647436Y-34893436D01*
X54611050Y-34926414D01*
X54571607Y-34955667D01*
X54529487Y-34980913D01*
X54485095Y-35001909D01*
X54438858Y-35018453D01*
X54391223Y-35030385D01*
X54342648Y-35037590D01*
X54293600Y-35040000D01*
X54094400Y-35040000D01*
X54045352Y-35037590D01*
X53996777Y-35030385D01*
X53949142Y-35018453D01*
X53902905Y-35001909D01*
X53858513Y-34980913D01*
X53816393Y-34955667D01*
X53776950Y-34926414D01*
X53740564Y-34893436D01*
X53707586Y-34857050D01*
X53678333Y-34817607D01*
X53653087Y-34775487D01*
X53632091Y-34731095D01*
X53615547Y-34684858D01*
X53603615Y-34637223D01*
X53596410Y-34588648D01*
X53594000Y-34539600D01*
X53594000Y-34040400D01*
X53596410Y-33991352D01*
X53603615Y-33942777D01*
X53615547Y-33895142D01*
X53632091Y-33848905D01*
X53653087Y-33804513D01*
X53678333Y-33762393D01*
X53707586Y-33722950D01*
X53740564Y-33686564D01*
X53776950Y-33653586D01*
X53816393Y-33624333D01*
X53858513Y-33599087D01*
X53902905Y-33578091D01*
X53949142Y-33561547D01*
X53996777Y-33549615D01*
X54045352Y-33542410D01*
X54094400Y-33540000D01*
X54293600Y-33540000D01*
X54342648Y-33542410D01*
X54342648Y-33542410D01*
G37*
D12*
G04 #@! TO.P,J104,1*
G04 #@! TO.N,GND*
X54194000Y-34290000D03*
G04 #@! TD*
D15*
G04 #@! TO.P,MOD1,1*
G04 #@! TO.N,Net-(J104-Pad2)*
X55535000Y-31850000D03*
G04 #@! TO.P,MOD1,2*
G04 #@! TO.N,Net-(J103-Pad2)*
X58075000Y-31850000D03*
G04 #@! TO.P,MOD1,3*
G04 #@! TO.N,/SCK*
X60615000Y-31850000D03*
G04 #@! TO.P,MOD1,4*
G04 #@! TO.N,/SDA*
X63155000Y-31850000D03*
G04 #@! TD*
D11*
G04 #@! TO.N,GND*
G04 #@! TO.C,J103*
G36*
X61714648Y-33542410D02*
X61763223Y-33549615D01*
X61810858Y-33561547D01*
X61857095Y-33578091D01*
X61901487Y-33599087D01*
X61943607Y-33624333D01*
X61983050Y-33653586D01*
X62019436Y-33686564D01*
X62052414Y-33722950D01*
X62081667Y-33762393D01*
X62106913Y-33804513D01*
X62127909Y-33848905D01*
X62144453Y-33895142D01*
X62156385Y-33942777D01*
X62163590Y-33991352D01*
X62166000Y-34040400D01*
X62166000Y-34539600D01*
X62163590Y-34588648D01*
X62156385Y-34637223D01*
X62144453Y-34684858D01*
X62127909Y-34731095D01*
X62106913Y-34775487D01*
X62081667Y-34817607D01*
X62052414Y-34857050D01*
X62019436Y-34893436D01*
X61983050Y-34926414D01*
X61943607Y-34955667D01*
X61901487Y-34980913D01*
X61857095Y-35001909D01*
X61810858Y-35018453D01*
X61763223Y-35030385D01*
X61714648Y-35037590D01*
X61665600Y-35040000D01*
X61466400Y-35040000D01*
X61417352Y-35037590D01*
X61368777Y-35030385D01*
X61321142Y-35018453D01*
X61274905Y-35001909D01*
X61230513Y-34980913D01*
X61188393Y-34955667D01*
X61148950Y-34926414D01*
X61112564Y-34893436D01*
X61079586Y-34857050D01*
X61050333Y-34817607D01*
X61025087Y-34775487D01*
X61004091Y-34731095D01*
X60987547Y-34684858D01*
X60975615Y-34637223D01*
X60968410Y-34588648D01*
X60966000Y-34539600D01*
X60966000Y-34040400D01*
X60968410Y-33991352D01*
X60975615Y-33942777D01*
X60987547Y-33895142D01*
X61004091Y-33848905D01*
X61025087Y-33804513D01*
X61050333Y-33762393D01*
X61079586Y-33722950D01*
X61112564Y-33686564D01*
X61148950Y-33653586D01*
X61188393Y-33624333D01*
X61230513Y-33599087D01*
X61274905Y-33578091D01*
X61321142Y-33561547D01*
X61368777Y-33549615D01*
X61417352Y-33542410D01*
X61466400Y-33540000D01*
X61665600Y-33540000D01*
X61714648Y-33542410D01*
X61714648Y-33542410D01*
G37*
D12*
G04 #@! TD*
G04 #@! TO.P,J103,3*
G04 #@! TO.N,GND*
X61566000Y-34290000D03*
D13*
G04 #@! TO.P,J103,3*
G04 #@! TO.N,GND*
X61266000Y-34290000D03*
D14*
G04 #@! TO.P,J103,2*
G04 #@! TO.N,Net-(J103-Pad2)*
X60166000Y-34290000D03*
D13*
G04 #@! TO.P,J103,1*
G04 #@! TO.N,+3V3*
X59066000Y-34290000D03*
D11*
G04 #@! TD*
G04 #@! TO.N,+3V3*
G04 #@! TO.C,J103*
G36*
X58914648Y-33542410D02*
X58963223Y-33549615D01*
X59010858Y-33561547D01*
X59057095Y-33578091D01*
X59101487Y-33599087D01*
X59143607Y-33624333D01*
X59183050Y-33653586D01*
X59219436Y-33686564D01*
X59252414Y-33722950D01*
X59281667Y-33762393D01*
X59306913Y-33804513D01*
X59327909Y-33848905D01*
X59344453Y-33895142D01*
X59356385Y-33942777D01*
X59363590Y-33991352D01*
X59366000Y-34040400D01*
X59366000Y-34539600D01*
X59363590Y-34588648D01*
X59356385Y-34637223D01*
X59344453Y-34684858D01*
X59327909Y-34731095D01*
X59306913Y-34775487D01*
X59281667Y-34817607D01*
X59252414Y-34857050D01*
X59219436Y-34893436D01*
X59183050Y-34926414D01*
X59143607Y-34955667D01*
X59101487Y-34980913D01*
X59057095Y-35001909D01*
X59010858Y-35018453D01*
X58963223Y-35030385D01*
X58914648Y-35037590D01*
X58865600Y-35040000D01*
X58666400Y-35040000D01*
X58617352Y-35037590D01*
X58568777Y-35030385D01*
X58521142Y-35018453D01*
X58474905Y-35001909D01*
X58430513Y-34980913D01*
X58388393Y-34955667D01*
X58348950Y-34926414D01*
X58312564Y-34893436D01*
X58279586Y-34857050D01*
X58250333Y-34817607D01*
X58225087Y-34775487D01*
X58204091Y-34731095D01*
X58187547Y-34684858D01*
X58175615Y-34637223D01*
X58168410Y-34588648D01*
X58166000Y-34539600D01*
X58166000Y-34040400D01*
X58168410Y-33991352D01*
X58175615Y-33942777D01*
X58187547Y-33895142D01*
X58204091Y-33848905D01*
X58225087Y-33804513D01*
X58250333Y-33762393D01*
X58279586Y-33722950D01*
X58312564Y-33686564D01*
X58348950Y-33653586D01*
X58388393Y-33624333D01*
X58430513Y-33599087D01*
X58474905Y-33578091D01*
X58521142Y-33561547D01*
X58568777Y-33549615D01*
X58617352Y-33542410D01*
X58666400Y-33540000D01*
X58865600Y-33540000D01*
X58914648Y-33542410D01*
X58914648Y-33542410D01*
G37*
D12*
G04 #@! TO.P,J103,1*
G04 #@! TO.N,+3V3*
X58766000Y-34290000D03*
G04 #@! TD*
D16*
G04 #@! TO.P,J102,3*
G04 #@! TO.N,/SWCLK*
X43530000Y-32900000D03*
G04 #@! TO.P,J102,2*
G04 #@! TO.N,GND*
X40990000Y-32900000D03*
D17*
G04 #@! TO.P,J102,1*
G04 #@! TO.N,/SWDIO*
X38450000Y-32900000D03*
G04 #@! TD*
G04 #@! TO.P,TP4,1*
G04 #@! TO.N,/V_boost_ctrl*
X75500000Y-57050000D03*
G04 #@! TD*
G04 #@! TO.P,TP7,1*
G04 #@! TO.N,GND*
X79100000Y-84950000D03*
G04 #@! TD*
G04 #@! TO.P,TP6,1*
G04 #@! TO.N,/Boost_out*
X79550000Y-73030000D03*
G04 #@! TD*
G04 #@! TO.P,TP5,1*
G04 #@! TO.N,/Voltage_limit_divider*
X87400000Y-73350000D03*
G04 #@! TD*
G04 #@! TO.P,TP3,1*
G04 #@! TO.N,/Current_limit_divider*
X64700000Y-57020000D03*
G04 #@! TD*
G04 #@! TO.P,TP2,1*
G04 #@! TO.N,+3V3*
X35892000Y-66750000D03*
G04 #@! TD*
G04 #@! TO.P,TP1,1*
G04 #@! TO.N,+5V*
X34036000Y-38354000D03*
G04 #@! TD*
D18*
G04 #@! TO.P,C1,2*
G04 #@! TO.N,/V_negative_out*
X38780000Y-87010000D03*
D19*
G04 #@! TO.P,C1,1*
G04 #@! TO.N,/V_positive_out*
X41280000Y-87010000D03*
G04 #@! TD*
D20*
G04 #@! TO.P,C5,2*
G04 #@! TO.N,GND*
X47950000Y-76250000D03*
D21*
G04 #@! TO.P,C5,1*
G04 #@! TO.N,Net-(C5-Pad1)*
X47950000Y-71250000D03*
G04 #@! TD*
D20*
G04 #@! TO.P,C4,2*
G04 #@! TO.N,GND*
X71500000Y-66300000D03*
D21*
G04 #@! TO.P,C4,1*
G04 #@! TO.N,+5V*
X71500000Y-61300000D03*
G04 #@! TD*
D22*
G04 #@! TO.P,U3,8*
G04 #@! TO.N,/Boost_out*
X78960000Y-57450000D03*
G04 #@! TO.P,U3,4*
G04 #@! TO.N,GND*
X86580000Y-65070000D03*
G04 #@! TO.P,U3,7*
G04 #@! TO.N,Net-(R119-Pad2)*
X81500000Y-57450000D03*
G04 #@! TO.P,U3,3*
G04 #@! TO.N,Net-(R117-Pad1)*
X84040000Y-65070000D03*
G04 #@! TO.P,U3,6*
G04 #@! TO.N,/V_lin_ctrl*
X84040000Y-57450000D03*
G04 #@! TO.P,U3,2*
G04 #@! TO.N,/Current_limit_divider*
X81500000Y-65070000D03*
G04 #@! TO.P,U3,5*
G04 #@! TO.N,/Voltage_limit_divider*
X86580000Y-57450000D03*
D19*
G04 #@! TO.P,U3,1*
G04 #@! TO.N,Net-(D3-Pad2)*
X78960000Y-65070000D03*
G04 #@! TD*
D22*
G04 #@! TO.P,U2,8*
G04 #@! TO.N,Net-(R102-Pad1)*
X56450000Y-63330000D03*
G04 #@! TO.P,U2,4*
G04 #@! TO.N,GND*
X64070000Y-70950000D03*
G04 #@! TO.P,U2,7*
G04 #@! TO.N,Net-(L1-Pad1)*
X58990000Y-63330000D03*
G04 #@! TO.P,U2,3*
G04 #@! TO.N,Net-(C3-Pad1)*
X61530000Y-70950000D03*
G04 #@! TO.P,U2,6*
G04 #@! TO.N,+5V*
X61530000Y-63330000D03*
G04 #@! TO.P,U2,2*
G04 #@! TO.N,GND*
X58990000Y-70950000D03*
G04 #@! TO.P,U2,5*
G04 #@! TO.N,Net-(R106-Pad2)*
X64070000Y-63330000D03*
D19*
G04 #@! TO.P,U2,1*
G04 #@! TO.N,Net-(D2-Pad2)*
X56450000Y-70950000D03*
G04 #@! TD*
D23*
G04 #@! TO.P,L2,2*
G04 #@! TO.N,/Boost_out*
X64150000Y-76250000D03*
G04 #@! TO.P,L2,1*
G04 #@! TO.N,Net-(C5-Pad1)*
X64150000Y-74250000D03*
G04 #@! TD*
D16*
G04 #@! TO.P,J2,2*
G04 #@! TO.N,/V_negative_out*
X58170000Y-80840000D03*
D17*
G04 #@! TO.P,J2,1*
G04 #@! TO.N,/V_positive_out*
X60710000Y-80840000D03*
G04 #@! TD*
D18*
G04 #@! TO.P,C2,2*
G04 #@! TO.N,GND*
X69300000Y-76100000D03*
D19*
G04 #@! TO.P,C2,1*
G04 #@! TO.N,/Boost_out*
X71800000Y-76100000D03*
G04 #@! TD*
D24*
G04 #@! TO.P,L1,2*
G04 #@! TO.N,Net-(D2-Pad2)*
X47190000Y-65980000D03*
G04 #@! TO.P,L1,1*
G04 #@! TO.N,Net-(L1-Pad1)*
X47190000Y-60980000D03*
G04 #@! TD*
D25*
G04 #@! TO.P,J1,2*
G04 #@! TO.N,/V_negative_out*
X49885000Y-85140000D03*
G04 #@! TO.P,J1,1*
G04 #@! TO.N,/V_positive_out*
X68935000Y-85140000D03*
G04 #@! TD*
D22*
G04 #@! TO.P,R3,2*
G04 #@! TO.N,+5V*
X64970000Y-60410000D03*
D18*
G04 #@! TO.P,R3,1*
G04 #@! TO.N,Net-(L1-Pad1)*
X54810000Y-60410000D03*
G04 #@! TD*
D20*
G04 #@! TO.P,Q1,1*
G04 #@! TO.N,Net-(D3-Pad1)*
X82140000Y-78350000D03*
G04 #@! TO.P,Q1,2*
G04 #@! TO.N,/V_positive_out*
X79600000Y-78350000D03*
G04 #@! TO.P,Q1,3*
G04 #@! TO.N,/Boost_out*
X77060000Y-78350000D03*
G04 #@! TD*
D26*
G04 #@! TO.P,J101,6*
G04 #@! TO.N,GND*
X74850000Y-32250000D03*
D27*
X80850000Y-29550000D03*
X73850000Y-29550000D03*
D26*
X79850000Y-32250000D03*
G04 #@! TD*
D28*
G04 #@! TO.P,D3,2*
G04 #@! TO.N,Net-(D3-Pad2)*
X78650000Y-68310000D03*
D29*
G04 #@! TO.P,D3,1*
G04 #@! TO.N,Net-(D3-Pad1)*
X86270000Y-68310000D03*
G04 #@! TD*
D28*
G04 #@! TO.P,D2,2*
G04 #@! TO.N,Net-(D2-Pad2)*
X40290000Y-63246000D03*
D29*
G04 #@! TO.P,D2,1*
G04 #@! TO.N,Net-(C5-Pad1)*
X40290000Y-70866000D03*
G04 #@! TD*
D18*
G04 #@! TO.P,C3,2*
G04 #@! TO.N,GND*
X59700000Y-76800000D03*
G04 #@! TO.P,C3,1*
G04 #@! TO.N,Net-(C3-Pad1)*
X59700000Y-74300000D03*
G04 #@! TD*
D30*
G04 #@! TO.N,+5V*
X78300000Y-34500000D03*
X74980000Y-34400000D03*
X39624000Y-55626000D03*
X39624000Y-53340000D03*
G04 #@! TO.N,+3V3*
X35306000Y-63500000D03*
X58896000Y-36322000D03*
G04 #@! TO.N,GND*
X33810000Y-56748000D03*
X78560000Y-52500000D03*
X87150000Y-51175010D03*
X62220000Y-40530000D03*
X65600000Y-41070000D03*
X71690000Y-47450000D03*
X47910000Y-46710000D03*
X52330000Y-52550000D03*
X56770000Y-40020000D03*
X84470000Y-38890000D03*
X59660000Y-51710000D03*
X73744979Y-39950000D03*
X41130000Y-76520000D03*
X61610000Y-43730000D03*
X47244000Y-41910000D03*
X42672000Y-41910000D03*
X48772653Y-37088653D03*
X45720000Y-38608000D03*
X33020000Y-41148000D03*
X30226000Y-58420000D03*
X38034990Y-57332990D03*
X65532000Y-45466000D03*
X30480000Y-50546000D03*
X42672000Y-50292000D03*
X69600000Y-71300000D03*
X66003990Y-51970690D03*
G04 #@! TO.N,/SWCLK*
X67300000Y-38700000D03*
G04 #@! TO.N,/SWDIO*
X72600000Y-37400000D03*
G04 #@! TD*
D31*
G04 #@! TO.N,+5V*
X78300000Y-34500000D02*
X75080000Y-34500000D01*
X75080000Y-34500000D02*
X74980000Y-34400000D01*
D32*
X39624000Y-53340000D02*
X39624000Y-55626000D01*
G04 #@! TO.N,/Boost_out*
X65144990Y-77244990D02*
X64150000Y-76250000D01*
X71705010Y-77244990D02*
X65144990Y-77244990D01*
X71800000Y-77150000D02*
X71705010Y-77244990D01*
X71800000Y-76100000D02*
X71800000Y-77150000D01*
G04 #@! TO.N,+3V3*
X35892000Y-64086000D02*
X35892000Y-66750000D01*
X35306000Y-63500000D02*
X35892000Y-64086000D01*
X58896000Y-35756315D02*
X58896000Y-36322000D01*
X58896000Y-34690010D02*
X58896000Y-35756315D01*
X56483151Y-34572850D02*
X56600311Y-34690010D01*
X56600311Y-34690010D02*
X56896000Y-34690010D01*
X59066000Y-34290000D02*
X56694000Y-34290000D01*
G04 #@! TO.N,/Voltage_limit_divider*
X87620002Y-73020000D02*
X87740000Y-73139998D01*
G04 #@! TO.N,/SWCLK*
X67300000Y-35000000D02*
X67300000Y-38700000D01*
X64900000Y-32600000D02*
X67300000Y-35000000D01*
X64900000Y-31100000D02*
X64900000Y-32600000D01*
X63100000Y-29300000D02*
X64900000Y-31100000D01*
X47130000Y-29300000D02*
X63100000Y-29300000D01*
X43530000Y-32900000D02*
X47130000Y-29300000D01*
G04 #@! TO.N,/SWDIO*
X38450000Y-31800000D02*
X38450000Y-32900000D01*
X41450000Y-28800000D02*
X38450000Y-31800000D01*
X71300000Y-28800000D02*
X41450000Y-28800000D01*
X73000000Y-30500000D02*
X71300000Y-28800000D01*
X73000000Y-37000000D02*
X73000000Y-30500000D01*
X72600000Y-37400000D02*
X73000000Y-37000000D01*
G04 #@! TO.N,Net-(J103-Pad2)*
X58075000Y-31850000D02*
X58360000Y-32135000D01*
X60166000Y-33290000D02*
X60166000Y-34290000D01*
X59487999Y-32611999D02*
X60166000Y-33290000D01*
X58836999Y-32611999D02*
X59487999Y-32611999D01*
X58075000Y-31850000D02*
X58836999Y-32611999D01*
G04 #@! TO.N,Net-(J104-Pad2)*
X55594000Y-31909000D02*
X55535000Y-31850000D01*
X55594000Y-34290000D02*
X55594000Y-31909000D01*
G04 #@! TD*
D33*
G04 #@! TO.N,GND*
G36*
X37962524Y-31262172D02*
X37934868Y-31284869D01*
X37912172Y-31312524D01*
X37912170Y-31312526D01*
X37857791Y-31378787D01*
X37844269Y-31395264D01*
X37816563Y-31447097D01*
X37600000Y-31447097D01*
X37482379Y-31458682D01*
X37369279Y-31492990D01*
X37265045Y-31548704D01*
X37173683Y-31623683D01*
X37098704Y-31715045D01*
X37042990Y-31819279D01*
X37008682Y-31932379D01*
X36997097Y-32050000D01*
X36997097Y-33750000D01*
X37008682Y-33867621D01*
X37042990Y-33980721D01*
X37098704Y-34084955D01*
X37173683Y-34176317D01*
X37265045Y-34251296D01*
X37369279Y-34307010D01*
X37482379Y-34341318D01*
X37600000Y-34352903D01*
X39300000Y-34352903D01*
X39417621Y-34341318D01*
X39530721Y-34307010D01*
X39634955Y-34251296D01*
X39726317Y-34176317D01*
X39801296Y-34084955D01*
X39857010Y-33980721D01*
X39891318Y-33867621D01*
X39902903Y-33750000D01*
X39902903Y-33689892D01*
X39999004Y-33816748D01*
X40196894Y-33992467D01*
X40425263Y-34126203D01*
X40675335Y-34212817D01*
X40778320Y-34233301D01*
X40989500Y-34125000D01*
X40989500Y-32900500D01*
X40969500Y-32900500D01*
X40969500Y-32899500D01*
X40989500Y-32899500D01*
X40989500Y-31675000D01*
X40778320Y-31566699D01*
X40675335Y-31587183D01*
X40425263Y-31673797D01*
X40196894Y-31807533D01*
X39999004Y-31983252D01*
X39902903Y-32110108D01*
X39902903Y-32050000D01*
X39891318Y-31932379D01*
X39857010Y-31819279D01*
X39801296Y-31715045D01*
X39726317Y-31623683D01*
X39685291Y-31590014D01*
X41750305Y-29525000D01*
X45879695Y-29525000D01*
X43905910Y-31498786D01*
X43814250Y-31470981D01*
X43601225Y-31450000D01*
X43458775Y-31450000D01*
X43245750Y-31470981D01*
X42972424Y-31553894D01*
X42720526Y-31688536D01*
X42499735Y-31869735D01*
X42318536Y-32090526D01*
X42199023Y-32314120D01*
X42140803Y-32194201D01*
X41980996Y-31983252D01*
X41783106Y-31807533D01*
X41554737Y-31673797D01*
X41304665Y-31587183D01*
X41201680Y-31566699D01*
X40990500Y-31675000D01*
X40990500Y-32899500D01*
X41010500Y-32899500D01*
X41010500Y-32900500D01*
X40990500Y-32900500D01*
X40990500Y-34125000D01*
X41201680Y-34233301D01*
X41304665Y-34212817D01*
X41554737Y-34126203D01*
X41783106Y-33992467D01*
X41980996Y-33816748D01*
X42140803Y-33605799D01*
X42199023Y-33485880D01*
X42318536Y-33709474D01*
X42499735Y-33930265D01*
X42720526Y-34111464D01*
X42972424Y-34246106D01*
X43245750Y-34329019D01*
X43458775Y-34350000D01*
X43601225Y-34350000D01*
X43814250Y-34329019D01*
X44087576Y-34246106D01*
X44339474Y-34111464D01*
X44560265Y-33930265D01*
X44741464Y-33709474D01*
X44876106Y-33457576D01*
X44959019Y-33184250D01*
X44987015Y-32900000D01*
X44959019Y-32615750D01*
X44931214Y-32524090D01*
X45321985Y-32133319D01*
X46895000Y-32133319D01*
X46895000Y-32566681D01*
X46979545Y-32991716D01*
X47145385Y-33392091D01*
X47386148Y-33752418D01*
X47692582Y-34058852D01*
X48052909Y-34299615D01*
X48453284Y-34465455D01*
X48878319Y-34550000D01*
X49311681Y-34550000D01*
X49736716Y-34465455D01*
X50137091Y-34299615D01*
X50497418Y-34058852D01*
X50803852Y-33752418D01*
X51044615Y-33392091D01*
X51210455Y-32991716D01*
X51295000Y-32566681D01*
X51295000Y-32133319D01*
X51210455Y-31708284D01*
X51044615Y-31307909D01*
X50803852Y-30947582D01*
X50497418Y-30641148D01*
X50137091Y-30400385D01*
X49736716Y-30234545D01*
X49311681Y-30150000D01*
X48878319Y-30150000D01*
X48453284Y-30234545D01*
X48052909Y-30400385D01*
X47692582Y-30641148D01*
X47386148Y-30947582D01*
X47145385Y-31307909D01*
X46979545Y-31708284D01*
X46895000Y-32133319D01*
X45321985Y-32133319D01*
X47430305Y-30025000D01*
X62799696Y-30025000D01*
X63262696Y-30488000D01*
X63020855Y-30488000D01*
X62757719Y-30540341D01*
X62509851Y-30643011D01*
X62286776Y-30792066D01*
X62097066Y-30981776D01*
X61948011Y-31204851D01*
X61885000Y-31356973D01*
X61821989Y-31204851D01*
X61672934Y-30981776D01*
X61483224Y-30792066D01*
X61260149Y-30643011D01*
X61012281Y-30540341D01*
X60749145Y-30488000D01*
X60480855Y-30488000D01*
X60217719Y-30540341D01*
X59969851Y-30643011D01*
X59746776Y-30792066D01*
X59557066Y-30981776D01*
X59408011Y-31204851D01*
X59345000Y-31356973D01*
X59281989Y-31204851D01*
X59132934Y-30981776D01*
X58943224Y-30792066D01*
X58720149Y-30643011D01*
X58472281Y-30540341D01*
X58209145Y-30488000D01*
X57940855Y-30488000D01*
X57677719Y-30540341D01*
X57429851Y-30643011D01*
X57206776Y-30792066D01*
X57017066Y-30981776D01*
X56868011Y-31204851D01*
X56805000Y-31356973D01*
X56741989Y-31204851D01*
X56592934Y-30981776D01*
X56403224Y-30792066D01*
X56180149Y-30643011D01*
X55932281Y-30540341D01*
X55669145Y-30488000D01*
X55400855Y-30488000D01*
X55137719Y-30540341D01*
X54889851Y-30643011D01*
X54666776Y-30792066D01*
X54477066Y-30981776D01*
X54328011Y-31204851D01*
X54225341Y-31452719D01*
X54173000Y-31715855D01*
X54173000Y-31984145D01*
X54225341Y-32247281D01*
X54328011Y-32495149D01*
X54477066Y-32718224D01*
X54666776Y-32907934D01*
X54816514Y-33007986D01*
X54759045Y-33038704D01*
X54757466Y-33040000D01*
X54144754Y-33040000D01*
X54081151Y-33052651D01*
X54068500Y-33040000D01*
X53544754Y-33040000D01*
X53448155Y-33059215D01*
X53357161Y-33096906D01*
X53275268Y-33151625D01*
X53205624Y-33221269D01*
X53150906Y-33303161D01*
X53113215Y-33394156D01*
X53094000Y-33490755D01*
X53094000Y-34164500D01*
X53219000Y-34289500D01*
X54015783Y-34289500D01*
X54015734Y-34290000D01*
X54015783Y-34290500D01*
X53219000Y-34290500D01*
X53094000Y-34415500D01*
X53094000Y-35089245D01*
X53113215Y-35185844D01*
X53150906Y-35276839D01*
X53205624Y-35358731D01*
X53275268Y-35428375D01*
X53357161Y-35483094D01*
X53448155Y-35520785D01*
X53544754Y-35540000D01*
X54068500Y-35540000D01*
X54081151Y-35527349D01*
X54144754Y-35540000D01*
X54757466Y-35540000D01*
X54759045Y-35541296D01*
X54863279Y-35597010D01*
X54976379Y-35631318D01*
X55094000Y-35642903D01*
X56094000Y-35642903D01*
X56211621Y-35631318D01*
X56244000Y-35621496D01*
X56276379Y-35631318D01*
X56394000Y-35642903D01*
X57093600Y-35642903D01*
X57308844Y-35621703D01*
X57515816Y-35558919D01*
X57706562Y-35456963D01*
X57873753Y-35319753D01*
X57880000Y-35312141D01*
X57886247Y-35319753D01*
X58053438Y-35456963D01*
X58171001Y-35519802D01*
X58171001Y-35632785D01*
X58119249Y-35684537D01*
X58009811Y-35848322D01*
X57934429Y-36030311D01*
X57896000Y-36223509D01*
X57896000Y-36420491D01*
X57934429Y-36613689D01*
X58009811Y-36795678D01*
X58119249Y-36959463D01*
X58258537Y-37098751D01*
X58422322Y-37208189D01*
X58604311Y-37283571D01*
X58797509Y-37322000D01*
X58994491Y-37322000D01*
X59187689Y-37283571D01*
X59369678Y-37208189D01*
X59533463Y-37098751D01*
X59672751Y-36959463D01*
X59782189Y-36795678D01*
X59857571Y-36613689D01*
X59896000Y-36420491D01*
X59896000Y-36223509D01*
X59857571Y-36030311D01*
X59782189Y-35848322D01*
X59672751Y-35684537D01*
X59627306Y-35639092D01*
X59666000Y-35642903D01*
X60666000Y-35642903D01*
X60783621Y-35631318D01*
X60896721Y-35597010D01*
X61000955Y-35541296D01*
X61002534Y-35540000D01*
X61615246Y-35540000D01*
X61678849Y-35527349D01*
X61691500Y-35540000D01*
X62215246Y-35540000D01*
X62311845Y-35520785D01*
X62402839Y-35483094D01*
X62484732Y-35428375D01*
X62554376Y-35358731D01*
X62609094Y-35276839D01*
X62646785Y-35185844D01*
X62666000Y-35089245D01*
X62666000Y-34415500D01*
X62541000Y-34290500D01*
X61545500Y-34290500D01*
X61545500Y-34289500D01*
X62541000Y-34289500D01*
X62666000Y-34164500D01*
X62666000Y-33490755D01*
X62646785Y-33394156D01*
X62609094Y-33303161D01*
X62554376Y-33221269D01*
X62484732Y-33151625D01*
X62402839Y-33096906D01*
X62311845Y-33059215D01*
X62215246Y-33040000D01*
X61691500Y-33040000D01*
X61678849Y-33052651D01*
X61615246Y-33040000D01*
X61285575Y-33040000D01*
X61483224Y-32907934D01*
X61672934Y-32718224D01*
X61821989Y-32495149D01*
X61885000Y-32343027D01*
X61948011Y-32495149D01*
X62097066Y-32718224D01*
X62286776Y-32907934D01*
X62509851Y-33056989D01*
X62757719Y-33159659D01*
X63020855Y-33212000D01*
X63289145Y-33212000D01*
X63552281Y-33159659D01*
X63800149Y-33056989D01*
X64023224Y-32907934D01*
X64186316Y-32744842D01*
X64226947Y-32878787D01*
X64294269Y-33004736D01*
X64362170Y-33087474D01*
X64362173Y-33087477D01*
X64384869Y-33115132D01*
X64412523Y-33137827D01*
X66575000Y-35300305D01*
X66575001Y-38010785D01*
X66523249Y-38062537D01*
X66413811Y-38226322D01*
X66338429Y-38408311D01*
X66300000Y-38601509D01*
X66300000Y-38798491D01*
X66338429Y-38991689D01*
X66413811Y-39173678D01*
X66523249Y-39337463D01*
X66662537Y-39476751D01*
X66826322Y-39586189D01*
X67008311Y-39661571D01*
X67201509Y-39700000D01*
X67398491Y-39700000D01*
X67591689Y-39661571D01*
X67773678Y-39586189D01*
X67937463Y-39476751D01*
X68076751Y-39337463D01*
X68186189Y-39173678D01*
X68261571Y-38991689D01*
X68300000Y-38798491D01*
X68300000Y-38601509D01*
X68261571Y-38408311D01*
X68186189Y-38226322D01*
X68076751Y-38062537D01*
X68025000Y-38010786D01*
X68025000Y-35035600D01*
X68028506Y-35000000D01*
X68025000Y-34964400D01*
X68025000Y-34964393D01*
X68014509Y-34857875D01*
X67973053Y-34721212D01*
X67958901Y-34694736D01*
X67905732Y-34595263D01*
X67837830Y-34512525D01*
X67837823Y-34512518D01*
X67815131Y-34484868D01*
X67787482Y-34462177D01*
X65625000Y-32299696D01*
X65625000Y-32133319D01*
X67395000Y-32133319D01*
X67395000Y-32566681D01*
X67479545Y-32991716D01*
X67645385Y-33392091D01*
X67886148Y-33752418D01*
X68192582Y-34058852D01*
X68552909Y-34299615D01*
X68953284Y-34465455D01*
X69378319Y-34550000D01*
X69811681Y-34550000D01*
X70236716Y-34465455D01*
X70637091Y-34299615D01*
X70997418Y-34058852D01*
X71303852Y-33752418D01*
X71544615Y-33392091D01*
X71710455Y-32991716D01*
X71795000Y-32566681D01*
X71795000Y-32133319D01*
X71710455Y-31708284D01*
X71544615Y-31307909D01*
X71303852Y-30947582D01*
X70997418Y-30641148D01*
X70637091Y-30400385D01*
X70236716Y-30234545D01*
X69811681Y-30150000D01*
X69378319Y-30150000D01*
X68953284Y-30234545D01*
X68552909Y-30400385D01*
X68192582Y-30641148D01*
X67886148Y-30947582D01*
X67645385Y-31307909D01*
X67479545Y-31708284D01*
X67395000Y-32133319D01*
X65625000Y-32133319D01*
X65625000Y-31135596D01*
X65628506Y-31099999D01*
X65625000Y-31064402D01*
X65625000Y-31064393D01*
X65614509Y-30957875D01*
X65573053Y-30821212D01*
X65505731Y-30695263D01*
X65493055Y-30679817D01*
X65437830Y-30612525D01*
X65437823Y-30612518D01*
X65415131Y-30584868D01*
X65387482Y-30562177D01*
X64350304Y-29525000D01*
X70999696Y-29525000D01*
X72275001Y-30800306D01*
X72275000Y-36452227D01*
X72126322Y-36513811D01*
X71962537Y-36623249D01*
X71823249Y-36762537D01*
X71713811Y-36926322D01*
X71638429Y-37108311D01*
X71600000Y-37301509D01*
X71600000Y-37498491D01*
X71638429Y-37691689D01*
X71713811Y-37873678D01*
X71823249Y-38037463D01*
X71962537Y-38176751D01*
X72126322Y-38286189D01*
X72308311Y-38361571D01*
X72501509Y-38400000D01*
X72698491Y-38400000D01*
X72891689Y-38361571D01*
X73073678Y-38286189D01*
X73237463Y-38176751D01*
X73376751Y-38037463D01*
X73486189Y-37873678D01*
X73561571Y-37691689D01*
X73600000Y-37498491D01*
X73600000Y-37411720D01*
X73605731Y-37404737D01*
X73673053Y-37278788D01*
X73714509Y-37142125D01*
X73725000Y-37035607D01*
X73725000Y-37035598D01*
X73728506Y-37000001D01*
X73725000Y-36964404D01*
X73725000Y-34301509D01*
X73980000Y-34301509D01*
X73980000Y-34498491D01*
X74018429Y-34691689D01*
X74093811Y-34873678D01*
X74203249Y-35037463D01*
X74342537Y-35176751D01*
X74506322Y-35286189D01*
X74688311Y-35361571D01*
X74881509Y-35400000D01*
X75078491Y-35400000D01*
X75271689Y-35361571D01*
X75420335Y-35300000D01*
X77697331Y-35300000D01*
X77826322Y-35386189D01*
X78008311Y-35461571D01*
X78201509Y-35500000D01*
X78398491Y-35500000D01*
X78591689Y-35461571D01*
X78773678Y-35386189D01*
X78937463Y-35276751D01*
X79076751Y-35137463D01*
X79186189Y-34973678D01*
X79261571Y-34791689D01*
X79300000Y-34598491D01*
X79300000Y-34401509D01*
X79261571Y-34208311D01*
X79186189Y-34026322D01*
X79076751Y-33862537D01*
X78937463Y-33723249D01*
X78773678Y-33613811D01*
X78591689Y-33538429D01*
X78398491Y-33500000D01*
X78201509Y-33500000D01*
X78008311Y-33538429D01*
X77826322Y-33613811D01*
X77697331Y-33700000D01*
X75694214Y-33700000D01*
X75617463Y-33623249D01*
X75453678Y-33513811D01*
X75271689Y-33438429D01*
X75078491Y-33400000D01*
X74881509Y-33400000D01*
X74688311Y-33438429D01*
X74506322Y-33513811D01*
X74342537Y-33623249D01*
X74203249Y-33762537D01*
X74093811Y-33926322D01*
X74018429Y-34108311D01*
X73980000Y-34301509D01*
X73725000Y-34301509D01*
X73725000Y-32403017D01*
X73737082Y-32403017D01*
X73743638Y-32439723D01*
X73799027Y-32622655D01*
X73889040Y-32791266D01*
X74010218Y-32939076D01*
X74157904Y-33060405D01*
X74326422Y-33150591D01*
X74509297Y-33206168D01*
X74699500Y-33225000D01*
X74849500Y-33225000D01*
X74849500Y-32250500D01*
X74850500Y-32250500D01*
X74850500Y-33225000D01*
X75000500Y-33225000D01*
X75190703Y-33206168D01*
X75373578Y-33150591D01*
X75542096Y-33060405D01*
X75689782Y-32939076D01*
X75810960Y-32791266D01*
X75900973Y-32622655D01*
X75956362Y-32439723D01*
X75962918Y-32403017D01*
X78737082Y-32403017D01*
X78743638Y-32439723D01*
X78799027Y-32622655D01*
X78889040Y-32791266D01*
X79010218Y-32939076D01*
X79157904Y-33060405D01*
X79326422Y-33150591D01*
X79509297Y-33206168D01*
X79699500Y-33225000D01*
X79849500Y-33225000D01*
X79849500Y-32250500D01*
X79850500Y-32250500D01*
X79850500Y-33225000D01*
X80000500Y-33225000D01*
X80190703Y-33206168D01*
X80373578Y-33150591D01*
X80542096Y-33060405D01*
X80689782Y-32939076D01*
X80810960Y-32791266D01*
X80900973Y-32622655D01*
X80956362Y-32439723D01*
X80962918Y-32403017D01*
X80850000Y-32250500D01*
X79850500Y-32250500D01*
X79849500Y-32250500D01*
X78850000Y-32250500D01*
X78737082Y-32403017D01*
X75962918Y-32403017D01*
X75850000Y-32250500D01*
X74850500Y-32250500D01*
X74849500Y-32250500D01*
X73850000Y-32250500D01*
X73737082Y-32403017D01*
X73725000Y-32403017D01*
X73725000Y-32096983D01*
X73737082Y-32096983D01*
X73850000Y-32249500D01*
X74849500Y-32249500D01*
X74849500Y-31275000D01*
X74850500Y-31275000D01*
X74850500Y-32249500D01*
X75850000Y-32249500D01*
X75962918Y-32096983D01*
X78737082Y-32096983D01*
X78850000Y-32249500D01*
X79849500Y-32249500D01*
X79849500Y-31275000D01*
X79850500Y-31275000D01*
X79850500Y-32249500D01*
X80850000Y-32249500D01*
X80962918Y-32096983D01*
X80956362Y-32060277D01*
X80900973Y-31877345D01*
X80810960Y-31708734D01*
X80689782Y-31560924D01*
X80542096Y-31439595D01*
X80373578Y-31349409D01*
X80287730Y-31323319D01*
X83920000Y-31323319D01*
X83920000Y-31756681D01*
X84004545Y-32181716D01*
X84170385Y-32582091D01*
X84411148Y-32942418D01*
X84717582Y-33248852D01*
X85077909Y-33489615D01*
X85478284Y-33655455D01*
X85903319Y-33740000D01*
X86336681Y-33740000D01*
X86761716Y-33655455D01*
X87162091Y-33489615D01*
X87522418Y-33248852D01*
X87828852Y-32942418D01*
X88069615Y-32582091D01*
X88235455Y-32181716D01*
X88320000Y-31756681D01*
X88320000Y-31323319D01*
X88235455Y-30898284D01*
X88069615Y-30497909D01*
X87828852Y-30137582D01*
X87522418Y-29831148D01*
X87162091Y-29590385D01*
X86761716Y-29424545D01*
X86336681Y-29340000D01*
X85903319Y-29340000D01*
X85478284Y-29424545D01*
X85077909Y-29590385D01*
X84717582Y-29831148D01*
X84411148Y-30137582D01*
X84170385Y-30497909D01*
X84004545Y-30898284D01*
X83920000Y-31323319D01*
X80287730Y-31323319D01*
X80190703Y-31293832D01*
X80000500Y-31275000D01*
X79850500Y-31275000D01*
X79849500Y-31275000D01*
X79699500Y-31275000D01*
X79509297Y-31293832D01*
X79326422Y-31349409D01*
X79157904Y-31439595D01*
X79010218Y-31560924D01*
X78889040Y-31708734D01*
X78799027Y-31877345D01*
X78743638Y-32060277D01*
X78737082Y-32096983D01*
X75962918Y-32096983D01*
X75956362Y-32060277D01*
X75900973Y-31877345D01*
X75810960Y-31708734D01*
X75689782Y-31560924D01*
X75542096Y-31439595D01*
X75373578Y-31349409D01*
X75190703Y-31293832D01*
X75000500Y-31275000D01*
X74850500Y-31275000D01*
X74849500Y-31275000D01*
X74699500Y-31275000D01*
X74509297Y-31293832D01*
X74326422Y-31349409D01*
X74157904Y-31439595D01*
X74010218Y-31560924D01*
X73889040Y-31708734D01*
X73799027Y-31877345D01*
X73743638Y-32060277D01*
X73737082Y-32096983D01*
X73725000Y-32096983D01*
X73725000Y-30839626D01*
X73849500Y-30750000D01*
X73849500Y-29550500D01*
X73850500Y-29550500D01*
X73850500Y-30750000D01*
X74006928Y-30862610D01*
X74044599Y-30855883D01*
X74232221Y-30799071D01*
X74405154Y-30706748D01*
X74556753Y-30582461D01*
X74681192Y-30430987D01*
X74773688Y-30258146D01*
X74830688Y-30070581D01*
X74850000Y-29875500D01*
X74850000Y-29550500D01*
X79850000Y-29550500D01*
X79850000Y-29875500D01*
X79869312Y-30070581D01*
X79926312Y-30258146D01*
X80018808Y-30430987D01*
X80143247Y-30582461D01*
X80294846Y-30706748D01*
X80467779Y-30799071D01*
X80655401Y-30855883D01*
X80693072Y-30862610D01*
X80849500Y-30750000D01*
X80849500Y-29550500D01*
X80850500Y-29550500D01*
X80850500Y-30750000D01*
X81006928Y-30862610D01*
X81044599Y-30855883D01*
X81232221Y-30799071D01*
X81405154Y-30706748D01*
X81556753Y-30582461D01*
X81681192Y-30430987D01*
X81773688Y-30258146D01*
X81830688Y-30070581D01*
X81850000Y-29875500D01*
X81850000Y-29550500D01*
X80850500Y-29550500D01*
X80849500Y-29550500D01*
X79850000Y-29550500D01*
X74850000Y-29550500D01*
X73850500Y-29550500D01*
X73849500Y-29550500D01*
X73829500Y-29550500D01*
X73829500Y-29549500D01*
X73849500Y-29549500D01*
X73849500Y-29529500D01*
X73850500Y-29529500D01*
X73850500Y-29549500D01*
X74850000Y-29549500D01*
X74850000Y-29224500D01*
X74830688Y-29029419D01*
X74773688Y-28841854D01*
X74711153Y-28725000D01*
X79988847Y-28725000D01*
X79926312Y-28841854D01*
X79869312Y-29029419D01*
X79850000Y-29224500D01*
X79850000Y-29549500D01*
X80849500Y-29549500D01*
X80849500Y-29529500D01*
X80850500Y-29529500D01*
X80850500Y-29549500D01*
X81850000Y-29549500D01*
X81850000Y-29224500D01*
X81830688Y-29029419D01*
X81773688Y-28841854D01*
X81711153Y-28725000D01*
X86089433Y-28725000D01*
X86668128Y-28781742D01*
X87195383Y-28940929D01*
X87681674Y-29199495D01*
X88108483Y-29547592D01*
X88459545Y-29971954D01*
X88721501Y-30456431D01*
X88884365Y-30982559D01*
X88945000Y-31559466D01*
X88945001Y-87919423D01*
X88888258Y-88498128D01*
X88729071Y-89025384D01*
X88470505Y-89511674D01*
X88122410Y-89938481D01*
X87698046Y-90289546D01*
X87213569Y-90551501D01*
X86687441Y-90714365D01*
X86110533Y-90775000D01*
X32282941Y-90775000D01*
X31705831Y-90715034D01*
X31179516Y-90552796D01*
X30694728Y-90291413D01*
X30269948Y-89940852D01*
X29921345Y-89514454D01*
X29662202Y-89028468D01*
X29502393Y-88501408D01*
X29445000Y-87923130D01*
X29445000Y-87733319D01*
X30070000Y-87733319D01*
X30070000Y-88166681D01*
X30154545Y-88591716D01*
X30320385Y-88992091D01*
X30561148Y-89352418D01*
X30867582Y-89658852D01*
X31227909Y-89899615D01*
X31628284Y-90065455D01*
X32053319Y-90150000D01*
X32486681Y-90150000D01*
X32911716Y-90065455D01*
X33312091Y-89899615D01*
X33672418Y-89658852D01*
X33978852Y-89352418D01*
X34219615Y-88992091D01*
X34385455Y-88591716D01*
X34470000Y-88166681D01*
X34470000Y-87733319D01*
X34385455Y-87308284D01*
X34219615Y-86907909D01*
X34195697Y-86872112D01*
X37380000Y-86872112D01*
X37380000Y-87147888D01*
X37433801Y-87418365D01*
X37539336Y-87673149D01*
X37692549Y-87902448D01*
X37887552Y-88097451D01*
X38116851Y-88250664D01*
X38371635Y-88356199D01*
X38642112Y-88410000D01*
X38917888Y-88410000D01*
X39188365Y-88356199D01*
X39443149Y-88250664D01*
X39672448Y-88097451D01*
X39867451Y-87902448D01*
X39883794Y-87877990D01*
X39888682Y-87927621D01*
X39922990Y-88040721D01*
X39978704Y-88144955D01*
X40053683Y-88236317D01*
X40145045Y-88311296D01*
X40249279Y-88367010D01*
X40362379Y-88401318D01*
X40480000Y-88412903D01*
X42080000Y-88412903D01*
X42197621Y-88401318D01*
X42310721Y-88367010D01*
X42414955Y-88311296D01*
X42506317Y-88236317D01*
X42581296Y-88144955D01*
X42637010Y-88040721D01*
X42671318Y-87927621D01*
X42682903Y-87810000D01*
X42682903Y-86210000D01*
X42671318Y-86092379D01*
X42637010Y-85979279D01*
X42581296Y-85875045D01*
X42506317Y-85783683D01*
X42414955Y-85708704D01*
X42310721Y-85652990D01*
X42197621Y-85618682D01*
X42080000Y-85607097D01*
X40480000Y-85607097D01*
X40362379Y-85618682D01*
X40249279Y-85652990D01*
X40145045Y-85708704D01*
X40053683Y-85783683D01*
X39978704Y-85875045D01*
X39922990Y-85979279D01*
X39888682Y-86092379D01*
X39883794Y-86142010D01*
X39867451Y-86117552D01*
X39672448Y-85922549D01*
X39443149Y-85769336D01*
X39188365Y-85663801D01*
X38917888Y-85610000D01*
X38642112Y-85610000D01*
X38371635Y-85663801D01*
X38116851Y-85769336D01*
X37887552Y-85922549D01*
X37692549Y-86117552D01*
X37539336Y-86346851D01*
X37433801Y-86601635D01*
X37380000Y-86872112D01*
X34195697Y-86872112D01*
X33978852Y-86547582D01*
X33672418Y-86241148D01*
X33312091Y-86000385D01*
X32911716Y-85834545D01*
X32486681Y-85750000D01*
X32053319Y-85750000D01*
X31628284Y-85834545D01*
X31227909Y-86000385D01*
X30867582Y-86241148D01*
X30561148Y-86547582D01*
X30320385Y-86907909D01*
X30154545Y-87308284D01*
X30070000Y-87733319D01*
X29445000Y-87733319D01*
X29445000Y-84736185D01*
X45785000Y-84736185D01*
X45785000Y-85543815D01*
X45942561Y-86335926D01*
X46251627Y-87082078D01*
X46700322Y-87753598D01*
X47271402Y-88324678D01*
X47942922Y-88773373D01*
X48689074Y-89082439D01*
X49481185Y-89240000D01*
X50288815Y-89240000D01*
X51080926Y-89082439D01*
X51827078Y-88773373D01*
X52498598Y-88324678D01*
X53069678Y-87753598D01*
X53518373Y-87082078D01*
X53827439Y-86335926D01*
X53985000Y-85543815D01*
X53985000Y-84736185D01*
X64835000Y-84736185D01*
X64835000Y-85543815D01*
X64992561Y-86335926D01*
X65301627Y-87082078D01*
X65750322Y-87753598D01*
X66321402Y-88324678D01*
X66992922Y-88773373D01*
X67739074Y-89082439D01*
X68531185Y-89240000D01*
X69338815Y-89240000D01*
X70130926Y-89082439D01*
X70877078Y-88773373D01*
X71548598Y-88324678D01*
X72119678Y-87753598D01*
X72133227Y-87733319D01*
X83920000Y-87733319D01*
X83920000Y-88166681D01*
X84004545Y-88591716D01*
X84170385Y-88992091D01*
X84411148Y-89352418D01*
X84717582Y-89658852D01*
X85077909Y-89899615D01*
X85478284Y-90065455D01*
X85903319Y-90150000D01*
X86336681Y-90150000D01*
X86761716Y-90065455D01*
X87162091Y-89899615D01*
X87522418Y-89658852D01*
X87828852Y-89352418D01*
X88069615Y-88992091D01*
X88235455Y-88591716D01*
X88320000Y-88166681D01*
X88320000Y-87733319D01*
X88235455Y-87308284D01*
X88069615Y-86907909D01*
X87828852Y-86547582D01*
X87522418Y-86241148D01*
X87162091Y-86000385D01*
X86761716Y-85834545D01*
X86336681Y-85750000D01*
X85903319Y-85750000D01*
X85478284Y-85834545D01*
X85077909Y-86000385D01*
X84717582Y-86241148D01*
X84411148Y-86547582D01*
X84170385Y-86907909D01*
X84004545Y-87308284D01*
X83920000Y-87733319D01*
X72133227Y-87733319D01*
X72568373Y-87082078D01*
X72877439Y-86335926D01*
X73035000Y-85543815D01*
X73035000Y-85075500D01*
X77750000Y-85075500D01*
X77750000Y-85849245D01*
X77769215Y-85945844D01*
X77806906Y-86036839D01*
X77861624Y-86118731D01*
X77931268Y-86188375D01*
X78013161Y-86243094D01*
X78104155Y-86280785D01*
X78200754Y-86300000D01*
X78974500Y-86300000D01*
X79099500Y-86175000D01*
X79099500Y-84950500D01*
X79100500Y-84950500D01*
X79100500Y-86175000D01*
X79225500Y-86300000D01*
X79999246Y-86300000D01*
X80095845Y-86280785D01*
X80186839Y-86243094D01*
X80268732Y-86188375D01*
X80338376Y-86118731D01*
X80393094Y-86036839D01*
X80430785Y-85945844D01*
X80450000Y-85849245D01*
X80450000Y-85075500D01*
X80325000Y-84950500D01*
X79100500Y-84950500D01*
X79099500Y-84950500D01*
X77875000Y-84950500D01*
X77750000Y-85075500D01*
X73035000Y-85075500D01*
X73035000Y-84736185D01*
X72898660Y-84050755D01*
X77750000Y-84050755D01*
X77750000Y-84824500D01*
X77875000Y-84949500D01*
X79099500Y-84949500D01*
X79099500Y-83725000D01*
X79100500Y-83725000D01*
X79100500Y-84949500D01*
X80325000Y-84949500D01*
X80450000Y-84824500D01*
X80450000Y-84050755D01*
X80430785Y-83954156D01*
X80393094Y-83863161D01*
X80338376Y-83781269D01*
X80268732Y-83711625D01*
X80186839Y-83656906D01*
X80095845Y-83619215D01*
X79999246Y-83600000D01*
X79225500Y-83600000D01*
X79100500Y-83725000D01*
X79099500Y-83725000D01*
X78974500Y-83600000D01*
X78200754Y-83600000D01*
X78104155Y-83619215D01*
X78013161Y-83656906D01*
X77931268Y-83711625D01*
X77861624Y-83781269D01*
X77806906Y-83863161D01*
X77769215Y-83954156D01*
X77750000Y-84050755D01*
X72898660Y-84050755D01*
X72877439Y-83944074D01*
X72568373Y-83197922D01*
X72119678Y-82526402D01*
X71548598Y-81955322D01*
X70877078Y-81506627D01*
X70130926Y-81197561D01*
X69338815Y-81040000D01*
X68531185Y-81040000D01*
X67739074Y-81197561D01*
X66992922Y-81506627D01*
X66321402Y-81955322D01*
X65750322Y-82526402D01*
X65301627Y-83197922D01*
X64992561Y-83944074D01*
X64835000Y-84736185D01*
X53985000Y-84736185D01*
X53827439Y-83944074D01*
X53518373Y-83197922D01*
X53069678Y-82526402D01*
X52498598Y-81955322D01*
X51827078Y-81506627D01*
X51080926Y-81197561D01*
X50288815Y-81040000D01*
X49481185Y-81040000D01*
X48689074Y-81197561D01*
X47942922Y-81506627D01*
X47271402Y-81955322D01*
X46700322Y-82526402D01*
X46251627Y-83197922D01*
X45942561Y-83944074D01*
X45785000Y-84736185D01*
X29445000Y-84736185D01*
X29445000Y-80840000D01*
X56712985Y-80840000D01*
X56740981Y-81124250D01*
X56823894Y-81397576D01*
X56958536Y-81649474D01*
X57139735Y-81870265D01*
X57360526Y-82051464D01*
X57612424Y-82186106D01*
X57885750Y-82269019D01*
X58098775Y-82290000D01*
X58241225Y-82290000D01*
X58454250Y-82269019D01*
X58727576Y-82186106D01*
X58979474Y-82051464D01*
X59200265Y-81870265D01*
X59266860Y-81789119D01*
X59268682Y-81807621D01*
X59302990Y-81920721D01*
X59358704Y-82024955D01*
X59433683Y-82116317D01*
X59525045Y-82191296D01*
X59629279Y-82247010D01*
X59742379Y-82281318D01*
X59860000Y-82292903D01*
X61560000Y-82292903D01*
X61677621Y-82281318D01*
X61790721Y-82247010D01*
X61894955Y-82191296D01*
X61986317Y-82116317D01*
X62061296Y-82024955D01*
X62117010Y-81920721D01*
X62151318Y-81807621D01*
X62162903Y-81690000D01*
X62162903Y-79990000D01*
X62151318Y-79872379D01*
X62117010Y-79759279D01*
X62061296Y-79655045D01*
X61986317Y-79563683D01*
X61894955Y-79488704D01*
X61790721Y-79432990D01*
X61677621Y-79398682D01*
X61560000Y-79387097D01*
X59860000Y-79387097D01*
X59742379Y-79398682D01*
X59629279Y-79432990D01*
X59525045Y-79488704D01*
X59433683Y-79563683D01*
X59358704Y-79655045D01*
X59302990Y-79759279D01*
X59268682Y-79872379D01*
X59266860Y-79890881D01*
X59200265Y-79809735D01*
X58979474Y-79628536D01*
X58727576Y-79493894D01*
X58454250Y-79410981D01*
X58241225Y-79390000D01*
X58098775Y-79390000D01*
X57885750Y-79410981D01*
X57612424Y-79493894D01*
X57360526Y-79628536D01*
X57139735Y-79809735D01*
X56958536Y-80030526D01*
X56823894Y-80282424D01*
X56740981Y-80555750D01*
X56712985Y-80840000D01*
X29445000Y-80840000D01*
X29445000Y-78192414D01*
X75460000Y-78192414D01*
X75460000Y-78507586D01*
X75521487Y-78816703D01*
X75642098Y-79107884D01*
X75817199Y-79369941D01*
X76040059Y-79592801D01*
X76302116Y-79767902D01*
X76593297Y-79888513D01*
X76902414Y-79950000D01*
X77217586Y-79950000D01*
X77526703Y-79888513D01*
X77817884Y-79767902D01*
X78079941Y-79592801D01*
X78302801Y-79369941D01*
X78330000Y-79329235D01*
X78357199Y-79369941D01*
X78580059Y-79592801D01*
X78842116Y-79767902D01*
X79133297Y-79888513D01*
X79442414Y-79950000D01*
X79757586Y-79950000D01*
X80066703Y-79888513D01*
X80357884Y-79767902D01*
X80619941Y-79592801D01*
X80842801Y-79369941D01*
X80870000Y-79329235D01*
X80897199Y-79369941D01*
X81120059Y-79592801D01*
X81382116Y-79767902D01*
X81673297Y-79888513D01*
X81982414Y-79950000D01*
X82297586Y-79950000D01*
X82606703Y-79888513D01*
X82897884Y-79767902D01*
X83159941Y-79592801D01*
X83382801Y-79369941D01*
X83557902Y-79107884D01*
X83678513Y-78816703D01*
X83740000Y-78507586D01*
X83740000Y-78192414D01*
X83678513Y-77883297D01*
X83557902Y-77592116D01*
X83382801Y-77330059D01*
X83159941Y-77107199D01*
X82897884Y-76932098D01*
X82606703Y-76811487D01*
X82297586Y-76750000D01*
X81982414Y-76750000D01*
X81673297Y-76811487D01*
X81382116Y-76932098D01*
X81120059Y-77107199D01*
X80897199Y-77330059D01*
X80870000Y-77370765D01*
X80842801Y-77330059D01*
X80619941Y-77107199D01*
X80357884Y-76932098D01*
X80066703Y-76811487D01*
X79757586Y-76750000D01*
X79442414Y-76750000D01*
X79133297Y-76811487D01*
X78842116Y-76932098D01*
X78580059Y-77107199D01*
X78357199Y-77330059D01*
X78330000Y-77370765D01*
X78302801Y-77330059D01*
X78079941Y-77107199D01*
X77817884Y-76932098D01*
X77526703Y-76811487D01*
X77217586Y-76750000D01*
X76902414Y-76750000D01*
X76593297Y-76811487D01*
X76302116Y-76932098D01*
X76040059Y-77107199D01*
X75817199Y-77330059D01*
X75642098Y-77592116D01*
X75521487Y-77883297D01*
X75460000Y-78192414D01*
X29445000Y-78192414D01*
X29445000Y-77227758D01*
X46972950Y-77227758D01*
X47064460Y-77469691D01*
X47319426Y-77619015D01*
X47598624Y-77715729D01*
X47891325Y-77756116D01*
X48186281Y-77738622D01*
X48472157Y-77663923D01*
X48530394Y-77635652D01*
X58865055Y-77635652D01*
X58932587Y-77857105D01*
X59153563Y-77986508D01*
X59395540Y-78070315D01*
X59649216Y-78105303D01*
X59904844Y-78090130D01*
X60152600Y-78025377D01*
X60382963Y-77913534D01*
X60467413Y-77857105D01*
X60534945Y-77635652D01*
X59700000Y-76800707D01*
X58865055Y-77635652D01*
X48530394Y-77635652D01*
X48737967Y-77534887D01*
X48835540Y-77469691D01*
X48927050Y-77227758D01*
X47950000Y-76250707D01*
X46972950Y-77227758D01*
X29445000Y-77227758D01*
X29445000Y-76191325D01*
X46443884Y-76191325D01*
X46461378Y-76486281D01*
X46536077Y-76772157D01*
X46665113Y-77037967D01*
X46730309Y-77135540D01*
X46972242Y-77227050D01*
X47949293Y-76250000D01*
X47950707Y-76250000D01*
X48927758Y-77227050D01*
X49169691Y-77135540D01*
X49319015Y-76880574D01*
X49364517Y-76749216D01*
X58394697Y-76749216D01*
X58409870Y-77004844D01*
X58474623Y-77252600D01*
X58586466Y-77482963D01*
X58642895Y-77567413D01*
X58864348Y-77634945D01*
X59699293Y-76800000D01*
X59700707Y-76800000D01*
X60535652Y-77634945D01*
X60757105Y-77567413D01*
X60886508Y-77346437D01*
X60970315Y-77104460D01*
X61005303Y-76850784D01*
X60990130Y-76595156D01*
X60925377Y-76347400D01*
X60813534Y-76117037D01*
X60757105Y-76032587D01*
X60535652Y-75965055D01*
X59700707Y-76800000D01*
X59699293Y-76800000D01*
X58864348Y-75965055D01*
X58642895Y-76032587D01*
X58513492Y-76253563D01*
X58429685Y-76495540D01*
X58394697Y-76749216D01*
X49364517Y-76749216D01*
X49415729Y-76601376D01*
X49456116Y-76308675D01*
X49438622Y-76013719D01*
X49363923Y-75727843D01*
X49234887Y-75462033D01*
X49169691Y-75364460D01*
X48927758Y-75272950D01*
X47950707Y-76250000D01*
X47949293Y-76250000D01*
X46972242Y-75272950D01*
X46730309Y-75364460D01*
X46580985Y-75619426D01*
X46484271Y-75898624D01*
X46443884Y-76191325D01*
X29445000Y-76191325D01*
X29445000Y-75272242D01*
X46972950Y-75272242D01*
X47950000Y-76249293D01*
X48927050Y-75272242D01*
X48835540Y-75030309D01*
X48580574Y-74880985D01*
X48301376Y-74784271D01*
X48008675Y-74743884D01*
X47713719Y-74761378D01*
X47427843Y-74836077D01*
X47162033Y-74965113D01*
X47064460Y-75030309D01*
X46972950Y-75272242D01*
X29445000Y-75272242D01*
X29445000Y-74162112D01*
X58300000Y-74162112D01*
X58300000Y-74437888D01*
X58353801Y-74708365D01*
X58459336Y-74963149D01*
X58612549Y-75192448D01*
X58807552Y-75387451D01*
X59036851Y-75540664D01*
X59188211Y-75603360D01*
X59017037Y-75686466D01*
X58932587Y-75742895D01*
X58865055Y-75964348D01*
X59700000Y-76799293D01*
X60534945Y-75964348D01*
X60467413Y-75742895D01*
X60246437Y-75613492D01*
X60214244Y-75602342D01*
X60363149Y-75540664D01*
X60592448Y-75387451D01*
X60787451Y-75192448D01*
X60940664Y-74963149D01*
X61046199Y-74708365D01*
X61100000Y-74437888D01*
X61100000Y-74162112D01*
X61089075Y-74107187D01*
X62700000Y-74107187D01*
X62700000Y-74392813D01*
X62755723Y-74672949D01*
X62865027Y-74936833D01*
X63023711Y-75174321D01*
X63099390Y-75250000D01*
X63023711Y-75325679D01*
X62865027Y-75563167D01*
X62755723Y-75827051D01*
X62700000Y-76107187D01*
X62700000Y-76392813D01*
X62755723Y-76672949D01*
X62865027Y-76936833D01*
X63023711Y-77174321D01*
X63225679Y-77376289D01*
X63463167Y-77534973D01*
X63727051Y-77644277D01*
X64007187Y-77700000D01*
X64292813Y-77700000D01*
X64527928Y-77653232D01*
X64607162Y-77732467D01*
X64629858Y-77760122D01*
X64657513Y-77782818D01*
X64657515Y-77782820D01*
X64740253Y-77850721D01*
X64866202Y-77918043D01*
X65002865Y-77959499D01*
X65109383Y-77969990D01*
X65109392Y-77969990D01*
X65144989Y-77973496D01*
X65180586Y-77969990D01*
X71669413Y-77969990D01*
X71705010Y-77973496D01*
X71740607Y-77969990D01*
X71740617Y-77969990D01*
X71847135Y-77959499D01*
X71983798Y-77918043D01*
X72109747Y-77850721D01*
X72220142Y-77760122D01*
X72242842Y-77732462D01*
X72287472Y-77687832D01*
X72315132Y-77665132D01*
X72405731Y-77554737D01*
X72433437Y-77502903D01*
X72600000Y-77502903D01*
X72717621Y-77491318D01*
X72830721Y-77457010D01*
X72934955Y-77401296D01*
X73026317Y-77326317D01*
X73101296Y-77234955D01*
X73157010Y-77130721D01*
X73191318Y-77017621D01*
X73202903Y-76900000D01*
X73202903Y-75300000D01*
X73191318Y-75182379D01*
X73157010Y-75069279D01*
X73101296Y-74965045D01*
X73026317Y-74873683D01*
X72934955Y-74798704D01*
X72830721Y-74742990D01*
X72717621Y-74708682D01*
X72600000Y-74697097D01*
X71000000Y-74697097D01*
X70882379Y-74708682D01*
X70769279Y-74742990D01*
X70665045Y-74798704D01*
X70573683Y-74873683D01*
X70498704Y-74965045D01*
X70442990Y-75069279D01*
X70408682Y-75182379D01*
X70397097Y-75300000D01*
X70397097Y-75392438D01*
X70357105Y-75332587D01*
X70135652Y-75265055D01*
X69300707Y-76100000D01*
X69314850Y-76114143D01*
X69314143Y-76114850D01*
X69300000Y-76100707D01*
X69285858Y-76114850D01*
X69285151Y-76114143D01*
X69299293Y-76100000D01*
X68464348Y-75265055D01*
X68242895Y-75332587D01*
X68113492Y-75553563D01*
X68029685Y-75795540D01*
X67994697Y-76049216D01*
X68009870Y-76304844D01*
X68066100Y-76519990D01*
X65574703Y-76519990D01*
X65600000Y-76392813D01*
X65600000Y-76107187D01*
X65544277Y-75827051D01*
X65434973Y-75563167D01*
X65276289Y-75325679D01*
X65214958Y-75264348D01*
X68465055Y-75264348D01*
X69300000Y-76099293D01*
X70134945Y-75264348D01*
X70067413Y-75042895D01*
X69846437Y-74913492D01*
X69604460Y-74829685D01*
X69350784Y-74794697D01*
X69095156Y-74809870D01*
X68847400Y-74874623D01*
X68617037Y-74986466D01*
X68532587Y-75042895D01*
X68465055Y-75264348D01*
X65214958Y-75264348D01*
X65200610Y-75250000D01*
X65276289Y-75174321D01*
X65434973Y-74936833D01*
X65544277Y-74672949D01*
X65600000Y-74392813D01*
X65600000Y-74107187D01*
X65544277Y-73827051D01*
X65434973Y-73563167D01*
X65276289Y-73325679D01*
X65074321Y-73123711D01*
X64836833Y-72965027D01*
X64572949Y-72855723D01*
X64292813Y-72800000D01*
X64007187Y-72800000D01*
X63727051Y-72855723D01*
X63463167Y-72965027D01*
X63225679Y-73123711D01*
X63023711Y-73325679D01*
X62865027Y-73563167D01*
X62755723Y-73827051D01*
X62700000Y-74107187D01*
X61089075Y-74107187D01*
X61046199Y-73891635D01*
X60940664Y-73636851D01*
X60787451Y-73407552D01*
X60592448Y-73212549D01*
X60363149Y-73059336D01*
X60108365Y-72953801D01*
X59837888Y-72900000D01*
X59562112Y-72900000D01*
X59291635Y-72953801D01*
X59036851Y-73059336D01*
X58807552Y-73212549D01*
X58612549Y-73407552D01*
X58459336Y-73636851D01*
X58353801Y-73891635D01*
X58300000Y-74162112D01*
X29445000Y-74162112D01*
X29445000Y-69766000D01*
X38587097Y-69766000D01*
X38587097Y-71966000D01*
X38598682Y-72083621D01*
X38632990Y-72196721D01*
X38688704Y-72300955D01*
X38763683Y-72392317D01*
X38855045Y-72467296D01*
X38959279Y-72523010D01*
X39072379Y-72557318D01*
X39190000Y-72568903D01*
X41390000Y-72568903D01*
X41507621Y-72557318D01*
X41620721Y-72523010D01*
X41724955Y-72467296D01*
X41816317Y-72392317D01*
X41891296Y-72300955D01*
X41947010Y-72196721D01*
X41981318Y-72083621D01*
X41992903Y-71966000D01*
X41992903Y-70250000D01*
X46347097Y-70250000D01*
X46347097Y-72250000D01*
X46358682Y-72367621D01*
X46392990Y-72480721D01*
X46448704Y-72584955D01*
X46523683Y-72676317D01*
X46615045Y-72751296D01*
X46719279Y-72807010D01*
X46832379Y-72841318D01*
X46950000Y-72852903D01*
X48950000Y-72852903D01*
X49067621Y-72841318D01*
X49180721Y-72807010D01*
X49284955Y-72751296D01*
X49376317Y-72676317D01*
X49451296Y-72584955D01*
X49507010Y-72480721D01*
X49541318Y-72367621D01*
X49552903Y-72250000D01*
X49552903Y-70250000D01*
X49543054Y-70150000D01*
X55047097Y-70150000D01*
X55047097Y-71750000D01*
X55058682Y-71867621D01*
X55092990Y-71980721D01*
X55148704Y-72084955D01*
X55223683Y-72176317D01*
X55315045Y-72251296D01*
X55419279Y-72307010D01*
X55532379Y-72341318D01*
X55650000Y-72352903D01*
X57250000Y-72352903D01*
X57367621Y-72341318D01*
X57480721Y-72307010D01*
X57584955Y-72251296D01*
X57676317Y-72176317D01*
X57751296Y-72084955D01*
X57807010Y-71980721D01*
X57841318Y-71867621D01*
X57852903Y-71750000D01*
X57852903Y-71570097D01*
X57881829Y-71629675D01*
X58035720Y-71832809D01*
X58226284Y-72002017D01*
X58446197Y-72130796D01*
X58687008Y-72214198D01*
X58786141Y-72233917D01*
X58989500Y-72125000D01*
X58989500Y-70950500D01*
X58969500Y-70950500D01*
X58969500Y-70949500D01*
X58989500Y-70949500D01*
X58989500Y-69775000D01*
X58990500Y-69775000D01*
X58990500Y-70949500D01*
X59010500Y-70949500D01*
X59010500Y-70950500D01*
X58990500Y-70950500D01*
X58990500Y-72125000D01*
X59193859Y-72233917D01*
X59292992Y-72214198D01*
X59533803Y-72130796D01*
X59753716Y-72002017D01*
X59944280Y-71832809D01*
X60098171Y-71629675D01*
X60205883Y-71407823D01*
X60230310Y-71488349D01*
X60360310Y-71731562D01*
X60535261Y-71944739D01*
X60748438Y-72119690D01*
X60991651Y-72249690D01*
X61255552Y-72329743D01*
X61461223Y-72350000D01*
X61598777Y-72350000D01*
X61804448Y-72329743D01*
X62068349Y-72249690D01*
X62311562Y-72119690D01*
X62524739Y-71944739D01*
X62699690Y-71731562D01*
X62829690Y-71488349D01*
X62854117Y-71407823D01*
X62961829Y-71629675D01*
X63115720Y-71832809D01*
X63306284Y-72002017D01*
X63526197Y-72130796D01*
X63767008Y-72214198D01*
X63866141Y-72233917D01*
X64069500Y-72125000D01*
X64069500Y-70950500D01*
X64070500Y-70950500D01*
X64070500Y-72125000D01*
X64273859Y-72233917D01*
X64372992Y-72214198D01*
X64471733Y-72180000D01*
X78097097Y-72180000D01*
X78097097Y-73880000D01*
X78108682Y-73997621D01*
X78142990Y-74110721D01*
X78198704Y-74214955D01*
X78273683Y-74306317D01*
X78365045Y-74381296D01*
X78469279Y-74437010D01*
X78582379Y-74471318D01*
X78700000Y-74482903D01*
X80400000Y-74482903D01*
X80517621Y-74471318D01*
X80630721Y-74437010D01*
X80734955Y-74381296D01*
X80826317Y-74306317D01*
X80901296Y-74214955D01*
X80957010Y-74110721D01*
X80991318Y-73997621D01*
X81002903Y-73880000D01*
X81002903Y-72500000D01*
X85947097Y-72500000D01*
X85947097Y-74200000D01*
X85958682Y-74317621D01*
X85992990Y-74430721D01*
X86048704Y-74534955D01*
X86123683Y-74626317D01*
X86215045Y-74701296D01*
X86319279Y-74757010D01*
X86432379Y-74791318D01*
X86550000Y-74802903D01*
X88250000Y-74802903D01*
X88367621Y-74791318D01*
X88480721Y-74757010D01*
X88584955Y-74701296D01*
X88676317Y-74626317D01*
X88751296Y-74534955D01*
X88807010Y-74430721D01*
X88841318Y-74317621D01*
X88852903Y-74200000D01*
X88852903Y-72500000D01*
X88841318Y-72382379D01*
X88807010Y-72269279D01*
X88751296Y-72165045D01*
X88676317Y-72073683D01*
X88584955Y-71998704D01*
X88480721Y-71942990D01*
X88367621Y-71908682D01*
X88250000Y-71897097D01*
X86550000Y-71897097D01*
X86432379Y-71908682D01*
X86319279Y-71942990D01*
X86215045Y-71998704D01*
X86123683Y-72073683D01*
X86048704Y-72165045D01*
X85992990Y-72269279D01*
X85958682Y-72382379D01*
X85947097Y-72500000D01*
X81002903Y-72500000D01*
X81002903Y-72180000D01*
X80991318Y-72062379D01*
X80957010Y-71949279D01*
X80901296Y-71845045D01*
X80826317Y-71753683D01*
X80734955Y-71678704D01*
X80630721Y-71622990D01*
X80517621Y-71588682D01*
X80400000Y-71577097D01*
X78700000Y-71577097D01*
X78582379Y-71588682D01*
X78469279Y-71622990D01*
X78365045Y-71678704D01*
X78273683Y-71753683D01*
X78198704Y-71845045D01*
X78142990Y-71949279D01*
X78108682Y-72062379D01*
X78097097Y-72180000D01*
X64471733Y-72180000D01*
X64613803Y-72130796D01*
X64833716Y-72002017D01*
X65024280Y-71832809D01*
X65178171Y-71629675D01*
X65289476Y-71400422D01*
X65353917Y-71153859D01*
X65245000Y-70950500D01*
X64070500Y-70950500D01*
X64069500Y-70950500D01*
X64049500Y-70950500D01*
X64049500Y-70949500D01*
X64069500Y-70949500D01*
X64069500Y-69775000D01*
X64070500Y-69775000D01*
X64070500Y-70949500D01*
X65245000Y-70949500D01*
X65353917Y-70746141D01*
X65289476Y-70499578D01*
X65178171Y-70270325D01*
X65024280Y-70067191D01*
X64833716Y-69897983D01*
X64613803Y-69769204D01*
X64372992Y-69685802D01*
X64273859Y-69666083D01*
X64070500Y-69775000D01*
X64069500Y-69775000D01*
X63866141Y-69666083D01*
X63767008Y-69685802D01*
X63526197Y-69769204D01*
X63306284Y-69897983D01*
X63115720Y-70067191D01*
X62961829Y-70270325D01*
X62854117Y-70492177D01*
X62829690Y-70411651D01*
X62699690Y-70168438D01*
X62524739Y-69955261D01*
X62311562Y-69780310D01*
X62068349Y-69650310D01*
X61804448Y-69570257D01*
X61598777Y-69550000D01*
X61461223Y-69550000D01*
X61255552Y-69570257D01*
X60991651Y-69650310D01*
X60748438Y-69780310D01*
X60535261Y-69955261D01*
X60360310Y-70168438D01*
X60230310Y-70411651D01*
X60205883Y-70492177D01*
X60098171Y-70270325D01*
X59944280Y-70067191D01*
X59753716Y-69897983D01*
X59533803Y-69769204D01*
X59292992Y-69685802D01*
X59193859Y-69666083D01*
X58990500Y-69775000D01*
X58989500Y-69775000D01*
X58786141Y-69666083D01*
X58687008Y-69685802D01*
X58446197Y-69769204D01*
X58226284Y-69897983D01*
X58035720Y-70067191D01*
X57881829Y-70270325D01*
X57852903Y-70329903D01*
X57852903Y-70150000D01*
X57841318Y-70032379D01*
X57807010Y-69919279D01*
X57751296Y-69815045D01*
X57676317Y-69723683D01*
X57584955Y-69648704D01*
X57480721Y-69592990D01*
X57367621Y-69558682D01*
X57250000Y-69547097D01*
X55650000Y-69547097D01*
X55532379Y-69558682D01*
X55419279Y-69592990D01*
X55315045Y-69648704D01*
X55223683Y-69723683D01*
X55148704Y-69815045D01*
X55092990Y-69919279D01*
X55058682Y-70032379D01*
X55047097Y-70150000D01*
X49543054Y-70150000D01*
X49541318Y-70132379D01*
X49507010Y-70019279D01*
X49451296Y-69915045D01*
X49376317Y-69823683D01*
X49284955Y-69748704D01*
X49180721Y-69692990D01*
X49067621Y-69658682D01*
X48950000Y-69647097D01*
X46950000Y-69647097D01*
X46832379Y-69658682D01*
X46719279Y-69692990D01*
X46615045Y-69748704D01*
X46523683Y-69823683D01*
X46448704Y-69915045D01*
X46392990Y-70019279D01*
X46358682Y-70132379D01*
X46347097Y-70250000D01*
X41992903Y-70250000D01*
X41992903Y-69766000D01*
X41981318Y-69648379D01*
X41947010Y-69535279D01*
X41891296Y-69431045D01*
X41816317Y-69339683D01*
X41724955Y-69264704D01*
X41620721Y-69208990D01*
X41507621Y-69174682D01*
X41390000Y-69163097D01*
X39190000Y-69163097D01*
X39072379Y-69174682D01*
X38959279Y-69208990D01*
X38855045Y-69264704D01*
X38763683Y-69339683D01*
X38688704Y-69431045D01*
X38632990Y-69535279D01*
X38598682Y-69648379D01*
X38587097Y-69766000D01*
X29445000Y-69766000D01*
X29445000Y-68310000D01*
X76941775Y-68310000D01*
X76974598Y-68643258D01*
X77071806Y-68963709D01*
X77229663Y-69259039D01*
X77442103Y-69517897D01*
X77700961Y-69730337D01*
X77996291Y-69888194D01*
X78316742Y-69985402D01*
X78566490Y-70010000D01*
X78733510Y-70010000D01*
X78983258Y-69985402D01*
X79303709Y-69888194D01*
X79599039Y-69730337D01*
X79857897Y-69517897D01*
X80070337Y-69259039D01*
X80228194Y-68963709D01*
X80325402Y-68643258D01*
X80358225Y-68310000D01*
X80325402Y-67976742D01*
X80228194Y-67656291D01*
X80070337Y-67360961D01*
X79946447Y-67210000D01*
X84567097Y-67210000D01*
X84567097Y-69410000D01*
X84578682Y-69527621D01*
X84612990Y-69640721D01*
X84668704Y-69744955D01*
X84743683Y-69836317D01*
X84835045Y-69911296D01*
X84939279Y-69967010D01*
X85052379Y-70001318D01*
X85170000Y-70012903D01*
X87370000Y-70012903D01*
X87487621Y-70001318D01*
X87600721Y-69967010D01*
X87704955Y-69911296D01*
X87796317Y-69836317D01*
X87871296Y-69744955D01*
X87927010Y-69640721D01*
X87961318Y-69527621D01*
X87972903Y-69410000D01*
X87972903Y-67210000D01*
X87961318Y-67092379D01*
X87927010Y-66979279D01*
X87871296Y-66875045D01*
X87796317Y-66783683D01*
X87704955Y-66708704D01*
X87600721Y-66652990D01*
X87487621Y-66618682D01*
X87370000Y-66607097D01*
X85170000Y-66607097D01*
X85052379Y-66618682D01*
X84939279Y-66652990D01*
X84835045Y-66708704D01*
X84743683Y-66783683D01*
X84668704Y-66875045D01*
X84612990Y-66979279D01*
X84578682Y-67092379D01*
X84567097Y-67210000D01*
X79946447Y-67210000D01*
X79857897Y-67102103D01*
X79599039Y-66889663D01*
X79303709Y-66731806D01*
X78983258Y-66634598D01*
X78733510Y-66610000D01*
X78566490Y-66610000D01*
X78316742Y-66634598D01*
X77996291Y-66731806D01*
X77700961Y-66889663D01*
X77442103Y-67102103D01*
X77229663Y-67360961D01*
X77071806Y-67656291D01*
X76974598Y-67976742D01*
X76941775Y-68310000D01*
X29445000Y-68310000D01*
X29445000Y-63401509D01*
X34306000Y-63401509D01*
X34306000Y-63598491D01*
X34344429Y-63791689D01*
X34419811Y-63973678D01*
X34529249Y-64137463D01*
X34668537Y-64276751D01*
X34832322Y-64386189D01*
X35014311Y-64461571D01*
X35167000Y-64491942D01*
X35167000Y-65297097D01*
X35042000Y-65297097D01*
X34924379Y-65308682D01*
X34811279Y-65342990D01*
X34707045Y-65398704D01*
X34615683Y-65473683D01*
X34540704Y-65565045D01*
X34484990Y-65669279D01*
X34450682Y-65782379D01*
X34439097Y-65900000D01*
X34439097Y-67600000D01*
X34450682Y-67717621D01*
X34484990Y-67830721D01*
X34540704Y-67934955D01*
X34615683Y-68026317D01*
X34707045Y-68101296D01*
X34811279Y-68157010D01*
X34924379Y-68191318D01*
X35042000Y-68202903D01*
X36742000Y-68202903D01*
X36859621Y-68191318D01*
X36972721Y-68157010D01*
X37076955Y-68101296D01*
X37168317Y-68026317D01*
X37243296Y-67934955D01*
X37299010Y-67830721D01*
X37333318Y-67717621D01*
X37344903Y-67600000D01*
X37344903Y-65900000D01*
X37334351Y-65792866D01*
X45290000Y-65792866D01*
X45290000Y-66167134D01*
X45363016Y-66534209D01*
X45506242Y-66879987D01*
X45714174Y-67191179D01*
X45978821Y-67455826D01*
X46290013Y-67663758D01*
X46635791Y-67806984D01*
X47002866Y-67880000D01*
X47377134Y-67880000D01*
X47744209Y-67806984D01*
X48089987Y-67663758D01*
X48401179Y-67455826D01*
X48579247Y-67277758D01*
X70522950Y-67277758D01*
X70614460Y-67519691D01*
X70869426Y-67669015D01*
X71148624Y-67765729D01*
X71441325Y-67806116D01*
X71736281Y-67788622D01*
X72022157Y-67713923D01*
X72287967Y-67584887D01*
X72385540Y-67519691D01*
X72477050Y-67277758D01*
X71500000Y-66300707D01*
X70522950Y-67277758D01*
X48579247Y-67277758D01*
X48665826Y-67191179D01*
X48873758Y-66879987D01*
X49016984Y-66534209D01*
X49075242Y-66241325D01*
X69993884Y-66241325D01*
X70011378Y-66536281D01*
X70086077Y-66822157D01*
X70215113Y-67087967D01*
X70280309Y-67185540D01*
X70522242Y-67277050D01*
X71499293Y-66300000D01*
X71500707Y-66300000D01*
X72477758Y-67277050D01*
X72719691Y-67185540D01*
X72869015Y-66930574D01*
X72965729Y-66651376D01*
X73006116Y-66358675D01*
X72988622Y-66063719D01*
X72913923Y-65777843D01*
X72784887Y-65512033D01*
X72719691Y-65414460D01*
X72477758Y-65322950D01*
X71500707Y-66300000D01*
X71499293Y-66300000D01*
X70522242Y-65322950D01*
X70280309Y-65414460D01*
X70130985Y-65669426D01*
X70034271Y-65948624D01*
X69993884Y-66241325D01*
X49075242Y-66241325D01*
X49090000Y-66167134D01*
X49090000Y-65792866D01*
X49016984Y-65425791D01*
X48974093Y-65322242D01*
X70522950Y-65322242D01*
X71500000Y-66299293D01*
X72477050Y-65322242D01*
X72385540Y-65080309D01*
X72130574Y-64930985D01*
X71851376Y-64834271D01*
X71558675Y-64793884D01*
X71263719Y-64811378D01*
X70977843Y-64886077D01*
X70712033Y-65015113D01*
X70614460Y-65080309D01*
X70522950Y-65322242D01*
X48974093Y-65322242D01*
X48873758Y-65080013D01*
X48665826Y-64768821D01*
X48401179Y-64504174D01*
X48089987Y-64296242D01*
X47744209Y-64153016D01*
X47377134Y-64080000D01*
X47002866Y-64080000D01*
X46635791Y-64153016D01*
X46290013Y-64296242D01*
X45978821Y-64504174D01*
X45714174Y-64768821D01*
X45506242Y-65080013D01*
X45363016Y-65425791D01*
X45290000Y-65792866D01*
X37334351Y-65792866D01*
X37333318Y-65782379D01*
X37299010Y-65669279D01*
X37243296Y-65565045D01*
X37168317Y-65473683D01*
X37076955Y-65398704D01*
X36972721Y-65342990D01*
X36859621Y-65308682D01*
X36742000Y-65297097D01*
X36617000Y-65297097D01*
X36617000Y-64121596D01*
X36620506Y-64085999D01*
X36617000Y-64050402D01*
X36617000Y-64050393D01*
X36606509Y-63943875D01*
X36565053Y-63807212D01*
X36497731Y-63681263D01*
X36486105Y-63667097D01*
X36429830Y-63598525D01*
X36429823Y-63598518D01*
X36407131Y-63570868D01*
X36379482Y-63548177D01*
X36306000Y-63474695D01*
X36306000Y-63401509D01*
X36275068Y-63246000D01*
X38581775Y-63246000D01*
X38614598Y-63579258D01*
X38711806Y-63899709D01*
X38869663Y-64195039D01*
X39082103Y-64453897D01*
X39340961Y-64666337D01*
X39636291Y-64824194D01*
X39956742Y-64921402D01*
X40206490Y-64946000D01*
X40373510Y-64946000D01*
X40623258Y-64921402D01*
X40943709Y-64824194D01*
X41239039Y-64666337D01*
X41497897Y-64453897D01*
X41710337Y-64195039D01*
X41868194Y-63899709D01*
X41965402Y-63579258D01*
X41989951Y-63330000D01*
X55043226Y-63330000D01*
X55070257Y-63604448D01*
X55150310Y-63868349D01*
X55280310Y-64111562D01*
X55455261Y-64324739D01*
X55668438Y-64499690D01*
X55911651Y-64629690D01*
X56175552Y-64709743D01*
X56381223Y-64730000D01*
X56518777Y-64730000D01*
X56724448Y-64709743D01*
X56988349Y-64629690D01*
X57231562Y-64499690D01*
X57444739Y-64324739D01*
X57619690Y-64111562D01*
X57720000Y-63923895D01*
X57820310Y-64111562D01*
X57995261Y-64324739D01*
X58208438Y-64499690D01*
X58451651Y-64629690D01*
X58715552Y-64709743D01*
X58921223Y-64730000D01*
X59058777Y-64730000D01*
X59264448Y-64709743D01*
X59528349Y-64629690D01*
X59771562Y-64499690D01*
X59984739Y-64324739D01*
X60159690Y-64111562D01*
X60260000Y-63923895D01*
X60360310Y-64111562D01*
X60535261Y-64324739D01*
X60748438Y-64499690D01*
X60991651Y-64629690D01*
X61255552Y-64709743D01*
X61461223Y-64730000D01*
X61598777Y-64730000D01*
X61804448Y-64709743D01*
X62068349Y-64629690D01*
X62311562Y-64499690D01*
X62524739Y-64324739D01*
X62699690Y-64111562D01*
X62800000Y-63923895D01*
X62900310Y-64111562D01*
X63075261Y-64324739D01*
X63288438Y-64499690D01*
X63531651Y-64629690D01*
X63795552Y-64709743D01*
X64001223Y-64730000D01*
X64138777Y-64730000D01*
X64344448Y-64709743D01*
X64608349Y-64629690D01*
X64851562Y-64499690D01*
X65064739Y-64324739D01*
X65109662Y-64270000D01*
X77557097Y-64270000D01*
X77557097Y-65870000D01*
X77568682Y-65987621D01*
X77602990Y-66100721D01*
X77658704Y-66204955D01*
X77733683Y-66296317D01*
X77825045Y-66371296D01*
X77929279Y-66427010D01*
X78042379Y-66461318D01*
X78160000Y-66472903D01*
X79760000Y-66472903D01*
X79877621Y-66461318D01*
X79990721Y-66427010D01*
X80094955Y-66371296D01*
X80186317Y-66296317D01*
X80261296Y-66204955D01*
X80317010Y-66100721D01*
X80351318Y-65987621D01*
X80361032Y-65888997D01*
X80505261Y-66064739D01*
X80718438Y-66239690D01*
X80961651Y-66369690D01*
X81225552Y-66449743D01*
X81431223Y-66470000D01*
X81568777Y-66470000D01*
X81774448Y-66449743D01*
X82038349Y-66369690D01*
X82281562Y-66239690D01*
X82494739Y-66064739D01*
X82669690Y-65851562D01*
X82770000Y-65663895D01*
X82870310Y-65851562D01*
X83045261Y-66064739D01*
X83258438Y-66239690D01*
X83501651Y-66369690D01*
X83765552Y-66449743D01*
X83971223Y-66470000D01*
X84108777Y-66470000D01*
X84314448Y-66449743D01*
X84578349Y-66369690D01*
X84821562Y-66239690D01*
X85034739Y-66064739D01*
X85209690Y-65851562D01*
X85339690Y-65608349D01*
X85364117Y-65527823D01*
X85471829Y-65749675D01*
X85625720Y-65952809D01*
X85816284Y-66122017D01*
X86036197Y-66250796D01*
X86277008Y-66334198D01*
X86376141Y-66353917D01*
X86579500Y-66245000D01*
X86579500Y-65070500D01*
X86580500Y-65070500D01*
X86580500Y-66245000D01*
X86783859Y-66353917D01*
X86882992Y-66334198D01*
X87123803Y-66250796D01*
X87343716Y-66122017D01*
X87534280Y-65952809D01*
X87688171Y-65749675D01*
X87799476Y-65520422D01*
X87863917Y-65273859D01*
X87755000Y-65070500D01*
X86580500Y-65070500D01*
X86579500Y-65070500D01*
X86559500Y-65070500D01*
X86559500Y-65069500D01*
X86579500Y-65069500D01*
X86579500Y-63895000D01*
X86580500Y-63895000D01*
X86580500Y-65069500D01*
X87755000Y-65069500D01*
X87863917Y-64866141D01*
X87799476Y-64619578D01*
X87688171Y-64390325D01*
X87534280Y-64187191D01*
X87343716Y-64017983D01*
X87123803Y-63889204D01*
X86882992Y-63805802D01*
X86783859Y-63786083D01*
X86580500Y-63895000D01*
X86579500Y-63895000D01*
X86376141Y-63786083D01*
X86277008Y-63805802D01*
X86036197Y-63889204D01*
X85816284Y-64017983D01*
X85625720Y-64187191D01*
X85471829Y-64390325D01*
X85364117Y-64612177D01*
X85339690Y-64531651D01*
X85209690Y-64288438D01*
X85034739Y-64075261D01*
X84821562Y-63900310D01*
X84578349Y-63770310D01*
X84314448Y-63690257D01*
X84108777Y-63670000D01*
X83971223Y-63670000D01*
X83765552Y-63690257D01*
X83501651Y-63770310D01*
X83258438Y-63900310D01*
X83045261Y-64075261D01*
X82870310Y-64288438D01*
X82770000Y-64476105D01*
X82669690Y-64288438D01*
X82494739Y-64075261D01*
X82281562Y-63900310D01*
X82038349Y-63770310D01*
X81774448Y-63690257D01*
X81568777Y-63670000D01*
X81431223Y-63670000D01*
X81225552Y-63690257D01*
X80961651Y-63770310D01*
X80718438Y-63900310D01*
X80505261Y-64075261D01*
X80361032Y-64251003D01*
X80351318Y-64152379D01*
X80317010Y-64039279D01*
X80261296Y-63935045D01*
X80186317Y-63843683D01*
X80094955Y-63768704D01*
X79990721Y-63712990D01*
X79877621Y-63678682D01*
X79760000Y-63667097D01*
X78160000Y-63667097D01*
X78042379Y-63678682D01*
X77929279Y-63712990D01*
X77825045Y-63768704D01*
X77733683Y-63843683D01*
X77658704Y-63935045D01*
X77602990Y-64039279D01*
X77568682Y-64152379D01*
X77557097Y-64270000D01*
X65109662Y-64270000D01*
X65239690Y-64111562D01*
X65369690Y-63868349D01*
X65449743Y-63604448D01*
X65476774Y-63330000D01*
X65449743Y-63055552D01*
X65369690Y-62791651D01*
X65239690Y-62548438D01*
X65064739Y-62335261D01*
X64851562Y-62160310D01*
X64608349Y-62030310D01*
X64344448Y-61950257D01*
X64138777Y-61930000D01*
X64001223Y-61930000D01*
X63795552Y-61950257D01*
X63531651Y-62030310D01*
X63288438Y-62160310D01*
X63075261Y-62335261D01*
X62900310Y-62548438D01*
X62800000Y-62736105D01*
X62699690Y-62548438D01*
X62524739Y-62335261D01*
X62311562Y-62160310D01*
X62068349Y-62030310D01*
X61804448Y-61950257D01*
X61598777Y-61930000D01*
X61461223Y-61930000D01*
X61255552Y-61950257D01*
X60991651Y-62030310D01*
X60748438Y-62160310D01*
X60535261Y-62335261D01*
X60360310Y-62548438D01*
X60260000Y-62736105D01*
X60159690Y-62548438D01*
X59984739Y-62335261D01*
X59771562Y-62160310D01*
X59528349Y-62030310D01*
X59264448Y-61950257D01*
X59058777Y-61930000D01*
X58921223Y-61930000D01*
X58715552Y-61950257D01*
X58451651Y-62030310D01*
X58208438Y-62160310D01*
X57995261Y-62335261D01*
X57820310Y-62548438D01*
X57720000Y-62736105D01*
X57619690Y-62548438D01*
X57444739Y-62335261D01*
X57231562Y-62160310D01*
X56988349Y-62030310D01*
X56724448Y-61950257D01*
X56518777Y-61930000D01*
X56381223Y-61930000D01*
X56175552Y-61950257D01*
X55911651Y-62030310D01*
X55668438Y-62160310D01*
X55455261Y-62335261D01*
X55280310Y-62548438D01*
X55150310Y-62791651D01*
X55070257Y-63055552D01*
X55043226Y-63330000D01*
X41989951Y-63330000D01*
X41998225Y-63246000D01*
X41965402Y-62912742D01*
X41868194Y-62592291D01*
X41710337Y-62296961D01*
X41497897Y-62038103D01*
X41239039Y-61825663D01*
X40943709Y-61667806D01*
X40623258Y-61570598D01*
X40373510Y-61546000D01*
X40206490Y-61546000D01*
X39956742Y-61570598D01*
X39636291Y-61667806D01*
X39340961Y-61825663D01*
X39082103Y-62038103D01*
X38869663Y-62296961D01*
X38711806Y-62592291D01*
X38614598Y-62912742D01*
X38581775Y-63246000D01*
X36275068Y-63246000D01*
X36267571Y-63208311D01*
X36192189Y-63026322D01*
X36082751Y-62862537D01*
X35943463Y-62723249D01*
X35779678Y-62613811D01*
X35597689Y-62538429D01*
X35404491Y-62500000D01*
X35207509Y-62500000D01*
X35014311Y-62538429D01*
X34832322Y-62613811D01*
X34668537Y-62723249D01*
X34529249Y-62862537D01*
X34419811Y-63026322D01*
X34344429Y-63208311D01*
X34306000Y-63401509D01*
X29445000Y-63401509D01*
X29445000Y-60792866D01*
X45290000Y-60792866D01*
X45290000Y-61167134D01*
X45363016Y-61534209D01*
X45506242Y-61879987D01*
X45714174Y-62191179D01*
X45978821Y-62455826D01*
X46290013Y-62663758D01*
X46635791Y-62806984D01*
X47002866Y-62880000D01*
X47377134Y-62880000D01*
X47744209Y-62806984D01*
X48089987Y-62663758D01*
X48401179Y-62455826D01*
X48665826Y-62191179D01*
X48873758Y-61879987D01*
X49016984Y-61534209D01*
X49090000Y-61167134D01*
X49090000Y-60792866D01*
X49016984Y-60425791D01*
X48953329Y-60272112D01*
X53410000Y-60272112D01*
X53410000Y-60547888D01*
X53463801Y-60818365D01*
X53569336Y-61073149D01*
X53722549Y-61302448D01*
X53917552Y-61497451D01*
X54146851Y-61650664D01*
X54401635Y-61756199D01*
X54672112Y-61810000D01*
X54947888Y-61810000D01*
X55218365Y-61756199D01*
X55473149Y-61650664D01*
X55702448Y-61497451D01*
X55897451Y-61302448D01*
X56050664Y-61073149D01*
X56156199Y-60818365D01*
X56210000Y-60547888D01*
X56210000Y-60410000D01*
X63563226Y-60410000D01*
X63590257Y-60684448D01*
X63670310Y-60948349D01*
X63800310Y-61191562D01*
X63975261Y-61404739D01*
X64188438Y-61579690D01*
X64431651Y-61709690D01*
X64695552Y-61789743D01*
X64901223Y-61810000D01*
X65038777Y-61810000D01*
X65244448Y-61789743D01*
X65508349Y-61709690D01*
X65751562Y-61579690D01*
X65964739Y-61404739D01*
X66139690Y-61191562D01*
X66269690Y-60948349D01*
X66349743Y-60684448D01*
X66376774Y-60410000D01*
X66365940Y-60300000D01*
X69897097Y-60300000D01*
X69897097Y-62300000D01*
X69908682Y-62417621D01*
X69942990Y-62530721D01*
X69998704Y-62634955D01*
X70073683Y-62726317D01*
X70165045Y-62801296D01*
X70269279Y-62857010D01*
X70382379Y-62891318D01*
X70500000Y-62902903D01*
X72500000Y-62902903D01*
X72617621Y-62891318D01*
X72730721Y-62857010D01*
X72834955Y-62801296D01*
X72926317Y-62726317D01*
X73001296Y-62634955D01*
X73057010Y-62530721D01*
X73091318Y-62417621D01*
X73102903Y-62300000D01*
X73102903Y-60300000D01*
X73091318Y-60182379D01*
X73057010Y-60069279D01*
X73001296Y-59965045D01*
X72926317Y-59873683D01*
X72834955Y-59798704D01*
X72730721Y-59742990D01*
X72617621Y-59708682D01*
X72500000Y-59697097D01*
X70500000Y-59697097D01*
X70382379Y-59708682D01*
X70269279Y-59742990D01*
X70165045Y-59798704D01*
X70073683Y-59873683D01*
X69998704Y-59965045D01*
X69942990Y-60069279D01*
X69908682Y-60182379D01*
X69897097Y-60300000D01*
X66365940Y-60300000D01*
X66349743Y-60135552D01*
X66269690Y-59871651D01*
X66139690Y-59628438D01*
X65964739Y-59415261D01*
X65751562Y-59240310D01*
X65508349Y-59110310D01*
X65244448Y-59030257D01*
X65038777Y-59010000D01*
X64901223Y-59010000D01*
X64695552Y-59030257D01*
X64431651Y-59110310D01*
X64188438Y-59240310D01*
X63975261Y-59415261D01*
X63800310Y-59628438D01*
X63670310Y-59871651D01*
X63590257Y-60135552D01*
X63563226Y-60410000D01*
X56210000Y-60410000D01*
X56210000Y-60272112D01*
X56156199Y-60001635D01*
X56050664Y-59746851D01*
X55897451Y-59517552D01*
X55702448Y-59322549D01*
X55473149Y-59169336D01*
X55218365Y-59063801D01*
X54947888Y-59010000D01*
X54672112Y-59010000D01*
X54401635Y-59063801D01*
X54146851Y-59169336D01*
X53917552Y-59322549D01*
X53722549Y-59517552D01*
X53569336Y-59746851D01*
X53463801Y-60001635D01*
X53410000Y-60272112D01*
X48953329Y-60272112D01*
X48873758Y-60080013D01*
X48665826Y-59768821D01*
X48401179Y-59504174D01*
X48089987Y-59296242D01*
X47744209Y-59153016D01*
X47377134Y-59080000D01*
X47002866Y-59080000D01*
X46635791Y-59153016D01*
X46290013Y-59296242D01*
X45978821Y-59504174D01*
X45714174Y-59768821D01*
X45506242Y-60080013D01*
X45363016Y-60425791D01*
X45290000Y-60792866D01*
X29445000Y-60792866D01*
X29445000Y-53241509D01*
X38624000Y-53241509D01*
X38624000Y-53438491D01*
X38662429Y-53631689D01*
X38737811Y-53813678D01*
X38847249Y-53977463D01*
X38899000Y-54029214D01*
X38899001Y-54936785D01*
X38847249Y-54988537D01*
X38737811Y-55152322D01*
X38662429Y-55334311D01*
X38624000Y-55527509D01*
X38624000Y-55724491D01*
X38662429Y-55917689D01*
X38737811Y-56099678D01*
X38847249Y-56263463D01*
X38986537Y-56402751D01*
X39150322Y-56512189D01*
X39332311Y-56587571D01*
X39525509Y-56626000D01*
X39722491Y-56626000D01*
X39915689Y-56587571D01*
X40097678Y-56512189D01*
X40261463Y-56402751D01*
X40400751Y-56263463D01*
X40510189Y-56099678D01*
X40585571Y-55917689D01*
X40624000Y-55724491D01*
X40624000Y-55527509D01*
X40585571Y-55334311D01*
X40510189Y-55152322D01*
X40497492Y-55133319D01*
X46895000Y-55133319D01*
X46895000Y-55566681D01*
X46979545Y-55991716D01*
X47145385Y-56392091D01*
X47386148Y-56752418D01*
X47692582Y-57058852D01*
X48052909Y-57299615D01*
X48453284Y-57465455D01*
X48878319Y-57550000D01*
X49311681Y-57550000D01*
X49736716Y-57465455D01*
X50137091Y-57299615D01*
X50497418Y-57058852D01*
X50803852Y-56752418D01*
X51044615Y-56392091D01*
X51136607Y-56170000D01*
X63247097Y-56170000D01*
X63247097Y-57870000D01*
X63258682Y-57987621D01*
X63292990Y-58100721D01*
X63348704Y-58204955D01*
X63423683Y-58296317D01*
X63515045Y-58371296D01*
X63619279Y-58427010D01*
X63732379Y-58461318D01*
X63850000Y-58472903D01*
X65550000Y-58472903D01*
X65667621Y-58461318D01*
X65780721Y-58427010D01*
X65884955Y-58371296D01*
X65976317Y-58296317D01*
X66051296Y-58204955D01*
X66107010Y-58100721D01*
X66141318Y-57987621D01*
X66152903Y-57870000D01*
X66152903Y-56170000D01*
X66141318Y-56052379D01*
X66107010Y-55939279D01*
X66051296Y-55835045D01*
X65976317Y-55743683D01*
X65884955Y-55668704D01*
X65780721Y-55612990D01*
X65667621Y-55578682D01*
X65550000Y-55567097D01*
X63850000Y-55567097D01*
X63732379Y-55578682D01*
X63619279Y-55612990D01*
X63515045Y-55668704D01*
X63423683Y-55743683D01*
X63348704Y-55835045D01*
X63292990Y-55939279D01*
X63258682Y-56052379D01*
X63247097Y-56170000D01*
X51136607Y-56170000D01*
X51210455Y-55991716D01*
X51295000Y-55566681D01*
X51295000Y-55133319D01*
X67395000Y-55133319D01*
X67395000Y-55566681D01*
X67479545Y-55991716D01*
X67645385Y-56392091D01*
X67886148Y-56752418D01*
X68192582Y-57058852D01*
X68552909Y-57299615D01*
X68953284Y-57465455D01*
X69378319Y-57550000D01*
X69811681Y-57550000D01*
X70236716Y-57465455D01*
X70637091Y-57299615D01*
X70997418Y-57058852D01*
X71303852Y-56752418D01*
X71544615Y-56392091D01*
X71624181Y-56200000D01*
X74047097Y-56200000D01*
X74047097Y-57900000D01*
X74058682Y-58017621D01*
X74092990Y-58130721D01*
X74148704Y-58234955D01*
X74223683Y-58326317D01*
X74315045Y-58401296D01*
X74419279Y-58457010D01*
X74532379Y-58491318D01*
X74650000Y-58502903D01*
X76350000Y-58502903D01*
X76467621Y-58491318D01*
X76580721Y-58457010D01*
X76684955Y-58401296D01*
X76776317Y-58326317D01*
X76851296Y-58234955D01*
X76907010Y-58130721D01*
X76941318Y-58017621D01*
X76952903Y-57900000D01*
X76952903Y-57450000D01*
X77553226Y-57450000D01*
X77580257Y-57724448D01*
X77660310Y-57988349D01*
X77790310Y-58231562D01*
X77965261Y-58444739D01*
X78178438Y-58619690D01*
X78421651Y-58749690D01*
X78685552Y-58829743D01*
X78891223Y-58850000D01*
X79028777Y-58850000D01*
X79234448Y-58829743D01*
X79498349Y-58749690D01*
X79741562Y-58619690D01*
X79954739Y-58444739D01*
X80129690Y-58231562D01*
X80230000Y-58043895D01*
X80330310Y-58231562D01*
X80505261Y-58444739D01*
X80718438Y-58619690D01*
X80961651Y-58749690D01*
X81225552Y-58829743D01*
X81431223Y-58850000D01*
X81568777Y-58850000D01*
X81774448Y-58829743D01*
X82038349Y-58749690D01*
X82281562Y-58619690D01*
X82494739Y-58444739D01*
X82669690Y-58231562D01*
X82770000Y-58043895D01*
X82870310Y-58231562D01*
X83045261Y-58444739D01*
X83258438Y-58619690D01*
X83501651Y-58749690D01*
X83765552Y-58829743D01*
X83971223Y-58850000D01*
X84108777Y-58850000D01*
X84314448Y-58829743D01*
X84578349Y-58749690D01*
X84821562Y-58619690D01*
X85034739Y-58444739D01*
X85209690Y-58231562D01*
X85310000Y-58043895D01*
X85410310Y-58231562D01*
X85585261Y-58444739D01*
X85798438Y-58619690D01*
X86041651Y-58749690D01*
X86305552Y-58829743D01*
X86511223Y-58850000D01*
X86648777Y-58850000D01*
X86854448Y-58829743D01*
X87118349Y-58749690D01*
X87361562Y-58619690D01*
X87574739Y-58444739D01*
X87749690Y-58231562D01*
X87879690Y-57988349D01*
X87959743Y-57724448D01*
X87986774Y-57450000D01*
X87959743Y-57175552D01*
X87879690Y-56911651D01*
X87749690Y-56668438D01*
X87574739Y-56455261D01*
X87361562Y-56280310D01*
X87118349Y-56150310D01*
X86854448Y-56070257D01*
X86648777Y-56050000D01*
X86511223Y-56050000D01*
X86305552Y-56070257D01*
X86041651Y-56150310D01*
X85798438Y-56280310D01*
X85585261Y-56455261D01*
X85410310Y-56668438D01*
X85310000Y-56856105D01*
X85209690Y-56668438D01*
X85034739Y-56455261D01*
X84821562Y-56280310D01*
X84578349Y-56150310D01*
X84314448Y-56070257D01*
X84108777Y-56050000D01*
X83971223Y-56050000D01*
X83765552Y-56070257D01*
X83501651Y-56150310D01*
X83258438Y-56280310D01*
X83045261Y-56455261D01*
X82870310Y-56668438D01*
X82770000Y-56856105D01*
X82669690Y-56668438D01*
X82494739Y-56455261D01*
X82281562Y-56280310D01*
X82038349Y-56150310D01*
X81774448Y-56070257D01*
X81568777Y-56050000D01*
X81431223Y-56050000D01*
X81225552Y-56070257D01*
X80961651Y-56150310D01*
X80718438Y-56280310D01*
X80505261Y-56455261D01*
X80330310Y-56668438D01*
X80230000Y-56856105D01*
X80129690Y-56668438D01*
X79954739Y-56455261D01*
X79741562Y-56280310D01*
X79498349Y-56150310D01*
X79234448Y-56070257D01*
X79028777Y-56050000D01*
X78891223Y-56050000D01*
X78685552Y-56070257D01*
X78421651Y-56150310D01*
X78178438Y-56280310D01*
X77965261Y-56455261D01*
X77790310Y-56668438D01*
X77660310Y-56911651D01*
X77580257Y-57175552D01*
X77553226Y-57450000D01*
X76952903Y-57450000D01*
X76952903Y-56200000D01*
X76941318Y-56082379D01*
X76907010Y-55969279D01*
X76851296Y-55865045D01*
X76776317Y-55773683D01*
X76684955Y-55698704D01*
X76580721Y-55642990D01*
X76467621Y-55608682D01*
X76350000Y-55597097D01*
X74650000Y-55597097D01*
X74532379Y-55608682D01*
X74419279Y-55642990D01*
X74315045Y-55698704D01*
X74223683Y-55773683D01*
X74148704Y-55865045D01*
X74092990Y-55969279D01*
X74058682Y-56082379D01*
X74047097Y-56200000D01*
X71624181Y-56200000D01*
X71710455Y-55991716D01*
X71795000Y-55566681D01*
X71795000Y-55133319D01*
X71710455Y-54708284D01*
X71544615Y-54307909D01*
X71303852Y-53947582D01*
X70997418Y-53641148D01*
X70637091Y-53400385D01*
X70236716Y-53234545D01*
X69811681Y-53150000D01*
X69378319Y-53150000D01*
X68953284Y-53234545D01*
X68552909Y-53400385D01*
X68192582Y-53641148D01*
X67886148Y-53947582D01*
X67645385Y-54307909D01*
X67479545Y-54708284D01*
X67395000Y-55133319D01*
X51295000Y-55133319D01*
X51210455Y-54708284D01*
X51044615Y-54307909D01*
X50803852Y-53947582D01*
X50497418Y-53641148D01*
X50137091Y-53400385D01*
X49736716Y-53234545D01*
X49311681Y-53150000D01*
X48878319Y-53150000D01*
X48453284Y-53234545D01*
X48052909Y-53400385D01*
X47692582Y-53641148D01*
X47386148Y-53947582D01*
X47145385Y-54307909D01*
X46979545Y-54708284D01*
X46895000Y-55133319D01*
X40497492Y-55133319D01*
X40400751Y-54988537D01*
X40349000Y-54936786D01*
X40349000Y-54029214D01*
X40400751Y-53977463D01*
X40510189Y-53813678D01*
X40585571Y-53631689D01*
X40624000Y-53438491D01*
X40624000Y-53241509D01*
X40585571Y-53048311D01*
X40510189Y-52866322D01*
X40400751Y-52702537D01*
X40261463Y-52563249D01*
X40097678Y-52453811D01*
X39915689Y-52378429D01*
X39722491Y-52340000D01*
X39525509Y-52340000D01*
X39332311Y-52378429D01*
X39150322Y-52453811D01*
X38986537Y-52563249D01*
X38847249Y-52702537D01*
X38737811Y-52866322D01*
X38662429Y-53048311D01*
X38624000Y-53241509D01*
X29445000Y-53241509D01*
X29445000Y-44696584D01*
X77970000Y-44696584D01*
X77970000Y-44903416D01*
X78010350Y-45106274D01*
X78089502Y-45297362D01*
X78204411Y-45469336D01*
X78350664Y-45615589D01*
X78522638Y-45730498D01*
X78713726Y-45809650D01*
X78916584Y-45850000D01*
X79123416Y-45850000D01*
X79326274Y-45809650D01*
X79517362Y-45730498D01*
X79689336Y-45615589D01*
X79835589Y-45469336D01*
X79950498Y-45297362D01*
X80029650Y-45106274D01*
X80070000Y-44903416D01*
X80070000Y-44696584D01*
X80029650Y-44493726D01*
X79950498Y-44302638D01*
X79835589Y-44130664D01*
X79689336Y-43984411D01*
X79517362Y-43869502D01*
X79326274Y-43790350D01*
X79123416Y-43750000D01*
X78916584Y-43750000D01*
X78713726Y-43790350D01*
X78522638Y-43869502D01*
X78350664Y-43984411D01*
X78204411Y-44130664D01*
X78089502Y-44302638D01*
X78010350Y-44493726D01*
X77970000Y-44696584D01*
X29445000Y-44696584D01*
X29445000Y-40296584D01*
X77970000Y-40296584D01*
X77970000Y-40503416D01*
X78010350Y-40706274D01*
X78089502Y-40897362D01*
X78204411Y-41069336D01*
X78350664Y-41215589D01*
X78522638Y-41330498D01*
X78713726Y-41409650D01*
X78916584Y-41450000D01*
X79123416Y-41450000D01*
X79326274Y-41409650D01*
X79517362Y-41330498D01*
X79689336Y-41215589D01*
X79835589Y-41069336D01*
X79950498Y-40897362D01*
X80029650Y-40706274D01*
X80070000Y-40503416D01*
X80070000Y-40296584D01*
X80029650Y-40093726D01*
X79950498Y-39902638D01*
X79835589Y-39730664D01*
X79689336Y-39584411D01*
X79517362Y-39469502D01*
X79326274Y-39390350D01*
X79123416Y-39350000D01*
X78916584Y-39350000D01*
X78713726Y-39390350D01*
X78522638Y-39469502D01*
X78350664Y-39584411D01*
X78204411Y-39730664D01*
X78089502Y-39902638D01*
X78010350Y-40093726D01*
X77970000Y-40296584D01*
X29445000Y-40296584D01*
X29445000Y-37504000D01*
X32583097Y-37504000D01*
X32583097Y-39204000D01*
X32594682Y-39321621D01*
X32628990Y-39434721D01*
X32684704Y-39538955D01*
X32759683Y-39630317D01*
X32851045Y-39705296D01*
X32955279Y-39761010D01*
X33068379Y-39795318D01*
X33186000Y-39806903D01*
X34886000Y-39806903D01*
X35003621Y-39795318D01*
X35116721Y-39761010D01*
X35220955Y-39705296D01*
X35312317Y-39630317D01*
X35387296Y-39538955D01*
X35443010Y-39434721D01*
X35477318Y-39321621D01*
X35488903Y-39204000D01*
X35488903Y-37504000D01*
X35477318Y-37386379D01*
X35443010Y-37273279D01*
X35387296Y-37169045D01*
X35312317Y-37077683D01*
X35220955Y-37002704D01*
X35116721Y-36946990D01*
X35003621Y-36912682D01*
X34886000Y-36901097D01*
X33186000Y-36901097D01*
X33068379Y-36912682D01*
X32955279Y-36946990D01*
X32851045Y-37002704D01*
X32759683Y-37077683D01*
X32684704Y-37169045D01*
X32628990Y-37273279D01*
X32594682Y-37386379D01*
X32583097Y-37504000D01*
X29445000Y-37504000D01*
X29445000Y-31580567D01*
X29469243Y-31333319D01*
X30070000Y-31333319D01*
X30070000Y-31766681D01*
X30154545Y-32191716D01*
X30320385Y-32592091D01*
X30561148Y-32952418D01*
X30867582Y-33258852D01*
X31227909Y-33499615D01*
X31628284Y-33665455D01*
X32053319Y-33750000D01*
X32486681Y-33750000D01*
X32911716Y-33665455D01*
X33312091Y-33499615D01*
X33672418Y-33258852D01*
X33978852Y-32952418D01*
X34219615Y-32592091D01*
X34385455Y-32191716D01*
X34470000Y-31766681D01*
X34470000Y-31333319D01*
X34385455Y-30908284D01*
X34219615Y-30507909D01*
X33978852Y-30147582D01*
X33672418Y-29841148D01*
X33312091Y-29600385D01*
X32911716Y-29434545D01*
X32486681Y-29350000D01*
X32053319Y-29350000D01*
X31628284Y-29434545D01*
X31227909Y-29600385D01*
X30867582Y-29841148D01*
X30561148Y-30147582D01*
X30320385Y-30507909D01*
X30154545Y-30908284D01*
X30070000Y-31333319D01*
X29469243Y-31333319D01*
X29501742Y-31001872D01*
X29660929Y-30474617D01*
X29919495Y-29988326D01*
X30267592Y-29561517D01*
X30691954Y-29210455D01*
X31176431Y-28948499D01*
X31702559Y-28785635D01*
X32279466Y-28725000D01*
X40499695Y-28725000D01*
X37962524Y-31262172D01*
X37962524Y-31262172D01*
G37*
X37962524Y-31262172D02*
X37934868Y-31284869D01*
X37912172Y-31312524D01*
X37912170Y-31312526D01*
X37857791Y-31378787D01*
X37844269Y-31395264D01*
X37816563Y-31447097D01*
X37600000Y-31447097D01*
X37482379Y-31458682D01*
X37369279Y-31492990D01*
X37265045Y-31548704D01*
X37173683Y-31623683D01*
X37098704Y-31715045D01*
X37042990Y-31819279D01*
X37008682Y-31932379D01*
X36997097Y-32050000D01*
X36997097Y-33750000D01*
X37008682Y-33867621D01*
X37042990Y-33980721D01*
X37098704Y-34084955D01*
X37173683Y-34176317D01*
X37265045Y-34251296D01*
X37369279Y-34307010D01*
X37482379Y-34341318D01*
X37600000Y-34352903D01*
X39300000Y-34352903D01*
X39417621Y-34341318D01*
X39530721Y-34307010D01*
X39634955Y-34251296D01*
X39726317Y-34176317D01*
X39801296Y-34084955D01*
X39857010Y-33980721D01*
X39891318Y-33867621D01*
X39902903Y-33750000D01*
X39902903Y-33689892D01*
X39999004Y-33816748D01*
X40196894Y-33992467D01*
X40425263Y-34126203D01*
X40675335Y-34212817D01*
X40778320Y-34233301D01*
X40989500Y-34125000D01*
X40989500Y-32900500D01*
X40969500Y-32900500D01*
X40969500Y-32899500D01*
X40989500Y-32899500D01*
X40989500Y-31675000D01*
X40778320Y-31566699D01*
X40675335Y-31587183D01*
X40425263Y-31673797D01*
X40196894Y-31807533D01*
X39999004Y-31983252D01*
X39902903Y-32110108D01*
X39902903Y-32050000D01*
X39891318Y-31932379D01*
X39857010Y-31819279D01*
X39801296Y-31715045D01*
X39726317Y-31623683D01*
X39685291Y-31590014D01*
X41750305Y-29525000D01*
X45879695Y-29525000D01*
X43905910Y-31498786D01*
X43814250Y-31470981D01*
X43601225Y-31450000D01*
X43458775Y-31450000D01*
X43245750Y-31470981D01*
X42972424Y-31553894D01*
X42720526Y-31688536D01*
X42499735Y-31869735D01*
X42318536Y-32090526D01*
X42199023Y-32314120D01*
X42140803Y-32194201D01*
X41980996Y-31983252D01*
X41783106Y-31807533D01*
X41554737Y-31673797D01*
X41304665Y-31587183D01*
X41201680Y-31566699D01*
X40990500Y-31675000D01*
X40990500Y-32899500D01*
X41010500Y-32899500D01*
X41010500Y-32900500D01*
X40990500Y-32900500D01*
X40990500Y-34125000D01*
X41201680Y-34233301D01*
X41304665Y-34212817D01*
X41554737Y-34126203D01*
X41783106Y-33992467D01*
X41980996Y-33816748D01*
X42140803Y-33605799D01*
X42199023Y-33485880D01*
X42318536Y-33709474D01*
X42499735Y-33930265D01*
X42720526Y-34111464D01*
X42972424Y-34246106D01*
X43245750Y-34329019D01*
X43458775Y-34350000D01*
X43601225Y-34350000D01*
X43814250Y-34329019D01*
X44087576Y-34246106D01*
X44339474Y-34111464D01*
X44560265Y-33930265D01*
X44741464Y-33709474D01*
X44876106Y-33457576D01*
X44959019Y-33184250D01*
X44987015Y-32900000D01*
X44959019Y-32615750D01*
X44931214Y-32524090D01*
X45321985Y-32133319D01*
X46895000Y-32133319D01*
X46895000Y-32566681D01*
X46979545Y-32991716D01*
X47145385Y-33392091D01*
X47386148Y-33752418D01*
X47692582Y-34058852D01*
X48052909Y-34299615D01*
X48453284Y-34465455D01*
X48878319Y-34550000D01*
X49311681Y-34550000D01*
X49736716Y-34465455D01*
X50137091Y-34299615D01*
X50497418Y-34058852D01*
X50803852Y-33752418D01*
X51044615Y-33392091D01*
X51210455Y-32991716D01*
X51295000Y-32566681D01*
X51295000Y-32133319D01*
X51210455Y-31708284D01*
X51044615Y-31307909D01*
X50803852Y-30947582D01*
X50497418Y-30641148D01*
X50137091Y-30400385D01*
X49736716Y-30234545D01*
X49311681Y-30150000D01*
X48878319Y-30150000D01*
X48453284Y-30234545D01*
X48052909Y-30400385D01*
X47692582Y-30641148D01*
X47386148Y-30947582D01*
X47145385Y-31307909D01*
X46979545Y-31708284D01*
X46895000Y-32133319D01*
X45321985Y-32133319D01*
X47430305Y-30025000D01*
X62799696Y-30025000D01*
X63262696Y-30488000D01*
X63020855Y-30488000D01*
X62757719Y-30540341D01*
X62509851Y-30643011D01*
X62286776Y-30792066D01*
X62097066Y-30981776D01*
X61948011Y-31204851D01*
X61885000Y-31356973D01*
X61821989Y-31204851D01*
X61672934Y-30981776D01*
X61483224Y-30792066D01*
X61260149Y-30643011D01*
X61012281Y-30540341D01*
X60749145Y-30488000D01*
X60480855Y-30488000D01*
X60217719Y-30540341D01*
X59969851Y-30643011D01*
X59746776Y-30792066D01*
X59557066Y-30981776D01*
X59408011Y-31204851D01*
X59345000Y-31356973D01*
X59281989Y-31204851D01*
X59132934Y-30981776D01*
X58943224Y-30792066D01*
X58720149Y-30643011D01*
X58472281Y-30540341D01*
X58209145Y-30488000D01*
X57940855Y-30488000D01*
X57677719Y-30540341D01*
X57429851Y-30643011D01*
X57206776Y-30792066D01*
X57017066Y-30981776D01*
X56868011Y-31204851D01*
X56805000Y-31356973D01*
X56741989Y-31204851D01*
X56592934Y-30981776D01*
X56403224Y-30792066D01*
X56180149Y-30643011D01*
X55932281Y-30540341D01*
X55669145Y-30488000D01*
X55400855Y-30488000D01*
X55137719Y-30540341D01*
X54889851Y-30643011D01*
X54666776Y-30792066D01*
X54477066Y-30981776D01*
X54328011Y-31204851D01*
X54225341Y-31452719D01*
X54173000Y-31715855D01*
X54173000Y-31984145D01*
X54225341Y-32247281D01*
X54328011Y-32495149D01*
X54477066Y-32718224D01*
X54666776Y-32907934D01*
X54816514Y-33007986D01*
X54759045Y-33038704D01*
X54757466Y-33040000D01*
X54144754Y-33040000D01*
X54081151Y-33052651D01*
X54068500Y-33040000D01*
X53544754Y-33040000D01*
X53448155Y-33059215D01*
X53357161Y-33096906D01*
X53275268Y-33151625D01*
X53205624Y-33221269D01*
X53150906Y-33303161D01*
X53113215Y-33394156D01*
X53094000Y-33490755D01*
X53094000Y-34164500D01*
X53219000Y-34289500D01*
X54015783Y-34289500D01*
X54015734Y-34290000D01*
X54015783Y-34290500D01*
X53219000Y-34290500D01*
X53094000Y-34415500D01*
X53094000Y-35089245D01*
X53113215Y-35185844D01*
X53150906Y-35276839D01*
X53205624Y-35358731D01*
X53275268Y-35428375D01*
X53357161Y-35483094D01*
X53448155Y-35520785D01*
X53544754Y-35540000D01*
X54068500Y-35540000D01*
X54081151Y-35527349D01*
X54144754Y-35540000D01*
X54757466Y-35540000D01*
X54759045Y-35541296D01*
X54863279Y-35597010D01*
X54976379Y-35631318D01*
X55094000Y-35642903D01*
X56094000Y-35642903D01*
X56211621Y-35631318D01*
X56244000Y-35621496D01*
X56276379Y-35631318D01*
X56394000Y-35642903D01*
X57093600Y-35642903D01*
X57308844Y-35621703D01*
X57515816Y-35558919D01*
X57706562Y-35456963D01*
X57873753Y-35319753D01*
X57880000Y-35312141D01*
X57886247Y-35319753D01*
X58053438Y-35456963D01*
X58171001Y-35519802D01*
X58171001Y-35632785D01*
X58119249Y-35684537D01*
X58009811Y-35848322D01*
X57934429Y-36030311D01*
X57896000Y-36223509D01*
X57896000Y-36420491D01*
X57934429Y-36613689D01*
X58009811Y-36795678D01*
X58119249Y-36959463D01*
X58258537Y-37098751D01*
X58422322Y-37208189D01*
X58604311Y-37283571D01*
X58797509Y-37322000D01*
X58994491Y-37322000D01*
X59187689Y-37283571D01*
X59369678Y-37208189D01*
X59533463Y-37098751D01*
X59672751Y-36959463D01*
X59782189Y-36795678D01*
X59857571Y-36613689D01*
X59896000Y-36420491D01*
X59896000Y-36223509D01*
X59857571Y-36030311D01*
X59782189Y-35848322D01*
X59672751Y-35684537D01*
X59627306Y-35639092D01*
X59666000Y-35642903D01*
X60666000Y-35642903D01*
X60783621Y-35631318D01*
X60896721Y-35597010D01*
X61000955Y-35541296D01*
X61002534Y-35540000D01*
X61615246Y-35540000D01*
X61678849Y-35527349D01*
X61691500Y-35540000D01*
X62215246Y-35540000D01*
X62311845Y-35520785D01*
X62402839Y-35483094D01*
X62484732Y-35428375D01*
X62554376Y-35358731D01*
X62609094Y-35276839D01*
X62646785Y-35185844D01*
X62666000Y-35089245D01*
X62666000Y-34415500D01*
X62541000Y-34290500D01*
X61545500Y-34290500D01*
X61545500Y-34289500D01*
X62541000Y-34289500D01*
X62666000Y-34164500D01*
X62666000Y-33490755D01*
X62646785Y-33394156D01*
X62609094Y-33303161D01*
X62554376Y-33221269D01*
X62484732Y-33151625D01*
X62402839Y-33096906D01*
X62311845Y-33059215D01*
X62215246Y-33040000D01*
X61691500Y-33040000D01*
X61678849Y-33052651D01*
X61615246Y-33040000D01*
X61285575Y-33040000D01*
X61483224Y-32907934D01*
X61672934Y-32718224D01*
X61821989Y-32495149D01*
X61885000Y-32343027D01*
X61948011Y-32495149D01*
X62097066Y-32718224D01*
X62286776Y-32907934D01*
X62509851Y-33056989D01*
X62757719Y-33159659D01*
X63020855Y-33212000D01*
X63289145Y-33212000D01*
X63552281Y-33159659D01*
X63800149Y-33056989D01*
X64023224Y-32907934D01*
X64186316Y-32744842D01*
X64226947Y-32878787D01*
X64294269Y-33004736D01*
X64362170Y-33087474D01*
X64362173Y-33087477D01*
X64384869Y-33115132D01*
X64412523Y-33137827D01*
X66575000Y-35300305D01*
X66575001Y-38010785D01*
X66523249Y-38062537D01*
X66413811Y-38226322D01*
X66338429Y-38408311D01*
X66300000Y-38601509D01*
X66300000Y-38798491D01*
X66338429Y-38991689D01*
X66413811Y-39173678D01*
X66523249Y-39337463D01*
X66662537Y-39476751D01*
X66826322Y-39586189D01*
X67008311Y-39661571D01*
X67201509Y-39700000D01*
X67398491Y-39700000D01*
X67591689Y-39661571D01*
X67773678Y-39586189D01*
X67937463Y-39476751D01*
X68076751Y-39337463D01*
X68186189Y-39173678D01*
X68261571Y-38991689D01*
X68300000Y-38798491D01*
X68300000Y-38601509D01*
X68261571Y-38408311D01*
X68186189Y-38226322D01*
X68076751Y-38062537D01*
X68025000Y-38010786D01*
X68025000Y-35035600D01*
X68028506Y-35000000D01*
X68025000Y-34964400D01*
X68025000Y-34964393D01*
X68014509Y-34857875D01*
X67973053Y-34721212D01*
X67958901Y-34694736D01*
X67905732Y-34595263D01*
X67837830Y-34512525D01*
X67837823Y-34512518D01*
X67815131Y-34484868D01*
X67787482Y-34462177D01*
X65625000Y-32299696D01*
X65625000Y-32133319D01*
X67395000Y-32133319D01*
X67395000Y-32566681D01*
X67479545Y-32991716D01*
X67645385Y-33392091D01*
X67886148Y-33752418D01*
X68192582Y-34058852D01*
X68552909Y-34299615D01*
X68953284Y-34465455D01*
X69378319Y-34550000D01*
X69811681Y-34550000D01*
X70236716Y-34465455D01*
X70637091Y-34299615D01*
X70997418Y-34058852D01*
X71303852Y-33752418D01*
X71544615Y-33392091D01*
X71710455Y-32991716D01*
X71795000Y-32566681D01*
X71795000Y-32133319D01*
X71710455Y-31708284D01*
X71544615Y-31307909D01*
X71303852Y-30947582D01*
X70997418Y-30641148D01*
X70637091Y-30400385D01*
X70236716Y-30234545D01*
X69811681Y-30150000D01*
X69378319Y-30150000D01*
X68953284Y-30234545D01*
X68552909Y-30400385D01*
X68192582Y-30641148D01*
X67886148Y-30947582D01*
X67645385Y-31307909D01*
X67479545Y-31708284D01*
X67395000Y-32133319D01*
X65625000Y-32133319D01*
X65625000Y-31135596D01*
X65628506Y-31099999D01*
X65625000Y-31064402D01*
X65625000Y-31064393D01*
X65614509Y-30957875D01*
X65573053Y-30821212D01*
X65505731Y-30695263D01*
X65493055Y-30679817D01*
X65437830Y-30612525D01*
X65437823Y-30612518D01*
X65415131Y-30584868D01*
X65387482Y-30562177D01*
X64350304Y-29525000D01*
X70999696Y-29525000D01*
X72275001Y-30800306D01*
X72275000Y-36452227D01*
X72126322Y-36513811D01*
X71962537Y-36623249D01*
X71823249Y-36762537D01*
X71713811Y-36926322D01*
X71638429Y-37108311D01*
X71600000Y-37301509D01*
X71600000Y-37498491D01*
X71638429Y-37691689D01*
X71713811Y-37873678D01*
X71823249Y-38037463D01*
X71962537Y-38176751D01*
X72126322Y-38286189D01*
X72308311Y-38361571D01*
X72501509Y-38400000D01*
X72698491Y-38400000D01*
X72891689Y-38361571D01*
X73073678Y-38286189D01*
X73237463Y-38176751D01*
X73376751Y-38037463D01*
X73486189Y-37873678D01*
X73561571Y-37691689D01*
X73600000Y-37498491D01*
X73600000Y-37411720D01*
X73605731Y-37404737D01*
X73673053Y-37278788D01*
X73714509Y-37142125D01*
X73725000Y-37035607D01*
X73725000Y-37035598D01*
X73728506Y-37000001D01*
X73725000Y-36964404D01*
X73725000Y-34301509D01*
X73980000Y-34301509D01*
X73980000Y-34498491D01*
X74018429Y-34691689D01*
X74093811Y-34873678D01*
X74203249Y-35037463D01*
X74342537Y-35176751D01*
X74506322Y-35286189D01*
X74688311Y-35361571D01*
X74881509Y-35400000D01*
X75078491Y-35400000D01*
X75271689Y-35361571D01*
X75420335Y-35300000D01*
X77697331Y-35300000D01*
X77826322Y-35386189D01*
X78008311Y-35461571D01*
X78201509Y-35500000D01*
X78398491Y-35500000D01*
X78591689Y-35461571D01*
X78773678Y-35386189D01*
X78937463Y-35276751D01*
X79076751Y-35137463D01*
X79186189Y-34973678D01*
X79261571Y-34791689D01*
X79300000Y-34598491D01*
X79300000Y-34401509D01*
X79261571Y-34208311D01*
X79186189Y-34026322D01*
X79076751Y-33862537D01*
X78937463Y-33723249D01*
X78773678Y-33613811D01*
X78591689Y-33538429D01*
X78398491Y-33500000D01*
X78201509Y-33500000D01*
X78008311Y-33538429D01*
X77826322Y-33613811D01*
X77697331Y-33700000D01*
X75694214Y-33700000D01*
X75617463Y-33623249D01*
X75453678Y-33513811D01*
X75271689Y-33438429D01*
X75078491Y-33400000D01*
X74881509Y-33400000D01*
X74688311Y-33438429D01*
X74506322Y-33513811D01*
X74342537Y-33623249D01*
X74203249Y-33762537D01*
X74093811Y-33926322D01*
X74018429Y-34108311D01*
X73980000Y-34301509D01*
X73725000Y-34301509D01*
X73725000Y-32403017D01*
X73737082Y-32403017D01*
X73743638Y-32439723D01*
X73799027Y-32622655D01*
X73889040Y-32791266D01*
X74010218Y-32939076D01*
X74157904Y-33060405D01*
X74326422Y-33150591D01*
X74509297Y-33206168D01*
X74699500Y-33225000D01*
X74849500Y-33225000D01*
X74849500Y-32250500D01*
X74850500Y-32250500D01*
X74850500Y-33225000D01*
X75000500Y-33225000D01*
X75190703Y-33206168D01*
X75373578Y-33150591D01*
X75542096Y-33060405D01*
X75689782Y-32939076D01*
X75810960Y-32791266D01*
X75900973Y-32622655D01*
X75956362Y-32439723D01*
X75962918Y-32403017D01*
X78737082Y-32403017D01*
X78743638Y-32439723D01*
X78799027Y-32622655D01*
X78889040Y-32791266D01*
X79010218Y-32939076D01*
X79157904Y-33060405D01*
X79326422Y-33150591D01*
X79509297Y-33206168D01*
X79699500Y-33225000D01*
X79849500Y-33225000D01*
X79849500Y-32250500D01*
X79850500Y-32250500D01*
X79850500Y-33225000D01*
X80000500Y-33225000D01*
X80190703Y-33206168D01*
X80373578Y-33150591D01*
X80542096Y-33060405D01*
X80689782Y-32939076D01*
X80810960Y-32791266D01*
X80900973Y-32622655D01*
X80956362Y-32439723D01*
X80962918Y-32403017D01*
X80850000Y-32250500D01*
X79850500Y-32250500D01*
X79849500Y-32250500D01*
X78850000Y-32250500D01*
X78737082Y-32403017D01*
X75962918Y-32403017D01*
X75850000Y-32250500D01*
X74850500Y-32250500D01*
X74849500Y-32250500D01*
X73850000Y-32250500D01*
X73737082Y-32403017D01*
X73725000Y-32403017D01*
X73725000Y-32096983D01*
X73737082Y-32096983D01*
X73850000Y-32249500D01*
X74849500Y-32249500D01*
X74849500Y-31275000D01*
X74850500Y-31275000D01*
X74850500Y-32249500D01*
X75850000Y-32249500D01*
X75962918Y-32096983D01*
X78737082Y-32096983D01*
X78850000Y-32249500D01*
X79849500Y-32249500D01*
X79849500Y-31275000D01*
X79850500Y-31275000D01*
X79850500Y-32249500D01*
X80850000Y-32249500D01*
X80962918Y-32096983D01*
X80956362Y-32060277D01*
X80900973Y-31877345D01*
X80810960Y-31708734D01*
X80689782Y-31560924D01*
X80542096Y-31439595D01*
X80373578Y-31349409D01*
X80287730Y-31323319D01*
X83920000Y-31323319D01*
X83920000Y-31756681D01*
X84004545Y-32181716D01*
X84170385Y-32582091D01*
X84411148Y-32942418D01*
X84717582Y-33248852D01*
X85077909Y-33489615D01*
X85478284Y-33655455D01*
X85903319Y-33740000D01*
X86336681Y-33740000D01*
X86761716Y-33655455D01*
X87162091Y-33489615D01*
X87522418Y-33248852D01*
X87828852Y-32942418D01*
X88069615Y-32582091D01*
X88235455Y-32181716D01*
X88320000Y-31756681D01*
X88320000Y-31323319D01*
X88235455Y-30898284D01*
X88069615Y-30497909D01*
X87828852Y-30137582D01*
X87522418Y-29831148D01*
X87162091Y-29590385D01*
X86761716Y-29424545D01*
X86336681Y-29340000D01*
X85903319Y-29340000D01*
X85478284Y-29424545D01*
X85077909Y-29590385D01*
X84717582Y-29831148D01*
X84411148Y-30137582D01*
X84170385Y-30497909D01*
X84004545Y-30898284D01*
X83920000Y-31323319D01*
X80287730Y-31323319D01*
X80190703Y-31293832D01*
X80000500Y-31275000D01*
X79850500Y-31275000D01*
X79849500Y-31275000D01*
X79699500Y-31275000D01*
X79509297Y-31293832D01*
X79326422Y-31349409D01*
X79157904Y-31439595D01*
X79010218Y-31560924D01*
X78889040Y-31708734D01*
X78799027Y-31877345D01*
X78743638Y-32060277D01*
X78737082Y-32096983D01*
X75962918Y-32096983D01*
X75956362Y-32060277D01*
X75900973Y-31877345D01*
X75810960Y-31708734D01*
X75689782Y-31560924D01*
X75542096Y-31439595D01*
X75373578Y-31349409D01*
X75190703Y-31293832D01*
X75000500Y-31275000D01*
X74850500Y-31275000D01*
X74849500Y-31275000D01*
X74699500Y-31275000D01*
X74509297Y-31293832D01*
X74326422Y-31349409D01*
X74157904Y-31439595D01*
X74010218Y-31560924D01*
X73889040Y-31708734D01*
X73799027Y-31877345D01*
X73743638Y-32060277D01*
X73737082Y-32096983D01*
X73725000Y-32096983D01*
X73725000Y-30839626D01*
X73849500Y-30750000D01*
X73849500Y-29550500D01*
X73850500Y-29550500D01*
X73850500Y-30750000D01*
X74006928Y-30862610D01*
X74044599Y-30855883D01*
X74232221Y-30799071D01*
X74405154Y-30706748D01*
X74556753Y-30582461D01*
X74681192Y-30430987D01*
X74773688Y-30258146D01*
X74830688Y-30070581D01*
X74850000Y-29875500D01*
X74850000Y-29550500D01*
X79850000Y-29550500D01*
X79850000Y-29875500D01*
X79869312Y-30070581D01*
X79926312Y-30258146D01*
X80018808Y-30430987D01*
X80143247Y-30582461D01*
X80294846Y-30706748D01*
X80467779Y-30799071D01*
X80655401Y-30855883D01*
X80693072Y-30862610D01*
X80849500Y-30750000D01*
X80849500Y-29550500D01*
X80850500Y-29550500D01*
X80850500Y-30750000D01*
X81006928Y-30862610D01*
X81044599Y-30855883D01*
X81232221Y-30799071D01*
X81405154Y-30706748D01*
X81556753Y-30582461D01*
X81681192Y-30430987D01*
X81773688Y-30258146D01*
X81830688Y-30070581D01*
X81850000Y-29875500D01*
X81850000Y-29550500D01*
X80850500Y-29550500D01*
X80849500Y-29550500D01*
X79850000Y-29550500D01*
X74850000Y-29550500D01*
X73850500Y-29550500D01*
X73849500Y-29550500D01*
X73829500Y-29550500D01*
X73829500Y-29549500D01*
X73849500Y-29549500D01*
X73849500Y-29529500D01*
X73850500Y-29529500D01*
X73850500Y-29549500D01*
X74850000Y-29549500D01*
X74850000Y-29224500D01*
X74830688Y-29029419D01*
X74773688Y-28841854D01*
X74711153Y-28725000D01*
X79988847Y-28725000D01*
X79926312Y-28841854D01*
X79869312Y-29029419D01*
X79850000Y-29224500D01*
X79850000Y-29549500D01*
X80849500Y-29549500D01*
X80849500Y-29529500D01*
X80850500Y-29529500D01*
X80850500Y-29549500D01*
X81850000Y-29549500D01*
X81850000Y-29224500D01*
X81830688Y-29029419D01*
X81773688Y-28841854D01*
X81711153Y-28725000D01*
X86089433Y-28725000D01*
X86668128Y-28781742D01*
X87195383Y-28940929D01*
X87681674Y-29199495D01*
X88108483Y-29547592D01*
X88459545Y-29971954D01*
X88721501Y-30456431D01*
X88884365Y-30982559D01*
X88945000Y-31559466D01*
X88945001Y-87919423D01*
X88888258Y-88498128D01*
X88729071Y-89025384D01*
X88470505Y-89511674D01*
X88122410Y-89938481D01*
X87698046Y-90289546D01*
X87213569Y-90551501D01*
X86687441Y-90714365D01*
X86110533Y-90775000D01*
X32282941Y-90775000D01*
X31705831Y-90715034D01*
X31179516Y-90552796D01*
X30694728Y-90291413D01*
X30269948Y-89940852D01*
X29921345Y-89514454D01*
X29662202Y-89028468D01*
X29502393Y-88501408D01*
X29445000Y-87923130D01*
X29445000Y-87733319D01*
X30070000Y-87733319D01*
X30070000Y-88166681D01*
X30154545Y-88591716D01*
X30320385Y-88992091D01*
X30561148Y-89352418D01*
X30867582Y-89658852D01*
X31227909Y-89899615D01*
X31628284Y-90065455D01*
X32053319Y-90150000D01*
X32486681Y-90150000D01*
X32911716Y-90065455D01*
X33312091Y-89899615D01*
X33672418Y-89658852D01*
X33978852Y-89352418D01*
X34219615Y-88992091D01*
X34385455Y-88591716D01*
X34470000Y-88166681D01*
X34470000Y-87733319D01*
X34385455Y-87308284D01*
X34219615Y-86907909D01*
X34195697Y-86872112D01*
X37380000Y-86872112D01*
X37380000Y-87147888D01*
X37433801Y-87418365D01*
X37539336Y-87673149D01*
X37692549Y-87902448D01*
X37887552Y-88097451D01*
X38116851Y-88250664D01*
X38371635Y-88356199D01*
X38642112Y-88410000D01*
X38917888Y-88410000D01*
X39188365Y-88356199D01*
X39443149Y-88250664D01*
X39672448Y-88097451D01*
X39867451Y-87902448D01*
X39883794Y-87877990D01*
X39888682Y-87927621D01*
X39922990Y-88040721D01*
X39978704Y-88144955D01*
X40053683Y-88236317D01*
X40145045Y-88311296D01*
X40249279Y-88367010D01*
X40362379Y-88401318D01*
X40480000Y-88412903D01*
X42080000Y-88412903D01*
X42197621Y-88401318D01*
X42310721Y-88367010D01*
X42414955Y-88311296D01*
X42506317Y-88236317D01*
X42581296Y-88144955D01*
X42637010Y-88040721D01*
X42671318Y-87927621D01*
X42682903Y-87810000D01*
X42682903Y-86210000D01*
X42671318Y-86092379D01*
X42637010Y-85979279D01*
X42581296Y-85875045D01*
X42506317Y-85783683D01*
X42414955Y-85708704D01*
X42310721Y-85652990D01*
X42197621Y-85618682D01*
X42080000Y-85607097D01*
X40480000Y-85607097D01*
X40362379Y-85618682D01*
X40249279Y-85652990D01*
X40145045Y-85708704D01*
X40053683Y-85783683D01*
X39978704Y-85875045D01*
X39922990Y-85979279D01*
X39888682Y-86092379D01*
X39883794Y-86142010D01*
X39867451Y-86117552D01*
X39672448Y-85922549D01*
X39443149Y-85769336D01*
X39188365Y-85663801D01*
X38917888Y-85610000D01*
X38642112Y-85610000D01*
X38371635Y-85663801D01*
X38116851Y-85769336D01*
X37887552Y-85922549D01*
X37692549Y-86117552D01*
X37539336Y-86346851D01*
X37433801Y-86601635D01*
X37380000Y-86872112D01*
X34195697Y-86872112D01*
X33978852Y-86547582D01*
X33672418Y-86241148D01*
X33312091Y-86000385D01*
X32911716Y-85834545D01*
X32486681Y-85750000D01*
X32053319Y-85750000D01*
X31628284Y-85834545D01*
X31227909Y-86000385D01*
X30867582Y-86241148D01*
X30561148Y-86547582D01*
X30320385Y-86907909D01*
X30154545Y-87308284D01*
X30070000Y-87733319D01*
X29445000Y-87733319D01*
X29445000Y-84736185D01*
X45785000Y-84736185D01*
X45785000Y-85543815D01*
X45942561Y-86335926D01*
X46251627Y-87082078D01*
X46700322Y-87753598D01*
X47271402Y-88324678D01*
X47942922Y-88773373D01*
X48689074Y-89082439D01*
X49481185Y-89240000D01*
X50288815Y-89240000D01*
X51080926Y-89082439D01*
X51827078Y-88773373D01*
X52498598Y-88324678D01*
X53069678Y-87753598D01*
X53518373Y-87082078D01*
X53827439Y-86335926D01*
X53985000Y-85543815D01*
X53985000Y-84736185D01*
X64835000Y-84736185D01*
X64835000Y-85543815D01*
X64992561Y-86335926D01*
X65301627Y-87082078D01*
X65750322Y-87753598D01*
X66321402Y-88324678D01*
X66992922Y-88773373D01*
X67739074Y-89082439D01*
X68531185Y-89240000D01*
X69338815Y-89240000D01*
X70130926Y-89082439D01*
X70877078Y-88773373D01*
X71548598Y-88324678D01*
X72119678Y-87753598D01*
X72133227Y-87733319D01*
X83920000Y-87733319D01*
X83920000Y-88166681D01*
X84004545Y-88591716D01*
X84170385Y-88992091D01*
X84411148Y-89352418D01*
X84717582Y-89658852D01*
X85077909Y-89899615D01*
X85478284Y-90065455D01*
X85903319Y-90150000D01*
X86336681Y-90150000D01*
X86761716Y-90065455D01*
X87162091Y-89899615D01*
X87522418Y-89658852D01*
X87828852Y-89352418D01*
X88069615Y-88992091D01*
X88235455Y-88591716D01*
X88320000Y-88166681D01*
X88320000Y-87733319D01*
X88235455Y-87308284D01*
X88069615Y-86907909D01*
X87828852Y-86547582D01*
X87522418Y-86241148D01*
X87162091Y-86000385D01*
X86761716Y-85834545D01*
X86336681Y-85750000D01*
X85903319Y-85750000D01*
X85478284Y-85834545D01*
X85077909Y-86000385D01*
X84717582Y-86241148D01*
X84411148Y-86547582D01*
X84170385Y-86907909D01*
X84004545Y-87308284D01*
X83920000Y-87733319D01*
X72133227Y-87733319D01*
X72568373Y-87082078D01*
X72877439Y-86335926D01*
X73035000Y-85543815D01*
X73035000Y-85075500D01*
X77750000Y-85075500D01*
X77750000Y-85849245D01*
X77769215Y-85945844D01*
X77806906Y-86036839D01*
X77861624Y-86118731D01*
X77931268Y-86188375D01*
X78013161Y-86243094D01*
X78104155Y-86280785D01*
X78200754Y-86300000D01*
X78974500Y-86300000D01*
X79099500Y-86175000D01*
X79099500Y-84950500D01*
X79100500Y-84950500D01*
X79100500Y-86175000D01*
X79225500Y-86300000D01*
X79999246Y-86300000D01*
X80095845Y-86280785D01*
X80186839Y-86243094D01*
X80268732Y-86188375D01*
X80338376Y-86118731D01*
X80393094Y-86036839D01*
X80430785Y-85945844D01*
X80450000Y-85849245D01*
X80450000Y-85075500D01*
X80325000Y-84950500D01*
X79100500Y-84950500D01*
X79099500Y-84950500D01*
X77875000Y-84950500D01*
X77750000Y-85075500D01*
X73035000Y-85075500D01*
X73035000Y-84736185D01*
X72898660Y-84050755D01*
X77750000Y-84050755D01*
X77750000Y-84824500D01*
X77875000Y-84949500D01*
X79099500Y-84949500D01*
X79099500Y-83725000D01*
X79100500Y-83725000D01*
X79100500Y-84949500D01*
X80325000Y-84949500D01*
X80450000Y-84824500D01*
X80450000Y-84050755D01*
X80430785Y-83954156D01*
X80393094Y-83863161D01*
X80338376Y-83781269D01*
X80268732Y-83711625D01*
X80186839Y-83656906D01*
X80095845Y-83619215D01*
X79999246Y-83600000D01*
X79225500Y-83600000D01*
X79100500Y-83725000D01*
X79099500Y-83725000D01*
X78974500Y-83600000D01*
X78200754Y-83600000D01*
X78104155Y-83619215D01*
X78013161Y-83656906D01*
X77931268Y-83711625D01*
X77861624Y-83781269D01*
X77806906Y-83863161D01*
X77769215Y-83954156D01*
X77750000Y-84050755D01*
X72898660Y-84050755D01*
X72877439Y-83944074D01*
X72568373Y-83197922D01*
X72119678Y-82526402D01*
X71548598Y-81955322D01*
X70877078Y-81506627D01*
X70130926Y-81197561D01*
X69338815Y-81040000D01*
X68531185Y-81040000D01*
X67739074Y-81197561D01*
X66992922Y-81506627D01*
X66321402Y-81955322D01*
X65750322Y-82526402D01*
X65301627Y-83197922D01*
X64992561Y-83944074D01*
X64835000Y-84736185D01*
X53985000Y-84736185D01*
X53827439Y-83944074D01*
X53518373Y-83197922D01*
X53069678Y-82526402D01*
X52498598Y-81955322D01*
X51827078Y-81506627D01*
X51080926Y-81197561D01*
X50288815Y-81040000D01*
X49481185Y-81040000D01*
X48689074Y-81197561D01*
X47942922Y-81506627D01*
X47271402Y-81955322D01*
X46700322Y-82526402D01*
X46251627Y-83197922D01*
X45942561Y-83944074D01*
X45785000Y-84736185D01*
X29445000Y-84736185D01*
X29445000Y-80840000D01*
X56712985Y-80840000D01*
X56740981Y-81124250D01*
X56823894Y-81397576D01*
X56958536Y-81649474D01*
X57139735Y-81870265D01*
X57360526Y-82051464D01*
X57612424Y-82186106D01*
X57885750Y-82269019D01*
X58098775Y-82290000D01*
X58241225Y-82290000D01*
X58454250Y-82269019D01*
X58727576Y-82186106D01*
X58979474Y-82051464D01*
X59200265Y-81870265D01*
X59266860Y-81789119D01*
X59268682Y-81807621D01*
X59302990Y-81920721D01*
X59358704Y-82024955D01*
X59433683Y-82116317D01*
X59525045Y-82191296D01*
X59629279Y-82247010D01*
X59742379Y-82281318D01*
X59860000Y-82292903D01*
X61560000Y-82292903D01*
X61677621Y-82281318D01*
X61790721Y-82247010D01*
X61894955Y-82191296D01*
X61986317Y-82116317D01*
X62061296Y-82024955D01*
X62117010Y-81920721D01*
X62151318Y-81807621D01*
X62162903Y-81690000D01*
X62162903Y-79990000D01*
X62151318Y-79872379D01*
X62117010Y-79759279D01*
X62061296Y-79655045D01*
X61986317Y-79563683D01*
X61894955Y-79488704D01*
X61790721Y-79432990D01*
X61677621Y-79398682D01*
X61560000Y-79387097D01*
X59860000Y-79387097D01*
X59742379Y-79398682D01*
X59629279Y-79432990D01*
X59525045Y-79488704D01*
X59433683Y-79563683D01*
X59358704Y-79655045D01*
X59302990Y-79759279D01*
X59268682Y-79872379D01*
X59266860Y-79890881D01*
X59200265Y-79809735D01*
X58979474Y-79628536D01*
X58727576Y-79493894D01*
X58454250Y-79410981D01*
X58241225Y-79390000D01*
X58098775Y-79390000D01*
X57885750Y-79410981D01*
X57612424Y-79493894D01*
X57360526Y-79628536D01*
X57139735Y-79809735D01*
X56958536Y-80030526D01*
X56823894Y-80282424D01*
X56740981Y-80555750D01*
X56712985Y-80840000D01*
X29445000Y-80840000D01*
X29445000Y-78192414D01*
X75460000Y-78192414D01*
X75460000Y-78507586D01*
X75521487Y-78816703D01*
X75642098Y-79107884D01*
X75817199Y-79369941D01*
X76040059Y-79592801D01*
X76302116Y-79767902D01*
X76593297Y-79888513D01*
X76902414Y-79950000D01*
X77217586Y-79950000D01*
X77526703Y-79888513D01*
X77817884Y-79767902D01*
X78079941Y-79592801D01*
X78302801Y-79369941D01*
X78330000Y-79329235D01*
X78357199Y-79369941D01*
X78580059Y-79592801D01*
X78842116Y-79767902D01*
X79133297Y-79888513D01*
X79442414Y-79950000D01*
X79757586Y-79950000D01*
X80066703Y-79888513D01*
X80357884Y-79767902D01*
X80619941Y-79592801D01*
X80842801Y-79369941D01*
X80870000Y-79329235D01*
X80897199Y-79369941D01*
X81120059Y-79592801D01*
X81382116Y-79767902D01*
X81673297Y-79888513D01*
X81982414Y-79950000D01*
X82297586Y-79950000D01*
X82606703Y-79888513D01*
X82897884Y-79767902D01*
X83159941Y-79592801D01*
X83382801Y-79369941D01*
X83557902Y-79107884D01*
X83678513Y-78816703D01*
X83740000Y-78507586D01*
X83740000Y-78192414D01*
X83678513Y-77883297D01*
X83557902Y-77592116D01*
X83382801Y-77330059D01*
X83159941Y-77107199D01*
X82897884Y-76932098D01*
X82606703Y-76811487D01*
X82297586Y-76750000D01*
X81982414Y-76750000D01*
X81673297Y-76811487D01*
X81382116Y-76932098D01*
X81120059Y-77107199D01*
X80897199Y-77330059D01*
X80870000Y-77370765D01*
X80842801Y-77330059D01*
X80619941Y-77107199D01*
X80357884Y-76932098D01*
X80066703Y-76811487D01*
X79757586Y-76750000D01*
X79442414Y-76750000D01*
X79133297Y-76811487D01*
X78842116Y-76932098D01*
X78580059Y-77107199D01*
X78357199Y-77330059D01*
X78330000Y-77370765D01*
X78302801Y-77330059D01*
X78079941Y-77107199D01*
X77817884Y-76932098D01*
X77526703Y-76811487D01*
X77217586Y-76750000D01*
X76902414Y-76750000D01*
X76593297Y-76811487D01*
X76302116Y-76932098D01*
X76040059Y-77107199D01*
X75817199Y-77330059D01*
X75642098Y-77592116D01*
X75521487Y-77883297D01*
X75460000Y-78192414D01*
X29445000Y-78192414D01*
X29445000Y-77227758D01*
X46972950Y-77227758D01*
X47064460Y-77469691D01*
X47319426Y-77619015D01*
X47598624Y-77715729D01*
X47891325Y-77756116D01*
X48186281Y-77738622D01*
X48472157Y-77663923D01*
X48530394Y-77635652D01*
X58865055Y-77635652D01*
X58932587Y-77857105D01*
X59153563Y-77986508D01*
X59395540Y-78070315D01*
X59649216Y-78105303D01*
X59904844Y-78090130D01*
X60152600Y-78025377D01*
X60382963Y-77913534D01*
X60467413Y-77857105D01*
X60534945Y-77635652D01*
X59700000Y-76800707D01*
X58865055Y-77635652D01*
X48530394Y-77635652D01*
X48737967Y-77534887D01*
X48835540Y-77469691D01*
X48927050Y-77227758D01*
X47950000Y-76250707D01*
X46972950Y-77227758D01*
X29445000Y-77227758D01*
X29445000Y-76191325D01*
X46443884Y-76191325D01*
X46461378Y-76486281D01*
X46536077Y-76772157D01*
X46665113Y-77037967D01*
X46730309Y-77135540D01*
X46972242Y-77227050D01*
X47949293Y-76250000D01*
X47950707Y-76250000D01*
X48927758Y-77227050D01*
X49169691Y-77135540D01*
X49319015Y-76880574D01*
X49364517Y-76749216D01*
X58394697Y-76749216D01*
X58409870Y-77004844D01*
X58474623Y-77252600D01*
X58586466Y-77482963D01*
X58642895Y-77567413D01*
X58864348Y-77634945D01*
X59699293Y-76800000D01*
X59700707Y-76800000D01*
X60535652Y-77634945D01*
X60757105Y-77567413D01*
X60886508Y-77346437D01*
X60970315Y-77104460D01*
X61005303Y-76850784D01*
X60990130Y-76595156D01*
X60925377Y-76347400D01*
X60813534Y-76117037D01*
X60757105Y-76032587D01*
X60535652Y-75965055D01*
X59700707Y-76800000D01*
X59699293Y-76800000D01*
X58864348Y-75965055D01*
X58642895Y-76032587D01*
X58513492Y-76253563D01*
X58429685Y-76495540D01*
X58394697Y-76749216D01*
X49364517Y-76749216D01*
X49415729Y-76601376D01*
X49456116Y-76308675D01*
X49438622Y-76013719D01*
X49363923Y-75727843D01*
X49234887Y-75462033D01*
X49169691Y-75364460D01*
X48927758Y-75272950D01*
X47950707Y-76250000D01*
X47949293Y-76250000D01*
X46972242Y-75272950D01*
X46730309Y-75364460D01*
X46580985Y-75619426D01*
X46484271Y-75898624D01*
X46443884Y-76191325D01*
X29445000Y-76191325D01*
X29445000Y-75272242D01*
X46972950Y-75272242D01*
X47950000Y-76249293D01*
X48927050Y-75272242D01*
X48835540Y-75030309D01*
X48580574Y-74880985D01*
X48301376Y-74784271D01*
X48008675Y-74743884D01*
X47713719Y-74761378D01*
X47427843Y-74836077D01*
X47162033Y-74965113D01*
X47064460Y-75030309D01*
X46972950Y-75272242D01*
X29445000Y-75272242D01*
X29445000Y-74162112D01*
X58300000Y-74162112D01*
X58300000Y-74437888D01*
X58353801Y-74708365D01*
X58459336Y-74963149D01*
X58612549Y-75192448D01*
X58807552Y-75387451D01*
X59036851Y-75540664D01*
X59188211Y-75603360D01*
X59017037Y-75686466D01*
X58932587Y-75742895D01*
X58865055Y-75964348D01*
X59700000Y-76799293D01*
X60534945Y-75964348D01*
X60467413Y-75742895D01*
X60246437Y-75613492D01*
X60214244Y-75602342D01*
X60363149Y-75540664D01*
X60592448Y-75387451D01*
X60787451Y-75192448D01*
X60940664Y-74963149D01*
X61046199Y-74708365D01*
X61100000Y-74437888D01*
X61100000Y-74162112D01*
X61089075Y-74107187D01*
X62700000Y-74107187D01*
X62700000Y-74392813D01*
X62755723Y-74672949D01*
X62865027Y-74936833D01*
X63023711Y-75174321D01*
X63099390Y-75250000D01*
X63023711Y-75325679D01*
X62865027Y-75563167D01*
X62755723Y-75827051D01*
X62700000Y-76107187D01*
X62700000Y-76392813D01*
X62755723Y-76672949D01*
X62865027Y-76936833D01*
X63023711Y-77174321D01*
X63225679Y-77376289D01*
X63463167Y-77534973D01*
X63727051Y-77644277D01*
X64007187Y-77700000D01*
X64292813Y-77700000D01*
X64527928Y-77653232D01*
X64607162Y-77732467D01*
X64629858Y-77760122D01*
X64657513Y-77782818D01*
X64657515Y-77782820D01*
X64740253Y-77850721D01*
X64866202Y-77918043D01*
X65002865Y-77959499D01*
X65109383Y-77969990D01*
X65109392Y-77969990D01*
X65144989Y-77973496D01*
X65180586Y-77969990D01*
X71669413Y-77969990D01*
X71705010Y-77973496D01*
X71740607Y-77969990D01*
X71740617Y-77969990D01*
X71847135Y-77959499D01*
X71983798Y-77918043D01*
X72109747Y-77850721D01*
X72220142Y-77760122D01*
X72242842Y-77732462D01*
X72287472Y-77687832D01*
X72315132Y-77665132D01*
X72405731Y-77554737D01*
X72433437Y-77502903D01*
X72600000Y-77502903D01*
X72717621Y-77491318D01*
X72830721Y-77457010D01*
X72934955Y-77401296D01*
X73026317Y-77326317D01*
X73101296Y-77234955D01*
X73157010Y-77130721D01*
X73191318Y-77017621D01*
X73202903Y-76900000D01*
X73202903Y-75300000D01*
X73191318Y-75182379D01*
X73157010Y-75069279D01*
X73101296Y-74965045D01*
X73026317Y-74873683D01*
X72934955Y-74798704D01*
X72830721Y-74742990D01*
X72717621Y-74708682D01*
X72600000Y-74697097D01*
X71000000Y-74697097D01*
X70882379Y-74708682D01*
X70769279Y-74742990D01*
X70665045Y-74798704D01*
X70573683Y-74873683D01*
X70498704Y-74965045D01*
X70442990Y-75069279D01*
X70408682Y-75182379D01*
X70397097Y-75300000D01*
X70397097Y-75392438D01*
X70357105Y-75332587D01*
X70135652Y-75265055D01*
X69300707Y-76100000D01*
X69314850Y-76114143D01*
X69314143Y-76114850D01*
X69300000Y-76100707D01*
X69285858Y-76114850D01*
X69285151Y-76114143D01*
X69299293Y-76100000D01*
X68464348Y-75265055D01*
X68242895Y-75332587D01*
X68113492Y-75553563D01*
X68029685Y-75795540D01*
X67994697Y-76049216D01*
X68009870Y-76304844D01*
X68066100Y-76519990D01*
X65574703Y-76519990D01*
X65600000Y-76392813D01*
X65600000Y-76107187D01*
X65544277Y-75827051D01*
X65434973Y-75563167D01*
X65276289Y-75325679D01*
X65214958Y-75264348D01*
X68465055Y-75264348D01*
X69300000Y-76099293D01*
X70134945Y-75264348D01*
X70067413Y-75042895D01*
X69846437Y-74913492D01*
X69604460Y-74829685D01*
X69350784Y-74794697D01*
X69095156Y-74809870D01*
X68847400Y-74874623D01*
X68617037Y-74986466D01*
X68532587Y-75042895D01*
X68465055Y-75264348D01*
X65214958Y-75264348D01*
X65200610Y-75250000D01*
X65276289Y-75174321D01*
X65434973Y-74936833D01*
X65544277Y-74672949D01*
X65600000Y-74392813D01*
X65600000Y-74107187D01*
X65544277Y-73827051D01*
X65434973Y-73563167D01*
X65276289Y-73325679D01*
X65074321Y-73123711D01*
X64836833Y-72965027D01*
X64572949Y-72855723D01*
X64292813Y-72800000D01*
X64007187Y-72800000D01*
X63727051Y-72855723D01*
X63463167Y-72965027D01*
X63225679Y-73123711D01*
X63023711Y-73325679D01*
X62865027Y-73563167D01*
X62755723Y-73827051D01*
X62700000Y-74107187D01*
X61089075Y-74107187D01*
X61046199Y-73891635D01*
X60940664Y-73636851D01*
X60787451Y-73407552D01*
X60592448Y-73212549D01*
X60363149Y-73059336D01*
X60108365Y-72953801D01*
X59837888Y-72900000D01*
X59562112Y-72900000D01*
X59291635Y-72953801D01*
X59036851Y-73059336D01*
X58807552Y-73212549D01*
X58612549Y-73407552D01*
X58459336Y-73636851D01*
X58353801Y-73891635D01*
X58300000Y-74162112D01*
X29445000Y-74162112D01*
X29445000Y-69766000D01*
X38587097Y-69766000D01*
X38587097Y-71966000D01*
X38598682Y-72083621D01*
X38632990Y-72196721D01*
X38688704Y-72300955D01*
X38763683Y-72392317D01*
X38855045Y-72467296D01*
X38959279Y-72523010D01*
X39072379Y-72557318D01*
X39190000Y-72568903D01*
X41390000Y-72568903D01*
X41507621Y-72557318D01*
X41620721Y-72523010D01*
X41724955Y-72467296D01*
X41816317Y-72392317D01*
X41891296Y-72300955D01*
X41947010Y-72196721D01*
X41981318Y-72083621D01*
X41992903Y-71966000D01*
X41992903Y-70250000D01*
X46347097Y-70250000D01*
X46347097Y-72250000D01*
X46358682Y-72367621D01*
X46392990Y-72480721D01*
X46448704Y-72584955D01*
X46523683Y-72676317D01*
X46615045Y-72751296D01*
X46719279Y-72807010D01*
X46832379Y-72841318D01*
X46950000Y-72852903D01*
X48950000Y-72852903D01*
X49067621Y-72841318D01*
X49180721Y-72807010D01*
X49284955Y-72751296D01*
X49376317Y-72676317D01*
X49451296Y-72584955D01*
X49507010Y-72480721D01*
X49541318Y-72367621D01*
X49552903Y-72250000D01*
X49552903Y-70250000D01*
X49543054Y-70150000D01*
X55047097Y-70150000D01*
X55047097Y-71750000D01*
X55058682Y-71867621D01*
X55092990Y-71980721D01*
X55148704Y-72084955D01*
X55223683Y-72176317D01*
X55315045Y-72251296D01*
X55419279Y-72307010D01*
X55532379Y-72341318D01*
X55650000Y-72352903D01*
X57250000Y-72352903D01*
X57367621Y-72341318D01*
X57480721Y-72307010D01*
X57584955Y-72251296D01*
X57676317Y-72176317D01*
X57751296Y-72084955D01*
X57807010Y-71980721D01*
X57841318Y-71867621D01*
X57852903Y-71750000D01*
X57852903Y-71570097D01*
X57881829Y-71629675D01*
X58035720Y-71832809D01*
X58226284Y-72002017D01*
X58446197Y-72130796D01*
X58687008Y-72214198D01*
X58786141Y-72233917D01*
X58989500Y-72125000D01*
X58989500Y-70950500D01*
X58969500Y-70950500D01*
X58969500Y-70949500D01*
X58989500Y-70949500D01*
X58989500Y-69775000D01*
X58990500Y-69775000D01*
X58990500Y-70949500D01*
X59010500Y-70949500D01*
X59010500Y-70950500D01*
X58990500Y-70950500D01*
X58990500Y-72125000D01*
X59193859Y-72233917D01*
X59292992Y-72214198D01*
X59533803Y-72130796D01*
X59753716Y-72002017D01*
X59944280Y-71832809D01*
X60098171Y-71629675D01*
X60205883Y-71407823D01*
X60230310Y-71488349D01*
X60360310Y-71731562D01*
X60535261Y-71944739D01*
X60748438Y-72119690D01*
X60991651Y-72249690D01*
X61255552Y-72329743D01*
X61461223Y-72350000D01*
X61598777Y-72350000D01*
X61804448Y-72329743D01*
X62068349Y-72249690D01*
X62311562Y-72119690D01*
X62524739Y-71944739D01*
X62699690Y-71731562D01*
X62829690Y-71488349D01*
X62854117Y-71407823D01*
X62961829Y-71629675D01*
X63115720Y-71832809D01*
X63306284Y-72002017D01*
X63526197Y-72130796D01*
X63767008Y-72214198D01*
X63866141Y-72233917D01*
X64069500Y-72125000D01*
X64069500Y-70950500D01*
X64070500Y-70950500D01*
X64070500Y-72125000D01*
X64273859Y-72233917D01*
X64372992Y-72214198D01*
X64471733Y-72180000D01*
X78097097Y-72180000D01*
X78097097Y-73880000D01*
X78108682Y-73997621D01*
X78142990Y-74110721D01*
X78198704Y-74214955D01*
X78273683Y-74306317D01*
X78365045Y-74381296D01*
X78469279Y-74437010D01*
X78582379Y-74471318D01*
X78700000Y-74482903D01*
X80400000Y-74482903D01*
X80517621Y-74471318D01*
X80630721Y-74437010D01*
X80734955Y-74381296D01*
X80826317Y-74306317D01*
X80901296Y-74214955D01*
X80957010Y-74110721D01*
X80991318Y-73997621D01*
X81002903Y-73880000D01*
X81002903Y-72500000D01*
X85947097Y-72500000D01*
X85947097Y-74200000D01*
X85958682Y-74317621D01*
X85992990Y-74430721D01*
X86048704Y-74534955D01*
X86123683Y-74626317D01*
X86215045Y-74701296D01*
X86319279Y-74757010D01*
X86432379Y-74791318D01*
X86550000Y-74802903D01*
X88250000Y-74802903D01*
X88367621Y-74791318D01*
X88480721Y-74757010D01*
X88584955Y-74701296D01*
X88676317Y-74626317D01*
X88751296Y-74534955D01*
X88807010Y-74430721D01*
X88841318Y-74317621D01*
X88852903Y-74200000D01*
X88852903Y-72500000D01*
X88841318Y-72382379D01*
X88807010Y-72269279D01*
X88751296Y-72165045D01*
X88676317Y-72073683D01*
X88584955Y-71998704D01*
X88480721Y-71942990D01*
X88367621Y-71908682D01*
X88250000Y-71897097D01*
X86550000Y-71897097D01*
X86432379Y-71908682D01*
X86319279Y-71942990D01*
X86215045Y-71998704D01*
X86123683Y-72073683D01*
X86048704Y-72165045D01*
X85992990Y-72269279D01*
X85958682Y-72382379D01*
X85947097Y-72500000D01*
X81002903Y-72500000D01*
X81002903Y-72180000D01*
X80991318Y-72062379D01*
X80957010Y-71949279D01*
X80901296Y-71845045D01*
X80826317Y-71753683D01*
X80734955Y-71678704D01*
X80630721Y-71622990D01*
X80517621Y-71588682D01*
X80400000Y-71577097D01*
X78700000Y-71577097D01*
X78582379Y-71588682D01*
X78469279Y-71622990D01*
X78365045Y-71678704D01*
X78273683Y-71753683D01*
X78198704Y-71845045D01*
X78142990Y-71949279D01*
X78108682Y-72062379D01*
X78097097Y-72180000D01*
X64471733Y-72180000D01*
X64613803Y-72130796D01*
X64833716Y-72002017D01*
X65024280Y-71832809D01*
X65178171Y-71629675D01*
X65289476Y-71400422D01*
X65353917Y-71153859D01*
X65245000Y-70950500D01*
X64070500Y-70950500D01*
X64069500Y-70950500D01*
X64049500Y-70950500D01*
X64049500Y-70949500D01*
X64069500Y-70949500D01*
X64069500Y-69775000D01*
X64070500Y-69775000D01*
X64070500Y-70949500D01*
X65245000Y-70949500D01*
X65353917Y-70746141D01*
X65289476Y-70499578D01*
X65178171Y-70270325D01*
X65024280Y-70067191D01*
X64833716Y-69897983D01*
X64613803Y-69769204D01*
X64372992Y-69685802D01*
X64273859Y-69666083D01*
X64070500Y-69775000D01*
X64069500Y-69775000D01*
X63866141Y-69666083D01*
X63767008Y-69685802D01*
X63526197Y-69769204D01*
X63306284Y-69897983D01*
X63115720Y-70067191D01*
X62961829Y-70270325D01*
X62854117Y-70492177D01*
X62829690Y-70411651D01*
X62699690Y-70168438D01*
X62524739Y-69955261D01*
X62311562Y-69780310D01*
X62068349Y-69650310D01*
X61804448Y-69570257D01*
X61598777Y-69550000D01*
X61461223Y-69550000D01*
X61255552Y-69570257D01*
X60991651Y-69650310D01*
X60748438Y-69780310D01*
X60535261Y-69955261D01*
X60360310Y-70168438D01*
X60230310Y-70411651D01*
X60205883Y-70492177D01*
X60098171Y-70270325D01*
X59944280Y-70067191D01*
X59753716Y-69897983D01*
X59533803Y-69769204D01*
X59292992Y-69685802D01*
X59193859Y-69666083D01*
X58990500Y-69775000D01*
X58989500Y-69775000D01*
X58786141Y-69666083D01*
X58687008Y-69685802D01*
X58446197Y-69769204D01*
X58226284Y-69897983D01*
X58035720Y-70067191D01*
X57881829Y-70270325D01*
X57852903Y-70329903D01*
X57852903Y-70150000D01*
X57841318Y-70032379D01*
X57807010Y-69919279D01*
X57751296Y-69815045D01*
X57676317Y-69723683D01*
X57584955Y-69648704D01*
X57480721Y-69592990D01*
X57367621Y-69558682D01*
X57250000Y-69547097D01*
X55650000Y-69547097D01*
X55532379Y-69558682D01*
X55419279Y-69592990D01*
X55315045Y-69648704D01*
X55223683Y-69723683D01*
X55148704Y-69815045D01*
X55092990Y-69919279D01*
X55058682Y-70032379D01*
X55047097Y-70150000D01*
X49543054Y-70150000D01*
X49541318Y-70132379D01*
X49507010Y-70019279D01*
X49451296Y-69915045D01*
X49376317Y-69823683D01*
X49284955Y-69748704D01*
X49180721Y-69692990D01*
X49067621Y-69658682D01*
X48950000Y-69647097D01*
X46950000Y-69647097D01*
X46832379Y-69658682D01*
X46719279Y-69692990D01*
X46615045Y-69748704D01*
X46523683Y-69823683D01*
X46448704Y-69915045D01*
X46392990Y-70019279D01*
X46358682Y-70132379D01*
X46347097Y-70250000D01*
X41992903Y-70250000D01*
X41992903Y-69766000D01*
X41981318Y-69648379D01*
X41947010Y-69535279D01*
X41891296Y-69431045D01*
X41816317Y-69339683D01*
X41724955Y-69264704D01*
X41620721Y-69208990D01*
X41507621Y-69174682D01*
X41390000Y-69163097D01*
X39190000Y-69163097D01*
X39072379Y-69174682D01*
X38959279Y-69208990D01*
X38855045Y-69264704D01*
X38763683Y-69339683D01*
X38688704Y-69431045D01*
X38632990Y-69535279D01*
X38598682Y-69648379D01*
X38587097Y-69766000D01*
X29445000Y-69766000D01*
X29445000Y-68310000D01*
X76941775Y-68310000D01*
X76974598Y-68643258D01*
X77071806Y-68963709D01*
X77229663Y-69259039D01*
X77442103Y-69517897D01*
X77700961Y-69730337D01*
X77996291Y-69888194D01*
X78316742Y-69985402D01*
X78566490Y-70010000D01*
X78733510Y-70010000D01*
X78983258Y-69985402D01*
X79303709Y-69888194D01*
X79599039Y-69730337D01*
X79857897Y-69517897D01*
X80070337Y-69259039D01*
X80228194Y-68963709D01*
X80325402Y-68643258D01*
X80358225Y-68310000D01*
X80325402Y-67976742D01*
X80228194Y-67656291D01*
X80070337Y-67360961D01*
X79946447Y-67210000D01*
X84567097Y-67210000D01*
X84567097Y-69410000D01*
X84578682Y-69527621D01*
X84612990Y-69640721D01*
X84668704Y-69744955D01*
X84743683Y-69836317D01*
X84835045Y-69911296D01*
X84939279Y-69967010D01*
X85052379Y-70001318D01*
X85170000Y-70012903D01*
X87370000Y-70012903D01*
X87487621Y-70001318D01*
X87600721Y-69967010D01*
X87704955Y-69911296D01*
X87796317Y-69836317D01*
X87871296Y-69744955D01*
X87927010Y-69640721D01*
X87961318Y-69527621D01*
X87972903Y-69410000D01*
X87972903Y-67210000D01*
X87961318Y-67092379D01*
X87927010Y-66979279D01*
X87871296Y-66875045D01*
X87796317Y-66783683D01*
X87704955Y-66708704D01*
X87600721Y-66652990D01*
X87487621Y-66618682D01*
X87370000Y-66607097D01*
X85170000Y-66607097D01*
X85052379Y-66618682D01*
X84939279Y-66652990D01*
X84835045Y-66708704D01*
X84743683Y-66783683D01*
X84668704Y-66875045D01*
X84612990Y-66979279D01*
X84578682Y-67092379D01*
X84567097Y-67210000D01*
X79946447Y-67210000D01*
X79857897Y-67102103D01*
X79599039Y-66889663D01*
X79303709Y-66731806D01*
X78983258Y-66634598D01*
X78733510Y-66610000D01*
X78566490Y-66610000D01*
X78316742Y-66634598D01*
X77996291Y-66731806D01*
X77700961Y-66889663D01*
X77442103Y-67102103D01*
X77229663Y-67360961D01*
X77071806Y-67656291D01*
X76974598Y-67976742D01*
X76941775Y-68310000D01*
X29445000Y-68310000D01*
X29445000Y-63401509D01*
X34306000Y-63401509D01*
X34306000Y-63598491D01*
X34344429Y-63791689D01*
X34419811Y-63973678D01*
X34529249Y-64137463D01*
X34668537Y-64276751D01*
X34832322Y-64386189D01*
X35014311Y-64461571D01*
X35167000Y-64491942D01*
X35167000Y-65297097D01*
X35042000Y-65297097D01*
X34924379Y-65308682D01*
X34811279Y-65342990D01*
X34707045Y-65398704D01*
X34615683Y-65473683D01*
X34540704Y-65565045D01*
X34484990Y-65669279D01*
X34450682Y-65782379D01*
X34439097Y-65900000D01*
X34439097Y-67600000D01*
X34450682Y-67717621D01*
X34484990Y-67830721D01*
X34540704Y-67934955D01*
X34615683Y-68026317D01*
X34707045Y-68101296D01*
X34811279Y-68157010D01*
X34924379Y-68191318D01*
X35042000Y-68202903D01*
X36742000Y-68202903D01*
X36859621Y-68191318D01*
X36972721Y-68157010D01*
X37076955Y-68101296D01*
X37168317Y-68026317D01*
X37243296Y-67934955D01*
X37299010Y-67830721D01*
X37333318Y-67717621D01*
X37344903Y-67600000D01*
X37344903Y-65900000D01*
X37334351Y-65792866D01*
X45290000Y-65792866D01*
X45290000Y-66167134D01*
X45363016Y-66534209D01*
X45506242Y-66879987D01*
X45714174Y-67191179D01*
X45978821Y-67455826D01*
X46290013Y-67663758D01*
X46635791Y-67806984D01*
X47002866Y-67880000D01*
X47377134Y-67880000D01*
X47744209Y-67806984D01*
X48089987Y-67663758D01*
X48401179Y-67455826D01*
X48579247Y-67277758D01*
X70522950Y-67277758D01*
X70614460Y-67519691D01*
X70869426Y-67669015D01*
X71148624Y-67765729D01*
X71441325Y-67806116D01*
X71736281Y-67788622D01*
X72022157Y-67713923D01*
X72287967Y-67584887D01*
X72385540Y-67519691D01*
X72477050Y-67277758D01*
X71500000Y-66300707D01*
X70522950Y-67277758D01*
X48579247Y-67277758D01*
X48665826Y-67191179D01*
X48873758Y-66879987D01*
X49016984Y-66534209D01*
X49075242Y-66241325D01*
X69993884Y-66241325D01*
X70011378Y-66536281D01*
X70086077Y-66822157D01*
X70215113Y-67087967D01*
X70280309Y-67185540D01*
X70522242Y-67277050D01*
X71499293Y-66300000D01*
X71500707Y-66300000D01*
X72477758Y-67277050D01*
X72719691Y-67185540D01*
X72869015Y-66930574D01*
X72965729Y-66651376D01*
X73006116Y-66358675D01*
X72988622Y-66063719D01*
X72913923Y-65777843D01*
X72784887Y-65512033D01*
X72719691Y-65414460D01*
X72477758Y-65322950D01*
X71500707Y-66300000D01*
X71499293Y-66300000D01*
X70522242Y-65322950D01*
X70280309Y-65414460D01*
X70130985Y-65669426D01*
X70034271Y-65948624D01*
X69993884Y-66241325D01*
X49075242Y-66241325D01*
X49090000Y-66167134D01*
X49090000Y-65792866D01*
X49016984Y-65425791D01*
X48974093Y-65322242D01*
X70522950Y-65322242D01*
X71500000Y-66299293D01*
X72477050Y-65322242D01*
X72385540Y-65080309D01*
X72130574Y-64930985D01*
X71851376Y-64834271D01*
X71558675Y-64793884D01*
X71263719Y-64811378D01*
X70977843Y-64886077D01*
X70712033Y-65015113D01*
X70614460Y-65080309D01*
X70522950Y-65322242D01*
X48974093Y-65322242D01*
X48873758Y-65080013D01*
X48665826Y-64768821D01*
X48401179Y-64504174D01*
X48089987Y-64296242D01*
X47744209Y-64153016D01*
X47377134Y-64080000D01*
X47002866Y-64080000D01*
X46635791Y-64153016D01*
X46290013Y-64296242D01*
X45978821Y-64504174D01*
X45714174Y-64768821D01*
X45506242Y-65080013D01*
X45363016Y-65425791D01*
X45290000Y-65792866D01*
X37334351Y-65792866D01*
X37333318Y-65782379D01*
X37299010Y-65669279D01*
X37243296Y-65565045D01*
X37168317Y-65473683D01*
X37076955Y-65398704D01*
X36972721Y-65342990D01*
X36859621Y-65308682D01*
X36742000Y-65297097D01*
X36617000Y-65297097D01*
X36617000Y-64121596D01*
X36620506Y-64085999D01*
X36617000Y-64050402D01*
X36617000Y-64050393D01*
X36606509Y-63943875D01*
X36565053Y-63807212D01*
X36497731Y-63681263D01*
X36486105Y-63667097D01*
X36429830Y-63598525D01*
X36429823Y-63598518D01*
X36407131Y-63570868D01*
X36379482Y-63548177D01*
X36306000Y-63474695D01*
X36306000Y-63401509D01*
X36275068Y-63246000D01*
X38581775Y-63246000D01*
X38614598Y-63579258D01*
X38711806Y-63899709D01*
X38869663Y-64195039D01*
X39082103Y-64453897D01*
X39340961Y-64666337D01*
X39636291Y-64824194D01*
X39956742Y-64921402D01*
X40206490Y-64946000D01*
X40373510Y-64946000D01*
X40623258Y-64921402D01*
X40943709Y-64824194D01*
X41239039Y-64666337D01*
X41497897Y-64453897D01*
X41710337Y-64195039D01*
X41868194Y-63899709D01*
X41965402Y-63579258D01*
X41989951Y-63330000D01*
X55043226Y-63330000D01*
X55070257Y-63604448D01*
X55150310Y-63868349D01*
X55280310Y-64111562D01*
X55455261Y-64324739D01*
X55668438Y-64499690D01*
X55911651Y-64629690D01*
X56175552Y-64709743D01*
X56381223Y-64730000D01*
X56518777Y-64730000D01*
X56724448Y-64709743D01*
X56988349Y-64629690D01*
X57231562Y-64499690D01*
X57444739Y-64324739D01*
X57619690Y-64111562D01*
X57720000Y-63923895D01*
X57820310Y-64111562D01*
X57995261Y-64324739D01*
X58208438Y-64499690D01*
X58451651Y-64629690D01*
X58715552Y-64709743D01*
X58921223Y-64730000D01*
X59058777Y-64730000D01*
X59264448Y-64709743D01*
X59528349Y-64629690D01*
X59771562Y-64499690D01*
X59984739Y-64324739D01*
X60159690Y-64111562D01*
X60260000Y-63923895D01*
X60360310Y-64111562D01*
X60535261Y-64324739D01*
X60748438Y-64499690D01*
X60991651Y-64629690D01*
X61255552Y-64709743D01*
X61461223Y-64730000D01*
X61598777Y-64730000D01*
X61804448Y-64709743D01*
X62068349Y-64629690D01*
X62311562Y-64499690D01*
X62524739Y-64324739D01*
X62699690Y-64111562D01*
X62800000Y-63923895D01*
X62900310Y-64111562D01*
X63075261Y-64324739D01*
X63288438Y-64499690D01*
X63531651Y-64629690D01*
X63795552Y-64709743D01*
X64001223Y-64730000D01*
X64138777Y-64730000D01*
X64344448Y-64709743D01*
X64608349Y-64629690D01*
X64851562Y-64499690D01*
X65064739Y-64324739D01*
X65109662Y-64270000D01*
X77557097Y-64270000D01*
X77557097Y-65870000D01*
X77568682Y-65987621D01*
X77602990Y-66100721D01*
X77658704Y-66204955D01*
X77733683Y-66296317D01*
X77825045Y-66371296D01*
X77929279Y-66427010D01*
X78042379Y-66461318D01*
X78160000Y-66472903D01*
X79760000Y-66472903D01*
X79877621Y-66461318D01*
X79990721Y-66427010D01*
X80094955Y-66371296D01*
X80186317Y-66296317D01*
X80261296Y-66204955D01*
X80317010Y-66100721D01*
X80351318Y-65987621D01*
X80361032Y-65888997D01*
X80505261Y-66064739D01*
X80718438Y-66239690D01*
X80961651Y-66369690D01*
X81225552Y-66449743D01*
X81431223Y-66470000D01*
X81568777Y-66470000D01*
X81774448Y-66449743D01*
X82038349Y-66369690D01*
X82281562Y-66239690D01*
X82494739Y-66064739D01*
X82669690Y-65851562D01*
X82770000Y-65663895D01*
X82870310Y-65851562D01*
X83045261Y-66064739D01*
X83258438Y-66239690D01*
X83501651Y-66369690D01*
X83765552Y-66449743D01*
X83971223Y-66470000D01*
X84108777Y-66470000D01*
X84314448Y-66449743D01*
X84578349Y-66369690D01*
X84821562Y-66239690D01*
X85034739Y-66064739D01*
X85209690Y-65851562D01*
X85339690Y-65608349D01*
X85364117Y-65527823D01*
X85471829Y-65749675D01*
X85625720Y-65952809D01*
X85816284Y-66122017D01*
X86036197Y-66250796D01*
X86277008Y-66334198D01*
X86376141Y-66353917D01*
X86579500Y-66245000D01*
X86579500Y-65070500D01*
X86580500Y-65070500D01*
X86580500Y-66245000D01*
X86783859Y-66353917D01*
X86882992Y-66334198D01*
X87123803Y-66250796D01*
X87343716Y-66122017D01*
X87534280Y-65952809D01*
X87688171Y-65749675D01*
X87799476Y-65520422D01*
X87863917Y-65273859D01*
X87755000Y-65070500D01*
X86580500Y-65070500D01*
X86579500Y-65070500D01*
X86559500Y-65070500D01*
X86559500Y-65069500D01*
X86579500Y-65069500D01*
X86579500Y-63895000D01*
X86580500Y-63895000D01*
X86580500Y-65069500D01*
X87755000Y-65069500D01*
X87863917Y-64866141D01*
X87799476Y-64619578D01*
X87688171Y-64390325D01*
X87534280Y-64187191D01*
X87343716Y-64017983D01*
X87123803Y-63889204D01*
X86882992Y-63805802D01*
X86783859Y-63786083D01*
X86580500Y-63895000D01*
X86579500Y-63895000D01*
X86376141Y-63786083D01*
X86277008Y-63805802D01*
X86036197Y-63889204D01*
X85816284Y-64017983D01*
X85625720Y-64187191D01*
X85471829Y-64390325D01*
X85364117Y-64612177D01*
X85339690Y-64531651D01*
X85209690Y-64288438D01*
X85034739Y-64075261D01*
X84821562Y-63900310D01*
X84578349Y-63770310D01*
X84314448Y-63690257D01*
X84108777Y-63670000D01*
X83971223Y-63670000D01*
X83765552Y-63690257D01*
X83501651Y-63770310D01*
X83258438Y-63900310D01*
X83045261Y-64075261D01*
X82870310Y-64288438D01*
X82770000Y-64476105D01*
X82669690Y-64288438D01*
X82494739Y-64075261D01*
X82281562Y-63900310D01*
X82038349Y-63770310D01*
X81774448Y-63690257D01*
X81568777Y-63670000D01*
X81431223Y-63670000D01*
X81225552Y-63690257D01*
X80961651Y-63770310D01*
X80718438Y-63900310D01*
X80505261Y-64075261D01*
X80361032Y-64251003D01*
X80351318Y-64152379D01*
X80317010Y-64039279D01*
X80261296Y-63935045D01*
X80186317Y-63843683D01*
X80094955Y-63768704D01*
X79990721Y-63712990D01*
X79877621Y-63678682D01*
X79760000Y-63667097D01*
X78160000Y-63667097D01*
X78042379Y-63678682D01*
X77929279Y-63712990D01*
X77825045Y-63768704D01*
X77733683Y-63843683D01*
X77658704Y-63935045D01*
X77602990Y-64039279D01*
X77568682Y-64152379D01*
X77557097Y-64270000D01*
X65109662Y-64270000D01*
X65239690Y-64111562D01*
X65369690Y-63868349D01*
X65449743Y-63604448D01*
X65476774Y-63330000D01*
X65449743Y-63055552D01*
X65369690Y-62791651D01*
X65239690Y-62548438D01*
X65064739Y-62335261D01*
X64851562Y-62160310D01*
X64608349Y-62030310D01*
X64344448Y-61950257D01*
X64138777Y-61930000D01*
X64001223Y-61930000D01*
X63795552Y-61950257D01*
X63531651Y-62030310D01*
X63288438Y-62160310D01*
X63075261Y-62335261D01*
X62900310Y-62548438D01*
X62800000Y-62736105D01*
X62699690Y-62548438D01*
X62524739Y-62335261D01*
X62311562Y-62160310D01*
X62068349Y-62030310D01*
X61804448Y-61950257D01*
X61598777Y-61930000D01*
X61461223Y-61930000D01*
X61255552Y-61950257D01*
X60991651Y-62030310D01*
X60748438Y-62160310D01*
X60535261Y-62335261D01*
X60360310Y-62548438D01*
X60260000Y-62736105D01*
X60159690Y-62548438D01*
X59984739Y-62335261D01*
X59771562Y-62160310D01*
X59528349Y-62030310D01*
X59264448Y-61950257D01*
X59058777Y-61930000D01*
X58921223Y-61930000D01*
X58715552Y-61950257D01*
X58451651Y-62030310D01*
X58208438Y-62160310D01*
X57995261Y-62335261D01*
X57820310Y-62548438D01*
X57720000Y-62736105D01*
X57619690Y-62548438D01*
X57444739Y-62335261D01*
X57231562Y-62160310D01*
X56988349Y-62030310D01*
X56724448Y-61950257D01*
X56518777Y-61930000D01*
X56381223Y-61930000D01*
X56175552Y-61950257D01*
X55911651Y-62030310D01*
X55668438Y-62160310D01*
X55455261Y-62335261D01*
X55280310Y-62548438D01*
X55150310Y-62791651D01*
X55070257Y-63055552D01*
X55043226Y-63330000D01*
X41989951Y-63330000D01*
X41998225Y-63246000D01*
X41965402Y-62912742D01*
X41868194Y-62592291D01*
X41710337Y-62296961D01*
X41497897Y-62038103D01*
X41239039Y-61825663D01*
X40943709Y-61667806D01*
X40623258Y-61570598D01*
X40373510Y-61546000D01*
X40206490Y-61546000D01*
X39956742Y-61570598D01*
X39636291Y-61667806D01*
X39340961Y-61825663D01*
X39082103Y-62038103D01*
X38869663Y-62296961D01*
X38711806Y-62592291D01*
X38614598Y-62912742D01*
X38581775Y-63246000D01*
X36275068Y-63246000D01*
X36267571Y-63208311D01*
X36192189Y-63026322D01*
X36082751Y-62862537D01*
X35943463Y-62723249D01*
X35779678Y-62613811D01*
X35597689Y-62538429D01*
X35404491Y-62500000D01*
X35207509Y-62500000D01*
X35014311Y-62538429D01*
X34832322Y-62613811D01*
X34668537Y-62723249D01*
X34529249Y-62862537D01*
X34419811Y-63026322D01*
X34344429Y-63208311D01*
X34306000Y-63401509D01*
X29445000Y-63401509D01*
X29445000Y-60792866D01*
X45290000Y-60792866D01*
X45290000Y-61167134D01*
X45363016Y-61534209D01*
X45506242Y-61879987D01*
X45714174Y-62191179D01*
X45978821Y-62455826D01*
X46290013Y-62663758D01*
X46635791Y-62806984D01*
X47002866Y-62880000D01*
X47377134Y-62880000D01*
X47744209Y-62806984D01*
X48089987Y-62663758D01*
X48401179Y-62455826D01*
X48665826Y-62191179D01*
X48873758Y-61879987D01*
X49016984Y-61534209D01*
X49090000Y-61167134D01*
X49090000Y-60792866D01*
X49016984Y-60425791D01*
X48953329Y-60272112D01*
X53410000Y-60272112D01*
X53410000Y-60547888D01*
X53463801Y-60818365D01*
X53569336Y-61073149D01*
X53722549Y-61302448D01*
X53917552Y-61497451D01*
X54146851Y-61650664D01*
X54401635Y-61756199D01*
X54672112Y-61810000D01*
X54947888Y-61810000D01*
X55218365Y-61756199D01*
X55473149Y-61650664D01*
X55702448Y-61497451D01*
X55897451Y-61302448D01*
X56050664Y-61073149D01*
X56156199Y-60818365D01*
X56210000Y-60547888D01*
X56210000Y-60410000D01*
X63563226Y-60410000D01*
X63590257Y-60684448D01*
X63670310Y-60948349D01*
X63800310Y-61191562D01*
X63975261Y-61404739D01*
X64188438Y-61579690D01*
X64431651Y-61709690D01*
X64695552Y-61789743D01*
X64901223Y-61810000D01*
X65038777Y-61810000D01*
X65244448Y-61789743D01*
X65508349Y-61709690D01*
X65751562Y-61579690D01*
X65964739Y-61404739D01*
X66139690Y-61191562D01*
X66269690Y-60948349D01*
X66349743Y-60684448D01*
X66376774Y-60410000D01*
X66365940Y-60300000D01*
X69897097Y-60300000D01*
X69897097Y-62300000D01*
X69908682Y-62417621D01*
X69942990Y-62530721D01*
X69998704Y-62634955D01*
X70073683Y-62726317D01*
X70165045Y-62801296D01*
X70269279Y-62857010D01*
X70382379Y-62891318D01*
X70500000Y-62902903D01*
X72500000Y-62902903D01*
X72617621Y-62891318D01*
X72730721Y-62857010D01*
X72834955Y-62801296D01*
X72926317Y-62726317D01*
X73001296Y-62634955D01*
X73057010Y-62530721D01*
X73091318Y-62417621D01*
X73102903Y-62300000D01*
X73102903Y-60300000D01*
X73091318Y-60182379D01*
X73057010Y-60069279D01*
X73001296Y-59965045D01*
X72926317Y-59873683D01*
X72834955Y-59798704D01*
X72730721Y-59742990D01*
X72617621Y-59708682D01*
X72500000Y-59697097D01*
X70500000Y-59697097D01*
X70382379Y-59708682D01*
X70269279Y-59742990D01*
X70165045Y-59798704D01*
X70073683Y-59873683D01*
X69998704Y-59965045D01*
X69942990Y-60069279D01*
X69908682Y-60182379D01*
X69897097Y-60300000D01*
X66365940Y-60300000D01*
X66349743Y-60135552D01*
X66269690Y-59871651D01*
X66139690Y-59628438D01*
X65964739Y-59415261D01*
X65751562Y-59240310D01*
X65508349Y-59110310D01*
X65244448Y-59030257D01*
X65038777Y-59010000D01*
X64901223Y-59010000D01*
X64695552Y-59030257D01*
X64431651Y-59110310D01*
X64188438Y-59240310D01*
X63975261Y-59415261D01*
X63800310Y-59628438D01*
X63670310Y-59871651D01*
X63590257Y-60135552D01*
X63563226Y-60410000D01*
X56210000Y-60410000D01*
X56210000Y-60272112D01*
X56156199Y-60001635D01*
X56050664Y-59746851D01*
X55897451Y-59517552D01*
X55702448Y-59322549D01*
X55473149Y-59169336D01*
X55218365Y-59063801D01*
X54947888Y-59010000D01*
X54672112Y-59010000D01*
X54401635Y-59063801D01*
X54146851Y-59169336D01*
X53917552Y-59322549D01*
X53722549Y-59517552D01*
X53569336Y-59746851D01*
X53463801Y-60001635D01*
X53410000Y-60272112D01*
X48953329Y-60272112D01*
X48873758Y-60080013D01*
X48665826Y-59768821D01*
X48401179Y-59504174D01*
X48089987Y-59296242D01*
X47744209Y-59153016D01*
X47377134Y-59080000D01*
X47002866Y-59080000D01*
X46635791Y-59153016D01*
X46290013Y-59296242D01*
X45978821Y-59504174D01*
X45714174Y-59768821D01*
X45506242Y-60080013D01*
X45363016Y-60425791D01*
X45290000Y-60792866D01*
X29445000Y-60792866D01*
X29445000Y-53241509D01*
X38624000Y-53241509D01*
X38624000Y-53438491D01*
X38662429Y-53631689D01*
X38737811Y-53813678D01*
X38847249Y-53977463D01*
X38899000Y-54029214D01*
X38899001Y-54936785D01*
X38847249Y-54988537D01*
X38737811Y-55152322D01*
X38662429Y-55334311D01*
X38624000Y-55527509D01*
X38624000Y-55724491D01*
X38662429Y-55917689D01*
X38737811Y-56099678D01*
X38847249Y-56263463D01*
X38986537Y-56402751D01*
X39150322Y-56512189D01*
X39332311Y-56587571D01*
X39525509Y-56626000D01*
X39722491Y-56626000D01*
X39915689Y-56587571D01*
X40097678Y-56512189D01*
X40261463Y-56402751D01*
X40400751Y-56263463D01*
X40510189Y-56099678D01*
X40585571Y-55917689D01*
X40624000Y-55724491D01*
X40624000Y-55527509D01*
X40585571Y-55334311D01*
X40510189Y-55152322D01*
X40497492Y-55133319D01*
X46895000Y-55133319D01*
X46895000Y-55566681D01*
X46979545Y-55991716D01*
X47145385Y-56392091D01*
X47386148Y-56752418D01*
X47692582Y-57058852D01*
X48052909Y-57299615D01*
X48453284Y-57465455D01*
X48878319Y-57550000D01*
X49311681Y-57550000D01*
X49736716Y-57465455D01*
X50137091Y-57299615D01*
X50497418Y-57058852D01*
X50803852Y-56752418D01*
X51044615Y-56392091D01*
X51136607Y-56170000D01*
X63247097Y-56170000D01*
X63247097Y-57870000D01*
X63258682Y-57987621D01*
X63292990Y-58100721D01*
X63348704Y-58204955D01*
X63423683Y-58296317D01*
X63515045Y-58371296D01*
X63619279Y-58427010D01*
X63732379Y-58461318D01*
X63850000Y-58472903D01*
X65550000Y-58472903D01*
X65667621Y-58461318D01*
X65780721Y-58427010D01*
X65884955Y-58371296D01*
X65976317Y-58296317D01*
X66051296Y-58204955D01*
X66107010Y-58100721D01*
X66141318Y-57987621D01*
X66152903Y-57870000D01*
X66152903Y-56170000D01*
X66141318Y-56052379D01*
X66107010Y-55939279D01*
X66051296Y-55835045D01*
X65976317Y-55743683D01*
X65884955Y-55668704D01*
X65780721Y-55612990D01*
X65667621Y-55578682D01*
X65550000Y-55567097D01*
X63850000Y-55567097D01*
X63732379Y-55578682D01*
X63619279Y-55612990D01*
X63515045Y-55668704D01*
X63423683Y-55743683D01*
X63348704Y-55835045D01*
X63292990Y-55939279D01*
X63258682Y-56052379D01*
X63247097Y-56170000D01*
X51136607Y-56170000D01*
X51210455Y-55991716D01*
X51295000Y-55566681D01*
X51295000Y-55133319D01*
X67395000Y-55133319D01*
X67395000Y-55566681D01*
X67479545Y-55991716D01*
X67645385Y-56392091D01*
X67886148Y-56752418D01*
X68192582Y-57058852D01*
X68552909Y-57299615D01*
X68953284Y-57465455D01*
X69378319Y-57550000D01*
X69811681Y-57550000D01*
X70236716Y-57465455D01*
X70637091Y-57299615D01*
X70997418Y-57058852D01*
X71303852Y-56752418D01*
X71544615Y-56392091D01*
X71624181Y-56200000D01*
X74047097Y-56200000D01*
X74047097Y-57900000D01*
X74058682Y-58017621D01*
X74092990Y-58130721D01*
X74148704Y-58234955D01*
X74223683Y-58326317D01*
X74315045Y-58401296D01*
X74419279Y-58457010D01*
X74532379Y-58491318D01*
X74650000Y-58502903D01*
X76350000Y-58502903D01*
X76467621Y-58491318D01*
X76580721Y-58457010D01*
X76684955Y-58401296D01*
X76776317Y-58326317D01*
X76851296Y-58234955D01*
X76907010Y-58130721D01*
X76941318Y-58017621D01*
X76952903Y-57900000D01*
X76952903Y-57450000D01*
X77553226Y-57450000D01*
X77580257Y-57724448D01*
X77660310Y-57988349D01*
X77790310Y-58231562D01*
X77965261Y-58444739D01*
X78178438Y-58619690D01*
X78421651Y-58749690D01*
X78685552Y-58829743D01*
X78891223Y-58850000D01*
X79028777Y-58850000D01*
X79234448Y-58829743D01*
X79498349Y-58749690D01*
X79741562Y-58619690D01*
X79954739Y-58444739D01*
X80129690Y-58231562D01*
X80230000Y-58043895D01*
X80330310Y-58231562D01*
X80505261Y-58444739D01*
X80718438Y-58619690D01*
X80961651Y-58749690D01*
X81225552Y-58829743D01*
X81431223Y-58850000D01*
X81568777Y-58850000D01*
X81774448Y-58829743D01*
X82038349Y-58749690D01*
X82281562Y-58619690D01*
X82494739Y-58444739D01*
X82669690Y-58231562D01*
X82770000Y-58043895D01*
X82870310Y-58231562D01*
X83045261Y-58444739D01*
X83258438Y-58619690D01*
X83501651Y-58749690D01*
X83765552Y-58829743D01*
X83971223Y-58850000D01*
X84108777Y-58850000D01*
X84314448Y-58829743D01*
X84578349Y-58749690D01*
X84821562Y-58619690D01*
X85034739Y-58444739D01*
X85209690Y-58231562D01*
X85310000Y-58043895D01*
X85410310Y-58231562D01*
X85585261Y-58444739D01*
X85798438Y-58619690D01*
X86041651Y-58749690D01*
X86305552Y-58829743D01*
X86511223Y-58850000D01*
X86648777Y-58850000D01*
X86854448Y-58829743D01*
X87118349Y-58749690D01*
X87361562Y-58619690D01*
X87574739Y-58444739D01*
X87749690Y-58231562D01*
X87879690Y-57988349D01*
X87959743Y-57724448D01*
X87986774Y-57450000D01*
X87959743Y-57175552D01*
X87879690Y-56911651D01*
X87749690Y-56668438D01*
X87574739Y-56455261D01*
X87361562Y-56280310D01*
X87118349Y-56150310D01*
X86854448Y-56070257D01*
X86648777Y-56050000D01*
X86511223Y-56050000D01*
X86305552Y-56070257D01*
X86041651Y-56150310D01*
X85798438Y-56280310D01*
X85585261Y-56455261D01*
X85410310Y-56668438D01*
X85310000Y-56856105D01*
X85209690Y-56668438D01*
X85034739Y-56455261D01*
X84821562Y-56280310D01*
X84578349Y-56150310D01*
X84314448Y-56070257D01*
X84108777Y-56050000D01*
X83971223Y-56050000D01*
X83765552Y-56070257D01*
X83501651Y-56150310D01*
X83258438Y-56280310D01*
X83045261Y-56455261D01*
X82870310Y-56668438D01*
X82770000Y-56856105D01*
X82669690Y-56668438D01*
X82494739Y-56455261D01*
X82281562Y-56280310D01*
X82038349Y-56150310D01*
X81774448Y-56070257D01*
X81568777Y-56050000D01*
X81431223Y-56050000D01*
X81225552Y-56070257D01*
X80961651Y-56150310D01*
X80718438Y-56280310D01*
X80505261Y-56455261D01*
X80330310Y-56668438D01*
X80230000Y-56856105D01*
X80129690Y-56668438D01*
X79954739Y-56455261D01*
X79741562Y-56280310D01*
X79498349Y-56150310D01*
X79234448Y-56070257D01*
X79028777Y-56050000D01*
X78891223Y-56050000D01*
X78685552Y-56070257D01*
X78421651Y-56150310D01*
X78178438Y-56280310D01*
X77965261Y-56455261D01*
X77790310Y-56668438D01*
X77660310Y-56911651D01*
X77580257Y-57175552D01*
X77553226Y-57450000D01*
X76952903Y-57450000D01*
X76952903Y-56200000D01*
X76941318Y-56082379D01*
X76907010Y-55969279D01*
X76851296Y-55865045D01*
X76776317Y-55773683D01*
X76684955Y-55698704D01*
X76580721Y-55642990D01*
X76467621Y-55608682D01*
X76350000Y-55597097D01*
X74650000Y-55597097D01*
X74532379Y-55608682D01*
X74419279Y-55642990D01*
X74315045Y-55698704D01*
X74223683Y-55773683D01*
X74148704Y-55865045D01*
X74092990Y-55969279D01*
X74058682Y-56082379D01*
X74047097Y-56200000D01*
X71624181Y-56200000D01*
X71710455Y-55991716D01*
X71795000Y-55566681D01*
X71795000Y-55133319D01*
X71710455Y-54708284D01*
X71544615Y-54307909D01*
X71303852Y-53947582D01*
X70997418Y-53641148D01*
X70637091Y-53400385D01*
X70236716Y-53234545D01*
X69811681Y-53150000D01*
X69378319Y-53150000D01*
X68953284Y-53234545D01*
X68552909Y-53400385D01*
X68192582Y-53641148D01*
X67886148Y-53947582D01*
X67645385Y-54307909D01*
X67479545Y-54708284D01*
X67395000Y-55133319D01*
X51295000Y-55133319D01*
X51210455Y-54708284D01*
X51044615Y-54307909D01*
X50803852Y-53947582D01*
X50497418Y-53641148D01*
X50137091Y-53400385D01*
X49736716Y-53234545D01*
X49311681Y-53150000D01*
X48878319Y-53150000D01*
X48453284Y-53234545D01*
X48052909Y-53400385D01*
X47692582Y-53641148D01*
X47386148Y-53947582D01*
X47145385Y-54307909D01*
X46979545Y-54708284D01*
X46895000Y-55133319D01*
X40497492Y-55133319D01*
X40400751Y-54988537D01*
X40349000Y-54936786D01*
X40349000Y-54029214D01*
X40400751Y-53977463D01*
X40510189Y-53813678D01*
X40585571Y-53631689D01*
X40624000Y-53438491D01*
X40624000Y-53241509D01*
X40585571Y-53048311D01*
X40510189Y-52866322D01*
X40400751Y-52702537D01*
X40261463Y-52563249D01*
X40097678Y-52453811D01*
X39915689Y-52378429D01*
X39722491Y-52340000D01*
X39525509Y-52340000D01*
X39332311Y-52378429D01*
X39150322Y-52453811D01*
X38986537Y-52563249D01*
X38847249Y-52702537D01*
X38737811Y-52866322D01*
X38662429Y-53048311D01*
X38624000Y-53241509D01*
X29445000Y-53241509D01*
X29445000Y-44696584D01*
X77970000Y-44696584D01*
X77970000Y-44903416D01*
X78010350Y-45106274D01*
X78089502Y-45297362D01*
X78204411Y-45469336D01*
X78350664Y-45615589D01*
X78522638Y-45730498D01*
X78713726Y-45809650D01*
X78916584Y-45850000D01*
X79123416Y-45850000D01*
X79326274Y-45809650D01*
X79517362Y-45730498D01*
X79689336Y-45615589D01*
X79835589Y-45469336D01*
X79950498Y-45297362D01*
X80029650Y-45106274D01*
X80070000Y-44903416D01*
X80070000Y-44696584D01*
X80029650Y-44493726D01*
X79950498Y-44302638D01*
X79835589Y-44130664D01*
X79689336Y-43984411D01*
X79517362Y-43869502D01*
X79326274Y-43790350D01*
X79123416Y-43750000D01*
X78916584Y-43750000D01*
X78713726Y-43790350D01*
X78522638Y-43869502D01*
X78350664Y-43984411D01*
X78204411Y-44130664D01*
X78089502Y-44302638D01*
X78010350Y-44493726D01*
X77970000Y-44696584D01*
X29445000Y-44696584D01*
X29445000Y-40296584D01*
X77970000Y-40296584D01*
X77970000Y-40503416D01*
X78010350Y-40706274D01*
X78089502Y-40897362D01*
X78204411Y-41069336D01*
X78350664Y-41215589D01*
X78522638Y-41330498D01*
X78713726Y-41409650D01*
X78916584Y-41450000D01*
X79123416Y-41450000D01*
X79326274Y-41409650D01*
X79517362Y-41330498D01*
X79689336Y-41215589D01*
X79835589Y-41069336D01*
X79950498Y-40897362D01*
X80029650Y-40706274D01*
X80070000Y-40503416D01*
X80070000Y-40296584D01*
X80029650Y-40093726D01*
X79950498Y-39902638D01*
X79835589Y-39730664D01*
X79689336Y-39584411D01*
X79517362Y-39469502D01*
X79326274Y-39390350D01*
X79123416Y-39350000D01*
X78916584Y-39350000D01*
X78713726Y-39390350D01*
X78522638Y-39469502D01*
X78350664Y-39584411D01*
X78204411Y-39730664D01*
X78089502Y-39902638D01*
X78010350Y-40093726D01*
X77970000Y-40296584D01*
X29445000Y-40296584D01*
X29445000Y-37504000D01*
X32583097Y-37504000D01*
X32583097Y-39204000D01*
X32594682Y-39321621D01*
X32628990Y-39434721D01*
X32684704Y-39538955D01*
X32759683Y-39630317D01*
X32851045Y-39705296D01*
X32955279Y-39761010D01*
X33068379Y-39795318D01*
X33186000Y-39806903D01*
X34886000Y-39806903D01*
X35003621Y-39795318D01*
X35116721Y-39761010D01*
X35220955Y-39705296D01*
X35312317Y-39630317D01*
X35387296Y-39538955D01*
X35443010Y-39434721D01*
X35477318Y-39321621D01*
X35488903Y-39204000D01*
X35488903Y-37504000D01*
X35477318Y-37386379D01*
X35443010Y-37273279D01*
X35387296Y-37169045D01*
X35312317Y-37077683D01*
X35220955Y-37002704D01*
X35116721Y-36946990D01*
X35003621Y-36912682D01*
X34886000Y-36901097D01*
X33186000Y-36901097D01*
X33068379Y-36912682D01*
X32955279Y-36946990D01*
X32851045Y-37002704D01*
X32759683Y-37077683D01*
X32684704Y-37169045D01*
X32628990Y-37273279D01*
X32594682Y-37386379D01*
X32583097Y-37504000D01*
X29445000Y-37504000D01*
X29445000Y-31580567D01*
X29469243Y-31333319D01*
X30070000Y-31333319D01*
X30070000Y-31766681D01*
X30154545Y-32191716D01*
X30320385Y-32592091D01*
X30561148Y-32952418D01*
X30867582Y-33258852D01*
X31227909Y-33499615D01*
X31628284Y-33665455D01*
X32053319Y-33750000D01*
X32486681Y-33750000D01*
X32911716Y-33665455D01*
X33312091Y-33499615D01*
X33672418Y-33258852D01*
X33978852Y-32952418D01*
X34219615Y-32592091D01*
X34385455Y-32191716D01*
X34470000Y-31766681D01*
X34470000Y-31333319D01*
X34385455Y-30908284D01*
X34219615Y-30507909D01*
X33978852Y-30147582D01*
X33672418Y-29841148D01*
X33312091Y-29600385D01*
X32911716Y-29434545D01*
X32486681Y-29350000D01*
X32053319Y-29350000D01*
X31628284Y-29434545D01*
X31227909Y-29600385D01*
X30867582Y-29841148D01*
X30561148Y-30147582D01*
X30320385Y-30507909D01*
X30154545Y-30908284D01*
X30070000Y-31333319D01*
X29469243Y-31333319D01*
X29501742Y-31001872D01*
X29660929Y-30474617D01*
X29919495Y-29988326D01*
X30267592Y-29561517D01*
X30691954Y-29210455D01*
X31176431Y-28948499D01*
X31702559Y-28785635D01*
X32279466Y-28725000D01*
X40499695Y-28725000D01*
X37962524Y-31262172D01*
G04 #@! TD*
M02*
