G04 #@! TF.GenerationSoftware,KiCad,Pcbnew,(5.0.1-3-g963ef8bb5)*
G04 #@! TF.CreationDate,2019-10-14T22:43:49-07:00*
G04 #@! TF.ProjectId,powersupply,706F776572737570706C792E6B696361,rev?*
G04 #@! TF.SameCoordinates,Original*
G04 #@! TF.FileFunction,Soldermask,Bot*
G04 #@! TF.FilePolarity,Negative*
%FSLAX46Y46*%
G04 Gerber Fmt 4.6, Leading zero omitted, Abs format (unit mm)*
G04 Created by KiCad (PCBNEW (5.0.1-3-g963ef8bb5)) date Monday, October 14, 2019 at 10:43:49 PM*
%MOMM*%
%LPD*%
G01*
G04 APERTURE LIST*
%ADD10C,0.100000*%
G04 APERTURE END LIST*
D10*
G36*
X86495256Y-86341298D02*
X86601579Y-86362447D01*
X86902042Y-86486903D01*
X87081630Y-86606900D01*
X87172454Y-86667587D01*
X87402413Y-86897546D01*
X87583098Y-87167960D01*
X87707553Y-87468422D01*
X87766377Y-87764147D01*
X87771000Y-87787391D01*
X87771000Y-88112609D01*
X87707553Y-88431579D01*
X87619550Y-88644037D01*
X87583098Y-88732040D01*
X87402413Y-89002454D01*
X87172454Y-89232413D01*
X87172451Y-89232415D01*
X86902042Y-89413097D01*
X86601579Y-89537553D01*
X86495256Y-89558702D01*
X86282611Y-89601000D01*
X85957389Y-89601000D01*
X85744744Y-89558702D01*
X85638421Y-89537553D01*
X85337958Y-89413097D01*
X85067549Y-89232415D01*
X85067546Y-89232413D01*
X84837587Y-89002454D01*
X84656902Y-88732040D01*
X84620450Y-88644037D01*
X84532447Y-88431579D01*
X84469000Y-88112609D01*
X84469000Y-87787391D01*
X84473624Y-87764147D01*
X84532447Y-87468422D01*
X84656902Y-87167960D01*
X84837587Y-86897546D01*
X85067546Y-86667587D01*
X85158370Y-86606900D01*
X85337958Y-86486903D01*
X85638421Y-86362447D01*
X85744744Y-86341298D01*
X85957389Y-86299000D01*
X86282611Y-86299000D01*
X86495256Y-86341298D01*
X86495256Y-86341298D01*
G37*
G36*
X32645256Y-86341298D02*
X32751579Y-86362447D01*
X33052042Y-86486903D01*
X33231630Y-86606900D01*
X33322454Y-86667587D01*
X33552413Y-86897546D01*
X33733098Y-87167960D01*
X33857553Y-87468422D01*
X33916377Y-87764147D01*
X33921000Y-87787391D01*
X33921000Y-88112609D01*
X33857553Y-88431579D01*
X33769550Y-88644037D01*
X33733098Y-88732040D01*
X33552413Y-89002454D01*
X33322454Y-89232413D01*
X33322451Y-89232415D01*
X33052042Y-89413097D01*
X32751579Y-89537553D01*
X32645256Y-89558702D01*
X32432611Y-89601000D01*
X32107389Y-89601000D01*
X31894744Y-89558702D01*
X31788421Y-89537553D01*
X31487958Y-89413097D01*
X31217549Y-89232415D01*
X31217546Y-89232413D01*
X30987587Y-89002454D01*
X30806902Y-88732040D01*
X30770450Y-88644037D01*
X30682447Y-88431579D01*
X30619000Y-88112609D01*
X30619000Y-87787391D01*
X30623624Y-87764147D01*
X30682447Y-87468422D01*
X30806902Y-87167960D01*
X30987587Y-86897546D01*
X31217546Y-86667587D01*
X31308370Y-86606900D01*
X31487958Y-86486903D01*
X31788421Y-86362447D01*
X31894744Y-86341298D01*
X32107389Y-86299000D01*
X32432611Y-86299000D01*
X32645256Y-86341298D01*
X32645256Y-86341298D01*
G37*
G36*
X69970786Y-81725462D02*
X69970788Y-81725463D01*
X69970789Y-81725463D01*
X70617029Y-81993144D01*
X70617030Y-81993145D01*
X71198634Y-82381760D01*
X71693240Y-82876366D01*
X71693242Y-82876369D01*
X72081856Y-83457971D01*
X72349537Y-84104211D01*
X72486000Y-84790257D01*
X72486000Y-85489743D01*
X72349537Y-86175789D01*
X72081856Y-86822029D01*
X72081855Y-86822030D01*
X71693240Y-87403634D01*
X71198634Y-87898240D01*
X71198631Y-87898242D01*
X70617029Y-88286856D01*
X69970789Y-88554537D01*
X69970788Y-88554537D01*
X69970786Y-88554538D01*
X69284744Y-88691000D01*
X68585256Y-88691000D01*
X67899214Y-88554538D01*
X67899212Y-88554537D01*
X67899211Y-88554537D01*
X67252971Y-88286856D01*
X66671369Y-87898242D01*
X66671366Y-87898240D01*
X66176760Y-87403634D01*
X65788145Y-86822030D01*
X65788144Y-86822029D01*
X65520463Y-86175789D01*
X65384000Y-85489743D01*
X65384000Y-84790257D01*
X65520463Y-84104211D01*
X65788144Y-83457971D01*
X66176758Y-82876369D01*
X66176760Y-82876366D01*
X66671366Y-82381760D01*
X67252970Y-81993145D01*
X67252971Y-81993144D01*
X67899211Y-81725463D01*
X67899212Y-81725463D01*
X67899214Y-81725462D01*
X68585256Y-81589000D01*
X69284744Y-81589000D01*
X69970786Y-81725462D01*
X69970786Y-81725462D01*
G37*
G36*
X50920786Y-81725462D02*
X50920788Y-81725463D01*
X50920789Y-81725463D01*
X51567029Y-81993144D01*
X51567030Y-81993145D01*
X52148634Y-82381760D01*
X52643240Y-82876366D01*
X52643242Y-82876369D01*
X53031856Y-83457971D01*
X53299537Y-84104211D01*
X53436000Y-84790257D01*
X53436000Y-85489743D01*
X53299537Y-86175789D01*
X53031856Y-86822029D01*
X53031855Y-86822030D01*
X52643240Y-87403634D01*
X52148634Y-87898240D01*
X52148631Y-87898242D01*
X51567029Y-88286856D01*
X50920789Y-88554537D01*
X50920788Y-88554537D01*
X50920786Y-88554538D01*
X50234744Y-88691000D01*
X49535256Y-88691000D01*
X48849214Y-88554538D01*
X48849212Y-88554537D01*
X48849211Y-88554537D01*
X48202971Y-88286856D01*
X47621369Y-87898242D01*
X47621366Y-87898240D01*
X47126760Y-87403634D01*
X46738145Y-86822030D01*
X46738144Y-86822029D01*
X46470463Y-86175789D01*
X46334000Y-85489743D01*
X46334000Y-84790257D01*
X46470463Y-84104211D01*
X46738144Y-83457971D01*
X47126758Y-82876369D01*
X47126760Y-82876366D01*
X47621366Y-82381760D01*
X48202970Y-81993145D01*
X48202971Y-81993144D01*
X48849211Y-81725463D01*
X48849212Y-81725463D01*
X48849214Y-81725462D01*
X49535256Y-81589000D01*
X50234744Y-81589000D01*
X50920786Y-81725462D01*
X50920786Y-81725462D01*
G37*
G36*
X42131000Y-87861000D02*
X40429000Y-87861000D01*
X40429000Y-86159000D01*
X42131000Y-86159000D01*
X42131000Y-87861000D01*
X42131000Y-87861000D01*
G37*
G36*
X39028228Y-86191703D02*
X39183100Y-86255853D01*
X39322481Y-86348985D01*
X39441015Y-86467519D01*
X39534147Y-86606900D01*
X39598297Y-86761772D01*
X39631000Y-86926184D01*
X39631000Y-87093816D01*
X39598297Y-87258228D01*
X39534147Y-87413100D01*
X39441015Y-87552481D01*
X39322481Y-87671015D01*
X39183100Y-87764147D01*
X39028228Y-87828297D01*
X38863816Y-87861000D01*
X38696184Y-87861000D01*
X38531772Y-87828297D01*
X38376900Y-87764147D01*
X38237519Y-87671015D01*
X38118985Y-87552481D01*
X38025853Y-87413100D01*
X37961703Y-87258228D01*
X37929000Y-87093816D01*
X37929000Y-86926184D01*
X37961703Y-86761772D01*
X38025853Y-86606900D01*
X38118985Y-86467519D01*
X38237519Y-86348985D01*
X38376900Y-86255853D01*
X38531772Y-86191703D01*
X38696184Y-86159000D01*
X38863816Y-86159000D01*
X39028228Y-86191703D01*
X39028228Y-86191703D01*
G37*
G36*
X80001000Y-85851000D02*
X78199000Y-85851000D01*
X78199000Y-84049000D01*
X80001000Y-84049000D01*
X80001000Y-85851000D01*
X80001000Y-85851000D01*
G37*
G36*
X58280443Y-79945519D02*
X58346627Y-79952037D01*
X58459853Y-79986384D01*
X58516467Y-80003557D01*
X58655087Y-80077652D01*
X58672991Y-80087222D01*
X58708729Y-80116552D01*
X58810186Y-80199814D01*
X58893448Y-80301271D01*
X58922778Y-80337009D01*
X58922779Y-80337011D01*
X59006443Y-80493533D01*
X59006443Y-80493534D01*
X59057963Y-80663373D01*
X59075359Y-80840000D01*
X59057963Y-81016627D01*
X59023616Y-81129853D01*
X59006443Y-81186467D01*
X58932348Y-81325087D01*
X58922778Y-81342991D01*
X58893448Y-81378729D01*
X58810186Y-81480186D01*
X58708729Y-81563448D01*
X58672991Y-81592778D01*
X58672989Y-81592779D01*
X58516467Y-81676443D01*
X58459853Y-81693616D01*
X58346627Y-81727963D01*
X58280442Y-81734482D01*
X58214260Y-81741000D01*
X58125740Y-81741000D01*
X58059558Y-81734482D01*
X57993373Y-81727963D01*
X57880147Y-81693616D01*
X57823533Y-81676443D01*
X57667011Y-81592779D01*
X57667009Y-81592778D01*
X57631271Y-81563448D01*
X57529814Y-81480186D01*
X57446552Y-81378729D01*
X57417222Y-81342991D01*
X57407652Y-81325087D01*
X57333557Y-81186467D01*
X57316384Y-81129853D01*
X57282037Y-81016627D01*
X57264641Y-80840000D01*
X57282037Y-80663373D01*
X57333557Y-80493534D01*
X57333557Y-80493533D01*
X57417221Y-80337011D01*
X57417222Y-80337009D01*
X57446552Y-80301271D01*
X57529814Y-80199814D01*
X57631271Y-80116552D01*
X57667009Y-80087222D01*
X57684913Y-80077652D01*
X57823533Y-80003557D01*
X57880147Y-79986384D01*
X57993373Y-79952037D01*
X58059557Y-79945519D01*
X58125740Y-79939000D01*
X58214260Y-79939000D01*
X58280443Y-79945519D01*
X58280443Y-79945519D01*
G37*
G36*
X61611000Y-81741000D02*
X59809000Y-81741000D01*
X59809000Y-79939000D01*
X61611000Y-79939000D01*
X61611000Y-81741000D01*
X61611000Y-81741000D01*
G37*
G36*
X77366565Y-77339389D02*
X77557834Y-77418615D01*
X77729976Y-77533637D01*
X77876363Y-77680024D01*
X77991385Y-77852166D01*
X78070611Y-78043435D01*
X78111000Y-78246484D01*
X78111000Y-78453516D01*
X78070611Y-78656565D01*
X77991385Y-78847834D01*
X77876363Y-79019976D01*
X77729976Y-79166363D01*
X77557834Y-79281385D01*
X77366565Y-79360611D01*
X77163516Y-79401000D01*
X76956484Y-79401000D01*
X76753435Y-79360611D01*
X76562166Y-79281385D01*
X76390024Y-79166363D01*
X76243637Y-79019976D01*
X76128615Y-78847834D01*
X76049389Y-78656565D01*
X76009000Y-78453516D01*
X76009000Y-78246484D01*
X76049389Y-78043435D01*
X76128615Y-77852166D01*
X76243637Y-77680024D01*
X76390024Y-77533637D01*
X76562166Y-77418615D01*
X76753435Y-77339389D01*
X76956484Y-77299000D01*
X77163516Y-77299000D01*
X77366565Y-77339389D01*
X77366565Y-77339389D01*
G37*
G36*
X79906565Y-77339389D02*
X80097834Y-77418615D01*
X80269976Y-77533637D01*
X80416363Y-77680024D01*
X80531385Y-77852166D01*
X80610611Y-78043435D01*
X80651000Y-78246484D01*
X80651000Y-78453516D01*
X80610611Y-78656565D01*
X80531385Y-78847834D01*
X80416363Y-79019976D01*
X80269976Y-79166363D01*
X80097834Y-79281385D01*
X79906565Y-79360611D01*
X79703516Y-79401000D01*
X79496484Y-79401000D01*
X79293435Y-79360611D01*
X79102166Y-79281385D01*
X78930024Y-79166363D01*
X78783637Y-79019976D01*
X78668615Y-78847834D01*
X78589389Y-78656565D01*
X78549000Y-78453516D01*
X78549000Y-78246484D01*
X78589389Y-78043435D01*
X78668615Y-77852166D01*
X78783637Y-77680024D01*
X78930024Y-77533637D01*
X79102166Y-77418615D01*
X79293435Y-77339389D01*
X79496484Y-77299000D01*
X79703516Y-77299000D01*
X79906565Y-77339389D01*
X79906565Y-77339389D01*
G37*
G36*
X82446565Y-77339389D02*
X82637834Y-77418615D01*
X82809976Y-77533637D01*
X82956363Y-77680024D01*
X83071385Y-77852166D01*
X83150611Y-78043435D01*
X83191000Y-78246484D01*
X83191000Y-78453516D01*
X83150611Y-78656565D01*
X83071385Y-78847834D01*
X82956363Y-79019976D01*
X82809976Y-79166363D01*
X82637834Y-79281385D01*
X82446565Y-79360611D01*
X82243516Y-79401000D01*
X82036484Y-79401000D01*
X81833435Y-79360611D01*
X81642166Y-79281385D01*
X81470024Y-79166363D01*
X81323637Y-79019976D01*
X81208615Y-78847834D01*
X81129389Y-78656565D01*
X81089000Y-78453516D01*
X81089000Y-78246484D01*
X81129389Y-78043435D01*
X81208615Y-77852166D01*
X81323637Y-77680024D01*
X81470024Y-77533637D01*
X81642166Y-77418615D01*
X81833435Y-77339389D01*
X82036484Y-77299000D01*
X82243516Y-77299000D01*
X82446565Y-77339389D01*
X82446565Y-77339389D01*
G37*
G36*
X59948228Y-75981703D02*
X60103100Y-76045853D01*
X60242481Y-76138985D01*
X60361015Y-76257519D01*
X60454147Y-76396900D01*
X60518297Y-76551772D01*
X60551000Y-76716184D01*
X60551000Y-76883816D01*
X60518297Y-77048228D01*
X60454147Y-77203100D01*
X60361015Y-77342481D01*
X60242481Y-77461015D01*
X60103100Y-77554147D01*
X59948228Y-77618297D01*
X59783816Y-77651000D01*
X59616184Y-77651000D01*
X59451772Y-77618297D01*
X59296900Y-77554147D01*
X59157519Y-77461015D01*
X59038985Y-77342481D01*
X58945853Y-77203100D01*
X58881703Y-77048228D01*
X58849000Y-76883816D01*
X58849000Y-76716184D01*
X58881703Y-76551772D01*
X58945853Y-76396900D01*
X59038985Y-76257519D01*
X59157519Y-76138985D01*
X59296900Y-76045853D01*
X59451772Y-75981703D01*
X59616184Y-75949000D01*
X59783816Y-75949000D01*
X59948228Y-75981703D01*
X59948228Y-75981703D01*
G37*
G36*
X48256565Y-75239389D02*
X48447834Y-75318615D01*
X48619976Y-75433637D01*
X48766363Y-75580024D01*
X48881385Y-75752166D01*
X48960611Y-75943435D01*
X49001000Y-76146484D01*
X49001000Y-76353516D01*
X48960611Y-76556565D01*
X48881385Y-76747834D01*
X48766363Y-76919976D01*
X48619976Y-77066363D01*
X48447834Y-77181385D01*
X48256565Y-77260611D01*
X48053516Y-77301000D01*
X47846484Y-77301000D01*
X47643435Y-77260611D01*
X47452166Y-77181385D01*
X47280024Y-77066363D01*
X47133637Y-76919976D01*
X47018615Y-76747834D01*
X46939389Y-76556565D01*
X46899000Y-76353516D01*
X46899000Y-76146484D01*
X46939389Y-75943435D01*
X47018615Y-75752166D01*
X47133637Y-75580024D01*
X47280024Y-75433637D01*
X47452166Y-75318615D01*
X47643435Y-75239389D01*
X47846484Y-75199000D01*
X48053516Y-75199000D01*
X48256565Y-75239389D01*
X48256565Y-75239389D01*
G37*
G36*
X64412812Y-73383624D02*
X64576784Y-73451544D01*
X64724354Y-73550147D01*
X64849853Y-73675646D01*
X64948456Y-73823216D01*
X65016376Y-73987188D01*
X65051000Y-74161259D01*
X65051000Y-74338741D01*
X65016376Y-74512812D01*
X64948456Y-74676784D01*
X64849853Y-74824354D01*
X64724354Y-74949853D01*
X64576784Y-75048456D01*
X64412812Y-75116376D01*
X64357367Y-75127404D01*
X64333926Y-75134515D01*
X64312315Y-75146067D01*
X64293373Y-75161612D01*
X64277828Y-75180554D01*
X64266277Y-75202165D01*
X64259164Y-75225614D01*
X64256762Y-75250000D01*
X64259164Y-75274387D01*
X64266277Y-75297836D01*
X64277829Y-75319447D01*
X64293374Y-75338389D01*
X64312316Y-75353934D01*
X64333927Y-75365485D01*
X64357367Y-75372596D01*
X64412812Y-75383624D01*
X64576784Y-75451544D01*
X64724354Y-75550147D01*
X64849853Y-75675646D01*
X64948456Y-75823216D01*
X65016376Y-75987188D01*
X65051000Y-76161259D01*
X65051000Y-76338741D01*
X65016376Y-76512812D01*
X64948456Y-76676784D01*
X64849853Y-76824354D01*
X64724354Y-76949853D01*
X64576784Y-77048456D01*
X64412812Y-77116376D01*
X64238741Y-77151000D01*
X64061259Y-77151000D01*
X63887188Y-77116376D01*
X63723216Y-77048456D01*
X63575646Y-76949853D01*
X63450147Y-76824354D01*
X63351544Y-76676784D01*
X63283624Y-76512812D01*
X63249000Y-76338741D01*
X63249000Y-76161259D01*
X63283624Y-75987188D01*
X63351544Y-75823216D01*
X63450147Y-75675646D01*
X63575646Y-75550147D01*
X63723216Y-75451544D01*
X63887188Y-75383624D01*
X63942633Y-75372596D01*
X63966074Y-75365485D01*
X63987685Y-75353933D01*
X64006627Y-75338388D01*
X64022172Y-75319446D01*
X64033723Y-75297835D01*
X64040836Y-75274386D01*
X64043238Y-75250000D01*
X64040836Y-75225613D01*
X64033723Y-75202164D01*
X64022171Y-75180553D01*
X64006626Y-75161611D01*
X63987684Y-75146066D01*
X63966073Y-75134515D01*
X63942633Y-75127404D01*
X63887188Y-75116376D01*
X63723216Y-75048456D01*
X63575646Y-74949853D01*
X63450147Y-74824354D01*
X63351544Y-74676784D01*
X63283624Y-74512812D01*
X63249000Y-74338741D01*
X63249000Y-74161259D01*
X63283624Y-73987188D01*
X63351544Y-73823216D01*
X63450147Y-73675646D01*
X63575646Y-73550147D01*
X63723216Y-73451544D01*
X63887188Y-73383624D01*
X64061259Y-73349000D01*
X64238741Y-73349000D01*
X64412812Y-73383624D01*
X64412812Y-73383624D01*
G37*
G36*
X72651000Y-76951000D02*
X70949000Y-76951000D01*
X70949000Y-75249000D01*
X72651000Y-75249000D01*
X72651000Y-76951000D01*
X72651000Y-76951000D01*
G37*
G36*
X69548228Y-75281703D02*
X69703100Y-75345853D01*
X69842481Y-75438985D01*
X69961015Y-75557519D01*
X70054147Y-75696900D01*
X70118297Y-75851772D01*
X70151000Y-76016184D01*
X70151000Y-76183816D01*
X70118297Y-76348228D01*
X70054147Y-76503100D01*
X69961015Y-76642481D01*
X69842481Y-76761015D01*
X69703100Y-76854147D01*
X69548228Y-76918297D01*
X69383816Y-76951000D01*
X69216184Y-76951000D01*
X69051772Y-76918297D01*
X68896900Y-76854147D01*
X68757519Y-76761015D01*
X68638985Y-76642481D01*
X68545853Y-76503100D01*
X68481703Y-76348228D01*
X68449000Y-76183816D01*
X68449000Y-76016184D01*
X68481703Y-75851772D01*
X68545853Y-75696900D01*
X68638985Y-75557519D01*
X68757519Y-75438985D01*
X68896900Y-75345853D01*
X69051772Y-75281703D01*
X69216184Y-75249000D01*
X69383816Y-75249000D01*
X69548228Y-75281703D01*
X69548228Y-75281703D01*
G37*
G36*
X59948228Y-73481703D02*
X60103100Y-73545853D01*
X60242481Y-73638985D01*
X60361015Y-73757519D01*
X60454147Y-73896900D01*
X60518297Y-74051772D01*
X60551000Y-74216184D01*
X60551000Y-74383816D01*
X60518297Y-74548228D01*
X60454147Y-74703100D01*
X60361015Y-74842481D01*
X60242481Y-74961015D01*
X60103100Y-75054147D01*
X59948228Y-75118297D01*
X59783816Y-75151000D01*
X59616184Y-75151000D01*
X59451772Y-75118297D01*
X59296900Y-75054147D01*
X59157519Y-74961015D01*
X59038985Y-74842481D01*
X58945853Y-74703100D01*
X58881703Y-74548228D01*
X58849000Y-74383816D01*
X58849000Y-74216184D01*
X58881703Y-74051772D01*
X58945853Y-73896900D01*
X59038985Y-73757519D01*
X59157519Y-73638985D01*
X59296900Y-73545853D01*
X59451772Y-73481703D01*
X59616184Y-73449000D01*
X59783816Y-73449000D01*
X59948228Y-73481703D01*
X59948228Y-73481703D01*
G37*
G36*
X88301000Y-74251000D02*
X86499000Y-74251000D01*
X86499000Y-72449000D01*
X88301000Y-72449000D01*
X88301000Y-74251000D01*
X88301000Y-74251000D01*
G37*
G36*
X80451000Y-73931000D02*
X78649000Y-73931000D01*
X78649000Y-72129000D01*
X80451000Y-72129000D01*
X80451000Y-73931000D01*
X80451000Y-73931000D01*
G37*
G36*
X49001000Y-72301000D02*
X46899000Y-72301000D01*
X46899000Y-70199000D01*
X49001000Y-70199000D01*
X49001000Y-72301000D01*
X49001000Y-72301000D01*
G37*
G36*
X41441000Y-72017000D02*
X39139000Y-72017000D01*
X39139000Y-69715000D01*
X41441000Y-69715000D01*
X41441000Y-72017000D01*
X41441000Y-72017000D01*
G37*
G36*
X64236821Y-70111313D02*
X64236824Y-70111314D01*
X64236825Y-70111314D01*
X64397239Y-70159975D01*
X64397241Y-70159976D01*
X64397244Y-70159977D01*
X64545078Y-70238995D01*
X64674659Y-70345341D01*
X64781005Y-70474922D01*
X64860023Y-70622756D01*
X64908687Y-70783179D01*
X64925117Y-70950000D01*
X64908687Y-71116821D01*
X64860023Y-71277244D01*
X64781005Y-71425078D01*
X64674659Y-71554659D01*
X64545078Y-71661005D01*
X64397244Y-71740023D01*
X64397241Y-71740024D01*
X64397239Y-71740025D01*
X64236825Y-71788686D01*
X64236824Y-71788686D01*
X64236821Y-71788687D01*
X64111804Y-71801000D01*
X64028196Y-71801000D01*
X63903179Y-71788687D01*
X63903176Y-71788686D01*
X63903175Y-71788686D01*
X63742761Y-71740025D01*
X63742759Y-71740024D01*
X63742756Y-71740023D01*
X63594922Y-71661005D01*
X63465341Y-71554659D01*
X63358995Y-71425078D01*
X63279977Y-71277244D01*
X63231313Y-71116821D01*
X63214883Y-70950000D01*
X63231313Y-70783179D01*
X63279977Y-70622756D01*
X63358995Y-70474922D01*
X63465341Y-70345341D01*
X63594922Y-70238995D01*
X63742756Y-70159977D01*
X63742759Y-70159976D01*
X63742761Y-70159975D01*
X63903175Y-70111314D01*
X63903176Y-70111314D01*
X63903179Y-70111313D01*
X64028196Y-70099000D01*
X64111804Y-70099000D01*
X64236821Y-70111313D01*
X64236821Y-70111313D01*
G37*
G36*
X61696821Y-70111313D02*
X61696824Y-70111314D01*
X61696825Y-70111314D01*
X61857239Y-70159975D01*
X61857241Y-70159976D01*
X61857244Y-70159977D01*
X62005078Y-70238995D01*
X62134659Y-70345341D01*
X62241005Y-70474922D01*
X62320023Y-70622756D01*
X62368687Y-70783179D01*
X62385117Y-70950000D01*
X62368687Y-71116821D01*
X62320023Y-71277244D01*
X62241005Y-71425078D01*
X62134659Y-71554659D01*
X62005078Y-71661005D01*
X61857244Y-71740023D01*
X61857241Y-71740024D01*
X61857239Y-71740025D01*
X61696825Y-71788686D01*
X61696824Y-71788686D01*
X61696821Y-71788687D01*
X61571804Y-71801000D01*
X61488196Y-71801000D01*
X61363179Y-71788687D01*
X61363176Y-71788686D01*
X61363175Y-71788686D01*
X61202761Y-71740025D01*
X61202759Y-71740024D01*
X61202756Y-71740023D01*
X61054922Y-71661005D01*
X60925341Y-71554659D01*
X60818995Y-71425078D01*
X60739977Y-71277244D01*
X60691313Y-71116821D01*
X60674883Y-70950000D01*
X60691313Y-70783179D01*
X60739977Y-70622756D01*
X60818995Y-70474922D01*
X60925341Y-70345341D01*
X61054922Y-70238995D01*
X61202756Y-70159977D01*
X61202759Y-70159976D01*
X61202761Y-70159975D01*
X61363175Y-70111314D01*
X61363176Y-70111314D01*
X61363179Y-70111313D01*
X61488196Y-70099000D01*
X61571804Y-70099000D01*
X61696821Y-70111313D01*
X61696821Y-70111313D01*
G37*
G36*
X59156821Y-70111313D02*
X59156824Y-70111314D01*
X59156825Y-70111314D01*
X59317239Y-70159975D01*
X59317241Y-70159976D01*
X59317244Y-70159977D01*
X59465078Y-70238995D01*
X59594659Y-70345341D01*
X59701005Y-70474922D01*
X59780023Y-70622756D01*
X59828687Y-70783179D01*
X59845117Y-70950000D01*
X59828687Y-71116821D01*
X59780023Y-71277244D01*
X59701005Y-71425078D01*
X59594659Y-71554659D01*
X59465078Y-71661005D01*
X59317244Y-71740023D01*
X59317241Y-71740024D01*
X59317239Y-71740025D01*
X59156825Y-71788686D01*
X59156824Y-71788686D01*
X59156821Y-71788687D01*
X59031804Y-71801000D01*
X58948196Y-71801000D01*
X58823179Y-71788687D01*
X58823176Y-71788686D01*
X58823175Y-71788686D01*
X58662761Y-71740025D01*
X58662759Y-71740024D01*
X58662756Y-71740023D01*
X58514922Y-71661005D01*
X58385341Y-71554659D01*
X58278995Y-71425078D01*
X58199977Y-71277244D01*
X58151313Y-71116821D01*
X58134883Y-70950000D01*
X58151313Y-70783179D01*
X58199977Y-70622756D01*
X58278995Y-70474922D01*
X58385341Y-70345341D01*
X58514922Y-70238995D01*
X58662756Y-70159977D01*
X58662759Y-70159976D01*
X58662761Y-70159975D01*
X58823175Y-70111314D01*
X58823176Y-70111314D01*
X58823179Y-70111313D01*
X58948196Y-70099000D01*
X59031804Y-70099000D01*
X59156821Y-70111313D01*
X59156821Y-70111313D01*
G37*
G36*
X57301000Y-71801000D02*
X55599000Y-71801000D01*
X55599000Y-70099000D01*
X57301000Y-70099000D01*
X57301000Y-71801000D01*
X57301000Y-71801000D01*
G37*
G36*
X87421000Y-69461000D02*
X85119000Y-69461000D01*
X85119000Y-67159000D01*
X87421000Y-67159000D01*
X87421000Y-69461000D01*
X87421000Y-69461000D01*
G37*
G36*
X78774180Y-67165662D02*
X78875635Y-67175654D01*
X79092600Y-67241470D01*
X79092602Y-67241471D01*
X79092605Y-67241472D01*
X79292556Y-67348347D01*
X79467818Y-67492182D01*
X79611653Y-67667444D01*
X79718528Y-67867395D01*
X79718529Y-67867398D01*
X79718530Y-67867400D01*
X79784346Y-68084365D01*
X79806569Y-68310000D01*
X79784346Y-68535635D01*
X79718530Y-68752600D01*
X79718528Y-68752605D01*
X79611653Y-68952556D01*
X79467818Y-69127818D01*
X79292556Y-69271653D01*
X79092605Y-69378528D01*
X79092602Y-69378529D01*
X79092600Y-69378530D01*
X78875635Y-69444346D01*
X78774180Y-69454338D01*
X78706545Y-69461000D01*
X78593455Y-69461000D01*
X78525820Y-69454338D01*
X78424365Y-69444346D01*
X78207400Y-69378530D01*
X78207398Y-69378529D01*
X78207395Y-69378528D01*
X78007444Y-69271653D01*
X77832182Y-69127818D01*
X77688347Y-68952556D01*
X77581472Y-68752605D01*
X77581470Y-68752600D01*
X77515654Y-68535635D01*
X77493431Y-68310000D01*
X77515654Y-68084365D01*
X77581470Y-67867400D01*
X77581471Y-67867398D01*
X77581472Y-67867395D01*
X77688347Y-67667444D01*
X77832182Y-67492182D01*
X78007444Y-67348347D01*
X78207395Y-67241472D01*
X78207398Y-67241471D01*
X78207400Y-67241470D01*
X78424365Y-67175654D01*
X78525820Y-67165662D01*
X78593455Y-67159000D01*
X78706545Y-67159000D01*
X78774180Y-67165662D01*
X78774180Y-67165662D01*
G37*
G36*
X36793000Y-67651000D02*
X34991000Y-67651000D01*
X34991000Y-65849000D01*
X36793000Y-65849000D01*
X36793000Y-67651000D01*
X36793000Y-67651000D01*
G37*
G36*
X71806565Y-65289389D02*
X71997834Y-65368615D01*
X72169976Y-65483637D01*
X72316363Y-65630024D01*
X72431385Y-65802166D01*
X72510611Y-65993435D01*
X72551000Y-66196484D01*
X72551000Y-66403516D01*
X72510611Y-66606565D01*
X72431385Y-66797834D01*
X72316363Y-66969976D01*
X72169976Y-67116363D01*
X71997834Y-67231385D01*
X71806565Y-67310611D01*
X71603516Y-67351000D01*
X71396484Y-67351000D01*
X71193435Y-67310611D01*
X71002166Y-67231385D01*
X70830024Y-67116363D01*
X70683637Y-66969976D01*
X70568615Y-66797834D01*
X70489389Y-66606565D01*
X70449000Y-66403516D01*
X70449000Y-66196484D01*
X70489389Y-65993435D01*
X70568615Y-65802166D01*
X70683637Y-65630024D01*
X70830024Y-65483637D01*
X71002166Y-65368615D01*
X71193435Y-65289389D01*
X71396484Y-65249000D01*
X71603516Y-65249000D01*
X71806565Y-65289389D01*
X71806565Y-65289389D01*
G37*
G36*
X47453567Y-64654959D02*
X47584072Y-64680918D01*
X47829939Y-64782759D01*
X48010153Y-64903175D01*
X48051215Y-64930612D01*
X48239388Y-65118785D01*
X48239390Y-65118788D01*
X48387241Y-65340061D01*
X48489082Y-65585928D01*
X48541000Y-65846938D01*
X48541000Y-66113062D01*
X48489082Y-66374072D01*
X48387241Y-66619939D01*
X48268374Y-66797834D01*
X48239388Y-66841215D01*
X48051215Y-67029388D01*
X48051212Y-67029390D01*
X47829939Y-67177241D01*
X47584072Y-67279082D01*
X47453567Y-67305041D01*
X47323063Y-67331000D01*
X47056937Y-67331000D01*
X46926433Y-67305041D01*
X46795928Y-67279082D01*
X46550061Y-67177241D01*
X46328788Y-67029390D01*
X46328785Y-67029388D01*
X46140612Y-66841215D01*
X46111626Y-66797834D01*
X45992759Y-66619939D01*
X45890918Y-66374072D01*
X45839000Y-66113062D01*
X45839000Y-65846938D01*
X45890918Y-65585928D01*
X45992759Y-65340061D01*
X46140610Y-65118788D01*
X46140612Y-65118785D01*
X46328785Y-64930612D01*
X46369847Y-64903175D01*
X46550061Y-64782759D01*
X46795928Y-64680918D01*
X46926433Y-64654959D01*
X47056937Y-64629000D01*
X47323063Y-64629000D01*
X47453567Y-64654959D01*
X47453567Y-64654959D01*
G37*
G36*
X86746821Y-64231313D02*
X86746824Y-64231314D01*
X86746825Y-64231314D01*
X86907239Y-64279975D01*
X86907241Y-64279976D01*
X86907244Y-64279977D01*
X87055078Y-64358995D01*
X87184659Y-64465341D01*
X87291005Y-64594922D01*
X87370023Y-64742756D01*
X87418687Y-64903179D01*
X87435117Y-65070000D01*
X87418687Y-65236821D01*
X87418686Y-65236824D01*
X87418686Y-65236825D01*
X87378708Y-65368616D01*
X87370023Y-65397244D01*
X87291005Y-65545078D01*
X87184659Y-65674659D01*
X87055078Y-65781005D01*
X86907244Y-65860023D01*
X86907241Y-65860024D01*
X86907239Y-65860025D01*
X86746825Y-65908686D01*
X86746824Y-65908686D01*
X86746821Y-65908687D01*
X86621804Y-65921000D01*
X86538196Y-65921000D01*
X86413179Y-65908687D01*
X86413176Y-65908686D01*
X86413175Y-65908686D01*
X86252761Y-65860025D01*
X86252759Y-65860024D01*
X86252756Y-65860023D01*
X86104922Y-65781005D01*
X85975341Y-65674659D01*
X85868995Y-65545078D01*
X85789977Y-65397244D01*
X85781293Y-65368616D01*
X85741314Y-65236825D01*
X85741314Y-65236824D01*
X85741313Y-65236821D01*
X85724883Y-65070000D01*
X85741313Y-64903179D01*
X85789977Y-64742756D01*
X85868995Y-64594922D01*
X85975341Y-64465341D01*
X86104922Y-64358995D01*
X86252756Y-64279977D01*
X86252759Y-64279976D01*
X86252761Y-64279975D01*
X86413175Y-64231314D01*
X86413176Y-64231314D01*
X86413179Y-64231313D01*
X86538196Y-64219000D01*
X86621804Y-64219000D01*
X86746821Y-64231313D01*
X86746821Y-64231313D01*
G37*
G36*
X84206821Y-64231313D02*
X84206824Y-64231314D01*
X84206825Y-64231314D01*
X84367239Y-64279975D01*
X84367241Y-64279976D01*
X84367244Y-64279977D01*
X84515078Y-64358995D01*
X84644659Y-64465341D01*
X84751005Y-64594922D01*
X84830023Y-64742756D01*
X84878687Y-64903179D01*
X84895117Y-65070000D01*
X84878687Y-65236821D01*
X84878686Y-65236824D01*
X84878686Y-65236825D01*
X84838708Y-65368616D01*
X84830023Y-65397244D01*
X84751005Y-65545078D01*
X84644659Y-65674659D01*
X84515078Y-65781005D01*
X84367244Y-65860023D01*
X84367241Y-65860024D01*
X84367239Y-65860025D01*
X84206825Y-65908686D01*
X84206824Y-65908686D01*
X84206821Y-65908687D01*
X84081804Y-65921000D01*
X83998196Y-65921000D01*
X83873179Y-65908687D01*
X83873176Y-65908686D01*
X83873175Y-65908686D01*
X83712761Y-65860025D01*
X83712759Y-65860024D01*
X83712756Y-65860023D01*
X83564922Y-65781005D01*
X83435341Y-65674659D01*
X83328995Y-65545078D01*
X83249977Y-65397244D01*
X83241293Y-65368616D01*
X83201314Y-65236825D01*
X83201314Y-65236824D01*
X83201313Y-65236821D01*
X83184883Y-65070000D01*
X83201313Y-64903179D01*
X83249977Y-64742756D01*
X83328995Y-64594922D01*
X83435341Y-64465341D01*
X83564922Y-64358995D01*
X83712756Y-64279977D01*
X83712759Y-64279976D01*
X83712761Y-64279975D01*
X83873175Y-64231314D01*
X83873176Y-64231314D01*
X83873179Y-64231313D01*
X83998196Y-64219000D01*
X84081804Y-64219000D01*
X84206821Y-64231313D01*
X84206821Y-64231313D01*
G37*
G36*
X81666821Y-64231313D02*
X81666824Y-64231314D01*
X81666825Y-64231314D01*
X81827239Y-64279975D01*
X81827241Y-64279976D01*
X81827244Y-64279977D01*
X81975078Y-64358995D01*
X82104659Y-64465341D01*
X82211005Y-64594922D01*
X82290023Y-64742756D01*
X82338687Y-64903179D01*
X82355117Y-65070000D01*
X82338687Y-65236821D01*
X82338686Y-65236824D01*
X82338686Y-65236825D01*
X82298708Y-65368616D01*
X82290023Y-65397244D01*
X82211005Y-65545078D01*
X82104659Y-65674659D01*
X81975078Y-65781005D01*
X81827244Y-65860023D01*
X81827241Y-65860024D01*
X81827239Y-65860025D01*
X81666825Y-65908686D01*
X81666824Y-65908686D01*
X81666821Y-65908687D01*
X81541804Y-65921000D01*
X81458196Y-65921000D01*
X81333179Y-65908687D01*
X81333176Y-65908686D01*
X81333175Y-65908686D01*
X81172761Y-65860025D01*
X81172759Y-65860024D01*
X81172756Y-65860023D01*
X81024922Y-65781005D01*
X80895341Y-65674659D01*
X80788995Y-65545078D01*
X80709977Y-65397244D01*
X80701293Y-65368616D01*
X80661314Y-65236825D01*
X80661314Y-65236824D01*
X80661313Y-65236821D01*
X80644883Y-65070000D01*
X80661313Y-64903179D01*
X80709977Y-64742756D01*
X80788995Y-64594922D01*
X80895341Y-64465341D01*
X81024922Y-64358995D01*
X81172756Y-64279977D01*
X81172759Y-64279976D01*
X81172761Y-64279975D01*
X81333175Y-64231314D01*
X81333176Y-64231314D01*
X81333179Y-64231313D01*
X81458196Y-64219000D01*
X81541804Y-64219000D01*
X81666821Y-64231313D01*
X81666821Y-64231313D01*
G37*
G36*
X79811000Y-65921000D02*
X78109000Y-65921000D01*
X78109000Y-64219000D01*
X79811000Y-64219000D01*
X79811000Y-65921000D01*
X79811000Y-65921000D01*
G37*
G36*
X40414180Y-62101662D02*
X40515635Y-62111654D01*
X40732600Y-62177470D01*
X40732602Y-62177471D01*
X40732605Y-62177472D01*
X40932556Y-62284347D01*
X41107818Y-62428182D01*
X41251653Y-62603444D01*
X41358528Y-62803395D01*
X41358529Y-62803398D01*
X41358530Y-62803400D01*
X41424346Y-63020365D01*
X41446569Y-63246000D01*
X41424346Y-63471635D01*
X41358530Y-63688600D01*
X41358528Y-63688605D01*
X41251653Y-63888556D01*
X41107818Y-64063818D01*
X40932556Y-64207653D01*
X40732605Y-64314528D01*
X40732602Y-64314529D01*
X40732600Y-64314530D01*
X40515635Y-64380346D01*
X40414180Y-64390338D01*
X40346545Y-64397000D01*
X40233455Y-64397000D01*
X40165820Y-64390338D01*
X40064365Y-64380346D01*
X39847400Y-64314530D01*
X39847398Y-64314529D01*
X39847395Y-64314528D01*
X39647444Y-64207653D01*
X39472182Y-64063818D01*
X39328347Y-63888556D01*
X39221472Y-63688605D01*
X39221470Y-63688600D01*
X39155654Y-63471635D01*
X39133431Y-63246000D01*
X39155654Y-63020365D01*
X39221470Y-62803400D01*
X39221471Y-62803398D01*
X39221472Y-62803395D01*
X39328347Y-62603444D01*
X39472182Y-62428182D01*
X39647444Y-62284347D01*
X39847395Y-62177472D01*
X39847398Y-62177471D01*
X39847400Y-62177470D01*
X40064365Y-62111654D01*
X40165820Y-62101662D01*
X40233455Y-62095000D01*
X40346545Y-62095000D01*
X40414180Y-62101662D01*
X40414180Y-62101662D01*
G37*
G36*
X64236821Y-62491313D02*
X64236824Y-62491314D01*
X64236825Y-62491314D01*
X64397239Y-62539975D01*
X64397241Y-62539976D01*
X64397244Y-62539977D01*
X64545078Y-62618995D01*
X64674659Y-62725341D01*
X64781005Y-62854922D01*
X64860023Y-63002756D01*
X64908687Y-63163179D01*
X64925117Y-63330000D01*
X64908687Y-63496821D01*
X64860023Y-63657244D01*
X64781005Y-63805078D01*
X64674659Y-63934659D01*
X64545078Y-64041005D01*
X64397244Y-64120023D01*
X64397241Y-64120024D01*
X64397239Y-64120025D01*
X64236825Y-64168686D01*
X64236824Y-64168686D01*
X64236821Y-64168687D01*
X64111804Y-64181000D01*
X64028196Y-64181000D01*
X63903179Y-64168687D01*
X63903176Y-64168686D01*
X63903175Y-64168686D01*
X63742761Y-64120025D01*
X63742759Y-64120024D01*
X63742756Y-64120023D01*
X63594922Y-64041005D01*
X63465341Y-63934659D01*
X63358995Y-63805078D01*
X63279977Y-63657244D01*
X63231313Y-63496821D01*
X63214883Y-63330000D01*
X63231313Y-63163179D01*
X63279977Y-63002756D01*
X63358995Y-62854922D01*
X63465341Y-62725341D01*
X63594922Y-62618995D01*
X63742756Y-62539977D01*
X63742759Y-62539976D01*
X63742761Y-62539975D01*
X63903175Y-62491314D01*
X63903176Y-62491314D01*
X63903179Y-62491313D01*
X64028196Y-62479000D01*
X64111804Y-62479000D01*
X64236821Y-62491313D01*
X64236821Y-62491313D01*
G37*
G36*
X61696821Y-62491313D02*
X61696824Y-62491314D01*
X61696825Y-62491314D01*
X61857239Y-62539975D01*
X61857241Y-62539976D01*
X61857244Y-62539977D01*
X62005078Y-62618995D01*
X62134659Y-62725341D01*
X62241005Y-62854922D01*
X62320023Y-63002756D01*
X62368687Y-63163179D01*
X62385117Y-63330000D01*
X62368687Y-63496821D01*
X62320023Y-63657244D01*
X62241005Y-63805078D01*
X62134659Y-63934659D01*
X62005078Y-64041005D01*
X61857244Y-64120023D01*
X61857241Y-64120024D01*
X61857239Y-64120025D01*
X61696825Y-64168686D01*
X61696824Y-64168686D01*
X61696821Y-64168687D01*
X61571804Y-64181000D01*
X61488196Y-64181000D01*
X61363179Y-64168687D01*
X61363176Y-64168686D01*
X61363175Y-64168686D01*
X61202761Y-64120025D01*
X61202759Y-64120024D01*
X61202756Y-64120023D01*
X61054922Y-64041005D01*
X60925341Y-63934659D01*
X60818995Y-63805078D01*
X60739977Y-63657244D01*
X60691313Y-63496821D01*
X60674883Y-63330000D01*
X60691313Y-63163179D01*
X60739977Y-63002756D01*
X60818995Y-62854922D01*
X60925341Y-62725341D01*
X61054922Y-62618995D01*
X61202756Y-62539977D01*
X61202759Y-62539976D01*
X61202761Y-62539975D01*
X61363175Y-62491314D01*
X61363176Y-62491314D01*
X61363179Y-62491313D01*
X61488196Y-62479000D01*
X61571804Y-62479000D01*
X61696821Y-62491313D01*
X61696821Y-62491313D01*
G37*
G36*
X59156821Y-62491313D02*
X59156824Y-62491314D01*
X59156825Y-62491314D01*
X59317239Y-62539975D01*
X59317241Y-62539976D01*
X59317244Y-62539977D01*
X59465078Y-62618995D01*
X59594659Y-62725341D01*
X59701005Y-62854922D01*
X59780023Y-63002756D01*
X59828687Y-63163179D01*
X59845117Y-63330000D01*
X59828687Y-63496821D01*
X59780023Y-63657244D01*
X59701005Y-63805078D01*
X59594659Y-63934659D01*
X59465078Y-64041005D01*
X59317244Y-64120023D01*
X59317241Y-64120024D01*
X59317239Y-64120025D01*
X59156825Y-64168686D01*
X59156824Y-64168686D01*
X59156821Y-64168687D01*
X59031804Y-64181000D01*
X58948196Y-64181000D01*
X58823179Y-64168687D01*
X58823176Y-64168686D01*
X58823175Y-64168686D01*
X58662761Y-64120025D01*
X58662759Y-64120024D01*
X58662756Y-64120023D01*
X58514922Y-64041005D01*
X58385341Y-63934659D01*
X58278995Y-63805078D01*
X58199977Y-63657244D01*
X58151313Y-63496821D01*
X58134883Y-63330000D01*
X58151313Y-63163179D01*
X58199977Y-63002756D01*
X58278995Y-62854922D01*
X58385341Y-62725341D01*
X58514922Y-62618995D01*
X58662756Y-62539977D01*
X58662759Y-62539976D01*
X58662761Y-62539975D01*
X58823175Y-62491314D01*
X58823176Y-62491314D01*
X58823179Y-62491313D01*
X58948196Y-62479000D01*
X59031804Y-62479000D01*
X59156821Y-62491313D01*
X59156821Y-62491313D01*
G37*
G36*
X56616821Y-62491313D02*
X56616824Y-62491314D01*
X56616825Y-62491314D01*
X56777239Y-62539975D01*
X56777241Y-62539976D01*
X56777244Y-62539977D01*
X56925078Y-62618995D01*
X57054659Y-62725341D01*
X57161005Y-62854922D01*
X57240023Y-63002756D01*
X57288687Y-63163179D01*
X57305117Y-63330000D01*
X57288687Y-63496821D01*
X57240023Y-63657244D01*
X57161005Y-63805078D01*
X57054659Y-63934659D01*
X56925078Y-64041005D01*
X56777244Y-64120023D01*
X56777241Y-64120024D01*
X56777239Y-64120025D01*
X56616825Y-64168686D01*
X56616824Y-64168686D01*
X56616821Y-64168687D01*
X56491804Y-64181000D01*
X56408196Y-64181000D01*
X56283179Y-64168687D01*
X56283176Y-64168686D01*
X56283175Y-64168686D01*
X56122761Y-64120025D01*
X56122759Y-64120024D01*
X56122756Y-64120023D01*
X55974922Y-64041005D01*
X55845341Y-63934659D01*
X55738995Y-63805078D01*
X55659977Y-63657244D01*
X55611313Y-63496821D01*
X55594883Y-63330000D01*
X55611313Y-63163179D01*
X55659977Y-63002756D01*
X55738995Y-62854922D01*
X55845341Y-62725341D01*
X55974922Y-62618995D01*
X56122756Y-62539977D01*
X56122759Y-62539976D01*
X56122761Y-62539975D01*
X56283175Y-62491314D01*
X56283176Y-62491314D01*
X56283179Y-62491313D01*
X56408196Y-62479000D01*
X56491804Y-62479000D01*
X56616821Y-62491313D01*
X56616821Y-62491313D01*
G37*
G36*
X72551000Y-62351000D02*
X70449000Y-62351000D01*
X70449000Y-60249000D01*
X72551000Y-60249000D01*
X72551000Y-62351000D01*
X72551000Y-62351000D01*
G37*
G36*
X47453567Y-59654959D02*
X47584072Y-59680918D01*
X47829939Y-59782759D01*
X47956790Y-59867519D01*
X48051215Y-59930612D01*
X48239388Y-60118785D01*
X48239390Y-60118788D01*
X48387241Y-60340061D01*
X48489082Y-60585928D01*
X48541000Y-60846938D01*
X48541000Y-61113062D01*
X48489082Y-61374072D01*
X48387241Y-61619939D01*
X48239890Y-61840464D01*
X48239388Y-61841215D01*
X48051215Y-62029388D01*
X48051212Y-62029390D01*
X47829939Y-62177241D01*
X47584072Y-62279082D01*
X47453567Y-62305041D01*
X47323063Y-62331000D01*
X47056937Y-62331000D01*
X46926433Y-62305041D01*
X46795928Y-62279082D01*
X46550061Y-62177241D01*
X46328788Y-62029390D01*
X46328785Y-62029388D01*
X46140612Y-61841215D01*
X46140110Y-61840464D01*
X45992759Y-61619939D01*
X45890918Y-61374072D01*
X45839000Y-61113062D01*
X45839000Y-60846938D01*
X45890918Y-60585928D01*
X45992759Y-60340061D01*
X46140610Y-60118788D01*
X46140612Y-60118785D01*
X46328785Y-59930612D01*
X46423210Y-59867519D01*
X46550061Y-59782759D01*
X46795928Y-59680918D01*
X46926433Y-59654959D01*
X47056937Y-59629000D01*
X47323063Y-59629000D01*
X47453567Y-59654959D01*
X47453567Y-59654959D01*
G37*
G36*
X65136821Y-59571313D02*
X65136824Y-59571314D01*
X65136825Y-59571314D01*
X65297239Y-59619975D01*
X65297241Y-59619976D01*
X65297244Y-59619977D01*
X65445078Y-59698995D01*
X65574659Y-59805341D01*
X65681005Y-59934922D01*
X65760023Y-60082756D01*
X65760024Y-60082759D01*
X65760025Y-60082761D01*
X65808686Y-60243175D01*
X65808687Y-60243179D01*
X65825117Y-60410000D01*
X65808687Y-60576821D01*
X65808686Y-60576824D01*
X65808686Y-60576825D01*
X65783993Y-60658228D01*
X65760023Y-60737244D01*
X65681005Y-60885078D01*
X65574659Y-61014659D01*
X65445078Y-61121005D01*
X65297244Y-61200023D01*
X65297241Y-61200024D01*
X65297239Y-61200025D01*
X65136825Y-61248686D01*
X65136824Y-61248686D01*
X65136821Y-61248687D01*
X65011804Y-61261000D01*
X64928196Y-61261000D01*
X64803179Y-61248687D01*
X64803176Y-61248686D01*
X64803175Y-61248686D01*
X64642761Y-61200025D01*
X64642759Y-61200024D01*
X64642756Y-61200023D01*
X64494922Y-61121005D01*
X64365341Y-61014659D01*
X64258995Y-60885078D01*
X64179977Y-60737244D01*
X64156008Y-60658228D01*
X64131314Y-60576825D01*
X64131314Y-60576824D01*
X64131313Y-60576821D01*
X64114883Y-60410000D01*
X64131313Y-60243179D01*
X64131314Y-60243175D01*
X64179975Y-60082761D01*
X64179976Y-60082759D01*
X64179977Y-60082756D01*
X64258995Y-59934922D01*
X64365341Y-59805341D01*
X64494922Y-59698995D01*
X64642756Y-59619977D01*
X64642759Y-59619976D01*
X64642761Y-59619975D01*
X64803175Y-59571314D01*
X64803176Y-59571314D01*
X64803179Y-59571313D01*
X64928196Y-59559000D01*
X65011804Y-59559000D01*
X65136821Y-59571313D01*
X65136821Y-59571313D01*
G37*
G36*
X55058228Y-59591703D02*
X55213100Y-59655853D01*
X55352481Y-59748985D01*
X55471015Y-59867519D01*
X55564147Y-60006900D01*
X55628297Y-60161772D01*
X55661000Y-60326184D01*
X55661000Y-60493816D01*
X55628297Y-60658228D01*
X55564147Y-60813100D01*
X55471015Y-60952481D01*
X55352481Y-61071015D01*
X55213100Y-61164147D01*
X55058228Y-61228297D01*
X54893816Y-61261000D01*
X54726184Y-61261000D01*
X54561772Y-61228297D01*
X54406900Y-61164147D01*
X54267519Y-61071015D01*
X54148985Y-60952481D01*
X54055853Y-60813100D01*
X53991703Y-60658228D01*
X53959000Y-60493816D01*
X53959000Y-60326184D01*
X53991703Y-60161772D01*
X54055853Y-60006900D01*
X54148985Y-59867519D01*
X54267519Y-59748985D01*
X54406900Y-59655853D01*
X54561772Y-59591703D01*
X54726184Y-59559000D01*
X54893816Y-59559000D01*
X55058228Y-59591703D01*
X55058228Y-59591703D01*
G37*
G36*
X79126821Y-56611313D02*
X79126824Y-56611314D01*
X79126825Y-56611314D01*
X79287239Y-56659975D01*
X79287241Y-56659976D01*
X79287244Y-56659977D01*
X79435078Y-56738995D01*
X79564659Y-56845341D01*
X79671005Y-56974922D01*
X79750023Y-57122756D01*
X79798687Y-57283179D01*
X79815117Y-57450000D01*
X79798687Y-57616821D01*
X79750023Y-57777244D01*
X79671005Y-57925078D01*
X79564659Y-58054659D01*
X79435078Y-58161005D01*
X79287244Y-58240023D01*
X79287241Y-58240024D01*
X79287239Y-58240025D01*
X79126825Y-58288686D01*
X79126824Y-58288686D01*
X79126821Y-58288687D01*
X79001804Y-58301000D01*
X78918196Y-58301000D01*
X78793179Y-58288687D01*
X78793176Y-58288686D01*
X78793175Y-58288686D01*
X78632761Y-58240025D01*
X78632759Y-58240024D01*
X78632756Y-58240023D01*
X78484922Y-58161005D01*
X78355341Y-58054659D01*
X78248995Y-57925078D01*
X78169977Y-57777244D01*
X78121313Y-57616821D01*
X78104883Y-57450000D01*
X78121313Y-57283179D01*
X78169977Y-57122756D01*
X78248995Y-56974922D01*
X78355341Y-56845341D01*
X78484922Y-56738995D01*
X78632756Y-56659977D01*
X78632759Y-56659976D01*
X78632761Y-56659975D01*
X78793175Y-56611314D01*
X78793176Y-56611314D01*
X78793179Y-56611313D01*
X78918196Y-56599000D01*
X79001804Y-56599000D01*
X79126821Y-56611313D01*
X79126821Y-56611313D01*
G37*
G36*
X81666821Y-56611313D02*
X81666824Y-56611314D01*
X81666825Y-56611314D01*
X81827239Y-56659975D01*
X81827241Y-56659976D01*
X81827244Y-56659977D01*
X81975078Y-56738995D01*
X82104659Y-56845341D01*
X82211005Y-56974922D01*
X82290023Y-57122756D01*
X82338687Y-57283179D01*
X82355117Y-57450000D01*
X82338687Y-57616821D01*
X82290023Y-57777244D01*
X82211005Y-57925078D01*
X82104659Y-58054659D01*
X81975078Y-58161005D01*
X81827244Y-58240023D01*
X81827241Y-58240024D01*
X81827239Y-58240025D01*
X81666825Y-58288686D01*
X81666824Y-58288686D01*
X81666821Y-58288687D01*
X81541804Y-58301000D01*
X81458196Y-58301000D01*
X81333179Y-58288687D01*
X81333176Y-58288686D01*
X81333175Y-58288686D01*
X81172761Y-58240025D01*
X81172759Y-58240024D01*
X81172756Y-58240023D01*
X81024922Y-58161005D01*
X80895341Y-58054659D01*
X80788995Y-57925078D01*
X80709977Y-57777244D01*
X80661313Y-57616821D01*
X80644883Y-57450000D01*
X80661313Y-57283179D01*
X80709977Y-57122756D01*
X80788995Y-56974922D01*
X80895341Y-56845341D01*
X81024922Y-56738995D01*
X81172756Y-56659977D01*
X81172759Y-56659976D01*
X81172761Y-56659975D01*
X81333175Y-56611314D01*
X81333176Y-56611314D01*
X81333179Y-56611313D01*
X81458196Y-56599000D01*
X81541804Y-56599000D01*
X81666821Y-56611313D01*
X81666821Y-56611313D01*
G37*
G36*
X84206821Y-56611313D02*
X84206824Y-56611314D01*
X84206825Y-56611314D01*
X84367239Y-56659975D01*
X84367241Y-56659976D01*
X84367244Y-56659977D01*
X84515078Y-56738995D01*
X84644659Y-56845341D01*
X84751005Y-56974922D01*
X84830023Y-57122756D01*
X84878687Y-57283179D01*
X84895117Y-57450000D01*
X84878687Y-57616821D01*
X84830023Y-57777244D01*
X84751005Y-57925078D01*
X84644659Y-58054659D01*
X84515078Y-58161005D01*
X84367244Y-58240023D01*
X84367241Y-58240024D01*
X84367239Y-58240025D01*
X84206825Y-58288686D01*
X84206824Y-58288686D01*
X84206821Y-58288687D01*
X84081804Y-58301000D01*
X83998196Y-58301000D01*
X83873179Y-58288687D01*
X83873176Y-58288686D01*
X83873175Y-58288686D01*
X83712761Y-58240025D01*
X83712759Y-58240024D01*
X83712756Y-58240023D01*
X83564922Y-58161005D01*
X83435341Y-58054659D01*
X83328995Y-57925078D01*
X83249977Y-57777244D01*
X83201313Y-57616821D01*
X83184883Y-57450000D01*
X83201313Y-57283179D01*
X83249977Y-57122756D01*
X83328995Y-56974922D01*
X83435341Y-56845341D01*
X83564922Y-56738995D01*
X83712756Y-56659977D01*
X83712759Y-56659976D01*
X83712761Y-56659975D01*
X83873175Y-56611314D01*
X83873176Y-56611314D01*
X83873179Y-56611313D01*
X83998196Y-56599000D01*
X84081804Y-56599000D01*
X84206821Y-56611313D01*
X84206821Y-56611313D01*
G37*
G36*
X86746821Y-56611313D02*
X86746824Y-56611314D01*
X86746825Y-56611314D01*
X86907239Y-56659975D01*
X86907241Y-56659976D01*
X86907244Y-56659977D01*
X87055078Y-56738995D01*
X87184659Y-56845341D01*
X87291005Y-56974922D01*
X87370023Y-57122756D01*
X87418687Y-57283179D01*
X87435117Y-57450000D01*
X87418687Y-57616821D01*
X87370023Y-57777244D01*
X87291005Y-57925078D01*
X87184659Y-58054659D01*
X87055078Y-58161005D01*
X86907244Y-58240023D01*
X86907241Y-58240024D01*
X86907239Y-58240025D01*
X86746825Y-58288686D01*
X86746824Y-58288686D01*
X86746821Y-58288687D01*
X86621804Y-58301000D01*
X86538196Y-58301000D01*
X86413179Y-58288687D01*
X86413176Y-58288686D01*
X86413175Y-58288686D01*
X86252761Y-58240025D01*
X86252759Y-58240024D01*
X86252756Y-58240023D01*
X86104922Y-58161005D01*
X85975341Y-58054659D01*
X85868995Y-57925078D01*
X85789977Y-57777244D01*
X85741313Y-57616821D01*
X85724883Y-57450000D01*
X85741313Y-57283179D01*
X85789977Y-57122756D01*
X85868995Y-56974922D01*
X85975341Y-56845341D01*
X86104922Y-56738995D01*
X86252756Y-56659977D01*
X86252759Y-56659976D01*
X86252761Y-56659975D01*
X86413175Y-56611314D01*
X86413176Y-56611314D01*
X86413179Y-56611313D01*
X86538196Y-56599000D01*
X86621804Y-56599000D01*
X86746821Y-56611313D01*
X86746821Y-56611313D01*
G37*
G36*
X76401000Y-57951000D02*
X74599000Y-57951000D01*
X74599000Y-56149000D01*
X76401000Y-56149000D01*
X76401000Y-57951000D01*
X76401000Y-57951000D01*
G37*
G36*
X65601000Y-57921000D02*
X63799000Y-57921000D01*
X63799000Y-56119000D01*
X65601000Y-56119000D01*
X65601000Y-57921000D01*
X65601000Y-57921000D01*
G37*
G36*
X69970256Y-53741298D02*
X70076579Y-53762447D01*
X70377042Y-53886903D01*
X70643852Y-54065180D01*
X70647454Y-54067587D01*
X70877413Y-54297546D01*
X71058098Y-54567960D01*
X71182553Y-54868422D01*
X71246000Y-55187389D01*
X71246000Y-55512611D01*
X71182553Y-55831578D01*
X71058098Y-56132040D01*
X70877413Y-56402454D01*
X70647454Y-56632413D01*
X70647451Y-56632415D01*
X70377042Y-56813097D01*
X70076579Y-56937553D01*
X69970256Y-56958702D01*
X69757611Y-57001000D01*
X69432389Y-57001000D01*
X69219744Y-56958702D01*
X69113421Y-56937553D01*
X68812958Y-56813097D01*
X68542549Y-56632415D01*
X68542546Y-56632413D01*
X68312587Y-56402454D01*
X68131902Y-56132040D01*
X68007447Y-55831578D01*
X67944000Y-55512611D01*
X67944000Y-55187389D01*
X68007447Y-54868422D01*
X68131902Y-54567960D01*
X68312587Y-54297546D01*
X68542546Y-54067587D01*
X68546148Y-54065180D01*
X68812958Y-53886903D01*
X69113421Y-53762447D01*
X69219744Y-53741298D01*
X69432389Y-53699000D01*
X69757611Y-53699000D01*
X69970256Y-53741298D01*
X69970256Y-53741298D01*
G37*
G36*
X49470256Y-53741298D02*
X49576579Y-53762447D01*
X49877042Y-53886903D01*
X50143852Y-54065180D01*
X50147454Y-54067587D01*
X50377413Y-54297546D01*
X50558098Y-54567960D01*
X50682553Y-54868422D01*
X50746000Y-55187389D01*
X50746000Y-55512611D01*
X50682553Y-55831578D01*
X50558098Y-56132040D01*
X50377413Y-56402454D01*
X50147454Y-56632413D01*
X50147451Y-56632415D01*
X49877042Y-56813097D01*
X49576579Y-56937553D01*
X49470256Y-56958702D01*
X49257611Y-57001000D01*
X48932389Y-57001000D01*
X48719744Y-56958702D01*
X48613421Y-56937553D01*
X48312958Y-56813097D01*
X48042549Y-56632415D01*
X48042546Y-56632413D01*
X47812587Y-56402454D01*
X47631902Y-56132040D01*
X47507447Y-55831578D01*
X47444000Y-55512611D01*
X47444000Y-55187389D01*
X47507447Y-54868422D01*
X47631902Y-54567960D01*
X47812587Y-54297546D01*
X48042546Y-54067587D01*
X48046148Y-54065180D01*
X48312958Y-53886903D01*
X48613421Y-53762447D01*
X48719744Y-53741298D01*
X48932389Y-53699000D01*
X49257611Y-53699000D01*
X49470256Y-53741298D01*
X49470256Y-53741298D01*
G37*
G36*
X79166136Y-44318253D02*
X79257312Y-44356019D01*
X79339372Y-44410850D01*
X79409150Y-44480628D01*
X79463981Y-44562688D01*
X79501747Y-44653864D01*
X79521000Y-44750656D01*
X79521000Y-44849344D01*
X79501747Y-44946136D01*
X79463981Y-45037312D01*
X79409150Y-45119372D01*
X79339372Y-45189150D01*
X79257312Y-45243981D01*
X79166136Y-45281747D01*
X79069344Y-45301000D01*
X78970656Y-45301000D01*
X78873864Y-45281747D01*
X78782688Y-45243981D01*
X78700628Y-45189150D01*
X78630850Y-45119372D01*
X78576019Y-45037312D01*
X78538253Y-44946136D01*
X78519000Y-44849344D01*
X78519000Y-44750656D01*
X78538253Y-44653864D01*
X78576019Y-44562688D01*
X78630850Y-44480628D01*
X78700628Y-44410850D01*
X78782688Y-44356019D01*
X78873864Y-44318253D01*
X78970656Y-44299000D01*
X79069344Y-44299000D01*
X79166136Y-44318253D01*
X79166136Y-44318253D01*
G37*
G36*
X79166136Y-39918253D02*
X79257312Y-39956019D01*
X79339372Y-40010850D01*
X79409150Y-40080628D01*
X79463981Y-40162688D01*
X79501747Y-40253864D01*
X79521000Y-40350656D01*
X79521000Y-40449344D01*
X79501747Y-40546136D01*
X79463981Y-40637312D01*
X79409150Y-40719372D01*
X79339372Y-40789150D01*
X79257312Y-40843981D01*
X79166136Y-40881747D01*
X79069344Y-40901000D01*
X78970656Y-40901000D01*
X78873864Y-40881747D01*
X78782688Y-40843981D01*
X78700628Y-40789150D01*
X78630850Y-40719372D01*
X78576019Y-40637312D01*
X78538253Y-40546136D01*
X78519000Y-40449344D01*
X78519000Y-40350656D01*
X78538253Y-40253864D01*
X78576019Y-40162688D01*
X78630850Y-40080628D01*
X78700628Y-40010850D01*
X78782688Y-39956019D01*
X78873864Y-39918253D01*
X78970656Y-39899000D01*
X79069344Y-39899000D01*
X79166136Y-39918253D01*
X79166136Y-39918253D01*
G37*
G36*
X34937000Y-39255000D02*
X33135000Y-39255000D01*
X33135000Y-37453000D01*
X34937000Y-37453000D01*
X34937000Y-39255000D01*
X34937000Y-39255000D01*
G37*
G36*
X57145614Y-33491245D02*
X57157748Y-33493045D01*
X57224572Y-33499626D01*
X57322414Y-33529307D01*
X57412591Y-33577507D01*
X57491628Y-33642372D01*
X57556493Y-33721409D01*
X57604693Y-33811586D01*
X57634374Y-33909428D01*
X57645000Y-34017324D01*
X57645000Y-34562676D01*
X57634374Y-34670572D01*
X57604693Y-34768414D01*
X57556493Y-34858591D01*
X57491628Y-34937628D01*
X57412591Y-35002493D01*
X57322414Y-35050693D01*
X57224572Y-35080374D01*
X57157748Y-35086955D01*
X57137410Y-35091000D01*
X54049787Y-35091000D01*
X54042386Y-35088755D01*
X54030252Y-35086955D01*
X53963428Y-35080374D01*
X53865586Y-35050693D01*
X53775409Y-35002493D01*
X53696372Y-34937628D01*
X53631507Y-34858591D01*
X53583307Y-34768414D01*
X53553626Y-34670572D01*
X53543000Y-34562676D01*
X53543000Y-34017324D01*
X53553626Y-33909428D01*
X53583307Y-33811586D01*
X53631507Y-33721409D01*
X53696372Y-33642372D01*
X53775409Y-33577507D01*
X53865586Y-33529307D01*
X53963428Y-33499626D01*
X54030252Y-33493045D01*
X54050590Y-33489000D01*
X57138213Y-33489000D01*
X57145614Y-33491245D01*
X57145614Y-33491245D01*
G37*
G36*
X61717614Y-33491245D02*
X61729748Y-33493045D01*
X61796572Y-33499626D01*
X61894414Y-33529307D01*
X61984591Y-33577507D01*
X62063628Y-33642372D01*
X62128493Y-33721409D01*
X62176693Y-33811586D01*
X62206374Y-33909428D01*
X62217000Y-34017324D01*
X62217000Y-34562676D01*
X62206374Y-34670572D01*
X62176693Y-34768414D01*
X62128493Y-34858591D01*
X62063628Y-34937628D01*
X61984591Y-35002493D01*
X61894414Y-35050693D01*
X61796572Y-35080374D01*
X61729748Y-35086955D01*
X61709410Y-35091000D01*
X58621787Y-35091000D01*
X58614386Y-35088755D01*
X58602252Y-35086955D01*
X58535428Y-35080374D01*
X58437586Y-35050693D01*
X58347409Y-35002493D01*
X58268372Y-34937628D01*
X58203507Y-34858591D01*
X58155307Y-34768414D01*
X58125626Y-34670572D01*
X58115000Y-34562676D01*
X58115000Y-34017324D01*
X58125626Y-33909428D01*
X58155307Y-33811586D01*
X58203507Y-33721409D01*
X58268372Y-33642372D01*
X58347409Y-33577507D01*
X58437586Y-33529307D01*
X58535428Y-33499626D01*
X58602252Y-33493045D01*
X58622590Y-33489000D01*
X61710213Y-33489000D01*
X61717614Y-33491245D01*
X61717614Y-33491245D01*
G37*
G36*
X49470256Y-30741298D02*
X49576579Y-30762447D01*
X49877042Y-30886903D01*
X50101677Y-31037000D01*
X50147454Y-31067587D01*
X50377413Y-31297546D01*
X50377415Y-31297549D01*
X50558097Y-31567958D01*
X50682553Y-31868421D01*
X50694817Y-31930075D01*
X50746000Y-32187389D01*
X50746000Y-32512611D01*
X50710821Y-32689468D01*
X50682553Y-32831579D01*
X50654212Y-32900000D01*
X50559957Y-33127553D01*
X50558097Y-33132042D01*
X50481641Y-33246466D01*
X50377413Y-33402454D01*
X50147454Y-33632413D01*
X50147451Y-33632415D01*
X49877042Y-33813097D01*
X49576579Y-33937553D01*
X49470256Y-33958702D01*
X49257611Y-34001000D01*
X48932389Y-34001000D01*
X48719744Y-33958702D01*
X48613421Y-33937553D01*
X48312958Y-33813097D01*
X48042549Y-33632415D01*
X48042546Y-33632413D01*
X47812587Y-33402454D01*
X47708359Y-33246466D01*
X47631903Y-33132042D01*
X47630044Y-33127553D01*
X47535788Y-32900000D01*
X47507447Y-32831579D01*
X47479179Y-32689468D01*
X47444000Y-32512611D01*
X47444000Y-32187389D01*
X47495183Y-31930075D01*
X47507447Y-31868421D01*
X47631903Y-31567958D01*
X47812585Y-31297549D01*
X47812587Y-31297546D01*
X48042546Y-31067587D01*
X48088323Y-31037000D01*
X48312958Y-30886903D01*
X48613421Y-30762447D01*
X48719744Y-30741298D01*
X48932389Y-30699000D01*
X49257611Y-30699000D01*
X49470256Y-30741298D01*
X49470256Y-30741298D01*
G37*
G36*
X69970256Y-30741298D02*
X70076579Y-30762447D01*
X70377042Y-30886903D01*
X70601677Y-31037000D01*
X70647454Y-31067587D01*
X70877413Y-31297546D01*
X70877415Y-31297549D01*
X71058097Y-31567958D01*
X71182553Y-31868421D01*
X71194817Y-31930075D01*
X71246000Y-32187389D01*
X71246000Y-32512611D01*
X71210821Y-32689468D01*
X71182553Y-32831579D01*
X71154212Y-32900000D01*
X71059957Y-33127553D01*
X71058097Y-33132042D01*
X70981641Y-33246466D01*
X70877413Y-33402454D01*
X70647454Y-33632413D01*
X70647451Y-33632415D01*
X70377042Y-33813097D01*
X70076579Y-33937553D01*
X69970256Y-33958702D01*
X69757611Y-34001000D01*
X69432389Y-34001000D01*
X69219744Y-33958702D01*
X69113421Y-33937553D01*
X68812958Y-33813097D01*
X68542549Y-33632415D01*
X68542546Y-33632413D01*
X68312587Y-33402454D01*
X68208359Y-33246466D01*
X68131903Y-33132042D01*
X68130044Y-33127553D01*
X68035788Y-32900000D01*
X68007447Y-32831579D01*
X67979179Y-32689468D01*
X67944000Y-32512611D01*
X67944000Y-32187389D01*
X67995183Y-31930075D01*
X68007447Y-31868421D01*
X68131903Y-31567958D01*
X68312585Y-31297549D01*
X68312587Y-31297546D01*
X68542546Y-31067587D01*
X68588323Y-31037000D01*
X68812958Y-30886903D01*
X69113421Y-30762447D01*
X69219744Y-30741298D01*
X69432389Y-30699000D01*
X69757611Y-30699000D01*
X69970256Y-30741298D01*
X69970256Y-30741298D01*
G37*
G36*
X39351000Y-33801000D02*
X37549000Y-33801000D01*
X37549000Y-31999000D01*
X39351000Y-31999000D01*
X39351000Y-33801000D01*
X39351000Y-33801000D01*
G37*
G36*
X41100442Y-32005518D02*
X41166627Y-32012037D01*
X41231048Y-32031579D01*
X41336467Y-32063557D01*
X41475087Y-32137652D01*
X41492991Y-32147222D01*
X41528729Y-32176552D01*
X41630186Y-32259814D01*
X41681254Y-32322042D01*
X41742778Y-32397009D01*
X41742779Y-32397011D01*
X41826443Y-32553533D01*
X41831581Y-32570471D01*
X41877963Y-32723373D01*
X41895359Y-32900000D01*
X41877963Y-33076627D01*
X41861153Y-33132042D01*
X41826443Y-33246467D01*
X41752348Y-33385087D01*
X41742778Y-33402991D01*
X41713448Y-33438729D01*
X41630186Y-33540186D01*
X41528729Y-33623448D01*
X41492991Y-33652778D01*
X41492989Y-33652779D01*
X41336467Y-33736443D01*
X41279853Y-33753616D01*
X41166627Y-33787963D01*
X41100442Y-33794482D01*
X41034260Y-33801000D01*
X40945740Y-33801000D01*
X40879558Y-33794482D01*
X40813373Y-33787963D01*
X40700147Y-33753616D01*
X40643533Y-33736443D01*
X40487011Y-33652779D01*
X40487009Y-33652778D01*
X40451271Y-33623448D01*
X40349814Y-33540186D01*
X40266552Y-33438729D01*
X40237222Y-33402991D01*
X40227652Y-33385087D01*
X40153557Y-33246467D01*
X40118847Y-33132042D01*
X40102037Y-33076627D01*
X40084641Y-32900000D01*
X40102037Y-32723373D01*
X40148419Y-32570471D01*
X40153557Y-32553533D01*
X40237221Y-32397011D01*
X40237222Y-32397009D01*
X40298746Y-32322042D01*
X40349814Y-32259814D01*
X40451271Y-32176552D01*
X40487009Y-32147222D01*
X40504913Y-32137652D01*
X40643533Y-32063557D01*
X40748952Y-32031579D01*
X40813373Y-32012037D01*
X40879558Y-32005518D01*
X40945740Y-31999000D01*
X41034260Y-31999000D01*
X41100442Y-32005518D01*
X41100442Y-32005518D01*
G37*
G36*
X43640442Y-32005518D02*
X43706627Y-32012037D01*
X43771048Y-32031579D01*
X43876467Y-32063557D01*
X44015087Y-32137652D01*
X44032991Y-32147222D01*
X44068729Y-32176552D01*
X44170186Y-32259814D01*
X44221254Y-32322042D01*
X44282778Y-32397009D01*
X44282779Y-32397011D01*
X44366443Y-32553533D01*
X44371581Y-32570471D01*
X44417963Y-32723373D01*
X44435359Y-32900000D01*
X44417963Y-33076627D01*
X44401153Y-33132042D01*
X44366443Y-33246467D01*
X44292348Y-33385087D01*
X44282778Y-33402991D01*
X44253448Y-33438729D01*
X44170186Y-33540186D01*
X44068729Y-33623448D01*
X44032991Y-33652778D01*
X44032989Y-33652779D01*
X43876467Y-33736443D01*
X43819853Y-33753616D01*
X43706627Y-33787963D01*
X43640442Y-33794482D01*
X43574260Y-33801000D01*
X43485740Y-33801000D01*
X43419558Y-33794482D01*
X43353373Y-33787963D01*
X43240147Y-33753616D01*
X43183533Y-33736443D01*
X43027011Y-33652779D01*
X43027009Y-33652778D01*
X42991271Y-33623448D01*
X42889814Y-33540186D01*
X42806552Y-33438729D01*
X42777222Y-33402991D01*
X42767652Y-33385087D01*
X42693557Y-33246467D01*
X42658847Y-33132042D01*
X42642037Y-33076627D01*
X42624641Y-32900000D01*
X42642037Y-32723373D01*
X42688419Y-32570471D01*
X42693557Y-32553533D01*
X42777221Y-32397011D01*
X42777222Y-32397009D01*
X42838746Y-32322042D01*
X42889814Y-32259814D01*
X42991271Y-32176552D01*
X43027009Y-32147222D01*
X43044913Y-32137652D01*
X43183533Y-32063557D01*
X43288952Y-32031579D01*
X43353373Y-32012037D01*
X43419558Y-32005518D01*
X43485740Y-31999000D01*
X43574260Y-31999000D01*
X43640442Y-32005518D01*
X43640442Y-32005518D01*
G37*
G36*
X32645256Y-29941298D02*
X32751579Y-29962447D01*
X32801234Y-29983015D01*
X33027898Y-30076902D01*
X33052042Y-30086903D01*
X33195259Y-30182598D01*
X33322454Y-30267587D01*
X33552413Y-30497546D01*
X33552415Y-30497549D01*
X33733097Y-30767958D01*
X33857479Y-31068242D01*
X33857553Y-31068422D01*
X33921000Y-31387389D01*
X33921000Y-31712611D01*
X33888447Y-31876263D01*
X33857553Y-32031579D01*
X33733097Y-32332042D01*
X33719017Y-32353114D01*
X33552413Y-32602454D01*
X33322454Y-32832413D01*
X33322451Y-32832415D01*
X33052042Y-33013097D01*
X32751579Y-33137553D01*
X32645256Y-33158702D01*
X32432611Y-33201000D01*
X32107389Y-33201000D01*
X31894744Y-33158702D01*
X31788421Y-33137553D01*
X31487958Y-33013097D01*
X31217549Y-32832415D01*
X31217546Y-32832413D01*
X30987587Y-32602454D01*
X30820983Y-32353114D01*
X30806903Y-32332042D01*
X30682447Y-32031579D01*
X30651553Y-31876263D01*
X30619000Y-31712611D01*
X30619000Y-31387389D01*
X30682447Y-31068422D01*
X30682522Y-31068242D01*
X30806903Y-30767958D01*
X30987585Y-30497549D01*
X30987587Y-30497546D01*
X31217546Y-30267587D01*
X31344741Y-30182598D01*
X31487958Y-30086903D01*
X31512103Y-30076902D01*
X31738766Y-29983015D01*
X31788421Y-29962447D01*
X31894744Y-29941298D01*
X32107389Y-29899000D01*
X32432611Y-29899000D01*
X32645256Y-29941298D01*
X32645256Y-29941298D01*
G37*
G36*
X86495256Y-29931298D02*
X86601579Y-29952447D01*
X86902042Y-30076903D01*
X86917008Y-30086903D01*
X87172454Y-30257587D01*
X87402413Y-30487546D01*
X87583098Y-30757960D01*
X87587239Y-30767958D01*
X87707553Y-31058421D01*
X87709507Y-31068243D01*
X87771000Y-31377389D01*
X87771000Y-31702611D01*
X87759248Y-31761690D01*
X87707553Y-32021579D01*
X87583097Y-32322042D01*
X87435027Y-32543644D01*
X87402413Y-32592454D01*
X87172454Y-32822413D01*
X87172451Y-32822415D01*
X86902042Y-33003097D01*
X86902041Y-33003098D01*
X86902040Y-33003098D01*
X86814037Y-33039550D01*
X86601579Y-33127553D01*
X86495256Y-33148702D01*
X86282611Y-33191000D01*
X85957389Y-33191000D01*
X85744744Y-33148702D01*
X85638421Y-33127553D01*
X85425963Y-33039550D01*
X85337960Y-33003098D01*
X85337959Y-33003098D01*
X85337958Y-33003097D01*
X85067549Y-32822415D01*
X85067546Y-32822413D01*
X84837587Y-32592454D01*
X84804973Y-32543644D01*
X84656903Y-32322042D01*
X84532447Y-32021579D01*
X84480752Y-31761690D01*
X84469000Y-31702611D01*
X84469000Y-31377389D01*
X84530493Y-31068243D01*
X84532447Y-31058421D01*
X84652761Y-30767958D01*
X84656902Y-30757960D01*
X84837587Y-30487546D01*
X85067546Y-30257587D01*
X85322992Y-30086903D01*
X85337958Y-30076903D01*
X85638421Y-29952447D01*
X85744744Y-29931298D01*
X85957389Y-29889000D01*
X86282611Y-29889000D01*
X86495256Y-29931298D01*
X86495256Y-29931298D01*
G37*
G36*
X75103114Y-31731611D02*
X75202265Y-31761688D01*
X75293644Y-31810531D01*
X75373738Y-31876262D01*
X75439469Y-31956356D01*
X75488312Y-32047735D01*
X75518389Y-32146886D01*
X75528545Y-32250000D01*
X75518389Y-32353114D01*
X75488312Y-32452265D01*
X75439469Y-32543644D01*
X75373738Y-32623738D01*
X75293644Y-32689469D01*
X75202265Y-32738312D01*
X75103114Y-32768389D01*
X75025839Y-32776000D01*
X74674161Y-32776000D01*
X74596886Y-32768389D01*
X74497735Y-32738312D01*
X74406356Y-32689469D01*
X74326262Y-32623738D01*
X74260531Y-32543644D01*
X74211688Y-32452265D01*
X74181611Y-32353114D01*
X74171455Y-32250000D01*
X74181611Y-32146886D01*
X74211688Y-32047735D01*
X74260531Y-31956356D01*
X74326262Y-31876262D01*
X74406356Y-31810531D01*
X74497735Y-31761688D01*
X74596886Y-31731611D01*
X74674161Y-31724000D01*
X75025839Y-31724000D01*
X75103114Y-31731611D01*
X75103114Y-31731611D01*
G37*
G36*
X80103114Y-31731611D02*
X80202265Y-31761688D01*
X80293644Y-31810531D01*
X80373738Y-31876262D01*
X80439469Y-31956356D01*
X80488312Y-32047735D01*
X80518389Y-32146886D01*
X80528545Y-32250000D01*
X80518389Y-32353114D01*
X80488312Y-32452265D01*
X80439469Y-32543644D01*
X80373738Y-32623738D01*
X80293644Y-32689469D01*
X80202265Y-32738312D01*
X80103114Y-32768389D01*
X80025839Y-32776000D01*
X79674161Y-32776000D01*
X79596886Y-32768389D01*
X79497735Y-32738312D01*
X79406356Y-32689469D01*
X79326262Y-32623738D01*
X79260531Y-32543644D01*
X79211688Y-32452265D01*
X79181611Y-32353114D01*
X79171455Y-32250000D01*
X79181611Y-32146886D01*
X79211688Y-32047735D01*
X79260531Y-31956356D01*
X79326262Y-31876262D01*
X79406356Y-31810531D01*
X79497735Y-31761688D01*
X79596886Y-31731611D01*
X79674161Y-31724000D01*
X80025839Y-31724000D01*
X80103114Y-31731611D01*
X80103114Y-31731611D01*
G37*
G36*
X55772142Y-31068242D02*
X55920102Y-31129530D01*
X55987130Y-31174317D01*
X56053257Y-31218501D01*
X56166499Y-31331743D01*
X56210683Y-31397870D01*
X56255470Y-31464898D01*
X56316758Y-31612858D01*
X56348000Y-31769925D01*
X56348000Y-31930075D01*
X56316758Y-32087142D01*
X56255470Y-32235102D01*
X56166498Y-32368258D01*
X56053258Y-32481498D01*
X55920102Y-32570470D01*
X55772142Y-32631758D01*
X55615075Y-32663000D01*
X55454925Y-32663000D01*
X55297858Y-32631758D01*
X55149898Y-32570470D01*
X55016742Y-32481498D01*
X54903502Y-32368258D01*
X54814530Y-32235102D01*
X54753242Y-32087142D01*
X54722000Y-31930075D01*
X54722000Y-31769925D01*
X54753242Y-31612858D01*
X54814530Y-31464898D01*
X54859317Y-31397870D01*
X54903501Y-31331743D01*
X55016743Y-31218501D01*
X55082870Y-31174317D01*
X55149898Y-31129530D01*
X55297858Y-31068242D01*
X55454925Y-31037000D01*
X55615075Y-31037000D01*
X55772142Y-31068242D01*
X55772142Y-31068242D01*
G37*
G36*
X58312142Y-31068242D02*
X58460102Y-31129530D01*
X58527130Y-31174317D01*
X58593257Y-31218501D01*
X58706499Y-31331743D01*
X58750683Y-31397870D01*
X58795470Y-31464898D01*
X58856758Y-31612858D01*
X58888000Y-31769925D01*
X58888000Y-31930075D01*
X58856758Y-32087142D01*
X58795470Y-32235102D01*
X58706498Y-32368258D01*
X58593258Y-32481498D01*
X58460102Y-32570470D01*
X58312142Y-32631758D01*
X58155075Y-32663000D01*
X57994925Y-32663000D01*
X57837858Y-32631758D01*
X57689898Y-32570470D01*
X57556742Y-32481498D01*
X57443502Y-32368258D01*
X57354530Y-32235102D01*
X57293242Y-32087142D01*
X57262000Y-31930075D01*
X57262000Y-31769925D01*
X57293242Y-31612858D01*
X57354530Y-31464898D01*
X57399317Y-31397870D01*
X57443501Y-31331743D01*
X57556743Y-31218501D01*
X57622870Y-31174317D01*
X57689898Y-31129530D01*
X57837858Y-31068242D01*
X57994925Y-31037000D01*
X58155075Y-31037000D01*
X58312142Y-31068242D01*
X58312142Y-31068242D01*
G37*
G36*
X60852142Y-31068242D02*
X61000102Y-31129530D01*
X61067130Y-31174317D01*
X61133257Y-31218501D01*
X61246499Y-31331743D01*
X61290683Y-31397870D01*
X61335470Y-31464898D01*
X61396758Y-31612858D01*
X61428000Y-31769925D01*
X61428000Y-31930075D01*
X61396758Y-32087142D01*
X61335470Y-32235102D01*
X61246498Y-32368258D01*
X61133258Y-32481498D01*
X61000102Y-32570470D01*
X60852142Y-32631758D01*
X60695075Y-32663000D01*
X60534925Y-32663000D01*
X60377858Y-32631758D01*
X60229898Y-32570470D01*
X60096742Y-32481498D01*
X59983502Y-32368258D01*
X59894530Y-32235102D01*
X59833242Y-32087142D01*
X59802000Y-31930075D01*
X59802000Y-31769925D01*
X59833242Y-31612858D01*
X59894530Y-31464898D01*
X59939317Y-31397870D01*
X59983501Y-31331743D01*
X60096743Y-31218501D01*
X60162870Y-31174317D01*
X60229898Y-31129530D01*
X60377858Y-31068242D01*
X60534925Y-31037000D01*
X60695075Y-31037000D01*
X60852142Y-31068242D01*
X60852142Y-31068242D01*
G37*
G36*
X63392142Y-31068242D02*
X63540102Y-31129530D01*
X63607130Y-31174317D01*
X63673257Y-31218501D01*
X63786499Y-31331743D01*
X63830683Y-31397870D01*
X63875470Y-31464898D01*
X63936758Y-31612858D01*
X63968000Y-31769925D01*
X63968000Y-31930075D01*
X63936758Y-32087142D01*
X63875470Y-32235102D01*
X63786498Y-32368258D01*
X63673258Y-32481498D01*
X63540102Y-32570470D01*
X63392142Y-32631758D01*
X63235075Y-32663000D01*
X63074925Y-32663000D01*
X62917858Y-32631758D01*
X62769898Y-32570470D01*
X62636742Y-32481498D01*
X62523502Y-32368258D01*
X62434530Y-32235102D01*
X62373242Y-32087142D01*
X62342000Y-31930075D01*
X62342000Y-31769925D01*
X62373242Y-31612858D01*
X62434530Y-31464898D01*
X62479317Y-31397870D01*
X62523501Y-31331743D01*
X62636743Y-31218501D01*
X62702870Y-31174317D01*
X62769898Y-31129530D01*
X62917858Y-31068242D01*
X63074925Y-31037000D01*
X63235075Y-31037000D01*
X63392142Y-31068242D01*
X63392142Y-31068242D01*
G37*
G36*
X80958015Y-28681973D02*
X81061879Y-28713479D01*
X81157600Y-28764644D01*
X81241501Y-28833499D01*
X81310356Y-28917400D01*
X81361521Y-29013121D01*
X81393027Y-29116985D01*
X81401000Y-29197933D01*
X81401000Y-29902067D01*
X81393027Y-29983015D01*
X81361521Y-30086879D01*
X81310356Y-30182600D01*
X81241501Y-30266501D01*
X81157600Y-30335356D01*
X81061878Y-30386521D01*
X80958014Y-30418027D01*
X80850000Y-30428666D01*
X80741985Y-30418027D01*
X80638121Y-30386521D01*
X80542400Y-30335356D01*
X80458499Y-30266501D01*
X80389644Y-30182600D01*
X80338479Y-30086878D01*
X80306973Y-29983014D01*
X80299000Y-29902066D01*
X80299000Y-29197933D01*
X80306973Y-29116985D01*
X80338480Y-29013121D01*
X80389645Y-28917400D01*
X80458500Y-28833499D01*
X80542401Y-28764644D01*
X80638122Y-28713479D01*
X80741986Y-28681973D01*
X80850000Y-28671334D01*
X80958015Y-28681973D01*
X80958015Y-28681973D01*
G37*
G36*
X73958015Y-28681973D02*
X74061879Y-28713479D01*
X74157600Y-28764644D01*
X74241501Y-28833499D01*
X74310356Y-28917400D01*
X74361521Y-29013121D01*
X74393027Y-29116985D01*
X74401000Y-29197933D01*
X74401000Y-29902067D01*
X74393027Y-29983015D01*
X74361521Y-30086879D01*
X74310356Y-30182600D01*
X74241501Y-30266501D01*
X74157600Y-30335356D01*
X74061878Y-30386521D01*
X73958014Y-30418027D01*
X73850000Y-30428666D01*
X73741985Y-30418027D01*
X73638121Y-30386521D01*
X73542400Y-30335356D01*
X73458499Y-30266501D01*
X73389644Y-30182600D01*
X73338479Y-30086878D01*
X73306973Y-29983014D01*
X73299000Y-29902066D01*
X73299000Y-29197933D01*
X73306973Y-29116985D01*
X73338480Y-29013121D01*
X73389645Y-28917400D01*
X73458500Y-28833499D01*
X73542401Y-28764644D01*
X73638122Y-28713479D01*
X73741986Y-28681973D01*
X73850000Y-28671334D01*
X73958015Y-28681973D01*
X73958015Y-28681973D01*
G37*
M02*
