G04 #@! TF.GenerationSoftware,KiCad,Pcbnew,(5.1.2-1)-1*
G04 #@! TF.CreationDate,2019-07-12T16:43:51-07:00*
G04 #@! TF.ProjectId,wavegenerator_v1,77617665-6765-46e6-9572-61746f725f76,rev?*
G04 #@! TF.SameCoordinates,Original*
G04 #@! TF.FileFunction,Soldermask,Bot*
G04 #@! TF.FilePolarity,Negative*
%FSLAX46Y46*%
G04 Gerber Fmt 4.6, Leading zero omitted, Abs format (unit mm)*
G04 Created by KiCad (PCBNEW (5.1.2-1)-1) date 2019-07-12 16:43:51*
%MOMM*%
%LPD*%
G04 APERTURE LIST*
%ADD10C,0.100000*%
G04 APERTURE END LIST*
D10*
G36*
X74008014Y-97631973D02*
G01*
X74111878Y-97663479D01*
X74155907Y-97687013D01*
X74207599Y-97714643D01*
X74207601Y-97714644D01*
X74207600Y-97714644D01*
X74291501Y-97783499D01*
X74360356Y-97867400D01*
X74411521Y-97963121D01*
X74443027Y-98066985D01*
X74451000Y-98147933D01*
X74451000Y-98852067D01*
X74443027Y-98933015D01*
X74411521Y-99036879D01*
X74411519Y-99036882D01*
X74360357Y-99132600D01*
X74291501Y-99216501D01*
X74207600Y-99285357D01*
X74139055Y-99321995D01*
X74111879Y-99336521D01*
X74008015Y-99368027D01*
X73900000Y-99378666D01*
X73791986Y-99368027D01*
X73688122Y-99336521D01*
X73660946Y-99321995D01*
X73592401Y-99285357D01*
X73508500Y-99216501D01*
X73439645Y-99132601D01*
X73388480Y-99036879D01*
X73356973Y-98933015D01*
X73349000Y-98852067D01*
X73349000Y-98147934D01*
X73356973Y-98066986D01*
X73388479Y-97963122D01*
X73439644Y-97867400D01*
X73508499Y-97783499D01*
X73592400Y-97714644D01*
X73592399Y-97714644D01*
X73592401Y-97714643D01*
X73644093Y-97687013D01*
X73688121Y-97663479D01*
X73791985Y-97631973D01*
X73900000Y-97621334D01*
X74008014Y-97631973D01*
X74008014Y-97631973D01*
G37*
G36*
X67008014Y-97631973D02*
G01*
X67111878Y-97663479D01*
X67155907Y-97687013D01*
X67207599Y-97714643D01*
X67207601Y-97714644D01*
X67207600Y-97714644D01*
X67291501Y-97783499D01*
X67360356Y-97867400D01*
X67411521Y-97963121D01*
X67443027Y-98066985D01*
X67451000Y-98147933D01*
X67451000Y-98852067D01*
X67443027Y-98933015D01*
X67411521Y-99036879D01*
X67411519Y-99036882D01*
X67360357Y-99132600D01*
X67291501Y-99216501D01*
X67207600Y-99285357D01*
X67139055Y-99321995D01*
X67111879Y-99336521D01*
X67008015Y-99368027D01*
X66900000Y-99378666D01*
X66791986Y-99368027D01*
X66688122Y-99336521D01*
X66660946Y-99321995D01*
X66592401Y-99285357D01*
X66508500Y-99216501D01*
X66439645Y-99132601D01*
X66388480Y-99036879D01*
X66356973Y-98933015D01*
X66349000Y-98852067D01*
X66349000Y-98147934D01*
X66356973Y-98066986D01*
X66388479Y-97963122D01*
X66439644Y-97867400D01*
X66508499Y-97783499D01*
X66592400Y-97714644D01*
X66592399Y-97714644D01*
X66592401Y-97714643D01*
X66644093Y-97687013D01*
X66688121Y-97663479D01*
X66791985Y-97631973D01*
X66900000Y-97621334D01*
X67008014Y-97631973D01*
X67008014Y-97631973D01*
G37*
G36*
X132414795Y-96520156D02*
G01*
X132521150Y-96541311D01*
X132721520Y-96624307D01*
X132901844Y-96744795D01*
X133055205Y-96898156D01*
X133175693Y-97078480D01*
X133175693Y-97078481D01*
X133258689Y-97278850D01*
X133301000Y-97491561D01*
X133301000Y-97708439D01*
X133258689Y-97921150D01*
X133217191Y-98021334D01*
X133175693Y-98121520D01*
X133055205Y-98301844D01*
X132901844Y-98455205D01*
X132721520Y-98575693D01*
X132621334Y-98617191D01*
X132521150Y-98658689D01*
X132414794Y-98679845D01*
X132308440Y-98701000D01*
X132091560Y-98701000D01*
X131985206Y-98679845D01*
X131878850Y-98658689D01*
X131678480Y-98575693D01*
X131498156Y-98455205D01*
X131344795Y-98301844D01*
X131224307Y-98121520D01*
X131182809Y-98021334D01*
X131141311Y-97921150D01*
X131099000Y-97708439D01*
X131099000Y-97491561D01*
X131141311Y-97278850D01*
X131224307Y-97078481D01*
X131224307Y-97078480D01*
X131344795Y-96898156D01*
X131498156Y-96744795D01*
X131678480Y-96624307D01*
X131878850Y-96541311D01*
X131985205Y-96520156D01*
X132091560Y-96499000D01*
X132308440Y-96499000D01*
X132414795Y-96520156D01*
X132414795Y-96520156D01*
G37*
G36*
X48114795Y-96520156D02*
G01*
X48221150Y-96541311D01*
X48421520Y-96624307D01*
X48601844Y-96744795D01*
X48755205Y-96898156D01*
X48875693Y-97078480D01*
X48875693Y-97078481D01*
X48958689Y-97278850D01*
X49001000Y-97491561D01*
X49001000Y-97708439D01*
X48958689Y-97921150D01*
X48917191Y-98021334D01*
X48875693Y-98121520D01*
X48755205Y-98301844D01*
X48601844Y-98455205D01*
X48421520Y-98575693D01*
X48321334Y-98617191D01*
X48221150Y-98658689D01*
X48114794Y-98679845D01*
X48008440Y-98701000D01*
X47791560Y-98701000D01*
X47685206Y-98679845D01*
X47578850Y-98658689D01*
X47378480Y-98575693D01*
X47198156Y-98455205D01*
X47044795Y-98301844D01*
X46924307Y-98121520D01*
X46882809Y-98021334D01*
X46841311Y-97921150D01*
X46799000Y-97708439D01*
X46799000Y-97491561D01*
X46841311Y-97278850D01*
X46924307Y-97078481D01*
X46924307Y-97078480D01*
X47044795Y-96898156D01*
X47198156Y-96744795D01*
X47378480Y-96624307D01*
X47578850Y-96541311D01*
X47685205Y-96520156D01*
X47791560Y-96499000D01*
X48008440Y-96499000D01*
X48114795Y-96520156D01*
X48114795Y-96520156D01*
G37*
G36*
X118701000Y-98501000D02*
G01*
X116899000Y-98501000D01*
X116899000Y-96699000D01*
X118701000Y-96699000D01*
X118701000Y-98501000D01*
X118701000Y-98501000D01*
G37*
G36*
X98401000Y-98201000D02*
G01*
X95799000Y-98201000D01*
X95799000Y-95599000D01*
X98401000Y-95599000D01*
X98401000Y-98201000D01*
X98401000Y-98201000D01*
G37*
G36*
X94201000Y-98201000D02*
G01*
X91599000Y-98201000D01*
X91599000Y-95599000D01*
X94201000Y-95599000D01*
X94201000Y-98201000D01*
X94201000Y-98201000D01*
G37*
G36*
X113318433Y-93934893D02*
G01*
X113408657Y-93952839D01*
X113514267Y-93996585D01*
X113663621Y-94058449D01*
X113663622Y-94058450D01*
X113893086Y-94211772D01*
X114088228Y-94406914D01*
X114096847Y-94419814D01*
X114241551Y-94636379D01*
X114303415Y-94785733D01*
X114343861Y-94883375D01*
X114347161Y-94891344D01*
X114401000Y-95162012D01*
X114401000Y-95437988D01*
X114347161Y-95708656D01*
X114241551Y-95963621D01*
X114241550Y-95963622D01*
X114088228Y-96193086D01*
X113893086Y-96388228D01*
X113739763Y-96490675D01*
X113663621Y-96541551D01*
X113514267Y-96603415D01*
X113408657Y-96647161D01*
X113318433Y-96665107D01*
X113137988Y-96701000D01*
X112862012Y-96701000D01*
X112681567Y-96665107D01*
X112591343Y-96647161D01*
X112485733Y-96603415D01*
X112336379Y-96541551D01*
X112260237Y-96490675D01*
X112106914Y-96388228D01*
X111911772Y-96193086D01*
X111758450Y-95963622D01*
X111758449Y-95963621D01*
X111652839Y-95708656D01*
X111599000Y-95437988D01*
X111599000Y-95162012D01*
X111652839Y-94891344D01*
X111656140Y-94883375D01*
X111696585Y-94785733D01*
X111758449Y-94636379D01*
X111903153Y-94419814D01*
X111911772Y-94406914D01*
X112106914Y-94211772D01*
X112336378Y-94058450D01*
X112336379Y-94058449D01*
X112485733Y-93996585D01*
X112591343Y-93952839D01*
X112681567Y-93934893D01*
X112862012Y-93899000D01*
X113137988Y-93899000D01*
X113318433Y-93934893D01*
X113318433Y-93934893D01*
G37*
G36*
X105718433Y-93934893D02*
G01*
X105808657Y-93952839D01*
X105914267Y-93996585D01*
X106063621Y-94058449D01*
X106063622Y-94058450D01*
X106293086Y-94211772D01*
X106488228Y-94406914D01*
X106496847Y-94419814D01*
X106641551Y-94636379D01*
X106703415Y-94785733D01*
X106743861Y-94883375D01*
X106747161Y-94891344D01*
X106801000Y-95162012D01*
X106801000Y-95437988D01*
X106747161Y-95708656D01*
X106641551Y-95963621D01*
X106641550Y-95963622D01*
X106488228Y-96193086D01*
X106293086Y-96388228D01*
X106139763Y-96490675D01*
X106063621Y-96541551D01*
X105914267Y-96603415D01*
X105808657Y-96647161D01*
X105718433Y-96665107D01*
X105537988Y-96701000D01*
X105262012Y-96701000D01*
X105081567Y-96665107D01*
X104991343Y-96647161D01*
X104885733Y-96603415D01*
X104736379Y-96541551D01*
X104660237Y-96490675D01*
X104506914Y-96388228D01*
X104311772Y-96193086D01*
X104158450Y-95963622D01*
X104158449Y-95963621D01*
X104052839Y-95708656D01*
X103999000Y-95437988D01*
X103999000Y-95162012D01*
X104052839Y-94891344D01*
X104056140Y-94883375D01*
X104096585Y-94785733D01*
X104158449Y-94636379D01*
X104303153Y-94419814D01*
X104311772Y-94406914D01*
X104506914Y-94211772D01*
X104736378Y-94058450D01*
X104736379Y-94058449D01*
X104885733Y-93996585D01*
X104991343Y-93952839D01*
X105081567Y-93934893D01*
X105262012Y-93899000D01*
X105537988Y-93899000D01*
X105718433Y-93934893D01*
X105718433Y-93934893D01*
G37*
G36*
X73153114Y-95281611D02*
G01*
X73252265Y-95311688D01*
X73343644Y-95360531D01*
X73423738Y-95426262D01*
X73489469Y-95506356D01*
X73538312Y-95597735D01*
X73568389Y-95696886D01*
X73578545Y-95800000D01*
X73568389Y-95903114D01*
X73538312Y-96002265D01*
X73489469Y-96093644D01*
X73423738Y-96173738D01*
X73343644Y-96239469D01*
X73252265Y-96288312D01*
X73153114Y-96318389D01*
X73075839Y-96326000D01*
X72724161Y-96326000D01*
X72646886Y-96318389D01*
X72547735Y-96288312D01*
X72456356Y-96239469D01*
X72376262Y-96173738D01*
X72310531Y-96093644D01*
X72261688Y-96002265D01*
X72231611Y-95903114D01*
X72221455Y-95800000D01*
X72231611Y-95696886D01*
X72261688Y-95597735D01*
X72310531Y-95506356D01*
X72376262Y-95426262D01*
X72456356Y-95360531D01*
X72547735Y-95311688D01*
X72646886Y-95281611D01*
X72724161Y-95274000D01*
X73075839Y-95274000D01*
X73153114Y-95281611D01*
X73153114Y-95281611D01*
G37*
G36*
X68153114Y-95281611D02*
G01*
X68252265Y-95311688D01*
X68343644Y-95360531D01*
X68423738Y-95426262D01*
X68489469Y-95506356D01*
X68538312Y-95597735D01*
X68568389Y-95696886D01*
X68578545Y-95800000D01*
X68568389Y-95903114D01*
X68538312Y-96002265D01*
X68489469Y-96093644D01*
X68423738Y-96173738D01*
X68343644Y-96239469D01*
X68252265Y-96288312D01*
X68153114Y-96318389D01*
X68075839Y-96326000D01*
X67724161Y-96326000D01*
X67646886Y-96318389D01*
X67547735Y-96288312D01*
X67456356Y-96239469D01*
X67376262Y-96173738D01*
X67310531Y-96093644D01*
X67261688Y-96002265D01*
X67231611Y-95903114D01*
X67221455Y-95800000D01*
X67231611Y-95696886D01*
X67261688Y-95597735D01*
X67310531Y-95506356D01*
X67376262Y-95426262D01*
X67456356Y-95360531D01*
X67547735Y-95311688D01*
X67646886Y-95281611D01*
X67724161Y-95274000D01*
X68075839Y-95274000D01*
X68153114Y-95281611D01*
X68153114Y-95281611D01*
G37*
G36*
X117910442Y-94165518D02*
G01*
X117976627Y-94172037D01*
X118146466Y-94223557D01*
X118302991Y-94307222D01*
X118338729Y-94336552D01*
X118440186Y-94419814D01*
X118523448Y-94521271D01*
X118552778Y-94557009D01*
X118636443Y-94713534D01*
X118687963Y-94883373D01*
X118705359Y-95060000D01*
X118687963Y-95236627D01*
X118636443Y-95406466D01*
X118552778Y-95562991D01*
X118524265Y-95597734D01*
X118440186Y-95700186D01*
X118338729Y-95783448D01*
X118302991Y-95812778D01*
X118146466Y-95896443D01*
X117976627Y-95947963D01*
X117910443Y-95954481D01*
X117844260Y-95961000D01*
X117755740Y-95961000D01*
X117689558Y-95954482D01*
X117623373Y-95947963D01*
X117453534Y-95896443D01*
X117297009Y-95812778D01*
X117261271Y-95783448D01*
X117159814Y-95700186D01*
X117075735Y-95597734D01*
X117047222Y-95562991D01*
X116963557Y-95406466D01*
X116912037Y-95236627D01*
X116894641Y-95060000D01*
X116912037Y-94883373D01*
X116963557Y-94713534D01*
X117047222Y-94557009D01*
X117076552Y-94521271D01*
X117159814Y-94419814D01*
X117261271Y-94336552D01*
X117297009Y-94307222D01*
X117453534Y-94223557D01*
X117623373Y-94172037D01*
X117689558Y-94165518D01*
X117755740Y-94159000D01*
X117844260Y-94159000D01*
X117910442Y-94165518D01*
X117910442Y-94165518D01*
G37*
G36*
X60924903Y-91497075D02*
G01*
X61152571Y-91591378D01*
X61357466Y-91728285D01*
X61531715Y-91902534D01*
X61668622Y-92107429D01*
X61762925Y-92335097D01*
X61811000Y-92576787D01*
X61811000Y-92823213D01*
X61762925Y-93064903D01*
X61668622Y-93292571D01*
X61531715Y-93497466D01*
X61357466Y-93671715D01*
X61152571Y-93808622D01*
X61152570Y-93808623D01*
X61152569Y-93808623D01*
X60924903Y-93902925D01*
X60683214Y-93951000D01*
X60436786Y-93951000D01*
X60195097Y-93902925D01*
X59967431Y-93808623D01*
X59967430Y-93808623D01*
X59967429Y-93808622D01*
X59762534Y-93671715D01*
X59588285Y-93497466D01*
X59451378Y-93292571D01*
X59357075Y-93064903D01*
X59309000Y-92823213D01*
X59309000Y-92576787D01*
X59357075Y-92335097D01*
X59451378Y-92107429D01*
X59588285Y-91902534D01*
X59762534Y-91728285D01*
X59967429Y-91591378D01*
X60195097Y-91497075D01*
X60436786Y-91449000D01*
X60683214Y-91449000D01*
X60924903Y-91497075D01*
X60924903Y-91497075D01*
G37*
G36*
X99164903Y-91497075D02*
G01*
X99392571Y-91591378D01*
X99597466Y-91728285D01*
X99771715Y-91902534D01*
X99908622Y-92107429D01*
X100002925Y-92335097D01*
X100051000Y-92576787D01*
X100051000Y-92823213D01*
X100002925Y-93064903D01*
X99908622Y-93292571D01*
X99771715Y-93497466D01*
X99597466Y-93671715D01*
X99392571Y-93808622D01*
X99392570Y-93808623D01*
X99392569Y-93808623D01*
X99164903Y-93902925D01*
X98923214Y-93951000D01*
X98676786Y-93951000D01*
X98435097Y-93902925D01*
X98207431Y-93808623D01*
X98207430Y-93808623D01*
X98207429Y-93808622D01*
X98002534Y-93671715D01*
X97828285Y-93497466D01*
X97691378Y-93292571D01*
X97597075Y-93064903D01*
X97549000Y-92823213D01*
X97549000Y-92576787D01*
X97597075Y-92335097D01*
X97691378Y-92107429D01*
X97828285Y-91902534D01*
X98002534Y-91728285D01*
X98207429Y-91591378D01*
X98435097Y-91497075D01*
X98676786Y-91449000D01*
X98923214Y-91449000D01*
X99164903Y-91497075D01*
X99164903Y-91497075D01*
G37*
G36*
X60028228Y-87971703D02*
G01*
X60183100Y-88035853D01*
X60322481Y-88128985D01*
X60441015Y-88247519D01*
X60534147Y-88386900D01*
X60598297Y-88541772D01*
X60631000Y-88706184D01*
X60631000Y-88873816D01*
X60598297Y-89038228D01*
X60534147Y-89193100D01*
X60441015Y-89332481D01*
X60322481Y-89451015D01*
X60183100Y-89544147D01*
X60028228Y-89608297D01*
X59863816Y-89641000D01*
X59696184Y-89641000D01*
X59531772Y-89608297D01*
X59376900Y-89544147D01*
X59237519Y-89451015D01*
X59118985Y-89332481D01*
X59025853Y-89193100D01*
X58961703Y-89038228D01*
X58929000Y-88873816D01*
X58929000Y-88706184D01*
X58961703Y-88541772D01*
X59025853Y-88386900D01*
X59118985Y-88247519D01*
X59237519Y-88128985D01*
X59376900Y-88035853D01*
X59531772Y-87971703D01*
X59696184Y-87939000D01*
X59863816Y-87939000D01*
X60028228Y-87971703D01*
X60028228Y-87971703D01*
G37*
G36*
X117679487Y-86098996D02*
G01*
X117916253Y-86197068D01*
X117916255Y-86197069D01*
X118129339Y-86339447D01*
X118310553Y-86520661D01*
X118394703Y-86646600D01*
X118452932Y-86733747D01*
X118551004Y-86970513D01*
X118601000Y-87221861D01*
X118601000Y-87478139D01*
X118551004Y-87729487D01*
X118457116Y-87956151D01*
X118452931Y-87966255D01*
X118310553Y-88179339D01*
X118129339Y-88360553D01*
X117916255Y-88502931D01*
X117916254Y-88502932D01*
X117916253Y-88502932D01*
X117679487Y-88601004D01*
X117428139Y-88651000D01*
X117171861Y-88651000D01*
X116920513Y-88601004D01*
X116683747Y-88502932D01*
X116683746Y-88502932D01*
X116683745Y-88502931D01*
X116470661Y-88360553D01*
X116289447Y-88179339D01*
X116147069Y-87966255D01*
X116142884Y-87956151D01*
X116048996Y-87729487D01*
X115999000Y-87478139D01*
X115999000Y-87221861D01*
X116048996Y-86970513D01*
X116147068Y-86733747D01*
X116205298Y-86646600D01*
X116289447Y-86520661D01*
X116470661Y-86339447D01*
X116683745Y-86197069D01*
X116683747Y-86197068D01*
X116920513Y-86098996D01*
X117171861Y-86049000D01*
X117428139Y-86049000D01*
X117679487Y-86098996D01*
X117679487Y-86098996D01*
G37*
G36*
X129079487Y-86098996D02*
G01*
X129316253Y-86197068D01*
X129316255Y-86197069D01*
X129529339Y-86339447D01*
X129710553Y-86520661D01*
X129794703Y-86646600D01*
X129852932Y-86733747D01*
X129951004Y-86970513D01*
X130001000Y-87221861D01*
X130001000Y-87478139D01*
X129951004Y-87729487D01*
X129857116Y-87956151D01*
X129852931Y-87966255D01*
X129710553Y-88179339D01*
X129529339Y-88360553D01*
X129316255Y-88502931D01*
X129316254Y-88502932D01*
X129316253Y-88502932D01*
X129079487Y-88601004D01*
X128828139Y-88651000D01*
X128571861Y-88651000D01*
X128320513Y-88601004D01*
X128083747Y-88502932D01*
X128083746Y-88502932D01*
X128083745Y-88502931D01*
X127870661Y-88360553D01*
X127689447Y-88179339D01*
X127547069Y-87966255D01*
X127542884Y-87956151D01*
X127448996Y-87729487D01*
X127399000Y-87478139D01*
X127399000Y-87221861D01*
X127448996Y-86970513D01*
X127547068Y-86733747D01*
X127605298Y-86646600D01*
X127689447Y-86520661D01*
X127870661Y-86339447D01*
X128083745Y-86197069D01*
X128083747Y-86197068D01*
X128320513Y-86098996D01*
X128571861Y-86049000D01*
X128828139Y-86049000D01*
X129079487Y-86098996D01*
X129079487Y-86098996D01*
G37*
G36*
X109480897Y-86574007D02*
G01*
X109656152Y-86646600D01*
X109813877Y-86751989D01*
X109948011Y-86886123D01*
X110053400Y-87043848D01*
X110125993Y-87219103D01*
X110163000Y-87405153D01*
X110163000Y-87594847D01*
X110125993Y-87780897D01*
X110053400Y-87956152D01*
X109948011Y-88113877D01*
X109813877Y-88248011D01*
X109656152Y-88353400D01*
X109480897Y-88425993D01*
X109294847Y-88463000D01*
X109105153Y-88463000D01*
X108919103Y-88425993D01*
X108743848Y-88353400D01*
X108586123Y-88248011D01*
X108451989Y-88113877D01*
X108346600Y-87956152D01*
X108274007Y-87780897D01*
X108237000Y-87594847D01*
X108237000Y-87405153D01*
X108274007Y-87219103D01*
X108346600Y-87043848D01*
X108451989Y-86886123D01*
X108586123Y-86751989D01*
X108743848Y-86646600D01*
X108919103Y-86574007D01*
X109105153Y-86537000D01*
X109294847Y-86537000D01*
X109480897Y-86574007D01*
X109480897Y-86574007D01*
G37*
G36*
X98548228Y-86181703D02*
G01*
X98703100Y-86245853D01*
X98842481Y-86338985D01*
X98961015Y-86457519D01*
X99054147Y-86596900D01*
X99118297Y-86751772D01*
X99151000Y-86916184D01*
X99151000Y-87083816D01*
X99118297Y-87248228D01*
X99054147Y-87403100D01*
X98961015Y-87542481D01*
X98842481Y-87661015D01*
X98703100Y-87754147D01*
X98548228Y-87818297D01*
X98383816Y-87851000D01*
X98216184Y-87851000D01*
X98051772Y-87818297D01*
X97896900Y-87754147D01*
X97757519Y-87661015D01*
X97638985Y-87542481D01*
X97545853Y-87403100D01*
X97481703Y-87248228D01*
X97449000Y-87083816D01*
X97449000Y-86916184D01*
X97481703Y-86751772D01*
X97545853Y-86596900D01*
X97638985Y-86457519D01*
X97757519Y-86338985D01*
X97896900Y-86245853D01*
X98051772Y-86181703D01*
X98216184Y-86149000D01*
X98383816Y-86149000D01*
X98548228Y-86181703D01*
X98548228Y-86181703D01*
G37*
G36*
X101048228Y-86181703D02*
G01*
X101203100Y-86245853D01*
X101342481Y-86338985D01*
X101461015Y-86457519D01*
X101554147Y-86596900D01*
X101618297Y-86751772D01*
X101651000Y-86916184D01*
X101651000Y-87083816D01*
X101618297Y-87248228D01*
X101554147Y-87403100D01*
X101461015Y-87542481D01*
X101342481Y-87661015D01*
X101203100Y-87754147D01*
X101048228Y-87818297D01*
X100883816Y-87851000D01*
X100716184Y-87851000D01*
X100551772Y-87818297D01*
X100396900Y-87754147D01*
X100257519Y-87661015D01*
X100138985Y-87542481D01*
X100045853Y-87403100D01*
X99981703Y-87248228D01*
X99949000Y-87083816D01*
X99949000Y-86916184D01*
X99981703Y-86751772D01*
X100045853Y-86596900D01*
X100138985Y-86457519D01*
X100257519Y-86338985D01*
X100396900Y-86245853D01*
X100551772Y-86181703D01*
X100716184Y-86149000D01*
X100883816Y-86149000D01*
X101048228Y-86181703D01*
X101048228Y-86181703D01*
G37*
G36*
X60028228Y-85431703D02*
G01*
X60183100Y-85495853D01*
X60322481Y-85588985D01*
X60441015Y-85707519D01*
X60534147Y-85846900D01*
X60598297Y-86001772D01*
X60631000Y-86166184D01*
X60631000Y-86333816D01*
X60598297Y-86498228D01*
X60534147Y-86653100D01*
X60441015Y-86792481D01*
X60322481Y-86911015D01*
X60183100Y-87004147D01*
X60028228Y-87068297D01*
X59863816Y-87101000D01*
X59696184Y-87101000D01*
X59531772Y-87068297D01*
X59376900Y-87004147D01*
X59237519Y-86911015D01*
X59118985Y-86792481D01*
X59025853Y-86653100D01*
X58961703Y-86498228D01*
X58929000Y-86333816D01*
X58929000Y-86166184D01*
X58961703Y-86001772D01*
X59025853Y-85846900D01*
X59118985Y-85707519D01*
X59237519Y-85588985D01*
X59376900Y-85495853D01*
X59531772Y-85431703D01*
X59696184Y-85399000D01*
X59863816Y-85399000D01*
X60028228Y-85431703D01*
X60028228Y-85431703D01*
G37*
G36*
X54706564Y-83989389D02*
G01*
X54871047Y-84057520D01*
X54897835Y-84068616D01*
X55069973Y-84183635D01*
X55216365Y-84330027D01*
X55297197Y-84451000D01*
X55331385Y-84502167D01*
X55410611Y-84693436D01*
X55451000Y-84896484D01*
X55451000Y-85103516D01*
X55410611Y-85306564D01*
X55332205Y-85495853D01*
X55331384Y-85497835D01*
X55216365Y-85669973D01*
X55069973Y-85816365D01*
X54897835Y-85931384D01*
X54897834Y-85931385D01*
X54897833Y-85931385D01*
X54706564Y-86010611D01*
X54503516Y-86051000D01*
X54296484Y-86051000D01*
X54093436Y-86010611D01*
X53902167Y-85931385D01*
X53902166Y-85931385D01*
X53902165Y-85931384D01*
X53730027Y-85816365D01*
X53583635Y-85669973D01*
X53468616Y-85497835D01*
X53467795Y-85495853D01*
X53389389Y-85306564D01*
X53349000Y-85103516D01*
X53349000Y-84896484D01*
X53389389Y-84693436D01*
X53468615Y-84502167D01*
X53502804Y-84451000D01*
X53583635Y-84330027D01*
X53730027Y-84183635D01*
X53902165Y-84068616D01*
X53928953Y-84057520D01*
X54093436Y-83989389D01*
X54296484Y-83949000D01*
X54503516Y-83949000D01*
X54706564Y-83989389D01*
X54706564Y-83989389D01*
G37*
G36*
X50206564Y-83989389D02*
G01*
X50371047Y-84057520D01*
X50397835Y-84068616D01*
X50569973Y-84183635D01*
X50716365Y-84330027D01*
X50797197Y-84451000D01*
X50831385Y-84502167D01*
X50910611Y-84693436D01*
X50951000Y-84896484D01*
X50951000Y-85103516D01*
X50910611Y-85306564D01*
X50832205Y-85495853D01*
X50831384Y-85497835D01*
X50716365Y-85669973D01*
X50569973Y-85816365D01*
X50397835Y-85931384D01*
X50397834Y-85931385D01*
X50397833Y-85931385D01*
X50206564Y-86010611D01*
X50003516Y-86051000D01*
X49796484Y-86051000D01*
X49593436Y-86010611D01*
X49402167Y-85931385D01*
X49402166Y-85931385D01*
X49402165Y-85931384D01*
X49230027Y-85816365D01*
X49083635Y-85669973D01*
X48968616Y-85497835D01*
X48967795Y-85495853D01*
X48889389Y-85306564D01*
X48849000Y-85103516D01*
X48849000Y-84896484D01*
X48889389Y-84693436D01*
X48968615Y-84502167D01*
X49002804Y-84451000D01*
X49083635Y-84330027D01*
X49230027Y-84183635D01*
X49402165Y-84068616D01*
X49428953Y-84057520D01*
X49593436Y-83989389D01*
X49796484Y-83949000D01*
X50003516Y-83949000D01*
X50206564Y-83989389D01*
X50206564Y-83989389D01*
G37*
G36*
X88948228Y-83781703D02*
G01*
X89103100Y-83845853D01*
X89242481Y-83938985D01*
X89361015Y-84057519D01*
X89454147Y-84196900D01*
X89518297Y-84351772D01*
X89551000Y-84516184D01*
X89551000Y-84683816D01*
X89518297Y-84848228D01*
X89454147Y-85003100D01*
X89361015Y-85142481D01*
X89242481Y-85261015D01*
X89103100Y-85354147D01*
X88948228Y-85418297D01*
X88783816Y-85451000D01*
X88616184Y-85451000D01*
X88451772Y-85418297D01*
X88296900Y-85354147D01*
X88157519Y-85261015D01*
X88038985Y-85142481D01*
X87945853Y-85003100D01*
X87881703Y-84848228D01*
X87849000Y-84683816D01*
X87849000Y-84516184D01*
X87881703Y-84351772D01*
X87945853Y-84196900D01*
X88038985Y-84057519D01*
X88157519Y-83938985D01*
X88296900Y-83845853D01*
X88451772Y-83781703D01*
X88616184Y-83749000D01*
X88783816Y-83749000D01*
X88948228Y-83781703D01*
X88948228Y-83781703D01*
G37*
G36*
X60028228Y-82891703D02*
G01*
X60183100Y-82955853D01*
X60322481Y-83048985D01*
X60441015Y-83167519D01*
X60534147Y-83306900D01*
X60598297Y-83461772D01*
X60631000Y-83626184D01*
X60631000Y-83793816D01*
X60598297Y-83958228D01*
X60534147Y-84113100D01*
X60441015Y-84252481D01*
X60322481Y-84371015D01*
X60183100Y-84464147D01*
X60028228Y-84528297D01*
X59863816Y-84561000D01*
X59696184Y-84561000D01*
X59531772Y-84528297D01*
X59376900Y-84464147D01*
X59237519Y-84371015D01*
X59118985Y-84252481D01*
X59025853Y-84113100D01*
X58961703Y-83958228D01*
X58929000Y-83793816D01*
X58929000Y-83626184D01*
X58961703Y-83461772D01*
X59025853Y-83306900D01*
X59118985Y-83167519D01*
X59237519Y-83048985D01*
X59376900Y-82955853D01*
X59531772Y-82891703D01*
X59696184Y-82859000D01*
X59863816Y-82859000D01*
X60028228Y-82891703D01*
X60028228Y-82891703D01*
G37*
G36*
X112048228Y-82881703D02*
G01*
X112203100Y-82945853D01*
X112342481Y-83038985D01*
X112461015Y-83157519D01*
X112554147Y-83296900D01*
X112618297Y-83451772D01*
X112651000Y-83616184D01*
X112651000Y-83783816D01*
X112618297Y-83948228D01*
X112554147Y-84103100D01*
X112461015Y-84242481D01*
X112342481Y-84361015D01*
X112203100Y-84454147D01*
X112048228Y-84518297D01*
X111883816Y-84551000D01*
X111716184Y-84551000D01*
X111551772Y-84518297D01*
X111396900Y-84454147D01*
X111257519Y-84361015D01*
X111138985Y-84242481D01*
X111045853Y-84103100D01*
X110981703Y-83948228D01*
X110949000Y-83783816D01*
X110949000Y-83616184D01*
X110981703Y-83451772D01*
X111045853Y-83296900D01*
X111138985Y-83157519D01*
X111257519Y-83038985D01*
X111396900Y-82945853D01*
X111551772Y-82881703D01*
X111716184Y-82849000D01*
X111883816Y-82849000D01*
X112048228Y-82881703D01*
X112048228Y-82881703D01*
G37*
G36*
X107948228Y-82881703D02*
G01*
X108103100Y-82945853D01*
X108242481Y-83038985D01*
X108361015Y-83157519D01*
X108454147Y-83296900D01*
X108518297Y-83451772D01*
X108551000Y-83616184D01*
X108551000Y-83783816D01*
X108518297Y-83948228D01*
X108454147Y-84103100D01*
X108361015Y-84242481D01*
X108242481Y-84361015D01*
X108103100Y-84454147D01*
X107948228Y-84518297D01*
X107783816Y-84551000D01*
X107616184Y-84551000D01*
X107451772Y-84518297D01*
X107296900Y-84454147D01*
X107157519Y-84361015D01*
X107038985Y-84242481D01*
X106945853Y-84103100D01*
X106881703Y-83948228D01*
X106849000Y-83783816D01*
X106849000Y-83616184D01*
X106881703Y-83451772D01*
X106945853Y-83296900D01*
X107038985Y-83157519D01*
X107157519Y-83038985D01*
X107296900Y-82945853D01*
X107451772Y-82881703D01*
X107616184Y-82849000D01*
X107783816Y-82849000D01*
X107948228Y-82881703D01*
X107948228Y-82881703D01*
G37*
G36*
X68051000Y-84451000D02*
G01*
X66349000Y-84451000D01*
X66349000Y-82749000D01*
X68051000Y-82749000D01*
X68051000Y-84451000D01*
X68051000Y-84451000D01*
G37*
G36*
X102247142Y-82168242D02*
G01*
X102395101Y-82229529D01*
X102528255Y-82318499D01*
X102641501Y-82431745D01*
X102730471Y-82564899D01*
X102791758Y-82712858D01*
X102823000Y-82869925D01*
X102823000Y-83030075D01*
X102791758Y-83187142D01*
X102730471Y-83335101D01*
X102641501Y-83468255D01*
X102528255Y-83581501D01*
X102395101Y-83670471D01*
X102247142Y-83731758D01*
X102090075Y-83763000D01*
X101929925Y-83763000D01*
X101772858Y-83731758D01*
X101624899Y-83670471D01*
X101491745Y-83581501D01*
X101378499Y-83468255D01*
X101289529Y-83335101D01*
X101228242Y-83187142D01*
X101197000Y-83030075D01*
X101197000Y-82869925D01*
X101228242Y-82712858D01*
X101289529Y-82564899D01*
X101378499Y-82431745D01*
X101491745Y-82318499D01*
X101624899Y-82229529D01*
X101772858Y-82168242D01*
X101929925Y-82137000D01*
X102090075Y-82137000D01*
X102247142Y-82168242D01*
X102247142Y-82168242D01*
G37*
G36*
X94377142Y-82168242D02*
G01*
X94525101Y-82229529D01*
X94658255Y-82318499D01*
X94771501Y-82431745D01*
X94860471Y-82564899D01*
X94921758Y-82712858D01*
X94953000Y-82869925D01*
X94953000Y-83030075D01*
X94921758Y-83187142D01*
X94860471Y-83335101D01*
X94771501Y-83468255D01*
X94658255Y-83581501D01*
X94525101Y-83670471D01*
X94377142Y-83731758D01*
X94220075Y-83763000D01*
X94059925Y-83763000D01*
X93902858Y-83731758D01*
X93754899Y-83670471D01*
X93621745Y-83581501D01*
X93508499Y-83468255D01*
X93419529Y-83335101D01*
X93358242Y-83187142D01*
X93327000Y-83030075D01*
X93327000Y-82869925D01*
X93358242Y-82712858D01*
X93419529Y-82564899D01*
X93508499Y-82431745D01*
X93621745Y-82318499D01*
X93754899Y-82229529D01*
X93902858Y-82168242D01*
X94059925Y-82137000D01*
X94220075Y-82137000D01*
X94377142Y-82168242D01*
X94377142Y-82168242D01*
G37*
G36*
X89551000Y-82951000D02*
G01*
X87849000Y-82951000D01*
X87849000Y-81249000D01*
X89551000Y-81249000D01*
X89551000Y-82951000D01*
X89551000Y-82951000D01*
G37*
G36*
X60028228Y-80351703D02*
G01*
X60183100Y-80415853D01*
X60322481Y-80508985D01*
X60441015Y-80627519D01*
X60534147Y-80766900D01*
X60598297Y-80921772D01*
X60631000Y-81086184D01*
X60631000Y-81253816D01*
X60598297Y-81418228D01*
X60534147Y-81573100D01*
X60441015Y-81712481D01*
X60322481Y-81831015D01*
X60183100Y-81924147D01*
X60028228Y-81988297D01*
X59863816Y-82021000D01*
X59696184Y-82021000D01*
X59531772Y-81988297D01*
X59376900Y-81924147D01*
X59237519Y-81831015D01*
X59118985Y-81712481D01*
X59025853Y-81573100D01*
X58961703Y-81418228D01*
X58929000Y-81253816D01*
X58929000Y-81086184D01*
X58961703Y-80921772D01*
X59025853Y-80766900D01*
X59118985Y-80627519D01*
X59237519Y-80508985D01*
X59376900Y-80415853D01*
X59531772Y-80351703D01*
X59696184Y-80319000D01*
X59863816Y-80319000D01*
X60028228Y-80351703D01*
X60028228Y-80351703D01*
G37*
G36*
X67448228Y-80281703D02*
G01*
X67603100Y-80345853D01*
X67742481Y-80438985D01*
X67861015Y-80557519D01*
X67954147Y-80696900D01*
X68018297Y-80851772D01*
X68051000Y-81016184D01*
X68051000Y-81183816D01*
X68018297Y-81348228D01*
X67954147Y-81503100D01*
X67861015Y-81642481D01*
X67742481Y-81761015D01*
X67603100Y-81854147D01*
X67448228Y-81918297D01*
X67283816Y-81951000D01*
X67116184Y-81951000D01*
X66951772Y-81918297D01*
X66796900Y-81854147D01*
X66657519Y-81761015D01*
X66538985Y-81642481D01*
X66445853Y-81503100D01*
X66381703Y-81348228D01*
X66349000Y-81183816D01*
X66349000Y-81016184D01*
X66381703Y-80851772D01*
X66445853Y-80696900D01*
X66538985Y-80557519D01*
X66657519Y-80438985D01*
X66796900Y-80345853D01*
X66951772Y-80281703D01*
X67116184Y-80249000D01*
X67283816Y-80249000D01*
X67448228Y-80281703D01*
X67448228Y-80281703D01*
G37*
G36*
X123153512Y-79453927D02*
G01*
X123302812Y-79483624D01*
X123466784Y-79551544D01*
X123614354Y-79650147D01*
X123739853Y-79775646D01*
X123838456Y-79923216D01*
X123906376Y-80087188D01*
X123923416Y-80172857D01*
X123941000Y-80261258D01*
X123941000Y-80438742D01*
X123936073Y-80463512D01*
X123906376Y-80612812D01*
X123838456Y-80776784D01*
X123739853Y-80924354D01*
X123614354Y-81049853D01*
X123466784Y-81148456D01*
X123302812Y-81216376D01*
X123153512Y-81246073D01*
X123128742Y-81251000D01*
X122951258Y-81251000D01*
X122926488Y-81246073D01*
X122777188Y-81216376D01*
X122613216Y-81148456D01*
X122465646Y-81049853D01*
X122340147Y-80924354D01*
X122241544Y-80776784D01*
X122173624Y-80612812D01*
X122143927Y-80463512D01*
X122139000Y-80438742D01*
X122139000Y-80261258D01*
X122156584Y-80172857D01*
X122173624Y-80087188D01*
X122241544Y-79923216D01*
X122340147Y-79775646D01*
X122465646Y-79650147D01*
X122613216Y-79551544D01*
X122777188Y-79483624D01*
X122926488Y-79453927D01*
X122951258Y-79449000D01*
X123128742Y-79449000D01*
X123153512Y-79453927D01*
X123153512Y-79453927D01*
G37*
G36*
X120653512Y-79453927D02*
G01*
X120802812Y-79483624D01*
X120966784Y-79551544D01*
X121114354Y-79650147D01*
X121239853Y-79775646D01*
X121338456Y-79923216D01*
X121406376Y-80087188D01*
X121423416Y-80172857D01*
X121441000Y-80261258D01*
X121441000Y-80438742D01*
X121436073Y-80463512D01*
X121406376Y-80612812D01*
X121338456Y-80776784D01*
X121239853Y-80924354D01*
X121114354Y-81049853D01*
X120966784Y-81148456D01*
X120802812Y-81216376D01*
X120653512Y-81246073D01*
X120628742Y-81251000D01*
X120451258Y-81251000D01*
X120426488Y-81246073D01*
X120277188Y-81216376D01*
X120113216Y-81148456D01*
X119965646Y-81049853D01*
X119840147Y-80924354D01*
X119741544Y-80776784D01*
X119673624Y-80612812D01*
X119643927Y-80463512D01*
X119639000Y-80438742D01*
X119639000Y-80261258D01*
X119656584Y-80172857D01*
X119673624Y-80087188D01*
X119741544Y-79923216D01*
X119840147Y-79775646D01*
X119965646Y-79650147D01*
X120113216Y-79551544D01*
X120277188Y-79483624D01*
X120426488Y-79453927D01*
X120451258Y-79449000D01*
X120628742Y-79449000D01*
X120653512Y-79453927D01*
X120653512Y-79453927D01*
G37*
G36*
X125653512Y-79453927D02*
G01*
X125802812Y-79483624D01*
X125966784Y-79551544D01*
X126114354Y-79650147D01*
X126239853Y-79775646D01*
X126338456Y-79923216D01*
X126406376Y-80087188D01*
X126423416Y-80172857D01*
X126441000Y-80261258D01*
X126441000Y-80438742D01*
X126436073Y-80463512D01*
X126406376Y-80612812D01*
X126338456Y-80776784D01*
X126239853Y-80924354D01*
X126114354Y-81049853D01*
X125966784Y-81148456D01*
X125802812Y-81216376D01*
X125653512Y-81246073D01*
X125628742Y-81251000D01*
X125451258Y-81251000D01*
X125426488Y-81246073D01*
X125277188Y-81216376D01*
X125113216Y-81148456D01*
X124965646Y-81049853D01*
X124840147Y-80924354D01*
X124741544Y-80776784D01*
X124673624Y-80612812D01*
X124643927Y-80463512D01*
X124639000Y-80438742D01*
X124639000Y-80261258D01*
X124656584Y-80172857D01*
X124673624Y-80087188D01*
X124741544Y-79923216D01*
X124840147Y-79775646D01*
X124965646Y-79650147D01*
X125113216Y-79551544D01*
X125277188Y-79483624D01*
X125426488Y-79453927D01*
X125451258Y-79449000D01*
X125628742Y-79449000D01*
X125653512Y-79453927D01*
X125653512Y-79453927D01*
G37*
G36*
X102247142Y-79628242D02*
G01*
X102395101Y-79689529D01*
X102528255Y-79778499D01*
X102641501Y-79891745D01*
X102730471Y-80024899D01*
X102791758Y-80172858D01*
X102823000Y-80329925D01*
X102823000Y-80490075D01*
X102791758Y-80647142D01*
X102730471Y-80795101D01*
X102641501Y-80928255D01*
X102528255Y-81041501D01*
X102395101Y-81130471D01*
X102247142Y-81191758D01*
X102090075Y-81223000D01*
X101929925Y-81223000D01*
X101772858Y-81191758D01*
X101624899Y-81130471D01*
X101491745Y-81041501D01*
X101378499Y-80928255D01*
X101289529Y-80795101D01*
X101228242Y-80647142D01*
X101197000Y-80490075D01*
X101197000Y-80329925D01*
X101228242Y-80172858D01*
X101289529Y-80024899D01*
X101378499Y-79891745D01*
X101491745Y-79778499D01*
X101624899Y-79689529D01*
X101772858Y-79628242D01*
X101929925Y-79597000D01*
X102090075Y-79597000D01*
X102247142Y-79628242D01*
X102247142Y-79628242D01*
G37*
G36*
X94377142Y-79628242D02*
G01*
X94525101Y-79689529D01*
X94658255Y-79778499D01*
X94771501Y-79891745D01*
X94860471Y-80024899D01*
X94921758Y-80172858D01*
X94953000Y-80329925D01*
X94953000Y-80490075D01*
X94921758Y-80647142D01*
X94860471Y-80795101D01*
X94771501Y-80928255D01*
X94658255Y-81041501D01*
X94525101Y-81130471D01*
X94377142Y-81191758D01*
X94220075Y-81223000D01*
X94059925Y-81223000D01*
X93902858Y-81191758D01*
X93754899Y-81130471D01*
X93621745Y-81041501D01*
X93508499Y-80928255D01*
X93419529Y-80795101D01*
X93358242Y-80647142D01*
X93327000Y-80490075D01*
X93327000Y-80329925D01*
X93358242Y-80172858D01*
X93419529Y-80024899D01*
X93508499Y-79891745D01*
X93621745Y-79778499D01*
X93754899Y-79689529D01*
X93902858Y-79628242D01*
X94059925Y-79597000D01*
X94220075Y-79597000D01*
X94377142Y-79628242D01*
X94377142Y-79628242D01*
G37*
G36*
X54706564Y-77489389D02*
G01*
X54888864Y-77564900D01*
X54897835Y-77568616D01*
X55069973Y-77683635D01*
X55216365Y-77830027D01*
X55296579Y-77950075D01*
X55331385Y-78002167D01*
X55410611Y-78193436D01*
X55451000Y-78396484D01*
X55451000Y-78603516D01*
X55410611Y-78806564D01*
X55380926Y-78878229D01*
X55331384Y-78997835D01*
X55216365Y-79169973D01*
X55069973Y-79316365D01*
X54897835Y-79431384D01*
X54897834Y-79431385D01*
X54897833Y-79431385D01*
X54706564Y-79510611D01*
X54503516Y-79551000D01*
X54296484Y-79551000D01*
X54093436Y-79510611D01*
X53902167Y-79431385D01*
X53902166Y-79431385D01*
X53902165Y-79431384D01*
X53730027Y-79316365D01*
X53583635Y-79169973D01*
X53468616Y-78997835D01*
X53419074Y-78878229D01*
X53389389Y-78806564D01*
X53349000Y-78603516D01*
X53349000Y-78396484D01*
X53389389Y-78193436D01*
X53468615Y-78002167D01*
X53503422Y-77950075D01*
X53583635Y-77830027D01*
X53730027Y-77683635D01*
X53902165Y-77568616D01*
X53911136Y-77564900D01*
X54093436Y-77489389D01*
X54296484Y-77449000D01*
X54503516Y-77449000D01*
X54706564Y-77489389D01*
X54706564Y-77489389D01*
G37*
G36*
X50206564Y-77489389D02*
G01*
X50388864Y-77564900D01*
X50397835Y-77568616D01*
X50569973Y-77683635D01*
X50716365Y-77830027D01*
X50796579Y-77950075D01*
X50831385Y-78002167D01*
X50910611Y-78193436D01*
X50951000Y-78396484D01*
X50951000Y-78603516D01*
X50910611Y-78806564D01*
X50880926Y-78878229D01*
X50831384Y-78997835D01*
X50716365Y-79169973D01*
X50569973Y-79316365D01*
X50397835Y-79431384D01*
X50397834Y-79431385D01*
X50397833Y-79431385D01*
X50206564Y-79510611D01*
X50003516Y-79551000D01*
X49796484Y-79551000D01*
X49593436Y-79510611D01*
X49402167Y-79431385D01*
X49402166Y-79431385D01*
X49402165Y-79431384D01*
X49230027Y-79316365D01*
X49083635Y-79169973D01*
X48968616Y-78997835D01*
X48919074Y-78878229D01*
X48889389Y-78806564D01*
X48849000Y-78603516D01*
X48849000Y-78396484D01*
X48889389Y-78193436D01*
X48968615Y-78002167D01*
X49003422Y-77950075D01*
X49083635Y-77830027D01*
X49230027Y-77683635D01*
X49402165Y-77568616D01*
X49411136Y-77564900D01*
X49593436Y-77489389D01*
X49796484Y-77449000D01*
X50003516Y-77449000D01*
X50206564Y-77489389D01*
X50206564Y-77489389D01*
G37*
G36*
X60028228Y-77811703D02*
G01*
X60183100Y-77875853D01*
X60322481Y-77968985D01*
X60441015Y-78087519D01*
X60534147Y-78226900D01*
X60598297Y-78381772D01*
X60631000Y-78546184D01*
X60631000Y-78713816D01*
X60598297Y-78878228D01*
X60534147Y-79033100D01*
X60441015Y-79172481D01*
X60322481Y-79291015D01*
X60183100Y-79384147D01*
X60028228Y-79448297D01*
X59863816Y-79481000D01*
X59696184Y-79481000D01*
X59531772Y-79448297D01*
X59376900Y-79384147D01*
X59237519Y-79291015D01*
X59118985Y-79172481D01*
X59025853Y-79033100D01*
X58961703Y-78878228D01*
X58929000Y-78713816D01*
X58929000Y-78546184D01*
X58961703Y-78381772D01*
X59025853Y-78226900D01*
X59118985Y-78087519D01*
X59237519Y-77968985D01*
X59376900Y-77875853D01*
X59531772Y-77811703D01*
X59696184Y-77779000D01*
X59863816Y-77779000D01*
X60028228Y-77811703D01*
X60028228Y-77811703D01*
G37*
G36*
X102247142Y-77168242D02*
G01*
X102395101Y-77229529D01*
X102528255Y-77318499D01*
X102641501Y-77431745D01*
X102730471Y-77564899D01*
X102791758Y-77712858D01*
X102823000Y-77869925D01*
X102823000Y-78030075D01*
X102791758Y-78187142D01*
X102730471Y-78335101D01*
X102641501Y-78468255D01*
X102528255Y-78581501D01*
X102395101Y-78670471D01*
X102247142Y-78731758D01*
X102090075Y-78763000D01*
X101929925Y-78763000D01*
X101772858Y-78731758D01*
X101624899Y-78670471D01*
X101491745Y-78581501D01*
X101378499Y-78468255D01*
X101289529Y-78335101D01*
X101228242Y-78187142D01*
X101197000Y-78030075D01*
X101197000Y-77869925D01*
X101228242Y-77712858D01*
X101289529Y-77564899D01*
X101378499Y-77431745D01*
X101491745Y-77318499D01*
X101624899Y-77229529D01*
X101772858Y-77168242D01*
X101929925Y-77137000D01*
X102090075Y-77137000D01*
X102247142Y-77168242D01*
X102247142Y-77168242D01*
G37*
G36*
X94377142Y-77088242D02*
G01*
X94525101Y-77149529D01*
X94658255Y-77238499D01*
X94771501Y-77351745D01*
X94860471Y-77484899D01*
X94921758Y-77632858D01*
X94953000Y-77789925D01*
X94953000Y-77950075D01*
X94921758Y-78107142D01*
X94860471Y-78255101D01*
X94771501Y-78388255D01*
X94658255Y-78501501D01*
X94525101Y-78590471D01*
X94377142Y-78651758D01*
X94220075Y-78683000D01*
X94059925Y-78683000D01*
X93902858Y-78651758D01*
X93754899Y-78590471D01*
X93621745Y-78501501D01*
X93508499Y-78388255D01*
X93419529Y-78255101D01*
X93358242Y-78107142D01*
X93327000Y-77950075D01*
X93327000Y-77789925D01*
X93358242Y-77632858D01*
X93419529Y-77484899D01*
X93508499Y-77351745D01*
X93621745Y-77238499D01*
X93754899Y-77149529D01*
X93902858Y-77088242D01*
X94059925Y-77057000D01*
X94220075Y-77057000D01*
X94377142Y-77088242D01*
X94377142Y-77088242D01*
G37*
G36*
X60028228Y-75271703D02*
G01*
X60183100Y-75335853D01*
X60322481Y-75428985D01*
X60441015Y-75547519D01*
X60534147Y-75686900D01*
X60598297Y-75841772D01*
X60631000Y-76006184D01*
X60631000Y-76173816D01*
X60598297Y-76338228D01*
X60534147Y-76493100D01*
X60441015Y-76632481D01*
X60322481Y-76751015D01*
X60183100Y-76844147D01*
X60028228Y-76908297D01*
X59863816Y-76941000D01*
X59696184Y-76941000D01*
X59531772Y-76908297D01*
X59376900Y-76844147D01*
X59237519Y-76751015D01*
X59118985Y-76632481D01*
X59025853Y-76493100D01*
X58961703Y-76338228D01*
X58929000Y-76173816D01*
X58929000Y-76006184D01*
X58961703Y-75841772D01*
X59025853Y-75686900D01*
X59118985Y-75547519D01*
X59237519Y-75428985D01*
X59376900Y-75335853D01*
X59531772Y-75271703D01*
X59696184Y-75239000D01*
X59863816Y-75239000D01*
X60028228Y-75271703D01*
X60028228Y-75271703D01*
G37*
G36*
X102247142Y-74668242D02*
G01*
X102395101Y-74729529D01*
X102528255Y-74818499D01*
X102641501Y-74931745D01*
X102730471Y-75064899D01*
X102791758Y-75212858D01*
X102823000Y-75369925D01*
X102823000Y-75530075D01*
X102791758Y-75687142D01*
X102730471Y-75835101D01*
X102641501Y-75968255D01*
X102528255Y-76081501D01*
X102395101Y-76170471D01*
X102247142Y-76231758D01*
X102090075Y-76263000D01*
X101929925Y-76263000D01*
X101772858Y-76231758D01*
X101624899Y-76170471D01*
X101491745Y-76081501D01*
X101378499Y-75968255D01*
X101289529Y-75835101D01*
X101228242Y-75687142D01*
X101197000Y-75530075D01*
X101197000Y-75369925D01*
X101228242Y-75212858D01*
X101289529Y-75064899D01*
X101378499Y-74931745D01*
X101491745Y-74818499D01*
X101624899Y-74729529D01*
X101772858Y-74668242D01*
X101929925Y-74637000D01*
X102090075Y-74637000D01*
X102247142Y-74668242D01*
X102247142Y-74668242D01*
G37*
G36*
X94377142Y-74548242D02*
G01*
X94525101Y-74609529D01*
X94658255Y-74698499D01*
X94771501Y-74811745D01*
X94860471Y-74944899D01*
X94921758Y-75092858D01*
X94953000Y-75249925D01*
X94953000Y-75410075D01*
X94921758Y-75567142D01*
X94860471Y-75715101D01*
X94771501Y-75848255D01*
X94658255Y-75961501D01*
X94525101Y-76050471D01*
X94377142Y-76111758D01*
X94220075Y-76143000D01*
X94059925Y-76143000D01*
X93902858Y-76111758D01*
X93754899Y-76050471D01*
X93621745Y-75961501D01*
X93508499Y-75848255D01*
X93419529Y-75715101D01*
X93358242Y-75567142D01*
X93327000Y-75410075D01*
X93327000Y-75249925D01*
X93358242Y-75092858D01*
X93419529Y-74944899D01*
X93508499Y-74811745D01*
X93621745Y-74698499D01*
X93754899Y-74609529D01*
X93902858Y-74548242D01*
X94059925Y-74517000D01*
X94220075Y-74517000D01*
X94377142Y-74548242D01*
X94377142Y-74548242D01*
G37*
G36*
X129079487Y-72098996D02*
G01*
X129316253Y-72197068D01*
X129316255Y-72197069D01*
X129529339Y-72339447D01*
X129710553Y-72520661D01*
X129851567Y-72731703D01*
X129852932Y-72733747D01*
X129951004Y-72970513D01*
X130001000Y-73221861D01*
X130001000Y-73478139D01*
X129951004Y-73729487D01*
X129858381Y-73953097D01*
X129852931Y-73966255D01*
X129710553Y-74179339D01*
X129529339Y-74360553D01*
X129316255Y-74502931D01*
X129316254Y-74502932D01*
X129316253Y-74502932D01*
X129079487Y-74601004D01*
X128828139Y-74651000D01*
X128571861Y-74651000D01*
X128320513Y-74601004D01*
X128083747Y-74502932D01*
X128083746Y-74502932D01*
X128083745Y-74502931D01*
X127870661Y-74360553D01*
X127689447Y-74179339D01*
X127547069Y-73966255D01*
X127541619Y-73953097D01*
X127448996Y-73729487D01*
X127399000Y-73478139D01*
X127399000Y-73221861D01*
X127448996Y-72970513D01*
X127547068Y-72733747D01*
X127548434Y-72731703D01*
X127689447Y-72520661D01*
X127870661Y-72339447D01*
X128083745Y-72197069D01*
X128083747Y-72197068D01*
X128320513Y-72098996D01*
X128571861Y-72049000D01*
X128828139Y-72049000D01*
X129079487Y-72098996D01*
X129079487Y-72098996D01*
G37*
G36*
X117679487Y-72098996D02*
G01*
X117916253Y-72197068D01*
X117916255Y-72197069D01*
X118129339Y-72339447D01*
X118310553Y-72520661D01*
X118451567Y-72731703D01*
X118452932Y-72733747D01*
X118551004Y-72970513D01*
X118601000Y-73221861D01*
X118601000Y-73478139D01*
X118551004Y-73729487D01*
X118458381Y-73953097D01*
X118452931Y-73966255D01*
X118310553Y-74179339D01*
X118129339Y-74360553D01*
X117916255Y-74502931D01*
X117916254Y-74502932D01*
X117916253Y-74502932D01*
X117679487Y-74601004D01*
X117428139Y-74651000D01*
X117171861Y-74651000D01*
X116920513Y-74601004D01*
X116683747Y-74502932D01*
X116683746Y-74502932D01*
X116683745Y-74502931D01*
X116470661Y-74360553D01*
X116289447Y-74179339D01*
X116147069Y-73966255D01*
X116141619Y-73953097D01*
X116048996Y-73729487D01*
X115999000Y-73478139D01*
X115999000Y-73221861D01*
X116048996Y-72970513D01*
X116147068Y-72733747D01*
X116148434Y-72731703D01*
X116289447Y-72520661D01*
X116470661Y-72339447D01*
X116683745Y-72197069D01*
X116683747Y-72197068D01*
X116920513Y-72098996D01*
X117171861Y-72049000D01*
X117428139Y-72049000D01*
X117679487Y-72098996D01*
X117679487Y-72098996D01*
G37*
G36*
X60028228Y-72731703D02*
G01*
X60183100Y-72795853D01*
X60322481Y-72888985D01*
X60441015Y-73007519D01*
X60534147Y-73146900D01*
X60598297Y-73301772D01*
X60631000Y-73466184D01*
X60631000Y-73633816D01*
X60598297Y-73798228D01*
X60534147Y-73953100D01*
X60441015Y-74092481D01*
X60322481Y-74211015D01*
X60183100Y-74304147D01*
X60028228Y-74368297D01*
X59863816Y-74401000D01*
X59696184Y-74401000D01*
X59531772Y-74368297D01*
X59376900Y-74304147D01*
X59237519Y-74211015D01*
X59118985Y-74092481D01*
X59025853Y-73953100D01*
X58961703Y-73798228D01*
X58929000Y-73633816D01*
X58929000Y-73466184D01*
X58961703Y-73301772D01*
X59025853Y-73146900D01*
X59118985Y-73007519D01*
X59237519Y-72888985D01*
X59376900Y-72795853D01*
X59531772Y-72731703D01*
X59696184Y-72699000D01*
X59863816Y-72699000D01*
X60028228Y-72731703D01*
X60028228Y-72731703D01*
G37*
G36*
X111966823Y-72701313D02*
G01*
X112127242Y-72749976D01*
X112259906Y-72820886D01*
X112275078Y-72828996D01*
X112404659Y-72935341D01*
X112511004Y-73064922D01*
X112511005Y-73064924D01*
X112590024Y-73212758D01*
X112638687Y-73373177D01*
X112655117Y-73540000D01*
X112638687Y-73706823D01*
X112590024Y-73867242D01*
X112544133Y-73953097D01*
X112511004Y-74015078D01*
X112404659Y-74144659D01*
X112275078Y-74251004D01*
X112275076Y-74251005D01*
X112127242Y-74330024D01*
X111966823Y-74378687D01*
X111841804Y-74391000D01*
X111758196Y-74391000D01*
X111633177Y-74378687D01*
X111472758Y-74330024D01*
X111324924Y-74251005D01*
X111324922Y-74251004D01*
X111195341Y-74144659D01*
X111088996Y-74015078D01*
X111055867Y-73953097D01*
X111009976Y-73867242D01*
X110961313Y-73706823D01*
X110944883Y-73540000D01*
X110961313Y-73373177D01*
X111009976Y-73212758D01*
X111088995Y-73064924D01*
X111088996Y-73064922D01*
X111195341Y-72935341D01*
X111324922Y-72828996D01*
X111340094Y-72820886D01*
X111472758Y-72749976D01*
X111633177Y-72701313D01*
X111758196Y-72689000D01*
X111841804Y-72689000D01*
X111966823Y-72701313D01*
X111966823Y-72701313D01*
G37*
G36*
X107866823Y-72701313D02*
G01*
X108027242Y-72749976D01*
X108159906Y-72820886D01*
X108175078Y-72828996D01*
X108304659Y-72935341D01*
X108411004Y-73064922D01*
X108411005Y-73064924D01*
X108490024Y-73212758D01*
X108538687Y-73373177D01*
X108555117Y-73540000D01*
X108538687Y-73706823D01*
X108490024Y-73867242D01*
X108444133Y-73953097D01*
X108411004Y-74015078D01*
X108304659Y-74144659D01*
X108175078Y-74251004D01*
X108175076Y-74251005D01*
X108027242Y-74330024D01*
X107866823Y-74378687D01*
X107741804Y-74391000D01*
X107658196Y-74391000D01*
X107533177Y-74378687D01*
X107372758Y-74330024D01*
X107224924Y-74251005D01*
X107224922Y-74251004D01*
X107095341Y-74144659D01*
X106988996Y-74015078D01*
X106955867Y-73953097D01*
X106909976Y-73867242D01*
X106861313Y-73706823D01*
X106844883Y-73540000D01*
X106861313Y-73373177D01*
X106909976Y-73212758D01*
X106988995Y-73064924D01*
X106988996Y-73064922D01*
X107095341Y-72935341D01*
X107224922Y-72828996D01*
X107240094Y-72820886D01*
X107372758Y-72749976D01*
X107533177Y-72701313D01*
X107658196Y-72689000D01*
X107741804Y-72689000D01*
X107866823Y-72701313D01*
X107866823Y-72701313D01*
G37*
G36*
X50306564Y-70889389D02*
G01*
X50497833Y-70968615D01*
X50497835Y-70968616D01*
X50669973Y-71083635D01*
X50816365Y-71230027D01*
X50931385Y-71402167D01*
X51010611Y-71593436D01*
X51051000Y-71796484D01*
X51051000Y-72003516D01*
X51010611Y-72206564D01*
X50955569Y-72339447D01*
X50931384Y-72397835D01*
X50816365Y-72569973D01*
X50669973Y-72716365D01*
X50497835Y-72831384D01*
X50497834Y-72831385D01*
X50497833Y-72831385D01*
X50306564Y-72910611D01*
X50103516Y-72951000D01*
X49896484Y-72951000D01*
X49693436Y-72910611D01*
X49502167Y-72831385D01*
X49502166Y-72831385D01*
X49502165Y-72831384D01*
X49330027Y-72716365D01*
X49183635Y-72569973D01*
X49068616Y-72397835D01*
X49044431Y-72339447D01*
X48989389Y-72206564D01*
X48949000Y-72003516D01*
X48949000Y-71796484D01*
X48989389Y-71593436D01*
X49068615Y-71402167D01*
X49183635Y-71230027D01*
X49330027Y-71083635D01*
X49502165Y-70968616D01*
X49502167Y-70968615D01*
X49693436Y-70889389D01*
X49896484Y-70849000D01*
X50103516Y-70849000D01*
X50306564Y-70889389D01*
X50306564Y-70889389D01*
G37*
G36*
X54806564Y-70889389D02*
G01*
X54997833Y-70968615D01*
X54997835Y-70968616D01*
X55169973Y-71083635D01*
X55316365Y-71230027D01*
X55431385Y-71402167D01*
X55510611Y-71593436D01*
X55551000Y-71796484D01*
X55551000Y-72003516D01*
X55510611Y-72206564D01*
X55455569Y-72339447D01*
X55431384Y-72397835D01*
X55316365Y-72569973D01*
X55169973Y-72716365D01*
X54997835Y-72831384D01*
X54997834Y-72831385D01*
X54997833Y-72831385D01*
X54806564Y-72910611D01*
X54603516Y-72951000D01*
X54396484Y-72951000D01*
X54193436Y-72910611D01*
X54002167Y-72831385D01*
X54002166Y-72831385D01*
X54002165Y-72831384D01*
X53830027Y-72716365D01*
X53683635Y-72569973D01*
X53568616Y-72397835D01*
X53544431Y-72339447D01*
X53489389Y-72206564D01*
X53449000Y-72003516D01*
X53449000Y-71796484D01*
X53489389Y-71593436D01*
X53568615Y-71402167D01*
X53683635Y-71230027D01*
X53830027Y-71083635D01*
X54002165Y-70968616D01*
X54002167Y-70968615D01*
X54193436Y-70889389D01*
X54396484Y-70849000D01*
X54603516Y-70849000D01*
X54806564Y-70889389D01*
X54806564Y-70889389D01*
G37*
G36*
X60028228Y-70191703D02*
G01*
X60183100Y-70255853D01*
X60322481Y-70348985D01*
X60441015Y-70467519D01*
X60534147Y-70606900D01*
X60598297Y-70761772D01*
X60631000Y-70926184D01*
X60631000Y-71093816D01*
X60598297Y-71258228D01*
X60534147Y-71413100D01*
X60441015Y-71552481D01*
X60322481Y-71671015D01*
X60183100Y-71764147D01*
X60028228Y-71828297D01*
X59863816Y-71861000D01*
X59696184Y-71861000D01*
X59531772Y-71828297D01*
X59376900Y-71764147D01*
X59237519Y-71671015D01*
X59118985Y-71552481D01*
X59025853Y-71413100D01*
X58961703Y-71258228D01*
X58929000Y-71093816D01*
X58929000Y-70926184D01*
X58961703Y-70761772D01*
X59025853Y-70606900D01*
X59118985Y-70467519D01*
X59237519Y-70348985D01*
X59376900Y-70255853D01*
X59531772Y-70191703D01*
X59696184Y-70159000D01*
X59863816Y-70159000D01*
X60028228Y-70191703D01*
X60028228Y-70191703D01*
G37*
G36*
X95769500Y-71209500D02*
G01*
X94270500Y-71209500D01*
X94270500Y-69710500D01*
X95769500Y-69710500D01*
X95769500Y-71209500D01*
X95769500Y-71209500D01*
G37*
G36*
X87494425Y-69714599D02*
G01*
X87618621Y-69739302D01*
X87755022Y-69795801D01*
X87877779Y-69877825D01*
X87982175Y-69982221D01*
X88064199Y-70104978D01*
X88120698Y-70241379D01*
X88142101Y-70348985D01*
X88149030Y-70383815D01*
X88149500Y-70386181D01*
X88149500Y-70533819D01*
X88120698Y-70678621D01*
X88064199Y-70815022D01*
X87982175Y-70937779D01*
X87877779Y-71042175D01*
X87755022Y-71124199D01*
X87618621Y-71180698D01*
X87494425Y-71205401D01*
X87473820Y-71209500D01*
X87326180Y-71209500D01*
X87305575Y-71205401D01*
X87181379Y-71180698D01*
X87044978Y-71124199D01*
X86922221Y-71042175D01*
X86817825Y-70937779D01*
X86735801Y-70815022D01*
X86679302Y-70678621D01*
X86650500Y-70533819D01*
X86650500Y-70386181D01*
X86650971Y-70383815D01*
X86657899Y-70348985D01*
X86679302Y-70241379D01*
X86735801Y-70104978D01*
X86817825Y-69982221D01*
X86922221Y-69877825D01*
X87044978Y-69795801D01*
X87181379Y-69739302D01*
X87305575Y-69714599D01*
X87326180Y-69710500D01*
X87473820Y-69710500D01*
X87494425Y-69714599D01*
X87494425Y-69714599D01*
G37*
G36*
X83648228Y-69481703D02*
G01*
X83803100Y-69545853D01*
X83942481Y-69638985D01*
X84061015Y-69757519D01*
X84154147Y-69896900D01*
X84218297Y-70051772D01*
X84251000Y-70216184D01*
X84251000Y-70383816D01*
X84218297Y-70548228D01*
X84154147Y-70703100D01*
X84061015Y-70842481D01*
X83942481Y-70961015D01*
X83803100Y-71054147D01*
X83648228Y-71118297D01*
X83483816Y-71151000D01*
X83316184Y-71151000D01*
X83151772Y-71118297D01*
X82996900Y-71054147D01*
X82857519Y-70961015D01*
X82738985Y-70842481D01*
X82645853Y-70703100D01*
X82581703Y-70548228D01*
X82549000Y-70383816D01*
X82549000Y-70216184D01*
X82581703Y-70051772D01*
X82645853Y-69896900D01*
X82738985Y-69757519D01*
X82857519Y-69638985D01*
X82996900Y-69545853D01*
X83151772Y-69481703D01*
X83316184Y-69449000D01*
X83483816Y-69449000D01*
X83648228Y-69481703D01*
X83648228Y-69481703D01*
G37*
G36*
X81148228Y-69481703D02*
G01*
X81303100Y-69545853D01*
X81442481Y-69638985D01*
X81561015Y-69757519D01*
X81654147Y-69896900D01*
X81718297Y-70051772D01*
X81751000Y-70216184D01*
X81751000Y-70383816D01*
X81718297Y-70548228D01*
X81654147Y-70703100D01*
X81561015Y-70842481D01*
X81442481Y-70961015D01*
X81303100Y-71054147D01*
X81148228Y-71118297D01*
X80983816Y-71151000D01*
X80816184Y-71151000D01*
X80651772Y-71118297D01*
X80496900Y-71054147D01*
X80357519Y-70961015D01*
X80238985Y-70842481D01*
X80145853Y-70703100D01*
X80081703Y-70548228D01*
X80049000Y-70383816D01*
X80049000Y-70216184D01*
X80081703Y-70051772D01*
X80145853Y-69896900D01*
X80238985Y-69757519D01*
X80357519Y-69638985D01*
X80496900Y-69545853D01*
X80651772Y-69481703D01*
X80816184Y-69449000D01*
X80983816Y-69449000D01*
X81148228Y-69481703D01*
X81148228Y-69481703D01*
G37*
G36*
X114598228Y-67911703D02*
G01*
X114753100Y-67975853D01*
X114892481Y-68068985D01*
X115011015Y-68187519D01*
X115104147Y-68326900D01*
X115168297Y-68481772D01*
X115201000Y-68646184D01*
X115201000Y-68813816D01*
X115168297Y-68978228D01*
X115104147Y-69133100D01*
X115011015Y-69272481D01*
X114892481Y-69391015D01*
X114753100Y-69484147D01*
X114598228Y-69548297D01*
X114433816Y-69581000D01*
X114266184Y-69581000D01*
X114101772Y-69548297D01*
X113946900Y-69484147D01*
X113807519Y-69391015D01*
X113688985Y-69272481D01*
X113595853Y-69133100D01*
X113531703Y-68978228D01*
X113499000Y-68813816D01*
X113499000Y-68646184D01*
X113531703Y-68481772D01*
X113595853Y-68326900D01*
X113688985Y-68187519D01*
X113807519Y-68068985D01*
X113946900Y-67975853D01*
X114101772Y-67911703D01*
X114266184Y-67879000D01*
X114433816Y-67879000D01*
X114598228Y-67911703D01*
X114598228Y-67911703D01*
G37*
G36*
X104356823Y-67891313D02*
G01*
X104517242Y-67939976D01*
X104584361Y-67975852D01*
X104665078Y-68018996D01*
X104794659Y-68125341D01*
X104901004Y-68254922D01*
X104901005Y-68254924D01*
X104980024Y-68402758D01*
X105028687Y-68563177D01*
X105045117Y-68730000D01*
X105028687Y-68896823D01*
X104980024Y-69057242D01*
X104939477Y-69133100D01*
X104901004Y-69205078D01*
X104794659Y-69334659D01*
X104665078Y-69441004D01*
X104665076Y-69441005D01*
X104517242Y-69520024D01*
X104356823Y-69568687D01*
X104231804Y-69581000D01*
X104148196Y-69581000D01*
X104023177Y-69568687D01*
X103862758Y-69520024D01*
X103714924Y-69441005D01*
X103714922Y-69441004D01*
X103585341Y-69334659D01*
X103478996Y-69205078D01*
X103440523Y-69133100D01*
X103399976Y-69057242D01*
X103351313Y-68896823D01*
X103334883Y-68730000D01*
X103351313Y-68563177D01*
X103399976Y-68402758D01*
X103478995Y-68254924D01*
X103478996Y-68254922D01*
X103585341Y-68125341D01*
X103714922Y-68018996D01*
X103795639Y-67975852D01*
X103862758Y-67939976D01*
X104023177Y-67891313D01*
X104148196Y-67879000D01*
X104231804Y-67879000D01*
X104356823Y-67891313D01*
X104356823Y-67891313D01*
G37*
G36*
X87494425Y-67174599D02*
G01*
X87618621Y-67199302D01*
X87755022Y-67255801D01*
X87877779Y-67337825D01*
X87982175Y-67442221D01*
X88064199Y-67564978D01*
X88120698Y-67701379D01*
X88149500Y-67846181D01*
X88149500Y-67993819D01*
X88120698Y-68138621D01*
X88064199Y-68275022D01*
X87982175Y-68397779D01*
X87877779Y-68502175D01*
X87755022Y-68584199D01*
X87618621Y-68640698D01*
X87494425Y-68665401D01*
X87473820Y-68669500D01*
X87326180Y-68669500D01*
X87305575Y-68665401D01*
X87181379Y-68640698D01*
X87044978Y-68584199D01*
X86922221Y-68502175D01*
X86817825Y-68397779D01*
X86735801Y-68275022D01*
X86679302Y-68138621D01*
X86650500Y-67993819D01*
X86650500Y-67846181D01*
X86679302Y-67701379D01*
X86735801Y-67564978D01*
X86817825Y-67442221D01*
X86922221Y-67337825D01*
X87044978Y-67255801D01*
X87181379Y-67199302D01*
X87305575Y-67174599D01*
X87326180Y-67170500D01*
X87473820Y-67170500D01*
X87494425Y-67174599D01*
X87494425Y-67174599D01*
G37*
G36*
X95114425Y-67174599D02*
G01*
X95238621Y-67199302D01*
X95375022Y-67255801D01*
X95497779Y-67337825D01*
X95602175Y-67442221D01*
X95684199Y-67564978D01*
X95740698Y-67701379D01*
X95769500Y-67846181D01*
X95769500Y-67993819D01*
X95740698Y-68138621D01*
X95684199Y-68275022D01*
X95602175Y-68397779D01*
X95497779Y-68502175D01*
X95375022Y-68584199D01*
X95238621Y-68640698D01*
X95114425Y-68665401D01*
X95093820Y-68669500D01*
X94946180Y-68669500D01*
X94925575Y-68665401D01*
X94801379Y-68640698D01*
X94664978Y-68584199D01*
X94542221Y-68502175D01*
X94437825Y-68397779D01*
X94355801Y-68275022D01*
X94299302Y-68138621D01*
X94270500Y-67993819D01*
X94270500Y-67846181D01*
X94299302Y-67701379D01*
X94355801Y-67564978D01*
X94437825Y-67442221D01*
X94542221Y-67337825D01*
X94664978Y-67255801D01*
X94801379Y-67199302D01*
X94925575Y-67174599D01*
X94946180Y-67170500D01*
X95093820Y-67170500D01*
X95114425Y-67174599D01*
X95114425Y-67174599D01*
G37*
G36*
X60788652Y-66069973D02*
G01*
X60924903Y-66097075D01*
X61152571Y-66191378D01*
X61357466Y-66328285D01*
X61531715Y-66502534D01*
X61630917Y-66651000D01*
X61668623Y-66707431D01*
X61762925Y-66935097D01*
X61811000Y-67176786D01*
X61811000Y-67423214D01*
X61782801Y-67564978D01*
X61762925Y-67664903D01*
X61668622Y-67892571D01*
X61531715Y-68097466D01*
X61357466Y-68271715D01*
X61152571Y-68408622D01*
X61152570Y-68408623D01*
X61152569Y-68408623D01*
X60924903Y-68502925D01*
X60683214Y-68551000D01*
X60436786Y-68551000D01*
X60195097Y-68502925D01*
X59967431Y-68408623D01*
X59967430Y-68408623D01*
X59967429Y-68408622D01*
X59762534Y-68271715D01*
X59588285Y-68097466D01*
X59451378Y-67892571D01*
X59357075Y-67664903D01*
X59337199Y-67564978D01*
X59309000Y-67423214D01*
X59309000Y-67176786D01*
X59357075Y-66935097D01*
X59451377Y-66707431D01*
X59489083Y-66651000D01*
X59588285Y-66502534D01*
X59762534Y-66328285D01*
X59967429Y-66191378D01*
X60195097Y-66097075D01*
X60331348Y-66069973D01*
X60436786Y-66049000D01*
X60683214Y-66049000D01*
X60788652Y-66069973D01*
X60788652Y-66069973D01*
G37*
G36*
X99028652Y-66069973D02*
G01*
X99164903Y-66097075D01*
X99392571Y-66191378D01*
X99597466Y-66328285D01*
X99771715Y-66502534D01*
X99870917Y-66651000D01*
X99908623Y-66707431D01*
X100002925Y-66935097D01*
X100051000Y-67176786D01*
X100051000Y-67423214D01*
X100022801Y-67564978D01*
X100002925Y-67664903D01*
X99908622Y-67892571D01*
X99771715Y-68097466D01*
X99597466Y-68271715D01*
X99392571Y-68408622D01*
X99392570Y-68408623D01*
X99392569Y-68408623D01*
X99164903Y-68502925D01*
X98923214Y-68551000D01*
X98676786Y-68551000D01*
X98435097Y-68502925D01*
X98207431Y-68408623D01*
X98207430Y-68408623D01*
X98207429Y-68408622D01*
X98002534Y-68271715D01*
X97828285Y-68097466D01*
X97691378Y-67892571D01*
X97597075Y-67664903D01*
X97577199Y-67564978D01*
X97549000Y-67423214D01*
X97549000Y-67176786D01*
X97597075Y-66935097D01*
X97691377Y-66707431D01*
X97729083Y-66651000D01*
X97828285Y-66502534D01*
X98002534Y-66328285D01*
X98207429Y-66191378D01*
X98435097Y-66097075D01*
X98571348Y-66069973D01*
X98676786Y-66049000D01*
X98923214Y-66049000D01*
X99028652Y-66069973D01*
X99028652Y-66069973D01*
G37*
G36*
X125652968Y-65453819D02*
G01*
X125802812Y-65483624D01*
X125966784Y-65551544D01*
X126114354Y-65650147D01*
X126239853Y-65775646D01*
X126338456Y-65923216D01*
X126406376Y-66087188D01*
X126441000Y-66261259D01*
X126441000Y-66438741D01*
X126406376Y-66612812D01*
X126338456Y-66776784D01*
X126239853Y-66924354D01*
X126114354Y-67049853D01*
X125966784Y-67148456D01*
X125802812Y-67216376D01*
X125653512Y-67246073D01*
X125628742Y-67251000D01*
X125451258Y-67251000D01*
X125426488Y-67246073D01*
X125277188Y-67216376D01*
X125113216Y-67148456D01*
X124965646Y-67049853D01*
X124840147Y-66924354D01*
X124741544Y-66776784D01*
X124673624Y-66612812D01*
X124639000Y-66438741D01*
X124639000Y-66261259D01*
X124673624Y-66087188D01*
X124741544Y-65923216D01*
X124840147Y-65775646D01*
X124965646Y-65650147D01*
X125113216Y-65551544D01*
X125277188Y-65483624D01*
X125427032Y-65453819D01*
X125451258Y-65449000D01*
X125628742Y-65449000D01*
X125652968Y-65453819D01*
X125652968Y-65453819D01*
G37*
G36*
X123152968Y-65453819D02*
G01*
X123302812Y-65483624D01*
X123466784Y-65551544D01*
X123614354Y-65650147D01*
X123739853Y-65775646D01*
X123838456Y-65923216D01*
X123906376Y-66087188D01*
X123941000Y-66261259D01*
X123941000Y-66438741D01*
X123906376Y-66612812D01*
X123838456Y-66776784D01*
X123739853Y-66924354D01*
X123614354Y-67049853D01*
X123466784Y-67148456D01*
X123302812Y-67216376D01*
X123153512Y-67246073D01*
X123128742Y-67251000D01*
X122951258Y-67251000D01*
X122926488Y-67246073D01*
X122777188Y-67216376D01*
X122613216Y-67148456D01*
X122465646Y-67049853D01*
X122340147Y-66924354D01*
X122241544Y-66776784D01*
X122173624Y-66612812D01*
X122139000Y-66438741D01*
X122139000Y-66261259D01*
X122173624Y-66087188D01*
X122241544Y-65923216D01*
X122340147Y-65775646D01*
X122465646Y-65650147D01*
X122613216Y-65551544D01*
X122777188Y-65483624D01*
X122927032Y-65453819D01*
X122951258Y-65449000D01*
X123128742Y-65449000D01*
X123152968Y-65453819D01*
X123152968Y-65453819D01*
G37*
G36*
X120652968Y-65453819D02*
G01*
X120802812Y-65483624D01*
X120966784Y-65551544D01*
X121114354Y-65650147D01*
X121239853Y-65775646D01*
X121338456Y-65923216D01*
X121406376Y-66087188D01*
X121441000Y-66261259D01*
X121441000Y-66438741D01*
X121406376Y-66612812D01*
X121338456Y-66776784D01*
X121239853Y-66924354D01*
X121114354Y-67049853D01*
X120966784Y-67148456D01*
X120802812Y-67216376D01*
X120653512Y-67246073D01*
X120628742Y-67251000D01*
X120451258Y-67251000D01*
X120426488Y-67246073D01*
X120277188Y-67216376D01*
X120113216Y-67148456D01*
X119965646Y-67049853D01*
X119840147Y-66924354D01*
X119741544Y-66776784D01*
X119673624Y-66612812D01*
X119639000Y-66438741D01*
X119639000Y-66261259D01*
X119673624Y-66087188D01*
X119741544Y-65923216D01*
X119840147Y-65775646D01*
X119965646Y-65650147D01*
X120113216Y-65551544D01*
X120277188Y-65483624D01*
X120427032Y-65453819D01*
X120451258Y-65449000D01*
X120628742Y-65449000D01*
X120652968Y-65453819D01*
X120652968Y-65453819D01*
G37*
G36*
X83448228Y-64981703D02*
G01*
X83603100Y-65045853D01*
X83742481Y-65138985D01*
X83861015Y-65257519D01*
X83954147Y-65396900D01*
X84018297Y-65551772D01*
X84051000Y-65716184D01*
X84051000Y-65883816D01*
X84018297Y-66048228D01*
X83954147Y-66203100D01*
X83861015Y-66342481D01*
X83742481Y-66461015D01*
X83603100Y-66554147D01*
X83448228Y-66618297D01*
X83283816Y-66651000D01*
X83116184Y-66651000D01*
X82951772Y-66618297D01*
X82796900Y-66554147D01*
X82657519Y-66461015D01*
X82538985Y-66342481D01*
X82445853Y-66203100D01*
X82381703Y-66048228D01*
X82349000Y-65883816D01*
X82349000Y-65716184D01*
X82381703Y-65551772D01*
X82445853Y-65396900D01*
X82538985Y-65257519D01*
X82657519Y-65138985D01*
X82796900Y-65045853D01*
X82951772Y-64981703D01*
X83116184Y-64949000D01*
X83283816Y-64949000D01*
X83448228Y-64981703D01*
X83448228Y-64981703D01*
G37*
G36*
X80948228Y-64981703D02*
G01*
X81103100Y-65045853D01*
X81242481Y-65138985D01*
X81361015Y-65257519D01*
X81454147Y-65396900D01*
X81518297Y-65551772D01*
X81551000Y-65716184D01*
X81551000Y-65883816D01*
X81518297Y-66048228D01*
X81454147Y-66203100D01*
X81361015Y-66342481D01*
X81242481Y-66461015D01*
X81103100Y-66554147D01*
X80948228Y-66618297D01*
X80783816Y-66651000D01*
X80616184Y-66651000D01*
X80451772Y-66618297D01*
X80296900Y-66554147D01*
X80157519Y-66461015D01*
X80038985Y-66342481D01*
X79945853Y-66203100D01*
X79881703Y-66048228D01*
X79849000Y-65883816D01*
X79849000Y-65716184D01*
X79881703Y-65551772D01*
X79945853Y-65396900D01*
X80038985Y-65257519D01*
X80157519Y-65138985D01*
X80296900Y-65045853D01*
X80451772Y-64981703D01*
X80616184Y-64949000D01*
X80783816Y-64949000D01*
X80948228Y-64981703D01*
X80948228Y-64981703D01*
G37*
G36*
X54806564Y-64389389D02*
G01*
X54957170Y-64451772D01*
X54997835Y-64468616D01*
X55169973Y-64583635D01*
X55316365Y-64730027D01*
X55407771Y-64866825D01*
X55431385Y-64902167D01*
X55510611Y-65093436D01*
X55551000Y-65296484D01*
X55551000Y-65503516D01*
X55510611Y-65706564D01*
X55498823Y-65735022D01*
X55431384Y-65897835D01*
X55316365Y-66069973D01*
X55169973Y-66216365D01*
X54997835Y-66331384D01*
X54997834Y-66331385D01*
X54997833Y-66331385D01*
X54806564Y-66410611D01*
X54603516Y-66451000D01*
X54396484Y-66451000D01*
X54193436Y-66410611D01*
X54002167Y-66331385D01*
X54002166Y-66331385D01*
X54002165Y-66331384D01*
X53830027Y-66216365D01*
X53683635Y-66069973D01*
X53568616Y-65897835D01*
X53501177Y-65735022D01*
X53489389Y-65706564D01*
X53449000Y-65503516D01*
X53449000Y-65296484D01*
X53489389Y-65093436D01*
X53568615Y-64902167D01*
X53592230Y-64866825D01*
X53683635Y-64730027D01*
X53830027Y-64583635D01*
X54002165Y-64468616D01*
X54042830Y-64451772D01*
X54193436Y-64389389D01*
X54396484Y-64349000D01*
X54603516Y-64349000D01*
X54806564Y-64389389D01*
X54806564Y-64389389D01*
G37*
G36*
X50306564Y-64389389D02*
G01*
X50457170Y-64451772D01*
X50497835Y-64468616D01*
X50669973Y-64583635D01*
X50816365Y-64730027D01*
X50907771Y-64866825D01*
X50931385Y-64902167D01*
X51010611Y-65093436D01*
X51051000Y-65296484D01*
X51051000Y-65503516D01*
X51010611Y-65706564D01*
X50998823Y-65735022D01*
X50931384Y-65897835D01*
X50816365Y-66069973D01*
X50669973Y-66216365D01*
X50497835Y-66331384D01*
X50497834Y-66331385D01*
X50497833Y-66331385D01*
X50306564Y-66410611D01*
X50103516Y-66451000D01*
X49896484Y-66451000D01*
X49693436Y-66410611D01*
X49502167Y-66331385D01*
X49502166Y-66331385D01*
X49502165Y-66331384D01*
X49330027Y-66216365D01*
X49183635Y-66069973D01*
X49068616Y-65897835D01*
X49001177Y-65735022D01*
X48989389Y-65706564D01*
X48949000Y-65503516D01*
X48949000Y-65296484D01*
X48989389Y-65093436D01*
X49068615Y-64902167D01*
X49092230Y-64866825D01*
X49183635Y-64730027D01*
X49330027Y-64583635D01*
X49502165Y-64468616D01*
X49542830Y-64451772D01*
X49693436Y-64389389D01*
X49896484Y-64349000D01*
X50103516Y-64349000D01*
X50306564Y-64389389D01*
X50306564Y-64389389D01*
G37*
G36*
X95114425Y-64634599D02*
G01*
X95238621Y-64659302D01*
X95375022Y-64715801D01*
X95497779Y-64797825D01*
X95602175Y-64902221D01*
X95684199Y-65024978D01*
X95740698Y-65161379D01*
X95769500Y-65306181D01*
X95769500Y-65453819D01*
X95740698Y-65598621D01*
X95684199Y-65735022D01*
X95602175Y-65857779D01*
X95497779Y-65962175D01*
X95375022Y-66044199D01*
X95238621Y-66100698D01*
X95114425Y-66125401D01*
X95093820Y-66129500D01*
X94946180Y-66129500D01*
X94925575Y-66125401D01*
X94801379Y-66100698D01*
X94664978Y-66044199D01*
X94542221Y-65962175D01*
X94437825Y-65857779D01*
X94355801Y-65735022D01*
X94299302Y-65598621D01*
X94270500Y-65453819D01*
X94270500Y-65306181D01*
X94299302Y-65161379D01*
X94355801Y-65024978D01*
X94437825Y-64902221D01*
X94542221Y-64797825D01*
X94664978Y-64715801D01*
X94801379Y-64659302D01*
X94925575Y-64634599D01*
X94946180Y-64630500D01*
X95093820Y-64630500D01*
X95114425Y-64634599D01*
X95114425Y-64634599D01*
G37*
G36*
X87494425Y-64634599D02*
G01*
X87618621Y-64659302D01*
X87755022Y-64715801D01*
X87877779Y-64797825D01*
X87982175Y-64902221D01*
X88064199Y-65024978D01*
X88120698Y-65161379D01*
X88149500Y-65306181D01*
X88149500Y-65453819D01*
X88120698Y-65598621D01*
X88064199Y-65735022D01*
X87982175Y-65857779D01*
X87877779Y-65962175D01*
X87755022Y-66044199D01*
X87618621Y-66100698D01*
X87494425Y-66125401D01*
X87473820Y-66129500D01*
X87326180Y-66129500D01*
X87305575Y-66125401D01*
X87181379Y-66100698D01*
X87044978Y-66044199D01*
X86922221Y-65962175D01*
X86817825Y-65857779D01*
X86735801Y-65735022D01*
X86679302Y-65598621D01*
X86650500Y-65453819D01*
X86650500Y-65306181D01*
X86679302Y-65161379D01*
X86735801Y-65024978D01*
X86817825Y-64902221D01*
X86922221Y-64797825D01*
X87044978Y-64715801D01*
X87181379Y-64659302D01*
X87305575Y-64634599D01*
X87326180Y-64630500D01*
X87473820Y-64630500D01*
X87494425Y-64634599D01*
X87494425Y-64634599D01*
G37*
G36*
X114426823Y-63861313D02*
G01*
X114587242Y-63909976D01*
X114654361Y-63945852D01*
X114735078Y-63988996D01*
X114864659Y-64095341D01*
X114971004Y-64224922D01*
X114971005Y-64224924D01*
X115050024Y-64372758D01*
X115098687Y-64533177D01*
X115115117Y-64700000D01*
X115098687Y-64866823D01*
X115050024Y-65027242D01*
X115009477Y-65103100D01*
X114971004Y-65175078D01*
X114864659Y-65304659D01*
X114735078Y-65411004D01*
X114735076Y-65411005D01*
X114587242Y-65490024D01*
X114426823Y-65538687D01*
X114301804Y-65551000D01*
X114218196Y-65551000D01*
X114093177Y-65538687D01*
X113932758Y-65490024D01*
X113784924Y-65411005D01*
X113784922Y-65411004D01*
X113655341Y-65304659D01*
X113548996Y-65175078D01*
X113510523Y-65103100D01*
X113469976Y-65027242D01*
X113421313Y-64866823D01*
X113404883Y-64700000D01*
X113421313Y-64533177D01*
X113469976Y-64372758D01*
X113548995Y-64224924D01*
X113548996Y-64224922D01*
X113655341Y-64095341D01*
X113784922Y-63988996D01*
X113865639Y-63945852D01*
X113932758Y-63909976D01*
X114093177Y-63861313D01*
X114218196Y-63849000D01*
X114301804Y-63849000D01*
X114426823Y-63861313D01*
X114426823Y-63861313D01*
G37*
G36*
X104348228Y-63881703D02*
G01*
X104503100Y-63945853D01*
X104642481Y-64038985D01*
X104761015Y-64157519D01*
X104854147Y-64296900D01*
X104918297Y-64451772D01*
X104951000Y-64616184D01*
X104951000Y-64783816D01*
X104918297Y-64948228D01*
X104854147Y-65103100D01*
X104761015Y-65242481D01*
X104642481Y-65361015D01*
X104503100Y-65454147D01*
X104348228Y-65518297D01*
X104183816Y-65551000D01*
X104016184Y-65551000D01*
X103851772Y-65518297D01*
X103696900Y-65454147D01*
X103557519Y-65361015D01*
X103438985Y-65242481D01*
X103345853Y-65103100D01*
X103281703Y-64948228D01*
X103249000Y-64783816D01*
X103249000Y-64616184D01*
X103281703Y-64451772D01*
X103345853Y-64296900D01*
X103438985Y-64157519D01*
X103557519Y-64038985D01*
X103696900Y-63945853D01*
X103851772Y-63881703D01*
X104016184Y-63849000D01*
X104183816Y-63849000D01*
X104348228Y-63881703D01*
X104348228Y-63881703D01*
G37*
G36*
X64001000Y-63901000D02*
G01*
X61399000Y-63901000D01*
X61399000Y-61299000D01*
X64001000Y-61299000D01*
X64001000Y-63901000D01*
X64001000Y-63901000D01*
G37*
G36*
X95114425Y-62094599D02*
G01*
X95238621Y-62119302D01*
X95375022Y-62175801D01*
X95497779Y-62257825D01*
X95602175Y-62362221D01*
X95684199Y-62484978D01*
X95740698Y-62621379D01*
X95769500Y-62766181D01*
X95769500Y-62913819D01*
X95740698Y-63058621D01*
X95684199Y-63195022D01*
X95602175Y-63317779D01*
X95497779Y-63422175D01*
X95375022Y-63504199D01*
X95238621Y-63560698D01*
X95114425Y-63585401D01*
X95093820Y-63589500D01*
X94946180Y-63589500D01*
X94925575Y-63585401D01*
X94801379Y-63560698D01*
X94664978Y-63504199D01*
X94542221Y-63422175D01*
X94437825Y-63317779D01*
X94355801Y-63195022D01*
X94299302Y-63058621D01*
X94270500Y-62913819D01*
X94270500Y-62766181D01*
X94299302Y-62621379D01*
X94355801Y-62484978D01*
X94437825Y-62362221D01*
X94542221Y-62257825D01*
X94664978Y-62175801D01*
X94801379Y-62119302D01*
X94925575Y-62094599D01*
X94946180Y-62090500D01*
X95093820Y-62090500D01*
X95114425Y-62094599D01*
X95114425Y-62094599D01*
G37*
G36*
X87494425Y-62094599D02*
G01*
X87618621Y-62119302D01*
X87755022Y-62175801D01*
X87877779Y-62257825D01*
X87982175Y-62362221D01*
X88064199Y-62484978D01*
X88120698Y-62621379D01*
X88149500Y-62766181D01*
X88149500Y-62913819D01*
X88120698Y-63058621D01*
X88064199Y-63195022D01*
X87982175Y-63317779D01*
X87877779Y-63422175D01*
X87755022Y-63504199D01*
X87618621Y-63560698D01*
X87494425Y-63585401D01*
X87473820Y-63589500D01*
X87326180Y-63589500D01*
X87305575Y-63585401D01*
X87181379Y-63560698D01*
X87044978Y-63504199D01*
X86922221Y-63422175D01*
X86817825Y-63317779D01*
X86735801Y-63195022D01*
X86679302Y-63058621D01*
X86650500Y-62913819D01*
X86650500Y-62766181D01*
X86679302Y-62621379D01*
X86735801Y-62484978D01*
X86817825Y-62362221D01*
X86922221Y-62257825D01*
X87044978Y-62175801D01*
X87181379Y-62119302D01*
X87305575Y-62094599D01*
X87326180Y-62090500D01*
X87473820Y-62090500D01*
X87494425Y-62094599D01*
X87494425Y-62094599D01*
G37*
G36*
X100648228Y-61781703D02*
G01*
X100803100Y-61845853D01*
X100942481Y-61938985D01*
X101061015Y-62057519D01*
X101154147Y-62196900D01*
X101218297Y-62351772D01*
X101251000Y-62516184D01*
X101251000Y-62683816D01*
X101218297Y-62848228D01*
X101154147Y-63003100D01*
X101061015Y-63142481D01*
X100942481Y-63261015D01*
X100803100Y-63354147D01*
X100648228Y-63418297D01*
X100483816Y-63451000D01*
X100316184Y-63451000D01*
X100151772Y-63418297D01*
X99996900Y-63354147D01*
X99857519Y-63261015D01*
X99738985Y-63142481D01*
X99645853Y-63003100D01*
X99581703Y-62848228D01*
X99549000Y-62683816D01*
X99549000Y-62516184D01*
X99581703Y-62351772D01*
X99645853Y-62196900D01*
X99738985Y-62057519D01*
X99857519Y-61938985D01*
X99996900Y-61845853D01*
X100151772Y-61781703D01*
X100316184Y-61749000D01*
X100483816Y-61749000D01*
X100648228Y-61781703D01*
X100648228Y-61781703D01*
G37*
G36*
X98148228Y-61781703D02*
G01*
X98303100Y-61845853D01*
X98442481Y-61938985D01*
X98561015Y-62057519D01*
X98654147Y-62196900D01*
X98718297Y-62351772D01*
X98751000Y-62516184D01*
X98751000Y-62683816D01*
X98718297Y-62848228D01*
X98654147Y-63003100D01*
X98561015Y-63142481D01*
X98442481Y-63261015D01*
X98303100Y-63354147D01*
X98148228Y-63418297D01*
X97983816Y-63451000D01*
X97816184Y-63451000D01*
X97651772Y-63418297D01*
X97496900Y-63354147D01*
X97357519Y-63261015D01*
X97238985Y-63142481D01*
X97145853Y-63003100D01*
X97081703Y-62848228D01*
X97049000Y-62683816D01*
X97049000Y-62516184D01*
X97081703Y-62351772D01*
X97145853Y-62196900D01*
X97238985Y-62057519D01*
X97357519Y-61938985D01*
X97496900Y-61845853D01*
X97651772Y-61781703D01*
X97816184Y-61749000D01*
X97983816Y-61749000D01*
X98148228Y-61781703D01*
X98148228Y-61781703D01*
G37*
G36*
X106011981Y-60297468D02*
G01*
X106194151Y-60372926D01*
X106358100Y-60482473D01*
X106497527Y-60621900D01*
X106607074Y-60785849D01*
X106607075Y-60785851D01*
X106614220Y-60803100D01*
X106682532Y-60968019D01*
X106698740Y-61049500D01*
X106719556Y-61154148D01*
X106721000Y-61161410D01*
X106721000Y-61358590D01*
X106682532Y-61551981D01*
X106607074Y-61734151D01*
X106497527Y-61898100D01*
X106358100Y-62037527D01*
X106194151Y-62147074D01*
X106011981Y-62222532D01*
X105818591Y-62261000D01*
X105621409Y-62261000D01*
X105428019Y-62222532D01*
X105245849Y-62147074D01*
X105081900Y-62037527D01*
X104942473Y-61898100D01*
X104832926Y-61734151D01*
X104757468Y-61551981D01*
X104719000Y-61358590D01*
X104719000Y-61161410D01*
X104720445Y-61154148D01*
X104741260Y-61049500D01*
X104757468Y-60968019D01*
X104825780Y-60803100D01*
X104832925Y-60785851D01*
X104832926Y-60785849D01*
X104942473Y-60621900D01*
X105081900Y-60482473D01*
X105245849Y-60372926D01*
X105428019Y-60297468D01*
X105621409Y-60259000D01*
X105818591Y-60259000D01*
X106011981Y-60297468D01*
X106011981Y-60297468D01*
G37*
G36*
X113448228Y-59881703D02*
G01*
X113603100Y-59945853D01*
X113742481Y-60038985D01*
X113861015Y-60157519D01*
X113954147Y-60296900D01*
X114018297Y-60451772D01*
X114051000Y-60616184D01*
X114051000Y-60783816D01*
X114018297Y-60948228D01*
X113954147Y-61103100D01*
X113861015Y-61242481D01*
X113742481Y-61361015D01*
X113603100Y-61454147D01*
X113448228Y-61518297D01*
X113283816Y-61551000D01*
X113116184Y-61551000D01*
X112951772Y-61518297D01*
X112796900Y-61454147D01*
X112657519Y-61361015D01*
X112538985Y-61242481D01*
X112445853Y-61103100D01*
X112381703Y-60948228D01*
X112349000Y-60783816D01*
X112349000Y-60616184D01*
X112381703Y-60451772D01*
X112445853Y-60296900D01*
X112538985Y-60157519D01*
X112657519Y-60038985D01*
X112796900Y-59945853D01*
X112951772Y-59881703D01*
X113116184Y-59849000D01*
X113283816Y-59849000D01*
X113448228Y-59881703D01*
X113448228Y-59881703D01*
G37*
G36*
X110948228Y-59881703D02*
G01*
X111103100Y-59945853D01*
X111242481Y-60038985D01*
X111361015Y-60157519D01*
X111454147Y-60296900D01*
X111518297Y-60451772D01*
X111551000Y-60616184D01*
X111551000Y-60783816D01*
X111518297Y-60948228D01*
X111454147Y-61103100D01*
X111361015Y-61242481D01*
X111242481Y-61361015D01*
X111103100Y-61454147D01*
X110948228Y-61518297D01*
X110783816Y-61551000D01*
X110616184Y-61551000D01*
X110451772Y-61518297D01*
X110296900Y-61454147D01*
X110157519Y-61361015D01*
X110038985Y-61242481D01*
X109945853Y-61103100D01*
X109881703Y-60948228D01*
X109849000Y-60783816D01*
X109849000Y-60616184D01*
X109881703Y-60451772D01*
X109945853Y-60296900D01*
X110038985Y-60157519D01*
X110157519Y-60038985D01*
X110296900Y-59945853D01*
X110451772Y-59881703D01*
X110616184Y-59849000D01*
X110783816Y-59849000D01*
X110948228Y-59881703D01*
X110948228Y-59881703D01*
G37*
G36*
X83448228Y-59581703D02*
G01*
X83603100Y-59645853D01*
X83742481Y-59738985D01*
X83861015Y-59857519D01*
X83954147Y-59996900D01*
X84018297Y-60151772D01*
X84051000Y-60316184D01*
X84051000Y-60483816D01*
X84018297Y-60648228D01*
X83954147Y-60803100D01*
X83861015Y-60942481D01*
X83742481Y-61061015D01*
X83603100Y-61154147D01*
X83448228Y-61218297D01*
X83283816Y-61251000D01*
X83116184Y-61251000D01*
X82951772Y-61218297D01*
X82796900Y-61154147D01*
X82657519Y-61061015D01*
X82538985Y-60942481D01*
X82445853Y-60803100D01*
X82381703Y-60648228D01*
X82349000Y-60483816D01*
X82349000Y-60316184D01*
X82381703Y-60151772D01*
X82445853Y-59996900D01*
X82538985Y-59857519D01*
X82657519Y-59738985D01*
X82796900Y-59645853D01*
X82951772Y-59581703D01*
X83116184Y-59549000D01*
X83283816Y-59549000D01*
X83448228Y-59581703D01*
X83448228Y-59581703D01*
G37*
G36*
X80948228Y-59581703D02*
G01*
X81103100Y-59645853D01*
X81242481Y-59738985D01*
X81361015Y-59857519D01*
X81454147Y-59996900D01*
X81518297Y-60151772D01*
X81551000Y-60316184D01*
X81551000Y-60483816D01*
X81518297Y-60648228D01*
X81454147Y-60803100D01*
X81361015Y-60942481D01*
X81242481Y-61061015D01*
X81103100Y-61154147D01*
X80948228Y-61218297D01*
X80783816Y-61251000D01*
X80616184Y-61251000D01*
X80451772Y-61218297D01*
X80296900Y-61154147D01*
X80157519Y-61061015D01*
X80038985Y-60942481D01*
X79945853Y-60803100D01*
X79881703Y-60648228D01*
X79849000Y-60483816D01*
X79849000Y-60316184D01*
X79881703Y-60151772D01*
X79945853Y-59996900D01*
X80038985Y-59857519D01*
X80157519Y-59738985D01*
X80296900Y-59645853D01*
X80451772Y-59581703D01*
X80616184Y-59549000D01*
X80783816Y-59549000D01*
X80948228Y-59581703D01*
X80948228Y-59581703D01*
G37*
G36*
X95114425Y-59554599D02*
G01*
X95238621Y-59579302D01*
X95375022Y-59635801D01*
X95497779Y-59717825D01*
X95602175Y-59822221D01*
X95684199Y-59944978D01*
X95740698Y-60081379D01*
X95769500Y-60226181D01*
X95769500Y-60373819D01*
X95740698Y-60518621D01*
X95684199Y-60655022D01*
X95602175Y-60777779D01*
X95497779Y-60882175D01*
X95375022Y-60964199D01*
X95238621Y-61020698D01*
X95114425Y-61045401D01*
X95093820Y-61049500D01*
X94946180Y-61049500D01*
X94925575Y-61045401D01*
X94801379Y-61020698D01*
X94664978Y-60964199D01*
X94542221Y-60882175D01*
X94437825Y-60777779D01*
X94355801Y-60655022D01*
X94299302Y-60518621D01*
X94270500Y-60373819D01*
X94270500Y-60226181D01*
X94299302Y-60081379D01*
X94355801Y-59944978D01*
X94437825Y-59822221D01*
X94542221Y-59717825D01*
X94664978Y-59635801D01*
X94801379Y-59579302D01*
X94925575Y-59554599D01*
X94946180Y-59550500D01*
X95093820Y-59550500D01*
X95114425Y-59554599D01*
X95114425Y-59554599D01*
G37*
G36*
X87494425Y-59554599D02*
G01*
X87618621Y-59579302D01*
X87755022Y-59635801D01*
X87877779Y-59717825D01*
X87982175Y-59822221D01*
X88064199Y-59944978D01*
X88120698Y-60081379D01*
X88149500Y-60226181D01*
X88149500Y-60373819D01*
X88120698Y-60518621D01*
X88064199Y-60655022D01*
X87982175Y-60777779D01*
X87877779Y-60882175D01*
X87755022Y-60964199D01*
X87618621Y-61020698D01*
X87494425Y-61045401D01*
X87473820Y-61049500D01*
X87326180Y-61049500D01*
X87305575Y-61045401D01*
X87181379Y-61020698D01*
X87044978Y-60964199D01*
X86922221Y-60882175D01*
X86817825Y-60777779D01*
X86735801Y-60655022D01*
X86679302Y-60518621D01*
X86650500Y-60373819D01*
X86650500Y-60226181D01*
X86679302Y-60081379D01*
X86735801Y-59944978D01*
X86817825Y-59822221D01*
X86922221Y-59717825D01*
X87044978Y-59635801D01*
X87181379Y-59579302D01*
X87305575Y-59554599D01*
X87326180Y-59550500D01*
X87473820Y-59550500D01*
X87494425Y-59554599D01*
X87494425Y-59554599D01*
G37*
G36*
X128979487Y-57998996D02*
G01*
X129216253Y-58097068D01*
X129216255Y-58097069D01*
X129429339Y-58239447D01*
X129610553Y-58420661D01*
X129740739Y-58615498D01*
X129752932Y-58633747D01*
X129851004Y-58870513D01*
X129901000Y-59121861D01*
X129901000Y-59378139D01*
X129851004Y-59629487D01*
X129771169Y-59822224D01*
X129752931Y-59866255D01*
X129610553Y-60079339D01*
X129429339Y-60260553D01*
X129216255Y-60402931D01*
X129216254Y-60402932D01*
X129216253Y-60402932D01*
X128979487Y-60501004D01*
X128728139Y-60551000D01*
X128471861Y-60551000D01*
X128220513Y-60501004D01*
X127983747Y-60402932D01*
X127983746Y-60402932D01*
X127983745Y-60402931D01*
X127770661Y-60260553D01*
X127589447Y-60079339D01*
X127447069Y-59866255D01*
X127428831Y-59822224D01*
X127348996Y-59629487D01*
X127299000Y-59378139D01*
X127299000Y-59121861D01*
X127348996Y-58870513D01*
X127447068Y-58633747D01*
X127459262Y-58615498D01*
X127589447Y-58420661D01*
X127770661Y-58239447D01*
X127983745Y-58097069D01*
X127983747Y-58097068D01*
X128220513Y-57998996D01*
X128471861Y-57949000D01*
X128728139Y-57949000D01*
X128979487Y-57998996D01*
X128979487Y-57998996D01*
G37*
G36*
X117579487Y-57998996D02*
G01*
X117816253Y-58097068D01*
X117816255Y-58097069D01*
X118029339Y-58239447D01*
X118210553Y-58420661D01*
X118340739Y-58615498D01*
X118352932Y-58633747D01*
X118451004Y-58870513D01*
X118501000Y-59121861D01*
X118501000Y-59378139D01*
X118451004Y-59629487D01*
X118371169Y-59822224D01*
X118352931Y-59866255D01*
X118210553Y-60079339D01*
X118029339Y-60260553D01*
X117816255Y-60402931D01*
X117816254Y-60402932D01*
X117816253Y-60402932D01*
X117579487Y-60501004D01*
X117328139Y-60551000D01*
X117071861Y-60551000D01*
X116820513Y-60501004D01*
X116583747Y-60402932D01*
X116583746Y-60402932D01*
X116583745Y-60402931D01*
X116370661Y-60260553D01*
X116189447Y-60079339D01*
X116047069Y-59866255D01*
X116028831Y-59822224D01*
X115948996Y-59629487D01*
X115899000Y-59378139D01*
X115899000Y-59121861D01*
X115948996Y-58870513D01*
X116047068Y-58633747D01*
X116059262Y-58615498D01*
X116189447Y-58420661D01*
X116370661Y-58239447D01*
X116583745Y-58097069D01*
X116583747Y-58097068D01*
X116820513Y-57998996D01*
X117071861Y-57949000D01*
X117328139Y-57949000D01*
X117579487Y-57998996D01*
X117579487Y-57998996D01*
G37*
G36*
X105924473Y-58485938D02*
G01*
X106052049Y-58538782D01*
X106166859Y-58615495D01*
X106264505Y-58713141D01*
X106341218Y-58827951D01*
X106394062Y-58955527D01*
X106421000Y-59090956D01*
X106421000Y-59229044D01*
X106394062Y-59364473D01*
X106341218Y-59492049D01*
X106264505Y-59606859D01*
X106166859Y-59704505D01*
X106052049Y-59781218D01*
X105924473Y-59834062D01*
X105789044Y-59861000D01*
X105650956Y-59861000D01*
X105515527Y-59834062D01*
X105387951Y-59781218D01*
X105273141Y-59704505D01*
X105175495Y-59606859D01*
X105098782Y-59492049D01*
X105045938Y-59364473D01*
X105019000Y-59229044D01*
X105019000Y-59090956D01*
X105045938Y-58955527D01*
X105098782Y-58827951D01*
X105175495Y-58713141D01*
X105273141Y-58615495D01*
X105387951Y-58538782D01*
X105515527Y-58485938D01*
X105650956Y-58459000D01*
X105789044Y-58459000D01*
X105924473Y-58485938D01*
X105924473Y-58485938D01*
G37*
G36*
X100648228Y-57781703D02*
G01*
X100803100Y-57845853D01*
X100942481Y-57938985D01*
X101061015Y-58057519D01*
X101154147Y-58196900D01*
X101218297Y-58351772D01*
X101251000Y-58516184D01*
X101251000Y-58683816D01*
X101218297Y-58848228D01*
X101154147Y-59003100D01*
X101061015Y-59142481D01*
X100942481Y-59261015D01*
X100803100Y-59354147D01*
X100648228Y-59418297D01*
X100483816Y-59451000D01*
X100316184Y-59451000D01*
X100151772Y-59418297D01*
X99996900Y-59354147D01*
X99857519Y-59261015D01*
X99738985Y-59142481D01*
X99645853Y-59003100D01*
X99581703Y-58848228D01*
X99549000Y-58683816D01*
X99549000Y-58516184D01*
X99581703Y-58351772D01*
X99645853Y-58196900D01*
X99738985Y-58057519D01*
X99857519Y-57938985D01*
X99996900Y-57845853D01*
X100151772Y-57781703D01*
X100316184Y-57749000D01*
X100483816Y-57749000D01*
X100648228Y-57781703D01*
X100648228Y-57781703D01*
G37*
G36*
X98148228Y-57781703D02*
G01*
X98303100Y-57845853D01*
X98442481Y-57938985D01*
X98561015Y-58057519D01*
X98654147Y-58196900D01*
X98718297Y-58351772D01*
X98751000Y-58516184D01*
X98751000Y-58683816D01*
X98718297Y-58848228D01*
X98654147Y-59003100D01*
X98561015Y-59142481D01*
X98442481Y-59261015D01*
X98303100Y-59354147D01*
X98148228Y-59418297D01*
X97983816Y-59451000D01*
X97816184Y-59451000D01*
X97651772Y-59418297D01*
X97496900Y-59354147D01*
X97357519Y-59261015D01*
X97238985Y-59142481D01*
X97145853Y-59003100D01*
X97081703Y-58848228D01*
X97049000Y-58683816D01*
X97049000Y-58516184D01*
X97081703Y-58351772D01*
X97145853Y-58196900D01*
X97238985Y-58057519D01*
X97357519Y-57938985D01*
X97496900Y-57845853D01*
X97651772Y-57781703D01*
X97816184Y-57749000D01*
X97983816Y-57749000D01*
X98148228Y-57781703D01*
X98148228Y-57781703D01*
G37*
G36*
X87494425Y-57014599D02*
G01*
X87618621Y-57039302D01*
X87755022Y-57095801D01*
X87877779Y-57177825D01*
X87982175Y-57282221D01*
X88064199Y-57404978D01*
X88120698Y-57541379D01*
X88149500Y-57686181D01*
X88149500Y-57833819D01*
X88120698Y-57978621D01*
X88064199Y-58115022D01*
X87982175Y-58237779D01*
X87877779Y-58342175D01*
X87755022Y-58424199D01*
X87618621Y-58480698D01*
X87494425Y-58505401D01*
X87473820Y-58509500D01*
X87326180Y-58509500D01*
X87305575Y-58505401D01*
X87181379Y-58480698D01*
X87044978Y-58424199D01*
X86922221Y-58342175D01*
X86817825Y-58237779D01*
X86735801Y-58115022D01*
X86679302Y-57978621D01*
X86650500Y-57833819D01*
X86650500Y-57686181D01*
X86679302Y-57541379D01*
X86735801Y-57404978D01*
X86817825Y-57282221D01*
X86922221Y-57177825D01*
X87044978Y-57095801D01*
X87181379Y-57039302D01*
X87305575Y-57014599D01*
X87326180Y-57010500D01*
X87473820Y-57010500D01*
X87494425Y-57014599D01*
X87494425Y-57014599D01*
G37*
G36*
X95114425Y-57014599D02*
G01*
X95238621Y-57039302D01*
X95375022Y-57095801D01*
X95497779Y-57177825D01*
X95602175Y-57282221D01*
X95684199Y-57404978D01*
X95740698Y-57541379D01*
X95769500Y-57686181D01*
X95769500Y-57833819D01*
X95740698Y-57978621D01*
X95684199Y-58115022D01*
X95602175Y-58237779D01*
X95497779Y-58342175D01*
X95375022Y-58424199D01*
X95238621Y-58480698D01*
X95114425Y-58505401D01*
X95093820Y-58509500D01*
X94946180Y-58509500D01*
X94925575Y-58505401D01*
X94801379Y-58480698D01*
X94664978Y-58424199D01*
X94542221Y-58342175D01*
X94437825Y-58237779D01*
X94355801Y-58115022D01*
X94299302Y-57978621D01*
X94270500Y-57833819D01*
X94270500Y-57686181D01*
X94299302Y-57541379D01*
X94355801Y-57404978D01*
X94437825Y-57282221D01*
X94542221Y-57177825D01*
X94664978Y-57095801D01*
X94801379Y-57039302D01*
X94925575Y-57014599D01*
X94946180Y-57010500D01*
X95093820Y-57010500D01*
X95114425Y-57014599D01*
X95114425Y-57014599D01*
G37*
G36*
X79048228Y-56181703D02*
G01*
X79203100Y-56245853D01*
X79342481Y-56338985D01*
X79461015Y-56457519D01*
X79554147Y-56596900D01*
X79618297Y-56751772D01*
X79651000Y-56916184D01*
X79651000Y-57083816D01*
X79618297Y-57248228D01*
X79554147Y-57403100D01*
X79461015Y-57542481D01*
X79342481Y-57661015D01*
X79203100Y-57754147D01*
X79048228Y-57818297D01*
X78883816Y-57851000D01*
X78716184Y-57851000D01*
X78551772Y-57818297D01*
X78396900Y-57754147D01*
X78257519Y-57661015D01*
X78138985Y-57542481D01*
X78045853Y-57403100D01*
X77981703Y-57248228D01*
X77949000Y-57083816D01*
X77949000Y-56916184D01*
X77981703Y-56751772D01*
X78045853Y-56596900D01*
X78138985Y-56457519D01*
X78257519Y-56338985D01*
X78396900Y-56245853D01*
X78551772Y-56181703D01*
X78716184Y-56149000D01*
X78883816Y-56149000D01*
X79048228Y-56181703D01*
X79048228Y-56181703D01*
G37*
G36*
X82866823Y-56121313D02*
G01*
X83027242Y-56169976D01*
X83159906Y-56240886D01*
X83175078Y-56248996D01*
X83304659Y-56355341D01*
X83411004Y-56484922D01*
X83411005Y-56484924D01*
X83490024Y-56632758D01*
X83538687Y-56793177D01*
X83555117Y-56960000D01*
X83538687Y-57126823D01*
X83490024Y-57287242D01*
X83427093Y-57404978D01*
X83411004Y-57435078D01*
X83304659Y-57564659D01*
X83175078Y-57671004D01*
X83175076Y-57671005D01*
X83027242Y-57750024D01*
X83027239Y-57750025D01*
X83013647Y-57754148D01*
X82866823Y-57798687D01*
X82741804Y-57811000D01*
X82658196Y-57811000D01*
X82533177Y-57798687D01*
X82386353Y-57754148D01*
X82372761Y-57750025D01*
X82372758Y-57750024D01*
X82224924Y-57671005D01*
X82224922Y-57671004D01*
X82095341Y-57564659D01*
X81988996Y-57435078D01*
X81972907Y-57404978D01*
X81909976Y-57287242D01*
X81861313Y-57126823D01*
X81844883Y-56960000D01*
X81861313Y-56793177D01*
X81909976Y-56632758D01*
X81988995Y-56484924D01*
X81988996Y-56484922D01*
X82095341Y-56355341D01*
X82224922Y-56248996D01*
X82240094Y-56240886D01*
X82372758Y-56169976D01*
X82533177Y-56121313D01*
X82658196Y-56109000D01*
X82741804Y-56109000D01*
X82866823Y-56121313D01*
X82866823Y-56121313D01*
G37*
G36*
X95114425Y-54474599D02*
G01*
X95238621Y-54499302D01*
X95375022Y-54555801D01*
X95497779Y-54637825D01*
X95602175Y-54742221D01*
X95684199Y-54864978D01*
X95740698Y-55001379D01*
X95765401Y-55125575D01*
X95768308Y-55140185D01*
X95769500Y-55146181D01*
X95769500Y-55293819D01*
X95740698Y-55438621D01*
X95684199Y-55575022D01*
X95602175Y-55697779D01*
X95497779Y-55802175D01*
X95375022Y-55884199D01*
X95238621Y-55940698D01*
X95114425Y-55965401D01*
X95093820Y-55969500D01*
X94946180Y-55969500D01*
X94925575Y-55965401D01*
X94801379Y-55940698D01*
X94664978Y-55884199D01*
X94542221Y-55802175D01*
X94437825Y-55697779D01*
X94355801Y-55575022D01*
X94299302Y-55438621D01*
X94270500Y-55293819D01*
X94270500Y-55146181D01*
X94271693Y-55140185D01*
X94274599Y-55125575D01*
X94299302Y-55001379D01*
X94355801Y-54864978D01*
X94437825Y-54742221D01*
X94542221Y-54637825D01*
X94664978Y-54555801D01*
X94801379Y-54499302D01*
X94925575Y-54474599D01*
X94946180Y-54470500D01*
X95093820Y-54470500D01*
X95114425Y-54474599D01*
X95114425Y-54474599D01*
G37*
G36*
X87494425Y-54474599D02*
G01*
X87618621Y-54499302D01*
X87755022Y-54555801D01*
X87877779Y-54637825D01*
X87982175Y-54742221D01*
X88064199Y-54864978D01*
X88120698Y-55001379D01*
X88145401Y-55125575D01*
X88148308Y-55140185D01*
X88149500Y-55146181D01*
X88149500Y-55293819D01*
X88120698Y-55438621D01*
X88064199Y-55575022D01*
X87982175Y-55697779D01*
X87877779Y-55802175D01*
X87755022Y-55884199D01*
X87618621Y-55940698D01*
X87494425Y-55965401D01*
X87473820Y-55969500D01*
X87326180Y-55969500D01*
X87305575Y-55965401D01*
X87181379Y-55940698D01*
X87044978Y-55884199D01*
X86922221Y-55802175D01*
X86817825Y-55697779D01*
X86735801Y-55575022D01*
X86679302Y-55438621D01*
X86650500Y-55293819D01*
X86650500Y-55146181D01*
X86651693Y-55140185D01*
X86654599Y-55125575D01*
X86679302Y-55001379D01*
X86735801Y-54864978D01*
X86817825Y-54742221D01*
X86922221Y-54637825D01*
X87044978Y-54555801D01*
X87181379Y-54499302D01*
X87305575Y-54474599D01*
X87326180Y-54470500D01*
X87473820Y-54470500D01*
X87494425Y-54474599D01*
X87494425Y-54474599D01*
G37*
G36*
X105924473Y-54485938D02*
G01*
X106052049Y-54538782D01*
X106166859Y-54615495D01*
X106264505Y-54713141D01*
X106341218Y-54827951D01*
X106394062Y-54955527D01*
X106421000Y-55090956D01*
X106421000Y-55229044D01*
X106394062Y-55364473D01*
X106341218Y-55492049D01*
X106264505Y-55606859D01*
X106166859Y-55704505D01*
X106052049Y-55781218D01*
X105924473Y-55834062D01*
X105789044Y-55861000D01*
X105650956Y-55861000D01*
X105515527Y-55834062D01*
X105387951Y-55781218D01*
X105273141Y-55704505D01*
X105175495Y-55606859D01*
X105098782Y-55492049D01*
X105045938Y-55364473D01*
X105019000Y-55229044D01*
X105019000Y-55090956D01*
X105045938Y-54955527D01*
X105098782Y-54827951D01*
X105175495Y-54713141D01*
X105273141Y-54615495D01*
X105387951Y-54538782D01*
X105515527Y-54485938D01*
X105650956Y-54459000D01*
X105789044Y-54459000D01*
X105924473Y-54485938D01*
X105924473Y-54485938D01*
G37*
G36*
X115366823Y-53821313D02*
G01*
X115527242Y-53869976D01*
X115659906Y-53940886D01*
X115675078Y-53948996D01*
X115804659Y-54055341D01*
X115911004Y-54184922D01*
X115911005Y-54184924D01*
X115990024Y-54332758D01*
X116038687Y-54493177D01*
X116055117Y-54660000D01*
X116038687Y-54826823D01*
X115990024Y-54987242D01*
X115919114Y-55119906D01*
X115911004Y-55135078D01*
X115804659Y-55264659D01*
X115675078Y-55371004D01*
X115675076Y-55371005D01*
X115527242Y-55450024D01*
X115366823Y-55498687D01*
X115241804Y-55511000D01*
X115158196Y-55511000D01*
X115033177Y-55498687D01*
X114872758Y-55450024D01*
X114724924Y-55371005D01*
X114724922Y-55371004D01*
X114595341Y-55264659D01*
X114488996Y-55135078D01*
X114480886Y-55119906D01*
X114409976Y-54987242D01*
X114361313Y-54826823D01*
X114344883Y-54660000D01*
X114361313Y-54493177D01*
X114409976Y-54332758D01*
X114488995Y-54184924D01*
X114488996Y-54184922D01*
X114595341Y-54055341D01*
X114724922Y-53948996D01*
X114740094Y-53940886D01*
X114872758Y-53869976D01*
X115033177Y-53821313D01*
X115158196Y-53809000D01*
X115241804Y-53809000D01*
X115366823Y-53821313D01*
X115366823Y-53821313D01*
G37*
G36*
X73101000Y-55401000D02*
G01*
X71299000Y-55401000D01*
X71299000Y-53599000D01*
X73101000Y-53599000D01*
X73101000Y-55401000D01*
X73101000Y-55401000D01*
G37*
G36*
X69770443Y-53605519D02*
G01*
X69836627Y-53612037D01*
X70006466Y-53663557D01*
X70162991Y-53747222D01*
X70198729Y-53776552D01*
X70300186Y-53859814D01*
X70380369Y-53957519D01*
X70412778Y-53997009D01*
X70496443Y-54153534D01*
X70547963Y-54323373D01*
X70565359Y-54500000D01*
X70547963Y-54676627D01*
X70502401Y-54826825D01*
X70496442Y-54846468D01*
X70466173Y-54903097D01*
X70412778Y-55002991D01*
X70383448Y-55038729D01*
X70300186Y-55140186D01*
X70198729Y-55223448D01*
X70162991Y-55252778D01*
X70006466Y-55336443D01*
X69836627Y-55387963D01*
X69770443Y-55394481D01*
X69704260Y-55401000D01*
X69615740Y-55401000D01*
X69549557Y-55394481D01*
X69483373Y-55387963D01*
X69313534Y-55336443D01*
X69157009Y-55252778D01*
X69121271Y-55223448D01*
X69019814Y-55140186D01*
X68936552Y-55038729D01*
X68907222Y-55002991D01*
X68853827Y-54903097D01*
X68823558Y-54846468D01*
X68817599Y-54826825D01*
X68772037Y-54676627D01*
X68754641Y-54500000D01*
X68772037Y-54323373D01*
X68823557Y-54153534D01*
X68907222Y-53997009D01*
X68939631Y-53957519D01*
X69019814Y-53859814D01*
X69121271Y-53776552D01*
X69157009Y-53747222D01*
X69313534Y-53663557D01*
X69483373Y-53612037D01*
X69549557Y-53605519D01*
X69615740Y-53599000D01*
X69704260Y-53599000D01*
X69770443Y-53605519D01*
X69770443Y-53605519D01*
G37*
G36*
X67230443Y-53605519D02*
G01*
X67296627Y-53612037D01*
X67466466Y-53663557D01*
X67622991Y-53747222D01*
X67658729Y-53776552D01*
X67760186Y-53859814D01*
X67840369Y-53957519D01*
X67872778Y-53997009D01*
X67956443Y-54153534D01*
X68007963Y-54323373D01*
X68025359Y-54500000D01*
X68007963Y-54676627D01*
X67962401Y-54826825D01*
X67956442Y-54846468D01*
X67926173Y-54903097D01*
X67872778Y-55002991D01*
X67843448Y-55038729D01*
X67760186Y-55140186D01*
X67658729Y-55223448D01*
X67622991Y-55252778D01*
X67466466Y-55336443D01*
X67296627Y-55387963D01*
X67230443Y-55394481D01*
X67164260Y-55401000D01*
X67075740Y-55401000D01*
X67009557Y-55394481D01*
X66943373Y-55387963D01*
X66773534Y-55336443D01*
X66617009Y-55252778D01*
X66581271Y-55223448D01*
X66479814Y-55140186D01*
X66396552Y-55038729D01*
X66367222Y-55002991D01*
X66313827Y-54903097D01*
X66283558Y-54846468D01*
X66277599Y-54826825D01*
X66232037Y-54676627D01*
X66214641Y-54500000D01*
X66232037Y-54323373D01*
X66283557Y-54153534D01*
X66367222Y-53997009D01*
X66399631Y-53957519D01*
X66479814Y-53859814D01*
X66581271Y-53776552D01*
X66617009Y-53747222D01*
X66773534Y-53663557D01*
X66943373Y-53612037D01*
X67009557Y-53605519D01*
X67075740Y-53599000D01*
X67164260Y-53599000D01*
X67230443Y-53605519D01*
X67230443Y-53605519D01*
G37*
G36*
X64690443Y-53605519D02*
G01*
X64756627Y-53612037D01*
X64926466Y-53663557D01*
X65082991Y-53747222D01*
X65118729Y-53776552D01*
X65220186Y-53859814D01*
X65300369Y-53957519D01*
X65332778Y-53997009D01*
X65416443Y-54153534D01*
X65467963Y-54323373D01*
X65485359Y-54500000D01*
X65467963Y-54676627D01*
X65422401Y-54826825D01*
X65416442Y-54846468D01*
X65386173Y-54903097D01*
X65332778Y-55002991D01*
X65303448Y-55038729D01*
X65220186Y-55140186D01*
X65118729Y-55223448D01*
X65082991Y-55252778D01*
X64926466Y-55336443D01*
X64756627Y-55387963D01*
X64690443Y-55394481D01*
X64624260Y-55401000D01*
X64535740Y-55401000D01*
X64469557Y-55394481D01*
X64403373Y-55387963D01*
X64233534Y-55336443D01*
X64077009Y-55252778D01*
X64041271Y-55223448D01*
X63939814Y-55140186D01*
X63856552Y-55038729D01*
X63827222Y-55002991D01*
X63773827Y-54903097D01*
X63743558Y-54846468D01*
X63737599Y-54826825D01*
X63692037Y-54676627D01*
X63674641Y-54500000D01*
X63692037Y-54323373D01*
X63743557Y-54153534D01*
X63827222Y-53997009D01*
X63859631Y-53957519D01*
X63939814Y-53859814D01*
X64041271Y-53776552D01*
X64077009Y-53747222D01*
X64233534Y-53663557D01*
X64403373Y-53612037D01*
X64469557Y-53605519D01*
X64535740Y-53599000D01*
X64624260Y-53599000D01*
X64690443Y-53605519D01*
X64690443Y-53605519D01*
G37*
G36*
X62150443Y-53605519D02*
G01*
X62216627Y-53612037D01*
X62386466Y-53663557D01*
X62542991Y-53747222D01*
X62578729Y-53776552D01*
X62680186Y-53859814D01*
X62760369Y-53957519D01*
X62792778Y-53997009D01*
X62876443Y-54153534D01*
X62927963Y-54323373D01*
X62945359Y-54500000D01*
X62927963Y-54676627D01*
X62882401Y-54826825D01*
X62876442Y-54846468D01*
X62846173Y-54903097D01*
X62792778Y-55002991D01*
X62763448Y-55038729D01*
X62680186Y-55140186D01*
X62578729Y-55223448D01*
X62542991Y-55252778D01*
X62386466Y-55336443D01*
X62216627Y-55387963D01*
X62150443Y-55394481D01*
X62084260Y-55401000D01*
X61995740Y-55401000D01*
X61929557Y-55394481D01*
X61863373Y-55387963D01*
X61693534Y-55336443D01*
X61537009Y-55252778D01*
X61501271Y-55223448D01*
X61399814Y-55140186D01*
X61316552Y-55038729D01*
X61287222Y-55002991D01*
X61233827Y-54903097D01*
X61203558Y-54846468D01*
X61197599Y-54826825D01*
X61152037Y-54676627D01*
X61134641Y-54500000D01*
X61152037Y-54323373D01*
X61203557Y-54153534D01*
X61287222Y-53997009D01*
X61319631Y-53957519D01*
X61399814Y-53859814D01*
X61501271Y-53776552D01*
X61537009Y-53747222D01*
X61693534Y-53663557D01*
X61863373Y-53612037D01*
X61929557Y-53605519D01*
X61995740Y-53599000D01*
X62084260Y-53599000D01*
X62150443Y-53605519D01*
X62150443Y-53605519D01*
G37*
G36*
X59610443Y-53605519D02*
G01*
X59676627Y-53612037D01*
X59846466Y-53663557D01*
X60002991Y-53747222D01*
X60038729Y-53776552D01*
X60140186Y-53859814D01*
X60220369Y-53957519D01*
X60252778Y-53997009D01*
X60336443Y-54153534D01*
X60387963Y-54323373D01*
X60405359Y-54500000D01*
X60387963Y-54676627D01*
X60342401Y-54826825D01*
X60336442Y-54846468D01*
X60306173Y-54903097D01*
X60252778Y-55002991D01*
X60223448Y-55038729D01*
X60140186Y-55140186D01*
X60038729Y-55223448D01*
X60002991Y-55252778D01*
X59846466Y-55336443D01*
X59676627Y-55387963D01*
X59610443Y-55394481D01*
X59544260Y-55401000D01*
X59455740Y-55401000D01*
X59389557Y-55394481D01*
X59323373Y-55387963D01*
X59153534Y-55336443D01*
X58997009Y-55252778D01*
X58961271Y-55223448D01*
X58859814Y-55140186D01*
X58776552Y-55038729D01*
X58747222Y-55002991D01*
X58693827Y-54903097D01*
X58663558Y-54846468D01*
X58657599Y-54826825D01*
X58612037Y-54676627D01*
X58594641Y-54500000D01*
X58612037Y-54323373D01*
X58663557Y-54153534D01*
X58747222Y-53997009D01*
X58779631Y-53957519D01*
X58859814Y-53859814D01*
X58961271Y-53776552D01*
X58997009Y-53747222D01*
X59153534Y-53663557D01*
X59323373Y-53612037D01*
X59389557Y-53605519D01*
X59455740Y-53599000D01*
X59544260Y-53599000D01*
X59610443Y-53605519D01*
X59610443Y-53605519D01*
G37*
G36*
X98248228Y-53681703D02*
G01*
X98403100Y-53745853D01*
X98542481Y-53838985D01*
X98661015Y-53957519D01*
X98754147Y-54096900D01*
X98818297Y-54251772D01*
X98851000Y-54416184D01*
X98851000Y-54583816D01*
X98818297Y-54748228D01*
X98754147Y-54903100D01*
X98661015Y-55042481D01*
X98542481Y-55161015D01*
X98403100Y-55254147D01*
X98248228Y-55318297D01*
X98083816Y-55351000D01*
X97916184Y-55351000D01*
X97751772Y-55318297D01*
X97596900Y-55254147D01*
X97457519Y-55161015D01*
X97338985Y-55042481D01*
X97245853Y-54903100D01*
X97181703Y-54748228D01*
X97149000Y-54583816D01*
X97149000Y-54416184D01*
X97181703Y-54251772D01*
X97245853Y-54096900D01*
X97338985Y-53957519D01*
X97457519Y-53838985D01*
X97596900Y-53745853D01*
X97751772Y-53681703D01*
X97916184Y-53649000D01*
X98083816Y-53649000D01*
X98248228Y-53681703D01*
X98248228Y-53681703D01*
G37*
G36*
X100748228Y-53681703D02*
G01*
X100903100Y-53745853D01*
X101042481Y-53838985D01*
X101161015Y-53957519D01*
X101254147Y-54096900D01*
X101318297Y-54251772D01*
X101351000Y-54416184D01*
X101351000Y-54583816D01*
X101318297Y-54748228D01*
X101254147Y-54903100D01*
X101161015Y-55042481D01*
X101042481Y-55161015D01*
X100903100Y-55254147D01*
X100748228Y-55318297D01*
X100583816Y-55351000D01*
X100416184Y-55351000D01*
X100251772Y-55318297D01*
X100096900Y-55254147D01*
X99957519Y-55161015D01*
X99838985Y-55042481D01*
X99745853Y-54903100D01*
X99681703Y-54748228D01*
X99649000Y-54583816D01*
X99649000Y-54416184D01*
X99681703Y-54251772D01*
X99745853Y-54096900D01*
X99838985Y-53957519D01*
X99957519Y-53838985D01*
X100096900Y-53745853D01*
X100251772Y-53681703D01*
X100416184Y-53649000D01*
X100583816Y-53649000D01*
X100748228Y-53681703D01*
X100748228Y-53681703D01*
G37*
G36*
X105924473Y-52485938D02*
G01*
X106052049Y-52538782D01*
X106166859Y-52615495D01*
X106264505Y-52713141D01*
X106341218Y-52827951D01*
X106394062Y-52955527D01*
X106421000Y-53090956D01*
X106421000Y-53229044D01*
X106394062Y-53364473D01*
X106341218Y-53492049D01*
X106264505Y-53606859D01*
X106166859Y-53704505D01*
X106052049Y-53781218D01*
X105924473Y-53834062D01*
X105789044Y-53861000D01*
X105650956Y-53861000D01*
X105515527Y-53834062D01*
X105387951Y-53781218D01*
X105273141Y-53704505D01*
X105175495Y-53606859D01*
X105098782Y-53492049D01*
X105045938Y-53364473D01*
X105019000Y-53229044D01*
X105019000Y-53090956D01*
X105045938Y-52955527D01*
X105098782Y-52827951D01*
X105175495Y-52713141D01*
X105273141Y-52615495D01*
X105387951Y-52538782D01*
X105515527Y-52485938D01*
X105650956Y-52459000D01*
X105789044Y-52459000D01*
X105924473Y-52485938D01*
X105924473Y-52485938D01*
G37*
G36*
X87494425Y-51934599D02*
G01*
X87618621Y-51959302D01*
X87755022Y-52015801D01*
X87877779Y-52097825D01*
X87982175Y-52202221D01*
X88064199Y-52324978D01*
X88120698Y-52461379D01*
X88149500Y-52606181D01*
X88149500Y-52753819D01*
X88120698Y-52898621D01*
X88064199Y-53035022D01*
X87982175Y-53157779D01*
X87877779Y-53262175D01*
X87755022Y-53344199D01*
X87618621Y-53400698D01*
X87494425Y-53425401D01*
X87473820Y-53429500D01*
X87326180Y-53429500D01*
X87305575Y-53425401D01*
X87181379Y-53400698D01*
X87044978Y-53344199D01*
X86922221Y-53262175D01*
X86817825Y-53157779D01*
X86735801Y-53035022D01*
X86679302Y-52898621D01*
X86650500Y-52753819D01*
X86650500Y-52606181D01*
X86679302Y-52461379D01*
X86735801Y-52324978D01*
X86817825Y-52202221D01*
X86922221Y-52097825D01*
X87044978Y-52015801D01*
X87181379Y-51959302D01*
X87305575Y-51934599D01*
X87326180Y-51930500D01*
X87473820Y-51930500D01*
X87494425Y-51934599D01*
X87494425Y-51934599D01*
G37*
G36*
X95114425Y-51934599D02*
G01*
X95238621Y-51959302D01*
X95375022Y-52015801D01*
X95497779Y-52097825D01*
X95602175Y-52202221D01*
X95684199Y-52324978D01*
X95740698Y-52461379D01*
X95769500Y-52606181D01*
X95769500Y-52753819D01*
X95740698Y-52898621D01*
X95684199Y-53035022D01*
X95602175Y-53157779D01*
X95497779Y-53262175D01*
X95375022Y-53344199D01*
X95238621Y-53400698D01*
X95114425Y-53425401D01*
X95093820Y-53429500D01*
X94946180Y-53429500D01*
X94925575Y-53425401D01*
X94801379Y-53400698D01*
X94664978Y-53344199D01*
X94542221Y-53262175D01*
X94437825Y-53157779D01*
X94355801Y-53035022D01*
X94299302Y-52898621D01*
X94270500Y-52753819D01*
X94270500Y-52606181D01*
X94299302Y-52461379D01*
X94355801Y-52324978D01*
X94437825Y-52202221D01*
X94542221Y-52097825D01*
X94664978Y-52015801D01*
X94801379Y-51959302D01*
X94925575Y-51934599D01*
X94946180Y-51930500D01*
X95093820Y-51930500D01*
X95114425Y-51934599D01*
X95114425Y-51934599D01*
G37*
G36*
X125553512Y-51353927D02*
G01*
X125702812Y-51383624D01*
X125866784Y-51451544D01*
X126014354Y-51550147D01*
X126139853Y-51675646D01*
X126238456Y-51823216D01*
X126306376Y-51987188D01*
X126341000Y-52161259D01*
X126341000Y-52338741D01*
X126306376Y-52512812D01*
X126238456Y-52676784D01*
X126139853Y-52824354D01*
X126014354Y-52949853D01*
X125866784Y-53048456D01*
X125702812Y-53116376D01*
X125553512Y-53146073D01*
X125528742Y-53151000D01*
X125351258Y-53151000D01*
X125326488Y-53146073D01*
X125177188Y-53116376D01*
X125013216Y-53048456D01*
X124865646Y-52949853D01*
X124740147Y-52824354D01*
X124641544Y-52676784D01*
X124573624Y-52512812D01*
X124539000Y-52338741D01*
X124539000Y-52161259D01*
X124573624Y-51987188D01*
X124641544Y-51823216D01*
X124740147Y-51675646D01*
X124865646Y-51550147D01*
X125013216Y-51451544D01*
X125177188Y-51383624D01*
X125326488Y-51353927D01*
X125351258Y-51349000D01*
X125528742Y-51349000D01*
X125553512Y-51353927D01*
X125553512Y-51353927D01*
G37*
G36*
X123053512Y-51353927D02*
G01*
X123202812Y-51383624D01*
X123366784Y-51451544D01*
X123514354Y-51550147D01*
X123639853Y-51675646D01*
X123738456Y-51823216D01*
X123806376Y-51987188D01*
X123841000Y-52161259D01*
X123841000Y-52338741D01*
X123806376Y-52512812D01*
X123738456Y-52676784D01*
X123639853Y-52824354D01*
X123514354Y-52949853D01*
X123366784Y-53048456D01*
X123202812Y-53116376D01*
X123053512Y-53146073D01*
X123028742Y-53151000D01*
X122851258Y-53151000D01*
X122826488Y-53146073D01*
X122677188Y-53116376D01*
X122513216Y-53048456D01*
X122365646Y-52949853D01*
X122240147Y-52824354D01*
X122141544Y-52676784D01*
X122073624Y-52512812D01*
X122039000Y-52338741D01*
X122039000Y-52161259D01*
X122073624Y-51987188D01*
X122141544Y-51823216D01*
X122240147Y-51675646D01*
X122365646Y-51550147D01*
X122513216Y-51451544D01*
X122677188Y-51383624D01*
X122826488Y-51353927D01*
X122851258Y-51349000D01*
X123028742Y-51349000D01*
X123053512Y-51353927D01*
X123053512Y-51353927D01*
G37*
G36*
X120553512Y-51353927D02*
G01*
X120702812Y-51383624D01*
X120866784Y-51451544D01*
X121014354Y-51550147D01*
X121139853Y-51675646D01*
X121238456Y-51823216D01*
X121306376Y-51987188D01*
X121341000Y-52161259D01*
X121341000Y-52338741D01*
X121306376Y-52512812D01*
X121238456Y-52676784D01*
X121139853Y-52824354D01*
X121014354Y-52949853D01*
X120866784Y-53048456D01*
X120702812Y-53116376D01*
X120553512Y-53146073D01*
X120528742Y-53151000D01*
X120351258Y-53151000D01*
X120326488Y-53146073D01*
X120177188Y-53116376D01*
X120013216Y-53048456D01*
X119865646Y-52949853D01*
X119740147Y-52824354D01*
X119641544Y-52676784D01*
X119573624Y-52512812D01*
X119539000Y-52338741D01*
X119539000Y-52161259D01*
X119573624Y-51987188D01*
X119641544Y-51823216D01*
X119740147Y-51675646D01*
X119865646Y-51550147D01*
X120013216Y-51451544D01*
X120177188Y-51383624D01*
X120326488Y-51353927D01*
X120351258Y-51349000D01*
X120528742Y-51349000D01*
X120553512Y-51353927D01*
X120553512Y-51353927D01*
G37*
G36*
X105924473Y-50485938D02*
G01*
X106052049Y-50538782D01*
X106166859Y-50615495D01*
X106264505Y-50713141D01*
X106341218Y-50827951D01*
X106394062Y-50955527D01*
X106421000Y-51090956D01*
X106421000Y-51229044D01*
X106394062Y-51364473D01*
X106341218Y-51492049D01*
X106264505Y-51606859D01*
X106166859Y-51704505D01*
X106052049Y-51781218D01*
X105924473Y-51834062D01*
X105789044Y-51861000D01*
X105650956Y-51861000D01*
X105515527Y-51834062D01*
X105387951Y-51781218D01*
X105273141Y-51704505D01*
X105175495Y-51606859D01*
X105098782Y-51492049D01*
X105045938Y-51364473D01*
X105019000Y-51229044D01*
X105019000Y-51090956D01*
X105045938Y-50955527D01*
X105098782Y-50827951D01*
X105175495Y-50713141D01*
X105273141Y-50615495D01*
X105387951Y-50538782D01*
X105515527Y-50485938D01*
X105650956Y-50459000D01*
X105789044Y-50459000D01*
X105924473Y-50485938D01*
X105924473Y-50485938D01*
G37*
G36*
X100748228Y-49381703D02*
G01*
X100903100Y-49445853D01*
X101042481Y-49538985D01*
X101161015Y-49657519D01*
X101254147Y-49796900D01*
X101318297Y-49951772D01*
X101351000Y-50116184D01*
X101351000Y-50283816D01*
X101318297Y-50448228D01*
X101254147Y-50603100D01*
X101161015Y-50742481D01*
X101042481Y-50861015D01*
X100903100Y-50954147D01*
X100748228Y-51018297D01*
X100583816Y-51051000D01*
X100416184Y-51051000D01*
X100251772Y-51018297D01*
X100096900Y-50954147D01*
X99957519Y-50861015D01*
X99838985Y-50742481D01*
X99745853Y-50603100D01*
X99681703Y-50448228D01*
X99649000Y-50283816D01*
X99649000Y-50116184D01*
X99681703Y-49951772D01*
X99745853Y-49796900D01*
X99838985Y-49657519D01*
X99957519Y-49538985D01*
X100096900Y-49445853D01*
X100251772Y-49381703D01*
X100416184Y-49349000D01*
X100583816Y-49349000D01*
X100748228Y-49381703D01*
X100748228Y-49381703D01*
G37*
G36*
X98248228Y-49381703D02*
G01*
X98403100Y-49445853D01*
X98542481Y-49538985D01*
X98661015Y-49657519D01*
X98754147Y-49796900D01*
X98818297Y-49951772D01*
X98851000Y-50116184D01*
X98851000Y-50283816D01*
X98818297Y-50448228D01*
X98754147Y-50603100D01*
X98661015Y-50742481D01*
X98542481Y-50861015D01*
X98403100Y-50954147D01*
X98248228Y-51018297D01*
X98083816Y-51051000D01*
X97916184Y-51051000D01*
X97751772Y-51018297D01*
X97596900Y-50954147D01*
X97457519Y-50861015D01*
X97338985Y-50742481D01*
X97245853Y-50603100D01*
X97181703Y-50448228D01*
X97149000Y-50283816D01*
X97149000Y-50116184D01*
X97181703Y-49951772D01*
X97245853Y-49796900D01*
X97338985Y-49657519D01*
X97457519Y-49538985D01*
X97596900Y-49445853D01*
X97751772Y-49381703D01*
X97916184Y-49349000D01*
X98083816Y-49349000D01*
X98248228Y-49381703D01*
X98248228Y-49381703D01*
G37*
G36*
X95114425Y-49394599D02*
G01*
X95238621Y-49419302D01*
X95375022Y-49475801D01*
X95497779Y-49557825D01*
X95602175Y-49662221D01*
X95684199Y-49784978D01*
X95740698Y-49921379D01*
X95760818Y-50022532D01*
X95768470Y-50061000D01*
X95769500Y-50066181D01*
X95769500Y-50213819D01*
X95740698Y-50358621D01*
X95684199Y-50495022D01*
X95602175Y-50617779D01*
X95497779Y-50722175D01*
X95375022Y-50804199D01*
X95238621Y-50860698D01*
X95114425Y-50885401D01*
X95093820Y-50889500D01*
X94946180Y-50889500D01*
X94925575Y-50885401D01*
X94801379Y-50860698D01*
X94664978Y-50804199D01*
X94542221Y-50722175D01*
X94437825Y-50617779D01*
X94355801Y-50495022D01*
X94299302Y-50358621D01*
X94270500Y-50213819D01*
X94270500Y-50066181D01*
X94271531Y-50061000D01*
X94279182Y-50022532D01*
X94299302Y-49921379D01*
X94355801Y-49784978D01*
X94437825Y-49662221D01*
X94542221Y-49557825D01*
X94664978Y-49475801D01*
X94801379Y-49419302D01*
X94925575Y-49394599D01*
X94946180Y-49390500D01*
X95093820Y-49390500D01*
X95114425Y-49394599D01*
X95114425Y-49394599D01*
G37*
G36*
X87494425Y-49394599D02*
G01*
X87618621Y-49419302D01*
X87755022Y-49475801D01*
X87877779Y-49557825D01*
X87982175Y-49662221D01*
X88064199Y-49784978D01*
X88120698Y-49921379D01*
X88140818Y-50022532D01*
X88148470Y-50061000D01*
X88149500Y-50066181D01*
X88149500Y-50213819D01*
X88120698Y-50358621D01*
X88064199Y-50495022D01*
X87982175Y-50617779D01*
X87877779Y-50722175D01*
X87755022Y-50804199D01*
X87618621Y-50860698D01*
X87494425Y-50885401D01*
X87473820Y-50889500D01*
X87326180Y-50889500D01*
X87305575Y-50885401D01*
X87181379Y-50860698D01*
X87044978Y-50804199D01*
X86922221Y-50722175D01*
X86817825Y-50617779D01*
X86735801Y-50495022D01*
X86679302Y-50358621D01*
X86650500Y-50213819D01*
X86650500Y-50066181D01*
X86651531Y-50061000D01*
X86659182Y-50022532D01*
X86679302Y-49921379D01*
X86735801Y-49784978D01*
X86817825Y-49662221D01*
X86922221Y-49557825D01*
X87044978Y-49475801D01*
X87181379Y-49419302D01*
X87305575Y-49394599D01*
X87326180Y-49390500D01*
X87473820Y-49390500D01*
X87494425Y-49394599D01*
X87494425Y-49394599D01*
G37*
G36*
X105912983Y-48077776D02*
G01*
X106011981Y-48097468D01*
X106194151Y-48172926D01*
X106358100Y-48282473D01*
X106497527Y-48421900D01*
X106607074Y-48585849D01*
X106682532Y-48768019D01*
X106721000Y-48961410D01*
X106721000Y-49158590D01*
X106682532Y-49351981D01*
X106607074Y-49534151D01*
X106497527Y-49698100D01*
X106358100Y-49837527D01*
X106194151Y-49947074D01*
X106011981Y-50022532D01*
X105818591Y-50061000D01*
X105621409Y-50061000D01*
X105524715Y-50041766D01*
X105428019Y-50022532D01*
X105245849Y-49947074D01*
X105081900Y-49837527D01*
X104942473Y-49698100D01*
X104832926Y-49534151D01*
X104757468Y-49351981D01*
X104719000Y-49158590D01*
X104719000Y-48961410D01*
X104757468Y-48768019D01*
X104832926Y-48585849D01*
X104942473Y-48421900D01*
X105081900Y-48282473D01*
X105245849Y-48172926D01*
X105428019Y-48097468D01*
X105527017Y-48077776D01*
X105621409Y-48059000D01*
X105818591Y-48059000D01*
X105912983Y-48077776D01*
X105912983Y-48077776D01*
G37*
G36*
X95114425Y-46854599D02*
G01*
X95238621Y-46879302D01*
X95375022Y-46935801D01*
X95497779Y-47017825D01*
X95602175Y-47122221D01*
X95684199Y-47244978D01*
X95740698Y-47381379D01*
X95769500Y-47526181D01*
X95769500Y-47673819D01*
X95740698Y-47818621D01*
X95684199Y-47955022D01*
X95602175Y-48077779D01*
X95497779Y-48182175D01*
X95375022Y-48264199D01*
X95238621Y-48320698D01*
X95114425Y-48345401D01*
X95093820Y-48349500D01*
X94946180Y-48349500D01*
X94925575Y-48345401D01*
X94801379Y-48320698D01*
X94664978Y-48264199D01*
X94542221Y-48182175D01*
X94437825Y-48077779D01*
X94355801Y-47955022D01*
X94299302Y-47818621D01*
X94270500Y-47673819D01*
X94270500Y-47526181D01*
X94299302Y-47381379D01*
X94355801Y-47244978D01*
X94437825Y-47122221D01*
X94542221Y-47017825D01*
X94664978Y-46935801D01*
X94801379Y-46879302D01*
X94925575Y-46854599D01*
X94946180Y-46850500D01*
X95093820Y-46850500D01*
X95114425Y-46854599D01*
X95114425Y-46854599D01*
G37*
G36*
X87494425Y-46854599D02*
G01*
X87618621Y-46879302D01*
X87755022Y-46935801D01*
X87877779Y-47017825D01*
X87982175Y-47122221D01*
X88064199Y-47244978D01*
X88120698Y-47381379D01*
X88149500Y-47526181D01*
X88149500Y-47673819D01*
X88120698Y-47818621D01*
X88064199Y-47955022D01*
X87982175Y-48077779D01*
X87877779Y-48182175D01*
X87755022Y-48264199D01*
X87618621Y-48320698D01*
X87494425Y-48345401D01*
X87473820Y-48349500D01*
X87326180Y-48349500D01*
X87305575Y-48345401D01*
X87181379Y-48320698D01*
X87044978Y-48264199D01*
X86922221Y-48182175D01*
X86817825Y-48077779D01*
X86735801Y-47955022D01*
X86679302Y-47818621D01*
X86650500Y-47673819D01*
X86650500Y-47526181D01*
X86679302Y-47381379D01*
X86735801Y-47244978D01*
X86817825Y-47122221D01*
X86922221Y-47017825D01*
X87044978Y-46935801D01*
X87181379Y-46879302D01*
X87305575Y-46854599D01*
X87326180Y-46850500D01*
X87473820Y-46850500D01*
X87494425Y-46854599D01*
X87494425Y-46854599D01*
G37*
G36*
X78966823Y-46001313D02*
G01*
X79097380Y-46040917D01*
X79113651Y-46045853D01*
X79127242Y-46049976D01*
X79259906Y-46120886D01*
X79275078Y-46128996D01*
X79404659Y-46235341D01*
X79511004Y-46364922D01*
X79511005Y-46364924D01*
X79590024Y-46512758D01*
X79638687Y-46673177D01*
X79655117Y-46840000D01*
X79638687Y-47006823D01*
X79590024Y-47167242D01*
X79519114Y-47299906D01*
X79511004Y-47315078D01*
X79404659Y-47444659D01*
X79275078Y-47551004D01*
X79275076Y-47551005D01*
X79127242Y-47630024D01*
X78966823Y-47678687D01*
X78841804Y-47691000D01*
X78758196Y-47691000D01*
X78633177Y-47678687D01*
X78472758Y-47630024D01*
X78324924Y-47551005D01*
X78324922Y-47551004D01*
X78195341Y-47444659D01*
X78088996Y-47315078D01*
X78080886Y-47299906D01*
X78009976Y-47167242D01*
X77961313Y-47006823D01*
X77944883Y-46840000D01*
X77961313Y-46673177D01*
X78009976Y-46512758D01*
X78088995Y-46364924D01*
X78088996Y-46364922D01*
X78195341Y-46235341D01*
X78324922Y-46128996D01*
X78340094Y-46120886D01*
X78472758Y-46049976D01*
X78486350Y-46045853D01*
X78502620Y-46040917D01*
X78633177Y-46001313D01*
X78758196Y-45989000D01*
X78841804Y-45989000D01*
X78966823Y-46001313D01*
X78966823Y-46001313D01*
G37*
G36*
X82948228Y-45981703D02*
G01*
X83103100Y-46045853D01*
X83242481Y-46138985D01*
X83361015Y-46257519D01*
X83454147Y-46396900D01*
X83518297Y-46551772D01*
X83551000Y-46716184D01*
X83551000Y-46883816D01*
X83518297Y-47048228D01*
X83454147Y-47203100D01*
X83361015Y-47342481D01*
X83242481Y-47461015D01*
X83103100Y-47554147D01*
X82948228Y-47618297D01*
X82783816Y-47651000D01*
X82616184Y-47651000D01*
X82451772Y-47618297D01*
X82296900Y-47554147D01*
X82157519Y-47461015D01*
X82038985Y-47342481D01*
X81945853Y-47203100D01*
X81881703Y-47048228D01*
X81849000Y-46883816D01*
X81849000Y-46716184D01*
X81881703Y-46551772D01*
X81945853Y-46396900D01*
X82038985Y-46257519D01*
X82157519Y-46138985D01*
X82296900Y-46045853D01*
X82451772Y-45981703D01*
X82616184Y-45949000D01*
X82783816Y-45949000D01*
X82948228Y-45981703D01*
X82948228Y-45981703D01*
G37*
G36*
X122001000Y-46901000D02*
G01*
X119399000Y-46901000D01*
X119399000Y-44299000D01*
X122001000Y-44299000D01*
X122001000Y-46901000D01*
X122001000Y-46901000D01*
G37*
G36*
X48114795Y-43320156D02*
G01*
X48221150Y-43341311D01*
X48421520Y-43424307D01*
X48601844Y-43544795D01*
X48755205Y-43698156D01*
X48875693Y-43878480D01*
X48958689Y-44078851D01*
X49001000Y-44291560D01*
X49001000Y-44508440D01*
X48958689Y-44721149D01*
X48875693Y-44921520D01*
X48755205Y-45101844D01*
X48601844Y-45255205D01*
X48421520Y-45375693D01*
X48221150Y-45458689D01*
X48114795Y-45479844D01*
X48008440Y-45501000D01*
X47791560Y-45501000D01*
X47685205Y-45479844D01*
X47578850Y-45458689D01*
X47478666Y-45417191D01*
X47378480Y-45375693D01*
X47198156Y-45255205D01*
X47044795Y-45101844D01*
X46924307Y-44921520D01*
X46841311Y-44721149D01*
X46799000Y-44508440D01*
X46799000Y-44291560D01*
X46841311Y-44078851D01*
X46924307Y-43878480D01*
X47044795Y-43698156D01*
X47198156Y-43544795D01*
X47378480Y-43424307D01*
X47478666Y-43382809D01*
X47578850Y-43341311D01*
X47685205Y-43320156D01*
X47791560Y-43299000D01*
X48008440Y-43299000D01*
X48114795Y-43320156D01*
X48114795Y-43320156D01*
G37*
G36*
X132414795Y-43320156D02*
G01*
X132521150Y-43341311D01*
X132721520Y-43424307D01*
X132901844Y-43544795D01*
X133055205Y-43698156D01*
X133175693Y-43878480D01*
X133258689Y-44078851D01*
X133301000Y-44291560D01*
X133301000Y-44508440D01*
X133258689Y-44721149D01*
X133175693Y-44921520D01*
X133055205Y-45101844D01*
X132901844Y-45255205D01*
X132721520Y-45375693D01*
X132521150Y-45458689D01*
X132414795Y-45479844D01*
X132308440Y-45501000D01*
X132091560Y-45501000D01*
X131985205Y-45479844D01*
X131878850Y-45458689D01*
X131778666Y-45417191D01*
X131678480Y-45375693D01*
X131498156Y-45255205D01*
X131344795Y-45101844D01*
X131224307Y-44921520D01*
X131141311Y-44721149D01*
X131099000Y-44508440D01*
X131099000Y-44291560D01*
X131141311Y-44078851D01*
X131224307Y-43878480D01*
X131344795Y-43698156D01*
X131498156Y-43544795D01*
X131678480Y-43424307D01*
X131778666Y-43382809D01*
X131878850Y-43341311D01*
X131985205Y-43320156D01*
X132091560Y-43299000D01*
X132308440Y-43299000D01*
X132414795Y-43320156D01*
X132414795Y-43320156D01*
G37*
G36*
X115448228Y-43681703D02*
G01*
X115603100Y-43745853D01*
X115742481Y-43838985D01*
X115861015Y-43957519D01*
X115954147Y-44096900D01*
X116018297Y-44251772D01*
X116051000Y-44416184D01*
X116051000Y-44583816D01*
X116018297Y-44748228D01*
X115954147Y-44903100D01*
X115861015Y-45042481D01*
X115742481Y-45161015D01*
X115603100Y-45254147D01*
X115448228Y-45318297D01*
X115283816Y-45351000D01*
X115116184Y-45351000D01*
X114951772Y-45318297D01*
X114796900Y-45254147D01*
X114657519Y-45161015D01*
X114538985Y-45042481D01*
X114445853Y-44903100D01*
X114381703Y-44748228D01*
X114349000Y-44583816D01*
X114349000Y-44416184D01*
X114381703Y-44251772D01*
X114445853Y-44096900D01*
X114538985Y-43957519D01*
X114657519Y-43838985D01*
X114796900Y-43745853D01*
X114951772Y-43681703D01*
X115116184Y-43649000D01*
X115283816Y-43649000D01*
X115448228Y-43681703D01*
X115448228Y-43681703D01*
G37*
M02*
