M48
INCH
T1C0.0157
T2C0.0197
T3C0.0217
T4C0.0300
T5C0.0315
T6C0.0320
T7C0.0394
T8C0.0433
T9C0.0472
T10C0.0591
T11C0.0709
T12C0.0787
T13C0.0827
T14C0.0945
%
G90
G05
T1
X1.9567Y-3.4291
X2.1417Y-3.252
X2.2008Y-3.8189
X2.6024Y-2.815
X2.6299Y-2.5827
X2.6575Y-2.9409
X2.689Y-2.7165
X2.7205Y-2.9409
X2.7362Y-2.3976
X2.7835Y-2.5827
X2.8937Y-3.2362
X2.9409Y-2.7874
X2.9409Y-2.9409
X3.0827Y-3.7283
X3.0984Y-2.8937
X3.0984Y-3.2362
X3.6457Y-2.878
X3.6457Y-2.9449
T4
X4.1622Y-2.3291
X3.7063Y-2.9657
X3.7063Y-3.0657
X3.7063Y-3.1657
X3.7063Y-3.2657
X4.0161Y-2.9705
X4.0161Y-3.0689
X4.0161Y-3.1657
X4.0161Y-3.2657
T5
X3.1772Y-2.378
X3.2756Y-2.378
X3.4921Y-3.2323
X3.4921Y-3.3307
X3.8701Y-3.4252
X3.9685Y-3.4252
X4.102Y-2.7059
X4.502Y-2.7059
X4.4016Y-2.8953
X4.4016Y-3.2953
X3.8543Y-2.4646
X3.9528Y-2.4646
X3.8583Y-1.9764
X3.9567Y-1.9764
X3.185Y-2.7677
X3.2835Y-2.7677
X3.8583Y-2.1457
X3.9567Y-2.1457
X3.1024Y-1.8441
X3.1024Y-2.2441
X4.1622Y-2.0142
X4.1622Y-2.0929
X4.1622Y-2.1717
X4.2402Y-2.8953
X4.2402Y-3.2953
X4.0984Y-2.5472
X4.4984Y-2.5472
X4.5354Y-1.752
X4.5354Y-2.152
X3.8543Y-2.3071
X3.9528Y-2.3071
X4.3583Y-2.3898
X4.4567Y-2.3898
X2.6457Y-3.1929
X2.6457Y-3.2913
X3.2559Y-1.8425
X3.2559Y-2.2425
X3.1772Y-2.5906
X3.2756Y-2.5906
T6
X3.4409Y-1.874
X3.4409Y-1.974
X3.4409Y-2.074
X3.4409Y-2.174
X3.4409Y-2.274
X3.4409Y-2.374
X3.4409Y-2.474
X3.4409Y-2.574
X3.4409Y-2.674
X3.4409Y-2.774
X3.7409Y-1.874
X3.7409Y-1.974
X3.7409Y-2.074
X3.7409Y-2.174
X3.7409Y-2.274
X3.7409Y-2.374
X3.7409Y-2.474
X3.7409Y-2.574
X3.7409Y-2.674
X3.7409Y-2.774
T7
X4.7457Y-3.1634
X4.8441Y-3.1634
X4.9425Y-3.1634
X2.3535Y-2.7957
X2.3535Y-2.8957
X2.3535Y-2.9957
X2.3535Y-3.0957
X2.3535Y-3.1957
X2.3535Y-3.2957
X2.3535Y-3.3957
X2.3535Y-3.4957
X4.7417Y-2.0571
X4.8402Y-2.0571
X4.9386Y-2.0571
X4.7457Y-2.6122
X4.8441Y-2.6122
X4.9425Y-2.6122
X2.3425Y-2.1457
X2.4425Y-2.1457
X2.5425Y-2.1457
X2.6425Y-2.1457
X2.7425Y-2.1457
X2.8425Y-2.1457
X4.6378Y-3.7425
X4.6378Y-3.8425
T8
X4.2992Y-3.4449
X1.9646Y-3.0906
X1.9646Y-3.3465
X2.1417Y-3.0906
X2.1417Y-3.3465
X1.9685Y-2.5748
X1.9685Y-2.8307
X2.1457Y-2.5748
X2.1457Y-2.8307
T9
X2.4685Y-2.4646
X4.752Y-1.7953
X3.8228Y-3.815
X3.6575Y-3.815
T10
X4.1622Y-1.9315
X4.1622Y-2.4118
T11
X4.1496Y-3.752
X4.4488Y-3.752
T12
X4.6181Y-3.439
X5.0669Y-3.439
X4.6142Y-2.3327
X5.063Y-2.3327
X4.6181Y-2.8878
X5.0669Y-2.8878
T13
X1.8858Y-3.8425
X5.2047Y-3.8425
X5.2047Y-1.748
X1.8858Y-1.748
T14
X2.3843Y-2.6496
X2.3843Y-3.6496
X3.8898Y-2.6496
X3.8898Y-3.6496
T2
G00X2.6339Y-3.8652
M15
G01X2.6339Y-3.8907
M16
G05
G00X2.9094Y-3.865
M15
G01X2.9094Y-3.8909
M16
G05
T3
G00X2.6673Y-3.7717
M15
G01X2.6791Y-3.7717
M16
G05
G00X2.8642Y-3.7717
M15
G01X2.876Y-3.7717
M16
G05
T0
M30
