G04 #@! TF.GenerationSoftware,KiCad,Pcbnew,(5.1.5-0-10_14)*
G04 #@! TF.CreationDate,2019-12-09T00:47:21-08:00*
G04 #@! TF.ProjectId,powersupply,706f7765-7273-4757-9070-6c792e6b6963,rev?*
G04 #@! TF.SameCoordinates,Original*
G04 #@! TF.FileFunction,Copper,L2,Bot*
G04 #@! TF.FilePolarity,Positive*
%FSLAX46Y46*%
G04 Gerber Fmt 4.6, Leading zero omitted, Abs format (unit mm)*
G04 Created by KiCad (PCBNEW (5.1.5-0-10_14)) date 2019-12-09 00:47:21*
%MOMM*%
%LPD*%
G04 APERTURE LIST*
%ADD10C,0.150000*%
%ADD11R,1.500000X1.500000*%
%ADD12C,1.524000*%
%ADD13O,1.905000X2.000000*%
%ADD14R,1.905000X2.000000*%
%ADD15C,0.100000*%
%ADD16R,0.600000X1.500000*%
%ADD17R,1.000000X1.500000*%
%ADD18O,1.700000X1.700000*%
%ADD19R,1.700000X1.700000*%
%ADD20C,1.600000*%
%ADD21R,1.600000X1.600000*%
%ADD22C,2.000000*%
%ADD23R,2.000000X2.000000*%
%ADD24O,1.600000X1.600000*%
%ADD25C,1.700000*%
%ADD26C,2.600000*%
%ADD27C,7.000000*%
%ADD28O,1.250000X0.950000*%
%ADD29O,1.000000X1.650000*%
%ADD30O,2.200000X2.200000*%
%ADD31R,2.200000X2.200000*%
%ADD32C,0.800000*%
%ADD33C,0.400000*%
%ADD34C,0.250000*%
%ADD35C,0.200000*%
G04 APERTURE END LIST*
D10*
X54694000Y-34290000D02*
X55194000Y-34290000D01*
X59266000Y-34290000D02*
X59766000Y-34290000D01*
D11*
X73600000Y-57400000D03*
X77700000Y-87700000D03*
X82500000Y-76800000D03*
X76600000Y-57400000D03*
X54100000Y-57100000D03*
X64850000Y-58100000D03*
X45675000Y-35975000D03*
X34036000Y-38354000D03*
D12*
X55535000Y-31850000D03*
X58075000Y-31850000D03*
X60615000Y-31850000D03*
X63155000Y-31850000D03*
D13*
X80720000Y-73400000D03*
X83260000Y-73400000D03*
D14*
X85800000Y-73400000D03*
G04 #@! TA.AperFunction,SMDPad,CuDef*
D15*
G36*
X57142648Y-33542410D02*
G01*
X57191223Y-33549615D01*
X57238858Y-33561547D01*
X57285095Y-33578091D01*
X57329487Y-33599087D01*
X57371607Y-33624333D01*
X57411050Y-33653586D01*
X57447436Y-33686564D01*
X57480414Y-33722950D01*
X57509667Y-33762393D01*
X57534913Y-33804513D01*
X57555909Y-33848905D01*
X57572453Y-33895142D01*
X57584385Y-33942777D01*
X57591590Y-33991352D01*
X57594000Y-34040400D01*
X57594000Y-34539600D01*
X57591590Y-34588648D01*
X57584385Y-34637223D01*
X57572453Y-34684858D01*
X57555909Y-34731095D01*
X57534913Y-34775487D01*
X57509667Y-34817607D01*
X57480414Y-34857050D01*
X57447436Y-34893436D01*
X57411050Y-34926414D01*
X57371607Y-34955667D01*
X57329487Y-34980913D01*
X57285095Y-35001909D01*
X57238858Y-35018453D01*
X57191223Y-35030385D01*
X57142648Y-35037590D01*
X57093600Y-35040000D01*
X56894400Y-35040000D01*
X56845352Y-35037590D01*
X56796777Y-35030385D01*
X56749142Y-35018453D01*
X56702905Y-35001909D01*
X56658513Y-34980913D01*
X56616393Y-34955667D01*
X56576950Y-34926414D01*
X56540564Y-34893436D01*
X56507586Y-34857050D01*
X56478333Y-34817607D01*
X56453087Y-34775487D01*
X56432091Y-34731095D01*
X56415547Y-34684858D01*
X56403615Y-34637223D01*
X56396410Y-34588648D01*
X56394000Y-34539600D01*
X56394000Y-34040400D01*
X56396410Y-33991352D01*
X56403615Y-33942777D01*
X56415547Y-33895142D01*
X56432091Y-33848905D01*
X56453087Y-33804513D01*
X56478333Y-33762393D01*
X56507586Y-33722950D01*
X56540564Y-33686564D01*
X56576950Y-33653586D01*
X56616393Y-33624333D01*
X56658513Y-33599087D01*
X56702905Y-33578091D01*
X56749142Y-33561547D01*
X56796777Y-33549615D01*
X56845352Y-33542410D01*
X56894400Y-33540000D01*
X57093600Y-33540000D01*
X57142648Y-33542410D01*
G37*
G04 #@! TD.AperFunction*
D16*
X56694000Y-34290000D03*
D17*
X55594000Y-34290000D03*
D16*
X54494000Y-34290000D03*
G04 #@! TA.AperFunction,SMDPad,CuDef*
D15*
G36*
X54342648Y-33542410D02*
G01*
X54391223Y-33549615D01*
X54438858Y-33561547D01*
X54485095Y-33578091D01*
X54529487Y-33599087D01*
X54571607Y-33624333D01*
X54611050Y-33653586D01*
X54647436Y-33686564D01*
X54680414Y-33722950D01*
X54709667Y-33762393D01*
X54734913Y-33804513D01*
X54755909Y-33848905D01*
X54772453Y-33895142D01*
X54784385Y-33942777D01*
X54791590Y-33991352D01*
X54794000Y-34040400D01*
X54794000Y-34539600D01*
X54791590Y-34588648D01*
X54784385Y-34637223D01*
X54772453Y-34684858D01*
X54755909Y-34731095D01*
X54734913Y-34775487D01*
X54709667Y-34817607D01*
X54680414Y-34857050D01*
X54647436Y-34893436D01*
X54611050Y-34926414D01*
X54571607Y-34955667D01*
X54529487Y-34980913D01*
X54485095Y-35001909D01*
X54438858Y-35018453D01*
X54391223Y-35030385D01*
X54342648Y-35037590D01*
X54293600Y-35040000D01*
X54094400Y-35040000D01*
X54045352Y-35037590D01*
X53996777Y-35030385D01*
X53949142Y-35018453D01*
X53902905Y-35001909D01*
X53858513Y-34980913D01*
X53816393Y-34955667D01*
X53776950Y-34926414D01*
X53740564Y-34893436D01*
X53707586Y-34857050D01*
X53678333Y-34817607D01*
X53653087Y-34775487D01*
X53632091Y-34731095D01*
X53615547Y-34684858D01*
X53603615Y-34637223D01*
X53596410Y-34588648D01*
X53594000Y-34539600D01*
X53594000Y-34040400D01*
X53596410Y-33991352D01*
X53603615Y-33942777D01*
X53615547Y-33895142D01*
X53632091Y-33848905D01*
X53653087Y-33804513D01*
X53678333Y-33762393D01*
X53707586Y-33722950D01*
X53740564Y-33686564D01*
X53776950Y-33653586D01*
X53816393Y-33624333D01*
X53858513Y-33599087D01*
X53902905Y-33578091D01*
X53949142Y-33561547D01*
X53996777Y-33549615D01*
X54045352Y-33542410D01*
X54094400Y-33540000D01*
X54293600Y-33540000D01*
X54342648Y-33542410D01*
G37*
G04 #@! TD.AperFunction*
G04 #@! TA.AperFunction,SMDPad,CuDef*
G36*
X61714648Y-33542410D02*
G01*
X61763223Y-33549615D01*
X61810858Y-33561547D01*
X61857095Y-33578091D01*
X61901487Y-33599087D01*
X61943607Y-33624333D01*
X61983050Y-33653586D01*
X62019436Y-33686564D01*
X62052414Y-33722950D01*
X62081667Y-33762393D01*
X62106913Y-33804513D01*
X62127909Y-33848905D01*
X62144453Y-33895142D01*
X62156385Y-33942777D01*
X62163590Y-33991352D01*
X62166000Y-34040400D01*
X62166000Y-34539600D01*
X62163590Y-34588648D01*
X62156385Y-34637223D01*
X62144453Y-34684858D01*
X62127909Y-34731095D01*
X62106913Y-34775487D01*
X62081667Y-34817607D01*
X62052414Y-34857050D01*
X62019436Y-34893436D01*
X61983050Y-34926414D01*
X61943607Y-34955667D01*
X61901487Y-34980913D01*
X61857095Y-35001909D01*
X61810858Y-35018453D01*
X61763223Y-35030385D01*
X61714648Y-35037590D01*
X61665600Y-35040000D01*
X61466400Y-35040000D01*
X61417352Y-35037590D01*
X61368777Y-35030385D01*
X61321142Y-35018453D01*
X61274905Y-35001909D01*
X61230513Y-34980913D01*
X61188393Y-34955667D01*
X61148950Y-34926414D01*
X61112564Y-34893436D01*
X61079586Y-34857050D01*
X61050333Y-34817607D01*
X61025087Y-34775487D01*
X61004091Y-34731095D01*
X60987547Y-34684858D01*
X60975615Y-34637223D01*
X60968410Y-34588648D01*
X60966000Y-34539600D01*
X60966000Y-34040400D01*
X60968410Y-33991352D01*
X60975615Y-33942777D01*
X60987547Y-33895142D01*
X61004091Y-33848905D01*
X61025087Y-33804513D01*
X61050333Y-33762393D01*
X61079586Y-33722950D01*
X61112564Y-33686564D01*
X61148950Y-33653586D01*
X61188393Y-33624333D01*
X61230513Y-33599087D01*
X61274905Y-33578091D01*
X61321142Y-33561547D01*
X61368777Y-33549615D01*
X61417352Y-33542410D01*
X61466400Y-33540000D01*
X61665600Y-33540000D01*
X61714648Y-33542410D01*
G37*
G04 #@! TD.AperFunction*
D16*
X61266000Y-34290000D03*
D17*
X60166000Y-34290000D03*
D16*
X59066000Y-34290000D03*
G04 #@! TA.AperFunction,SMDPad,CuDef*
D15*
G36*
X58914648Y-33542410D02*
G01*
X58963223Y-33549615D01*
X59010858Y-33561547D01*
X59057095Y-33578091D01*
X59101487Y-33599087D01*
X59143607Y-33624333D01*
X59183050Y-33653586D01*
X59219436Y-33686564D01*
X59252414Y-33722950D01*
X59281667Y-33762393D01*
X59306913Y-33804513D01*
X59327909Y-33848905D01*
X59344453Y-33895142D01*
X59356385Y-33942777D01*
X59363590Y-33991352D01*
X59366000Y-34040400D01*
X59366000Y-34539600D01*
X59363590Y-34588648D01*
X59356385Y-34637223D01*
X59344453Y-34684858D01*
X59327909Y-34731095D01*
X59306913Y-34775487D01*
X59281667Y-34817607D01*
X59252414Y-34857050D01*
X59219436Y-34893436D01*
X59183050Y-34926414D01*
X59143607Y-34955667D01*
X59101487Y-34980913D01*
X59057095Y-35001909D01*
X59010858Y-35018453D01*
X58963223Y-35030385D01*
X58914648Y-35037590D01*
X58865600Y-35040000D01*
X58666400Y-35040000D01*
X58617352Y-35037590D01*
X58568777Y-35030385D01*
X58521142Y-35018453D01*
X58474905Y-35001909D01*
X58430513Y-34980913D01*
X58388393Y-34955667D01*
X58348950Y-34926414D01*
X58312564Y-34893436D01*
X58279586Y-34857050D01*
X58250333Y-34817607D01*
X58225087Y-34775487D01*
X58204091Y-34731095D01*
X58187547Y-34684858D01*
X58175615Y-34637223D01*
X58168410Y-34588648D01*
X58166000Y-34539600D01*
X58166000Y-34040400D01*
X58168410Y-33991352D01*
X58175615Y-33942777D01*
X58187547Y-33895142D01*
X58204091Y-33848905D01*
X58225087Y-33804513D01*
X58250333Y-33762393D01*
X58279586Y-33722950D01*
X58312564Y-33686564D01*
X58348950Y-33653586D01*
X58388393Y-33624333D01*
X58430513Y-33599087D01*
X58474905Y-33578091D01*
X58521142Y-33561547D01*
X58568777Y-33549615D01*
X58617352Y-33542410D01*
X58666400Y-33540000D01*
X58865600Y-33540000D01*
X58914648Y-33542410D01*
G37*
G04 #@! TD.AperFunction*
D18*
X43530000Y-32900000D03*
X40990000Y-32900000D03*
D19*
X38450000Y-32900000D03*
D20*
X40000000Y-87600000D03*
D21*
X40000000Y-85100000D03*
D22*
X36450000Y-78500000D03*
D23*
X36450000Y-73500000D03*
D22*
X59850000Y-65450000D03*
D23*
X59850000Y-60450000D03*
D24*
X67650000Y-60080000D03*
X75270000Y-67700000D03*
X70190000Y-60080000D03*
X72730000Y-67700000D03*
X72730000Y-60080000D03*
X70190000Y-67700000D03*
X75270000Y-60080000D03*
D21*
X67650000Y-67700000D03*
D24*
X44450000Y-66780000D03*
X52070000Y-74400000D03*
X46990000Y-66780000D03*
X49530000Y-74400000D03*
X49530000Y-66780000D03*
X46990000Y-74400000D03*
X52070000Y-66780000D03*
D21*
X44450000Y-74400000D03*
D25*
X66400000Y-76400000D03*
X64400000Y-76400000D03*
D18*
X58170000Y-80840000D03*
D19*
X60710000Y-80840000D03*
D20*
X78400000Y-81700000D03*
D21*
X78400000Y-79200000D03*
D26*
X33350000Y-61000000D03*
X38350000Y-61000000D03*
D27*
X49885000Y-85140000D03*
X68935000Y-85140000D03*
D24*
X52910000Y-60500000D03*
D20*
X42750000Y-60500000D03*
D28*
X74850000Y-32250000D03*
D29*
X80850000Y-29550000D03*
X73850000Y-29550000D03*
D28*
X79850000Y-32250000D03*
D30*
X67280000Y-71450000D03*
D31*
X74900000Y-71450000D03*
D30*
X32580000Y-68050000D03*
D31*
X40200000Y-68050000D03*
D20*
X58350000Y-76150000D03*
X55850000Y-76150000D03*
D32*
X78300000Y-34500000D03*
X74980000Y-34400000D03*
X45074000Y-51036240D03*
X45074000Y-53100000D03*
X64300000Y-80400000D03*
X58896000Y-36322000D03*
X39200000Y-53025000D03*
X40300000Y-51000000D03*
X66250000Y-63550000D03*
X74500000Y-75800000D03*
X36150000Y-53350000D03*
X62220000Y-40530000D03*
X65600000Y-41070000D03*
X70400000Y-48650000D03*
X47910000Y-46710000D03*
X84470000Y-38890000D03*
X73700000Y-38900000D03*
X31500000Y-82900000D03*
X61610000Y-43730000D03*
X47244000Y-41910000D03*
X42672000Y-41910000D03*
X48772653Y-37088653D03*
X45720000Y-38608000D03*
X65532000Y-45466000D03*
X30841180Y-44524488D03*
X43150000Y-48450000D03*
X33920000Y-41148000D03*
X50775000Y-49950000D03*
X55500000Y-50000000D03*
X62600000Y-52850000D03*
X55600000Y-52250000D03*
X60050000Y-72850000D03*
X57900000Y-39900000D03*
X77700000Y-53200000D03*
X67300000Y-38700000D03*
X72999996Y-37200000D03*
D33*
X78300000Y-34500000D02*
X75080000Y-34500000D01*
X75080000Y-34500000D02*
X74980000Y-34400000D01*
X45074000Y-53100000D02*
X45074000Y-51036240D01*
D34*
X58170000Y-80840000D02*
X60210000Y-78800000D01*
X60210000Y-78800000D02*
X62700000Y-78800000D01*
X62700000Y-78800000D02*
X64300000Y-80400000D01*
X58896000Y-35756315D02*
X58896000Y-36322000D01*
X58896000Y-34690010D02*
X58896000Y-35756315D01*
X56483151Y-34572850D02*
X56600311Y-34690010D01*
X56600311Y-34690010D02*
X56896000Y-34690010D01*
X59066000Y-34290000D02*
X56694000Y-34290000D01*
X39200000Y-52100000D02*
X39200000Y-53025000D01*
X40300000Y-51000000D02*
X39200000Y-52100000D01*
X67550000Y-63550000D02*
X66250000Y-63550000D01*
X70190000Y-66190000D02*
X67550000Y-63550000D01*
X70190000Y-67700000D02*
X70190000Y-66190000D01*
X72730000Y-74030000D02*
X72730000Y-67700000D01*
X74500000Y-75800000D02*
X72730000Y-74030000D01*
X54194000Y-34290000D02*
X52710000Y-34290000D01*
X61266000Y-34290000D02*
X63190000Y-34290000D01*
X67300000Y-35000000D02*
X67300000Y-38700000D01*
X64900000Y-32600000D02*
X67300000Y-35000000D01*
X64900000Y-31100000D02*
X64900000Y-32600000D01*
X63100000Y-29300000D02*
X64900000Y-31100000D01*
X47130000Y-29300000D02*
X63100000Y-29300000D01*
X43530000Y-32900000D02*
X47130000Y-29300000D01*
X38450000Y-31800000D02*
X41450000Y-28800000D01*
X41450000Y-28800000D02*
X71300000Y-28800000D01*
X38450000Y-32900000D02*
X38450000Y-31800000D01*
X71300000Y-28800000D02*
X72999996Y-30499996D01*
X72999996Y-30499996D02*
X72999996Y-36634315D01*
X72999996Y-36634315D02*
X72999996Y-37200000D01*
X58075000Y-31850000D02*
X58360000Y-32135000D01*
X60166000Y-33290000D02*
X60166000Y-34290000D01*
X59487999Y-32611999D02*
X60166000Y-33290000D01*
X58836999Y-32611999D02*
X59487999Y-32611999D01*
X58075000Y-31850000D02*
X58836999Y-32611999D01*
X55594000Y-31909000D02*
X55535000Y-31850000D01*
X55594000Y-34290000D02*
X55594000Y-31909000D01*
D35*
G36*
X37962523Y-31262173D02*
G01*
X37934869Y-31284868D01*
X37912173Y-31312523D01*
X37912170Y-31312526D01*
X37844269Y-31395264D01*
X37816563Y-31447097D01*
X37600000Y-31447097D01*
X37482379Y-31458682D01*
X37369279Y-31492990D01*
X37265045Y-31548704D01*
X37173683Y-31623683D01*
X37098704Y-31715045D01*
X37042990Y-31819279D01*
X37008682Y-31932379D01*
X36997097Y-32050000D01*
X36997097Y-33750000D01*
X37008682Y-33867621D01*
X37042990Y-33980721D01*
X37098704Y-34084955D01*
X37173683Y-34176317D01*
X37265045Y-34251296D01*
X37369279Y-34307010D01*
X37482379Y-34341318D01*
X37600000Y-34352903D01*
X39300000Y-34352903D01*
X39417621Y-34341318D01*
X39530721Y-34307010D01*
X39634955Y-34251296D01*
X39726317Y-34176317D01*
X39801296Y-34084955D01*
X39857010Y-33980721D01*
X39891318Y-33867621D01*
X39902903Y-33750000D01*
X39902903Y-33689892D01*
X39999004Y-33816748D01*
X40196894Y-33992467D01*
X40425263Y-34126203D01*
X40675335Y-34212817D01*
X40778320Y-34233301D01*
X40989500Y-34125000D01*
X40989500Y-32900500D01*
X40969500Y-32900500D01*
X40969500Y-32899500D01*
X40989500Y-32899500D01*
X40989500Y-31675000D01*
X40778320Y-31566699D01*
X40675335Y-31587183D01*
X40425263Y-31673797D01*
X40196894Y-31807533D01*
X39999004Y-31983252D01*
X39902903Y-32110108D01*
X39902903Y-32050000D01*
X39891318Y-31932379D01*
X39857010Y-31819279D01*
X39801296Y-31715045D01*
X39726317Y-31623683D01*
X39685291Y-31590014D01*
X41750305Y-29525000D01*
X45879695Y-29525000D01*
X43907928Y-31496768D01*
X43672813Y-31450000D01*
X43387187Y-31450000D01*
X43107051Y-31505723D01*
X42843167Y-31615027D01*
X42605679Y-31773711D01*
X42403711Y-31975679D01*
X42245027Y-32213167D01*
X42201283Y-32318775D01*
X42140803Y-32194201D01*
X41980996Y-31983252D01*
X41783106Y-31807533D01*
X41554737Y-31673797D01*
X41304665Y-31587183D01*
X41201680Y-31566699D01*
X40990500Y-31675000D01*
X40990500Y-32899500D01*
X41010500Y-32899500D01*
X41010500Y-32900500D01*
X40990500Y-32900500D01*
X40990500Y-34125000D01*
X41201680Y-34233301D01*
X41304665Y-34212817D01*
X41554737Y-34126203D01*
X41783106Y-33992467D01*
X41980996Y-33816748D01*
X42140803Y-33605799D01*
X42201283Y-33481225D01*
X42245027Y-33586833D01*
X42403711Y-33824321D01*
X42605679Y-34026289D01*
X42843167Y-34184973D01*
X43107051Y-34294277D01*
X43387187Y-34350000D01*
X43672813Y-34350000D01*
X43952949Y-34294277D01*
X44216833Y-34184973D01*
X44454321Y-34026289D01*
X44656289Y-33824321D01*
X44814973Y-33586833D01*
X44924277Y-33322949D01*
X44980000Y-33042813D01*
X44980000Y-32757187D01*
X44933232Y-32522072D01*
X45321985Y-32133319D01*
X46895000Y-32133319D01*
X46895000Y-32566681D01*
X46979545Y-32991716D01*
X47145385Y-33392091D01*
X47386148Y-33752418D01*
X47692582Y-34058852D01*
X48052909Y-34299615D01*
X48453284Y-34465455D01*
X48878319Y-34550000D01*
X49311681Y-34550000D01*
X49736716Y-34465455D01*
X50137091Y-34299615D01*
X50497418Y-34058852D01*
X50803852Y-33752418D01*
X51044615Y-33392091D01*
X51210455Y-32991716D01*
X51295000Y-32566681D01*
X51295000Y-32133319D01*
X51210455Y-31708284D01*
X51044615Y-31307909D01*
X50803852Y-30947582D01*
X50497418Y-30641148D01*
X50137091Y-30400385D01*
X49736716Y-30234545D01*
X49311681Y-30150000D01*
X48878319Y-30150000D01*
X48453284Y-30234545D01*
X48052909Y-30400385D01*
X47692582Y-30641148D01*
X47386148Y-30947582D01*
X47145385Y-31307909D01*
X46979545Y-31708284D01*
X46895000Y-32133319D01*
X45321985Y-32133319D01*
X47430305Y-30025000D01*
X62799696Y-30025000D01*
X63262696Y-30488000D01*
X63020855Y-30488000D01*
X62757719Y-30540341D01*
X62509851Y-30643011D01*
X62286776Y-30792066D01*
X62097066Y-30981776D01*
X61948011Y-31204851D01*
X61885000Y-31356973D01*
X61821989Y-31204851D01*
X61672934Y-30981776D01*
X61483224Y-30792066D01*
X61260149Y-30643011D01*
X61012281Y-30540341D01*
X60749145Y-30488000D01*
X60480855Y-30488000D01*
X60217719Y-30540341D01*
X59969851Y-30643011D01*
X59746776Y-30792066D01*
X59557066Y-30981776D01*
X59408011Y-31204851D01*
X59345000Y-31356973D01*
X59281989Y-31204851D01*
X59132934Y-30981776D01*
X58943224Y-30792066D01*
X58720149Y-30643011D01*
X58472281Y-30540341D01*
X58209145Y-30488000D01*
X57940855Y-30488000D01*
X57677719Y-30540341D01*
X57429851Y-30643011D01*
X57206776Y-30792066D01*
X57017066Y-30981776D01*
X56868011Y-31204851D01*
X56805000Y-31356973D01*
X56741989Y-31204851D01*
X56592934Y-30981776D01*
X56403224Y-30792066D01*
X56180149Y-30643011D01*
X55932281Y-30540341D01*
X55669145Y-30488000D01*
X55400855Y-30488000D01*
X55137719Y-30540341D01*
X54889851Y-30643011D01*
X54666776Y-30792066D01*
X54477066Y-30981776D01*
X54328011Y-31204851D01*
X54225341Y-31452719D01*
X54173000Y-31715855D01*
X54173000Y-31984145D01*
X54225341Y-32247281D01*
X54328011Y-32495149D01*
X54477066Y-32718224D01*
X54666776Y-32907934D01*
X54816514Y-33007986D01*
X54760830Y-33037750D01*
X54355325Y-33039817D01*
X54194000Y-33037581D01*
X54095983Y-33047235D01*
X54080448Y-33051948D01*
X54068500Y-33040000D01*
X53594000Y-33037581D01*
X53495983Y-33047235D01*
X53401733Y-33075825D01*
X53314871Y-33122254D01*
X53238736Y-33184736D01*
X53176254Y-33260871D01*
X53129825Y-33347733D01*
X53101235Y-33441983D01*
X53091581Y-33540000D01*
X53094000Y-34164500D01*
X53219000Y-34289500D01*
X54015783Y-34289500D01*
X54015734Y-34290000D01*
X54015783Y-34290500D01*
X53219000Y-34290500D01*
X53094000Y-34415500D01*
X53091581Y-35040000D01*
X53101235Y-35138017D01*
X53129825Y-35232267D01*
X53176254Y-35319129D01*
X53238736Y-35395264D01*
X53314871Y-35457746D01*
X53401733Y-35504175D01*
X53495983Y-35532765D01*
X53594000Y-35542419D01*
X54068500Y-35540000D01*
X54080448Y-35528052D01*
X54095983Y-35532765D01*
X54194000Y-35542419D01*
X54355325Y-35540183D01*
X54760830Y-35542250D01*
X54863279Y-35597010D01*
X54976379Y-35631318D01*
X55094000Y-35642903D01*
X56094000Y-35642903D01*
X56211621Y-35631318D01*
X56244000Y-35621496D01*
X56276379Y-35631318D01*
X56394000Y-35642903D01*
X57093600Y-35642903D01*
X57308844Y-35621703D01*
X57515816Y-35558919D01*
X57706562Y-35456963D01*
X57873753Y-35319753D01*
X57880000Y-35312141D01*
X57886247Y-35319753D01*
X58053438Y-35456963D01*
X58171001Y-35519802D01*
X58171001Y-35632785D01*
X58119249Y-35684537D01*
X58009811Y-35848322D01*
X57934429Y-36030311D01*
X57896000Y-36223509D01*
X57896000Y-36420491D01*
X57934429Y-36613689D01*
X58009811Y-36795678D01*
X58119249Y-36959463D01*
X58258537Y-37098751D01*
X58422322Y-37208189D01*
X58604311Y-37283571D01*
X58797509Y-37322000D01*
X58994491Y-37322000D01*
X59187689Y-37283571D01*
X59369678Y-37208189D01*
X59533463Y-37098751D01*
X59672751Y-36959463D01*
X59782189Y-36795678D01*
X59857571Y-36613689D01*
X59896000Y-36420491D01*
X59896000Y-36223509D01*
X59857571Y-36030311D01*
X59782189Y-35848322D01*
X59672751Y-35684537D01*
X59627306Y-35639092D01*
X59666000Y-35642903D01*
X60666000Y-35642903D01*
X60783621Y-35631318D01*
X60896721Y-35597010D01*
X60999170Y-35542250D01*
X61404675Y-35540183D01*
X61566000Y-35542419D01*
X61664017Y-35532765D01*
X61679552Y-35528052D01*
X61691500Y-35540000D01*
X62166000Y-35542419D01*
X62264017Y-35532765D01*
X62358267Y-35504175D01*
X62445129Y-35457746D01*
X62521264Y-35395264D01*
X62583746Y-35319129D01*
X62630175Y-35232267D01*
X62658765Y-35138017D01*
X62668419Y-35040000D01*
X62666000Y-34415500D01*
X62541000Y-34290500D01*
X61545500Y-34290500D01*
X61545500Y-34289500D01*
X62541000Y-34289500D01*
X62666000Y-34164500D01*
X62668419Y-33540000D01*
X62658765Y-33441983D01*
X62630175Y-33347733D01*
X62583746Y-33260871D01*
X62521264Y-33184736D01*
X62445129Y-33122254D01*
X62358267Y-33075825D01*
X62264017Y-33047235D01*
X62166000Y-33037581D01*
X61691500Y-33040000D01*
X61679552Y-33051948D01*
X61664017Y-33047235D01*
X61566000Y-33037581D01*
X61404675Y-33039817D01*
X61286748Y-33039216D01*
X61483224Y-32907934D01*
X61672934Y-32718224D01*
X61821989Y-32495149D01*
X61885000Y-32343027D01*
X61948011Y-32495149D01*
X62097066Y-32718224D01*
X62286776Y-32907934D01*
X62509851Y-33056989D01*
X62757719Y-33159659D01*
X63020855Y-33212000D01*
X63289145Y-33212000D01*
X63552281Y-33159659D01*
X63800149Y-33056989D01*
X64023224Y-32907934D01*
X64186316Y-32744842D01*
X64226947Y-32878787D01*
X64294269Y-33004736D01*
X64362170Y-33087474D01*
X64362173Y-33087477D01*
X64384869Y-33115132D01*
X64412523Y-33137827D01*
X66575000Y-35300305D01*
X66575001Y-38010785D01*
X66523249Y-38062537D01*
X66413811Y-38226322D01*
X66338429Y-38408311D01*
X66300000Y-38601509D01*
X66300000Y-38798491D01*
X66338429Y-38991689D01*
X66413811Y-39173678D01*
X66523249Y-39337463D01*
X66662537Y-39476751D01*
X66826322Y-39586189D01*
X67008311Y-39661571D01*
X67201509Y-39700000D01*
X67398491Y-39700000D01*
X67591689Y-39661571D01*
X67773678Y-39586189D01*
X67937463Y-39476751D01*
X68076751Y-39337463D01*
X68186189Y-39173678D01*
X68261571Y-38991689D01*
X68300000Y-38798491D01*
X68300000Y-38601509D01*
X68261571Y-38408311D01*
X68186189Y-38226322D01*
X68076751Y-38062537D01*
X68025000Y-38010786D01*
X68025000Y-35035600D01*
X68028506Y-35000000D01*
X68025000Y-34964400D01*
X68025000Y-34964393D01*
X68014509Y-34857875D01*
X67973053Y-34721212D01*
X67958901Y-34694736D01*
X67905732Y-34595263D01*
X67837830Y-34512525D01*
X67837823Y-34512518D01*
X67815131Y-34484868D01*
X67787482Y-34462177D01*
X65625000Y-32299696D01*
X65625000Y-32133319D01*
X67395000Y-32133319D01*
X67395000Y-32566681D01*
X67479545Y-32991716D01*
X67645385Y-33392091D01*
X67886148Y-33752418D01*
X68192582Y-34058852D01*
X68552909Y-34299615D01*
X68953284Y-34465455D01*
X69378319Y-34550000D01*
X69811681Y-34550000D01*
X70236716Y-34465455D01*
X70637091Y-34299615D01*
X70997418Y-34058852D01*
X71303852Y-33752418D01*
X71544615Y-33392091D01*
X71710455Y-32991716D01*
X71795000Y-32566681D01*
X71795000Y-32133319D01*
X71710455Y-31708284D01*
X71544615Y-31307909D01*
X71303852Y-30947582D01*
X70997418Y-30641148D01*
X70637091Y-30400385D01*
X70236716Y-30234545D01*
X69811681Y-30150000D01*
X69378319Y-30150000D01*
X68953284Y-30234545D01*
X68552909Y-30400385D01*
X68192582Y-30641148D01*
X67886148Y-30947582D01*
X67645385Y-31307909D01*
X67479545Y-31708284D01*
X67395000Y-32133319D01*
X65625000Y-32133319D01*
X65625000Y-31135596D01*
X65628506Y-31099999D01*
X65625000Y-31064402D01*
X65625000Y-31064393D01*
X65614509Y-30957875D01*
X65573053Y-30821212D01*
X65505731Y-30695263D01*
X65493055Y-30679817D01*
X65437830Y-30612525D01*
X65437823Y-30612518D01*
X65415131Y-30584868D01*
X65387482Y-30562177D01*
X64350304Y-29525000D01*
X70999696Y-29525000D01*
X72274996Y-30800301D01*
X72274997Y-36510785D01*
X72223245Y-36562537D01*
X72113807Y-36726322D01*
X72038425Y-36908311D01*
X71999996Y-37101509D01*
X71999996Y-37298491D01*
X72038425Y-37491689D01*
X72113807Y-37673678D01*
X72223245Y-37837463D01*
X72362533Y-37976751D01*
X72526318Y-38086189D01*
X72708307Y-38161571D01*
X72901505Y-38200000D01*
X73098487Y-38200000D01*
X73291685Y-38161571D01*
X73473674Y-38086189D01*
X73637459Y-37976751D01*
X73776747Y-37837463D01*
X73886185Y-37673678D01*
X73961567Y-37491689D01*
X73999996Y-37298491D01*
X73999996Y-37101509D01*
X73961567Y-36908311D01*
X73886185Y-36726322D01*
X73776747Y-36562537D01*
X73724996Y-36510786D01*
X73724996Y-34301509D01*
X73980000Y-34301509D01*
X73980000Y-34498491D01*
X74018429Y-34691689D01*
X74093811Y-34873678D01*
X74203249Y-35037463D01*
X74342537Y-35176751D01*
X74506322Y-35286189D01*
X74688311Y-35361571D01*
X74881509Y-35400000D01*
X75078491Y-35400000D01*
X75271689Y-35361571D01*
X75420335Y-35300000D01*
X77697331Y-35300000D01*
X77826322Y-35386189D01*
X78008311Y-35461571D01*
X78201509Y-35500000D01*
X78398491Y-35500000D01*
X78591689Y-35461571D01*
X78773678Y-35386189D01*
X78937463Y-35276751D01*
X79076751Y-35137463D01*
X79186189Y-34973678D01*
X79261571Y-34791689D01*
X79300000Y-34598491D01*
X79300000Y-34401509D01*
X79261571Y-34208311D01*
X79186189Y-34026322D01*
X79076751Y-33862537D01*
X78937463Y-33723249D01*
X78773678Y-33613811D01*
X78591689Y-33538429D01*
X78398491Y-33500000D01*
X78201509Y-33500000D01*
X78008311Y-33538429D01*
X77826322Y-33613811D01*
X77697331Y-33700000D01*
X75694214Y-33700000D01*
X75617463Y-33623249D01*
X75453678Y-33513811D01*
X75271689Y-33438429D01*
X75078491Y-33400000D01*
X74881509Y-33400000D01*
X74688311Y-33438429D01*
X74506322Y-33513811D01*
X74342537Y-33623249D01*
X74203249Y-33762537D01*
X74093811Y-33926322D01*
X74018429Y-34108311D01*
X73980000Y-34301509D01*
X73724996Y-34301509D01*
X73724996Y-32403017D01*
X73737082Y-32403017D01*
X73743638Y-32439723D01*
X73799027Y-32622655D01*
X73889040Y-32791266D01*
X74010218Y-32939076D01*
X74157904Y-33060405D01*
X74326422Y-33150591D01*
X74509297Y-33206168D01*
X74699500Y-33225000D01*
X74849500Y-33225000D01*
X74849500Y-32250500D01*
X74850500Y-32250500D01*
X74850500Y-33225000D01*
X75000500Y-33225000D01*
X75190703Y-33206168D01*
X75373578Y-33150591D01*
X75542096Y-33060405D01*
X75689782Y-32939076D01*
X75810960Y-32791266D01*
X75900973Y-32622655D01*
X75956362Y-32439723D01*
X75962918Y-32403017D01*
X78737082Y-32403017D01*
X78743638Y-32439723D01*
X78799027Y-32622655D01*
X78889040Y-32791266D01*
X79010218Y-32939076D01*
X79157904Y-33060405D01*
X79326422Y-33150591D01*
X79509297Y-33206168D01*
X79699500Y-33225000D01*
X79849500Y-33225000D01*
X79849500Y-32250500D01*
X79850500Y-32250500D01*
X79850500Y-33225000D01*
X80000500Y-33225000D01*
X80190703Y-33206168D01*
X80373578Y-33150591D01*
X80542096Y-33060405D01*
X80689782Y-32939076D01*
X80810960Y-32791266D01*
X80900973Y-32622655D01*
X80956362Y-32439723D01*
X80962918Y-32403017D01*
X80850000Y-32250500D01*
X79850500Y-32250500D01*
X79849500Y-32250500D01*
X78850000Y-32250500D01*
X78737082Y-32403017D01*
X75962918Y-32403017D01*
X75850000Y-32250500D01*
X74850500Y-32250500D01*
X74849500Y-32250500D01*
X73850000Y-32250500D01*
X73737082Y-32403017D01*
X73724996Y-32403017D01*
X73724996Y-32096983D01*
X73737082Y-32096983D01*
X73850000Y-32249500D01*
X74849500Y-32249500D01*
X74849500Y-31275000D01*
X74850500Y-31275000D01*
X74850500Y-32249500D01*
X75850000Y-32249500D01*
X75962918Y-32096983D01*
X78737082Y-32096983D01*
X78850000Y-32249500D01*
X79849500Y-32249500D01*
X79849500Y-31275000D01*
X79850500Y-31275000D01*
X79850500Y-32249500D01*
X80850000Y-32249500D01*
X80962918Y-32096983D01*
X80956362Y-32060277D01*
X80900973Y-31877345D01*
X80810960Y-31708734D01*
X80689782Y-31560924D01*
X80542096Y-31439595D01*
X80373578Y-31349409D01*
X80287730Y-31323319D01*
X83920000Y-31323319D01*
X83920000Y-31756681D01*
X84004545Y-32181716D01*
X84170385Y-32582091D01*
X84411148Y-32942418D01*
X84717582Y-33248852D01*
X85077909Y-33489615D01*
X85478284Y-33655455D01*
X85903319Y-33740000D01*
X86336681Y-33740000D01*
X86761716Y-33655455D01*
X87162091Y-33489615D01*
X87522418Y-33248852D01*
X87828852Y-32942418D01*
X88069615Y-32582091D01*
X88235455Y-32181716D01*
X88320000Y-31756681D01*
X88320000Y-31323319D01*
X88235455Y-30898284D01*
X88069615Y-30497909D01*
X87828852Y-30137582D01*
X87522418Y-29831148D01*
X87162091Y-29590385D01*
X86761716Y-29424545D01*
X86336681Y-29340000D01*
X85903319Y-29340000D01*
X85478284Y-29424545D01*
X85077909Y-29590385D01*
X84717582Y-29831148D01*
X84411148Y-30137582D01*
X84170385Y-30497909D01*
X84004545Y-30898284D01*
X83920000Y-31323319D01*
X80287730Y-31323319D01*
X80190703Y-31293832D01*
X80000500Y-31275000D01*
X79850500Y-31275000D01*
X79849500Y-31275000D01*
X79699500Y-31275000D01*
X79509297Y-31293832D01*
X79326422Y-31349409D01*
X79157904Y-31439595D01*
X79010218Y-31560924D01*
X78889040Y-31708734D01*
X78799027Y-31877345D01*
X78743638Y-32060277D01*
X78737082Y-32096983D01*
X75962918Y-32096983D01*
X75956362Y-32060277D01*
X75900973Y-31877345D01*
X75810960Y-31708734D01*
X75689782Y-31560924D01*
X75542096Y-31439595D01*
X75373578Y-31349409D01*
X75190703Y-31293832D01*
X75000500Y-31275000D01*
X74850500Y-31275000D01*
X74849500Y-31275000D01*
X74699500Y-31275000D01*
X74509297Y-31293832D01*
X74326422Y-31349409D01*
X74157904Y-31439595D01*
X74010218Y-31560924D01*
X73889040Y-31708734D01*
X73799027Y-31877345D01*
X73743638Y-32060277D01*
X73737082Y-32096983D01*
X73724996Y-32096983D01*
X73724996Y-30839628D01*
X73849500Y-30750000D01*
X73849500Y-29550500D01*
X73850500Y-29550500D01*
X73850500Y-30750000D01*
X74006928Y-30862610D01*
X74044599Y-30855883D01*
X74232221Y-30799071D01*
X74405154Y-30706748D01*
X74556753Y-30582461D01*
X74681192Y-30430987D01*
X74773688Y-30258146D01*
X74830688Y-30070581D01*
X74850000Y-29875500D01*
X74850000Y-29550500D01*
X79850000Y-29550500D01*
X79850000Y-29875500D01*
X79869312Y-30070581D01*
X79926312Y-30258146D01*
X80018808Y-30430987D01*
X80143247Y-30582461D01*
X80294846Y-30706748D01*
X80467779Y-30799071D01*
X80655401Y-30855883D01*
X80693072Y-30862610D01*
X80849500Y-30750000D01*
X80849500Y-29550500D01*
X80850500Y-29550500D01*
X80850500Y-30750000D01*
X81006928Y-30862610D01*
X81044599Y-30855883D01*
X81232221Y-30799071D01*
X81405154Y-30706748D01*
X81556753Y-30582461D01*
X81681192Y-30430987D01*
X81773688Y-30258146D01*
X81830688Y-30070581D01*
X81850000Y-29875500D01*
X81850000Y-29550500D01*
X80850500Y-29550500D01*
X80849500Y-29550500D01*
X79850000Y-29550500D01*
X74850000Y-29550500D01*
X73850500Y-29550500D01*
X73849500Y-29550500D01*
X73829500Y-29550500D01*
X73829500Y-29549500D01*
X73849500Y-29549500D01*
X73849500Y-29529500D01*
X73850500Y-29529500D01*
X73850500Y-29549500D01*
X74850000Y-29549500D01*
X74850000Y-29224500D01*
X74830688Y-29029419D01*
X74773688Y-28841854D01*
X74711153Y-28725000D01*
X79988847Y-28725000D01*
X79926312Y-28841854D01*
X79869312Y-29029419D01*
X79850000Y-29224500D01*
X79850000Y-29549500D01*
X80849500Y-29549500D01*
X80849500Y-29529500D01*
X80850500Y-29529500D01*
X80850500Y-29549500D01*
X81850000Y-29549500D01*
X81850000Y-29224500D01*
X81830688Y-29029419D01*
X81773688Y-28841854D01*
X81711153Y-28725000D01*
X86089433Y-28725000D01*
X86668128Y-28781742D01*
X87195383Y-28940929D01*
X87681674Y-29199495D01*
X88108483Y-29547592D01*
X88459545Y-29971954D01*
X88721501Y-30456431D01*
X88884365Y-30982559D01*
X88945000Y-31559466D01*
X88945001Y-87919423D01*
X88888258Y-88498128D01*
X88729071Y-89025384D01*
X88470505Y-89511674D01*
X88122410Y-89938481D01*
X87698046Y-90289546D01*
X87213569Y-90551501D01*
X86687441Y-90714365D01*
X86110533Y-90775000D01*
X32282941Y-90775000D01*
X31705831Y-90715034D01*
X31179516Y-90552796D01*
X30694728Y-90291413D01*
X30269948Y-89940852D01*
X29921345Y-89514454D01*
X29662202Y-89028468D01*
X29502393Y-88501408D01*
X29445000Y-87923130D01*
X29445000Y-87733319D01*
X30070000Y-87733319D01*
X30070000Y-88166681D01*
X30154545Y-88591716D01*
X30320385Y-88992091D01*
X30561148Y-89352418D01*
X30867582Y-89658852D01*
X31227909Y-89899615D01*
X31628284Y-90065455D01*
X32053319Y-90150000D01*
X32486681Y-90150000D01*
X32911716Y-90065455D01*
X33312091Y-89899615D01*
X33672418Y-89658852D01*
X33978852Y-89352418D01*
X34219615Y-88992091D01*
X34385455Y-88591716D01*
X34470000Y-88166681D01*
X34470000Y-87733319D01*
X34385455Y-87308284D01*
X34219615Y-86907909D01*
X33978852Y-86547582D01*
X33672418Y-86241148D01*
X33312091Y-86000385D01*
X32911716Y-85834545D01*
X32486681Y-85750000D01*
X32053319Y-85750000D01*
X31628284Y-85834545D01*
X31227909Y-86000385D01*
X30867582Y-86241148D01*
X30561148Y-86547582D01*
X30320385Y-86907909D01*
X30154545Y-87308284D01*
X30070000Y-87733319D01*
X29445000Y-87733319D01*
X29445000Y-84300000D01*
X38597097Y-84300000D01*
X38597097Y-85900000D01*
X38608682Y-86017621D01*
X38642990Y-86130721D01*
X38698704Y-86234955D01*
X38773683Y-86326317D01*
X38865045Y-86401296D01*
X38969279Y-86457010D01*
X39082379Y-86491318D01*
X39132010Y-86496206D01*
X39107552Y-86512549D01*
X38912549Y-86707552D01*
X38759336Y-86936851D01*
X38653801Y-87191635D01*
X38600000Y-87462112D01*
X38600000Y-87737888D01*
X38653801Y-88008365D01*
X38759336Y-88263149D01*
X38912549Y-88492448D01*
X39107552Y-88687451D01*
X39336851Y-88840664D01*
X39591635Y-88946199D01*
X39862112Y-89000000D01*
X40137888Y-89000000D01*
X40408365Y-88946199D01*
X40663149Y-88840664D01*
X40892448Y-88687451D01*
X41087451Y-88492448D01*
X41240664Y-88263149D01*
X41346199Y-88008365D01*
X41400000Y-87737888D01*
X41400000Y-87462112D01*
X41346199Y-87191635D01*
X41240664Y-86936851D01*
X41087451Y-86707552D01*
X40892448Y-86512549D01*
X40867990Y-86496206D01*
X40917621Y-86491318D01*
X41030721Y-86457010D01*
X41134955Y-86401296D01*
X41226317Y-86326317D01*
X41301296Y-86234955D01*
X41357010Y-86130721D01*
X41391318Y-86017621D01*
X41402903Y-85900000D01*
X41402903Y-84736185D01*
X45785000Y-84736185D01*
X45785000Y-85543815D01*
X45942561Y-86335926D01*
X46251627Y-87082078D01*
X46700322Y-87753598D01*
X47271402Y-88324678D01*
X47942922Y-88773373D01*
X48689074Y-89082439D01*
X49481185Y-89240000D01*
X50288815Y-89240000D01*
X51080926Y-89082439D01*
X51827078Y-88773373D01*
X52498598Y-88324678D01*
X53069678Y-87753598D01*
X53518373Y-87082078D01*
X53827439Y-86335926D01*
X53985000Y-85543815D01*
X53985000Y-84736185D01*
X64835000Y-84736185D01*
X64835000Y-85543815D01*
X64992561Y-86335926D01*
X65301627Y-87082078D01*
X65750322Y-87753598D01*
X66321402Y-88324678D01*
X66992922Y-88773373D01*
X67739074Y-89082439D01*
X68531185Y-89240000D01*
X69338815Y-89240000D01*
X70130926Y-89082439D01*
X70877078Y-88773373D01*
X71361040Y-88450000D01*
X76447581Y-88450000D01*
X76457235Y-88548017D01*
X76485825Y-88642267D01*
X76532254Y-88729129D01*
X76594736Y-88805264D01*
X76670871Y-88867746D01*
X76757733Y-88914175D01*
X76851983Y-88942765D01*
X76950000Y-88952419D01*
X77574500Y-88950000D01*
X77699500Y-88825000D01*
X77699500Y-87700500D01*
X77700500Y-87700500D01*
X77700500Y-88825000D01*
X77825500Y-88950000D01*
X78450000Y-88952419D01*
X78548017Y-88942765D01*
X78642267Y-88914175D01*
X78729129Y-88867746D01*
X78805264Y-88805264D01*
X78867746Y-88729129D01*
X78914175Y-88642267D01*
X78942765Y-88548017D01*
X78952419Y-88450000D01*
X78950000Y-87825500D01*
X78857819Y-87733319D01*
X83920000Y-87733319D01*
X83920000Y-88166681D01*
X84004545Y-88591716D01*
X84170385Y-88992091D01*
X84411148Y-89352418D01*
X84717582Y-89658852D01*
X85077909Y-89899615D01*
X85478284Y-90065455D01*
X85903319Y-90150000D01*
X86336681Y-90150000D01*
X86761716Y-90065455D01*
X87162091Y-89899615D01*
X87522418Y-89658852D01*
X87828852Y-89352418D01*
X88069615Y-88992091D01*
X88235455Y-88591716D01*
X88320000Y-88166681D01*
X88320000Y-87733319D01*
X88235455Y-87308284D01*
X88069615Y-86907909D01*
X87828852Y-86547582D01*
X87522418Y-86241148D01*
X87162091Y-86000385D01*
X86761716Y-85834545D01*
X86336681Y-85750000D01*
X85903319Y-85750000D01*
X85478284Y-85834545D01*
X85077909Y-86000385D01*
X84717582Y-86241148D01*
X84411148Y-86547582D01*
X84170385Y-86907909D01*
X84004545Y-87308284D01*
X83920000Y-87733319D01*
X78857819Y-87733319D01*
X78825000Y-87700500D01*
X77700500Y-87700500D01*
X77699500Y-87700500D01*
X76575000Y-87700500D01*
X76450000Y-87825500D01*
X76447581Y-88450000D01*
X71361040Y-88450000D01*
X71548598Y-88324678D01*
X72119678Y-87753598D01*
X72568373Y-87082078D01*
X72623081Y-86950000D01*
X76447581Y-86950000D01*
X76450000Y-87574500D01*
X76575000Y-87699500D01*
X77699500Y-87699500D01*
X77699500Y-86575000D01*
X77700500Y-86575000D01*
X77700500Y-87699500D01*
X78825000Y-87699500D01*
X78950000Y-87574500D01*
X78952419Y-86950000D01*
X78942765Y-86851983D01*
X78914175Y-86757733D01*
X78867746Y-86670871D01*
X78805264Y-86594736D01*
X78729129Y-86532254D01*
X78642267Y-86485825D01*
X78548017Y-86457235D01*
X78450000Y-86447581D01*
X77825500Y-86450000D01*
X77700500Y-86575000D01*
X77699500Y-86575000D01*
X77574500Y-86450000D01*
X76950000Y-86447581D01*
X76851983Y-86457235D01*
X76757733Y-86485825D01*
X76670871Y-86532254D01*
X76594736Y-86594736D01*
X76532254Y-86670871D01*
X76485825Y-86757733D01*
X76457235Y-86851983D01*
X76447581Y-86950000D01*
X72623081Y-86950000D01*
X72877439Y-86335926D01*
X73035000Y-85543815D01*
X73035000Y-84736185D01*
X72877439Y-83944074D01*
X72568373Y-83197922D01*
X72125859Y-82535652D01*
X77565055Y-82535652D01*
X77632587Y-82757105D01*
X77853563Y-82886508D01*
X78095540Y-82970315D01*
X78349216Y-83005303D01*
X78604844Y-82990130D01*
X78852600Y-82925377D01*
X79082963Y-82813534D01*
X79167413Y-82757105D01*
X79234945Y-82535652D01*
X78400000Y-81700707D01*
X77565055Y-82535652D01*
X72125859Y-82535652D01*
X72119678Y-82526402D01*
X71548598Y-81955322D01*
X71090478Y-81649216D01*
X77094697Y-81649216D01*
X77109870Y-81904844D01*
X77174623Y-82152600D01*
X77286466Y-82382963D01*
X77342895Y-82467413D01*
X77564348Y-82534945D01*
X78399293Y-81700000D01*
X78400707Y-81700000D01*
X79235652Y-82534945D01*
X79457105Y-82467413D01*
X79586508Y-82246437D01*
X79670315Y-82004460D01*
X79705303Y-81750784D01*
X79690130Y-81495156D01*
X79625377Y-81247400D01*
X79513534Y-81017037D01*
X79457105Y-80932587D01*
X79235652Y-80865055D01*
X78400707Y-81700000D01*
X78399293Y-81700000D01*
X77564348Y-80865055D01*
X77342895Y-80932587D01*
X77213492Y-81153563D01*
X77129685Y-81395540D01*
X77094697Y-81649216D01*
X71090478Y-81649216D01*
X70877078Y-81506627D01*
X70130926Y-81197561D01*
X69338815Y-81040000D01*
X68531185Y-81040000D01*
X67739074Y-81197561D01*
X66992922Y-81506627D01*
X66321402Y-81955322D01*
X65750322Y-82526402D01*
X65301627Y-83197922D01*
X64992561Y-83944074D01*
X64835000Y-84736185D01*
X53985000Y-84736185D01*
X53827439Y-83944074D01*
X53518373Y-83197922D01*
X53069678Y-82526402D01*
X52498598Y-81955322D01*
X51827078Y-81506627D01*
X51080926Y-81197561D01*
X50288815Y-81040000D01*
X49481185Y-81040000D01*
X48689074Y-81197561D01*
X47942922Y-81506627D01*
X47271402Y-81955322D01*
X46700322Y-82526402D01*
X46251627Y-83197922D01*
X45942561Y-83944074D01*
X45785000Y-84736185D01*
X41402903Y-84736185D01*
X41402903Y-84300000D01*
X41391318Y-84182379D01*
X41357010Y-84069279D01*
X41301296Y-83965045D01*
X41226317Y-83873683D01*
X41134955Y-83798704D01*
X41030721Y-83742990D01*
X40917621Y-83708682D01*
X40800000Y-83697097D01*
X39200000Y-83697097D01*
X39082379Y-83708682D01*
X38969279Y-83742990D01*
X38865045Y-83798704D01*
X38773683Y-83873683D01*
X38698704Y-83965045D01*
X38642990Y-84069279D01*
X38608682Y-84182379D01*
X38597097Y-84300000D01*
X29445000Y-84300000D01*
X29445000Y-80697187D01*
X56720000Y-80697187D01*
X56720000Y-80982813D01*
X56775723Y-81262949D01*
X56885027Y-81526833D01*
X57043711Y-81764321D01*
X57245679Y-81966289D01*
X57483167Y-82124973D01*
X57747051Y-82234277D01*
X58027187Y-82290000D01*
X58312813Y-82290000D01*
X58592949Y-82234277D01*
X58856833Y-82124973D01*
X59094321Y-81966289D01*
X59267275Y-81793335D01*
X59268682Y-81807621D01*
X59302990Y-81920721D01*
X59358704Y-82024955D01*
X59433683Y-82116317D01*
X59525045Y-82191296D01*
X59629279Y-82247010D01*
X59742379Y-82281318D01*
X59860000Y-82292903D01*
X61560000Y-82292903D01*
X61677621Y-82281318D01*
X61790721Y-82247010D01*
X61894955Y-82191296D01*
X61986317Y-82116317D01*
X62061296Y-82024955D01*
X62117010Y-81920721D01*
X62151318Y-81807621D01*
X62162903Y-81690000D01*
X62162903Y-79990000D01*
X62151318Y-79872379D01*
X62117010Y-79759279D01*
X62061296Y-79655045D01*
X61986317Y-79563683D01*
X61939182Y-79525000D01*
X62399696Y-79525000D01*
X63300000Y-80425305D01*
X63300000Y-80498491D01*
X63338429Y-80691689D01*
X63413811Y-80873678D01*
X63523249Y-81037463D01*
X63662537Y-81176751D01*
X63826322Y-81286189D01*
X64008311Y-81361571D01*
X64201509Y-81400000D01*
X64398491Y-81400000D01*
X64591689Y-81361571D01*
X64773678Y-81286189D01*
X64937463Y-81176751D01*
X65076751Y-81037463D01*
X65186189Y-80873678D01*
X65261571Y-80691689D01*
X65300000Y-80498491D01*
X65300000Y-80301509D01*
X65261571Y-80108311D01*
X65186189Y-79926322D01*
X65076751Y-79762537D01*
X64937463Y-79623249D01*
X64773678Y-79513811D01*
X64591689Y-79438429D01*
X64398491Y-79400000D01*
X64325305Y-79400000D01*
X63325305Y-78400000D01*
X76997097Y-78400000D01*
X76997097Y-80000000D01*
X77008682Y-80117621D01*
X77042990Y-80230721D01*
X77098704Y-80334955D01*
X77173683Y-80426317D01*
X77265045Y-80501296D01*
X77369279Y-80557010D01*
X77482379Y-80591318D01*
X77600000Y-80602903D01*
X77692438Y-80602903D01*
X77632587Y-80642895D01*
X77565055Y-80864348D01*
X78400000Y-81699293D01*
X79234945Y-80864348D01*
X79167413Y-80642895D01*
X79099120Y-80602903D01*
X79200000Y-80602903D01*
X79317621Y-80591318D01*
X79430721Y-80557010D01*
X79534955Y-80501296D01*
X79626317Y-80426317D01*
X79701296Y-80334955D01*
X79757010Y-80230721D01*
X79791318Y-80117621D01*
X79802903Y-80000000D01*
X79802903Y-78400000D01*
X79791318Y-78282379D01*
X79757010Y-78169279D01*
X79701296Y-78065045D01*
X79626317Y-77973683D01*
X79534955Y-77898704D01*
X79430721Y-77842990D01*
X79317621Y-77808682D01*
X79200000Y-77797097D01*
X77600000Y-77797097D01*
X77482379Y-77808682D01*
X77369279Y-77842990D01*
X77265045Y-77898704D01*
X77173683Y-77973683D01*
X77098704Y-78065045D01*
X77042990Y-78169279D01*
X77008682Y-78282379D01*
X76997097Y-78400000D01*
X63325305Y-78400000D01*
X63237832Y-78312528D01*
X63215132Y-78284868D01*
X63104737Y-78194269D01*
X62978788Y-78126947D01*
X62842125Y-78085491D01*
X62735607Y-78075000D01*
X62735597Y-78075000D01*
X62700000Y-78071494D01*
X62664403Y-78075000D01*
X60245600Y-78075000D01*
X60210000Y-78071494D01*
X60174400Y-78075000D01*
X60174393Y-78075000D01*
X60067875Y-78085491D01*
X59996936Y-78107010D01*
X59931212Y-78126947D01*
X59805263Y-78194269D01*
X59722525Y-78262170D01*
X59722523Y-78262172D01*
X59694868Y-78284868D01*
X59672172Y-78312523D01*
X58547928Y-79436768D01*
X58312813Y-79390000D01*
X58027187Y-79390000D01*
X57747051Y-79445723D01*
X57483167Y-79555027D01*
X57245679Y-79713711D01*
X57043711Y-79915679D01*
X56885027Y-80153167D01*
X56775723Y-80417051D01*
X56720000Y-80697187D01*
X29445000Y-80697187D01*
X29445000Y-79477758D01*
X35472950Y-79477758D01*
X35564460Y-79719691D01*
X35819426Y-79869015D01*
X36098624Y-79965729D01*
X36391325Y-80006116D01*
X36686281Y-79988622D01*
X36972157Y-79913923D01*
X37237967Y-79784887D01*
X37335540Y-79719691D01*
X37427050Y-79477758D01*
X36450000Y-78500707D01*
X35472950Y-79477758D01*
X29445000Y-79477758D01*
X29445000Y-78441325D01*
X34943884Y-78441325D01*
X34961378Y-78736281D01*
X35036077Y-79022157D01*
X35165113Y-79287967D01*
X35230309Y-79385540D01*
X35472242Y-79477050D01*
X36449293Y-78500000D01*
X36450707Y-78500000D01*
X37427758Y-79477050D01*
X37669691Y-79385540D01*
X37819015Y-79130574D01*
X37915729Y-78851376D01*
X37956116Y-78558675D01*
X37938622Y-78263719D01*
X37863923Y-77977843D01*
X37734887Y-77712033D01*
X37669691Y-77614460D01*
X37427758Y-77522950D01*
X36450707Y-78500000D01*
X36449293Y-78500000D01*
X35472242Y-77522950D01*
X35230309Y-77614460D01*
X35080985Y-77869426D01*
X34984271Y-78148624D01*
X34943884Y-78441325D01*
X29445000Y-78441325D01*
X29445000Y-77522242D01*
X35472950Y-77522242D01*
X36450000Y-78499293D01*
X37427050Y-77522242D01*
X37335540Y-77280309D01*
X37080574Y-77130985D01*
X36801376Y-77034271D01*
X36508675Y-76993884D01*
X36213719Y-77011378D01*
X35927843Y-77086077D01*
X35662033Y-77215113D01*
X35564460Y-77280309D01*
X35472950Y-77522242D01*
X29445000Y-77522242D01*
X29445000Y-76012112D01*
X54450000Y-76012112D01*
X54450000Y-76287888D01*
X54503801Y-76558365D01*
X54609336Y-76813149D01*
X54762549Y-77042448D01*
X54957552Y-77237451D01*
X55186851Y-77390664D01*
X55441635Y-77496199D01*
X55712112Y-77550000D01*
X55987888Y-77550000D01*
X56258365Y-77496199D01*
X56513149Y-77390664D01*
X56742448Y-77237451D01*
X56937451Y-77042448D01*
X56975400Y-76985652D01*
X57515055Y-76985652D01*
X57582587Y-77207105D01*
X57803563Y-77336508D01*
X58045540Y-77420315D01*
X58299216Y-77455303D01*
X58554844Y-77440130D01*
X58802600Y-77375377D01*
X59032963Y-77263534D01*
X59117413Y-77207105D01*
X59184945Y-76985652D01*
X58350000Y-76150707D01*
X57515055Y-76985652D01*
X56975400Y-76985652D01*
X57090664Y-76813149D01*
X57153360Y-76661789D01*
X57236466Y-76832963D01*
X57292895Y-76917413D01*
X57514348Y-76984945D01*
X58349293Y-76150000D01*
X58350707Y-76150000D01*
X59185652Y-76984945D01*
X59407105Y-76917413D01*
X59536508Y-76696437D01*
X59620315Y-76454460D01*
X59647523Y-76257187D01*
X62950000Y-76257187D01*
X62950000Y-76542813D01*
X63005723Y-76822949D01*
X63115027Y-77086833D01*
X63273711Y-77324321D01*
X63475679Y-77526289D01*
X63713167Y-77684973D01*
X63977051Y-77794277D01*
X64257187Y-77850000D01*
X64542813Y-77850000D01*
X64822949Y-77794277D01*
X65086833Y-77684973D01*
X65324321Y-77526289D01*
X65400000Y-77450610D01*
X65475679Y-77526289D01*
X65713167Y-77684973D01*
X65977051Y-77794277D01*
X66257187Y-77850000D01*
X66542813Y-77850000D01*
X66822949Y-77794277D01*
X67086833Y-77684973D01*
X67324321Y-77526289D01*
X67526289Y-77324321D01*
X67684973Y-77086833D01*
X67794277Y-76822949D01*
X67850000Y-76542813D01*
X67850000Y-76257187D01*
X67794277Y-75977051D01*
X67684973Y-75713167D01*
X67526289Y-75475679D01*
X67324321Y-75273711D01*
X67086833Y-75115027D01*
X66822949Y-75005723D01*
X66542813Y-74950000D01*
X66257187Y-74950000D01*
X65977051Y-75005723D01*
X65713167Y-75115027D01*
X65475679Y-75273711D01*
X65400000Y-75349390D01*
X65324321Y-75273711D01*
X65086833Y-75115027D01*
X64822949Y-75005723D01*
X64542813Y-74950000D01*
X64257187Y-74950000D01*
X63977051Y-75005723D01*
X63713167Y-75115027D01*
X63475679Y-75273711D01*
X63273711Y-75475679D01*
X63115027Y-75713167D01*
X63005723Y-75977051D01*
X62950000Y-76257187D01*
X59647523Y-76257187D01*
X59655303Y-76200784D01*
X59640130Y-75945156D01*
X59575377Y-75697400D01*
X59463534Y-75467037D01*
X59407105Y-75382587D01*
X59185652Y-75315055D01*
X58350707Y-76150000D01*
X58349293Y-76150000D01*
X57514348Y-75315055D01*
X57292895Y-75382587D01*
X57163492Y-75603563D01*
X57152342Y-75635756D01*
X57090664Y-75486851D01*
X56975401Y-75314348D01*
X57515055Y-75314348D01*
X58350000Y-76149293D01*
X59184945Y-75314348D01*
X59117413Y-75092895D01*
X58896437Y-74963492D01*
X58654460Y-74879685D01*
X58400784Y-74844697D01*
X58145156Y-74859870D01*
X57897400Y-74924623D01*
X57667037Y-75036466D01*
X57582587Y-75092895D01*
X57515055Y-75314348D01*
X56975401Y-75314348D01*
X56937451Y-75257552D01*
X56742448Y-75062549D01*
X56513149Y-74909336D01*
X56258365Y-74803801D01*
X55987888Y-74750000D01*
X55712112Y-74750000D01*
X55441635Y-74803801D01*
X55186851Y-74909336D01*
X54957552Y-75062549D01*
X54762549Y-75257552D01*
X54609336Y-75486851D01*
X54503801Y-75741635D01*
X54450000Y-76012112D01*
X29445000Y-76012112D01*
X29445000Y-72500000D01*
X34847097Y-72500000D01*
X34847097Y-74500000D01*
X34858682Y-74617621D01*
X34892990Y-74730721D01*
X34948704Y-74834955D01*
X35023683Y-74926317D01*
X35115045Y-75001296D01*
X35219279Y-75057010D01*
X35332379Y-75091318D01*
X35450000Y-75102903D01*
X37450000Y-75102903D01*
X37567621Y-75091318D01*
X37680721Y-75057010D01*
X37784955Y-75001296D01*
X37876317Y-74926317D01*
X37951296Y-74834955D01*
X38007010Y-74730721D01*
X38041318Y-74617621D01*
X38052903Y-74500000D01*
X38052903Y-73600000D01*
X43047097Y-73600000D01*
X43047097Y-75200000D01*
X43058682Y-75317621D01*
X43092990Y-75430721D01*
X43148704Y-75534955D01*
X43223683Y-75626317D01*
X43315045Y-75701296D01*
X43419279Y-75757010D01*
X43532379Y-75791318D01*
X43650000Y-75802903D01*
X45250000Y-75802903D01*
X45367621Y-75791318D01*
X45480721Y-75757010D01*
X45584955Y-75701296D01*
X45676317Y-75626317D01*
X45751296Y-75534955D01*
X45807010Y-75430721D01*
X45841318Y-75317621D01*
X45852903Y-75200000D01*
X45852903Y-75020097D01*
X45881829Y-75079675D01*
X46035720Y-75282809D01*
X46226284Y-75452017D01*
X46446197Y-75580796D01*
X46687008Y-75664198D01*
X46786141Y-75683917D01*
X46989500Y-75575000D01*
X46989500Y-74400500D01*
X46969500Y-74400500D01*
X46969500Y-74399500D01*
X46989500Y-74399500D01*
X46989500Y-73225000D01*
X46990500Y-73225000D01*
X46990500Y-74399500D01*
X47010500Y-74399500D01*
X47010500Y-74400500D01*
X46990500Y-74400500D01*
X46990500Y-75575000D01*
X47193859Y-75683917D01*
X47292992Y-75664198D01*
X47533803Y-75580796D01*
X47753716Y-75452017D01*
X47944280Y-75282809D01*
X48098171Y-75079675D01*
X48205022Y-74859596D01*
X48289336Y-75063149D01*
X48442549Y-75292448D01*
X48637552Y-75487451D01*
X48866851Y-75640664D01*
X49121635Y-75746199D01*
X49392112Y-75800000D01*
X49667888Y-75800000D01*
X49938365Y-75746199D01*
X50193149Y-75640664D01*
X50422448Y-75487451D01*
X50617451Y-75292448D01*
X50770664Y-75063149D01*
X50854978Y-74859596D01*
X50961829Y-75079675D01*
X51115720Y-75282809D01*
X51306284Y-75452017D01*
X51526197Y-75580796D01*
X51767008Y-75664198D01*
X51866141Y-75683917D01*
X52069500Y-75575000D01*
X52069500Y-74400500D01*
X52070500Y-74400500D01*
X52070500Y-75575000D01*
X52273859Y-75683917D01*
X52372992Y-75664198D01*
X52613803Y-75580796D01*
X52833716Y-75452017D01*
X53024280Y-75282809D01*
X53178171Y-75079675D01*
X53289476Y-74850422D01*
X53353917Y-74603859D01*
X53245000Y-74400500D01*
X52070500Y-74400500D01*
X52069500Y-74400500D01*
X52049500Y-74400500D01*
X52049500Y-74399500D01*
X52069500Y-74399500D01*
X52069500Y-73225000D01*
X52070500Y-73225000D01*
X52070500Y-74399500D01*
X53245000Y-74399500D01*
X53353917Y-74196141D01*
X53289476Y-73949578D01*
X53178171Y-73720325D01*
X53024280Y-73517191D01*
X52833716Y-73347983D01*
X52613803Y-73219204D01*
X52372992Y-73135802D01*
X52273859Y-73116083D01*
X52070500Y-73225000D01*
X52069500Y-73225000D01*
X51866141Y-73116083D01*
X51767008Y-73135802D01*
X51526197Y-73219204D01*
X51306284Y-73347983D01*
X51115720Y-73517191D01*
X50961829Y-73720325D01*
X50854978Y-73940404D01*
X50770664Y-73736851D01*
X50617451Y-73507552D01*
X50422448Y-73312549D01*
X50193149Y-73159336D01*
X49938365Y-73053801D01*
X49667888Y-73000000D01*
X49392112Y-73000000D01*
X49121635Y-73053801D01*
X48866851Y-73159336D01*
X48637552Y-73312549D01*
X48442549Y-73507552D01*
X48289336Y-73736851D01*
X48205022Y-73940404D01*
X48098171Y-73720325D01*
X47944280Y-73517191D01*
X47753716Y-73347983D01*
X47533803Y-73219204D01*
X47292992Y-73135802D01*
X47193859Y-73116083D01*
X46990500Y-73225000D01*
X46989500Y-73225000D01*
X46786141Y-73116083D01*
X46687008Y-73135802D01*
X46446197Y-73219204D01*
X46226284Y-73347983D01*
X46035720Y-73517191D01*
X45881829Y-73720325D01*
X45852903Y-73779903D01*
X45852903Y-73600000D01*
X45841318Y-73482379D01*
X45807010Y-73369279D01*
X45751296Y-73265045D01*
X45676317Y-73173683D01*
X45584955Y-73098704D01*
X45480721Y-73042990D01*
X45367621Y-73008682D01*
X45250000Y-72997097D01*
X43650000Y-72997097D01*
X43532379Y-73008682D01*
X43419279Y-73042990D01*
X43315045Y-73098704D01*
X43223683Y-73173683D01*
X43148704Y-73265045D01*
X43092990Y-73369279D01*
X43058682Y-73482379D01*
X43047097Y-73600000D01*
X38052903Y-73600000D01*
X38052903Y-72500000D01*
X38041318Y-72382379D01*
X38007010Y-72269279D01*
X37951296Y-72165045D01*
X37876317Y-72073683D01*
X37784955Y-71998704D01*
X37680721Y-71942990D01*
X37567621Y-71908682D01*
X37450000Y-71897097D01*
X35450000Y-71897097D01*
X35332379Y-71908682D01*
X35219279Y-71942990D01*
X35115045Y-71998704D01*
X35023683Y-72073683D01*
X34948704Y-72165045D01*
X34892990Y-72269279D01*
X34858682Y-72382379D01*
X34847097Y-72500000D01*
X29445000Y-72500000D01*
X29445000Y-71282565D01*
X65580000Y-71282565D01*
X65580000Y-71617435D01*
X65645330Y-71945872D01*
X65773479Y-72255252D01*
X65959523Y-72533687D01*
X66196313Y-72770477D01*
X66474748Y-72956521D01*
X66784128Y-73084670D01*
X67112565Y-73150000D01*
X67447435Y-73150000D01*
X67775872Y-73084670D01*
X68085252Y-72956521D01*
X68363687Y-72770477D01*
X68600477Y-72533687D01*
X68786521Y-72255252D01*
X68914670Y-71945872D01*
X68980000Y-71617435D01*
X68980000Y-71282565D01*
X68914670Y-70954128D01*
X68786521Y-70644748D01*
X68600477Y-70366313D01*
X68363687Y-70129523D01*
X68085252Y-69943479D01*
X67775872Y-69815330D01*
X67447435Y-69750000D01*
X67112565Y-69750000D01*
X66784128Y-69815330D01*
X66474748Y-69943479D01*
X66196313Y-70129523D01*
X65959523Y-70366313D01*
X65773479Y-70644748D01*
X65645330Y-70954128D01*
X65580000Y-71282565D01*
X29445000Y-71282565D01*
X29445000Y-67882565D01*
X30880000Y-67882565D01*
X30880000Y-68217435D01*
X30945330Y-68545872D01*
X31073479Y-68855252D01*
X31259523Y-69133687D01*
X31496313Y-69370477D01*
X31774748Y-69556521D01*
X32084128Y-69684670D01*
X32412565Y-69750000D01*
X32747435Y-69750000D01*
X33075872Y-69684670D01*
X33385252Y-69556521D01*
X33663687Y-69370477D01*
X33900477Y-69133687D01*
X34086521Y-68855252D01*
X34214670Y-68545872D01*
X34280000Y-68217435D01*
X34280000Y-67882565D01*
X34214670Y-67554128D01*
X34086521Y-67244748D01*
X33900477Y-66966313D01*
X33884164Y-66950000D01*
X38497097Y-66950000D01*
X38497097Y-69150000D01*
X38508682Y-69267621D01*
X38542990Y-69380721D01*
X38598704Y-69484955D01*
X38673683Y-69576317D01*
X38765045Y-69651296D01*
X38869279Y-69707010D01*
X38982379Y-69741318D01*
X39100000Y-69752903D01*
X41300000Y-69752903D01*
X41417621Y-69741318D01*
X41530721Y-69707010D01*
X41634955Y-69651296D01*
X41726317Y-69576317D01*
X41801296Y-69484955D01*
X41857010Y-69380721D01*
X41891318Y-69267621D01*
X41902903Y-69150000D01*
X41902903Y-66950000D01*
X41891318Y-66832379D01*
X41857010Y-66719279D01*
X41815764Y-66642112D01*
X43050000Y-66642112D01*
X43050000Y-66917888D01*
X43103801Y-67188365D01*
X43209336Y-67443149D01*
X43362549Y-67672448D01*
X43557552Y-67867451D01*
X43786851Y-68020664D01*
X44041635Y-68126199D01*
X44312112Y-68180000D01*
X44587888Y-68180000D01*
X44858365Y-68126199D01*
X45113149Y-68020664D01*
X45342448Y-67867451D01*
X45537451Y-67672448D01*
X45690664Y-67443149D01*
X45720000Y-67372326D01*
X45749336Y-67443149D01*
X45902549Y-67672448D01*
X46097552Y-67867451D01*
X46326851Y-68020664D01*
X46581635Y-68126199D01*
X46852112Y-68180000D01*
X47127888Y-68180000D01*
X47398365Y-68126199D01*
X47653149Y-68020664D01*
X47882448Y-67867451D01*
X48077451Y-67672448D01*
X48230664Y-67443149D01*
X48260000Y-67372326D01*
X48289336Y-67443149D01*
X48442549Y-67672448D01*
X48637552Y-67867451D01*
X48866851Y-68020664D01*
X49121635Y-68126199D01*
X49392112Y-68180000D01*
X49667888Y-68180000D01*
X49938365Y-68126199D01*
X50193149Y-68020664D01*
X50422448Y-67867451D01*
X50617451Y-67672448D01*
X50770664Y-67443149D01*
X50800000Y-67372326D01*
X50829336Y-67443149D01*
X50982549Y-67672448D01*
X51177552Y-67867451D01*
X51406851Y-68020664D01*
X51661635Y-68126199D01*
X51932112Y-68180000D01*
X52207888Y-68180000D01*
X52478365Y-68126199D01*
X52733149Y-68020664D01*
X52962448Y-67867451D01*
X53157451Y-67672448D01*
X53310664Y-67443149D01*
X53416199Y-67188365D01*
X53470000Y-66917888D01*
X53470000Y-66642112D01*
X53427363Y-66427758D01*
X58872950Y-66427758D01*
X58964460Y-66669691D01*
X59219426Y-66819015D01*
X59498624Y-66915729D01*
X59791325Y-66956116D01*
X60086281Y-66938622D01*
X60372157Y-66863923D01*
X60637967Y-66734887D01*
X60735540Y-66669691D01*
X60827050Y-66427758D01*
X59850000Y-65450707D01*
X58872950Y-66427758D01*
X53427363Y-66427758D01*
X53416199Y-66371635D01*
X53310664Y-66116851D01*
X53157451Y-65887552D01*
X52962448Y-65692549D01*
X52733149Y-65539336D01*
X52478365Y-65433801D01*
X52264823Y-65391325D01*
X58343884Y-65391325D01*
X58361378Y-65686281D01*
X58436077Y-65972157D01*
X58565113Y-66237967D01*
X58630309Y-66335540D01*
X58872242Y-66427050D01*
X59849293Y-65450000D01*
X59850707Y-65450000D01*
X60827758Y-66427050D01*
X61069691Y-66335540D01*
X61219015Y-66080574D01*
X61315729Y-65801376D01*
X61356116Y-65508675D01*
X61338622Y-65213719D01*
X61263923Y-64927843D01*
X61134887Y-64662033D01*
X61069691Y-64564460D01*
X60827758Y-64472950D01*
X59850707Y-65450000D01*
X59849293Y-65450000D01*
X58872242Y-64472950D01*
X58630309Y-64564460D01*
X58480985Y-64819426D01*
X58384271Y-65098624D01*
X58343884Y-65391325D01*
X52264823Y-65391325D01*
X52207888Y-65380000D01*
X51932112Y-65380000D01*
X51661635Y-65433801D01*
X51406851Y-65539336D01*
X51177552Y-65692549D01*
X50982549Y-65887552D01*
X50829336Y-66116851D01*
X50800000Y-66187674D01*
X50770664Y-66116851D01*
X50617451Y-65887552D01*
X50422448Y-65692549D01*
X50193149Y-65539336D01*
X49938365Y-65433801D01*
X49667888Y-65380000D01*
X49392112Y-65380000D01*
X49121635Y-65433801D01*
X48866851Y-65539336D01*
X48637552Y-65692549D01*
X48442549Y-65887552D01*
X48289336Y-66116851D01*
X48260000Y-66187674D01*
X48230664Y-66116851D01*
X48077451Y-65887552D01*
X47882448Y-65692549D01*
X47653149Y-65539336D01*
X47398365Y-65433801D01*
X47127888Y-65380000D01*
X46852112Y-65380000D01*
X46581635Y-65433801D01*
X46326851Y-65539336D01*
X46097552Y-65692549D01*
X45902549Y-65887552D01*
X45749336Y-66116851D01*
X45720000Y-66187674D01*
X45690664Y-66116851D01*
X45537451Y-65887552D01*
X45342448Y-65692549D01*
X45113149Y-65539336D01*
X44858365Y-65433801D01*
X44587888Y-65380000D01*
X44312112Y-65380000D01*
X44041635Y-65433801D01*
X43786851Y-65539336D01*
X43557552Y-65692549D01*
X43362549Y-65887552D01*
X43209336Y-66116851D01*
X43103801Y-66371635D01*
X43050000Y-66642112D01*
X41815764Y-66642112D01*
X41801296Y-66615045D01*
X41726317Y-66523683D01*
X41634955Y-66448704D01*
X41530721Y-66392990D01*
X41417621Y-66358682D01*
X41300000Y-66347097D01*
X39100000Y-66347097D01*
X38982379Y-66358682D01*
X38869279Y-66392990D01*
X38765045Y-66448704D01*
X38673683Y-66523683D01*
X38598704Y-66615045D01*
X38542990Y-66719279D01*
X38508682Y-66832379D01*
X38497097Y-66950000D01*
X33884164Y-66950000D01*
X33663687Y-66729523D01*
X33385252Y-66543479D01*
X33075872Y-66415330D01*
X32747435Y-66350000D01*
X32412565Y-66350000D01*
X32084128Y-66415330D01*
X31774748Y-66543479D01*
X31496313Y-66729523D01*
X31259523Y-66966313D01*
X31073479Y-67244748D01*
X30945330Y-67554128D01*
X30880000Y-67882565D01*
X29445000Y-67882565D01*
X29445000Y-64472242D01*
X58872950Y-64472242D01*
X59850000Y-65449293D01*
X60827050Y-64472242D01*
X60735540Y-64230309D01*
X60480574Y-64080985D01*
X60201376Y-63984271D01*
X59908675Y-63943884D01*
X59613719Y-63961378D01*
X59327843Y-64036077D01*
X59062033Y-64165113D01*
X58964460Y-64230309D01*
X58872950Y-64472242D01*
X29445000Y-64472242D01*
X29445000Y-63451509D01*
X65250000Y-63451509D01*
X65250000Y-63648491D01*
X65288429Y-63841689D01*
X65363811Y-64023678D01*
X65473249Y-64187463D01*
X65612537Y-64326751D01*
X65776322Y-64436189D01*
X65958311Y-64511571D01*
X66151509Y-64550000D01*
X66348491Y-64550000D01*
X66541689Y-64511571D01*
X66723678Y-64436189D01*
X66887463Y-64326751D01*
X66939214Y-64275000D01*
X67249696Y-64275000D01*
X69465001Y-66490306D01*
X69465001Y-66500663D01*
X69297552Y-66612549D01*
X69102549Y-66807552D01*
X69051345Y-66884184D01*
X69041318Y-66782379D01*
X69007010Y-66669279D01*
X68951296Y-66565045D01*
X68876317Y-66473683D01*
X68784955Y-66398704D01*
X68680721Y-66342990D01*
X68567621Y-66308682D01*
X68450000Y-66297097D01*
X66850000Y-66297097D01*
X66732379Y-66308682D01*
X66619279Y-66342990D01*
X66515045Y-66398704D01*
X66423683Y-66473683D01*
X66348704Y-66565045D01*
X66292990Y-66669279D01*
X66258682Y-66782379D01*
X66247097Y-66900000D01*
X66247097Y-68500000D01*
X66258682Y-68617621D01*
X66292990Y-68730721D01*
X66348704Y-68834955D01*
X66423683Y-68926317D01*
X66515045Y-69001296D01*
X66619279Y-69057010D01*
X66732379Y-69091318D01*
X66850000Y-69102903D01*
X68450000Y-69102903D01*
X68567621Y-69091318D01*
X68680721Y-69057010D01*
X68784955Y-69001296D01*
X68876317Y-68926317D01*
X68951296Y-68834955D01*
X69007010Y-68730721D01*
X69041318Y-68617621D01*
X69051345Y-68515816D01*
X69102549Y-68592448D01*
X69297552Y-68787451D01*
X69526851Y-68940664D01*
X69781635Y-69046199D01*
X70052112Y-69100000D01*
X70327888Y-69100000D01*
X70598365Y-69046199D01*
X70853149Y-68940664D01*
X71082448Y-68787451D01*
X71277451Y-68592448D01*
X71430664Y-68363149D01*
X71460000Y-68292326D01*
X71489336Y-68363149D01*
X71642549Y-68592448D01*
X71837552Y-68787451D01*
X72005001Y-68899337D01*
X72005000Y-73994403D01*
X72001494Y-74030000D01*
X72005000Y-74065597D01*
X72005000Y-74065606D01*
X72015491Y-74172124D01*
X72056947Y-74308787D01*
X72124269Y-74434736D01*
X72214868Y-74545131D01*
X72242524Y-74567828D01*
X73500000Y-75825305D01*
X73500000Y-75898491D01*
X73538429Y-76091689D01*
X73613811Y-76273678D01*
X73723249Y-76437463D01*
X73862537Y-76576751D01*
X74026322Y-76686189D01*
X74208311Y-76761571D01*
X74401509Y-76800000D01*
X74598491Y-76800000D01*
X74791689Y-76761571D01*
X74973678Y-76686189D01*
X75137463Y-76576751D01*
X75276751Y-76437463D01*
X75386189Y-76273678D01*
X75461571Y-76091689D01*
X75469863Y-76050000D01*
X81147097Y-76050000D01*
X81147097Y-77550000D01*
X81158682Y-77667621D01*
X81192990Y-77780721D01*
X81248704Y-77884955D01*
X81323683Y-77976317D01*
X81415045Y-78051296D01*
X81519279Y-78107010D01*
X81632379Y-78141318D01*
X81750000Y-78152903D01*
X83250000Y-78152903D01*
X83367621Y-78141318D01*
X83480721Y-78107010D01*
X83584955Y-78051296D01*
X83676317Y-77976317D01*
X83751296Y-77884955D01*
X83807010Y-77780721D01*
X83841318Y-77667621D01*
X83852903Y-77550000D01*
X83852903Y-76050000D01*
X83841318Y-75932379D01*
X83807010Y-75819279D01*
X83751296Y-75715045D01*
X83676317Y-75623683D01*
X83584955Y-75548704D01*
X83480721Y-75492990D01*
X83367621Y-75458682D01*
X83250000Y-75447097D01*
X81750000Y-75447097D01*
X81632379Y-75458682D01*
X81519279Y-75492990D01*
X81415045Y-75548704D01*
X81323683Y-75623683D01*
X81248704Y-75715045D01*
X81192990Y-75819279D01*
X81158682Y-75932379D01*
X81147097Y-76050000D01*
X75469863Y-76050000D01*
X75500000Y-75898491D01*
X75500000Y-75701509D01*
X75461571Y-75508311D01*
X75386189Y-75326322D01*
X75276751Y-75162537D01*
X75137463Y-75023249D01*
X74973678Y-74913811D01*
X74791689Y-74838429D01*
X74598491Y-74800000D01*
X74525305Y-74800000D01*
X73455000Y-73729696D01*
X73455000Y-73276239D01*
X79167500Y-73276239D01*
X79167500Y-73523760D01*
X79189964Y-73751842D01*
X79278738Y-74044489D01*
X79422898Y-74314195D01*
X79616906Y-74550594D01*
X79853304Y-74744602D01*
X80123010Y-74888762D01*
X80415657Y-74977536D01*
X80720000Y-75007511D01*
X81024342Y-74977536D01*
X81316989Y-74888762D01*
X81586695Y-74744602D01*
X81823094Y-74550594D01*
X81990000Y-74347219D01*
X82156906Y-74550594D01*
X82393304Y-74744602D01*
X82663010Y-74888762D01*
X82955657Y-74977536D01*
X83260000Y-75007511D01*
X83564342Y-74977536D01*
X83856989Y-74888762D01*
X84126695Y-74744602D01*
X84285501Y-74614273D01*
X84290490Y-74630721D01*
X84346204Y-74734955D01*
X84421183Y-74826317D01*
X84512545Y-74901296D01*
X84616779Y-74957010D01*
X84729879Y-74991318D01*
X84847500Y-75002903D01*
X86752500Y-75002903D01*
X86870121Y-74991318D01*
X86983221Y-74957010D01*
X87087455Y-74901296D01*
X87178817Y-74826317D01*
X87253796Y-74734955D01*
X87309510Y-74630721D01*
X87343818Y-74517621D01*
X87355403Y-74400000D01*
X87355403Y-72400000D01*
X87343818Y-72282379D01*
X87309510Y-72169279D01*
X87253796Y-72065045D01*
X87178817Y-71973683D01*
X87087455Y-71898704D01*
X86983221Y-71842990D01*
X86870121Y-71808682D01*
X86752500Y-71797097D01*
X84847500Y-71797097D01*
X84729879Y-71808682D01*
X84616779Y-71842990D01*
X84512545Y-71898704D01*
X84421183Y-71973683D01*
X84346204Y-72065045D01*
X84290490Y-72169279D01*
X84285501Y-72185727D01*
X84126696Y-72055398D01*
X83856990Y-71911238D01*
X83564343Y-71822464D01*
X83260000Y-71792489D01*
X82955658Y-71822464D01*
X82663011Y-71911238D01*
X82393305Y-72055398D01*
X82156906Y-72249406D01*
X81990000Y-72452781D01*
X81823094Y-72249406D01*
X81586696Y-72055398D01*
X81316990Y-71911238D01*
X81024343Y-71822464D01*
X80720000Y-71792489D01*
X80415658Y-71822464D01*
X80123011Y-71911238D01*
X79853305Y-72055398D01*
X79616906Y-72249406D01*
X79422898Y-72485804D01*
X79278738Y-72755510D01*
X79189964Y-73048157D01*
X79167500Y-73276239D01*
X73455000Y-73276239D01*
X73455000Y-73043052D01*
X73465045Y-73051296D01*
X73569279Y-73107010D01*
X73682379Y-73141318D01*
X73800000Y-73152903D01*
X76000000Y-73152903D01*
X76117621Y-73141318D01*
X76230721Y-73107010D01*
X76334955Y-73051296D01*
X76426317Y-72976317D01*
X76501296Y-72884955D01*
X76557010Y-72780721D01*
X76591318Y-72667621D01*
X76602903Y-72550000D01*
X76602903Y-70350000D01*
X76591318Y-70232379D01*
X76557010Y-70119279D01*
X76501296Y-70015045D01*
X76426317Y-69923683D01*
X76334955Y-69848704D01*
X76230721Y-69792990D01*
X76117621Y-69758682D01*
X76000000Y-69747097D01*
X73800000Y-69747097D01*
X73682379Y-69758682D01*
X73569279Y-69792990D01*
X73465045Y-69848704D01*
X73455000Y-69856948D01*
X73455000Y-68899336D01*
X73622448Y-68787451D01*
X73817451Y-68592448D01*
X73970664Y-68363149D01*
X74054978Y-68159596D01*
X74161829Y-68379675D01*
X74315720Y-68582809D01*
X74506284Y-68752017D01*
X74726197Y-68880796D01*
X74967008Y-68964198D01*
X75066141Y-68983917D01*
X75269500Y-68875000D01*
X75269500Y-67700500D01*
X75270500Y-67700500D01*
X75270500Y-68875000D01*
X75473859Y-68983917D01*
X75572992Y-68964198D01*
X75813803Y-68880796D01*
X76033716Y-68752017D01*
X76224280Y-68582809D01*
X76378171Y-68379675D01*
X76489476Y-68150422D01*
X76553917Y-67903859D01*
X76445000Y-67700500D01*
X75270500Y-67700500D01*
X75269500Y-67700500D01*
X75249500Y-67700500D01*
X75249500Y-67699500D01*
X75269500Y-67699500D01*
X75269500Y-66525000D01*
X75270500Y-66525000D01*
X75270500Y-67699500D01*
X76445000Y-67699500D01*
X76553917Y-67496141D01*
X76489476Y-67249578D01*
X76378171Y-67020325D01*
X76224280Y-66817191D01*
X76033716Y-66647983D01*
X75813803Y-66519204D01*
X75572992Y-66435802D01*
X75473859Y-66416083D01*
X75270500Y-66525000D01*
X75269500Y-66525000D01*
X75066141Y-66416083D01*
X74967008Y-66435802D01*
X74726197Y-66519204D01*
X74506284Y-66647983D01*
X74315720Y-66817191D01*
X74161829Y-67020325D01*
X74054978Y-67240404D01*
X73970664Y-67036851D01*
X73817451Y-66807552D01*
X73622448Y-66612549D01*
X73393149Y-66459336D01*
X73138365Y-66353801D01*
X72867888Y-66300000D01*
X72592112Y-66300000D01*
X72321635Y-66353801D01*
X72066851Y-66459336D01*
X71837552Y-66612549D01*
X71642549Y-66807552D01*
X71489336Y-67036851D01*
X71460000Y-67107674D01*
X71430664Y-67036851D01*
X71277451Y-66807552D01*
X71082448Y-66612549D01*
X70915000Y-66500664D01*
X70915000Y-66225597D01*
X70918506Y-66190000D01*
X70915000Y-66154403D01*
X70915000Y-66154393D01*
X70904509Y-66047875D01*
X70863053Y-65911212D01*
X70795731Y-65785263D01*
X70705132Y-65674868D01*
X70677477Y-65652172D01*
X68087832Y-63062528D01*
X68065132Y-63034868D01*
X67954737Y-62944269D01*
X67828788Y-62876947D01*
X67692125Y-62835491D01*
X67585607Y-62825000D01*
X67585597Y-62825000D01*
X67550000Y-62821494D01*
X67514403Y-62825000D01*
X66939214Y-62825000D01*
X66887463Y-62773249D01*
X66723678Y-62663811D01*
X66541689Y-62588429D01*
X66348491Y-62550000D01*
X66151509Y-62550000D01*
X65958311Y-62588429D01*
X65776322Y-62663811D01*
X65612537Y-62773249D01*
X65473249Y-62912537D01*
X65363811Y-63076322D01*
X65288429Y-63258311D01*
X65250000Y-63451509D01*
X29445000Y-63451509D01*
X29445000Y-60812866D01*
X31450000Y-60812866D01*
X31450000Y-61187134D01*
X31523016Y-61554209D01*
X31666242Y-61899987D01*
X31874174Y-62211179D01*
X32138821Y-62475826D01*
X32450013Y-62683758D01*
X32795791Y-62826984D01*
X33162866Y-62900000D01*
X33537134Y-62900000D01*
X33904209Y-62826984D01*
X34249987Y-62683758D01*
X34561179Y-62475826D01*
X34825826Y-62211179D01*
X35033758Y-61899987D01*
X35176984Y-61554209D01*
X35250000Y-61187134D01*
X35250000Y-60812866D01*
X36450000Y-60812866D01*
X36450000Y-61187134D01*
X36523016Y-61554209D01*
X36666242Y-61899987D01*
X36874174Y-62211179D01*
X37138821Y-62475826D01*
X37450013Y-62683758D01*
X37795791Y-62826984D01*
X38162866Y-62900000D01*
X38537134Y-62900000D01*
X38904209Y-62826984D01*
X39249987Y-62683758D01*
X39561179Y-62475826D01*
X39825826Y-62211179D01*
X40033758Y-61899987D01*
X40176984Y-61554209D01*
X40250000Y-61187134D01*
X40250000Y-60812866D01*
X40176984Y-60445791D01*
X40142324Y-60362112D01*
X41350000Y-60362112D01*
X41350000Y-60637888D01*
X41403801Y-60908365D01*
X41509336Y-61163149D01*
X41662549Y-61392448D01*
X41857552Y-61587451D01*
X42086851Y-61740664D01*
X42341635Y-61846199D01*
X42612112Y-61900000D01*
X42887888Y-61900000D01*
X43158365Y-61846199D01*
X43413149Y-61740664D01*
X43642448Y-61587451D01*
X43837451Y-61392448D01*
X43990664Y-61163149D01*
X44096199Y-60908365D01*
X44150000Y-60637888D01*
X44150000Y-60362112D01*
X51510000Y-60362112D01*
X51510000Y-60637888D01*
X51563801Y-60908365D01*
X51669336Y-61163149D01*
X51822549Y-61392448D01*
X52017552Y-61587451D01*
X52246851Y-61740664D01*
X52501635Y-61846199D01*
X52772112Y-61900000D01*
X53047888Y-61900000D01*
X53318365Y-61846199D01*
X53573149Y-61740664D01*
X53802448Y-61587451D01*
X53997451Y-61392448D01*
X54150664Y-61163149D01*
X54256199Y-60908365D01*
X54310000Y-60637888D01*
X54310000Y-60362112D01*
X54256199Y-60091635D01*
X54150664Y-59836851D01*
X53997451Y-59607552D01*
X53839899Y-59450000D01*
X58247097Y-59450000D01*
X58247097Y-61450000D01*
X58258682Y-61567621D01*
X58292990Y-61680721D01*
X58348704Y-61784955D01*
X58423683Y-61876317D01*
X58515045Y-61951296D01*
X58619279Y-62007010D01*
X58732379Y-62041318D01*
X58850000Y-62052903D01*
X60850000Y-62052903D01*
X60967621Y-62041318D01*
X61080721Y-62007010D01*
X61184955Y-61951296D01*
X61276317Y-61876317D01*
X61351296Y-61784955D01*
X61407010Y-61680721D01*
X61441318Y-61567621D01*
X61452903Y-61450000D01*
X61452903Y-59942112D01*
X66250000Y-59942112D01*
X66250000Y-60217888D01*
X66303801Y-60488365D01*
X66409336Y-60743149D01*
X66562549Y-60972448D01*
X66757552Y-61167451D01*
X66986851Y-61320664D01*
X67241635Y-61426199D01*
X67512112Y-61480000D01*
X67787888Y-61480000D01*
X68058365Y-61426199D01*
X68313149Y-61320664D01*
X68542448Y-61167451D01*
X68737451Y-60972448D01*
X68890664Y-60743149D01*
X68920000Y-60672326D01*
X68949336Y-60743149D01*
X69102549Y-60972448D01*
X69297552Y-61167451D01*
X69526851Y-61320664D01*
X69781635Y-61426199D01*
X70052112Y-61480000D01*
X70327888Y-61480000D01*
X70598365Y-61426199D01*
X70853149Y-61320664D01*
X71082448Y-61167451D01*
X71277451Y-60972448D01*
X71430664Y-60743149D01*
X71460000Y-60672326D01*
X71489336Y-60743149D01*
X71642549Y-60972448D01*
X71837552Y-61167451D01*
X72066851Y-61320664D01*
X72321635Y-61426199D01*
X72592112Y-61480000D01*
X72867888Y-61480000D01*
X73138365Y-61426199D01*
X73393149Y-61320664D01*
X73622448Y-61167451D01*
X73817451Y-60972448D01*
X73970664Y-60743149D01*
X74000000Y-60672326D01*
X74029336Y-60743149D01*
X74182549Y-60972448D01*
X74377552Y-61167451D01*
X74606851Y-61320664D01*
X74861635Y-61426199D01*
X75132112Y-61480000D01*
X75407888Y-61480000D01*
X75678365Y-61426199D01*
X75933149Y-61320664D01*
X76162448Y-61167451D01*
X76357451Y-60972448D01*
X76510664Y-60743149D01*
X76616199Y-60488365D01*
X76670000Y-60217888D01*
X76670000Y-59942112D01*
X76616199Y-59671635D01*
X76510664Y-59416851D01*
X76357451Y-59187552D01*
X76162448Y-58992549D01*
X75933149Y-58839336D01*
X75678365Y-58733801D01*
X75407888Y-58680000D01*
X75132112Y-58680000D01*
X74861635Y-58733801D01*
X74606851Y-58839336D01*
X74377552Y-58992549D01*
X74182549Y-59187552D01*
X74029336Y-59416851D01*
X74000000Y-59487674D01*
X73970664Y-59416851D01*
X73817451Y-59187552D01*
X73622448Y-58992549D01*
X73393149Y-58839336D01*
X73184481Y-58752903D01*
X74350000Y-58752903D01*
X74467621Y-58741318D01*
X74580721Y-58707010D01*
X74684955Y-58651296D01*
X74776317Y-58576317D01*
X74851296Y-58484955D01*
X74907010Y-58380721D01*
X74941318Y-58267621D01*
X74952903Y-58150000D01*
X74952903Y-56650000D01*
X75247097Y-56650000D01*
X75247097Y-58150000D01*
X75258682Y-58267621D01*
X75292990Y-58380721D01*
X75348704Y-58484955D01*
X75423683Y-58576317D01*
X75515045Y-58651296D01*
X75619279Y-58707010D01*
X75732379Y-58741318D01*
X75850000Y-58752903D01*
X77350000Y-58752903D01*
X77467621Y-58741318D01*
X77580721Y-58707010D01*
X77684955Y-58651296D01*
X77776317Y-58576317D01*
X77851296Y-58484955D01*
X77907010Y-58380721D01*
X77941318Y-58267621D01*
X77952903Y-58150000D01*
X77952903Y-56650000D01*
X77941318Y-56532379D01*
X77934089Y-56508545D01*
X80910000Y-56508545D01*
X80910000Y-56971455D01*
X81000309Y-57425470D01*
X81177457Y-57853143D01*
X81434636Y-58238038D01*
X81761962Y-58565364D01*
X82146857Y-58822543D01*
X82574530Y-58999691D01*
X83028545Y-59090000D01*
X83491455Y-59090000D01*
X83945470Y-58999691D01*
X84373143Y-58822543D01*
X84758038Y-58565364D01*
X85085364Y-58238038D01*
X85342543Y-57853143D01*
X85519691Y-57425470D01*
X85610000Y-56971455D01*
X85610000Y-56508545D01*
X85519691Y-56054530D01*
X85342543Y-55626857D01*
X85085364Y-55241962D01*
X84758038Y-54914636D01*
X84373143Y-54657457D01*
X83945470Y-54480309D01*
X83491455Y-54390000D01*
X83028545Y-54390000D01*
X82574530Y-54480309D01*
X82146857Y-54657457D01*
X81761962Y-54914636D01*
X81434636Y-55241962D01*
X81177457Y-55626857D01*
X81000309Y-56054530D01*
X80910000Y-56508545D01*
X77934089Y-56508545D01*
X77907010Y-56419279D01*
X77851296Y-56315045D01*
X77776317Y-56223683D01*
X77684955Y-56148704D01*
X77580721Y-56092990D01*
X77467621Y-56058682D01*
X77350000Y-56047097D01*
X75850000Y-56047097D01*
X75732379Y-56058682D01*
X75619279Y-56092990D01*
X75515045Y-56148704D01*
X75423683Y-56223683D01*
X75348704Y-56315045D01*
X75292990Y-56419279D01*
X75258682Y-56532379D01*
X75247097Y-56650000D01*
X74952903Y-56650000D01*
X74941318Y-56532379D01*
X74907010Y-56419279D01*
X74851296Y-56315045D01*
X74776317Y-56223683D01*
X74684955Y-56148704D01*
X74580721Y-56092990D01*
X74467621Y-56058682D01*
X74350000Y-56047097D01*
X72850000Y-56047097D01*
X72732379Y-56058682D01*
X72619279Y-56092990D01*
X72515045Y-56148704D01*
X72423683Y-56223683D01*
X72348704Y-56315045D01*
X72292990Y-56419279D01*
X72258682Y-56532379D01*
X72247097Y-56650000D01*
X72247097Y-58150000D01*
X72258682Y-58267621D01*
X72292990Y-58380721D01*
X72348704Y-58484955D01*
X72423683Y-58576317D01*
X72515045Y-58651296D01*
X72575084Y-58683387D01*
X72321635Y-58733801D01*
X72066851Y-58839336D01*
X71837552Y-58992549D01*
X71642549Y-59187552D01*
X71489336Y-59416851D01*
X71460000Y-59487674D01*
X71430664Y-59416851D01*
X71277451Y-59187552D01*
X71082448Y-58992549D01*
X70853149Y-58839336D01*
X70598365Y-58733801D01*
X70327888Y-58680000D01*
X70052112Y-58680000D01*
X69781635Y-58733801D01*
X69526851Y-58839336D01*
X69297552Y-58992549D01*
X69102549Y-59187552D01*
X68949336Y-59416851D01*
X68920000Y-59487674D01*
X68890664Y-59416851D01*
X68737451Y-59187552D01*
X68542448Y-58992549D01*
X68313149Y-58839336D01*
X68058365Y-58733801D01*
X67787888Y-58680000D01*
X67512112Y-58680000D01*
X67241635Y-58733801D01*
X66986851Y-58839336D01*
X66757552Y-58992549D01*
X66562549Y-59187552D01*
X66409336Y-59416851D01*
X66303801Y-59671635D01*
X66250000Y-59942112D01*
X61452903Y-59942112D01*
X61452903Y-59450000D01*
X61441318Y-59332379D01*
X61407010Y-59219279D01*
X61351296Y-59115045D01*
X61276317Y-59023683D01*
X61184955Y-58948704D01*
X61080721Y-58892990D01*
X60967621Y-58858682D01*
X60850000Y-58847097D01*
X58850000Y-58847097D01*
X58732379Y-58858682D01*
X58619279Y-58892990D01*
X58515045Y-58948704D01*
X58423683Y-59023683D01*
X58348704Y-59115045D01*
X58292990Y-59219279D01*
X58258682Y-59332379D01*
X58247097Y-59450000D01*
X53839899Y-59450000D01*
X53802448Y-59412549D01*
X53573149Y-59259336D01*
X53318365Y-59153801D01*
X53047888Y-59100000D01*
X52772112Y-59100000D01*
X52501635Y-59153801D01*
X52246851Y-59259336D01*
X52017552Y-59412549D01*
X51822549Y-59607552D01*
X51669336Y-59836851D01*
X51563801Y-60091635D01*
X51510000Y-60362112D01*
X44150000Y-60362112D01*
X44096199Y-60091635D01*
X43990664Y-59836851D01*
X43837451Y-59607552D01*
X43642448Y-59412549D01*
X43413149Y-59259336D01*
X43158365Y-59153801D01*
X42887888Y-59100000D01*
X42612112Y-59100000D01*
X42341635Y-59153801D01*
X42086851Y-59259336D01*
X41857552Y-59412549D01*
X41662549Y-59607552D01*
X41509336Y-59836851D01*
X41403801Y-60091635D01*
X41350000Y-60362112D01*
X40142324Y-60362112D01*
X40033758Y-60100013D01*
X39825826Y-59788821D01*
X39561179Y-59524174D01*
X39249987Y-59316242D01*
X38904209Y-59173016D01*
X38537134Y-59100000D01*
X38162866Y-59100000D01*
X37795791Y-59173016D01*
X37450013Y-59316242D01*
X37138821Y-59524174D01*
X36874174Y-59788821D01*
X36666242Y-60100013D01*
X36523016Y-60445791D01*
X36450000Y-60812866D01*
X35250000Y-60812866D01*
X35176984Y-60445791D01*
X35033758Y-60100013D01*
X34825826Y-59788821D01*
X34561179Y-59524174D01*
X34249987Y-59316242D01*
X33904209Y-59173016D01*
X33537134Y-59100000D01*
X33162866Y-59100000D01*
X32795791Y-59173016D01*
X32450013Y-59316242D01*
X32138821Y-59524174D01*
X31874174Y-59788821D01*
X31666242Y-60100013D01*
X31523016Y-60445791D01*
X31450000Y-60812866D01*
X29445000Y-60812866D01*
X29445000Y-55133319D01*
X46895000Y-55133319D01*
X46895000Y-55566681D01*
X46979545Y-55991716D01*
X47145385Y-56392091D01*
X47386148Y-56752418D01*
X47692582Y-57058852D01*
X48052909Y-57299615D01*
X48453284Y-57465455D01*
X48878319Y-57550000D01*
X49311681Y-57550000D01*
X49736716Y-57465455D01*
X50137091Y-57299615D01*
X50497418Y-57058852D01*
X50803852Y-56752418D01*
X51044615Y-56392091D01*
X51062049Y-56350000D01*
X52747097Y-56350000D01*
X52747097Y-57850000D01*
X52758682Y-57967621D01*
X52792990Y-58080721D01*
X52848704Y-58184955D01*
X52923683Y-58276317D01*
X53015045Y-58351296D01*
X53119279Y-58407010D01*
X53232379Y-58441318D01*
X53350000Y-58452903D01*
X54850000Y-58452903D01*
X54967621Y-58441318D01*
X55080721Y-58407010D01*
X55184955Y-58351296D01*
X55276317Y-58276317D01*
X55351296Y-58184955D01*
X55407010Y-58080721D01*
X55441318Y-57967621D01*
X55452903Y-57850000D01*
X55452903Y-57350000D01*
X63497097Y-57350000D01*
X63497097Y-58850000D01*
X63508682Y-58967621D01*
X63542990Y-59080721D01*
X63598704Y-59184955D01*
X63673683Y-59276317D01*
X63765045Y-59351296D01*
X63869279Y-59407010D01*
X63982379Y-59441318D01*
X64100000Y-59452903D01*
X65600000Y-59452903D01*
X65717621Y-59441318D01*
X65830721Y-59407010D01*
X65934955Y-59351296D01*
X66026317Y-59276317D01*
X66101296Y-59184955D01*
X66157010Y-59080721D01*
X66191318Y-58967621D01*
X66202903Y-58850000D01*
X66202903Y-57350000D01*
X66191318Y-57232379D01*
X66157010Y-57119279D01*
X66101296Y-57015045D01*
X66026317Y-56923683D01*
X65934955Y-56848704D01*
X65830721Y-56792990D01*
X65717621Y-56758682D01*
X65600000Y-56747097D01*
X64100000Y-56747097D01*
X63982379Y-56758682D01*
X63869279Y-56792990D01*
X63765045Y-56848704D01*
X63673683Y-56923683D01*
X63598704Y-57015045D01*
X63542990Y-57119279D01*
X63508682Y-57232379D01*
X63497097Y-57350000D01*
X55452903Y-57350000D01*
X55452903Y-56350000D01*
X55441318Y-56232379D01*
X55407010Y-56119279D01*
X55351296Y-56015045D01*
X55276317Y-55923683D01*
X55184955Y-55848704D01*
X55080721Y-55792990D01*
X54967621Y-55758682D01*
X54850000Y-55747097D01*
X53350000Y-55747097D01*
X53232379Y-55758682D01*
X53119279Y-55792990D01*
X53015045Y-55848704D01*
X52923683Y-55923683D01*
X52848704Y-56015045D01*
X52792990Y-56119279D01*
X52758682Y-56232379D01*
X52747097Y-56350000D01*
X51062049Y-56350000D01*
X51210455Y-55991716D01*
X51295000Y-55566681D01*
X51295000Y-55133319D01*
X67395000Y-55133319D01*
X67395000Y-55566681D01*
X67479545Y-55991716D01*
X67645385Y-56392091D01*
X67886148Y-56752418D01*
X68192582Y-57058852D01*
X68552909Y-57299615D01*
X68953284Y-57465455D01*
X69378319Y-57550000D01*
X69811681Y-57550000D01*
X70236716Y-57465455D01*
X70637091Y-57299615D01*
X70997418Y-57058852D01*
X71303852Y-56752418D01*
X71544615Y-56392091D01*
X71710455Y-55991716D01*
X71795000Y-55566681D01*
X71795000Y-55133319D01*
X71710455Y-54708284D01*
X71544615Y-54307909D01*
X71303852Y-53947582D01*
X70997418Y-53641148D01*
X70637091Y-53400385D01*
X70236716Y-53234545D01*
X69811681Y-53150000D01*
X69378319Y-53150000D01*
X68953284Y-53234545D01*
X68552909Y-53400385D01*
X68192582Y-53641148D01*
X67886148Y-53947582D01*
X67645385Y-54307909D01*
X67479545Y-54708284D01*
X67395000Y-55133319D01*
X51295000Y-55133319D01*
X51210455Y-54708284D01*
X51044615Y-54307909D01*
X50803852Y-53947582D01*
X50497418Y-53641148D01*
X50137091Y-53400385D01*
X49736716Y-53234545D01*
X49311681Y-53150000D01*
X48878319Y-53150000D01*
X48453284Y-53234545D01*
X48052909Y-53400385D01*
X47692582Y-53641148D01*
X47386148Y-53947582D01*
X47145385Y-54307909D01*
X46979545Y-54708284D01*
X46895000Y-55133319D01*
X29445000Y-55133319D01*
X29445000Y-52926509D01*
X38200000Y-52926509D01*
X38200000Y-53123491D01*
X38238429Y-53316689D01*
X38313811Y-53498678D01*
X38423249Y-53662463D01*
X38562537Y-53801751D01*
X38726322Y-53911189D01*
X38908311Y-53986571D01*
X39101509Y-54025000D01*
X39298491Y-54025000D01*
X39491689Y-53986571D01*
X39673678Y-53911189D01*
X39837463Y-53801751D01*
X39976751Y-53662463D01*
X40086189Y-53498678D01*
X40161571Y-53316689D01*
X40200000Y-53123491D01*
X40200000Y-52926509D01*
X40161571Y-52733311D01*
X40086189Y-52551322D01*
X39976751Y-52387537D01*
X39957259Y-52368045D01*
X40325305Y-52000000D01*
X40398491Y-52000000D01*
X40591689Y-51961571D01*
X40773678Y-51886189D01*
X40937463Y-51776751D01*
X41076751Y-51637463D01*
X41186189Y-51473678D01*
X41261571Y-51291689D01*
X41300000Y-51098491D01*
X41300000Y-50937749D01*
X44074000Y-50937749D01*
X44074000Y-51134731D01*
X44112429Y-51327929D01*
X44187811Y-51509918D01*
X44274001Y-51638910D01*
X44274000Y-52497331D01*
X44187811Y-52626322D01*
X44112429Y-52808311D01*
X44074000Y-53001509D01*
X44074000Y-53198491D01*
X44112429Y-53391689D01*
X44187811Y-53573678D01*
X44297249Y-53737463D01*
X44436537Y-53876751D01*
X44600322Y-53986189D01*
X44782311Y-54061571D01*
X44975509Y-54100000D01*
X45172491Y-54100000D01*
X45365689Y-54061571D01*
X45547678Y-53986189D01*
X45711463Y-53876751D01*
X45850751Y-53737463D01*
X45960189Y-53573678D01*
X46035571Y-53391689D01*
X46074000Y-53198491D01*
X46074000Y-53001509D01*
X46035571Y-52808311D01*
X45960189Y-52626322D01*
X45874000Y-52497331D01*
X45874000Y-51638909D01*
X45960189Y-51509918D01*
X46035571Y-51327929D01*
X46074000Y-51134731D01*
X46074000Y-50937749D01*
X46035571Y-50744551D01*
X45960189Y-50562562D01*
X45850751Y-50398777D01*
X45711463Y-50259489D01*
X45547678Y-50150051D01*
X45365689Y-50074669D01*
X45172491Y-50036240D01*
X44975509Y-50036240D01*
X44782311Y-50074669D01*
X44600322Y-50150051D01*
X44436537Y-50259489D01*
X44297249Y-50398777D01*
X44187811Y-50562562D01*
X44112429Y-50744551D01*
X44074000Y-50937749D01*
X41300000Y-50937749D01*
X41300000Y-50901509D01*
X41261571Y-50708311D01*
X41186189Y-50526322D01*
X41076751Y-50362537D01*
X40937463Y-50223249D01*
X40773678Y-50113811D01*
X40591689Y-50038429D01*
X40398491Y-50000000D01*
X40201509Y-50000000D01*
X40008311Y-50038429D01*
X39826322Y-50113811D01*
X39662537Y-50223249D01*
X39523249Y-50362537D01*
X39413811Y-50526322D01*
X39338429Y-50708311D01*
X39300000Y-50901509D01*
X39300000Y-50974695D01*
X38712524Y-51562172D01*
X38684868Y-51584869D01*
X38594269Y-51695264D01*
X38526947Y-51821213D01*
X38485491Y-51957876D01*
X38475000Y-52064394D01*
X38475000Y-52064403D01*
X38471494Y-52100000D01*
X38475000Y-52135598D01*
X38475000Y-52335786D01*
X38423249Y-52387537D01*
X38313811Y-52551322D01*
X38238429Y-52733311D01*
X38200000Y-52926509D01*
X29445000Y-52926509D01*
X29445000Y-44696584D01*
X82370000Y-44696584D01*
X82370000Y-44903416D01*
X82410350Y-45106274D01*
X82489502Y-45297362D01*
X82604411Y-45469336D01*
X82750664Y-45615589D01*
X82922638Y-45730498D01*
X83113726Y-45809650D01*
X83316584Y-45850000D01*
X83523416Y-45850000D01*
X83726274Y-45809650D01*
X83917362Y-45730498D01*
X84089336Y-45615589D01*
X84235589Y-45469336D01*
X84350498Y-45297362D01*
X84429650Y-45106274D01*
X84470000Y-44903416D01*
X84470000Y-44696584D01*
X84429650Y-44493726D01*
X84350498Y-44302638D01*
X84235589Y-44130664D01*
X84089336Y-43984411D01*
X83917362Y-43869502D01*
X83726274Y-43790350D01*
X83523416Y-43750000D01*
X83316584Y-43750000D01*
X83113726Y-43790350D01*
X82922638Y-43869502D01*
X82750664Y-43984411D01*
X82604411Y-44130664D01*
X82489502Y-44302638D01*
X82410350Y-44493726D01*
X82370000Y-44696584D01*
X29445000Y-44696584D01*
X29445000Y-40296584D01*
X82370000Y-40296584D01*
X82370000Y-40503416D01*
X82410350Y-40706274D01*
X82489502Y-40897362D01*
X82604411Y-41069336D01*
X82750664Y-41215589D01*
X82922638Y-41330498D01*
X83113726Y-41409650D01*
X83316584Y-41450000D01*
X83523416Y-41450000D01*
X83726274Y-41409650D01*
X83917362Y-41330498D01*
X84089336Y-41215589D01*
X84235589Y-41069336D01*
X84350498Y-40897362D01*
X84429650Y-40706274D01*
X84470000Y-40503416D01*
X84470000Y-40296584D01*
X84429650Y-40093726D01*
X84350498Y-39902638D01*
X84235589Y-39730664D01*
X84089336Y-39584411D01*
X83917362Y-39469502D01*
X83726274Y-39390350D01*
X83523416Y-39350000D01*
X83316584Y-39350000D01*
X83113726Y-39390350D01*
X82922638Y-39469502D01*
X82750664Y-39584411D01*
X82604411Y-39730664D01*
X82489502Y-39902638D01*
X82410350Y-40093726D01*
X82370000Y-40296584D01*
X29445000Y-40296584D01*
X29445000Y-37604000D01*
X32683097Y-37604000D01*
X32683097Y-39104000D01*
X32694682Y-39221621D01*
X32728990Y-39334721D01*
X32784704Y-39438955D01*
X32859683Y-39530317D01*
X32951045Y-39605296D01*
X33055279Y-39661010D01*
X33168379Y-39695318D01*
X33286000Y-39706903D01*
X34786000Y-39706903D01*
X34903621Y-39695318D01*
X35016721Y-39661010D01*
X35120955Y-39605296D01*
X35212317Y-39530317D01*
X35287296Y-39438955D01*
X35343010Y-39334721D01*
X35377318Y-39221621D01*
X35388903Y-39104000D01*
X35388903Y-37604000D01*
X35377318Y-37486379D01*
X35343010Y-37373279D01*
X35287296Y-37269045D01*
X35212317Y-37177683D01*
X35120955Y-37102704D01*
X35016721Y-37046990D01*
X34903621Y-37012682D01*
X34786000Y-37001097D01*
X33286000Y-37001097D01*
X33168379Y-37012682D01*
X33055279Y-37046990D01*
X32951045Y-37102704D01*
X32859683Y-37177683D01*
X32784704Y-37269045D01*
X32728990Y-37373279D01*
X32694682Y-37486379D01*
X32683097Y-37604000D01*
X29445000Y-37604000D01*
X29445000Y-35225000D01*
X44322097Y-35225000D01*
X44322097Y-36725000D01*
X44333682Y-36842621D01*
X44367990Y-36955721D01*
X44423704Y-37059955D01*
X44498683Y-37151317D01*
X44590045Y-37226296D01*
X44694279Y-37282010D01*
X44807379Y-37316318D01*
X44925000Y-37327903D01*
X46425000Y-37327903D01*
X46542621Y-37316318D01*
X46655721Y-37282010D01*
X46759955Y-37226296D01*
X46851317Y-37151317D01*
X46926296Y-37059955D01*
X46982010Y-36955721D01*
X47016318Y-36842621D01*
X47027903Y-36725000D01*
X47027903Y-35225000D01*
X47016318Y-35107379D01*
X46982010Y-34994279D01*
X46926296Y-34890045D01*
X46851317Y-34798683D01*
X46759955Y-34723704D01*
X46655721Y-34667990D01*
X46542621Y-34633682D01*
X46425000Y-34622097D01*
X44925000Y-34622097D01*
X44807379Y-34633682D01*
X44694279Y-34667990D01*
X44590045Y-34723704D01*
X44498683Y-34798683D01*
X44423704Y-34890045D01*
X44367990Y-34994279D01*
X44333682Y-35107379D01*
X44322097Y-35225000D01*
X29445000Y-35225000D01*
X29445000Y-31580567D01*
X29469243Y-31333319D01*
X30070000Y-31333319D01*
X30070000Y-31766681D01*
X30154545Y-32191716D01*
X30320385Y-32592091D01*
X30561148Y-32952418D01*
X30867582Y-33258852D01*
X31227909Y-33499615D01*
X31628284Y-33665455D01*
X32053319Y-33750000D01*
X32486681Y-33750000D01*
X32911716Y-33665455D01*
X33312091Y-33499615D01*
X33672418Y-33258852D01*
X33978852Y-32952418D01*
X34219615Y-32592091D01*
X34385455Y-32191716D01*
X34470000Y-31766681D01*
X34470000Y-31333319D01*
X34385455Y-30908284D01*
X34219615Y-30507909D01*
X33978852Y-30147582D01*
X33672418Y-29841148D01*
X33312091Y-29600385D01*
X32911716Y-29434545D01*
X32486681Y-29350000D01*
X32053319Y-29350000D01*
X31628284Y-29434545D01*
X31227909Y-29600385D01*
X30867582Y-29841148D01*
X30561148Y-30147582D01*
X30320385Y-30507909D01*
X30154545Y-30908284D01*
X30070000Y-31333319D01*
X29469243Y-31333319D01*
X29501742Y-31001872D01*
X29660929Y-30474617D01*
X29919495Y-29988326D01*
X30267592Y-29561517D01*
X30691954Y-29210455D01*
X31176431Y-28948499D01*
X31702559Y-28785635D01*
X32279466Y-28725000D01*
X40499695Y-28725000D01*
X37962523Y-31262173D01*
G37*
X37962523Y-31262173D02*
X37934869Y-31284868D01*
X37912173Y-31312523D01*
X37912170Y-31312526D01*
X37844269Y-31395264D01*
X37816563Y-31447097D01*
X37600000Y-31447097D01*
X37482379Y-31458682D01*
X37369279Y-31492990D01*
X37265045Y-31548704D01*
X37173683Y-31623683D01*
X37098704Y-31715045D01*
X37042990Y-31819279D01*
X37008682Y-31932379D01*
X36997097Y-32050000D01*
X36997097Y-33750000D01*
X37008682Y-33867621D01*
X37042990Y-33980721D01*
X37098704Y-34084955D01*
X37173683Y-34176317D01*
X37265045Y-34251296D01*
X37369279Y-34307010D01*
X37482379Y-34341318D01*
X37600000Y-34352903D01*
X39300000Y-34352903D01*
X39417621Y-34341318D01*
X39530721Y-34307010D01*
X39634955Y-34251296D01*
X39726317Y-34176317D01*
X39801296Y-34084955D01*
X39857010Y-33980721D01*
X39891318Y-33867621D01*
X39902903Y-33750000D01*
X39902903Y-33689892D01*
X39999004Y-33816748D01*
X40196894Y-33992467D01*
X40425263Y-34126203D01*
X40675335Y-34212817D01*
X40778320Y-34233301D01*
X40989500Y-34125000D01*
X40989500Y-32900500D01*
X40969500Y-32900500D01*
X40969500Y-32899500D01*
X40989500Y-32899500D01*
X40989500Y-31675000D01*
X40778320Y-31566699D01*
X40675335Y-31587183D01*
X40425263Y-31673797D01*
X40196894Y-31807533D01*
X39999004Y-31983252D01*
X39902903Y-32110108D01*
X39902903Y-32050000D01*
X39891318Y-31932379D01*
X39857010Y-31819279D01*
X39801296Y-31715045D01*
X39726317Y-31623683D01*
X39685291Y-31590014D01*
X41750305Y-29525000D01*
X45879695Y-29525000D01*
X43907928Y-31496768D01*
X43672813Y-31450000D01*
X43387187Y-31450000D01*
X43107051Y-31505723D01*
X42843167Y-31615027D01*
X42605679Y-31773711D01*
X42403711Y-31975679D01*
X42245027Y-32213167D01*
X42201283Y-32318775D01*
X42140803Y-32194201D01*
X41980996Y-31983252D01*
X41783106Y-31807533D01*
X41554737Y-31673797D01*
X41304665Y-31587183D01*
X41201680Y-31566699D01*
X40990500Y-31675000D01*
X40990500Y-32899500D01*
X41010500Y-32899500D01*
X41010500Y-32900500D01*
X40990500Y-32900500D01*
X40990500Y-34125000D01*
X41201680Y-34233301D01*
X41304665Y-34212817D01*
X41554737Y-34126203D01*
X41783106Y-33992467D01*
X41980996Y-33816748D01*
X42140803Y-33605799D01*
X42201283Y-33481225D01*
X42245027Y-33586833D01*
X42403711Y-33824321D01*
X42605679Y-34026289D01*
X42843167Y-34184973D01*
X43107051Y-34294277D01*
X43387187Y-34350000D01*
X43672813Y-34350000D01*
X43952949Y-34294277D01*
X44216833Y-34184973D01*
X44454321Y-34026289D01*
X44656289Y-33824321D01*
X44814973Y-33586833D01*
X44924277Y-33322949D01*
X44980000Y-33042813D01*
X44980000Y-32757187D01*
X44933232Y-32522072D01*
X45321985Y-32133319D01*
X46895000Y-32133319D01*
X46895000Y-32566681D01*
X46979545Y-32991716D01*
X47145385Y-33392091D01*
X47386148Y-33752418D01*
X47692582Y-34058852D01*
X48052909Y-34299615D01*
X48453284Y-34465455D01*
X48878319Y-34550000D01*
X49311681Y-34550000D01*
X49736716Y-34465455D01*
X50137091Y-34299615D01*
X50497418Y-34058852D01*
X50803852Y-33752418D01*
X51044615Y-33392091D01*
X51210455Y-32991716D01*
X51295000Y-32566681D01*
X51295000Y-32133319D01*
X51210455Y-31708284D01*
X51044615Y-31307909D01*
X50803852Y-30947582D01*
X50497418Y-30641148D01*
X50137091Y-30400385D01*
X49736716Y-30234545D01*
X49311681Y-30150000D01*
X48878319Y-30150000D01*
X48453284Y-30234545D01*
X48052909Y-30400385D01*
X47692582Y-30641148D01*
X47386148Y-30947582D01*
X47145385Y-31307909D01*
X46979545Y-31708284D01*
X46895000Y-32133319D01*
X45321985Y-32133319D01*
X47430305Y-30025000D01*
X62799696Y-30025000D01*
X63262696Y-30488000D01*
X63020855Y-30488000D01*
X62757719Y-30540341D01*
X62509851Y-30643011D01*
X62286776Y-30792066D01*
X62097066Y-30981776D01*
X61948011Y-31204851D01*
X61885000Y-31356973D01*
X61821989Y-31204851D01*
X61672934Y-30981776D01*
X61483224Y-30792066D01*
X61260149Y-30643011D01*
X61012281Y-30540341D01*
X60749145Y-30488000D01*
X60480855Y-30488000D01*
X60217719Y-30540341D01*
X59969851Y-30643011D01*
X59746776Y-30792066D01*
X59557066Y-30981776D01*
X59408011Y-31204851D01*
X59345000Y-31356973D01*
X59281989Y-31204851D01*
X59132934Y-30981776D01*
X58943224Y-30792066D01*
X58720149Y-30643011D01*
X58472281Y-30540341D01*
X58209145Y-30488000D01*
X57940855Y-30488000D01*
X57677719Y-30540341D01*
X57429851Y-30643011D01*
X57206776Y-30792066D01*
X57017066Y-30981776D01*
X56868011Y-31204851D01*
X56805000Y-31356973D01*
X56741989Y-31204851D01*
X56592934Y-30981776D01*
X56403224Y-30792066D01*
X56180149Y-30643011D01*
X55932281Y-30540341D01*
X55669145Y-30488000D01*
X55400855Y-30488000D01*
X55137719Y-30540341D01*
X54889851Y-30643011D01*
X54666776Y-30792066D01*
X54477066Y-30981776D01*
X54328011Y-31204851D01*
X54225341Y-31452719D01*
X54173000Y-31715855D01*
X54173000Y-31984145D01*
X54225341Y-32247281D01*
X54328011Y-32495149D01*
X54477066Y-32718224D01*
X54666776Y-32907934D01*
X54816514Y-33007986D01*
X54760830Y-33037750D01*
X54355325Y-33039817D01*
X54194000Y-33037581D01*
X54095983Y-33047235D01*
X54080448Y-33051948D01*
X54068500Y-33040000D01*
X53594000Y-33037581D01*
X53495983Y-33047235D01*
X53401733Y-33075825D01*
X53314871Y-33122254D01*
X53238736Y-33184736D01*
X53176254Y-33260871D01*
X53129825Y-33347733D01*
X53101235Y-33441983D01*
X53091581Y-33540000D01*
X53094000Y-34164500D01*
X53219000Y-34289500D01*
X54015783Y-34289500D01*
X54015734Y-34290000D01*
X54015783Y-34290500D01*
X53219000Y-34290500D01*
X53094000Y-34415500D01*
X53091581Y-35040000D01*
X53101235Y-35138017D01*
X53129825Y-35232267D01*
X53176254Y-35319129D01*
X53238736Y-35395264D01*
X53314871Y-35457746D01*
X53401733Y-35504175D01*
X53495983Y-35532765D01*
X53594000Y-35542419D01*
X54068500Y-35540000D01*
X54080448Y-35528052D01*
X54095983Y-35532765D01*
X54194000Y-35542419D01*
X54355325Y-35540183D01*
X54760830Y-35542250D01*
X54863279Y-35597010D01*
X54976379Y-35631318D01*
X55094000Y-35642903D01*
X56094000Y-35642903D01*
X56211621Y-35631318D01*
X56244000Y-35621496D01*
X56276379Y-35631318D01*
X56394000Y-35642903D01*
X57093600Y-35642903D01*
X57308844Y-35621703D01*
X57515816Y-35558919D01*
X57706562Y-35456963D01*
X57873753Y-35319753D01*
X57880000Y-35312141D01*
X57886247Y-35319753D01*
X58053438Y-35456963D01*
X58171001Y-35519802D01*
X58171001Y-35632785D01*
X58119249Y-35684537D01*
X58009811Y-35848322D01*
X57934429Y-36030311D01*
X57896000Y-36223509D01*
X57896000Y-36420491D01*
X57934429Y-36613689D01*
X58009811Y-36795678D01*
X58119249Y-36959463D01*
X58258537Y-37098751D01*
X58422322Y-37208189D01*
X58604311Y-37283571D01*
X58797509Y-37322000D01*
X58994491Y-37322000D01*
X59187689Y-37283571D01*
X59369678Y-37208189D01*
X59533463Y-37098751D01*
X59672751Y-36959463D01*
X59782189Y-36795678D01*
X59857571Y-36613689D01*
X59896000Y-36420491D01*
X59896000Y-36223509D01*
X59857571Y-36030311D01*
X59782189Y-35848322D01*
X59672751Y-35684537D01*
X59627306Y-35639092D01*
X59666000Y-35642903D01*
X60666000Y-35642903D01*
X60783621Y-35631318D01*
X60896721Y-35597010D01*
X60999170Y-35542250D01*
X61404675Y-35540183D01*
X61566000Y-35542419D01*
X61664017Y-35532765D01*
X61679552Y-35528052D01*
X61691500Y-35540000D01*
X62166000Y-35542419D01*
X62264017Y-35532765D01*
X62358267Y-35504175D01*
X62445129Y-35457746D01*
X62521264Y-35395264D01*
X62583746Y-35319129D01*
X62630175Y-35232267D01*
X62658765Y-35138017D01*
X62668419Y-35040000D01*
X62666000Y-34415500D01*
X62541000Y-34290500D01*
X61545500Y-34290500D01*
X61545500Y-34289500D01*
X62541000Y-34289500D01*
X62666000Y-34164500D01*
X62668419Y-33540000D01*
X62658765Y-33441983D01*
X62630175Y-33347733D01*
X62583746Y-33260871D01*
X62521264Y-33184736D01*
X62445129Y-33122254D01*
X62358267Y-33075825D01*
X62264017Y-33047235D01*
X62166000Y-33037581D01*
X61691500Y-33040000D01*
X61679552Y-33051948D01*
X61664017Y-33047235D01*
X61566000Y-33037581D01*
X61404675Y-33039817D01*
X61286748Y-33039216D01*
X61483224Y-32907934D01*
X61672934Y-32718224D01*
X61821989Y-32495149D01*
X61885000Y-32343027D01*
X61948011Y-32495149D01*
X62097066Y-32718224D01*
X62286776Y-32907934D01*
X62509851Y-33056989D01*
X62757719Y-33159659D01*
X63020855Y-33212000D01*
X63289145Y-33212000D01*
X63552281Y-33159659D01*
X63800149Y-33056989D01*
X64023224Y-32907934D01*
X64186316Y-32744842D01*
X64226947Y-32878787D01*
X64294269Y-33004736D01*
X64362170Y-33087474D01*
X64362173Y-33087477D01*
X64384869Y-33115132D01*
X64412523Y-33137827D01*
X66575000Y-35300305D01*
X66575001Y-38010785D01*
X66523249Y-38062537D01*
X66413811Y-38226322D01*
X66338429Y-38408311D01*
X66300000Y-38601509D01*
X66300000Y-38798491D01*
X66338429Y-38991689D01*
X66413811Y-39173678D01*
X66523249Y-39337463D01*
X66662537Y-39476751D01*
X66826322Y-39586189D01*
X67008311Y-39661571D01*
X67201509Y-39700000D01*
X67398491Y-39700000D01*
X67591689Y-39661571D01*
X67773678Y-39586189D01*
X67937463Y-39476751D01*
X68076751Y-39337463D01*
X68186189Y-39173678D01*
X68261571Y-38991689D01*
X68300000Y-38798491D01*
X68300000Y-38601509D01*
X68261571Y-38408311D01*
X68186189Y-38226322D01*
X68076751Y-38062537D01*
X68025000Y-38010786D01*
X68025000Y-35035600D01*
X68028506Y-35000000D01*
X68025000Y-34964400D01*
X68025000Y-34964393D01*
X68014509Y-34857875D01*
X67973053Y-34721212D01*
X67958901Y-34694736D01*
X67905732Y-34595263D01*
X67837830Y-34512525D01*
X67837823Y-34512518D01*
X67815131Y-34484868D01*
X67787482Y-34462177D01*
X65625000Y-32299696D01*
X65625000Y-32133319D01*
X67395000Y-32133319D01*
X67395000Y-32566681D01*
X67479545Y-32991716D01*
X67645385Y-33392091D01*
X67886148Y-33752418D01*
X68192582Y-34058852D01*
X68552909Y-34299615D01*
X68953284Y-34465455D01*
X69378319Y-34550000D01*
X69811681Y-34550000D01*
X70236716Y-34465455D01*
X70637091Y-34299615D01*
X70997418Y-34058852D01*
X71303852Y-33752418D01*
X71544615Y-33392091D01*
X71710455Y-32991716D01*
X71795000Y-32566681D01*
X71795000Y-32133319D01*
X71710455Y-31708284D01*
X71544615Y-31307909D01*
X71303852Y-30947582D01*
X70997418Y-30641148D01*
X70637091Y-30400385D01*
X70236716Y-30234545D01*
X69811681Y-30150000D01*
X69378319Y-30150000D01*
X68953284Y-30234545D01*
X68552909Y-30400385D01*
X68192582Y-30641148D01*
X67886148Y-30947582D01*
X67645385Y-31307909D01*
X67479545Y-31708284D01*
X67395000Y-32133319D01*
X65625000Y-32133319D01*
X65625000Y-31135596D01*
X65628506Y-31099999D01*
X65625000Y-31064402D01*
X65625000Y-31064393D01*
X65614509Y-30957875D01*
X65573053Y-30821212D01*
X65505731Y-30695263D01*
X65493055Y-30679817D01*
X65437830Y-30612525D01*
X65437823Y-30612518D01*
X65415131Y-30584868D01*
X65387482Y-30562177D01*
X64350304Y-29525000D01*
X70999696Y-29525000D01*
X72274996Y-30800301D01*
X72274997Y-36510785D01*
X72223245Y-36562537D01*
X72113807Y-36726322D01*
X72038425Y-36908311D01*
X71999996Y-37101509D01*
X71999996Y-37298491D01*
X72038425Y-37491689D01*
X72113807Y-37673678D01*
X72223245Y-37837463D01*
X72362533Y-37976751D01*
X72526318Y-38086189D01*
X72708307Y-38161571D01*
X72901505Y-38200000D01*
X73098487Y-38200000D01*
X73291685Y-38161571D01*
X73473674Y-38086189D01*
X73637459Y-37976751D01*
X73776747Y-37837463D01*
X73886185Y-37673678D01*
X73961567Y-37491689D01*
X73999996Y-37298491D01*
X73999996Y-37101509D01*
X73961567Y-36908311D01*
X73886185Y-36726322D01*
X73776747Y-36562537D01*
X73724996Y-36510786D01*
X73724996Y-34301509D01*
X73980000Y-34301509D01*
X73980000Y-34498491D01*
X74018429Y-34691689D01*
X74093811Y-34873678D01*
X74203249Y-35037463D01*
X74342537Y-35176751D01*
X74506322Y-35286189D01*
X74688311Y-35361571D01*
X74881509Y-35400000D01*
X75078491Y-35400000D01*
X75271689Y-35361571D01*
X75420335Y-35300000D01*
X77697331Y-35300000D01*
X77826322Y-35386189D01*
X78008311Y-35461571D01*
X78201509Y-35500000D01*
X78398491Y-35500000D01*
X78591689Y-35461571D01*
X78773678Y-35386189D01*
X78937463Y-35276751D01*
X79076751Y-35137463D01*
X79186189Y-34973678D01*
X79261571Y-34791689D01*
X79300000Y-34598491D01*
X79300000Y-34401509D01*
X79261571Y-34208311D01*
X79186189Y-34026322D01*
X79076751Y-33862537D01*
X78937463Y-33723249D01*
X78773678Y-33613811D01*
X78591689Y-33538429D01*
X78398491Y-33500000D01*
X78201509Y-33500000D01*
X78008311Y-33538429D01*
X77826322Y-33613811D01*
X77697331Y-33700000D01*
X75694214Y-33700000D01*
X75617463Y-33623249D01*
X75453678Y-33513811D01*
X75271689Y-33438429D01*
X75078491Y-33400000D01*
X74881509Y-33400000D01*
X74688311Y-33438429D01*
X74506322Y-33513811D01*
X74342537Y-33623249D01*
X74203249Y-33762537D01*
X74093811Y-33926322D01*
X74018429Y-34108311D01*
X73980000Y-34301509D01*
X73724996Y-34301509D01*
X73724996Y-32403017D01*
X73737082Y-32403017D01*
X73743638Y-32439723D01*
X73799027Y-32622655D01*
X73889040Y-32791266D01*
X74010218Y-32939076D01*
X74157904Y-33060405D01*
X74326422Y-33150591D01*
X74509297Y-33206168D01*
X74699500Y-33225000D01*
X74849500Y-33225000D01*
X74849500Y-32250500D01*
X74850500Y-32250500D01*
X74850500Y-33225000D01*
X75000500Y-33225000D01*
X75190703Y-33206168D01*
X75373578Y-33150591D01*
X75542096Y-33060405D01*
X75689782Y-32939076D01*
X75810960Y-32791266D01*
X75900973Y-32622655D01*
X75956362Y-32439723D01*
X75962918Y-32403017D01*
X78737082Y-32403017D01*
X78743638Y-32439723D01*
X78799027Y-32622655D01*
X78889040Y-32791266D01*
X79010218Y-32939076D01*
X79157904Y-33060405D01*
X79326422Y-33150591D01*
X79509297Y-33206168D01*
X79699500Y-33225000D01*
X79849500Y-33225000D01*
X79849500Y-32250500D01*
X79850500Y-32250500D01*
X79850500Y-33225000D01*
X80000500Y-33225000D01*
X80190703Y-33206168D01*
X80373578Y-33150591D01*
X80542096Y-33060405D01*
X80689782Y-32939076D01*
X80810960Y-32791266D01*
X80900973Y-32622655D01*
X80956362Y-32439723D01*
X80962918Y-32403017D01*
X80850000Y-32250500D01*
X79850500Y-32250500D01*
X79849500Y-32250500D01*
X78850000Y-32250500D01*
X78737082Y-32403017D01*
X75962918Y-32403017D01*
X75850000Y-32250500D01*
X74850500Y-32250500D01*
X74849500Y-32250500D01*
X73850000Y-32250500D01*
X73737082Y-32403017D01*
X73724996Y-32403017D01*
X73724996Y-32096983D01*
X73737082Y-32096983D01*
X73850000Y-32249500D01*
X74849500Y-32249500D01*
X74849500Y-31275000D01*
X74850500Y-31275000D01*
X74850500Y-32249500D01*
X75850000Y-32249500D01*
X75962918Y-32096983D01*
X78737082Y-32096983D01*
X78850000Y-32249500D01*
X79849500Y-32249500D01*
X79849500Y-31275000D01*
X79850500Y-31275000D01*
X79850500Y-32249500D01*
X80850000Y-32249500D01*
X80962918Y-32096983D01*
X80956362Y-32060277D01*
X80900973Y-31877345D01*
X80810960Y-31708734D01*
X80689782Y-31560924D01*
X80542096Y-31439595D01*
X80373578Y-31349409D01*
X80287730Y-31323319D01*
X83920000Y-31323319D01*
X83920000Y-31756681D01*
X84004545Y-32181716D01*
X84170385Y-32582091D01*
X84411148Y-32942418D01*
X84717582Y-33248852D01*
X85077909Y-33489615D01*
X85478284Y-33655455D01*
X85903319Y-33740000D01*
X86336681Y-33740000D01*
X86761716Y-33655455D01*
X87162091Y-33489615D01*
X87522418Y-33248852D01*
X87828852Y-32942418D01*
X88069615Y-32582091D01*
X88235455Y-32181716D01*
X88320000Y-31756681D01*
X88320000Y-31323319D01*
X88235455Y-30898284D01*
X88069615Y-30497909D01*
X87828852Y-30137582D01*
X87522418Y-29831148D01*
X87162091Y-29590385D01*
X86761716Y-29424545D01*
X86336681Y-29340000D01*
X85903319Y-29340000D01*
X85478284Y-29424545D01*
X85077909Y-29590385D01*
X84717582Y-29831148D01*
X84411148Y-30137582D01*
X84170385Y-30497909D01*
X84004545Y-30898284D01*
X83920000Y-31323319D01*
X80287730Y-31323319D01*
X80190703Y-31293832D01*
X80000500Y-31275000D01*
X79850500Y-31275000D01*
X79849500Y-31275000D01*
X79699500Y-31275000D01*
X79509297Y-31293832D01*
X79326422Y-31349409D01*
X79157904Y-31439595D01*
X79010218Y-31560924D01*
X78889040Y-31708734D01*
X78799027Y-31877345D01*
X78743638Y-32060277D01*
X78737082Y-32096983D01*
X75962918Y-32096983D01*
X75956362Y-32060277D01*
X75900973Y-31877345D01*
X75810960Y-31708734D01*
X75689782Y-31560924D01*
X75542096Y-31439595D01*
X75373578Y-31349409D01*
X75190703Y-31293832D01*
X75000500Y-31275000D01*
X74850500Y-31275000D01*
X74849500Y-31275000D01*
X74699500Y-31275000D01*
X74509297Y-31293832D01*
X74326422Y-31349409D01*
X74157904Y-31439595D01*
X74010218Y-31560924D01*
X73889040Y-31708734D01*
X73799027Y-31877345D01*
X73743638Y-32060277D01*
X73737082Y-32096983D01*
X73724996Y-32096983D01*
X73724996Y-30839628D01*
X73849500Y-30750000D01*
X73849500Y-29550500D01*
X73850500Y-29550500D01*
X73850500Y-30750000D01*
X74006928Y-30862610D01*
X74044599Y-30855883D01*
X74232221Y-30799071D01*
X74405154Y-30706748D01*
X74556753Y-30582461D01*
X74681192Y-30430987D01*
X74773688Y-30258146D01*
X74830688Y-30070581D01*
X74850000Y-29875500D01*
X74850000Y-29550500D01*
X79850000Y-29550500D01*
X79850000Y-29875500D01*
X79869312Y-30070581D01*
X79926312Y-30258146D01*
X80018808Y-30430987D01*
X80143247Y-30582461D01*
X80294846Y-30706748D01*
X80467779Y-30799071D01*
X80655401Y-30855883D01*
X80693072Y-30862610D01*
X80849500Y-30750000D01*
X80849500Y-29550500D01*
X80850500Y-29550500D01*
X80850500Y-30750000D01*
X81006928Y-30862610D01*
X81044599Y-30855883D01*
X81232221Y-30799071D01*
X81405154Y-30706748D01*
X81556753Y-30582461D01*
X81681192Y-30430987D01*
X81773688Y-30258146D01*
X81830688Y-30070581D01*
X81850000Y-29875500D01*
X81850000Y-29550500D01*
X80850500Y-29550500D01*
X80849500Y-29550500D01*
X79850000Y-29550500D01*
X74850000Y-29550500D01*
X73850500Y-29550500D01*
X73849500Y-29550500D01*
X73829500Y-29550500D01*
X73829500Y-29549500D01*
X73849500Y-29549500D01*
X73849500Y-29529500D01*
X73850500Y-29529500D01*
X73850500Y-29549500D01*
X74850000Y-29549500D01*
X74850000Y-29224500D01*
X74830688Y-29029419D01*
X74773688Y-28841854D01*
X74711153Y-28725000D01*
X79988847Y-28725000D01*
X79926312Y-28841854D01*
X79869312Y-29029419D01*
X79850000Y-29224500D01*
X79850000Y-29549500D01*
X80849500Y-29549500D01*
X80849500Y-29529500D01*
X80850500Y-29529500D01*
X80850500Y-29549500D01*
X81850000Y-29549500D01*
X81850000Y-29224500D01*
X81830688Y-29029419D01*
X81773688Y-28841854D01*
X81711153Y-28725000D01*
X86089433Y-28725000D01*
X86668128Y-28781742D01*
X87195383Y-28940929D01*
X87681674Y-29199495D01*
X88108483Y-29547592D01*
X88459545Y-29971954D01*
X88721501Y-30456431D01*
X88884365Y-30982559D01*
X88945000Y-31559466D01*
X88945001Y-87919423D01*
X88888258Y-88498128D01*
X88729071Y-89025384D01*
X88470505Y-89511674D01*
X88122410Y-89938481D01*
X87698046Y-90289546D01*
X87213569Y-90551501D01*
X86687441Y-90714365D01*
X86110533Y-90775000D01*
X32282941Y-90775000D01*
X31705831Y-90715034D01*
X31179516Y-90552796D01*
X30694728Y-90291413D01*
X30269948Y-89940852D01*
X29921345Y-89514454D01*
X29662202Y-89028468D01*
X29502393Y-88501408D01*
X29445000Y-87923130D01*
X29445000Y-87733319D01*
X30070000Y-87733319D01*
X30070000Y-88166681D01*
X30154545Y-88591716D01*
X30320385Y-88992091D01*
X30561148Y-89352418D01*
X30867582Y-89658852D01*
X31227909Y-89899615D01*
X31628284Y-90065455D01*
X32053319Y-90150000D01*
X32486681Y-90150000D01*
X32911716Y-90065455D01*
X33312091Y-89899615D01*
X33672418Y-89658852D01*
X33978852Y-89352418D01*
X34219615Y-88992091D01*
X34385455Y-88591716D01*
X34470000Y-88166681D01*
X34470000Y-87733319D01*
X34385455Y-87308284D01*
X34219615Y-86907909D01*
X33978852Y-86547582D01*
X33672418Y-86241148D01*
X33312091Y-86000385D01*
X32911716Y-85834545D01*
X32486681Y-85750000D01*
X32053319Y-85750000D01*
X31628284Y-85834545D01*
X31227909Y-86000385D01*
X30867582Y-86241148D01*
X30561148Y-86547582D01*
X30320385Y-86907909D01*
X30154545Y-87308284D01*
X30070000Y-87733319D01*
X29445000Y-87733319D01*
X29445000Y-84300000D01*
X38597097Y-84300000D01*
X38597097Y-85900000D01*
X38608682Y-86017621D01*
X38642990Y-86130721D01*
X38698704Y-86234955D01*
X38773683Y-86326317D01*
X38865045Y-86401296D01*
X38969279Y-86457010D01*
X39082379Y-86491318D01*
X39132010Y-86496206D01*
X39107552Y-86512549D01*
X38912549Y-86707552D01*
X38759336Y-86936851D01*
X38653801Y-87191635D01*
X38600000Y-87462112D01*
X38600000Y-87737888D01*
X38653801Y-88008365D01*
X38759336Y-88263149D01*
X38912549Y-88492448D01*
X39107552Y-88687451D01*
X39336851Y-88840664D01*
X39591635Y-88946199D01*
X39862112Y-89000000D01*
X40137888Y-89000000D01*
X40408365Y-88946199D01*
X40663149Y-88840664D01*
X40892448Y-88687451D01*
X41087451Y-88492448D01*
X41240664Y-88263149D01*
X41346199Y-88008365D01*
X41400000Y-87737888D01*
X41400000Y-87462112D01*
X41346199Y-87191635D01*
X41240664Y-86936851D01*
X41087451Y-86707552D01*
X40892448Y-86512549D01*
X40867990Y-86496206D01*
X40917621Y-86491318D01*
X41030721Y-86457010D01*
X41134955Y-86401296D01*
X41226317Y-86326317D01*
X41301296Y-86234955D01*
X41357010Y-86130721D01*
X41391318Y-86017621D01*
X41402903Y-85900000D01*
X41402903Y-84736185D01*
X45785000Y-84736185D01*
X45785000Y-85543815D01*
X45942561Y-86335926D01*
X46251627Y-87082078D01*
X46700322Y-87753598D01*
X47271402Y-88324678D01*
X47942922Y-88773373D01*
X48689074Y-89082439D01*
X49481185Y-89240000D01*
X50288815Y-89240000D01*
X51080926Y-89082439D01*
X51827078Y-88773373D01*
X52498598Y-88324678D01*
X53069678Y-87753598D01*
X53518373Y-87082078D01*
X53827439Y-86335926D01*
X53985000Y-85543815D01*
X53985000Y-84736185D01*
X64835000Y-84736185D01*
X64835000Y-85543815D01*
X64992561Y-86335926D01*
X65301627Y-87082078D01*
X65750322Y-87753598D01*
X66321402Y-88324678D01*
X66992922Y-88773373D01*
X67739074Y-89082439D01*
X68531185Y-89240000D01*
X69338815Y-89240000D01*
X70130926Y-89082439D01*
X70877078Y-88773373D01*
X71361040Y-88450000D01*
X76447581Y-88450000D01*
X76457235Y-88548017D01*
X76485825Y-88642267D01*
X76532254Y-88729129D01*
X76594736Y-88805264D01*
X76670871Y-88867746D01*
X76757733Y-88914175D01*
X76851983Y-88942765D01*
X76950000Y-88952419D01*
X77574500Y-88950000D01*
X77699500Y-88825000D01*
X77699500Y-87700500D01*
X77700500Y-87700500D01*
X77700500Y-88825000D01*
X77825500Y-88950000D01*
X78450000Y-88952419D01*
X78548017Y-88942765D01*
X78642267Y-88914175D01*
X78729129Y-88867746D01*
X78805264Y-88805264D01*
X78867746Y-88729129D01*
X78914175Y-88642267D01*
X78942765Y-88548017D01*
X78952419Y-88450000D01*
X78950000Y-87825500D01*
X78857819Y-87733319D01*
X83920000Y-87733319D01*
X83920000Y-88166681D01*
X84004545Y-88591716D01*
X84170385Y-88992091D01*
X84411148Y-89352418D01*
X84717582Y-89658852D01*
X85077909Y-89899615D01*
X85478284Y-90065455D01*
X85903319Y-90150000D01*
X86336681Y-90150000D01*
X86761716Y-90065455D01*
X87162091Y-89899615D01*
X87522418Y-89658852D01*
X87828852Y-89352418D01*
X88069615Y-88992091D01*
X88235455Y-88591716D01*
X88320000Y-88166681D01*
X88320000Y-87733319D01*
X88235455Y-87308284D01*
X88069615Y-86907909D01*
X87828852Y-86547582D01*
X87522418Y-86241148D01*
X87162091Y-86000385D01*
X86761716Y-85834545D01*
X86336681Y-85750000D01*
X85903319Y-85750000D01*
X85478284Y-85834545D01*
X85077909Y-86000385D01*
X84717582Y-86241148D01*
X84411148Y-86547582D01*
X84170385Y-86907909D01*
X84004545Y-87308284D01*
X83920000Y-87733319D01*
X78857819Y-87733319D01*
X78825000Y-87700500D01*
X77700500Y-87700500D01*
X77699500Y-87700500D01*
X76575000Y-87700500D01*
X76450000Y-87825500D01*
X76447581Y-88450000D01*
X71361040Y-88450000D01*
X71548598Y-88324678D01*
X72119678Y-87753598D01*
X72568373Y-87082078D01*
X72623081Y-86950000D01*
X76447581Y-86950000D01*
X76450000Y-87574500D01*
X76575000Y-87699500D01*
X77699500Y-87699500D01*
X77699500Y-86575000D01*
X77700500Y-86575000D01*
X77700500Y-87699500D01*
X78825000Y-87699500D01*
X78950000Y-87574500D01*
X78952419Y-86950000D01*
X78942765Y-86851983D01*
X78914175Y-86757733D01*
X78867746Y-86670871D01*
X78805264Y-86594736D01*
X78729129Y-86532254D01*
X78642267Y-86485825D01*
X78548017Y-86457235D01*
X78450000Y-86447581D01*
X77825500Y-86450000D01*
X77700500Y-86575000D01*
X77699500Y-86575000D01*
X77574500Y-86450000D01*
X76950000Y-86447581D01*
X76851983Y-86457235D01*
X76757733Y-86485825D01*
X76670871Y-86532254D01*
X76594736Y-86594736D01*
X76532254Y-86670871D01*
X76485825Y-86757733D01*
X76457235Y-86851983D01*
X76447581Y-86950000D01*
X72623081Y-86950000D01*
X72877439Y-86335926D01*
X73035000Y-85543815D01*
X73035000Y-84736185D01*
X72877439Y-83944074D01*
X72568373Y-83197922D01*
X72125859Y-82535652D01*
X77565055Y-82535652D01*
X77632587Y-82757105D01*
X77853563Y-82886508D01*
X78095540Y-82970315D01*
X78349216Y-83005303D01*
X78604844Y-82990130D01*
X78852600Y-82925377D01*
X79082963Y-82813534D01*
X79167413Y-82757105D01*
X79234945Y-82535652D01*
X78400000Y-81700707D01*
X77565055Y-82535652D01*
X72125859Y-82535652D01*
X72119678Y-82526402D01*
X71548598Y-81955322D01*
X71090478Y-81649216D01*
X77094697Y-81649216D01*
X77109870Y-81904844D01*
X77174623Y-82152600D01*
X77286466Y-82382963D01*
X77342895Y-82467413D01*
X77564348Y-82534945D01*
X78399293Y-81700000D01*
X78400707Y-81700000D01*
X79235652Y-82534945D01*
X79457105Y-82467413D01*
X79586508Y-82246437D01*
X79670315Y-82004460D01*
X79705303Y-81750784D01*
X79690130Y-81495156D01*
X79625377Y-81247400D01*
X79513534Y-81017037D01*
X79457105Y-80932587D01*
X79235652Y-80865055D01*
X78400707Y-81700000D01*
X78399293Y-81700000D01*
X77564348Y-80865055D01*
X77342895Y-80932587D01*
X77213492Y-81153563D01*
X77129685Y-81395540D01*
X77094697Y-81649216D01*
X71090478Y-81649216D01*
X70877078Y-81506627D01*
X70130926Y-81197561D01*
X69338815Y-81040000D01*
X68531185Y-81040000D01*
X67739074Y-81197561D01*
X66992922Y-81506627D01*
X66321402Y-81955322D01*
X65750322Y-82526402D01*
X65301627Y-83197922D01*
X64992561Y-83944074D01*
X64835000Y-84736185D01*
X53985000Y-84736185D01*
X53827439Y-83944074D01*
X53518373Y-83197922D01*
X53069678Y-82526402D01*
X52498598Y-81955322D01*
X51827078Y-81506627D01*
X51080926Y-81197561D01*
X50288815Y-81040000D01*
X49481185Y-81040000D01*
X48689074Y-81197561D01*
X47942922Y-81506627D01*
X47271402Y-81955322D01*
X46700322Y-82526402D01*
X46251627Y-83197922D01*
X45942561Y-83944074D01*
X45785000Y-84736185D01*
X41402903Y-84736185D01*
X41402903Y-84300000D01*
X41391318Y-84182379D01*
X41357010Y-84069279D01*
X41301296Y-83965045D01*
X41226317Y-83873683D01*
X41134955Y-83798704D01*
X41030721Y-83742990D01*
X40917621Y-83708682D01*
X40800000Y-83697097D01*
X39200000Y-83697097D01*
X39082379Y-83708682D01*
X38969279Y-83742990D01*
X38865045Y-83798704D01*
X38773683Y-83873683D01*
X38698704Y-83965045D01*
X38642990Y-84069279D01*
X38608682Y-84182379D01*
X38597097Y-84300000D01*
X29445000Y-84300000D01*
X29445000Y-80697187D01*
X56720000Y-80697187D01*
X56720000Y-80982813D01*
X56775723Y-81262949D01*
X56885027Y-81526833D01*
X57043711Y-81764321D01*
X57245679Y-81966289D01*
X57483167Y-82124973D01*
X57747051Y-82234277D01*
X58027187Y-82290000D01*
X58312813Y-82290000D01*
X58592949Y-82234277D01*
X58856833Y-82124973D01*
X59094321Y-81966289D01*
X59267275Y-81793335D01*
X59268682Y-81807621D01*
X59302990Y-81920721D01*
X59358704Y-82024955D01*
X59433683Y-82116317D01*
X59525045Y-82191296D01*
X59629279Y-82247010D01*
X59742379Y-82281318D01*
X59860000Y-82292903D01*
X61560000Y-82292903D01*
X61677621Y-82281318D01*
X61790721Y-82247010D01*
X61894955Y-82191296D01*
X61986317Y-82116317D01*
X62061296Y-82024955D01*
X62117010Y-81920721D01*
X62151318Y-81807621D01*
X62162903Y-81690000D01*
X62162903Y-79990000D01*
X62151318Y-79872379D01*
X62117010Y-79759279D01*
X62061296Y-79655045D01*
X61986317Y-79563683D01*
X61939182Y-79525000D01*
X62399696Y-79525000D01*
X63300000Y-80425305D01*
X63300000Y-80498491D01*
X63338429Y-80691689D01*
X63413811Y-80873678D01*
X63523249Y-81037463D01*
X63662537Y-81176751D01*
X63826322Y-81286189D01*
X64008311Y-81361571D01*
X64201509Y-81400000D01*
X64398491Y-81400000D01*
X64591689Y-81361571D01*
X64773678Y-81286189D01*
X64937463Y-81176751D01*
X65076751Y-81037463D01*
X65186189Y-80873678D01*
X65261571Y-80691689D01*
X65300000Y-80498491D01*
X65300000Y-80301509D01*
X65261571Y-80108311D01*
X65186189Y-79926322D01*
X65076751Y-79762537D01*
X64937463Y-79623249D01*
X64773678Y-79513811D01*
X64591689Y-79438429D01*
X64398491Y-79400000D01*
X64325305Y-79400000D01*
X63325305Y-78400000D01*
X76997097Y-78400000D01*
X76997097Y-80000000D01*
X77008682Y-80117621D01*
X77042990Y-80230721D01*
X77098704Y-80334955D01*
X77173683Y-80426317D01*
X77265045Y-80501296D01*
X77369279Y-80557010D01*
X77482379Y-80591318D01*
X77600000Y-80602903D01*
X77692438Y-80602903D01*
X77632587Y-80642895D01*
X77565055Y-80864348D01*
X78400000Y-81699293D01*
X79234945Y-80864348D01*
X79167413Y-80642895D01*
X79099120Y-80602903D01*
X79200000Y-80602903D01*
X79317621Y-80591318D01*
X79430721Y-80557010D01*
X79534955Y-80501296D01*
X79626317Y-80426317D01*
X79701296Y-80334955D01*
X79757010Y-80230721D01*
X79791318Y-80117621D01*
X79802903Y-80000000D01*
X79802903Y-78400000D01*
X79791318Y-78282379D01*
X79757010Y-78169279D01*
X79701296Y-78065045D01*
X79626317Y-77973683D01*
X79534955Y-77898704D01*
X79430721Y-77842990D01*
X79317621Y-77808682D01*
X79200000Y-77797097D01*
X77600000Y-77797097D01*
X77482379Y-77808682D01*
X77369279Y-77842990D01*
X77265045Y-77898704D01*
X77173683Y-77973683D01*
X77098704Y-78065045D01*
X77042990Y-78169279D01*
X77008682Y-78282379D01*
X76997097Y-78400000D01*
X63325305Y-78400000D01*
X63237832Y-78312528D01*
X63215132Y-78284868D01*
X63104737Y-78194269D01*
X62978788Y-78126947D01*
X62842125Y-78085491D01*
X62735607Y-78075000D01*
X62735597Y-78075000D01*
X62700000Y-78071494D01*
X62664403Y-78075000D01*
X60245600Y-78075000D01*
X60210000Y-78071494D01*
X60174400Y-78075000D01*
X60174393Y-78075000D01*
X60067875Y-78085491D01*
X59996936Y-78107010D01*
X59931212Y-78126947D01*
X59805263Y-78194269D01*
X59722525Y-78262170D01*
X59722523Y-78262172D01*
X59694868Y-78284868D01*
X59672172Y-78312523D01*
X58547928Y-79436768D01*
X58312813Y-79390000D01*
X58027187Y-79390000D01*
X57747051Y-79445723D01*
X57483167Y-79555027D01*
X57245679Y-79713711D01*
X57043711Y-79915679D01*
X56885027Y-80153167D01*
X56775723Y-80417051D01*
X56720000Y-80697187D01*
X29445000Y-80697187D01*
X29445000Y-79477758D01*
X35472950Y-79477758D01*
X35564460Y-79719691D01*
X35819426Y-79869015D01*
X36098624Y-79965729D01*
X36391325Y-80006116D01*
X36686281Y-79988622D01*
X36972157Y-79913923D01*
X37237967Y-79784887D01*
X37335540Y-79719691D01*
X37427050Y-79477758D01*
X36450000Y-78500707D01*
X35472950Y-79477758D01*
X29445000Y-79477758D01*
X29445000Y-78441325D01*
X34943884Y-78441325D01*
X34961378Y-78736281D01*
X35036077Y-79022157D01*
X35165113Y-79287967D01*
X35230309Y-79385540D01*
X35472242Y-79477050D01*
X36449293Y-78500000D01*
X36450707Y-78500000D01*
X37427758Y-79477050D01*
X37669691Y-79385540D01*
X37819015Y-79130574D01*
X37915729Y-78851376D01*
X37956116Y-78558675D01*
X37938622Y-78263719D01*
X37863923Y-77977843D01*
X37734887Y-77712033D01*
X37669691Y-77614460D01*
X37427758Y-77522950D01*
X36450707Y-78500000D01*
X36449293Y-78500000D01*
X35472242Y-77522950D01*
X35230309Y-77614460D01*
X35080985Y-77869426D01*
X34984271Y-78148624D01*
X34943884Y-78441325D01*
X29445000Y-78441325D01*
X29445000Y-77522242D01*
X35472950Y-77522242D01*
X36450000Y-78499293D01*
X37427050Y-77522242D01*
X37335540Y-77280309D01*
X37080574Y-77130985D01*
X36801376Y-77034271D01*
X36508675Y-76993884D01*
X36213719Y-77011378D01*
X35927843Y-77086077D01*
X35662033Y-77215113D01*
X35564460Y-77280309D01*
X35472950Y-77522242D01*
X29445000Y-77522242D01*
X29445000Y-76012112D01*
X54450000Y-76012112D01*
X54450000Y-76287888D01*
X54503801Y-76558365D01*
X54609336Y-76813149D01*
X54762549Y-77042448D01*
X54957552Y-77237451D01*
X55186851Y-77390664D01*
X55441635Y-77496199D01*
X55712112Y-77550000D01*
X55987888Y-77550000D01*
X56258365Y-77496199D01*
X56513149Y-77390664D01*
X56742448Y-77237451D01*
X56937451Y-77042448D01*
X56975400Y-76985652D01*
X57515055Y-76985652D01*
X57582587Y-77207105D01*
X57803563Y-77336508D01*
X58045540Y-77420315D01*
X58299216Y-77455303D01*
X58554844Y-77440130D01*
X58802600Y-77375377D01*
X59032963Y-77263534D01*
X59117413Y-77207105D01*
X59184945Y-76985652D01*
X58350000Y-76150707D01*
X57515055Y-76985652D01*
X56975400Y-76985652D01*
X57090664Y-76813149D01*
X57153360Y-76661789D01*
X57236466Y-76832963D01*
X57292895Y-76917413D01*
X57514348Y-76984945D01*
X58349293Y-76150000D01*
X58350707Y-76150000D01*
X59185652Y-76984945D01*
X59407105Y-76917413D01*
X59536508Y-76696437D01*
X59620315Y-76454460D01*
X59647523Y-76257187D01*
X62950000Y-76257187D01*
X62950000Y-76542813D01*
X63005723Y-76822949D01*
X63115027Y-77086833D01*
X63273711Y-77324321D01*
X63475679Y-77526289D01*
X63713167Y-77684973D01*
X63977051Y-77794277D01*
X64257187Y-77850000D01*
X64542813Y-77850000D01*
X64822949Y-77794277D01*
X65086833Y-77684973D01*
X65324321Y-77526289D01*
X65400000Y-77450610D01*
X65475679Y-77526289D01*
X65713167Y-77684973D01*
X65977051Y-77794277D01*
X66257187Y-77850000D01*
X66542813Y-77850000D01*
X66822949Y-77794277D01*
X67086833Y-77684973D01*
X67324321Y-77526289D01*
X67526289Y-77324321D01*
X67684973Y-77086833D01*
X67794277Y-76822949D01*
X67850000Y-76542813D01*
X67850000Y-76257187D01*
X67794277Y-75977051D01*
X67684973Y-75713167D01*
X67526289Y-75475679D01*
X67324321Y-75273711D01*
X67086833Y-75115027D01*
X66822949Y-75005723D01*
X66542813Y-74950000D01*
X66257187Y-74950000D01*
X65977051Y-75005723D01*
X65713167Y-75115027D01*
X65475679Y-75273711D01*
X65400000Y-75349390D01*
X65324321Y-75273711D01*
X65086833Y-75115027D01*
X64822949Y-75005723D01*
X64542813Y-74950000D01*
X64257187Y-74950000D01*
X63977051Y-75005723D01*
X63713167Y-75115027D01*
X63475679Y-75273711D01*
X63273711Y-75475679D01*
X63115027Y-75713167D01*
X63005723Y-75977051D01*
X62950000Y-76257187D01*
X59647523Y-76257187D01*
X59655303Y-76200784D01*
X59640130Y-75945156D01*
X59575377Y-75697400D01*
X59463534Y-75467037D01*
X59407105Y-75382587D01*
X59185652Y-75315055D01*
X58350707Y-76150000D01*
X58349293Y-76150000D01*
X57514348Y-75315055D01*
X57292895Y-75382587D01*
X57163492Y-75603563D01*
X57152342Y-75635756D01*
X57090664Y-75486851D01*
X56975401Y-75314348D01*
X57515055Y-75314348D01*
X58350000Y-76149293D01*
X59184945Y-75314348D01*
X59117413Y-75092895D01*
X58896437Y-74963492D01*
X58654460Y-74879685D01*
X58400784Y-74844697D01*
X58145156Y-74859870D01*
X57897400Y-74924623D01*
X57667037Y-75036466D01*
X57582587Y-75092895D01*
X57515055Y-75314348D01*
X56975401Y-75314348D01*
X56937451Y-75257552D01*
X56742448Y-75062549D01*
X56513149Y-74909336D01*
X56258365Y-74803801D01*
X55987888Y-74750000D01*
X55712112Y-74750000D01*
X55441635Y-74803801D01*
X55186851Y-74909336D01*
X54957552Y-75062549D01*
X54762549Y-75257552D01*
X54609336Y-75486851D01*
X54503801Y-75741635D01*
X54450000Y-76012112D01*
X29445000Y-76012112D01*
X29445000Y-72500000D01*
X34847097Y-72500000D01*
X34847097Y-74500000D01*
X34858682Y-74617621D01*
X34892990Y-74730721D01*
X34948704Y-74834955D01*
X35023683Y-74926317D01*
X35115045Y-75001296D01*
X35219279Y-75057010D01*
X35332379Y-75091318D01*
X35450000Y-75102903D01*
X37450000Y-75102903D01*
X37567621Y-75091318D01*
X37680721Y-75057010D01*
X37784955Y-75001296D01*
X37876317Y-74926317D01*
X37951296Y-74834955D01*
X38007010Y-74730721D01*
X38041318Y-74617621D01*
X38052903Y-74500000D01*
X38052903Y-73600000D01*
X43047097Y-73600000D01*
X43047097Y-75200000D01*
X43058682Y-75317621D01*
X43092990Y-75430721D01*
X43148704Y-75534955D01*
X43223683Y-75626317D01*
X43315045Y-75701296D01*
X43419279Y-75757010D01*
X43532379Y-75791318D01*
X43650000Y-75802903D01*
X45250000Y-75802903D01*
X45367621Y-75791318D01*
X45480721Y-75757010D01*
X45584955Y-75701296D01*
X45676317Y-75626317D01*
X45751296Y-75534955D01*
X45807010Y-75430721D01*
X45841318Y-75317621D01*
X45852903Y-75200000D01*
X45852903Y-75020097D01*
X45881829Y-75079675D01*
X46035720Y-75282809D01*
X46226284Y-75452017D01*
X46446197Y-75580796D01*
X46687008Y-75664198D01*
X46786141Y-75683917D01*
X46989500Y-75575000D01*
X46989500Y-74400500D01*
X46969500Y-74400500D01*
X46969500Y-74399500D01*
X46989500Y-74399500D01*
X46989500Y-73225000D01*
X46990500Y-73225000D01*
X46990500Y-74399500D01*
X47010500Y-74399500D01*
X47010500Y-74400500D01*
X46990500Y-74400500D01*
X46990500Y-75575000D01*
X47193859Y-75683917D01*
X47292992Y-75664198D01*
X47533803Y-75580796D01*
X47753716Y-75452017D01*
X47944280Y-75282809D01*
X48098171Y-75079675D01*
X48205022Y-74859596D01*
X48289336Y-75063149D01*
X48442549Y-75292448D01*
X48637552Y-75487451D01*
X48866851Y-75640664D01*
X49121635Y-75746199D01*
X49392112Y-75800000D01*
X49667888Y-75800000D01*
X49938365Y-75746199D01*
X50193149Y-75640664D01*
X50422448Y-75487451D01*
X50617451Y-75292448D01*
X50770664Y-75063149D01*
X50854978Y-74859596D01*
X50961829Y-75079675D01*
X51115720Y-75282809D01*
X51306284Y-75452017D01*
X51526197Y-75580796D01*
X51767008Y-75664198D01*
X51866141Y-75683917D01*
X52069500Y-75575000D01*
X52069500Y-74400500D01*
X52070500Y-74400500D01*
X52070500Y-75575000D01*
X52273859Y-75683917D01*
X52372992Y-75664198D01*
X52613803Y-75580796D01*
X52833716Y-75452017D01*
X53024280Y-75282809D01*
X53178171Y-75079675D01*
X53289476Y-74850422D01*
X53353917Y-74603859D01*
X53245000Y-74400500D01*
X52070500Y-74400500D01*
X52069500Y-74400500D01*
X52049500Y-74400500D01*
X52049500Y-74399500D01*
X52069500Y-74399500D01*
X52069500Y-73225000D01*
X52070500Y-73225000D01*
X52070500Y-74399500D01*
X53245000Y-74399500D01*
X53353917Y-74196141D01*
X53289476Y-73949578D01*
X53178171Y-73720325D01*
X53024280Y-73517191D01*
X52833716Y-73347983D01*
X52613803Y-73219204D01*
X52372992Y-73135802D01*
X52273859Y-73116083D01*
X52070500Y-73225000D01*
X52069500Y-73225000D01*
X51866141Y-73116083D01*
X51767008Y-73135802D01*
X51526197Y-73219204D01*
X51306284Y-73347983D01*
X51115720Y-73517191D01*
X50961829Y-73720325D01*
X50854978Y-73940404D01*
X50770664Y-73736851D01*
X50617451Y-73507552D01*
X50422448Y-73312549D01*
X50193149Y-73159336D01*
X49938365Y-73053801D01*
X49667888Y-73000000D01*
X49392112Y-73000000D01*
X49121635Y-73053801D01*
X48866851Y-73159336D01*
X48637552Y-73312549D01*
X48442549Y-73507552D01*
X48289336Y-73736851D01*
X48205022Y-73940404D01*
X48098171Y-73720325D01*
X47944280Y-73517191D01*
X47753716Y-73347983D01*
X47533803Y-73219204D01*
X47292992Y-73135802D01*
X47193859Y-73116083D01*
X46990500Y-73225000D01*
X46989500Y-73225000D01*
X46786141Y-73116083D01*
X46687008Y-73135802D01*
X46446197Y-73219204D01*
X46226284Y-73347983D01*
X46035720Y-73517191D01*
X45881829Y-73720325D01*
X45852903Y-73779903D01*
X45852903Y-73600000D01*
X45841318Y-73482379D01*
X45807010Y-73369279D01*
X45751296Y-73265045D01*
X45676317Y-73173683D01*
X45584955Y-73098704D01*
X45480721Y-73042990D01*
X45367621Y-73008682D01*
X45250000Y-72997097D01*
X43650000Y-72997097D01*
X43532379Y-73008682D01*
X43419279Y-73042990D01*
X43315045Y-73098704D01*
X43223683Y-73173683D01*
X43148704Y-73265045D01*
X43092990Y-73369279D01*
X43058682Y-73482379D01*
X43047097Y-73600000D01*
X38052903Y-73600000D01*
X38052903Y-72500000D01*
X38041318Y-72382379D01*
X38007010Y-72269279D01*
X37951296Y-72165045D01*
X37876317Y-72073683D01*
X37784955Y-71998704D01*
X37680721Y-71942990D01*
X37567621Y-71908682D01*
X37450000Y-71897097D01*
X35450000Y-71897097D01*
X35332379Y-71908682D01*
X35219279Y-71942990D01*
X35115045Y-71998704D01*
X35023683Y-72073683D01*
X34948704Y-72165045D01*
X34892990Y-72269279D01*
X34858682Y-72382379D01*
X34847097Y-72500000D01*
X29445000Y-72500000D01*
X29445000Y-71282565D01*
X65580000Y-71282565D01*
X65580000Y-71617435D01*
X65645330Y-71945872D01*
X65773479Y-72255252D01*
X65959523Y-72533687D01*
X66196313Y-72770477D01*
X66474748Y-72956521D01*
X66784128Y-73084670D01*
X67112565Y-73150000D01*
X67447435Y-73150000D01*
X67775872Y-73084670D01*
X68085252Y-72956521D01*
X68363687Y-72770477D01*
X68600477Y-72533687D01*
X68786521Y-72255252D01*
X68914670Y-71945872D01*
X68980000Y-71617435D01*
X68980000Y-71282565D01*
X68914670Y-70954128D01*
X68786521Y-70644748D01*
X68600477Y-70366313D01*
X68363687Y-70129523D01*
X68085252Y-69943479D01*
X67775872Y-69815330D01*
X67447435Y-69750000D01*
X67112565Y-69750000D01*
X66784128Y-69815330D01*
X66474748Y-69943479D01*
X66196313Y-70129523D01*
X65959523Y-70366313D01*
X65773479Y-70644748D01*
X65645330Y-70954128D01*
X65580000Y-71282565D01*
X29445000Y-71282565D01*
X29445000Y-67882565D01*
X30880000Y-67882565D01*
X30880000Y-68217435D01*
X30945330Y-68545872D01*
X31073479Y-68855252D01*
X31259523Y-69133687D01*
X31496313Y-69370477D01*
X31774748Y-69556521D01*
X32084128Y-69684670D01*
X32412565Y-69750000D01*
X32747435Y-69750000D01*
X33075872Y-69684670D01*
X33385252Y-69556521D01*
X33663687Y-69370477D01*
X33900477Y-69133687D01*
X34086521Y-68855252D01*
X34214670Y-68545872D01*
X34280000Y-68217435D01*
X34280000Y-67882565D01*
X34214670Y-67554128D01*
X34086521Y-67244748D01*
X33900477Y-66966313D01*
X33884164Y-66950000D01*
X38497097Y-66950000D01*
X38497097Y-69150000D01*
X38508682Y-69267621D01*
X38542990Y-69380721D01*
X38598704Y-69484955D01*
X38673683Y-69576317D01*
X38765045Y-69651296D01*
X38869279Y-69707010D01*
X38982379Y-69741318D01*
X39100000Y-69752903D01*
X41300000Y-69752903D01*
X41417621Y-69741318D01*
X41530721Y-69707010D01*
X41634955Y-69651296D01*
X41726317Y-69576317D01*
X41801296Y-69484955D01*
X41857010Y-69380721D01*
X41891318Y-69267621D01*
X41902903Y-69150000D01*
X41902903Y-66950000D01*
X41891318Y-66832379D01*
X41857010Y-66719279D01*
X41815764Y-66642112D01*
X43050000Y-66642112D01*
X43050000Y-66917888D01*
X43103801Y-67188365D01*
X43209336Y-67443149D01*
X43362549Y-67672448D01*
X43557552Y-67867451D01*
X43786851Y-68020664D01*
X44041635Y-68126199D01*
X44312112Y-68180000D01*
X44587888Y-68180000D01*
X44858365Y-68126199D01*
X45113149Y-68020664D01*
X45342448Y-67867451D01*
X45537451Y-67672448D01*
X45690664Y-67443149D01*
X45720000Y-67372326D01*
X45749336Y-67443149D01*
X45902549Y-67672448D01*
X46097552Y-67867451D01*
X46326851Y-68020664D01*
X46581635Y-68126199D01*
X46852112Y-68180000D01*
X47127888Y-68180000D01*
X47398365Y-68126199D01*
X47653149Y-68020664D01*
X47882448Y-67867451D01*
X48077451Y-67672448D01*
X48230664Y-67443149D01*
X48260000Y-67372326D01*
X48289336Y-67443149D01*
X48442549Y-67672448D01*
X48637552Y-67867451D01*
X48866851Y-68020664D01*
X49121635Y-68126199D01*
X49392112Y-68180000D01*
X49667888Y-68180000D01*
X49938365Y-68126199D01*
X50193149Y-68020664D01*
X50422448Y-67867451D01*
X50617451Y-67672448D01*
X50770664Y-67443149D01*
X50800000Y-67372326D01*
X50829336Y-67443149D01*
X50982549Y-67672448D01*
X51177552Y-67867451D01*
X51406851Y-68020664D01*
X51661635Y-68126199D01*
X51932112Y-68180000D01*
X52207888Y-68180000D01*
X52478365Y-68126199D01*
X52733149Y-68020664D01*
X52962448Y-67867451D01*
X53157451Y-67672448D01*
X53310664Y-67443149D01*
X53416199Y-67188365D01*
X53470000Y-66917888D01*
X53470000Y-66642112D01*
X53427363Y-66427758D01*
X58872950Y-66427758D01*
X58964460Y-66669691D01*
X59219426Y-66819015D01*
X59498624Y-66915729D01*
X59791325Y-66956116D01*
X60086281Y-66938622D01*
X60372157Y-66863923D01*
X60637967Y-66734887D01*
X60735540Y-66669691D01*
X60827050Y-66427758D01*
X59850000Y-65450707D01*
X58872950Y-66427758D01*
X53427363Y-66427758D01*
X53416199Y-66371635D01*
X53310664Y-66116851D01*
X53157451Y-65887552D01*
X52962448Y-65692549D01*
X52733149Y-65539336D01*
X52478365Y-65433801D01*
X52264823Y-65391325D01*
X58343884Y-65391325D01*
X58361378Y-65686281D01*
X58436077Y-65972157D01*
X58565113Y-66237967D01*
X58630309Y-66335540D01*
X58872242Y-66427050D01*
X59849293Y-65450000D01*
X59850707Y-65450000D01*
X60827758Y-66427050D01*
X61069691Y-66335540D01*
X61219015Y-66080574D01*
X61315729Y-65801376D01*
X61356116Y-65508675D01*
X61338622Y-65213719D01*
X61263923Y-64927843D01*
X61134887Y-64662033D01*
X61069691Y-64564460D01*
X60827758Y-64472950D01*
X59850707Y-65450000D01*
X59849293Y-65450000D01*
X58872242Y-64472950D01*
X58630309Y-64564460D01*
X58480985Y-64819426D01*
X58384271Y-65098624D01*
X58343884Y-65391325D01*
X52264823Y-65391325D01*
X52207888Y-65380000D01*
X51932112Y-65380000D01*
X51661635Y-65433801D01*
X51406851Y-65539336D01*
X51177552Y-65692549D01*
X50982549Y-65887552D01*
X50829336Y-66116851D01*
X50800000Y-66187674D01*
X50770664Y-66116851D01*
X50617451Y-65887552D01*
X50422448Y-65692549D01*
X50193149Y-65539336D01*
X49938365Y-65433801D01*
X49667888Y-65380000D01*
X49392112Y-65380000D01*
X49121635Y-65433801D01*
X48866851Y-65539336D01*
X48637552Y-65692549D01*
X48442549Y-65887552D01*
X48289336Y-66116851D01*
X48260000Y-66187674D01*
X48230664Y-66116851D01*
X48077451Y-65887552D01*
X47882448Y-65692549D01*
X47653149Y-65539336D01*
X47398365Y-65433801D01*
X47127888Y-65380000D01*
X46852112Y-65380000D01*
X46581635Y-65433801D01*
X46326851Y-65539336D01*
X46097552Y-65692549D01*
X45902549Y-65887552D01*
X45749336Y-66116851D01*
X45720000Y-66187674D01*
X45690664Y-66116851D01*
X45537451Y-65887552D01*
X45342448Y-65692549D01*
X45113149Y-65539336D01*
X44858365Y-65433801D01*
X44587888Y-65380000D01*
X44312112Y-65380000D01*
X44041635Y-65433801D01*
X43786851Y-65539336D01*
X43557552Y-65692549D01*
X43362549Y-65887552D01*
X43209336Y-66116851D01*
X43103801Y-66371635D01*
X43050000Y-66642112D01*
X41815764Y-66642112D01*
X41801296Y-66615045D01*
X41726317Y-66523683D01*
X41634955Y-66448704D01*
X41530721Y-66392990D01*
X41417621Y-66358682D01*
X41300000Y-66347097D01*
X39100000Y-66347097D01*
X38982379Y-66358682D01*
X38869279Y-66392990D01*
X38765045Y-66448704D01*
X38673683Y-66523683D01*
X38598704Y-66615045D01*
X38542990Y-66719279D01*
X38508682Y-66832379D01*
X38497097Y-66950000D01*
X33884164Y-66950000D01*
X33663687Y-66729523D01*
X33385252Y-66543479D01*
X33075872Y-66415330D01*
X32747435Y-66350000D01*
X32412565Y-66350000D01*
X32084128Y-66415330D01*
X31774748Y-66543479D01*
X31496313Y-66729523D01*
X31259523Y-66966313D01*
X31073479Y-67244748D01*
X30945330Y-67554128D01*
X30880000Y-67882565D01*
X29445000Y-67882565D01*
X29445000Y-64472242D01*
X58872950Y-64472242D01*
X59850000Y-65449293D01*
X60827050Y-64472242D01*
X60735540Y-64230309D01*
X60480574Y-64080985D01*
X60201376Y-63984271D01*
X59908675Y-63943884D01*
X59613719Y-63961378D01*
X59327843Y-64036077D01*
X59062033Y-64165113D01*
X58964460Y-64230309D01*
X58872950Y-64472242D01*
X29445000Y-64472242D01*
X29445000Y-63451509D01*
X65250000Y-63451509D01*
X65250000Y-63648491D01*
X65288429Y-63841689D01*
X65363811Y-64023678D01*
X65473249Y-64187463D01*
X65612537Y-64326751D01*
X65776322Y-64436189D01*
X65958311Y-64511571D01*
X66151509Y-64550000D01*
X66348491Y-64550000D01*
X66541689Y-64511571D01*
X66723678Y-64436189D01*
X66887463Y-64326751D01*
X66939214Y-64275000D01*
X67249696Y-64275000D01*
X69465001Y-66490306D01*
X69465001Y-66500663D01*
X69297552Y-66612549D01*
X69102549Y-66807552D01*
X69051345Y-66884184D01*
X69041318Y-66782379D01*
X69007010Y-66669279D01*
X68951296Y-66565045D01*
X68876317Y-66473683D01*
X68784955Y-66398704D01*
X68680721Y-66342990D01*
X68567621Y-66308682D01*
X68450000Y-66297097D01*
X66850000Y-66297097D01*
X66732379Y-66308682D01*
X66619279Y-66342990D01*
X66515045Y-66398704D01*
X66423683Y-66473683D01*
X66348704Y-66565045D01*
X66292990Y-66669279D01*
X66258682Y-66782379D01*
X66247097Y-66900000D01*
X66247097Y-68500000D01*
X66258682Y-68617621D01*
X66292990Y-68730721D01*
X66348704Y-68834955D01*
X66423683Y-68926317D01*
X66515045Y-69001296D01*
X66619279Y-69057010D01*
X66732379Y-69091318D01*
X66850000Y-69102903D01*
X68450000Y-69102903D01*
X68567621Y-69091318D01*
X68680721Y-69057010D01*
X68784955Y-69001296D01*
X68876317Y-68926317D01*
X68951296Y-68834955D01*
X69007010Y-68730721D01*
X69041318Y-68617621D01*
X69051345Y-68515816D01*
X69102549Y-68592448D01*
X69297552Y-68787451D01*
X69526851Y-68940664D01*
X69781635Y-69046199D01*
X70052112Y-69100000D01*
X70327888Y-69100000D01*
X70598365Y-69046199D01*
X70853149Y-68940664D01*
X71082448Y-68787451D01*
X71277451Y-68592448D01*
X71430664Y-68363149D01*
X71460000Y-68292326D01*
X71489336Y-68363149D01*
X71642549Y-68592448D01*
X71837552Y-68787451D01*
X72005001Y-68899337D01*
X72005000Y-73994403D01*
X72001494Y-74030000D01*
X72005000Y-74065597D01*
X72005000Y-74065606D01*
X72015491Y-74172124D01*
X72056947Y-74308787D01*
X72124269Y-74434736D01*
X72214868Y-74545131D01*
X72242524Y-74567828D01*
X73500000Y-75825305D01*
X73500000Y-75898491D01*
X73538429Y-76091689D01*
X73613811Y-76273678D01*
X73723249Y-76437463D01*
X73862537Y-76576751D01*
X74026322Y-76686189D01*
X74208311Y-76761571D01*
X74401509Y-76800000D01*
X74598491Y-76800000D01*
X74791689Y-76761571D01*
X74973678Y-76686189D01*
X75137463Y-76576751D01*
X75276751Y-76437463D01*
X75386189Y-76273678D01*
X75461571Y-76091689D01*
X75469863Y-76050000D01*
X81147097Y-76050000D01*
X81147097Y-77550000D01*
X81158682Y-77667621D01*
X81192990Y-77780721D01*
X81248704Y-77884955D01*
X81323683Y-77976317D01*
X81415045Y-78051296D01*
X81519279Y-78107010D01*
X81632379Y-78141318D01*
X81750000Y-78152903D01*
X83250000Y-78152903D01*
X83367621Y-78141318D01*
X83480721Y-78107010D01*
X83584955Y-78051296D01*
X83676317Y-77976317D01*
X83751296Y-77884955D01*
X83807010Y-77780721D01*
X83841318Y-77667621D01*
X83852903Y-77550000D01*
X83852903Y-76050000D01*
X83841318Y-75932379D01*
X83807010Y-75819279D01*
X83751296Y-75715045D01*
X83676317Y-75623683D01*
X83584955Y-75548704D01*
X83480721Y-75492990D01*
X83367621Y-75458682D01*
X83250000Y-75447097D01*
X81750000Y-75447097D01*
X81632379Y-75458682D01*
X81519279Y-75492990D01*
X81415045Y-75548704D01*
X81323683Y-75623683D01*
X81248704Y-75715045D01*
X81192990Y-75819279D01*
X81158682Y-75932379D01*
X81147097Y-76050000D01*
X75469863Y-76050000D01*
X75500000Y-75898491D01*
X75500000Y-75701509D01*
X75461571Y-75508311D01*
X75386189Y-75326322D01*
X75276751Y-75162537D01*
X75137463Y-75023249D01*
X74973678Y-74913811D01*
X74791689Y-74838429D01*
X74598491Y-74800000D01*
X74525305Y-74800000D01*
X73455000Y-73729696D01*
X73455000Y-73276239D01*
X79167500Y-73276239D01*
X79167500Y-73523760D01*
X79189964Y-73751842D01*
X79278738Y-74044489D01*
X79422898Y-74314195D01*
X79616906Y-74550594D01*
X79853304Y-74744602D01*
X80123010Y-74888762D01*
X80415657Y-74977536D01*
X80720000Y-75007511D01*
X81024342Y-74977536D01*
X81316989Y-74888762D01*
X81586695Y-74744602D01*
X81823094Y-74550594D01*
X81990000Y-74347219D01*
X82156906Y-74550594D01*
X82393304Y-74744602D01*
X82663010Y-74888762D01*
X82955657Y-74977536D01*
X83260000Y-75007511D01*
X83564342Y-74977536D01*
X83856989Y-74888762D01*
X84126695Y-74744602D01*
X84285501Y-74614273D01*
X84290490Y-74630721D01*
X84346204Y-74734955D01*
X84421183Y-74826317D01*
X84512545Y-74901296D01*
X84616779Y-74957010D01*
X84729879Y-74991318D01*
X84847500Y-75002903D01*
X86752500Y-75002903D01*
X86870121Y-74991318D01*
X86983221Y-74957010D01*
X87087455Y-74901296D01*
X87178817Y-74826317D01*
X87253796Y-74734955D01*
X87309510Y-74630721D01*
X87343818Y-74517621D01*
X87355403Y-74400000D01*
X87355403Y-72400000D01*
X87343818Y-72282379D01*
X87309510Y-72169279D01*
X87253796Y-72065045D01*
X87178817Y-71973683D01*
X87087455Y-71898704D01*
X86983221Y-71842990D01*
X86870121Y-71808682D01*
X86752500Y-71797097D01*
X84847500Y-71797097D01*
X84729879Y-71808682D01*
X84616779Y-71842990D01*
X84512545Y-71898704D01*
X84421183Y-71973683D01*
X84346204Y-72065045D01*
X84290490Y-72169279D01*
X84285501Y-72185727D01*
X84126696Y-72055398D01*
X83856990Y-71911238D01*
X83564343Y-71822464D01*
X83260000Y-71792489D01*
X82955658Y-71822464D01*
X82663011Y-71911238D01*
X82393305Y-72055398D01*
X82156906Y-72249406D01*
X81990000Y-72452781D01*
X81823094Y-72249406D01*
X81586696Y-72055398D01*
X81316990Y-71911238D01*
X81024343Y-71822464D01*
X80720000Y-71792489D01*
X80415658Y-71822464D01*
X80123011Y-71911238D01*
X79853305Y-72055398D01*
X79616906Y-72249406D01*
X79422898Y-72485804D01*
X79278738Y-72755510D01*
X79189964Y-73048157D01*
X79167500Y-73276239D01*
X73455000Y-73276239D01*
X73455000Y-73043052D01*
X73465045Y-73051296D01*
X73569279Y-73107010D01*
X73682379Y-73141318D01*
X73800000Y-73152903D01*
X76000000Y-73152903D01*
X76117621Y-73141318D01*
X76230721Y-73107010D01*
X76334955Y-73051296D01*
X76426317Y-72976317D01*
X76501296Y-72884955D01*
X76557010Y-72780721D01*
X76591318Y-72667621D01*
X76602903Y-72550000D01*
X76602903Y-70350000D01*
X76591318Y-70232379D01*
X76557010Y-70119279D01*
X76501296Y-70015045D01*
X76426317Y-69923683D01*
X76334955Y-69848704D01*
X76230721Y-69792990D01*
X76117621Y-69758682D01*
X76000000Y-69747097D01*
X73800000Y-69747097D01*
X73682379Y-69758682D01*
X73569279Y-69792990D01*
X73465045Y-69848704D01*
X73455000Y-69856948D01*
X73455000Y-68899336D01*
X73622448Y-68787451D01*
X73817451Y-68592448D01*
X73970664Y-68363149D01*
X74054978Y-68159596D01*
X74161829Y-68379675D01*
X74315720Y-68582809D01*
X74506284Y-68752017D01*
X74726197Y-68880796D01*
X74967008Y-68964198D01*
X75066141Y-68983917D01*
X75269500Y-68875000D01*
X75269500Y-67700500D01*
X75270500Y-67700500D01*
X75270500Y-68875000D01*
X75473859Y-68983917D01*
X75572992Y-68964198D01*
X75813803Y-68880796D01*
X76033716Y-68752017D01*
X76224280Y-68582809D01*
X76378171Y-68379675D01*
X76489476Y-68150422D01*
X76553917Y-67903859D01*
X76445000Y-67700500D01*
X75270500Y-67700500D01*
X75269500Y-67700500D01*
X75249500Y-67700500D01*
X75249500Y-67699500D01*
X75269500Y-67699500D01*
X75269500Y-66525000D01*
X75270500Y-66525000D01*
X75270500Y-67699500D01*
X76445000Y-67699500D01*
X76553917Y-67496141D01*
X76489476Y-67249578D01*
X76378171Y-67020325D01*
X76224280Y-66817191D01*
X76033716Y-66647983D01*
X75813803Y-66519204D01*
X75572992Y-66435802D01*
X75473859Y-66416083D01*
X75270500Y-66525000D01*
X75269500Y-66525000D01*
X75066141Y-66416083D01*
X74967008Y-66435802D01*
X74726197Y-66519204D01*
X74506284Y-66647983D01*
X74315720Y-66817191D01*
X74161829Y-67020325D01*
X74054978Y-67240404D01*
X73970664Y-67036851D01*
X73817451Y-66807552D01*
X73622448Y-66612549D01*
X73393149Y-66459336D01*
X73138365Y-66353801D01*
X72867888Y-66300000D01*
X72592112Y-66300000D01*
X72321635Y-66353801D01*
X72066851Y-66459336D01*
X71837552Y-66612549D01*
X71642549Y-66807552D01*
X71489336Y-67036851D01*
X71460000Y-67107674D01*
X71430664Y-67036851D01*
X71277451Y-66807552D01*
X71082448Y-66612549D01*
X70915000Y-66500664D01*
X70915000Y-66225597D01*
X70918506Y-66190000D01*
X70915000Y-66154403D01*
X70915000Y-66154393D01*
X70904509Y-66047875D01*
X70863053Y-65911212D01*
X70795731Y-65785263D01*
X70705132Y-65674868D01*
X70677477Y-65652172D01*
X68087832Y-63062528D01*
X68065132Y-63034868D01*
X67954737Y-62944269D01*
X67828788Y-62876947D01*
X67692125Y-62835491D01*
X67585607Y-62825000D01*
X67585597Y-62825000D01*
X67550000Y-62821494D01*
X67514403Y-62825000D01*
X66939214Y-62825000D01*
X66887463Y-62773249D01*
X66723678Y-62663811D01*
X66541689Y-62588429D01*
X66348491Y-62550000D01*
X66151509Y-62550000D01*
X65958311Y-62588429D01*
X65776322Y-62663811D01*
X65612537Y-62773249D01*
X65473249Y-62912537D01*
X65363811Y-63076322D01*
X65288429Y-63258311D01*
X65250000Y-63451509D01*
X29445000Y-63451509D01*
X29445000Y-60812866D01*
X31450000Y-60812866D01*
X31450000Y-61187134D01*
X31523016Y-61554209D01*
X31666242Y-61899987D01*
X31874174Y-62211179D01*
X32138821Y-62475826D01*
X32450013Y-62683758D01*
X32795791Y-62826984D01*
X33162866Y-62900000D01*
X33537134Y-62900000D01*
X33904209Y-62826984D01*
X34249987Y-62683758D01*
X34561179Y-62475826D01*
X34825826Y-62211179D01*
X35033758Y-61899987D01*
X35176984Y-61554209D01*
X35250000Y-61187134D01*
X35250000Y-60812866D01*
X36450000Y-60812866D01*
X36450000Y-61187134D01*
X36523016Y-61554209D01*
X36666242Y-61899987D01*
X36874174Y-62211179D01*
X37138821Y-62475826D01*
X37450013Y-62683758D01*
X37795791Y-62826984D01*
X38162866Y-62900000D01*
X38537134Y-62900000D01*
X38904209Y-62826984D01*
X39249987Y-62683758D01*
X39561179Y-62475826D01*
X39825826Y-62211179D01*
X40033758Y-61899987D01*
X40176984Y-61554209D01*
X40250000Y-61187134D01*
X40250000Y-60812866D01*
X40176984Y-60445791D01*
X40142324Y-60362112D01*
X41350000Y-60362112D01*
X41350000Y-60637888D01*
X41403801Y-60908365D01*
X41509336Y-61163149D01*
X41662549Y-61392448D01*
X41857552Y-61587451D01*
X42086851Y-61740664D01*
X42341635Y-61846199D01*
X42612112Y-61900000D01*
X42887888Y-61900000D01*
X43158365Y-61846199D01*
X43413149Y-61740664D01*
X43642448Y-61587451D01*
X43837451Y-61392448D01*
X43990664Y-61163149D01*
X44096199Y-60908365D01*
X44150000Y-60637888D01*
X44150000Y-60362112D01*
X51510000Y-60362112D01*
X51510000Y-60637888D01*
X51563801Y-60908365D01*
X51669336Y-61163149D01*
X51822549Y-61392448D01*
X52017552Y-61587451D01*
X52246851Y-61740664D01*
X52501635Y-61846199D01*
X52772112Y-61900000D01*
X53047888Y-61900000D01*
X53318365Y-61846199D01*
X53573149Y-61740664D01*
X53802448Y-61587451D01*
X53997451Y-61392448D01*
X54150664Y-61163149D01*
X54256199Y-60908365D01*
X54310000Y-60637888D01*
X54310000Y-60362112D01*
X54256199Y-60091635D01*
X54150664Y-59836851D01*
X53997451Y-59607552D01*
X53839899Y-59450000D01*
X58247097Y-59450000D01*
X58247097Y-61450000D01*
X58258682Y-61567621D01*
X58292990Y-61680721D01*
X58348704Y-61784955D01*
X58423683Y-61876317D01*
X58515045Y-61951296D01*
X58619279Y-62007010D01*
X58732379Y-62041318D01*
X58850000Y-62052903D01*
X60850000Y-62052903D01*
X60967621Y-62041318D01*
X61080721Y-62007010D01*
X61184955Y-61951296D01*
X61276317Y-61876317D01*
X61351296Y-61784955D01*
X61407010Y-61680721D01*
X61441318Y-61567621D01*
X61452903Y-61450000D01*
X61452903Y-59942112D01*
X66250000Y-59942112D01*
X66250000Y-60217888D01*
X66303801Y-60488365D01*
X66409336Y-60743149D01*
X66562549Y-60972448D01*
X66757552Y-61167451D01*
X66986851Y-61320664D01*
X67241635Y-61426199D01*
X67512112Y-61480000D01*
X67787888Y-61480000D01*
X68058365Y-61426199D01*
X68313149Y-61320664D01*
X68542448Y-61167451D01*
X68737451Y-60972448D01*
X68890664Y-60743149D01*
X68920000Y-60672326D01*
X68949336Y-60743149D01*
X69102549Y-60972448D01*
X69297552Y-61167451D01*
X69526851Y-61320664D01*
X69781635Y-61426199D01*
X70052112Y-61480000D01*
X70327888Y-61480000D01*
X70598365Y-61426199D01*
X70853149Y-61320664D01*
X71082448Y-61167451D01*
X71277451Y-60972448D01*
X71430664Y-60743149D01*
X71460000Y-60672326D01*
X71489336Y-60743149D01*
X71642549Y-60972448D01*
X71837552Y-61167451D01*
X72066851Y-61320664D01*
X72321635Y-61426199D01*
X72592112Y-61480000D01*
X72867888Y-61480000D01*
X73138365Y-61426199D01*
X73393149Y-61320664D01*
X73622448Y-61167451D01*
X73817451Y-60972448D01*
X73970664Y-60743149D01*
X74000000Y-60672326D01*
X74029336Y-60743149D01*
X74182549Y-60972448D01*
X74377552Y-61167451D01*
X74606851Y-61320664D01*
X74861635Y-61426199D01*
X75132112Y-61480000D01*
X75407888Y-61480000D01*
X75678365Y-61426199D01*
X75933149Y-61320664D01*
X76162448Y-61167451D01*
X76357451Y-60972448D01*
X76510664Y-60743149D01*
X76616199Y-60488365D01*
X76670000Y-60217888D01*
X76670000Y-59942112D01*
X76616199Y-59671635D01*
X76510664Y-59416851D01*
X76357451Y-59187552D01*
X76162448Y-58992549D01*
X75933149Y-58839336D01*
X75678365Y-58733801D01*
X75407888Y-58680000D01*
X75132112Y-58680000D01*
X74861635Y-58733801D01*
X74606851Y-58839336D01*
X74377552Y-58992549D01*
X74182549Y-59187552D01*
X74029336Y-59416851D01*
X74000000Y-59487674D01*
X73970664Y-59416851D01*
X73817451Y-59187552D01*
X73622448Y-58992549D01*
X73393149Y-58839336D01*
X73184481Y-58752903D01*
X74350000Y-58752903D01*
X74467621Y-58741318D01*
X74580721Y-58707010D01*
X74684955Y-58651296D01*
X74776317Y-58576317D01*
X74851296Y-58484955D01*
X74907010Y-58380721D01*
X74941318Y-58267621D01*
X74952903Y-58150000D01*
X74952903Y-56650000D01*
X75247097Y-56650000D01*
X75247097Y-58150000D01*
X75258682Y-58267621D01*
X75292990Y-58380721D01*
X75348704Y-58484955D01*
X75423683Y-58576317D01*
X75515045Y-58651296D01*
X75619279Y-58707010D01*
X75732379Y-58741318D01*
X75850000Y-58752903D01*
X77350000Y-58752903D01*
X77467621Y-58741318D01*
X77580721Y-58707010D01*
X77684955Y-58651296D01*
X77776317Y-58576317D01*
X77851296Y-58484955D01*
X77907010Y-58380721D01*
X77941318Y-58267621D01*
X77952903Y-58150000D01*
X77952903Y-56650000D01*
X77941318Y-56532379D01*
X77934089Y-56508545D01*
X80910000Y-56508545D01*
X80910000Y-56971455D01*
X81000309Y-57425470D01*
X81177457Y-57853143D01*
X81434636Y-58238038D01*
X81761962Y-58565364D01*
X82146857Y-58822543D01*
X82574530Y-58999691D01*
X83028545Y-59090000D01*
X83491455Y-59090000D01*
X83945470Y-58999691D01*
X84373143Y-58822543D01*
X84758038Y-58565364D01*
X85085364Y-58238038D01*
X85342543Y-57853143D01*
X85519691Y-57425470D01*
X85610000Y-56971455D01*
X85610000Y-56508545D01*
X85519691Y-56054530D01*
X85342543Y-55626857D01*
X85085364Y-55241962D01*
X84758038Y-54914636D01*
X84373143Y-54657457D01*
X83945470Y-54480309D01*
X83491455Y-54390000D01*
X83028545Y-54390000D01*
X82574530Y-54480309D01*
X82146857Y-54657457D01*
X81761962Y-54914636D01*
X81434636Y-55241962D01*
X81177457Y-55626857D01*
X81000309Y-56054530D01*
X80910000Y-56508545D01*
X77934089Y-56508545D01*
X77907010Y-56419279D01*
X77851296Y-56315045D01*
X77776317Y-56223683D01*
X77684955Y-56148704D01*
X77580721Y-56092990D01*
X77467621Y-56058682D01*
X77350000Y-56047097D01*
X75850000Y-56047097D01*
X75732379Y-56058682D01*
X75619279Y-56092990D01*
X75515045Y-56148704D01*
X75423683Y-56223683D01*
X75348704Y-56315045D01*
X75292990Y-56419279D01*
X75258682Y-56532379D01*
X75247097Y-56650000D01*
X74952903Y-56650000D01*
X74941318Y-56532379D01*
X74907010Y-56419279D01*
X74851296Y-56315045D01*
X74776317Y-56223683D01*
X74684955Y-56148704D01*
X74580721Y-56092990D01*
X74467621Y-56058682D01*
X74350000Y-56047097D01*
X72850000Y-56047097D01*
X72732379Y-56058682D01*
X72619279Y-56092990D01*
X72515045Y-56148704D01*
X72423683Y-56223683D01*
X72348704Y-56315045D01*
X72292990Y-56419279D01*
X72258682Y-56532379D01*
X72247097Y-56650000D01*
X72247097Y-58150000D01*
X72258682Y-58267621D01*
X72292990Y-58380721D01*
X72348704Y-58484955D01*
X72423683Y-58576317D01*
X72515045Y-58651296D01*
X72575084Y-58683387D01*
X72321635Y-58733801D01*
X72066851Y-58839336D01*
X71837552Y-58992549D01*
X71642549Y-59187552D01*
X71489336Y-59416851D01*
X71460000Y-59487674D01*
X71430664Y-59416851D01*
X71277451Y-59187552D01*
X71082448Y-58992549D01*
X70853149Y-58839336D01*
X70598365Y-58733801D01*
X70327888Y-58680000D01*
X70052112Y-58680000D01*
X69781635Y-58733801D01*
X69526851Y-58839336D01*
X69297552Y-58992549D01*
X69102549Y-59187552D01*
X68949336Y-59416851D01*
X68920000Y-59487674D01*
X68890664Y-59416851D01*
X68737451Y-59187552D01*
X68542448Y-58992549D01*
X68313149Y-58839336D01*
X68058365Y-58733801D01*
X67787888Y-58680000D01*
X67512112Y-58680000D01*
X67241635Y-58733801D01*
X66986851Y-58839336D01*
X66757552Y-58992549D01*
X66562549Y-59187552D01*
X66409336Y-59416851D01*
X66303801Y-59671635D01*
X66250000Y-59942112D01*
X61452903Y-59942112D01*
X61452903Y-59450000D01*
X61441318Y-59332379D01*
X61407010Y-59219279D01*
X61351296Y-59115045D01*
X61276317Y-59023683D01*
X61184955Y-58948704D01*
X61080721Y-58892990D01*
X60967621Y-58858682D01*
X60850000Y-58847097D01*
X58850000Y-58847097D01*
X58732379Y-58858682D01*
X58619279Y-58892990D01*
X58515045Y-58948704D01*
X58423683Y-59023683D01*
X58348704Y-59115045D01*
X58292990Y-59219279D01*
X58258682Y-59332379D01*
X58247097Y-59450000D01*
X53839899Y-59450000D01*
X53802448Y-59412549D01*
X53573149Y-59259336D01*
X53318365Y-59153801D01*
X53047888Y-59100000D01*
X52772112Y-59100000D01*
X52501635Y-59153801D01*
X52246851Y-59259336D01*
X52017552Y-59412549D01*
X51822549Y-59607552D01*
X51669336Y-59836851D01*
X51563801Y-60091635D01*
X51510000Y-60362112D01*
X44150000Y-60362112D01*
X44096199Y-60091635D01*
X43990664Y-59836851D01*
X43837451Y-59607552D01*
X43642448Y-59412549D01*
X43413149Y-59259336D01*
X43158365Y-59153801D01*
X42887888Y-59100000D01*
X42612112Y-59100000D01*
X42341635Y-59153801D01*
X42086851Y-59259336D01*
X41857552Y-59412549D01*
X41662549Y-59607552D01*
X41509336Y-59836851D01*
X41403801Y-60091635D01*
X41350000Y-60362112D01*
X40142324Y-60362112D01*
X40033758Y-60100013D01*
X39825826Y-59788821D01*
X39561179Y-59524174D01*
X39249987Y-59316242D01*
X38904209Y-59173016D01*
X38537134Y-59100000D01*
X38162866Y-59100000D01*
X37795791Y-59173016D01*
X37450013Y-59316242D01*
X37138821Y-59524174D01*
X36874174Y-59788821D01*
X36666242Y-60100013D01*
X36523016Y-60445791D01*
X36450000Y-60812866D01*
X35250000Y-60812866D01*
X35176984Y-60445791D01*
X35033758Y-60100013D01*
X34825826Y-59788821D01*
X34561179Y-59524174D01*
X34249987Y-59316242D01*
X33904209Y-59173016D01*
X33537134Y-59100000D01*
X33162866Y-59100000D01*
X32795791Y-59173016D01*
X32450013Y-59316242D01*
X32138821Y-59524174D01*
X31874174Y-59788821D01*
X31666242Y-60100013D01*
X31523016Y-60445791D01*
X31450000Y-60812866D01*
X29445000Y-60812866D01*
X29445000Y-55133319D01*
X46895000Y-55133319D01*
X46895000Y-55566681D01*
X46979545Y-55991716D01*
X47145385Y-56392091D01*
X47386148Y-56752418D01*
X47692582Y-57058852D01*
X48052909Y-57299615D01*
X48453284Y-57465455D01*
X48878319Y-57550000D01*
X49311681Y-57550000D01*
X49736716Y-57465455D01*
X50137091Y-57299615D01*
X50497418Y-57058852D01*
X50803852Y-56752418D01*
X51044615Y-56392091D01*
X51062049Y-56350000D01*
X52747097Y-56350000D01*
X52747097Y-57850000D01*
X52758682Y-57967621D01*
X52792990Y-58080721D01*
X52848704Y-58184955D01*
X52923683Y-58276317D01*
X53015045Y-58351296D01*
X53119279Y-58407010D01*
X53232379Y-58441318D01*
X53350000Y-58452903D01*
X54850000Y-58452903D01*
X54967621Y-58441318D01*
X55080721Y-58407010D01*
X55184955Y-58351296D01*
X55276317Y-58276317D01*
X55351296Y-58184955D01*
X55407010Y-58080721D01*
X55441318Y-57967621D01*
X55452903Y-57850000D01*
X55452903Y-57350000D01*
X63497097Y-57350000D01*
X63497097Y-58850000D01*
X63508682Y-58967621D01*
X63542990Y-59080721D01*
X63598704Y-59184955D01*
X63673683Y-59276317D01*
X63765045Y-59351296D01*
X63869279Y-59407010D01*
X63982379Y-59441318D01*
X64100000Y-59452903D01*
X65600000Y-59452903D01*
X65717621Y-59441318D01*
X65830721Y-59407010D01*
X65934955Y-59351296D01*
X66026317Y-59276317D01*
X66101296Y-59184955D01*
X66157010Y-59080721D01*
X66191318Y-58967621D01*
X66202903Y-58850000D01*
X66202903Y-57350000D01*
X66191318Y-57232379D01*
X66157010Y-57119279D01*
X66101296Y-57015045D01*
X66026317Y-56923683D01*
X65934955Y-56848704D01*
X65830721Y-56792990D01*
X65717621Y-56758682D01*
X65600000Y-56747097D01*
X64100000Y-56747097D01*
X63982379Y-56758682D01*
X63869279Y-56792990D01*
X63765045Y-56848704D01*
X63673683Y-56923683D01*
X63598704Y-57015045D01*
X63542990Y-57119279D01*
X63508682Y-57232379D01*
X63497097Y-57350000D01*
X55452903Y-57350000D01*
X55452903Y-56350000D01*
X55441318Y-56232379D01*
X55407010Y-56119279D01*
X55351296Y-56015045D01*
X55276317Y-55923683D01*
X55184955Y-55848704D01*
X55080721Y-55792990D01*
X54967621Y-55758682D01*
X54850000Y-55747097D01*
X53350000Y-55747097D01*
X53232379Y-55758682D01*
X53119279Y-55792990D01*
X53015045Y-55848704D01*
X52923683Y-55923683D01*
X52848704Y-56015045D01*
X52792990Y-56119279D01*
X52758682Y-56232379D01*
X52747097Y-56350000D01*
X51062049Y-56350000D01*
X51210455Y-55991716D01*
X51295000Y-55566681D01*
X51295000Y-55133319D01*
X67395000Y-55133319D01*
X67395000Y-55566681D01*
X67479545Y-55991716D01*
X67645385Y-56392091D01*
X67886148Y-56752418D01*
X68192582Y-57058852D01*
X68552909Y-57299615D01*
X68953284Y-57465455D01*
X69378319Y-57550000D01*
X69811681Y-57550000D01*
X70236716Y-57465455D01*
X70637091Y-57299615D01*
X70997418Y-57058852D01*
X71303852Y-56752418D01*
X71544615Y-56392091D01*
X71710455Y-55991716D01*
X71795000Y-55566681D01*
X71795000Y-55133319D01*
X71710455Y-54708284D01*
X71544615Y-54307909D01*
X71303852Y-53947582D01*
X70997418Y-53641148D01*
X70637091Y-53400385D01*
X70236716Y-53234545D01*
X69811681Y-53150000D01*
X69378319Y-53150000D01*
X68953284Y-53234545D01*
X68552909Y-53400385D01*
X68192582Y-53641148D01*
X67886148Y-53947582D01*
X67645385Y-54307909D01*
X67479545Y-54708284D01*
X67395000Y-55133319D01*
X51295000Y-55133319D01*
X51210455Y-54708284D01*
X51044615Y-54307909D01*
X50803852Y-53947582D01*
X50497418Y-53641148D01*
X50137091Y-53400385D01*
X49736716Y-53234545D01*
X49311681Y-53150000D01*
X48878319Y-53150000D01*
X48453284Y-53234545D01*
X48052909Y-53400385D01*
X47692582Y-53641148D01*
X47386148Y-53947582D01*
X47145385Y-54307909D01*
X46979545Y-54708284D01*
X46895000Y-55133319D01*
X29445000Y-55133319D01*
X29445000Y-52926509D01*
X38200000Y-52926509D01*
X38200000Y-53123491D01*
X38238429Y-53316689D01*
X38313811Y-53498678D01*
X38423249Y-53662463D01*
X38562537Y-53801751D01*
X38726322Y-53911189D01*
X38908311Y-53986571D01*
X39101509Y-54025000D01*
X39298491Y-54025000D01*
X39491689Y-53986571D01*
X39673678Y-53911189D01*
X39837463Y-53801751D01*
X39976751Y-53662463D01*
X40086189Y-53498678D01*
X40161571Y-53316689D01*
X40200000Y-53123491D01*
X40200000Y-52926509D01*
X40161571Y-52733311D01*
X40086189Y-52551322D01*
X39976751Y-52387537D01*
X39957259Y-52368045D01*
X40325305Y-52000000D01*
X40398491Y-52000000D01*
X40591689Y-51961571D01*
X40773678Y-51886189D01*
X40937463Y-51776751D01*
X41076751Y-51637463D01*
X41186189Y-51473678D01*
X41261571Y-51291689D01*
X41300000Y-51098491D01*
X41300000Y-50937749D01*
X44074000Y-50937749D01*
X44074000Y-51134731D01*
X44112429Y-51327929D01*
X44187811Y-51509918D01*
X44274001Y-51638910D01*
X44274000Y-52497331D01*
X44187811Y-52626322D01*
X44112429Y-52808311D01*
X44074000Y-53001509D01*
X44074000Y-53198491D01*
X44112429Y-53391689D01*
X44187811Y-53573678D01*
X44297249Y-53737463D01*
X44436537Y-53876751D01*
X44600322Y-53986189D01*
X44782311Y-54061571D01*
X44975509Y-54100000D01*
X45172491Y-54100000D01*
X45365689Y-54061571D01*
X45547678Y-53986189D01*
X45711463Y-53876751D01*
X45850751Y-53737463D01*
X45960189Y-53573678D01*
X46035571Y-53391689D01*
X46074000Y-53198491D01*
X46074000Y-53001509D01*
X46035571Y-52808311D01*
X45960189Y-52626322D01*
X45874000Y-52497331D01*
X45874000Y-51638909D01*
X45960189Y-51509918D01*
X46035571Y-51327929D01*
X46074000Y-51134731D01*
X46074000Y-50937749D01*
X46035571Y-50744551D01*
X45960189Y-50562562D01*
X45850751Y-50398777D01*
X45711463Y-50259489D01*
X45547678Y-50150051D01*
X45365689Y-50074669D01*
X45172491Y-50036240D01*
X44975509Y-50036240D01*
X44782311Y-50074669D01*
X44600322Y-50150051D01*
X44436537Y-50259489D01*
X44297249Y-50398777D01*
X44187811Y-50562562D01*
X44112429Y-50744551D01*
X44074000Y-50937749D01*
X41300000Y-50937749D01*
X41300000Y-50901509D01*
X41261571Y-50708311D01*
X41186189Y-50526322D01*
X41076751Y-50362537D01*
X40937463Y-50223249D01*
X40773678Y-50113811D01*
X40591689Y-50038429D01*
X40398491Y-50000000D01*
X40201509Y-50000000D01*
X40008311Y-50038429D01*
X39826322Y-50113811D01*
X39662537Y-50223249D01*
X39523249Y-50362537D01*
X39413811Y-50526322D01*
X39338429Y-50708311D01*
X39300000Y-50901509D01*
X39300000Y-50974695D01*
X38712524Y-51562172D01*
X38684868Y-51584869D01*
X38594269Y-51695264D01*
X38526947Y-51821213D01*
X38485491Y-51957876D01*
X38475000Y-52064394D01*
X38475000Y-52064403D01*
X38471494Y-52100000D01*
X38475000Y-52135598D01*
X38475000Y-52335786D01*
X38423249Y-52387537D01*
X38313811Y-52551322D01*
X38238429Y-52733311D01*
X38200000Y-52926509D01*
X29445000Y-52926509D01*
X29445000Y-44696584D01*
X82370000Y-44696584D01*
X82370000Y-44903416D01*
X82410350Y-45106274D01*
X82489502Y-45297362D01*
X82604411Y-45469336D01*
X82750664Y-45615589D01*
X82922638Y-45730498D01*
X83113726Y-45809650D01*
X83316584Y-45850000D01*
X83523416Y-45850000D01*
X83726274Y-45809650D01*
X83917362Y-45730498D01*
X84089336Y-45615589D01*
X84235589Y-45469336D01*
X84350498Y-45297362D01*
X84429650Y-45106274D01*
X84470000Y-44903416D01*
X84470000Y-44696584D01*
X84429650Y-44493726D01*
X84350498Y-44302638D01*
X84235589Y-44130664D01*
X84089336Y-43984411D01*
X83917362Y-43869502D01*
X83726274Y-43790350D01*
X83523416Y-43750000D01*
X83316584Y-43750000D01*
X83113726Y-43790350D01*
X82922638Y-43869502D01*
X82750664Y-43984411D01*
X82604411Y-44130664D01*
X82489502Y-44302638D01*
X82410350Y-44493726D01*
X82370000Y-44696584D01*
X29445000Y-44696584D01*
X29445000Y-40296584D01*
X82370000Y-40296584D01*
X82370000Y-40503416D01*
X82410350Y-40706274D01*
X82489502Y-40897362D01*
X82604411Y-41069336D01*
X82750664Y-41215589D01*
X82922638Y-41330498D01*
X83113726Y-41409650D01*
X83316584Y-41450000D01*
X83523416Y-41450000D01*
X83726274Y-41409650D01*
X83917362Y-41330498D01*
X84089336Y-41215589D01*
X84235589Y-41069336D01*
X84350498Y-40897362D01*
X84429650Y-40706274D01*
X84470000Y-40503416D01*
X84470000Y-40296584D01*
X84429650Y-40093726D01*
X84350498Y-39902638D01*
X84235589Y-39730664D01*
X84089336Y-39584411D01*
X83917362Y-39469502D01*
X83726274Y-39390350D01*
X83523416Y-39350000D01*
X83316584Y-39350000D01*
X83113726Y-39390350D01*
X82922638Y-39469502D01*
X82750664Y-39584411D01*
X82604411Y-39730664D01*
X82489502Y-39902638D01*
X82410350Y-40093726D01*
X82370000Y-40296584D01*
X29445000Y-40296584D01*
X29445000Y-37604000D01*
X32683097Y-37604000D01*
X32683097Y-39104000D01*
X32694682Y-39221621D01*
X32728990Y-39334721D01*
X32784704Y-39438955D01*
X32859683Y-39530317D01*
X32951045Y-39605296D01*
X33055279Y-39661010D01*
X33168379Y-39695318D01*
X33286000Y-39706903D01*
X34786000Y-39706903D01*
X34903621Y-39695318D01*
X35016721Y-39661010D01*
X35120955Y-39605296D01*
X35212317Y-39530317D01*
X35287296Y-39438955D01*
X35343010Y-39334721D01*
X35377318Y-39221621D01*
X35388903Y-39104000D01*
X35388903Y-37604000D01*
X35377318Y-37486379D01*
X35343010Y-37373279D01*
X35287296Y-37269045D01*
X35212317Y-37177683D01*
X35120955Y-37102704D01*
X35016721Y-37046990D01*
X34903621Y-37012682D01*
X34786000Y-37001097D01*
X33286000Y-37001097D01*
X33168379Y-37012682D01*
X33055279Y-37046990D01*
X32951045Y-37102704D01*
X32859683Y-37177683D01*
X32784704Y-37269045D01*
X32728990Y-37373279D01*
X32694682Y-37486379D01*
X32683097Y-37604000D01*
X29445000Y-37604000D01*
X29445000Y-35225000D01*
X44322097Y-35225000D01*
X44322097Y-36725000D01*
X44333682Y-36842621D01*
X44367990Y-36955721D01*
X44423704Y-37059955D01*
X44498683Y-37151317D01*
X44590045Y-37226296D01*
X44694279Y-37282010D01*
X44807379Y-37316318D01*
X44925000Y-37327903D01*
X46425000Y-37327903D01*
X46542621Y-37316318D01*
X46655721Y-37282010D01*
X46759955Y-37226296D01*
X46851317Y-37151317D01*
X46926296Y-37059955D01*
X46982010Y-36955721D01*
X47016318Y-36842621D01*
X47027903Y-36725000D01*
X47027903Y-35225000D01*
X47016318Y-35107379D01*
X46982010Y-34994279D01*
X46926296Y-34890045D01*
X46851317Y-34798683D01*
X46759955Y-34723704D01*
X46655721Y-34667990D01*
X46542621Y-34633682D01*
X46425000Y-34622097D01*
X44925000Y-34622097D01*
X44807379Y-34633682D01*
X44694279Y-34667990D01*
X44590045Y-34723704D01*
X44498683Y-34798683D01*
X44423704Y-34890045D01*
X44367990Y-34994279D01*
X44333682Y-35107379D01*
X44322097Y-35225000D01*
X29445000Y-35225000D01*
X29445000Y-31580567D01*
X29469243Y-31333319D01*
X30070000Y-31333319D01*
X30070000Y-31766681D01*
X30154545Y-32191716D01*
X30320385Y-32592091D01*
X30561148Y-32952418D01*
X30867582Y-33258852D01*
X31227909Y-33499615D01*
X31628284Y-33665455D01*
X32053319Y-33750000D01*
X32486681Y-33750000D01*
X32911716Y-33665455D01*
X33312091Y-33499615D01*
X33672418Y-33258852D01*
X33978852Y-32952418D01*
X34219615Y-32592091D01*
X34385455Y-32191716D01*
X34470000Y-31766681D01*
X34470000Y-31333319D01*
X34385455Y-30908284D01*
X34219615Y-30507909D01*
X33978852Y-30147582D01*
X33672418Y-29841148D01*
X33312091Y-29600385D01*
X32911716Y-29434545D01*
X32486681Y-29350000D01*
X32053319Y-29350000D01*
X31628284Y-29434545D01*
X31227909Y-29600385D01*
X30867582Y-29841148D01*
X30561148Y-30147582D01*
X30320385Y-30507909D01*
X30154545Y-30908284D01*
X30070000Y-31333319D01*
X29469243Y-31333319D01*
X29501742Y-31001872D01*
X29660929Y-30474617D01*
X29919495Y-29988326D01*
X30267592Y-29561517D01*
X30691954Y-29210455D01*
X31176431Y-28948499D01*
X31702559Y-28785635D01*
X32279466Y-28725000D01*
X40499695Y-28725000D01*
X37962523Y-31262173D01*
M02*
