M48
; DRILL file {KiCad (5.1.5-0-10_14)} date Friday, January 24, 2020 at 10:00:28 AM
; FORMAT={2:4/ absolute / inch / suppress leading zeros}
; #@! TF.CreationDate,2020-01-24T10:00:28-08:00
; #@! TF.GenerationSoftware,Kicad,Pcbnew,(5.1.5-0-10_14)
FMAT,2
INCH,TZ
T1C0.0157
T2C0.0197
T3C0.0217
T4C0.0276
T5C0.0300
T6C0.0315
T7C0.0394
T8C0.0433
T9C0.0512
T10C0.1575
T11C0.0354
T12C0.1260
T13C0.1378
%
G90
G05
T1
X12142Y-17529
X13354Y-16200
X16800Y-16500
X16988Y-19075
X18000Y-15200
X18600Y-16500
X18858Y-18425
X19202Y-14602
X19990Y-19665
X21850Y-19685
X21850Y-20945
X22795Y-15709
X23150Y-28622
X23187Y-14300
X24256Y-17217
X24496Y-15957
X24646Y-20807
X25800Y-17900
X25827Y-16169
X26083Y-25020
X26496Y-15236
X27953Y-30748
X28189Y-19094
X28661Y-20945
X28740Y-14646
X28858Y-29921
X29016Y-15315
X29370Y-31024
X29520Y-13543
X30118Y-31890
X30354Y-27323
X30591Y-20945
X30677Y-27091
X30679Y-29921
X30827Y-13583
X31457Y-20394
X33256Y-15311
T4
X28976Y-22598
X33898Y-32087
X31929Y-32087
X13400Y-15100
X30039Y-22598
X17982Y-14163
X25531Y-22874
X21299Y-22480
T5
X21864Y-12539
X22864Y-12539
X23864Y-12539
X24864Y-12539
T6
X16358Y-23819
X20358Y-23819
X26634Y-23654
X26634Y-26654
X27634Y-23654
X27634Y-26654
X28634Y-23654
X28634Y-26654
X29634Y-23654
X29634Y-26654
X16693Y-30748
X17677Y-30748
X16929Y-26291
X16929Y-29291
X17929Y-26291
X17929Y-29291
X18929Y-26291
X18929Y-29291
X19929Y-26291
X19929Y-29291
X24724Y-29370
X24724Y-30354
X22047Y-29370
X22047Y-30354
T7
X22902Y-31890
X23902Y-31890
X15472Y-32756
X16260Y-32756
X13858Y-28898
X13858Y-30866
X23091Y-23799
X23091Y-25768
X15138Y-12953
X16138Y-12953
X17138Y-12953
T8
X26606Y-28130
X29606Y-28130
X31780Y-30197
X32780Y-30197
X33780Y-30197
X12402Y-26732
X15402Y-26732
T9
X12657Y-23819
X14626Y-23819
T10
X19640Y-33520
X27140Y-33520
T11
X32843Y-15906
X32843Y-17638
T12
X33906Y-34626
X12705Y-12421
X33906Y-12417
X12705Y-34626
X19329Y-12736
X19329Y-21791
X27400Y-12736
X27400Y-21791
T13
X32780Y-23638
T2
G00X29075Y-11764
M15
G01X29075Y-11504
M16
G05
G00X31831Y-11762
M15
G01X31831Y-11506
M16
G05
T3
G00X29528Y-12697
M15
G01X29409Y-12697
M16
G05
G00X31496Y-12697
M15
G01X31378Y-12697
M16
G05
T0
M30
