G04 #@! TF.GenerationSoftware,KiCad,Pcbnew,(5.1.5-0-10_14)*
G04 #@! TF.CreationDate,2020-01-24T10:00:26-08:00*
G04 #@! TF.ProjectId,powersupply,706f7765-7273-4757-9070-6c792e6b6963,rev?*
G04 #@! TF.SameCoordinates,Original*
G04 #@! TF.FileFunction,Soldermask,Bot*
G04 #@! TF.FilePolarity,Negative*
%FSLAX46Y46*%
G04 Gerber Fmt 4.6, Leading zero omitted, Abs format (unit mm)*
G04 Created by KiCad (PCBNEW (5.1.5-0-10_14)) date 2020-01-24 10:00:26*
%MOMM*%
%LPD*%
G04 APERTURE LIST*
%ADD10C,0.100000*%
G04 APERTURE END LIST*
D10*
G36*
X86495256Y-86341298D02*
G01*
X86601579Y-86362447D01*
X86902042Y-86486903D01*
X87172451Y-86667585D01*
X87402415Y-86897549D01*
X87583097Y-87167958D01*
X87707553Y-87468421D01*
X87771000Y-87787391D01*
X87771000Y-88112609D01*
X87707553Y-88431579D01*
X87583097Y-88732042D01*
X87402415Y-89002451D01*
X87172451Y-89232415D01*
X86902042Y-89413097D01*
X86601579Y-89537553D01*
X86495256Y-89558702D01*
X86282611Y-89601000D01*
X85957389Y-89601000D01*
X85744744Y-89558702D01*
X85638421Y-89537553D01*
X85337958Y-89413097D01*
X85067549Y-89232415D01*
X84837585Y-89002451D01*
X84656903Y-88732042D01*
X84532447Y-88431579D01*
X84469000Y-88112609D01*
X84469000Y-87787391D01*
X84532447Y-87468421D01*
X84656903Y-87167958D01*
X84837585Y-86897549D01*
X85067549Y-86667585D01*
X85337958Y-86486903D01*
X85638421Y-86362447D01*
X85744744Y-86341298D01*
X85957389Y-86299000D01*
X86282611Y-86299000D01*
X86495256Y-86341298D01*
G37*
G36*
X32645256Y-86341298D02*
G01*
X32751579Y-86362447D01*
X33052042Y-86486903D01*
X33322451Y-86667585D01*
X33552415Y-86897549D01*
X33733097Y-87167958D01*
X33857553Y-87468421D01*
X33921000Y-87787391D01*
X33921000Y-88112609D01*
X33857553Y-88431579D01*
X33733097Y-88732042D01*
X33552415Y-89002451D01*
X33322451Y-89232415D01*
X33052042Y-89413097D01*
X32751579Y-89537553D01*
X32645256Y-89558702D01*
X32432611Y-89601000D01*
X32107389Y-89601000D01*
X31894744Y-89558702D01*
X31788421Y-89537553D01*
X31487958Y-89413097D01*
X31217549Y-89232415D01*
X30987585Y-89002451D01*
X30806903Y-88732042D01*
X30682447Y-88431579D01*
X30619000Y-88112609D01*
X30619000Y-87787391D01*
X30682447Y-87468421D01*
X30806903Y-87167958D01*
X30987585Y-86897549D01*
X31217549Y-86667585D01*
X31487958Y-86486903D01*
X31788421Y-86362447D01*
X31894744Y-86341298D01*
X32107389Y-86299000D01*
X32432611Y-86299000D01*
X32645256Y-86341298D01*
G37*
G36*
X69970787Y-81725462D02*
G01*
X69970790Y-81725463D01*
X69970789Y-81725463D01*
X70617029Y-81993144D01*
X71198631Y-82381758D01*
X71693242Y-82876369D01*
X72081856Y-83457971D01*
X72212906Y-83774354D01*
X72349538Y-84104213D01*
X72486000Y-84790256D01*
X72486000Y-85489744D01*
X72349538Y-86175787D01*
X72349537Y-86175789D01*
X72081856Y-86822029D01*
X71693242Y-87403631D01*
X71198631Y-87898242D01*
X70617029Y-88286856D01*
X70267636Y-88431579D01*
X69970787Y-88554538D01*
X69284744Y-88691000D01*
X68585256Y-88691000D01*
X67899213Y-88554538D01*
X67602364Y-88431579D01*
X67252971Y-88286856D01*
X66671369Y-87898242D01*
X66176758Y-87403631D01*
X65788144Y-86822029D01*
X65520463Y-86175789D01*
X65520462Y-86175787D01*
X65384000Y-85489744D01*
X65384000Y-84790256D01*
X65520462Y-84104213D01*
X65657094Y-83774354D01*
X65788144Y-83457971D01*
X66176758Y-82876369D01*
X66671369Y-82381758D01*
X67252971Y-81993144D01*
X67899211Y-81725463D01*
X67899210Y-81725463D01*
X67899213Y-81725462D01*
X68585256Y-81589000D01*
X69284744Y-81589000D01*
X69970787Y-81725462D01*
G37*
G36*
X50920787Y-81725462D02*
G01*
X50920790Y-81725463D01*
X50920789Y-81725463D01*
X51567029Y-81993144D01*
X52148631Y-82381758D01*
X52643242Y-82876369D01*
X53031856Y-83457971D01*
X53162906Y-83774354D01*
X53299538Y-84104213D01*
X53436000Y-84790256D01*
X53436000Y-85489744D01*
X53299538Y-86175787D01*
X53299537Y-86175789D01*
X53031856Y-86822029D01*
X52643242Y-87403631D01*
X52148631Y-87898242D01*
X51567029Y-88286856D01*
X51217636Y-88431579D01*
X50920787Y-88554538D01*
X50234744Y-88691000D01*
X49535256Y-88691000D01*
X48849213Y-88554538D01*
X48552364Y-88431579D01*
X48202971Y-88286856D01*
X47621369Y-87898242D01*
X47126758Y-87403631D01*
X46738144Y-86822029D01*
X46470463Y-86175789D01*
X46470462Y-86175787D01*
X46334000Y-85489744D01*
X46334000Y-84790256D01*
X46470462Y-84104213D01*
X46607094Y-83774354D01*
X46738144Y-83457971D01*
X47126758Y-82876369D01*
X47621369Y-82381758D01*
X48202971Y-81993144D01*
X48849211Y-81725463D01*
X48849210Y-81725463D01*
X48849213Y-81725462D01*
X49535256Y-81589000D01*
X50234744Y-81589000D01*
X50920787Y-81725462D01*
G37*
G36*
X39413512Y-82303927D02*
G01*
X39562812Y-82333624D01*
X39726784Y-82401544D01*
X39874354Y-82500147D01*
X39999853Y-82625646D01*
X40098456Y-82773216D01*
X40166376Y-82937188D01*
X40177405Y-82992638D01*
X40184516Y-83016078D01*
X40196067Y-83037689D01*
X40211613Y-83056631D01*
X40230555Y-83072176D01*
X40252165Y-83083727D01*
X40275614Y-83090840D01*
X40300000Y-83093242D01*
X40324387Y-83090840D01*
X40347835Y-83083727D01*
X40369446Y-83072176D01*
X40388388Y-83056630D01*
X40403933Y-83037688D01*
X40415484Y-83016078D01*
X40422595Y-82992638D01*
X40433624Y-82937188D01*
X40501544Y-82773216D01*
X40600147Y-82625646D01*
X40725646Y-82500147D01*
X40873216Y-82401544D01*
X41037188Y-82333624D01*
X41186488Y-82303927D01*
X41211258Y-82299000D01*
X41388742Y-82299000D01*
X41413512Y-82303927D01*
X41562812Y-82333624D01*
X41726784Y-82401544D01*
X41874354Y-82500147D01*
X41999853Y-82625646D01*
X42098456Y-82773216D01*
X42166376Y-82937188D01*
X42201000Y-83111259D01*
X42201000Y-83288741D01*
X42166376Y-83462812D01*
X42098456Y-83626784D01*
X41999853Y-83774354D01*
X41874354Y-83899853D01*
X41726784Y-83998456D01*
X41562812Y-84066376D01*
X41413512Y-84096073D01*
X41388742Y-84101000D01*
X41211258Y-84101000D01*
X41186488Y-84096073D01*
X41037188Y-84066376D01*
X40873216Y-83998456D01*
X40725646Y-83899853D01*
X40600147Y-83774354D01*
X40501544Y-83626784D01*
X40433624Y-83462812D01*
X40422595Y-83407362D01*
X40415484Y-83383922D01*
X40403933Y-83362311D01*
X40388387Y-83343369D01*
X40369445Y-83327824D01*
X40347835Y-83316273D01*
X40324386Y-83309160D01*
X40300000Y-83306758D01*
X40275613Y-83309160D01*
X40252165Y-83316273D01*
X40230554Y-83327824D01*
X40211612Y-83343370D01*
X40196067Y-83362312D01*
X40184516Y-83383922D01*
X40177405Y-83407362D01*
X40166376Y-83462812D01*
X40098456Y-83626784D01*
X39999853Y-83774354D01*
X39874354Y-83899853D01*
X39726784Y-83998456D01*
X39562812Y-84066376D01*
X39413512Y-84096073D01*
X39388742Y-84101000D01*
X39211258Y-84101000D01*
X39186488Y-84096073D01*
X39037188Y-84066376D01*
X38873216Y-83998456D01*
X38725646Y-83899853D01*
X38600147Y-83774354D01*
X38501544Y-83626784D01*
X38433624Y-83462812D01*
X38399000Y-83288741D01*
X38399000Y-83111259D01*
X38433624Y-82937188D01*
X38501544Y-82773216D01*
X38600147Y-82625646D01*
X38725646Y-82500147D01*
X38873216Y-82401544D01*
X39037188Y-82333624D01*
X39186488Y-82303927D01*
X39211258Y-82299000D01*
X39388742Y-82299000D01*
X39413512Y-82303927D01*
G37*
G36*
X86901000Y-82301000D02*
G01*
X85299000Y-82301000D01*
X85299000Y-80699000D01*
X86901000Y-80699000D01*
X86901000Y-82301000D01*
G37*
G36*
X81901000Y-82301000D02*
G01*
X80299000Y-82301000D01*
X80299000Y-80699000D01*
X81901000Y-80699000D01*
X81901000Y-82301000D01*
G37*
G36*
X61611000Y-81901000D02*
G01*
X59809000Y-81901000D01*
X59809000Y-80099000D01*
X61611000Y-80099000D01*
X61611000Y-81901000D01*
G37*
G36*
X58283512Y-80103927D02*
G01*
X58432812Y-80133624D01*
X58596784Y-80201544D01*
X58744354Y-80300147D01*
X58869853Y-80425646D01*
X58968456Y-80573216D01*
X59036376Y-80737188D01*
X59071000Y-80911259D01*
X59071000Y-81088741D01*
X59036376Y-81262812D01*
X58968456Y-81426784D01*
X58869853Y-81574354D01*
X58744354Y-81699853D01*
X58596784Y-81798456D01*
X58432812Y-81866376D01*
X58283512Y-81896073D01*
X58258742Y-81901000D01*
X58081258Y-81901000D01*
X58056488Y-81896073D01*
X57907188Y-81866376D01*
X57743216Y-81798456D01*
X57595646Y-81699853D01*
X57470147Y-81574354D01*
X57371544Y-81426784D01*
X57303624Y-81262812D01*
X57269000Y-81088741D01*
X57269000Y-80911259D01*
X57303624Y-80737188D01*
X57371544Y-80573216D01*
X57470147Y-80425646D01*
X57595646Y-80300147D01*
X57743216Y-80201544D01*
X57907188Y-80133624D01*
X58056488Y-80103927D01*
X58081258Y-80099000D01*
X58258742Y-80099000D01*
X58283512Y-80103927D01*
G37*
G36*
X36251000Y-79451000D02*
G01*
X34149000Y-79451000D01*
X34149000Y-77349000D01*
X36251000Y-77349000D01*
X36251000Y-79451000D01*
G37*
G36*
X45148228Y-77281703D02*
G01*
X45303100Y-77345853D01*
X45442481Y-77438985D01*
X45561015Y-77557519D01*
X45654147Y-77696900D01*
X45718297Y-77851772D01*
X45751000Y-78016184D01*
X45751000Y-78183816D01*
X45718297Y-78348228D01*
X45654147Y-78503100D01*
X45561015Y-78642481D01*
X45442481Y-78761015D01*
X45303100Y-78854147D01*
X45148228Y-78918297D01*
X44983816Y-78951000D01*
X44816184Y-78951000D01*
X44651772Y-78918297D01*
X44496900Y-78854147D01*
X44357519Y-78761015D01*
X44238985Y-78642481D01*
X44145853Y-78503100D01*
X44081703Y-78348228D01*
X44049000Y-78183816D01*
X44049000Y-78016184D01*
X44081703Y-77851772D01*
X44145853Y-77696900D01*
X44238985Y-77557519D01*
X44357519Y-77438985D01*
X44496900Y-77345853D01*
X44651772Y-77281703D01*
X44816184Y-77249000D01*
X44983816Y-77249000D01*
X45148228Y-77281703D01*
G37*
G36*
X42648228Y-77281703D02*
G01*
X42803100Y-77345853D01*
X42942481Y-77438985D01*
X43061015Y-77557519D01*
X43154147Y-77696900D01*
X43218297Y-77851772D01*
X43251000Y-78016184D01*
X43251000Y-78183816D01*
X43218297Y-78348228D01*
X43154147Y-78503100D01*
X43061015Y-78642481D01*
X42942481Y-78761015D01*
X42803100Y-78854147D01*
X42648228Y-78918297D01*
X42483816Y-78951000D01*
X42316184Y-78951000D01*
X42151772Y-78918297D01*
X41996900Y-78854147D01*
X41857519Y-78761015D01*
X41738985Y-78642481D01*
X41645853Y-78503100D01*
X41581703Y-78348228D01*
X41549000Y-78183816D01*
X41549000Y-78016184D01*
X41581703Y-77851772D01*
X41645853Y-77696900D01*
X41738985Y-77557519D01*
X41857519Y-77438985D01*
X41996900Y-77345853D01*
X42151772Y-77281703D01*
X42316184Y-77249000D01*
X42483816Y-77249000D01*
X42648228Y-77281703D01*
G37*
G36*
X63651000Y-77951000D02*
G01*
X61949000Y-77951000D01*
X61949000Y-76249000D01*
X63651000Y-76249000D01*
X63651000Y-77951000D01*
G37*
G36*
X56851000Y-77951000D02*
G01*
X55149000Y-77951000D01*
X55149000Y-76249000D01*
X56851000Y-76249000D01*
X56851000Y-77951000D01*
G37*
G36*
X83456720Y-75663520D02*
G01*
X83645881Y-75720901D01*
X83820212Y-75814083D01*
X83973015Y-75939485D01*
X84098417Y-76092288D01*
X84142182Y-76174167D01*
X84191598Y-76266617D01*
X84191599Y-76266620D01*
X84248980Y-76455781D01*
X84263500Y-76603207D01*
X84263500Y-76796794D01*
X84248980Y-76944220D01*
X84191599Y-77133381D01*
X84098417Y-77307712D01*
X83973015Y-77460515D01*
X83820212Y-77585917D01*
X83738333Y-77629682D01*
X83645883Y-77679098D01*
X83645880Y-77679099D01*
X83456719Y-77736480D01*
X83260000Y-77755855D01*
X83063280Y-77736480D01*
X82874119Y-77679099D01*
X82699788Y-77585917D01*
X82546985Y-77460515D01*
X82421583Y-77307712D01*
X82377818Y-77225833D01*
X82328402Y-77133383D01*
X82328401Y-77133380D01*
X82271020Y-76944219D01*
X82256500Y-76796793D01*
X82256500Y-76603206D01*
X82271020Y-76455780D01*
X82328401Y-76266619D01*
X82421583Y-76092288D01*
X82546985Y-75939485D01*
X82699788Y-75814083D01*
X82874120Y-75720901D01*
X83063281Y-75663520D01*
X83260000Y-75644145D01*
X83456720Y-75663520D01*
G37*
G36*
X80916720Y-75663520D02*
G01*
X81105881Y-75720901D01*
X81280212Y-75814083D01*
X81433015Y-75939485D01*
X81558417Y-76092288D01*
X81602182Y-76174167D01*
X81651598Y-76266617D01*
X81651599Y-76266620D01*
X81708980Y-76455781D01*
X81723500Y-76603207D01*
X81723500Y-76796794D01*
X81708980Y-76944220D01*
X81651599Y-77133381D01*
X81558417Y-77307712D01*
X81433015Y-77460515D01*
X81280212Y-77585917D01*
X81198333Y-77629682D01*
X81105883Y-77679098D01*
X81105880Y-77679099D01*
X80916719Y-77736480D01*
X80720000Y-77755855D01*
X80523280Y-77736480D01*
X80334119Y-77679099D01*
X80159788Y-77585917D01*
X80006985Y-77460515D01*
X79881583Y-77307712D01*
X79837818Y-77225833D01*
X79788402Y-77133383D01*
X79788401Y-77133380D01*
X79731020Y-76944219D01*
X79716500Y-76796793D01*
X79716500Y-76603206D01*
X79731020Y-76455780D01*
X79788401Y-76266619D01*
X79881583Y-76092288D01*
X80006985Y-75939485D01*
X80159788Y-75814083D01*
X80334120Y-75720901D01*
X80523281Y-75663520D01*
X80720000Y-75644145D01*
X80916720Y-75663520D01*
G37*
G36*
X86803500Y-77751000D02*
G01*
X84796500Y-77751000D01*
X84796500Y-75649000D01*
X86803500Y-75649000D01*
X86803500Y-77751000D01*
G37*
G36*
X63048228Y-73781703D02*
G01*
X63203100Y-73845853D01*
X63342481Y-73938985D01*
X63461015Y-74057519D01*
X63554147Y-74196900D01*
X63618297Y-74351772D01*
X63651000Y-74516184D01*
X63651000Y-74683816D01*
X63618297Y-74848228D01*
X63554147Y-75003100D01*
X63461015Y-75142481D01*
X63342481Y-75261015D01*
X63203100Y-75354147D01*
X63048228Y-75418297D01*
X62883816Y-75451000D01*
X62716184Y-75451000D01*
X62551772Y-75418297D01*
X62396900Y-75354147D01*
X62257519Y-75261015D01*
X62138985Y-75142481D01*
X62045853Y-75003100D01*
X61981703Y-74848228D01*
X61949000Y-74683816D01*
X61949000Y-74516184D01*
X61981703Y-74351772D01*
X62045853Y-74196900D01*
X62138985Y-74057519D01*
X62257519Y-73938985D01*
X62396900Y-73845853D01*
X62551772Y-73781703D01*
X62716184Y-73749000D01*
X62883816Y-73749000D01*
X63048228Y-73781703D01*
G37*
G36*
X56248228Y-73781703D02*
G01*
X56403100Y-73845853D01*
X56542481Y-73938985D01*
X56661015Y-74057519D01*
X56754147Y-74196900D01*
X56818297Y-74351772D01*
X56851000Y-74516184D01*
X56851000Y-74683816D01*
X56818297Y-74848228D01*
X56754147Y-75003100D01*
X56661015Y-75142481D01*
X56542481Y-75261015D01*
X56403100Y-75354147D01*
X56248228Y-75418297D01*
X56083816Y-75451000D01*
X55916184Y-75451000D01*
X55751772Y-75418297D01*
X55596900Y-75354147D01*
X55457519Y-75261015D01*
X55338985Y-75142481D01*
X55245853Y-75003100D01*
X55181703Y-74848228D01*
X55149000Y-74683816D01*
X55149000Y-74516184D01*
X55181703Y-74351772D01*
X55245853Y-74196900D01*
X55338985Y-74057519D01*
X55457519Y-73938985D01*
X55596900Y-73845853D01*
X55751772Y-73781703D01*
X55916184Y-73749000D01*
X56083816Y-73749000D01*
X56248228Y-73781703D01*
G37*
G36*
X43851000Y-75251000D02*
G01*
X42149000Y-75251000D01*
X42149000Y-73549000D01*
X43851000Y-73549000D01*
X43851000Y-75251000D01*
G37*
G36*
X50868228Y-73581703D02*
G01*
X51023100Y-73645853D01*
X51162481Y-73738985D01*
X51281015Y-73857519D01*
X51374147Y-73996900D01*
X51438297Y-74151772D01*
X51471000Y-74316184D01*
X51471000Y-74483816D01*
X51438297Y-74648228D01*
X51374147Y-74803100D01*
X51281015Y-74942481D01*
X51162481Y-75061015D01*
X51023100Y-75154147D01*
X50868228Y-75218297D01*
X50703816Y-75251000D01*
X50536184Y-75251000D01*
X50371772Y-75218297D01*
X50216900Y-75154147D01*
X50077519Y-75061015D01*
X49958985Y-74942481D01*
X49865853Y-74803100D01*
X49801703Y-74648228D01*
X49769000Y-74483816D01*
X49769000Y-74316184D01*
X49801703Y-74151772D01*
X49865853Y-73996900D01*
X49958985Y-73857519D01*
X50077519Y-73738985D01*
X50216900Y-73645853D01*
X50371772Y-73581703D01*
X50536184Y-73549000D01*
X50703816Y-73549000D01*
X50868228Y-73581703D01*
G37*
G36*
X48328228Y-73581703D02*
G01*
X48483100Y-73645853D01*
X48622481Y-73738985D01*
X48741015Y-73857519D01*
X48834147Y-73996900D01*
X48898297Y-74151772D01*
X48931000Y-74316184D01*
X48931000Y-74483816D01*
X48898297Y-74648228D01*
X48834147Y-74803100D01*
X48741015Y-74942481D01*
X48622481Y-75061015D01*
X48483100Y-75154147D01*
X48328228Y-75218297D01*
X48163816Y-75251000D01*
X47996184Y-75251000D01*
X47831772Y-75218297D01*
X47676900Y-75154147D01*
X47537519Y-75061015D01*
X47418985Y-74942481D01*
X47325853Y-74803100D01*
X47261703Y-74648228D01*
X47229000Y-74483816D01*
X47229000Y-74316184D01*
X47261703Y-74151772D01*
X47325853Y-73996900D01*
X47418985Y-73857519D01*
X47537519Y-73738985D01*
X47676900Y-73645853D01*
X47831772Y-73581703D01*
X47996184Y-73549000D01*
X48163816Y-73549000D01*
X48328228Y-73581703D01*
G37*
G36*
X45788228Y-73581703D02*
G01*
X45943100Y-73645853D01*
X46082481Y-73738985D01*
X46201015Y-73857519D01*
X46294147Y-73996900D01*
X46358297Y-74151772D01*
X46391000Y-74316184D01*
X46391000Y-74483816D01*
X46358297Y-74648228D01*
X46294147Y-74803100D01*
X46201015Y-74942481D01*
X46082481Y-75061015D01*
X45943100Y-75154147D01*
X45788228Y-75218297D01*
X45623816Y-75251000D01*
X45456184Y-75251000D01*
X45291772Y-75218297D01*
X45136900Y-75154147D01*
X44997519Y-75061015D01*
X44878985Y-74942481D01*
X44785853Y-74803100D01*
X44721703Y-74648228D01*
X44689000Y-74483816D01*
X44689000Y-74316184D01*
X44721703Y-74151772D01*
X44785853Y-73996900D01*
X44878985Y-73857519D01*
X44997519Y-73738985D01*
X45136900Y-73645853D01*
X45291772Y-73581703D01*
X45456184Y-73549000D01*
X45623816Y-73549000D01*
X45788228Y-73581703D01*
G37*
G36*
X35506564Y-72389389D02*
G01*
X35697833Y-72468615D01*
X35697835Y-72468616D01*
X35699912Y-72470004D01*
X35869973Y-72583635D01*
X36016365Y-72730027D01*
X36131385Y-72902167D01*
X36210611Y-73093436D01*
X36251000Y-73296484D01*
X36251000Y-73503516D01*
X36210611Y-73706564D01*
X36148083Y-73857520D01*
X36131384Y-73897835D01*
X36016365Y-74069973D01*
X35869973Y-74216365D01*
X35697835Y-74331384D01*
X35697834Y-74331385D01*
X35697833Y-74331385D01*
X35506564Y-74410611D01*
X35303516Y-74451000D01*
X35096484Y-74451000D01*
X34893436Y-74410611D01*
X34702167Y-74331385D01*
X34702166Y-74331385D01*
X34702165Y-74331384D01*
X34530027Y-74216365D01*
X34383635Y-74069973D01*
X34268616Y-73897835D01*
X34251917Y-73857520D01*
X34189389Y-73706564D01*
X34149000Y-73503516D01*
X34149000Y-73296484D01*
X34189389Y-73093436D01*
X34268615Y-72902167D01*
X34383635Y-72730027D01*
X34530027Y-72583635D01*
X34700088Y-72470004D01*
X34702165Y-72468616D01*
X34702167Y-72468615D01*
X34893436Y-72389389D01*
X35096484Y-72349000D01*
X35303516Y-72349000D01*
X35506564Y-72389389D01*
G37*
G36*
X76351000Y-72601000D02*
G01*
X74049000Y-72601000D01*
X74049000Y-70299000D01*
X76351000Y-70299000D01*
X76351000Y-72601000D01*
G37*
G36*
X67804549Y-70321116D02*
G01*
X67915734Y-70343232D01*
X68125203Y-70429997D01*
X68313720Y-70555960D01*
X68474040Y-70716280D01*
X68600003Y-70904797D01*
X68686768Y-71114266D01*
X68731000Y-71336636D01*
X68731000Y-71563364D01*
X68686768Y-71785734D01*
X68600003Y-71995203D01*
X68474040Y-72183720D01*
X68313720Y-72344040D01*
X68125203Y-72470003D01*
X67915734Y-72556768D01*
X67804549Y-72578884D01*
X67693365Y-72601000D01*
X67466635Y-72601000D01*
X67355451Y-72578884D01*
X67244266Y-72556768D01*
X67034797Y-72470003D01*
X66846280Y-72344040D01*
X66685960Y-72183720D01*
X66559997Y-71995203D01*
X66473232Y-71785734D01*
X66429000Y-71563364D01*
X66429000Y-71336636D01*
X66473232Y-71114266D01*
X66559997Y-70904797D01*
X66685960Y-70716280D01*
X66846280Y-70555960D01*
X67034797Y-70429997D01*
X67244266Y-70343232D01*
X67355451Y-70321116D01*
X67466635Y-70299000D01*
X67693365Y-70299000D01*
X67804549Y-70321116D01*
G37*
G36*
X39344549Y-66771116D02*
G01*
X39455734Y-66793232D01*
X39665203Y-66879997D01*
X39853720Y-67005960D01*
X40014040Y-67166280D01*
X40140003Y-67354797D01*
X40226768Y-67564266D01*
X40271000Y-67786636D01*
X40271000Y-68013364D01*
X40226768Y-68235734D01*
X40140003Y-68445203D01*
X40014040Y-68633720D01*
X39853720Y-68794040D01*
X39665203Y-68920003D01*
X39455734Y-69006768D01*
X39344549Y-69028884D01*
X39233365Y-69051000D01*
X39006635Y-69051000D01*
X38895451Y-69028884D01*
X38784266Y-69006768D01*
X38574797Y-68920003D01*
X38386280Y-68794040D01*
X38225960Y-68633720D01*
X38099997Y-68445203D01*
X38013232Y-68235734D01*
X37969000Y-68013364D01*
X37969000Y-67786636D01*
X38013232Y-67564266D01*
X38099997Y-67354797D01*
X38225960Y-67166280D01*
X38386280Y-67005960D01*
X38574797Y-66879997D01*
X38784266Y-66793232D01*
X38895451Y-66771116D01*
X39006635Y-66749000D01*
X39233365Y-66749000D01*
X39344549Y-66771116D01*
G37*
G36*
X32651000Y-69051000D02*
G01*
X30349000Y-69051000D01*
X30349000Y-66749000D01*
X32651000Y-66749000D01*
X32651000Y-69051000D01*
G37*
G36*
X75518228Y-66881703D02*
G01*
X75673100Y-66945853D01*
X75812481Y-67038985D01*
X75931015Y-67157519D01*
X76024147Y-67296900D01*
X76088297Y-67451772D01*
X76121000Y-67616184D01*
X76121000Y-67783816D01*
X76088297Y-67948228D01*
X76024147Y-68103100D01*
X75931015Y-68242481D01*
X75812481Y-68361015D01*
X75673100Y-68454147D01*
X75518228Y-68518297D01*
X75353816Y-68551000D01*
X75186184Y-68551000D01*
X75021772Y-68518297D01*
X74866900Y-68454147D01*
X74727519Y-68361015D01*
X74608985Y-68242481D01*
X74515853Y-68103100D01*
X74451703Y-67948228D01*
X74419000Y-67783816D01*
X74419000Y-67616184D01*
X74451703Y-67451772D01*
X74515853Y-67296900D01*
X74608985Y-67157519D01*
X74727519Y-67038985D01*
X74866900Y-66945853D01*
X75021772Y-66881703D01*
X75186184Y-66849000D01*
X75353816Y-66849000D01*
X75518228Y-66881703D01*
G37*
G36*
X72978228Y-66881703D02*
G01*
X73133100Y-66945853D01*
X73272481Y-67038985D01*
X73391015Y-67157519D01*
X73484147Y-67296900D01*
X73548297Y-67451772D01*
X73581000Y-67616184D01*
X73581000Y-67783816D01*
X73548297Y-67948228D01*
X73484147Y-68103100D01*
X73391015Y-68242481D01*
X73272481Y-68361015D01*
X73133100Y-68454147D01*
X72978228Y-68518297D01*
X72813816Y-68551000D01*
X72646184Y-68551000D01*
X72481772Y-68518297D01*
X72326900Y-68454147D01*
X72187519Y-68361015D01*
X72068985Y-68242481D01*
X71975853Y-68103100D01*
X71911703Y-67948228D01*
X71879000Y-67783816D01*
X71879000Y-67616184D01*
X71911703Y-67451772D01*
X71975853Y-67296900D01*
X72068985Y-67157519D01*
X72187519Y-67038985D01*
X72326900Y-66945853D01*
X72481772Y-66881703D01*
X72646184Y-66849000D01*
X72813816Y-66849000D01*
X72978228Y-66881703D01*
G37*
G36*
X70438228Y-66881703D02*
G01*
X70593100Y-66945853D01*
X70732481Y-67038985D01*
X70851015Y-67157519D01*
X70944147Y-67296900D01*
X71008297Y-67451772D01*
X71041000Y-67616184D01*
X71041000Y-67783816D01*
X71008297Y-67948228D01*
X70944147Y-68103100D01*
X70851015Y-68242481D01*
X70732481Y-68361015D01*
X70593100Y-68454147D01*
X70438228Y-68518297D01*
X70273816Y-68551000D01*
X70106184Y-68551000D01*
X69941772Y-68518297D01*
X69786900Y-68454147D01*
X69647519Y-68361015D01*
X69528985Y-68242481D01*
X69435853Y-68103100D01*
X69371703Y-67948228D01*
X69339000Y-67783816D01*
X69339000Y-67616184D01*
X69371703Y-67451772D01*
X69435853Y-67296900D01*
X69528985Y-67157519D01*
X69647519Y-67038985D01*
X69786900Y-66945853D01*
X69941772Y-66881703D01*
X70106184Y-66849000D01*
X70273816Y-66849000D01*
X70438228Y-66881703D01*
G37*
G36*
X68501000Y-68551000D02*
G01*
X66799000Y-68551000D01*
X66799000Y-66849000D01*
X68501000Y-66849000D01*
X68501000Y-68551000D01*
G37*
G36*
X50868228Y-65961703D02*
G01*
X51023100Y-66025853D01*
X51162481Y-66118985D01*
X51281015Y-66237519D01*
X51374147Y-66376900D01*
X51438297Y-66531772D01*
X51471000Y-66696184D01*
X51471000Y-66863816D01*
X51438297Y-67028228D01*
X51374147Y-67183100D01*
X51281015Y-67322481D01*
X51162481Y-67441015D01*
X51023100Y-67534147D01*
X50868228Y-67598297D01*
X50703816Y-67631000D01*
X50536184Y-67631000D01*
X50371772Y-67598297D01*
X50216900Y-67534147D01*
X50077519Y-67441015D01*
X49958985Y-67322481D01*
X49865853Y-67183100D01*
X49801703Y-67028228D01*
X49769000Y-66863816D01*
X49769000Y-66696184D01*
X49801703Y-66531772D01*
X49865853Y-66376900D01*
X49958985Y-66237519D01*
X50077519Y-66118985D01*
X50216900Y-66025853D01*
X50371772Y-65961703D01*
X50536184Y-65929000D01*
X50703816Y-65929000D01*
X50868228Y-65961703D01*
G37*
G36*
X48328228Y-65961703D02*
G01*
X48483100Y-66025853D01*
X48622481Y-66118985D01*
X48741015Y-66237519D01*
X48834147Y-66376900D01*
X48898297Y-66531772D01*
X48931000Y-66696184D01*
X48931000Y-66863816D01*
X48898297Y-67028228D01*
X48834147Y-67183100D01*
X48741015Y-67322481D01*
X48622481Y-67441015D01*
X48483100Y-67534147D01*
X48328228Y-67598297D01*
X48163816Y-67631000D01*
X47996184Y-67631000D01*
X47831772Y-67598297D01*
X47676900Y-67534147D01*
X47537519Y-67441015D01*
X47418985Y-67322481D01*
X47325853Y-67183100D01*
X47261703Y-67028228D01*
X47229000Y-66863816D01*
X47229000Y-66696184D01*
X47261703Y-66531772D01*
X47325853Y-66376900D01*
X47418985Y-66237519D01*
X47537519Y-66118985D01*
X47676900Y-66025853D01*
X47831772Y-65961703D01*
X47996184Y-65929000D01*
X48163816Y-65929000D01*
X48328228Y-65961703D01*
G37*
G36*
X45788228Y-65961703D02*
G01*
X45943100Y-66025853D01*
X46082481Y-66118985D01*
X46201015Y-66237519D01*
X46294147Y-66376900D01*
X46358297Y-66531772D01*
X46391000Y-66696184D01*
X46391000Y-66863816D01*
X46358297Y-67028228D01*
X46294147Y-67183100D01*
X46201015Y-67322481D01*
X46082481Y-67441015D01*
X45943100Y-67534147D01*
X45788228Y-67598297D01*
X45623816Y-67631000D01*
X45456184Y-67631000D01*
X45291772Y-67598297D01*
X45136900Y-67534147D01*
X44997519Y-67441015D01*
X44878985Y-67322481D01*
X44785853Y-67183100D01*
X44721703Y-67028228D01*
X44689000Y-66863816D01*
X44689000Y-66696184D01*
X44721703Y-66531772D01*
X44785853Y-66376900D01*
X44878985Y-66237519D01*
X44997519Y-66118985D01*
X45136900Y-66025853D01*
X45291772Y-65961703D01*
X45456184Y-65929000D01*
X45623816Y-65929000D01*
X45788228Y-65961703D01*
G37*
G36*
X43248228Y-65961703D02*
G01*
X43403100Y-66025853D01*
X43542481Y-66118985D01*
X43661015Y-66237519D01*
X43754147Y-66376900D01*
X43818297Y-66531772D01*
X43851000Y-66696184D01*
X43851000Y-66863816D01*
X43818297Y-67028228D01*
X43754147Y-67183100D01*
X43661015Y-67322481D01*
X43542481Y-67441015D01*
X43403100Y-67534147D01*
X43248228Y-67598297D01*
X43083816Y-67631000D01*
X42916184Y-67631000D01*
X42751772Y-67598297D01*
X42596900Y-67534147D01*
X42457519Y-67441015D01*
X42338985Y-67322481D01*
X42245853Y-67183100D01*
X42181703Y-67028228D01*
X42149000Y-66863816D01*
X42149000Y-66696184D01*
X42181703Y-66531772D01*
X42245853Y-66376900D01*
X42338985Y-66237519D01*
X42457519Y-66118985D01*
X42596900Y-66025853D01*
X42751772Y-65961703D01*
X42916184Y-65929000D01*
X43083816Y-65929000D01*
X43248228Y-65961703D01*
G37*
G36*
X58956564Y-64439389D02*
G01*
X59147833Y-64518615D01*
X59147835Y-64518616D01*
X59319973Y-64633635D01*
X59466365Y-64780027D01*
X59581385Y-64952167D01*
X59660611Y-65143436D01*
X59701000Y-65346484D01*
X59701000Y-65553516D01*
X59660611Y-65756564D01*
X59589186Y-65929000D01*
X59581384Y-65947835D01*
X59466365Y-66119973D01*
X59319973Y-66266365D01*
X59147835Y-66381384D01*
X59147834Y-66381385D01*
X59147833Y-66381385D01*
X58956564Y-66460611D01*
X58753516Y-66501000D01*
X58546484Y-66501000D01*
X58343436Y-66460611D01*
X58152167Y-66381385D01*
X58152166Y-66381385D01*
X58152165Y-66381384D01*
X57980027Y-66266365D01*
X57833635Y-66119973D01*
X57718616Y-65947835D01*
X57710814Y-65929000D01*
X57639389Y-65756564D01*
X57599000Y-65553516D01*
X57599000Y-65346484D01*
X57639389Y-65143436D01*
X57718615Y-64952167D01*
X57833635Y-64780027D01*
X57980027Y-64633635D01*
X58152165Y-64518616D01*
X58152167Y-64518615D01*
X58343436Y-64439389D01*
X58546484Y-64399000D01*
X58753516Y-64399000D01*
X58956564Y-64439389D01*
G37*
G36*
X37544072Y-59200918D02*
G01*
X37690826Y-59261705D01*
X37789939Y-59302759D01*
X37824500Y-59325852D01*
X38011211Y-59450609D01*
X38199391Y-59638789D01*
X38347242Y-59860063D01*
X38449082Y-60105928D01*
X38501000Y-60366937D01*
X38501000Y-60633063D01*
X38449082Y-60894072D01*
X38445343Y-60903100D01*
X38347241Y-61139939D01*
X38272813Y-61251328D01*
X38206214Y-61351000D01*
X38199390Y-61361212D01*
X38011212Y-61549390D01*
X37789939Y-61697241D01*
X37789938Y-61697242D01*
X37789937Y-61697242D01*
X37544072Y-61799082D01*
X37283063Y-61851000D01*
X37016937Y-61851000D01*
X36755928Y-61799082D01*
X36510063Y-61697242D01*
X36510062Y-61697242D01*
X36510061Y-61697241D01*
X36288788Y-61549390D01*
X36100610Y-61361212D01*
X36093787Y-61351000D01*
X36027187Y-61251328D01*
X35952759Y-61139939D01*
X35854658Y-60903100D01*
X35850918Y-60894072D01*
X35799000Y-60633063D01*
X35799000Y-60366937D01*
X35850918Y-60105928D01*
X35952758Y-59860063D01*
X36100609Y-59638789D01*
X36288789Y-59450609D01*
X36475500Y-59325852D01*
X36510061Y-59302759D01*
X36609175Y-59261705D01*
X36755928Y-59200918D01*
X37016937Y-59149000D01*
X37283063Y-59149000D01*
X37544072Y-59200918D01*
G37*
G36*
X32544072Y-59200918D02*
G01*
X32690826Y-59261705D01*
X32789939Y-59302759D01*
X32824500Y-59325852D01*
X33011211Y-59450609D01*
X33199391Y-59638789D01*
X33347242Y-59860063D01*
X33449082Y-60105928D01*
X33501000Y-60366937D01*
X33501000Y-60633063D01*
X33449082Y-60894072D01*
X33445343Y-60903100D01*
X33347241Y-61139939D01*
X33272813Y-61251328D01*
X33206214Y-61351000D01*
X33199390Y-61361212D01*
X33011212Y-61549390D01*
X32789939Y-61697241D01*
X32789938Y-61697242D01*
X32789937Y-61697242D01*
X32544072Y-61799082D01*
X32283063Y-61851000D01*
X32016937Y-61851000D01*
X31755928Y-61799082D01*
X31510063Y-61697242D01*
X31510062Y-61697242D01*
X31510061Y-61697241D01*
X31288788Y-61549390D01*
X31100610Y-61361212D01*
X31093787Y-61351000D01*
X31027187Y-61251328D01*
X30952759Y-61139939D01*
X30854658Y-60903100D01*
X30850918Y-60894072D01*
X30799000Y-60633063D01*
X30799000Y-60366937D01*
X30850918Y-60105928D01*
X30952758Y-59860063D01*
X31100609Y-59638789D01*
X31288789Y-59450609D01*
X31475500Y-59325852D01*
X31510061Y-59302759D01*
X31609175Y-59261705D01*
X31755928Y-59200918D01*
X32016937Y-59149000D01*
X32283063Y-59149000D01*
X32544072Y-59200918D01*
G37*
G36*
X83785331Y-58308211D02*
G01*
X84113092Y-58443974D01*
X84408070Y-58641072D01*
X84658928Y-58891930D01*
X84856026Y-59186908D01*
X84991789Y-59514669D01*
X85061000Y-59862616D01*
X85061000Y-60217384D01*
X84991789Y-60565331D01*
X84856026Y-60893092D01*
X84658928Y-61188070D01*
X84408070Y-61438928D01*
X84113092Y-61636026D01*
X83785331Y-61771789D01*
X83437384Y-61841000D01*
X83082616Y-61841000D01*
X82734669Y-61771789D01*
X82406908Y-61636026D01*
X82111930Y-61438928D01*
X81861072Y-61188070D01*
X81663974Y-60893092D01*
X81528211Y-60565331D01*
X81459000Y-60217384D01*
X81459000Y-59862616D01*
X81528211Y-59514669D01*
X81663974Y-59186908D01*
X81861072Y-58891930D01*
X82111930Y-58641072D01*
X82406908Y-58443974D01*
X82734669Y-58308211D01*
X83082616Y-58239000D01*
X83437384Y-58239000D01*
X83785331Y-58308211D01*
G37*
G36*
X59701000Y-61501000D02*
G01*
X57599000Y-61501000D01*
X57599000Y-59399000D01*
X59701000Y-59399000D01*
X59701000Y-61501000D01*
G37*
G36*
X51958228Y-59681703D02*
G01*
X52113100Y-59745853D01*
X52252481Y-59838985D01*
X52371015Y-59957519D01*
X52464147Y-60096900D01*
X52528297Y-60251772D01*
X52561000Y-60416184D01*
X52561000Y-60583816D01*
X52528297Y-60748228D01*
X52464147Y-60903100D01*
X52371015Y-61042481D01*
X52252481Y-61161015D01*
X52113100Y-61254147D01*
X51958228Y-61318297D01*
X51793816Y-61351000D01*
X51626184Y-61351000D01*
X51461772Y-61318297D01*
X51306900Y-61254147D01*
X51167519Y-61161015D01*
X51048985Y-61042481D01*
X50955853Y-60903100D01*
X50891703Y-60748228D01*
X50859000Y-60583816D01*
X50859000Y-60416184D01*
X50891703Y-60251772D01*
X50955853Y-60096900D01*
X51048985Y-59957519D01*
X51167519Y-59838985D01*
X51306900Y-59745853D01*
X51461772Y-59681703D01*
X51626184Y-59649000D01*
X51793816Y-59649000D01*
X51958228Y-59681703D01*
G37*
G36*
X41798228Y-59681703D02*
G01*
X41953100Y-59745853D01*
X42092481Y-59838985D01*
X42211015Y-59957519D01*
X42304147Y-60096900D01*
X42368297Y-60251772D01*
X42401000Y-60416184D01*
X42401000Y-60583816D01*
X42368297Y-60748228D01*
X42304147Y-60903100D01*
X42211015Y-61042481D01*
X42092481Y-61161015D01*
X41953100Y-61254147D01*
X41798228Y-61318297D01*
X41633816Y-61351000D01*
X41466184Y-61351000D01*
X41301772Y-61318297D01*
X41146900Y-61254147D01*
X41007519Y-61161015D01*
X40888985Y-61042481D01*
X40795853Y-60903100D01*
X40731703Y-60748228D01*
X40699000Y-60583816D01*
X40699000Y-60416184D01*
X40731703Y-60251772D01*
X40795853Y-60096900D01*
X40888985Y-59957519D01*
X41007519Y-59838985D01*
X41146900Y-59745853D01*
X41301772Y-59681703D01*
X41466184Y-59649000D01*
X41633816Y-59649000D01*
X41798228Y-59681703D01*
G37*
G36*
X75518228Y-59261703D02*
G01*
X75673100Y-59325853D01*
X75812481Y-59418985D01*
X75931015Y-59537519D01*
X76024147Y-59676900D01*
X76088297Y-59831772D01*
X76121000Y-59996184D01*
X76121000Y-60163816D01*
X76088297Y-60328228D01*
X76024147Y-60483100D01*
X75931015Y-60622481D01*
X75812481Y-60741015D01*
X75673100Y-60834147D01*
X75518228Y-60898297D01*
X75353816Y-60931000D01*
X75186184Y-60931000D01*
X75021772Y-60898297D01*
X74866900Y-60834147D01*
X74727519Y-60741015D01*
X74608985Y-60622481D01*
X74515853Y-60483100D01*
X74451703Y-60328228D01*
X74419000Y-60163816D01*
X74419000Y-59996184D01*
X74451703Y-59831772D01*
X74515853Y-59676900D01*
X74608985Y-59537519D01*
X74727519Y-59418985D01*
X74866900Y-59325853D01*
X75021772Y-59261703D01*
X75186184Y-59229000D01*
X75353816Y-59229000D01*
X75518228Y-59261703D01*
G37*
G36*
X72978228Y-59261703D02*
G01*
X73133100Y-59325853D01*
X73272481Y-59418985D01*
X73391015Y-59537519D01*
X73484147Y-59676900D01*
X73548297Y-59831772D01*
X73581000Y-59996184D01*
X73581000Y-60163816D01*
X73548297Y-60328228D01*
X73484147Y-60483100D01*
X73391015Y-60622481D01*
X73272481Y-60741015D01*
X73133100Y-60834147D01*
X72978228Y-60898297D01*
X72813816Y-60931000D01*
X72646184Y-60931000D01*
X72481772Y-60898297D01*
X72326900Y-60834147D01*
X72187519Y-60741015D01*
X72068985Y-60622481D01*
X71975853Y-60483100D01*
X71911703Y-60328228D01*
X71879000Y-60163816D01*
X71879000Y-59996184D01*
X71911703Y-59831772D01*
X71975853Y-59676900D01*
X72068985Y-59537519D01*
X72187519Y-59418985D01*
X72326900Y-59325853D01*
X72481772Y-59261703D01*
X72646184Y-59229000D01*
X72813816Y-59229000D01*
X72978228Y-59261703D01*
G37*
G36*
X70438228Y-59261703D02*
G01*
X70593100Y-59325853D01*
X70732481Y-59418985D01*
X70851015Y-59537519D01*
X70944147Y-59676900D01*
X71008297Y-59831772D01*
X71041000Y-59996184D01*
X71041000Y-60163816D01*
X71008297Y-60328228D01*
X70944147Y-60483100D01*
X70851015Y-60622481D01*
X70732481Y-60741015D01*
X70593100Y-60834147D01*
X70438228Y-60898297D01*
X70273816Y-60931000D01*
X70106184Y-60931000D01*
X69941772Y-60898297D01*
X69786900Y-60834147D01*
X69647519Y-60741015D01*
X69528985Y-60622481D01*
X69435853Y-60483100D01*
X69371703Y-60328228D01*
X69339000Y-60163816D01*
X69339000Y-59996184D01*
X69371703Y-59831772D01*
X69435853Y-59676900D01*
X69528985Y-59537519D01*
X69647519Y-59418985D01*
X69786900Y-59325853D01*
X69941772Y-59261703D01*
X70106184Y-59229000D01*
X70273816Y-59229000D01*
X70438228Y-59261703D01*
G37*
G36*
X67898228Y-59261703D02*
G01*
X68053100Y-59325853D01*
X68192481Y-59418985D01*
X68311015Y-59537519D01*
X68404147Y-59676900D01*
X68468297Y-59831772D01*
X68501000Y-59996184D01*
X68501000Y-60163816D01*
X68468297Y-60328228D01*
X68404147Y-60483100D01*
X68311015Y-60622481D01*
X68192481Y-60741015D01*
X68053100Y-60834147D01*
X67898228Y-60898297D01*
X67733816Y-60931000D01*
X67566184Y-60931000D01*
X67401772Y-60898297D01*
X67246900Y-60834147D01*
X67107519Y-60741015D01*
X66988985Y-60622481D01*
X66895853Y-60483100D01*
X66831703Y-60328228D01*
X66799000Y-60163816D01*
X66799000Y-59996184D01*
X66831703Y-59831772D01*
X66895853Y-59676900D01*
X66988985Y-59537519D01*
X67107519Y-59418985D01*
X67246900Y-59325853D01*
X67401772Y-59261703D01*
X67566184Y-59229000D01*
X67733816Y-59229000D01*
X67898228Y-59261703D01*
G37*
G36*
X65651000Y-58901000D02*
G01*
X64049000Y-58901000D01*
X64049000Y-57299000D01*
X65651000Y-57299000D01*
X65651000Y-58901000D01*
G37*
G36*
X77101000Y-58201000D02*
G01*
X75499000Y-58201000D01*
X75499000Y-56599000D01*
X77101000Y-56599000D01*
X77101000Y-58201000D01*
G37*
G36*
X74401000Y-58201000D02*
G01*
X72799000Y-58201000D01*
X72799000Y-56599000D01*
X74401000Y-56599000D01*
X74401000Y-58201000D01*
G37*
G36*
X54901000Y-57901000D02*
G01*
X53299000Y-57901000D01*
X53299000Y-56299000D01*
X54901000Y-56299000D01*
X54901000Y-57901000D01*
G37*
G36*
X49470256Y-53741298D02*
G01*
X49576579Y-53762447D01*
X49877042Y-53886903D01*
X50147451Y-54067585D01*
X50377415Y-54297549D01*
X50558097Y-54567958D01*
X50682553Y-54868421D01*
X50746000Y-55187391D01*
X50746000Y-55512609D01*
X50682553Y-55831579D01*
X50558097Y-56132042D01*
X50377415Y-56402451D01*
X50147451Y-56632415D01*
X49877042Y-56813097D01*
X49576579Y-56937553D01*
X49470256Y-56958702D01*
X49257611Y-57001000D01*
X48932389Y-57001000D01*
X48719744Y-56958702D01*
X48613421Y-56937553D01*
X48312958Y-56813097D01*
X48042549Y-56632415D01*
X47812585Y-56402451D01*
X47631903Y-56132042D01*
X47507447Y-55831579D01*
X47444000Y-55512609D01*
X47444000Y-55187391D01*
X47507447Y-54868421D01*
X47631903Y-54567958D01*
X47812585Y-54297549D01*
X48042549Y-54067585D01*
X48312958Y-53886903D01*
X48613421Y-53762447D01*
X48719744Y-53741298D01*
X48932389Y-53699000D01*
X49257611Y-53699000D01*
X49470256Y-53741298D01*
G37*
G36*
X69970256Y-53741298D02*
G01*
X70076579Y-53762447D01*
X70377042Y-53886903D01*
X70647451Y-54067585D01*
X70877415Y-54297549D01*
X71058097Y-54567958D01*
X71182553Y-54868421D01*
X71246000Y-55187391D01*
X71246000Y-55512609D01*
X71182553Y-55831579D01*
X71058097Y-56132042D01*
X70877415Y-56402451D01*
X70647451Y-56632415D01*
X70377042Y-56813097D01*
X70076579Y-56937553D01*
X69970256Y-56958702D01*
X69757611Y-57001000D01*
X69432389Y-57001000D01*
X69219744Y-56958702D01*
X69113421Y-56937553D01*
X68812958Y-56813097D01*
X68542549Y-56632415D01*
X68312585Y-56402451D01*
X68131903Y-56132042D01*
X68007447Y-55831579D01*
X67944000Y-55512609D01*
X67944000Y-55187391D01*
X68007447Y-54868421D01*
X68131903Y-54567958D01*
X68312585Y-54297549D01*
X68542549Y-54067585D01*
X68812958Y-53886903D01*
X69113421Y-53762447D01*
X69219744Y-53741298D01*
X69432389Y-53699000D01*
X69757611Y-53699000D01*
X69970256Y-53741298D01*
G37*
G36*
X83517740Y-44308627D02*
G01*
X83566136Y-44318253D01*
X83603902Y-44333896D01*
X83657311Y-44356019D01*
X83657312Y-44356020D01*
X83739369Y-44410848D01*
X83809152Y-44480631D01*
X83809153Y-44480633D01*
X83863981Y-44562689D01*
X83901747Y-44653865D01*
X83921000Y-44750655D01*
X83921000Y-44849345D01*
X83901747Y-44946135D01*
X83863981Y-45037311D01*
X83863980Y-45037312D01*
X83809152Y-45119369D01*
X83739369Y-45189152D01*
X83698062Y-45216752D01*
X83657311Y-45243981D01*
X83603902Y-45266104D01*
X83566136Y-45281747D01*
X83517740Y-45291373D01*
X83469345Y-45301000D01*
X83370655Y-45301000D01*
X83322260Y-45291373D01*
X83273864Y-45281747D01*
X83236098Y-45266104D01*
X83182689Y-45243981D01*
X83141938Y-45216752D01*
X83100631Y-45189152D01*
X83030848Y-45119369D01*
X82976020Y-45037312D01*
X82976019Y-45037311D01*
X82938253Y-44946135D01*
X82919000Y-44849345D01*
X82919000Y-44750655D01*
X82938253Y-44653865D01*
X82976019Y-44562689D01*
X83030847Y-44480633D01*
X83030848Y-44480631D01*
X83100631Y-44410848D01*
X83182688Y-44356020D01*
X83182689Y-44356019D01*
X83236098Y-44333896D01*
X83273864Y-44318253D01*
X83322260Y-44308627D01*
X83370655Y-44299000D01*
X83469345Y-44299000D01*
X83517740Y-44308627D01*
G37*
G36*
X83517740Y-39908627D02*
G01*
X83566136Y-39918253D01*
X83603902Y-39933896D01*
X83657311Y-39956019D01*
X83657312Y-39956020D01*
X83739369Y-40010848D01*
X83809152Y-40080631D01*
X83809153Y-40080633D01*
X83863981Y-40162689D01*
X83901747Y-40253865D01*
X83921000Y-40350655D01*
X83921000Y-40449345D01*
X83901747Y-40546135D01*
X83863981Y-40637311D01*
X83863980Y-40637312D01*
X83809152Y-40719369D01*
X83739369Y-40789152D01*
X83698062Y-40816752D01*
X83657311Y-40843981D01*
X83603902Y-40866104D01*
X83566136Y-40881747D01*
X83517740Y-40891374D01*
X83469345Y-40901000D01*
X83370655Y-40901000D01*
X83322260Y-40891374D01*
X83273864Y-40881747D01*
X83236098Y-40866104D01*
X83182689Y-40843981D01*
X83141938Y-40816752D01*
X83100631Y-40789152D01*
X83030848Y-40719369D01*
X82976020Y-40637312D01*
X82976019Y-40637311D01*
X82938253Y-40546135D01*
X82919000Y-40449345D01*
X82919000Y-40350655D01*
X82938253Y-40253865D01*
X82976019Y-40162689D01*
X83030847Y-40080633D01*
X83030848Y-40080631D01*
X83100631Y-40010848D01*
X83182688Y-39956020D01*
X83182689Y-39956019D01*
X83236098Y-39933896D01*
X83273864Y-39918253D01*
X83322260Y-39908627D01*
X83370655Y-39899000D01*
X83469345Y-39899000D01*
X83517740Y-39908627D01*
G37*
G36*
X34837000Y-39155000D02*
G01*
X33235000Y-39155000D01*
X33235000Y-37553000D01*
X34837000Y-37553000D01*
X34837000Y-39155000D01*
G37*
G36*
X46476000Y-36776000D02*
G01*
X44874000Y-36776000D01*
X44874000Y-35174000D01*
X46476000Y-35174000D01*
X46476000Y-36776000D01*
G37*
G36*
X57145613Y-33491245D02*
G01*
X57157747Y-33493045D01*
X57224572Y-33499626D01*
X57322415Y-33529307D01*
X57412589Y-33577506D01*
X57491628Y-33642372D01*
X57556494Y-33721411D01*
X57604693Y-33811585D01*
X57634374Y-33909428D01*
X57645000Y-34017324D01*
X57645000Y-34562676D01*
X57634374Y-34670572D01*
X57604693Y-34768415D01*
X57556494Y-34858589D01*
X57491628Y-34937628D01*
X57412589Y-35002494D01*
X57322415Y-35050693D01*
X57224572Y-35080374D01*
X57157747Y-35086955D01*
X57137409Y-35091000D01*
X54049788Y-35091000D01*
X54042387Y-35088755D01*
X54030253Y-35086955D01*
X53963428Y-35080374D01*
X53865585Y-35050693D01*
X53775411Y-35002494D01*
X53696372Y-34937628D01*
X53631506Y-34858589D01*
X53583307Y-34768415D01*
X53553626Y-34670572D01*
X53543000Y-34562676D01*
X53543000Y-34017324D01*
X53553626Y-33909428D01*
X53583307Y-33811585D01*
X53631506Y-33721411D01*
X53696372Y-33642372D01*
X53775411Y-33577506D01*
X53865585Y-33529307D01*
X53963428Y-33499626D01*
X54030253Y-33493045D01*
X54050591Y-33489000D01*
X57138212Y-33489000D01*
X57145613Y-33491245D01*
G37*
G36*
X61717613Y-33491245D02*
G01*
X61729747Y-33493045D01*
X61796572Y-33499626D01*
X61894415Y-33529307D01*
X61984589Y-33577506D01*
X62063628Y-33642372D01*
X62128494Y-33721411D01*
X62176693Y-33811585D01*
X62206374Y-33909428D01*
X62217000Y-34017324D01*
X62217000Y-34562676D01*
X62206374Y-34670572D01*
X62176693Y-34768415D01*
X62128494Y-34858589D01*
X62063628Y-34937628D01*
X61984589Y-35002494D01*
X61894415Y-35050693D01*
X61796572Y-35080374D01*
X61729747Y-35086955D01*
X61709409Y-35091000D01*
X58621788Y-35091000D01*
X58614387Y-35088755D01*
X58602253Y-35086955D01*
X58535428Y-35080374D01*
X58437585Y-35050693D01*
X58347411Y-35002494D01*
X58268372Y-34937628D01*
X58203506Y-34858589D01*
X58155307Y-34768415D01*
X58125626Y-34670572D01*
X58115000Y-34562676D01*
X58115000Y-34017324D01*
X58125626Y-33909428D01*
X58155307Y-33811585D01*
X58203506Y-33721411D01*
X58268372Y-33642372D01*
X58347411Y-33577506D01*
X58437585Y-33529307D01*
X58535428Y-33499626D01*
X58602253Y-33493045D01*
X58622591Y-33489000D01*
X61710212Y-33489000D01*
X61717613Y-33491245D01*
G37*
G36*
X69970256Y-30741298D02*
G01*
X70076579Y-30762447D01*
X70377042Y-30886903D01*
X70647451Y-31067585D01*
X70877415Y-31297549D01*
X71058097Y-31567958D01*
X71182553Y-31868421D01*
X71194817Y-31930075D01*
X71246000Y-32187389D01*
X71246000Y-32512611D01*
X71210821Y-32689468D01*
X71182553Y-32831579D01*
X71182206Y-32832416D01*
X71059957Y-33127553D01*
X71058097Y-33132042D01*
X70877415Y-33402451D01*
X70647451Y-33632415D01*
X70377042Y-33813097D01*
X70076579Y-33937553D01*
X69970256Y-33958702D01*
X69757611Y-34001000D01*
X69432389Y-34001000D01*
X69219744Y-33958702D01*
X69113421Y-33937553D01*
X68812958Y-33813097D01*
X68542549Y-33632415D01*
X68312585Y-33402451D01*
X68131903Y-33132042D01*
X68130044Y-33127553D01*
X68007794Y-32832416D01*
X68007447Y-32831579D01*
X67979179Y-32689468D01*
X67944000Y-32512611D01*
X67944000Y-32187389D01*
X67995183Y-31930075D01*
X68007447Y-31868421D01*
X68131903Y-31567958D01*
X68312585Y-31297549D01*
X68542549Y-31067585D01*
X68812958Y-30886903D01*
X69113421Y-30762447D01*
X69219744Y-30741298D01*
X69432389Y-30699000D01*
X69757611Y-30699000D01*
X69970256Y-30741298D01*
G37*
G36*
X49470256Y-30741298D02*
G01*
X49576579Y-30762447D01*
X49877042Y-30886903D01*
X50147451Y-31067585D01*
X50377415Y-31297549D01*
X50558097Y-31567958D01*
X50682553Y-31868421D01*
X50694817Y-31930075D01*
X50746000Y-32187389D01*
X50746000Y-32512611D01*
X50710821Y-32689468D01*
X50682553Y-32831579D01*
X50682206Y-32832416D01*
X50559957Y-33127553D01*
X50558097Y-33132042D01*
X50377415Y-33402451D01*
X50147451Y-33632415D01*
X49877042Y-33813097D01*
X49576579Y-33937553D01*
X49470256Y-33958702D01*
X49257611Y-34001000D01*
X48932389Y-34001000D01*
X48719744Y-33958702D01*
X48613421Y-33937553D01*
X48312958Y-33813097D01*
X48042549Y-33632415D01*
X47812585Y-33402451D01*
X47631903Y-33132042D01*
X47630044Y-33127553D01*
X47507794Y-32832416D01*
X47507447Y-32831579D01*
X47479179Y-32689468D01*
X47444000Y-32512611D01*
X47444000Y-32187389D01*
X47495183Y-31930075D01*
X47507447Y-31868421D01*
X47631903Y-31567958D01*
X47812585Y-31297549D01*
X48042549Y-31067585D01*
X48312958Y-30886903D01*
X48613421Y-30762447D01*
X48719744Y-30741298D01*
X48932389Y-30699000D01*
X49257611Y-30699000D01*
X49470256Y-30741298D01*
G37*
G36*
X41103512Y-32003927D02*
G01*
X41252812Y-32033624D01*
X41416784Y-32101544D01*
X41564354Y-32200147D01*
X41689853Y-32325646D01*
X41788456Y-32473216D01*
X41856376Y-32637188D01*
X41876490Y-32738311D01*
X41891000Y-32811258D01*
X41891000Y-32988742D01*
X41888144Y-33003098D01*
X41856376Y-33162812D01*
X41788456Y-33326784D01*
X41689853Y-33474354D01*
X41564354Y-33599853D01*
X41416784Y-33698456D01*
X41252812Y-33766376D01*
X41103512Y-33796073D01*
X41078742Y-33801000D01*
X40901258Y-33801000D01*
X40876488Y-33796073D01*
X40727188Y-33766376D01*
X40563216Y-33698456D01*
X40415646Y-33599853D01*
X40290147Y-33474354D01*
X40191544Y-33326784D01*
X40123624Y-33162812D01*
X40091856Y-33003098D01*
X40089000Y-32988742D01*
X40089000Y-32811258D01*
X40103510Y-32738311D01*
X40123624Y-32637188D01*
X40191544Y-32473216D01*
X40290147Y-32325646D01*
X40415646Y-32200147D01*
X40563216Y-32101544D01*
X40727188Y-32033624D01*
X40876488Y-32003927D01*
X40901258Y-31999000D01*
X41078742Y-31999000D01*
X41103512Y-32003927D01*
G37*
G36*
X39351000Y-33801000D02*
G01*
X37549000Y-33801000D01*
X37549000Y-31999000D01*
X39351000Y-31999000D01*
X39351000Y-33801000D01*
G37*
G36*
X43643512Y-32003927D02*
G01*
X43792812Y-32033624D01*
X43956784Y-32101544D01*
X44104354Y-32200147D01*
X44229853Y-32325646D01*
X44328456Y-32473216D01*
X44396376Y-32637188D01*
X44416490Y-32738311D01*
X44431000Y-32811258D01*
X44431000Y-32988742D01*
X44428144Y-33003098D01*
X44396376Y-33162812D01*
X44328456Y-33326784D01*
X44229853Y-33474354D01*
X44104354Y-33599853D01*
X43956784Y-33698456D01*
X43792812Y-33766376D01*
X43643512Y-33796073D01*
X43618742Y-33801000D01*
X43441258Y-33801000D01*
X43416488Y-33796073D01*
X43267188Y-33766376D01*
X43103216Y-33698456D01*
X42955646Y-33599853D01*
X42830147Y-33474354D01*
X42731544Y-33326784D01*
X42663624Y-33162812D01*
X42631856Y-33003098D01*
X42629000Y-32988742D01*
X42629000Y-32811258D01*
X42643510Y-32738311D01*
X42663624Y-32637188D01*
X42731544Y-32473216D01*
X42830147Y-32325646D01*
X42955646Y-32200147D01*
X43103216Y-32101544D01*
X43267188Y-32033624D01*
X43416488Y-32003927D01*
X43441258Y-31999000D01*
X43618742Y-31999000D01*
X43643512Y-32003927D01*
G37*
G36*
X32645256Y-29941298D02*
G01*
X32751579Y-29962447D01*
X32801234Y-29983015D01*
X33051992Y-30086882D01*
X33052042Y-30086903D01*
X33322451Y-30267585D01*
X33552415Y-30497549D01*
X33733097Y-30767958D01*
X33857479Y-31068242D01*
X33857553Y-31068422D01*
X33921000Y-31387389D01*
X33921000Y-31712611D01*
X33888447Y-31876263D01*
X33857553Y-32031579D01*
X33733097Y-32332042D01*
X33552415Y-32602451D01*
X33322451Y-32832415D01*
X33052042Y-33013097D01*
X32751579Y-33137553D01*
X32645256Y-33158702D01*
X32432611Y-33201000D01*
X32107389Y-33201000D01*
X31894744Y-33158702D01*
X31788421Y-33137553D01*
X31487958Y-33013097D01*
X31217549Y-32832415D01*
X30987585Y-32602451D01*
X30806903Y-32332042D01*
X30682447Y-32031579D01*
X30651553Y-31876263D01*
X30619000Y-31712611D01*
X30619000Y-31387389D01*
X30682447Y-31068422D01*
X30682522Y-31068242D01*
X30806903Y-30767958D01*
X30987585Y-30497549D01*
X31217549Y-30267585D01*
X31487958Y-30086903D01*
X31488009Y-30086882D01*
X31738766Y-29983015D01*
X31788421Y-29962447D01*
X31894744Y-29941298D01*
X32107389Y-29899000D01*
X32432611Y-29899000D01*
X32645256Y-29941298D01*
G37*
G36*
X86495256Y-29931298D02*
G01*
X86601579Y-29952447D01*
X86902042Y-30076903D01*
X87172451Y-30257585D01*
X87402415Y-30487549D01*
X87409098Y-30497551D01*
X87583098Y-30757960D01*
X87587239Y-30767958D01*
X87707553Y-31058421D01*
X87709507Y-31068243D01*
X87771000Y-31377389D01*
X87771000Y-31702611D01*
X87757610Y-31769925D01*
X87707553Y-32021579D01*
X87583097Y-32322042D01*
X87402415Y-32592451D01*
X87172451Y-32822415D01*
X86902042Y-33003097D01*
X86902041Y-33003098D01*
X86902040Y-33003098D01*
X86814037Y-33039550D01*
X86601579Y-33127553D01*
X86495256Y-33148702D01*
X86282611Y-33191000D01*
X85957389Y-33191000D01*
X85744744Y-33148702D01*
X85638421Y-33127553D01*
X85425963Y-33039550D01*
X85337960Y-33003098D01*
X85337959Y-33003098D01*
X85337958Y-33003097D01*
X85067549Y-32822415D01*
X84837585Y-32592451D01*
X84656903Y-32322042D01*
X84532447Y-32021579D01*
X84482390Y-31769925D01*
X84469000Y-31702611D01*
X84469000Y-31377389D01*
X84530493Y-31068243D01*
X84532447Y-31058421D01*
X84652761Y-30767958D01*
X84656902Y-30757960D01*
X84830902Y-30497551D01*
X84837585Y-30487549D01*
X85067549Y-30257585D01*
X85337958Y-30076903D01*
X85638421Y-29952447D01*
X85744744Y-29931298D01*
X85957389Y-29889000D01*
X86282611Y-29889000D01*
X86495256Y-29931298D01*
G37*
G36*
X80103114Y-31731611D02*
G01*
X80202265Y-31761688D01*
X80293644Y-31810531D01*
X80373738Y-31876262D01*
X80439469Y-31956356D01*
X80488312Y-32047735D01*
X80518389Y-32146886D01*
X80528545Y-32250000D01*
X80518389Y-32353114D01*
X80488312Y-32452265D01*
X80439469Y-32543644D01*
X80373738Y-32623738D01*
X80293644Y-32689469D01*
X80202265Y-32738312D01*
X80103114Y-32768389D01*
X80025839Y-32776000D01*
X79674161Y-32776000D01*
X79596886Y-32768389D01*
X79497735Y-32738312D01*
X79406356Y-32689469D01*
X79326262Y-32623738D01*
X79260531Y-32543644D01*
X79211688Y-32452265D01*
X79181611Y-32353114D01*
X79171455Y-32250000D01*
X79181611Y-32146886D01*
X79211688Y-32047735D01*
X79260531Y-31956356D01*
X79326262Y-31876262D01*
X79406356Y-31810531D01*
X79497735Y-31761688D01*
X79596886Y-31731611D01*
X79674161Y-31724000D01*
X80025839Y-31724000D01*
X80103114Y-31731611D01*
G37*
G36*
X75103114Y-31731611D02*
G01*
X75202265Y-31761688D01*
X75293644Y-31810531D01*
X75373738Y-31876262D01*
X75439469Y-31956356D01*
X75488312Y-32047735D01*
X75518389Y-32146886D01*
X75528545Y-32250000D01*
X75518389Y-32353114D01*
X75488312Y-32452265D01*
X75439469Y-32543644D01*
X75373738Y-32623738D01*
X75293644Y-32689469D01*
X75202265Y-32738312D01*
X75103114Y-32768389D01*
X75025839Y-32776000D01*
X74674161Y-32776000D01*
X74596886Y-32768389D01*
X74497735Y-32738312D01*
X74406356Y-32689469D01*
X74326262Y-32623738D01*
X74260531Y-32543644D01*
X74211688Y-32452265D01*
X74181611Y-32353114D01*
X74171455Y-32250000D01*
X74181611Y-32146886D01*
X74211688Y-32047735D01*
X74260531Y-31956356D01*
X74326262Y-31876262D01*
X74406356Y-31810531D01*
X74497735Y-31761688D01*
X74596886Y-31731611D01*
X74674161Y-31724000D01*
X75025839Y-31724000D01*
X75103114Y-31731611D01*
G37*
G36*
X63392142Y-31068242D02*
G01*
X63540101Y-31129529D01*
X63673255Y-31218499D01*
X63786501Y-31331745D01*
X63875471Y-31464899D01*
X63936758Y-31612858D01*
X63968000Y-31769925D01*
X63968000Y-31930075D01*
X63936758Y-32087142D01*
X63875471Y-32235101D01*
X63786501Y-32368255D01*
X63673255Y-32481501D01*
X63540101Y-32570471D01*
X63392142Y-32631758D01*
X63235075Y-32663000D01*
X63074925Y-32663000D01*
X62917858Y-32631758D01*
X62769899Y-32570471D01*
X62636745Y-32481501D01*
X62523499Y-32368255D01*
X62434529Y-32235101D01*
X62373242Y-32087142D01*
X62342000Y-31930075D01*
X62342000Y-31769925D01*
X62373242Y-31612858D01*
X62434529Y-31464899D01*
X62523499Y-31331745D01*
X62636745Y-31218499D01*
X62769899Y-31129529D01*
X62917858Y-31068242D01*
X63074925Y-31037000D01*
X63235075Y-31037000D01*
X63392142Y-31068242D01*
G37*
G36*
X60852142Y-31068242D02*
G01*
X61000101Y-31129529D01*
X61133255Y-31218499D01*
X61246501Y-31331745D01*
X61335471Y-31464899D01*
X61396758Y-31612858D01*
X61428000Y-31769925D01*
X61428000Y-31930075D01*
X61396758Y-32087142D01*
X61335471Y-32235101D01*
X61246501Y-32368255D01*
X61133255Y-32481501D01*
X61000101Y-32570471D01*
X60852142Y-32631758D01*
X60695075Y-32663000D01*
X60534925Y-32663000D01*
X60377858Y-32631758D01*
X60229899Y-32570471D01*
X60096745Y-32481501D01*
X59983499Y-32368255D01*
X59894529Y-32235101D01*
X59833242Y-32087142D01*
X59802000Y-31930075D01*
X59802000Y-31769925D01*
X59833242Y-31612858D01*
X59894529Y-31464899D01*
X59983499Y-31331745D01*
X60096745Y-31218499D01*
X60229899Y-31129529D01*
X60377858Y-31068242D01*
X60534925Y-31037000D01*
X60695075Y-31037000D01*
X60852142Y-31068242D01*
G37*
G36*
X58312142Y-31068242D02*
G01*
X58460101Y-31129529D01*
X58593255Y-31218499D01*
X58706501Y-31331745D01*
X58795471Y-31464899D01*
X58856758Y-31612858D01*
X58888000Y-31769925D01*
X58888000Y-31930075D01*
X58856758Y-32087142D01*
X58795471Y-32235101D01*
X58706501Y-32368255D01*
X58593255Y-32481501D01*
X58460101Y-32570471D01*
X58312142Y-32631758D01*
X58155075Y-32663000D01*
X57994925Y-32663000D01*
X57837858Y-32631758D01*
X57689899Y-32570471D01*
X57556745Y-32481501D01*
X57443499Y-32368255D01*
X57354529Y-32235101D01*
X57293242Y-32087142D01*
X57262000Y-31930075D01*
X57262000Y-31769925D01*
X57293242Y-31612858D01*
X57354529Y-31464899D01*
X57443499Y-31331745D01*
X57556745Y-31218499D01*
X57689899Y-31129529D01*
X57837858Y-31068242D01*
X57994925Y-31037000D01*
X58155075Y-31037000D01*
X58312142Y-31068242D01*
G37*
G36*
X55772142Y-31068242D02*
G01*
X55920101Y-31129529D01*
X56053255Y-31218499D01*
X56166501Y-31331745D01*
X56255471Y-31464899D01*
X56316758Y-31612858D01*
X56348000Y-31769925D01*
X56348000Y-31930075D01*
X56316758Y-32087142D01*
X56255471Y-32235101D01*
X56166501Y-32368255D01*
X56053255Y-32481501D01*
X55920101Y-32570471D01*
X55772142Y-32631758D01*
X55615075Y-32663000D01*
X55454925Y-32663000D01*
X55297858Y-32631758D01*
X55149899Y-32570471D01*
X55016745Y-32481501D01*
X54903499Y-32368255D01*
X54814529Y-32235101D01*
X54753242Y-32087142D01*
X54722000Y-31930075D01*
X54722000Y-31769925D01*
X54753242Y-31612858D01*
X54814529Y-31464899D01*
X54903499Y-31331745D01*
X55016745Y-31218499D01*
X55149899Y-31129529D01*
X55297858Y-31068242D01*
X55454925Y-31037000D01*
X55615075Y-31037000D01*
X55772142Y-31068242D01*
G37*
G36*
X80958015Y-28681973D02*
G01*
X81061879Y-28713479D01*
X81089055Y-28728005D01*
X81157600Y-28764643D01*
X81241501Y-28833499D01*
X81310357Y-28917400D01*
X81346995Y-28985945D01*
X81361521Y-29013121D01*
X81393027Y-29116985D01*
X81401000Y-29197933D01*
X81401000Y-29902067D01*
X81393027Y-29983015D01*
X81361521Y-30086879D01*
X81310356Y-30182600D01*
X81241501Y-30266501D01*
X81172645Y-30323009D01*
X81157599Y-30335357D01*
X81105907Y-30362987D01*
X81061878Y-30386521D01*
X80958014Y-30418027D01*
X80850000Y-30428666D01*
X80741985Y-30418027D01*
X80638121Y-30386521D01*
X80594093Y-30362987D01*
X80542401Y-30335357D01*
X80529643Y-30324887D01*
X80458499Y-30266501D01*
X80389644Y-30182600D01*
X80338479Y-30086878D01*
X80306973Y-29983014D01*
X80299000Y-29902066D01*
X80299000Y-29197933D01*
X80306973Y-29116985D01*
X80338480Y-29013121D01*
X80338482Y-29013118D01*
X80389645Y-28917399D01*
X80458500Y-28833499D01*
X80542401Y-28764643D01*
X80610946Y-28728005D01*
X80638122Y-28713479D01*
X80741986Y-28681973D01*
X80850000Y-28671334D01*
X80958015Y-28681973D01*
G37*
G36*
X73958015Y-28681973D02*
G01*
X74061879Y-28713479D01*
X74089055Y-28728005D01*
X74157600Y-28764643D01*
X74241501Y-28833499D01*
X74310357Y-28917400D01*
X74346995Y-28985945D01*
X74361521Y-29013121D01*
X74393027Y-29116985D01*
X74401000Y-29197933D01*
X74401000Y-29902067D01*
X74393027Y-29983015D01*
X74361521Y-30086879D01*
X74310356Y-30182600D01*
X74241501Y-30266501D01*
X74172645Y-30323009D01*
X74157599Y-30335357D01*
X74105907Y-30362987D01*
X74061878Y-30386521D01*
X73958014Y-30418027D01*
X73850000Y-30428666D01*
X73741985Y-30418027D01*
X73638121Y-30386521D01*
X73594093Y-30362987D01*
X73542401Y-30335357D01*
X73529643Y-30324887D01*
X73458499Y-30266501D01*
X73389644Y-30182600D01*
X73338479Y-30086878D01*
X73306973Y-29983014D01*
X73299000Y-29902066D01*
X73299000Y-29197933D01*
X73306973Y-29116985D01*
X73338480Y-29013121D01*
X73338482Y-29013118D01*
X73389645Y-28917399D01*
X73458500Y-28833499D01*
X73542401Y-28764643D01*
X73610946Y-28728005D01*
X73638122Y-28713479D01*
X73741986Y-28681973D01*
X73850000Y-28671334D01*
X73958015Y-28681973D01*
G37*
M02*
