M48
; DRILL file {KiCad (5.1.5-0-10_14)} date Monday, December 09, 2019 at 12:47:25 AM
; FORMAT={2:4/ absolute / inch / suppress leading zeros}
; #@! TF.CreationDate,2019-12-09T00:47:25-08:00
; #@! TF.GenerationSoftware,Kicad,Pcbnew,(5.1.5-0-10_14)
FMAT,2
INCH,TZ
T1C0.0157
T2C0.0197
T3C0.0217
T4C0.0276
T5C0.0300
T6C0.0315
T7C0.0394
T8C0.0433
T9C0.0512
T10C0.1575
T11C0.0354
T12C0.1260
T13C0.1378
%
G90
G05
T1
X12142Y-17529
X12402Y-32638
X13354Y-16200
X14232Y-21004
X15433Y-20876
X15866Y-20079
X16800Y-16500
X16988Y-19075
X17746Y-20093
X17746Y-20906
X18000Y-15200
X18600Y-16500
X18862Y-18390
X19202Y-14602
X19990Y-19665
X21850Y-19685
X21890Y-20571
X22795Y-15709
X23187Y-14300
X23642Y-28681
X24256Y-17217
X24496Y-15957
X24646Y-20807
X25315Y-31654
X25800Y-17900
X25827Y-16169
X26083Y-25020
X26496Y-15236
X27717Y-19154
X28740Y-14646
X29016Y-15315
X29331Y-29843
X29520Y-13543
X30591Y-20945
X30827Y-13583
X33256Y-15311
T4
X17982Y-14163
X25531Y-22874
X21299Y-22480
X30157Y-22598
X32480Y-30236
X30591Y-34528
X28976Y-22598
X13400Y-15100
T5
X21864Y-12539
X22864Y-12539
X23864Y-12539
X24864Y-12539
T6
X17500Y-26291
X17500Y-29291
X18500Y-26291
X18500Y-29291
X19500Y-26291
X19500Y-29291
X20500Y-26291
X20500Y-29291
X16831Y-23819
X20831Y-23819
X30866Y-31181
X30866Y-32165
X21988Y-29980
X22972Y-29980
X26634Y-23654
X26634Y-26654
X27634Y-23654
X27634Y-26654
X28634Y-23654
X28634Y-26654
X29634Y-23654
X29634Y-26654
X15748Y-33504
X15748Y-34488
T7
X15138Y-12953
X16138Y-12953
X17138Y-12953
X14350Y-28937
X14350Y-30906
X23563Y-23799
X23563Y-25768
X22902Y-31827
X23902Y-31827
X25354Y-30079
X26142Y-30079
T8
X12827Y-26791
X15827Y-26791
X31780Y-28898
X32780Y-28898
X33780Y-28898
X26488Y-28130
X29488Y-28130
T9
X13130Y-24016
X15098Y-24016
T10
X19640Y-33520
X27140Y-33520
T11
X32843Y-15906
X32843Y-17638
T12
X33906Y-34626
X33906Y-12417
X12705Y-34626
X19329Y-12736
X19329Y-21791
X27400Y-12736
X27400Y-21791
X12705Y-12421
T13
X32780Y-22339
T2
G00X29075Y-11764
M15
G01X29075Y-11504
M16
G05
G00X31831Y-11762
M15
G01X31831Y-11506
M16
G05
T3
G00X29528Y-12697
M15
G01X29409Y-12697
M16
G05
G00X31496Y-12697
M15
G01X31378Y-12697
M16
G05
T0
M30
