G04 #@! TF.GenerationSoftware,KiCad,Pcbnew,(5.1.5-0-10_14)*
G04 #@! TF.CreationDate,2020-01-24T10:00:26-08:00*
G04 #@! TF.ProjectId,powersupply,706f7765-7273-4757-9070-6c792e6b6963,rev?*
G04 #@! TF.SameCoordinates,Original*
G04 #@! TF.FileFunction,Legend,Top*
G04 #@! TF.FilePolarity,Positive*
%FSLAX46Y46*%
G04 Gerber Fmt 4.6, Leading zero omitted, Abs format (unit mm)*
G04 Created by KiCad (PCBNEW (5.1.5-0-10_14)) date 2020-01-24 10:00:26*
%MOMM*%
%LPD*%
G04 APERTURE LIST*
%ADD10C,0.200000*%
%ADD11C,0.175000*%
%ADD12C,0.300000*%
%ADD13C,0.250000*%
%ADD14C,0.375000*%
%ADD15C,0.120000*%
%ADD16C,0.100000*%
%ADD17C,0.150000*%
G04 APERTURE END LIST*
D10*
X72383333Y-45767857D02*
X72497619Y-45805952D01*
X72535714Y-45844047D01*
X72573809Y-45920238D01*
X72573809Y-46034523D01*
X72535714Y-46110714D01*
X72497619Y-46148809D01*
X72421428Y-46186904D01*
X72116666Y-46186904D01*
X72116666Y-45386904D01*
X72383333Y-45386904D01*
X72459523Y-45425000D01*
X72497619Y-45463095D01*
X72535714Y-45539285D01*
X72535714Y-45615476D01*
X72497619Y-45691666D01*
X72459523Y-45729761D01*
X72383333Y-45767857D01*
X72116666Y-45767857D01*
X73069047Y-45386904D02*
X73221428Y-45386904D01*
X73297619Y-45425000D01*
X73373809Y-45501190D01*
X73411904Y-45653571D01*
X73411904Y-45920238D01*
X73373809Y-46072619D01*
X73297619Y-46148809D01*
X73221428Y-46186904D01*
X73069047Y-46186904D01*
X72992857Y-46148809D01*
X72916666Y-46072619D01*
X72878571Y-45920238D01*
X72878571Y-45653571D01*
X72916666Y-45501190D01*
X72992857Y-45425000D01*
X73069047Y-45386904D01*
X73907142Y-45386904D02*
X74059523Y-45386904D01*
X74135714Y-45425000D01*
X74211904Y-45501190D01*
X74250000Y-45653571D01*
X74250000Y-45920238D01*
X74211904Y-46072619D01*
X74135714Y-46148809D01*
X74059523Y-46186904D01*
X73907142Y-46186904D01*
X73830952Y-46148809D01*
X73754761Y-46072619D01*
X73716666Y-45920238D01*
X73716666Y-45653571D01*
X73754761Y-45501190D01*
X73830952Y-45425000D01*
X73907142Y-45386904D01*
X74478571Y-45386904D02*
X74935714Y-45386904D01*
X74707142Y-46186904D02*
X74707142Y-45386904D01*
X75621428Y-46186904D02*
X75164285Y-46186904D01*
X75392857Y-46186904D02*
X75392857Y-45386904D01*
X75316666Y-45501190D01*
X75240476Y-45577380D01*
X75164285Y-45615476D01*
X46863095Y-44086904D02*
X46596428Y-43705952D01*
X46405952Y-44086904D02*
X46405952Y-43286904D01*
X46710714Y-43286904D01*
X46786904Y-43325000D01*
X46825000Y-43363095D01*
X46863095Y-43439285D01*
X46863095Y-43553571D01*
X46825000Y-43629761D01*
X46786904Y-43667857D01*
X46710714Y-43705952D01*
X46405952Y-43705952D01*
X47205952Y-43667857D02*
X47472619Y-43667857D01*
X47586904Y-44086904D02*
X47205952Y-44086904D01*
X47205952Y-43286904D01*
X47586904Y-43286904D01*
X47891666Y-44048809D02*
X48005952Y-44086904D01*
X48196428Y-44086904D01*
X48272619Y-44048809D01*
X48310714Y-44010714D01*
X48348809Y-43934523D01*
X48348809Y-43858333D01*
X48310714Y-43782142D01*
X48272619Y-43744047D01*
X48196428Y-43705952D01*
X48044047Y-43667857D01*
X47967857Y-43629761D01*
X47929761Y-43591666D01*
X47891666Y-43515476D01*
X47891666Y-43439285D01*
X47929761Y-43363095D01*
X47967857Y-43325000D01*
X48044047Y-43286904D01*
X48234523Y-43286904D01*
X48348809Y-43325000D01*
X48691666Y-43667857D02*
X48958333Y-43667857D01*
X49072619Y-44086904D02*
X48691666Y-44086904D01*
X48691666Y-43286904D01*
X49072619Y-43286904D01*
X49301190Y-43286904D02*
X49758333Y-43286904D01*
X49529761Y-44086904D02*
X49529761Y-43286904D01*
D11*
X77016666Y-63913750D02*
X77716666Y-63680416D01*
X77016666Y-63447083D01*
X77716666Y-62347083D02*
X77716666Y-62680416D01*
X77016666Y-62680416D01*
X77716666Y-62113750D02*
X77250000Y-62113750D01*
X77016666Y-62113750D02*
X77050000Y-62147083D01*
X77083333Y-62113750D01*
X77050000Y-62080416D01*
X77016666Y-62113750D01*
X77083333Y-62113750D01*
X77716666Y-61780416D02*
X77250000Y-61780416D01*
X77316666Y-61780416D02*
X77283333Y-61747083D01*
X77250000Y-61680416D01*
X77250000Y-61580416D01*
X77283333Y-61513750D01*
X77350000Y-61480416D01*
X77716666Y-61480416D01*
X77350000Y-61480416D02*
X77283333Y-61447083D01*
X77250000Y-61380416D01*
X77250000Y-61280416D01*
X77283333Y-61213750D01*
X77350000Y-61180416D01*
X77716666Y-61180416D01*
X77716666Y-60313750D02*
X77016666Y-60313750D01*
X77016666Y-60147083D01*
X77050000Y-60047083D01*
X77116666Y-59980416D01*
X77183333Y-59947083D01*
X77316666Y-59913750D01*
X77416666Y-59913750D01*
X77550000Y-59947083D01*
X77616666Y-59980416D01*
X77683333Y-60047083D01*
X77716666Y-60147083D01*
X77716666Y-60313750D01*
X77716666Y-59613750D02*
X77250000Y-59613750D01*
X77016666Y-59613750D02*
X77050000Y-59647083D01*
X77083333Y-59613750D01*
X77050000Y-59580416D01*
X77016666Y-59613750D01*
X77083333Y-59613750D01*
X77250000Y-59347083D02*
X77716666Y-59180416D01*
X77250000Y-59013750D01*
X72466666Y-56008333D02*
X73166666Y-55775000D01*
X72466666Y-55541666D01*
X73166666Y-54441666D02*
X73166666Y-54775000D01*
X72466666Y-54775000D01*
X73166666Y-54208333D02*
X72700000Y-54208333D01*
X72466666Y-54208333D02*
X72500000Y-54241666D01*
X72533333Y-54208333D01*
X72500000Y-54175000D01*
X72466666Y-54208333D01*
X72533333Y-54208333D01*
X72700000Y-53875000D02*
X73166666Y-53875000D01*
X72766666Y-53875000D02*
X72733333Y-53841666D01*
X72700000Y-53775000D01*
X72700000Y-53675000D01*
X72733333Y-53608333D01*
X72800000Y-53575000D01*
X73166666Y-53575000D01*
X73100000Y-52308333D02*
X73133333Y-52341666D01*
X73166666Y-52441666D01*
X73166666Y-52508333D01*
X73133333Y-52608333D01*
X73066666Y-52675000D01*
X73000000Y-52708333D01*
X72866666Y-52741666D01*
X72766666Y-52741666D01*
X72633333Y-52708333D01*
X72566666Y-52675000D01*
X72500000Y-52608333D01*
X72466666Y-52508333D01*
X72466666Y-52441666D01*
X72500000Y-52341666D01*
X72533333Y-52308333D01*
D12*
X37964285Y-30778571D02*
X37964285Y-29278571D01*
X38321428Y-29278571D01*
X38535714Y-29350000D01*
X38678571Y-29492857D01*
X38750000Y-29635714D01*
X38821428Y-29921428D01*
X38821428Y-30135714D01*
X38750000Y-30421428D01*
X38678571Y-30564285D01*
X38535714Y-30707142D01*
X38321428Y-30778571D01*
X37964285Y-30778571D01*
X41392857Y-29350000D02*
X41250000Y-29278571D01*
X41035714Y-29278571D01*
X40821428Y-29350000D01*
X40678571Y-29492857D01*
X40607142Y-29635714D01*
X40535714Y-29921428D01*
X40535714Y-30135714D01*
X40607142Y-30421428D01*
X40678571Y-30564285D01*
X40821428Y-30707142D01*
X41035714Y-30778571D01*
X41178571Y-30778571D01*
X41392857Y-30707142D01*
X41464285Y-30635714D01*
X41464285Y-30135714D01*
X41178571Y-30135714D01*
X44107142Y-30635714D02*
X44035714Y-30707142D01*
X43821428Y-30778571D01*
X43678571Y-30778571D01*
X43464285Y-30707142D01*
X43321428Y-30564285D01*
X43250000Y-30421428D01*
X43178571Y-30135714D01*
X43178571Y-29921428D01*
X43250000Y-29635714D01*
X43321428Y-29492857D01*
X43464285Y-29350000D01*
X43678571Y-29278571D01*
X43821428Y-29278571D01*
X44035714Y-29350000D01*
X44107142Y-29421428D01*
D13*
X49373214Y-52252380D02*
X49706547Y-53252380D01*
X50039880Y-52252380D01*
X51468452Y-52728571D02*
X51611309Y-52776190D01*
X51658928Y-52823809D01*
X51706547Y-52919047D01*
X51706547Y-53061904D01*
X51658928Y-53157142D01*
X51611309Y-53204761D01*
X51516071Y-53252380D01*
X51135119Y-53252380D01*
X51135119Y-52252380D01*
X51468452Y-52252380D01*
X51563690Y-52300000D01*
X51611309Y-52347619D01*
X51658928Y-52442857D01*
X51658928Y-52538095D01*
X51611309Y-52633333D01*
X51563690Y-52680952D01*
X51468452Y-52728571D01*
X51135119Y-52728571D01*
X52277976Y-53252380D02*
X52182738Y-53204761D01*
X52135119Y-53157142D01*
X52087500Y-53061904D01*
X52087500Y-52776190D01*
X52135119Y-52680952D01*
X52182738Y-52633333D01*
X52277976Y-52585714D01*
X52420833Y-52585714D01*
X52516071Y-52633333D01*
X52563690Y-52680952D01*
X52611309Y-52776190D01*
X52611309Y-53061904D01*
X52563690Y-53157142D01*
X52516071Y-53204761D01*
X52420833Y-53252380D01*
X52277976Y-53252380D01*
X53182738Y-53252380D02*
X53087500Y-53204761D01*
X53039880Y-53157142D01*
X52992261Y-53061904D01*
X52992261Y-52776190D01*
X53039880Y-52680952D01*
X53087500Y-52633333D01*
X53182738Y-52585714D01*
X53325595Y-52585714D01*
X53420833Y-52633333D01*
X53468452Y-52680952D01*
X53516071Y-52776190D01*
X53516071Y-53061904D01*
X53468452Y-53157142D01*
X53420833Y-53204761D01*
X53325595Y-53252380D01*
X53182738Y-53252380D01*
X53897023Y-53204761D02*
X53992261Y-53252380D01*
X54182738Y-53252380D01*
X54277976Y-53204761D01*
X54325595Y-53109523D01*
X54325595Y-53061904D01*
X54277976Y-52966666D01*
X54182738Y-52919047D01*
X54039880Y-52919047D01*
X53944642Y-52871428D01*
X53897023Y-52776190D01*
X53897023Y-52728571D01*
X53944642Y-52633333D01*
X54039880Y-52585714D01*
X54182738Y-52585714D01*
X54277976Y-52633333D01*
X54611309Y-52585714D02*
X54992261Y-52585714D01*
X54754166Y-52252380D02*
X54754166Y-53109523D01*
X54801785Y-53204761D01*
X54897023Y-53252380D01*
X54992261Y-53252380D01*
X53182738Y-54907142D02*
X53135119Y-54954761D01*
X52992261Y-55002380D01*
X52897023Y-55002380D01*
X52754166Y-54954761D01*
X52658928Y-54859523D01*
X52611309Y-54764285D01*
X52563690Y-54573809D01*
X52563690Y-54430952D01*
X52611309Y-54240476D01*
X52658928Y-54145238D01*
X52754166Y-54050000D01*
X52897023Y-54002380D01*
X52992261Y-54002380D01*
X53135119Y-54050000D01*
X53182738Y-54097619D01*
X53468452Y-54335714D02*
X53849404Y-54335714D01*
X53611309Y-54002380D02*
X53611309Y-54859523D01*
X53658928Y-54954761D01*
X53754166Y-55002380D01*
X53849404Y-55002380D01*
X54182738Y-55002380D02*
X54182738Y-54335714D01*
X54182738Y-54526190D02*
X54230357Y-54430952D01*
X54277976Y-54383333D01*
X54373214Y-54335714D01*
X54468452Y-54335714D01*
X54944642Y-55002380D02*
X54849404Y-54954761D01*
X54801785Y-54859523D01*
X54801785Y-54002380D01*
D14*
X54348571Y-90177142D02*
X55491428Y-90177142D01*
X63078571Y-90107142D02*
X64221428Y-90107142D01*
X63650000Y-90678571D02*
X63650000Y-89535714D01*
D13*
X29531976Y-39187428D02*
X30293880Y-39187428D01*
X29912928Y-39568380D02*
X29912928Y-38806476D01*
X31246261Y-38568380D02*
X30770071Y-38568380D01*
X30722452Y-39044571D01*
X30770071Y-38996952D01*
X30865309Y-38949333D01*
X31103404Y-38949333D01*
X31198642Y-38996952D01*
X31246261Y-39044571D01*
X31293880Y-39139809D01*
X31293880Y-39377904D01*
X31246261Y-39473142D01*
X31198642Y-39520761D01*
X31103404Y-39568380D01*
X30865309Y-39568380D01*
X30770071Y-39520761D01*
X30722452Y-39473142D01*
X31579595Y-38568380D02*
X31912928Y-39568380D01*
X32246261Y-38568380D01*
D11*
X64879166Y-56433333D02*
X65579166Y-56200000D01*
X64879166Y-55966666D01*
X65512500Y-54800000D02*
X65545833Y-54833333D01*
X65579166Y-54933333D01*
X65579166Y-55000000D01*
X65545833Y-55100000D01*
X65479166Y-55166666D01*
X65412500Y-55200000D01*
X65279166Y-55233333D01*
X65179166Y-55233333D01*
X65045833Y-55200000D01*
X64979166Y-55166666D01*
X64912500Y-55100000D01*
X64879166Y-55000000D01*
X64879166Y-54933333D01*
X64912500Y-54833333D01*
X64945833Y-54800000D01*
X65112500Y-54200000D02*
X65579166Y-54200000D01*
X65112500Y-54500000D02*
X65479166Y-54500000D01*
X65545833Y-54466666D01*
X65579166Y-54400000D01*
X65579166Y-54300000D01*
X65545833Y-54233333D01*
X65512500Y-54200000D01*
X65579166Y-53866666D02*
X65112500Y-53866666D01*
X65245833Y-53866666D02*
X65179166Y-53833333D01*
X65145833Y-53800000D01*
X65112500Y-53733333D01*
X65112500Y-53666666D01*
X66804166Y-53600000D02*
X66804166Y-53933333D01*
X66104166Y-53933333D01*
X66804166Y-53366666D02*
X66337500Y-53366666D01*
X66104166Y-53366666D02*
X66137500Y-53400000D01*
X66170833Y-53366666D01*
X66137500Y-53333333D01*
X66104166Y-53366666D01*
X66170833Y-53366666D01*
X66804166Y-53033333D02*
X66337500Y-53033333D01*
X66404166Y-53033333D02*
X66370833Y-53000000D01*
X66337500Y-52933333D01*
X66337500Y-52833333D01*
X66370833Y-52766666D01*
X66437500Y-52733333D01*
X66804166Y-52733333D01*
X66437500Y-52733333D02*
X66370833Y-52700000D01*
X66337500Y-52633333D01*
X66337500Y-52533333D01*
X66370833Y-52466666D01*
X66437500Y-52433333D01*
X66804166Y-52433333D01*
D13*
X40025000Y-36771428D02*
X40786904Y-36771428D01*
X40405952Y-37152380D02*
X40405952Y-36390476D01*
X41167857Y-36152380D02*
X41786904Y-36152380D01*
X41453571Y-36533333D01*
X41596428Y-36533333D01*
X41691666Y-36580952D01*
X41739285Y-36628571D01*
X41786904Y-36723809D01*
X41786904Y-36961904D01*
X41739285Y-37057142D01*
X41691666Y-37104761D01*
X41596428Y-37152380D01*
X41310714Y-37152380D01*
X41215476Y-37104761D01*
X41167857Y-37057142D01*
X42215476Y-37057142D02*
X42263095Y-37104761D01*
X42215476Y-37152380D01*
X42167857Y-37104761D01*
X42215476Y-37057142D01*
X42215476Y-37152380D01*
X42596428Y-36152380D02*
X43215476Y-36152380D01*
X42882142Y-36533333D01*
X43025000Y-36533333D01*
X43120238Y-36580952D01*
X43167857Y-36628571D01*
X43215476Y-36723809D01*
X43215476Y-36961904D01*
X43167857Y-37057142D01*
X43120238Y-37104761D01*
X43025000Y-37152380D01*
X42739285Y-37152380D01*
X42644047Y-37104761D01*
X42596428Y-37057142D01*
X43501190Y-36152380D02*
X43834523Y-37152380D01*
X44167857Y-36152380D01*
X80333928Y-83453571D02*
X80476785Y-83501190D01*
X80524404Y-83548809D01*
X80572023Y-83644047D01*
X80572023Y-83786904D01*
X80524404Y-83882142D01*
X80476785Y-83929761D01*
X80381547Y-83977380D01*
X80000595Y-83977380D01*
X80000595Y-82977380D01*
X80333928Y-82977380D01*
X80429166Y-83025000D01*
X80476785Y-83072619D01*
X80524404Y-83167857D01*
X80524404Y-83263095D01*
X80476785Y-83358333D01*
X80429166Y-83405952D01*
X80333928Y-83453571D01*
X80000595Y-83453571D01*
X81143452Y-83977380D02*
X81048214Y-83929761D01*
X81000595Y-83882142D01*
X80952976Y-83786904D01*
X80952976Y-83501190D01*
X81000595Y-83405952D01*
X81048214Y-83358333D01*
X81143452Y-83310714D01*
X81286309Y-83310714D01*
X81381547Y-83358333D01*
X81429166Y-83405952D01*
X81476785Y-83501190D01*
X81476785Y-83786904D01*
X81429166Y-83882142D01*
X81381547Y-83929761D01*
X81286309Y-83977380D01*
X81143452Y-83977380D01*
X82048214Y-83977380D02*
X81952976Y-83929761D01*
X81905357Y-83882142D01*
X81857738Y-83786904D01*
X81857738Y-83501190D01*
X81905357Y-83405952D01*
X81952976Y-83358333D01*
X82048214Y-83310714D01*
X82191071Y-83310714D01*
X82286309Y-83358333D01*
X82333928Y-83405952D01*
X82381547Y-83501190D01*
X82381547Y-83786904D01*
X82333928Y-83882142D01*
X82286309Y-83929761D01*
X82191071Y-83977380D01*
X82048214Y-83977380D01*
X82762500Y-83929761D02*
X82857738Y-83977380D01*
X83048214Y-83977380D01*
X83143452Y-83929761D01*
X83191071Y-83834523D01*
X83191071Y-83786904D01*
X83143452Y-83691666D01*
X83048214Y-83644047D01*
X82905357Y-83644047D01*
X82810119Y-83596428D01*
X82762500Y-83501190D01*
X82762500Y-83453571D01*
X82810119Y-83358333D01*
X82905357Y-83310714D01*
X83048214Y-83310714D01*
X83143452Y-83358333D01*
X83476785Y-83310714D02*
X83857738Y-83310714D01*
X83619642Y-82977380D02*
X83619642Y-83834523D01*
X83667261Y-83929761D01*
X83762500Y-83977380D01*
X83857738Y-83977380D01*
X80191071Y-84727380D02*
X80381547Y-84727380D01*
X80476785Y-84775000D01*
X80572023Y-84870238D01*
X80619642Y-85060714D01*
X80619642Y-85394047D01*
X80572023Y-85584523D01*
X80476785Y-85679761D01*
X80381547Y-85727380D01*
X80191071Y-85727380D01*
X80095833Y-85679761D01*
X80000595Y-85584523D01*
X79952976Y-85394047D01*
X79952976Y-85060714D01*
X80000595Y-84870238D01*
X80095833Y-84775000D01*
X80191071Y-84727380D01*
X81476785Y-85060714D02*
X81476785Y-85727380D01*
X81048214Y-85060714D02*
X81048214Y-85584523D01*
X81095833Y-85679761D01*
X81191071Y-85727380D01*
X81333928Y-85727380D01*
X81429166Y-85679761D01*
X81476785Y-85632142D01*
X81810119Y-85060714D02*
X82191071Y-85060714D01*
X81952976Y-84727380D02*
X81952976Y-85584523D01*
X82000595Y-85679761D01*
X82095833Y-85727380D01*
X82191071Y-85727380D01*
X85338095Y-83000000D02*
X85242857Y-82952380D01*
X85100000Y-82952380D01*
X84957142Y-83000000D01*
X84861904Y-83095238D01*
X84814285Y-83190476D01*
X84766666Y-83380952D01*
X84766666Y-83523809D01*
X84814285Y-83714285D01*
X84861904Y-83809523D01*
X84957142Y-83904761D01*
X85100000Y-83952380D01*
X85195238Y-83952380D01*
X85338095Y-83904761D01*
X85385714Y-83857142D01*
X85385714Y-83523809D01*
X85195238Y-83523809D01*
X85814285Y-83952380D02*
X85814285Y-82952380D01*
X86385714Y-83952380D01*
X86385714Y-82952380D01*
X86861904Y-83952380D02*
X86861904Y-82952380D01*
X87100000Y-82952380D01*
X87242857Y-83000000D01*
X87338095Y-83095238D01*
X87385714Y-83190476D01*
X87433333Y-83380952D01*
X87433333Y-83523809D01*
X87385714Y-83714285D01*
X87338095Y-83809523D01*
X87242857Y-83904761D01*
X87100000Y-83952380D01*
X86861904Y-83952380D01*
D15*
X75858578Y-75290000D02*
X75341422Y-75290000D01*
X75858578Y-76710000D02*
X75341422Y-76710000D01*
X74550000Y-56450000D02*
X74550000Y-58350000D01*
X72650000Y-56450000D02*
X74550000Y-56450000D01*
X72650000Y-58350000D02*
X72650000Y-56450000D01*
X74550000Y-58350000D02*
X72650000Y-58350000D01*
X85150000Y-82450000D02*
X85150000Y-80550000D01*
X87050000Y-82450000D02*
X85150000Y-82450000D01*
X87050000Y-80550000D02*
X87050000Y-82450000D01*
X85150000Y-80550000D02*
X87050000Y-80550000D01*
X80150000Y-82450000D02*
X80150000Y-80550000D01*
X82050000Y-82450000D02*
X80150000Y-82450000D01*
X82050000Y-80550000D02*
X82050000Y-82450000D01*
X80150000Y-80550000D02*
X82050000Y-80550000D01*
X75350000Y-58350000D02*
X75350000Y-56450000D01*
X77250000Y-58350000D02*
X75350000Y-58350000D01*
X77250000Y-56450000D02*
X77250000Y-58350000D01*
X75350000Y-56450000D02*
X77250000Y-56450000D01*
X53150000Y-58050000D02*
X53150000Y-56150000D01*
X55050000Y-58050000D02*
X53150000Y-58050000D01*
X55050000Y-56150000D02*
X55050000Y-58050000D01*
X53150000Y-56150000D02*
X55050000Y-56150000D01*
X63900000Y-59050000D02*
X63900000Y-57150000D01*
X65800000Y-59050000D02*
X63900000Y-59050000D01*
X65800000Y-57150000D02*
X65800000Y-59050000D01*
X63900000Y-57150000D02*
X65800000Y-57150000D01*
X46625000Y-35025000D02*
X46625000Y-36925000D01*
X44725000Y-35025000D02*
X46625000Y-35025000D01*
X44725000Y-36925000D02*
X44725000Y-35025000D01*
X46625000Y-36925000D02*
X44725000Y-36925000D01*
X33086000Y-39304000D02*
X33086000Y-37404000D01*
X34986000Y-39304000D02*
X33086000Y-39304000D01*
X34986000Y-37404000D02*
X34986000Y-39304000D01*
X33086000Y-37404000D02*
X34986000Y-37404000D01*
X71695000Y-30350000D02*
X46995000Y-30350000D01*
X71695000Y-30350000D02*
X71695000Y-34850000D01*
X46995000Y-30350000D02*
X46995000Y-34850000D01*
X52345000Y-57350000D02*
X52345000Y-55350000D01*
X66345000Y-55350000D02*
X66345000Y-57350000D01*
X66345000Y-57350000D02*
X71715000Y-57350000D01*
X52345000Y-57350000D02*
X46995000Y-57350000D01*
X46975000Y-57350000D02*
X46975000Y-52850000D01*
X71715000Y-57350000D02*
X71715000Y-52850000D01*
X56758578Y-35190000D02*
X56241422Y-35190000D01*
X56758578Y-36610000D02*
X56241422Y-36610000D01*
X54485000Y-34940000D02*
X51800000Y-34940000D01*
X54485000Y-36860000D02*
X54485000Y-34940000D01*
X51800000Y-36860000D02*
X54485000Y-36860000D01*
X73550000Y-46900000D02*
X73650000Y-46900000D01*
X75150000Y-51300000D02*
X75150000Y-46900000D01*
X72050000Y-46900000D02*
X72050000Y-51300000D01*
X73550000Y-51300000D02*
X73650000Y-51300000D01*
X80720000Y-75550000D02*
X80720000Y-73010000D01*
X83260000Y-75550000D02*
X83260000Y-73010000D01*
X85800000Y-75550000D02*
X85800000Y-73010000D01*
X78140000Y-58480000D02*
X78140000Y-57280000D01*
X78140000Y-60880000D02*
X78140000Y-59680000D01*
X78140000Y-63280000D02*
X78140000Y-62080000D01*
X88380000Y-58480000D02*
X88380000Y-57280000D01*
X88380000Y-60880000D02*
X88380000Y-59680000D01*
X88380000Y-63280000D02*
X88380000Y-62080000D01*
X78780000Y-57120000D02*
X78140000Y-57120000D01*
X81180000Y-57120000D02*
X79980000Y-57120000D01*
X83580000Y-57120000D02*
X82380000Y-57120000D01*
X85981000Y-57120000D02*
X84780000Y-57120000D01*
X88380000Y-57120000D02*
X87180000Y-57120000D01*
X78140000Y-73010000D02*
X78140000Y-63520000D01*
X88380000Y-73010000D02*
X88380000Y-63520000D01*
X88380000Y-63520000D02*
X78140000Y-63520000D01*
X88380000Y-73010000D02*
X78140000Y-73010000D01*
X67310000Y-50091422D02*
X67310000Y-50608578D01*
X65890000Y-50091422D02*
X65890000Y-50608578D01*
D16*
X86220000Y-37600000D02*
X86220000Y-47600000D01*
X86220000Y-47600000D02*
X76220000Y-47600000D01*
X76220000Y-47600000D02*
X76220000Y-37600000D01*
X76220000Y-37600000D02*
X86220000Y-37600000D01*
X82720000Y-42600000D02*
G75*
G03X82720000Y-42600000I-1500000J0D01*
G01*
D15*
X48161252Y-48590000D02*
X47638748Y-48590000D01*
X48161252Y-50010000D02*
X47638748Y-50010000D01*
X44865000Y-37648000D02*
X42180000Y-37648000D01*
X44865000Y-39568000D02*
X44865000Y-37648000D01*
X42180000Y-39568000D02*
X44865000Y-39568000D01*
X38095422Y-39318000D02*
X38612578Y-39318000D01*
X38095422Y-37898000D02*
X38612578Y-37898000D01*
X37120000Y-32900000D02*
X37120000Y-31570000D01*
X37120000Y-31570000D02*
X38450000Y-31570000D01*
X39720000Y-31570000D02*
X44860000Y-31570000D01*
X44860000Y-34230000D02*
X44860000Y-31570000D01*
X39720000Y-34230000D02*
X44860000Y-34230000D01*
X39720000Y-34230000D02*
X39720000Y-31570000D01*
X68741422Y-78810000D02*
X69258578Y-78810000D01*
X68741422Y-77390000D02*
X69258578Y-77390000D01*
X69441422Y-50310000D02*
X69958578Y-50310000D01*
X69441422Y-48890000D02*
X69958578Y-48890000D01*
X60670000Y-35271422D02*
X60670000Y-35788578D01*
X62090000Y-35271422D02*
X62090000Y-35788578D01*
X55570000Y-45831422D02*
X55570000Y-46348578D01*
X56990000Y-45831422D02*
X56990000Y-46348578D01*
X53190000Y-45781422D02*
X53190000Y-46298578D01*
X54610000Y-45781422D02*
X54610000Y-46298578D01*
X57603922Y-39310000D02*
X58121078Y-39310000D01*
X57603922Y-37890000D02*
X58121078Y-37890000D01*
X71748578Y-38190000D02*
X71231422Y-38190000D01*
X71748578Y-39610000D02*
X71231422Y-39610000D01*
X69441422Y-48140000D02*
X69958578Y-48140000D01*
X69441422Y-46720000D02*
X69958578Y-46720000D01*
X51794000Y-37336000D02*
X51794000Y-43086000D01*
X55394000Y-37336000D02*
X51794000Y-37336000D01*
X55394000Y-43086000D02*
X55394000Y-37336000D01*
X50130000Y-45960000D02*
X50130000Y-46060000D01*
X45730000Y-47560000D02*
X50130000Y-47560000D01*
X50130000Y-44460000D02*
X45730000Y-44460000D01*
X45730000Y-45960000D02*
X45730000Y-46060000D01*
X71758578Y-40390000D02*
X71241422Y-40390000D01*
X71758578Y-41810000D02*
X71241422Y-41810000D01*
X64510000Y-50958578D02*
X64510000Y-50441422D01*
X63090000Y-50958578D02*
X63090000Y-50441422D01*
X60890000Y-50441422D02*
X60890000Y-50958578D01*
X62310000Y-50441422D02*
X62310000Y-50958578D01*
X58290000Y-50091422D02*
X58290000Y-50608578D01*
X59710000Y-50091422D02*
X59710000Y-50608578D01*
X62310000Y-55408578D02*
X62310000Y-54891422D01*
X60890000Y-55408578D02*
X60890000Y-54891422D01*
X54910000Y-50208578D02*
X54910000Y-49691422D01*
X53490000Y-50208578D02*
X53490000Y-49691422D01*
X49788578Y-41200000D02*
X49271422Y-41200000D01*
X49788578Y-42620000D02*
X49271422Y-42620000D01*
X49788578Y-37898000D02*
X49271422Y-37898000D01*
X49788578Y-39318000D02*
X49271422Y-39318000D01*
X45295078Y-41200000D02*
X44777922Y-41200000D01*
X45295078Y-42620000D02*
X44777922Y-42620000D01*
X52760000Y-50208578D02*
X52760000Y-49691422D01*
X51340000Y-50208578D02*
X51340000Y-49691422D01*
X57510000Y-50608578D02*
X57510000Y-50091422D01*
X56090000Y-50608578D02*
X56090000Y-50091422D01*
X64510000Y-55408578D02*
X64510000Y-54891422D01*
X63090000Y-55408578D02*
X63090000Y-54891422D01*
X60100000Y-39790000D02*
X58810000Y-39790000D01*
X60100000Y-39340000D02*
X60100000Y-39790000D01*
X60550000Y-39340000D02*
X60100000Y-39340000D01*
X67320000Y-39340000D02*
X67320000Y-39790000D01*
X66870000Y-39340000D02*
X67320000Y-39340000D01*
X60100000Y-46560000D02*
X60100000Y-46110000D01*
X60550000Y-46560000D02*
X60100000Y-46560000D01*
X67320000Y-46560000D02*
X67320000Y-46110000D01*
X66870000Y-46560000D02*
X67320000Y-46560000D01*
X60646000Y-79035241D02*
X61276000Y-79035241D01*
X60961000Y-79350241D02*
X60961000Y-78720241D01*
X62398000Y-72609000D02*
X63202000Y-72609000D01*
X62167000Y-72649000D02*
X63433000Y-72649000D01*
X61998000Y-72689000D02*
X63602000Y-72689000D01*
X61860000Y-72729000D02*
X63740000Y-72729000D01*
X61741000Y-72769000D02*
X63859000Y-72769000D01*
X61635000Y-72809000D02*
X63965000Y-72809000D01*
X61538000Y-72849000D02*
X64062000Y-72849000D01*
X61450000Y-72889000D02*
X64150000Y-72889000D01*
X61368000Y-72929000D02*
X64232000Y-72929000D01*
X61291000Y-72969000D02*
X64309000Y-72969000D01*
X61219000Y-73009000D02*
X64381000Y-73009000D01*
X61150000Y-73049000D02*
X64450000Y-73049000D01*
X61086000Y-73089000D02*
X64514000Y-73089000D01*
X61024000Y-73129000D02*
X64576000Y-73129000D01*
X60966000Y-73169000D02*
X64634000Y-73169000D01*
X60910000Y-73209000D02*
X64690000Y-73209000D01*
X60856000Y-73249000D02*
X64744000Y-73249000D01*
X60805000Y-73289000D02*
X64795000Y-73289000D01*
X60756000Y-73329000D02*
X64844000Y-73329000D01*
X60708000Y-73369000D02*
X64892000Y-73369000D01*
X60663000Y-73409000D02*
X64937000Y-73409000D01*
X60618000Y-73449000D02*
X64982000Y-73449000D01*
X60576000Y-73489000D02*
X65024000Y-73489000D01*
X60535000Y-73529000D02*
X65065000Y-73529000D01*
X63840000Y-73569000D02*
X65105000Y-73569000D01*
X60495000Y-73569000D02*
X61760000Y-73569000D01*
X63840000Y-73609000D02*
X65143000Y-73609000D01*
X60457000Y-73609000D02*
X61760000Y-73609000D01*
X63840000Y-73649000D02*
X65180000Y-73649000D01*
X60420000Y-73649000D02*
X61760000Y-73649000D01*
X63840000Y-73689000D02*
X65216000Y-73689000D01*
X60384000Y-73689000D02*
X61760000Y-73689000D01*
X63840000Y-73729000D02*
X65250000Y-73729000D01*
X60350000Y-73729000D02*
X61760000Y-73729000D01*
X63840000Y-73769000D02*
X65284000Y-73769000D01*
X60316000Y-73769000D02*
X61760000Y-73769000D01*
X63840000Y-73809000D02*
X65316000Y-73809000D01*
X60284000Y-73809000D02*
X61760000Y-73809000D01*
X63840000Y-73849000D02*
X65348000Y-73849000D01*
X60252000Y-73849000D02*
X61760000Y-73849000D01*
X63840000Y-73889000D02*
X65378000Y-73889000D01*
X60222000Y-73889000D02*
X61760000Y-73889000D01*
X63840000Y-73929000D02*
X65407000Y-73929000D01*
X60193000Y-73929000D02*
X61760000Y-73929000D01*
X63840000Y-73969000D02*
X65436000Y-73969000D01*
X60164000Y-73969000D02*
X61760000Y-73969000D01*
X63840000Y-74009000D02*
X65464000Y-74009000D01*
X60136000Y-74009000D02*
X61760000Y-74009000D01*
X63840000Y-74049000D02*
X65490000Y-74049000D01*
X60110000Y-74049000D02*
X61760000Y-74049000D01*
X63840000Y-74089000D02*
X65516000Y-74089000D01*
X60084000Y-74089000D02*
X61760000Y-74089000D01*
X63840000Y-74129000D02*
X65542000Y-74129000D01*
X60058000Y-74129000D02*
X61760000Y-74129000D01*
X63840000Y-74169000D02*
X65566000Y-74169000D01*
X60034000Y-74169000D02*
X61760000Y-74169000D01*
X63840000Y-74209000D02*
X65590000Y-74209000D01*
X60010000Y-74209000D02*
X61760000Y-74209000D01*
X63840000Y-74249000D02*
X65612000Y-74249000D01*
X59988000Y-74249000D02*
X61760000Y-74249000D01*
X63840000Y-74289000D02*
X65634000Y-74289000D01*
X59966000Y-74289000D02*
X61760000Y-74289000D01*
X63840000Y-74329000D02*
X65656000Y-74329000D01*
X59944000Y-74329000D02*
X61760000Y-74329000D01*
X63840000Y-74369000D02*
X65676000Y-74369000D01*
X59924000Y-74369000D02*
X61760000Y-74369000D01*
X63840000Y-74409000D02*
X65696000Y-74409000D01*
X59904000Y-74409000D02*
X61760000Y-74409000D01*
X63840000Y-74449000D02*
X65716000Y-74449000D01*
X59884000Y-74449000D02*
X61760000Y-74449000D01*
X63840000Y-74489000D02*
X65734000Y-74489000D01*
X59866000Y-74489000D02*
X61760000Y-74489000D01*
X63840000Y-74529000D02*
X65752000Y-74529000D01*
X59848000Y-74529000D02*
X61760000Y-74529000D01*
X63840000Y-74569000D02*
X65770000Y-74569000D01*
X59830000Y-74569000D02*
X61760000Y-74569000D01*
X63840000Y-74609000D02*
X65786000Y-74609000D01*
X59814000Y-74609000D02*
X61760000Y-74609000D01*
X63840000Y-74649000D02*
X65802000Y-74649000D01*
X59798000Y-74649000D02*
X61760000Y-74649000D01*
X63840000Y-74689000D02*
X65818000Y-74689000D01*
X59782000Y-74689000D02*
X61760000Y-74689000D01*
X63840000Y-74729000D02*
X65833000Y-74729000D01*
X59767000Y-74729000D02*
X61760000Y-74729000D01*
X63840000Y-74769000D02*
X65847000Y-74769000D01*
X59753000Y-74769000D02*
X61760000Y-74769000D01*
X63840000Y-74809000D02*
X65861000Y-74809000D01*
X59739000Y-74809000D02*
X61760000Y-74809000D01*
X63840000Y-74849000D02*
X65874000Y-74849000D01*
X59726000Y-74849000D02*
X61760000Y-74849000D01*
X63840000Y-74889000D02*
X65886000Y-74889000D01*
X59714000Y-74889000D02*
X61760000Y-74889000D01*
X63840000Y-74929000D02*
X65898000Y-74929000D01*
X59702000Y-74929000D02*
X61760000Y-74929000D01*
X63840000Y-74969000D02*
X65910000Y-74969000D01*
X59690000Y-74969000D02*
X61760000Y-74969000D01*
X63840000Y-75009000D02*
X65921000Y-75009000D01*
X59679000Y-75009000D02*
X61760000Y-75009000D01*
X63840000Y-75049000D02*
X65931000Y-75049000D01*
X59669000Y-75049000D02*
X61760000Y-75049000D01*
X63840000Y-75089000D02*
X65941000Y-75089000D01*
X59659000Y-75089000D02*
X61760000Y-75089000D01*
X63840000Y-75129000D02*
X65950000Y-75129000D01*
X59650000Y-75129000D02*
X61760000Y-75129000D01*
X63840000Y-75170000D02*
X65959000Y-75170000D01*
X59641000Y-75170000D02*
X61760000Y-75170000D01*
X63840000Y-75210000D02*
X65967000Y-75210000D01*
X59633000Y-75210000D02*
X61760000Y-75210000D01*
X63840000Y-75250000D02*
X65975000Y-75250000D01*
X59625000Y-75250000D02*
X61760000Y-75250000D01*
X63840000Y-75290000D02*
X65982000Y-75290000D01*
X59618000Y-75290000D02*
X61760000Y-75290000D01*
X63840000Y-75330000D02*
X65989000Y-75330000D01*
X59611000Y-75330000D02*
X61760000Y-75330000D01*
X63840000Y-75370000D02*
X65995000Y-75370000D01*
X59605000Y-75370000D02*
X61760000Y-75370000D01*
X63840000Y-75410000D02*
X66001000Y-75410000D01*
X59599000Y-75410000D02*
X61760000Y-75410000D01*
X63840000Y-75450000D02*
X66006000Y-75450000D01*
X59594000Y-75450000D02*
X61760000Y-75450000D01*
X63840000Y-75490000D02*
X66011000Y-75490000D01*
X59589000Y-75490000D02*
X61760000Y-75490000D01*
X63840000Y-75530000D02*
X66015000Y-75530000D01*
X59585000Y-75530000D02*
X61760000Y-75530000D01*
X63840000Y-75570000D02*
X66018000Y-75570000D01*
X59582000Y-75570000D02*
X61760000Y-75570000D01*
X63840000Y-75610000D02*
X66022000Y-75610000D01*
X59578000Y-75610000D02*
X61760000Y-75610000D01*
X59576000Y-75650000D02*
X66024000Y-75650000D01*
X59573000Y-75690000D02*
X66027000Y-75690000D01*
X59572000Y-75730000D02*
X66028000Y-75730000D01*
X59570000Y-75770000D02*
X66030000Y-75770000D01*
X59570000Y-75810000D02*
X66030000Y-75810000D01*
X59570000Y-75850000D02*
X66030000Y-75850000D01*
X66070000Y-75850000D02*
G75*
G03X66070000Y-75850000I-3270000J0D01*
G01*
X31825000Y-80879646D02*
X32825000Y-80879646D01*
X32325000Y-81379646D02*
X32325000Y-80379646D01*
X34601000Y-70819000D02*
X35799000Y-70819000D01*
X34338000Y-70859000D02*
X36062000Y-70859000D01*
X34138000Y-70899000D02*
X36262000Y-70899000D01*
X33970000Y-70939000D02*
X36430000Y-70939000D01*
X33822000Y-70979000D02*
X36578000Y-70979000D01*
X33690000Y-71019000D02*
X36710000Y-71019000D01*
X33570000Y-71059000D02*
X36830000Y-71059000D01*
X33458000Y-71099000D02*
X36942000Y-71099000D01*
X33354000Y-71139000D02*
X37046000Y-71139000D01*
X33256000Y-71179000D02*
X37144000Y-71179000D01*
X33163000Y-71219000D02*
X37237000Y-71219000D01*
X33075000Y-71259000D02*
X37325000Y-71259000D01*
X32991000Y-71299000D02*
X37409000Y-71299000D01*
X32911000Y-71339000D02*
X37489000Y-71339000D01*
X32835000Y-71379000D02*
X37565000Y-71379000D01*
X32761000Y-71419000D02*
X37639000Y-71419000D01*
X32690000Y-71459000D02*
X37710000Y-71459000D01*
X32621000Y-71499000D02*
X37779000Y-71499000D01*
X32555000Y-71539000D02*
X37845000Y-71539000D01*
X32491000Y-71579000D02*
X37909000Y-71579000D01*
X32430000Y-71619000D02*
X37970000Y-71619000D01*
X32370000Y-71659000D02*
X38030000Y-71659000D01*
X32311000Y-71699000D02*
X38089000Y-71699000D01*
X32255000Y-71739000D02*
X38145000Y-71739000D01*
X32200000Y-71779000D02*
X38200000Y-71779000D01*
X32146000Y-71819000D02*
X38254000Y-71819000D01*
X32094000Y-71859000D02*
X38306000Y-71859000D01*
X32044000Y-71899000D02*
X38356000Y-71899000D01*
X31994000Y-71939000D02*
X38406000Y-71939000D01*
X31946000Y-71979000D02*
X38454000Y-71979000D01*
X31899000Y-72019000D02*
X38501000Y-72019000D01*
X31853000Y-72059000D02*
X38547000Y-72059000D01*
X31808000Y-72099000D02*
X38592000Y-72099000D01*
X31764000Y-72139000D02*
X38636000Y-72139000D01*
X36441000Y-72179000D02*
X38678000Y-72179000D01*
X31722000Y-72179000D02*
X33959000Y-72179000D01*
X36441000Y-72219000D02*
X38720000Y-72219000D01*
X31680000Y-72219000D02*
X33959000Y-72219000D01*
X36441000Y-72259000D02*
X38761000Y-72259000D01*
X31639000Y-72259000D02*
X33959000Y-72259000D01*
X36441000Y-72299000D02*
X38801000Y-72299000D01*
X31599000Y-72299000D02*
X33959000Y-72299000D01*
X36441000Y-72339000D02*
X38840000Y-72339000D01*
X31560000Y-72339000D02*
X33959000Y-72339000D01*
X36441000Y-72379000D02*
X38879000Y-72379000D01*
X31521000Y-72379000D02*
X33959000Y-72379000D01*
X36441000Y-72419000D02*
X38916000Y-72419000D01*
X31484000Y-72419000D02*
X33959000Y-72419000D01*
X36441000Y-72459000D02*
X38953000Y-72459000D01*
X31447000Y-72459000D02*
X33959000Y-72459000D01*
X36441000Y-72499000D02*
X38989000Y-72499000D01*
X31411000Y-72499000D02*
X33959000Y-72499000D01*
X36441000Y-72539000D02*
X39024000Y-72539000D01*
X31376000Y-72539000D02*
X33959000Y-72539000D01*
X36441000Y-72579000D02*
X39058000Y-72579000D01*
X31342000Y-72579000D02*
X33959000Y-72579000D01*
X36441000Y-72619000D02*
X39092000Y-72619000D01*
X31308000Y-72619000D02*
X33959000Y-72619000D01*
X36441000Y-72659000D02*
X39125000Y-72659000D01*
X31275000Y-72659000D02*
X33959000Y-72659000D01*
X36441000Y-72699000D02*
X39157000Y-72699000D01*
X31243000Y-72699000D02*
X33959000Y-72699000D01*
X36441000Y-72739000D02*
X39189000Y-72739000D01*
X31211000Y-72739000D02*
X33959000Y-72739000D01*
X36441000Y-72779000D02*
X39220000Y-72779000D01*
X31180000Y-72779000D02*
X33959000Y-72779000D01*
X36441000Y-72819000D02*
X39250000Y-72819000D01*
X31150000Y-72819000D02*
X33959000Y-72819000D01*
X36441000Y-72859000D02*
X39280000Y-72859000D01*
X31120000Y-72859000D02*
X33959000Y-72859000D01*
X36441000Y-72899000D02*
X39310000Y-72899000D01*
X31090000Y-72899000D02*
X33959000Y-72899000D01*
X36441000Y-72939000D02*
X39338000Y-72939000D01*
X31062000Y-72939000D02*
X33959000Y-72939000D01*
X36441000Y-72979000D02*
X39366000Y-72979000D01*
X31034000Y-72979000D02*
X33959000Y-72979000D01*
X36441000Y-73019000D02*
X39394000Y-73019000D01*
X31006000Y-73019000D02*
X33959000Y-73019000D01*
X36441000Y-73059000D02*
X39421000Y-73059000D01*
X30979000Y-73059000D02*
X33959000Y-73059000D01*
X36441000Y-73099000D02*
X39447000Y-73099000D01*
X30953000Y-73099000D02*
X33959000Y-73099000D01*
X36441000Y-73139000D02*
X39473000Y-73139000D01*
X30927000Y-73139000D02*
X33959000Y-73139000D01*
X36441000Y-73179000D02*
X39498000Y-73179000D01*
X30902000Y-73179000D02*
X33959000Y-73179000D01*
X36441000Y-73219000D02*
X39523000Y-73219000D01*
X30877000Y-73219000D02*
X33959000Y-73219000D01*
X36441000Y-73259000D02*
X39547000Y-73259000D01*
X30853000Y-73259000D02*
X33959000Y-73259000D01*
X36441000Y-73299000D02*
X39571000Y-73299000D01*
X30829000Y-73299000D02*
X33959000Y-73299000D01*
X36441000Y-73339000D02*
X39595000Y-73339000D01*
X30805000Y-73339000D02*
X33959000Y-73339000D01*
X36441000Y-73379000D02*
X39617000Y-73379000D01*
X30783000Y-73379000D02*
X33959000Y-73379000D01*
X36441000Y-73419000D02*
X39640000Y-73419000D01*
X30760000Y-73419000D02*
X33959000Y-73419000D01*
X36441000Y-73459000D02*
X39662000Y-73459000D01*
X30738000Y-73459000D02*
X33959000Y-73459000D01*
X36441000Y-73499000D02*
X39683000Y-73499000D01*
X30717000Y-73499000D02*
X33959000Y-73499000D01*
X36441000Y-73539000D02*
X39704000Y-73539000D01*
X30696000Y-73539000D02*
X33959000Y-73539000D01*
X36441000Y-73579000D02*
X39725000Y-73579000D01*
X30675000Y-73579000D02*
X33959000Y-73579000D01*
X36441000Y-73619000D02*
X39745000Y-73619000D01*
X30655000Y-73619000D02*
X33959000Y-73619000D01*
X36441000Y-73659000D02*
X39764000Y-73659000D01*
X30636000Y-73659000D02*
X33959000Y-73659000D01*
X36441000Y-73699000D02*
X39784000Y-73699000D01*
X30616000Y-73699000D02*
X33959000Y-73699000D01*
X36441000Y-73739000D02*
X39803000Y-73739000D01*
X30597000Y-73739000D02*
X33959000Y-73739000D01*
X36441000Y-73779000D02*
X39821000Y-73779000D01*
X30579000Y-73779000D02*
X33959000Y-73779000D01*
X36441000Y-73819000D02*
X39839000Y-73819000D01*
X30561000Y-73819000D02*
X33959000Y-73819000D01*
X36441000Y-73859000D02*
X39857000Y-73859000D01*
X30543000Y-73859000D02*
X33959000Y-73859000D01*
X36441000Y-73899000D02*
X39874000Y-73899000D01*
X30526000Y-73899000D02*
X33959000Y-73899000D01*
X36441000Y-73939000D02*
X39890000Y-73939000D01*
X30510000Y-73939000D02*
X33959000Y-73939000D01*
X36441000Y-73979000D02*
X39907000Y-73979000D01*
X30493000Y-73979000D02*
X33959000Y-73979000D01*
X36441000Y-74019000D02*
X39923000Y-74019000D01*
X30477000Y-74019000D02*
X33959000Y-74019000D01*
X36441000Y-74059000D02*
X39938000Y-74059000D01*
X30462000Y-74059000D02*
X33959000Y-74059000D01*
X36441000Y-74099000D02*
X39954000Y-74099000D01*
X30446000Y-74099000D02*
X33959000Y-74099000D01*
X36441000Y-74139000D02*
X39968000Y-74139000D01*
X30432000Y-74139000D02*
X33959000Y-74139000D01*
X36441000Y-74179000D02*
X39983000Y-74179000D01*
X30417000Y-74179000D02*
X33959000Y-74179000D01*
X36441000Y-74219000D02*
X39997000Y-74219000D01*
X30403000Y-74219000D02*
X33959000Y-74219000D01*
X36441000Y-74259000D02*
X40011000Y-74259000D01*
X30389000Y-74259000D02*
X33959000Y-74259000D01*
X36441000Y-74299000D02*
X40024000Y-74299000D01*
X30376000Y-74299000D02*
X33959000Y-74299000D01*
X36441000Y-74339000D02*
X40037000Y-74339000D01*
X30363000Y-74339000D02*
X33959000Y-74339000D01*
X36441000Y-74379000D02*
X40050000Y-74379000D01*
X30350000Y-74379000D02*
X33959000Y-74379000D01*
X36441000Y-74419000D02*
X40062000Y-74419000D01*
X30338000Y-74419000D02*
X33959000Y-74419000D01*
X36441000Y-74459000D02*
X40074000Y-74459000D01*
X30326000Y-74459000D02*
X33959000Y-74459000D01*
X36441000Y-74499000D02*
X40085000Y-74499000D01*
X30315000Y-74499000D02*
X33959000Y-74499000D01*
X36441000Y-74539000D02*
X40097000Y-74539000D01*
X30303000Y-74539000D02*
X33959000Y-74539000D01*
X36441000Y-74579000D02*
X40107000Y-74579000D01*
X30293000Y-74579000D02*
X33959000Y-74579000D01*
X36441000Y-74619000D02*
X40118000Y-74619000D01*
X30282000Y-74619000D02*
X33959000Y-74619000D01*
X30272000Y-74659000D02*
X40128000Y-74659000D01*
X30262000Y-74699000D02*
X40138000Y-74699000D01*
X30253000Y-74739000D02*
X40147000Y-74739000D01*
X30244000Y-74779000D02*
X40156000Y-74779000D01*
X30235000Y-74819000D02*
X40165000Y-74819000D01*
X30226000Y-74859000D02*
X40174000Y-74859000D01*
X30218000Y-74899000D02*
X40182000Y-74899000D01*
X30210000Y-74939000D02*
X40190000Y-74939000D01*
X30203000Y-74979000D02*
X40197000Y-74979000D01*
X30196000Y-75019000D02*
X40204000Y-75019000D01*
X30189000Y-75059000D02*
X40211000Y-75059000D01*
X30182000Y-75099000D02*
X40218000Y-75099000D01*
X30176000Y-75139000D02*
X40224000Y-75139000D01*
X30170000Y-75179000D02*
X40230000Y-75179000D01*
X30165000Y-75220000D02*
X40235000Y-75220000D01*
X30160000Y-75260000D02*
X40240000Y-75260000D01*
X30155000Y-75300000D02*
X40245000Y-75300000D01*
X30150000Y-75340000D02*
X40250000Y-75340000D01*
X30146000Y-75380000D02*
X40254000Y-75380000D01*
X30142000Y-75420000D02*
X40258000Y-75420000D01*
X30138000Y-75460000D02*
X40262000Y-75460000D01*
X30135000Y-75500000D02*
X40265000Y-75500000D01*
X30132000Y-75540000D02*
X40268000Y-75540000D01*
X30130000Y-75580000D02*
X40270000Y-75580000D01*
X30127000Y-75620000D02*
X40273000Y-75620000D01*
X30125000Y-75660000D02*
X40275000Y-75660000D01*
X30123000Y-75700000D02*
X40277000Y-75700000D01*
X30122000Y-75740000D02*
X40278000Y-75740000D01*
X30121000Y-75780000D02*
X40279000Y-75780000D01*
X30120000Y-75820000D02*
X40280000Y-75820000D01*
X30120000Y-75860000D02*
X40280000Y-75860000D01*
X30120000Y-75900000D02*
X40280000Y-75900000D01*
X40320000Y-75900000D02*
G75*
G03X40320000Y-75900000I-5120000J0D01*
G01*
X62025000Y-57970354D02*
X61025000Y-57970354D01*
X61525000Y-57470354D02*
X61525000Y-58470354D01*
X59249000Y-68031000D02*
X58051000Y-68031000D01*
X59512000Y-67991000D02*
X57788000Y-67991000D01*
X59712000Y-67951000D02*
X57588000Y-67951000D01*
X59880000Y-67911000D02*
X57420000Y-67911000D01*
X60028000Y-67871000D02*
X57272000Y-67871000D01*
X60160000Y-67831000D02*
X57140000Y-67831000D01*
X60280000Y-67791000D02*
X57020000Y-67791000D01*
X60392000Y-67751000D02*
X56908000Y-67751000D01*
X60496000Y-67711000D02*
X56804000Y-67711000D01*
X60594000Y-67671000D02*
X56706000Y-67671000D01*
X60687000Y-67631000D02*
X56613000Y-67631000D01*
X60775000Y-67591000D02*
X56525000Y-67591000D01*
X60859000Y-67551000D02*
X56441000Y-67551000D01*
X60939000Y-67511000D02*
X56361000Y-67511000D01*
X61015000Y-67471000D02*
X56285000Y-67471000D01*
X61089000Y-67431000D02*
X56211000Y-67431000D01*
X61160000Y-67391000D02*
X56140000Y-67391000D01*
X61229000Y-67351000D02*
X56071000Y-67351000D01*
X61295000Y-67311000D02*
X56005000Y-67311000D01*
X61359000Y-67271000D02*
X55941000Y-67271000D01*
X61420000Y-67231000D02*
X55880000Y-67231000D01*
X61480000Y-67191000D02*
X55820000Y-67191000D01*
X61539000Y-67151000D02*
X55761000Y-67151000D01*
X61595000Y-67111000D02*
X55705000Y-67111000D01*
X61650000Y-67071000D02*
X55650000Y-67071000D01*
X61704000Y-67031000D02*
X55596000Y-67031000D01*
X61756000Y-66991000D02*
X55544000Y-66991000D01*
X61806000Y-66951000D02*
X55494000Y-66951000D01*
X61856000Y-66911000D02*
X55444000Y-66911000D01*
X61904000Y-66871000D02*
X55396000Y-66871000D01*
X61951000Y-66831000D02*
X55349000Y-66831000D01*
X61997000Y-66791000D02*
X55303000Y-66791000D01*
X62042000Y-66751000D02*
X55258000Y-66751000D01*
X62086000Y-66711000D02*
X55214000Y-66711000D01*
X57409000Y-66671000D02*
X55172000Y-66671000D01*
X62128000Y-66671000D02*
X59891000Y-66671000D01*
X57409000Y-66631000D02*
X55130000Y-66631000D01*
X62170000Y-66631000D02*
X59891000Y-66631000D01*
X57409000Y-66591000D02*
X55089000Y-66591000D01*
X62211000Y-66591000D02*
X59891000Y-66591000D01*
X57409000Y-66551000D02*
X55049000Y-66551000D01*
X62251000Y-66551000D02*
X59891000Y-66551000D01*
X57409000Y-66511000D02*
X55010000Y-66511000D01*
X62290000Y-66511000D02*
X59891000Y-66511000D01*
X57409000Y-66471000D02*
X54971000Y-66471000D01*
X62329000Y-66471000D02*
X59891000Y-66471000D01*
X57409000Y-66431000D02*
X54934000Y-66431000D01*
X62366000Y-66431000D02*
X59891000Y-66431000D01*
X57409000Y-66391000D02*
X54897000Y-66391000D01*
X62403000Y-66391000D02*
X59891000Y-66391000D01*
X57409000Y-66351000D02*
X54861000Y-66351000D01*
X62439000Y-66351000D02*
X59891000Y-66351000D01*
X57409000Y-66311000D02*
X54826000Y-66311000D01*
X62474000Y-66311000D02*
X59891000Y-66311000D01*
X57409000Y-66271000D02*
X54792000Y-66271000D01*
X62508000Y-66271000D02*
X59891000Y-66271000D01*
X57409000Y-66231000D02*
X54758000Y-66231000D01*
X62542000Y-66231000D02*
X59891000Y-66231000D01*
X57409000Y-66191000D02*
X54725000Y-66191000D01*
X62575000Y-66191000D02*
X59891000Y-66191000D01*
X57409000Y-66151000D02*
X54693000Y-66151000D01*
X62607000Y-66151000D02*
X59891000Y-66151000D01*
X57409000Y-66111000D02*
X54661000Y-66111000D01*
X62639000Y-66111000D02*
X59891000Y-66111000D01*
X57409000Y-66071000D02*
X54630000Y-66071000D01*
X62670000Y-66071000D02*
X59891000Y-66071000D01*
X57409000Y-66031000D02*
X54600000Y-66031000D01*
X62700000Y-66031000D02*
X59891000Y-66031000D01*
X57409000Y-65991000D02*
X54570000Y-65991000D01*
X62730000Y-65991000D02*
X59891000Y-65991000D01*
X57409000Y-65951000D02*
X54540000Y-65951000D01*
X62760000Y-65951000D02*
X59891000Y-65951000D01*
X57409000Y-65911000D02*
X54512000Y-65911000D01*
X62788000Y-65911000D02*
X59891000Y-65911000D01*
X57409000Y-65871000D02*
X54484000Y-65871000D01*
X62816000Y-65871000D02*
X59891000Y-65871000D01*
X57409000Y-65831000D02*
X54456000Y-65831000D01*
X62844000Y-65831000D02*
X59891000Y-65831000D01*
X57409000Y-65791000D02*
X54429000Y-65791000D01*
X62871000Y-65791000D02*
X59891000Y-65791000D01*
X57409000Y-65751000D02*
X54403000Y-65751000D01*
X62897000Y-65751000D02*
X59891000Y-65751000D01*
X57409000Y-65711000D02*
X54377000Y-65711000D01*
X62923000Y-65711000D02*
X59891000Y-65711000D01*
X57409000Y-65671000D02*
X54352000Y-65671000D01*
X62948000Y-65671000D02*
X59891000Y-65671000D01*
X57409000Y-65631000D02*
X54327000Y-65631000D01*
X62973000Y-65631000D02*
X59891000Y-65631000D01*
X57409000Y-65591000D02*
X54303000Y-65591000D01*
X62997000Y-65591000D02*
X59891000Y-65591000D01*
X57409000Y-65551000D02*
X54279000Y-65551000D01*
X63021000Y-65551000D02*
X59891000Y-65551000D01*
X57409000Y-65511000D02*
X54255000Y-65511000D01*
X63045000Y-65511000D02*
X59891000Y-65511000D01*
X57409000Y-65471000D02*
X54233000Y-65471000D01*
X63067000Y-65471000D02*
X59891000Y-65471000D01*
X57409000Y-65431000D02*
X54210000Y-65431000D01*
X63090000Y-65431000D02*
X59891000Y-65431000D01*
X57409000Y-65391000D02*
X54188000Y-65391000D01*
X63112000Y-65391000D02*
X59891000Y-65391000D01*
X57409000Y-65351000D02*
X54167000Y-65351000D01*
X63133000Y-65351000D02*
X59891000Y-65351000D01*
X57409000Y-65311000D02*
X54146000Y-65311000D01*
X63154000Y-65311000D02*
X59891000Y-65311000D01*
X57409000Y-65271000D02*
X54125000Y-65271000D01*
X63175000Y-65271000D02*
X59891000Y-65271000D01*
X57409000Y-65231000D02*
X54105000Y-65231000D01*
X63195000Y-65231000D02*
X59891000Y-65231000D01*
X57409000Y-65191000D02*
X54086000Y-65191000D01*
X63214000Y-65191000D02*
X59891000Y-65191000D01*
X57409000Y-65151000D02*
X54066000Y-65151000D01*
X63234000Y-65151000D02*
X59891000Y-65151000D01*
X57409000Y-65111000D02*
X54047000Y-65111000D01*
X63253000Y-65111000D02*
X59891000Y-65111000D01*
X57409000Y-65071000D02*
X54029000Y-65071000D01*
X63271000Y-65071000D02*
X59891000Y-65071000D01*
X57409000Y-65031000D02*
X54011000Y-65031000D01*
X63289000Y-65031000D02*
X59891000Y-65031000D01*
X57409000Y-64991000D02*
X53993000Y-64991000D01*
X63307000Y-64991000D02*
X59891000Y-64991000D01*
X57409000Y-64951000D02*
X53976000Y-64951000D01*
X63324000Y-64951000D02*
X59891000Y-64951000D01*
X57409000Y-64911000D02*
X53960000Y-64911000D01*
X63340000Y-64911000D02*
X59891000Y-64911000D01*
X57409000Y-64871000D02*
X53943000Y-64871000D01*
X63357000Y-64871000D02*
X59891000Y-64871000D01*
X57409000Y-64831000D02*
X53927000Y-64831000D01*
X63373000Y-64831000D02*
X59891000Y-64831000D01*
X57409000Y-64791000D02*
X53912000Y-64791000D01*
X63388000Y-64791000D02*
X59891000Y-64791000D01*
X57409000Y-64751000D02*
X53896000Y-64751000D01*
X63404000Y-64751000D02*
X59891000Y-64751000D01*
X57409000Y-64711000D02*
X53882000Y-64711000D01*
X63418000Y-64711000D02*
X59891000Y-64711000D01*
X57409000Y-64671000D02*
X53867000Y-64671000D01*
X63433000Y-64671000D02*
X59891000Y-64671000D01*
X57409000Y-64631000D02*
X53853000Y-64631000D01*
X63447000Y-64631000D02*
X59891000Y-64631000D01*
X57409000Y-64591000D02*
X53839000Y-64591000D01*
X63461000Y-64591000D02*
X59891000Y-64591000D01*
X57409000Y-64551000D02*
X53826000Y-64551000D01*
X63474000Y-64551000D02*
X59891000Y-64551000D01*
X57409000Y-64511000D02*
X53813000Y-64511000D01*
X63487000Y-64511000D02*
X59891000Y-64511000D01*
X57409000Y-64471000D02*
X53800000Y-64471000D01*
X63500000Y-64471000D02*
X59891000Y-64471000D01*
X57409000Y-64431000D02*
X53788000Y-64431000D01*
X63512000Y-64431000D02*
X59891000Y-64431000D01*
X57409000Y-64391000D02*
X53776000Y-64391000D01*
X63524000Y-64391000D02*
X59891000Y-64391000D01*
X57409000Y-64351000D02*
X53765000Y-64351000D01*
X63535000Y-64351000D02*
X59891000Y-64351000D01*
X57409000Y-64311000D02*
X53753000Y-64311000D01*
X63547000Y-64311000D02*
X59891000Y-64311000D01*
X57409000Y-64271000D02*
X53743000Y-64271000D01*
X63557000Y-64271000D02*
X59891000Y-64271000D01*
X57409000Y-64231000D02*
X53732000Y-64231000D01*
X63568000Y-64231000D02*
X59891000Y-64231000D01*
X63578000Y-64191000D02*
X53722000Y-64191000D01*
X63588000Y-64151000D02*
X53712000Y-64151000D01*
X63597000Y-64111000D02*
X53703000Y-64111000D01*
X63606000Y-64071000D02*
X53694000Y-64071000D01*
X63615000Y-64031000D02*
X53685000Y-64031000D01*
X63624000Y-63991000D02*
X53676000Y-63991000D01*
X63632000Y-63951000D02*
X53668000Y-63951000D01*
X63640000Y-63911000D02*
X53660000Y-63911000D01*
X63647000Y-63871000D02*
X53653000Y-63871000D01*
X63654000Y-63831000D02*
X53646000Y-63831000D01*
X63661000Y-63791000D02*
X53639000Y-63791000D01*
X63668000Y-63751000D02*
X53632000Y-63751000D01*
X63674000Y-63711000D02*
X53626000Y-63711000D01*
X63680000Y-63671000D02*
X53620000Y-63671000D01*
X63685000Y-63630000D02*
X53615000Y-63630000D01*
X63690000Y-63590000D02*
X53610000Y-63590000D01*
X63695000Y-63550000D02*
X53605000Y-63550000D01*
X63700000Y-63510000D02*
X53600000Y-63510000D01*
X63704000Y-63470000D02*
X53596000Y-63470000D01*
X63708000Y-63430000D02*
X53592000Y-63430000D01*
X63712000Y-63390000D02*
X53588000Y-63390000D01*
X63715000Y-63350000D02*
X53585000Y-63350000D01*
X63718000Y-63310000D02*
X53582000Y-63310000D01*
X63720000Y-63270000D02*
X53580000Y-63270000D01*
X63723000Y-63230000D02*
X53577000Y-63230000D01*
X63725000Y-63190000D02*
X53575000Y-63190000D01*
X63727000Y-63150000D02*
X53573000Y-63150000D01*
X63728000Y-63110000D02*
X53572000Y-63110000D01*
X63729000Y-63070000D02*
X53571000Y-63070000D01*
X63730000Y-63030000D02*
X53570000Y-63030000D01*
X63730000Y-62990000D02*
X53570000Y-62990000D01*
X63730000Y-62950000D02*
X53570000Y-62950000D01*
X63770000Y-62950000D02*
G75*
G03X63770000Y-62950000I-5120000J0D01*
G01*
X77190000Y-78841422D02*
X77190000Y-79358578D01*
X78610000Y-78841422D02*
X78610000Y-79358578D01*
X66320000Y-61240000D02*
X66320000Y-62890000D01*
X76600000Y-61240000D02*
X66320000Y-61240000D01*
X76600000Y-66540000D02*
X76600000Y-61240000D01*
X66320000Y-66540000D02*
X76600000Y-66540000D01*
X66320000Y-64890000D02*
X66320000Y-66540000D01*
X66320000Y-62890000D02*
G75*
G02X66320000Y-64890000I0J-1000000D01*
G01*
X75300000Y-77640000D02*
X73900000Y-77640000D01*
X73900000Y-79960000D02*
X75800000Y-79960000D01*
X41670000Y-67940000D02*
X41670000Y-69590000D01*
X51950000Y-67940000D02*
X41670000Y-67940000D01*
X51950000Y-73240000D02*
X51950000Y-67940000D01*
X41670000Y-73240000D02*
X51950000Y-73240000D01*
X41670000Y-71590000D02*
X41670000Y-73240000D01*
X41670000Y-69590000D02*
G75*
G02X41670000Y-71590000I0J-1000000D01*
G01*
X73540000Y-53841422D02*
X73540000Y-54358578D01*
X74960000Y-53841422D02*
X74960000Y-54358578D01*
X77060000Y-54358578D02*
X77060000Y-53841422D01*
X75640000Y-54358578D02*
X75640000Y-53841422D01*
X65160000Y-70708578D02*
X65160000Y-70191422D01*
X63740000Y-70708578D02*
X63740000Y-70191422D01*
X57460000Y-54408578D02*
X57460000Y-53891422D01*
X56040000Y-54408578D02*
X56040000Y-53891422D01*
X58290000Y-53891422D02*
X58290000Y-54408578D01*
X59710000Y-53891422D02*
X59710000Y-54408578D01*
X71158578Y-75290000D02*
X70641422Y-75290000D01*
X71158578Y-76710000D02*
X70641422Y-76710000D01*
X54890000Y-70091422D02*
X54890000Y-70608578D01*
X56310000Y-70091422D02*
X56310000Y-70608578D01*
X57342796Y-70090190D02*
X57342796Y-70607346D01*
X58762796Y-70090190D02*
X58762796Y-70607346D01*
X60640000Y-70191422D02*
X60640000Y-70708578D01*
X62060000Y-70191422D02*
X62060000Y-70708578D01*
X44391422Y-64610000D02*
X44908578Y-64610000D01*
X44391422Y-63190000D02*
X44908578Y-63190000D01*
X42800000Y-83200000D02*
G75*
G03X42800000Y-83200000I-2500000J0D01*
G01*
X61980000Y-79730000D02*
X61980000Y-81000000D01*
X60710000Y-79730000D02*
X61980000Y-79730000D01*
X57790000Y-82042929D02*
X57790000Y-82440000D01*
X58550000Y-82042929D02*
X58550000Y-82440000D01*
X57790000Y-91100000D02*
X57790000Y-85100000D01*
X58550000Y-91100000D02*
X57790000Y-91100000D01*
X58550000Y-85100000D02*
X58550000Y-91100000D01*
X59440000Y-82440000D02*
X59440000Y-85100000D01*
X60330000Y-82110000D02*
X60330000Y-82440000D01*
X61090000Y-82110000D02*
X61090000Y-82440000D01*
X60430000Y-85100000D02*
X60430000Y-91100000D01*
X60550000Y-85100000D02*
X60550000Y-91100000D01*
X60670000Y-85100000D02*
X60670000Y-91100000D01*
X60790000Y-85100000D02*
X60790000Y-91100000D01*
X60910000Y-85100000D02*
X60910000Y-91100000D01*
X61030000Y-85100000D02*
X61030000Y-91100000D01*
X60330000Y-91100000D02*
X60330000Y-85100000D01*
X61090000Y-91100000D02*
X60330000Y-91100000D01*
X61090000Y-85100000D02*
X61090000Y-91100000D01*
X62040000Y-85100000D02*
X62040000Y-82440000D01*
X56840000Y-85100000D02*
X62040000Y-85100000D01*
X56840000Y-82440000D02*
X56840000Y-85100000D01*
X62040000Y-82440000D02*
X56840000Y-82440000D01*
X53846000Y-79035241D02*
X54476000Y-79035241D01*
X54161000Y-79350241D02*
X54161000Y-78720241D01*
X55598000Y-72609000D02*
X56402000Y-72609000D01*
X55367000Y-72649000D02*
X56633000Y-72649000D01*
X55198000Y-72689000D02*
X56802000Y-72689000D01*
X55060000Y-72729000D02*
X56940000Y-72729000D01*
X54941000Y-72769000D02*
X57059000Y-72769000D01*
X54835000Y-72809000D02*
X57165000Y-72809000D01*
X54738000Y-72849000D02*
X57262000Y-72849000D01*
X54650000Y-72889000D02*
X57350000Y-72889000D01*
X54568000Y-72929000D02*
X57432000Y-72929000D01*
X54491000Y-72969000D02*
X57509000Y-72969000D01*
X54419000Y-73009000D02*
X57581000Y-73009000D01*
X54350000Y-73049000D02*
X57650000Y-73049000D01*
X54286000Y-73089000D02*
X57714000Y-73089000D01*
X54224000Y-73129000D02*
X57776000Y-73129000D01*
X54166000Y-73169000D02*
X57834000Y-73169000D01*
X54110000Y-73209000D02*
X57890000Y-73209000D01*
X54056000Y-73249000D02*
X57944000Y-73249000D01*
X54005000Y-73289000D02*
X57995000Y-73289000D01*
X53956000Y-73329000D02*
X58044000Y-73329000D01*
X53908000Y-73369000D02*
X58092000Y-73369000D01*
X53863000Y-73409000D02*
X58137000Y-73409000D01*
X53818000Y-73449000D02*
X58182000Y-73449000D01*
X53776000Y-73489000D02*
X58224000Y-73489000D01*
X53735000Y-73529000D02*
X58265000Y-73529000D01*
X57040000Y-73569000D02*
X58305000Y-73569000D01*
X53695000Y-73569000D02*
X54960000Y-73569000D01*
X57040000Y-73609000D02*
X58343000Y-73609000D01*
X53657000Y-73609000D02*
X54960000Y-73609000D01*
X57040000Y-73649000D02*
X58380000Y-73649000D01*
X53620000Y-73649000D02*
X54960000Y-73649000D01*
X57040000Y-73689000D02*
X58416000Y-73689000D01*
X53584000Y-73689000D02*
X54960000Y-73689000D01*
X57040000Y-73729000D02*
X58450000Y-73729000D01*
X53550000Y-73729000D02*
X54960000Y-73729000D01*
X57040000Y-73769000D02*
X58484000Y-73769000D01*
X53516000Y-73769000D02*
X54960000Y-73769000D01*
X57040000Y-73809000D02*
X58516000Y-73809000D01*
X53484000Y-73809000D02*
X54960000Y-73809000D01*
X57040000Y-73849000D02*
X58548000Y-73849000D01*
X53452000Y-73849000D02*
X54960000Y-73849000D01*
X57040000Y-73889000D02*
X58578000Y-73889000D01*
X53422000Y-73889000D02*
X54960000Y-73889000D01*
X57040000Y-73929000D02*
X58607000Y-73929000D01*
X53393000Y-73929000D02*
X54960000Y-73929000D01*
X57040000Y-73969000D02*
X58636000Y-73969000D01*
X53364000Y-73969000D02*
X54960000Y-73969000D01*
X57040000Y-74009000D02*
X58664000Y-74009000D01*
X53336000Y-74009000D02*
X54960000Y-74009000D01*
X57040000Y-74049000D02*
X58690000Y-74049000D01*
X53310000Y-74049000D02*
X54960000Y-74049000D01*
X57040000Y-74089000D02*
X58716000Y-74089000D01*
X53284000Y-74089000D02*
X54960000Y-74089000D01*
X57040000Y-74129000D02*
X58742000Y-74129000D01*
X53258000Y-74129000D02*
X54960000Y-74129000D01*
X57040000Y-74169000D02*
X58766000Y-74169000D01*
X53234000Y-74169000D02*
X54960000Y-74169000D01*
X57040000Y-74209000D02*
X58790000Y-74209000D01*
X53210000Y-74209000D02*
X54960000Y-74209000D01*
X57040000Y-74249000D02*
X58812000Y-74249000D01*
X53188000Y-74249000D02*
X54960000Y-74249000D01*
X57040000Y-74289000D02*
X58834000Y-74289000D01*
X53166000Y-74289000D02*
X54960000Y-74289000D01*
X57040000Y-74329000D02*
X58856000Y-74329000D01*
X53144000Y-74329000D02*
X54960000Y-74329000D01*
X57040000Y-74369000D02*
X58876000Y-74369000D01*
X53124000Y-74369000D02*
X54960000Y-74369000D01*
X57040000Y-74409000D02*
X58896000Y-74409000D01*
X53104000Y-74409000D02*
X54960000Y-74409000D01*
X57040000Y-74449000D02*
X58916000Y-74449000D01*
X53084000Y-74449000D02*
X54960000Y-74449000D01*
X57040000Y-74489000D02*
X58934000Y-74489000D01*
X53066000Y-74489000D02*
X54960000Y-74489000D01*
X57040000Y-74529000D02*
X58952000Y-74529000D01*
X53048000Y-74529000D02*
X54960000Y-74529000D01*
X57040000Y-74569000D02*
X58970000Y-74569000D01*
X53030000Y-74569000D02*
X54960000Y-74569000D01*
X57040000Y-74609000D02*
X58986000Y-74609000D01*
X53014000Y-74609000D02*
X54960000Y-74609000D01*
X57040000Y-74649000D02*
X59002000Y-74649000D01*
X52998000Y-74649000D02*
X54960000Y-74649000D01*
X57040000Y-74689000D02*
X59018000Y-74689000D01*
X52982000Y-74689000D02*
X54960000Y-74689000D01*
X57040000Y-74729000D02*
X59033000Y-74729000D01*
X52967000Y-74729000D02*
X54960000Y-74729000D01*
X57040000Y-74769000D02*
X59047000Y-74769000D01*
X52953000Y-74769000D02*
X54960000Y-74769000D01*
X57040000Y-74809000D02*
X59061000Y-74809000D01*
X52939000Y-74809000D02*
X54960000Y-74809000D01*
X57040000Y-74849000D02*
X59074000Y-74849000D01*
X52926000Y-74849000D02*
X54960000Y-74849000D01*
X57040000Y-74889000D02*
X59086000Y-74889000D01*
X52914000Y-74889000D02*
X54960000Y-74889000D01*
X57040000Y-74929000D02*
X59098000Y-74929000D01*
X52902000Y-74929000D02*
X54960000Y-74929000D01*
X57040000Y-74969000D02*
X59110000Y-74969000D01*
X52890000Y-74969000D02*
X54960000Y-74969000D01*
X57040000Y-75009000D02*
X59121000Y-75009000D01*
X52879000Y-75009000D02*
X54960000Y-75009000D01*
X57040000Y-75049000D02*
X59131000Y-75049000D01*
X52869000Y-75049000D02*
X54960000Y-75049000D01*
X57040000Y-75089000D02*
X59141000Y-75089000D01*
X52859000Y-75089000D02*
X54960000Y-75089000D01*
X57040000Y-75129000D02*
X59150000Y-75129000D01*
X52850000Y-75129000D02*
X54960000Y-75129000D01*
X57040000Y-75170000D02*
X59159000Y-75170000D01*
X52841000Y-75170000D02*
X54960000Y-75170000D01*
X57040000Y-75210000D02*
X59167000Y-75210000D01*
X52833000Y-75210000D02*
X54960000Y-75210000D01*
X57040000Y-75250000D02*
X59175000Y-75250000D01*
X52825000Y-75250000D02*
X54960000Y-75250000D01*
X57040000Y-75290000D02*
X59182000Y-75290000D01*
X52818000Y-75290000D02*
X54960000Y-75290000D01*
X57040000Y-75330000D02*
X59189000Y-75330000D01*
X52811000Y-75330000D02*
X54960000Y-75330000D01*
X57040000Y-75370000D02*
X59195000Y-75370000D01*
X52805000Y-75370000D02*
X54960000Y-75370000D01*
X57040000Y-75410000D02*
X59201000Y-75410000D01*
X52799000Y-75410000D02*
X54960000Y-75410000D01*
X57040000Y-75450000D02*
X59206000Y-75450000D01*
X52794000Y-75450000D02*
X54960000Y-75450000D01*
X57040000Y-75490000D02*
X59211000Y-75490000D01*
X52789000Y-75490000D02*
X54960000Y-75490000D01*
X57040000Y-75530000D02*
X59215000Y-75530000D01*
X52785000Y-75530000D02*
X54960000Y-75530000D01*
X57040000Y-75570000D02*
X59218000Y-75570000D01*
X52782000Y-75570000D02*
X54960000Y-75570000D01*
X57040000Y-75610000D02*
X59222000Y-75610000D01*
X52778000Y-75610000D02*
X54960000Y-75610000D01*
X52776000Y-75650000D02*
X59224000Y-75650000D01*
X52773000Y-75690000D02*
X59227000Y-75690000D01*
X52772000Y-75730000D02*
X59228000Y-75730000D01*
X52770000Y-75770000D02*
X59230000Y-75770000D01*
X52770000Y-75810000D02*
X59230000Y-75810000D01*
X52770000Y-75850000D02*
X59230000Y-75850000D01*
X59270000Y-75850000D02*
G75*
G03X59270000Y-75850000I-3270000J0D01*
G01*
X39120000Y-60500000D02*
G75*
G03X39120000Y-60500000I-4470000J0D01*
G01*
X55535000Y-85140000D02*
G75*
G03X55535000Y-85140000I-5650000J0D01*
G01*
X74585000Y-85140000D02*
G75*
G03X74585000Y-85140000I-5650000J0D01*
G01*
X32868000Y-42056000D02*
X38878000Y-42056000D01*
X35118000Y-48876000D02*
X38878000Y-48876000D01*
X38878000Y-42056000D02*
X38878000Y-43316000D01*
X38878000Y-48876000D02*
X38878000Y-47616000D01*
X68518578Y-35640000D02*
X68001422Y-35640000D01*
X68518578Y-37060000D02*
X68001422Y-37060000D01*
X63740000Y-35301422D02*
X63740000Y-35818578D01*
X65160000Y-35301422D02*
X65160000Y-35818578D01*
X50670000Y-60500000D02*
X49900000Y-60500000D01*
X42590000Y-60500000D02*
X43360000Y-60500000D01*
X49900000Y-59130000D02*
X43360000Y-59130000D01*
X49900000Y-61870000D02*
X49900000Y-59130000D01*
X43360000Y-61870000D02*
X49900000Y-61870000D01*
X43360000Y-59130000D02*
X43360000Y-61870000D01*
X81100000Y-30550000D02*
X81100000Y-32250000D01*
X81100000Y-27400000D02*
X81100000Y-28550000D01*
X78275000Y-34065000D02*
X78675000Y-33615000D01*
X79075000Y-34065000D02*
X78275000Y-34065000D01*
X78675000Y-33615000D02*
X79075000Y-34065000D01*
X81650000Y-26850000D02*
X81100000Y-27400000D01*
X73600000Y-30550000D02*
X73600000Y-32250000D01*
X73600000Y-27400000D02*
X73600000Y-28550000D01*
X73050000Y-26850000D02*
X73600000Y-27400000D01*
X73330000Y-72920000D02*
X73330000Y-69980000D01*
X73090000Y-72920000D02*
X73090000Y-69980000D01*
X73210000Y-72920000D02*
X73210000Y-69980000D01*
X68670000Y-69980000D02*
X68670000Y-70110000D01*
X74110000Y-69980000D02*
X68670000Y-69980000D01*
X74110000Y-70110000D02*
X74110000Y-69980000D01*
X68670000Y-72920000D02*
X68670000Y-72790000D01*
X74110000Y-72920000D02*
X68670000Y-72920000D01*
X74110000Y-72790000D02*
X74110000Y-72920000D01*
X33370000Y-66430000D02*
X33370000Y-69370000D01*
X33610000Y-66430000D02*
X33610000Y-69370000D01*
X33490000Y-66430000D02*
X33490000Y-69370000D01*
X38030000Y-69370000D02*
X38030000Y-69240000D01*
X32590000Y-69370000D02*
X38030000Y-69370000D01*
X32590000Y-69240000D02*
X32590000Y-69370000D01*
X38030000Y-66430000D02*
X38030000Y-66560000D01*
X32590000Y-66430000D02*
X38030000Y-66430000D01*
X32590000Y-66560000D02*
X32590000Y-66430000D01*
X42462000Y-46223422D02*
X42462000Y-46740578D01*
X43882000Y-46223422D02*
X43882000Y-46740578D01*
X31551180Y-47069066D02*
X31551180Y-46551910D01*
X30131180Y-47069066D02*
X30131180Y-46551910D01*
X41530000Y-77435000D02*
X41530000Y-76730000D01*
X41530000Y-79470000D02*
X41530000Y-78765000D01*
X45770000Y-77435000D02*
X45770000Y-76730000D01*
X45770000Y-79470000D02*
X45770000Y-78765000D01*
X45770000Y-76730000D02*
X41530000Y-76730000D01*
X45770000Y-79470000D02*
X41530000Y-79470000D01*
D17*
X69186904Y-57727380D02*
X69758333Y-57727380D01*
X69472619Y-58727380D02*
X69472619Y-57727380D01*
X70091666Y-58727380D02*
X70091666Y-57727380D01*
X70472619Y-57727380D01*
X70567857Y-57775000D01*
X70615476Y-57822619D01*
X70663095Y-57917857D01*
X70663095Y-58060714D01*
X70615476Y-58155952D01*
X70567857Y-58203571D01*
X70472619Y-58251190D01*
X70091666Y-58251190D01*
X71615476Y-58727380D02*
X71044047Y-58727380D01*
X71329761Y-58727380D02*
X71329761Y-57727380D01*
X71234523Y-57870238D01*
X71139285Y-57965476D01*
X71044047Y-58013095D01*
X72567857Y-58727380D02*
X71996428Y-58727380D01*
X72282142Y-58727380D02*
X72282142Y-57727380D01*
X72186904Y-57870238D01*
X72091666Y-57965476D01*
X71996428Y-58013095D01*
X84838095Y-79252380D02*
X85409523Y-79252380D01*
X85123809Y-80252380D02*
X85123809Y-79252380D01*
X85742857Y-80252380D02*
X85742857Y-79252380D01*
X86123809Y-79252380D01*
X86219047Y-79300000D01*
X86266666Y-79347619D01*
X86314285Y-79442857D01*
X86314285Y-79585714D01*
X86266666Y-79680952D01*
X86219047Y-79728571D01*
X86123809Y-79776190D01*
X85742857Y-79776190D01*
X86647619Y-79252380D02*
X87314285Y-79252380D01*
X86885714Y-80252380D01*
X79838095Y-79152380D02*
X80409523Y-79152380D01*
X80123809Y-80152380D02*
X80123809Y-79152380D01*
X80742857Y-80152380D02*
X80742857Y-79152380D01*
X81123809Y-79152380D01*
X81219047Y-79200000D01*
X81266666Y-79247619D01*
X81314285Y-79342857D01*
X81314285Y-79485714D01*
X81266666Y-79580952D01*
X81219047Y-79628571D01*
X81123809Y-79676190D01*
X80742857Y-79676190D01*
X82171428Y-79152380D02*
X81980952Y-79152380D01*
X81885714Y-79200000D01*
X81838095Y-79247619D01*
X81742857Y-79390476D01*
X81695238Y-79580952D01*
X81695238Y-79961904D01*
X81742857Y-80057142D01*
X81790476Y-80104761D01*
X81885714Y-80152380D01*
X82076190Y-80152380D01*
X82171428Y-80104761D01*
X82219047Y-80057142D01*
X82266666Y-79961904D01*
X82266666Y-79723809D01*
X82219047Y-79628571D01*
X82171428Y-79580952D01*
X82076190Y-79533333D01*
X81885714Y-79533333D01*
X81790476Y-79580952D01*
X81742857Y-79628571D01*
X81695238Y-79723809D01*
X77738095Y-55452380D02*
X78309523Y-55452380D01*
X78023809Y-56452380D02*
X78023809Y-55452380D01*
X78642857Y-56452380D02*
X78642857Y-55452380D01*
X79023809Y-55452380D01*
X79119047Y-55500000D01*
X79166666Y-55547619D01*
X79214285Y-55642857D01*
X79214285Y-55785714D01*
X79166666Y-55880952D01*
X79119047Y-55928571D01*
X79023809Y-55976190D01*
X78642857Y-55976190D01*
X80119047Y-55452380D02*
X79642857Y-55452380D01*
X79595238Y-55928571D01*
X79642857Y-55880952D01*
X79738095Y-55833333D01*
X79976190Y-55833333D01*
X80071428Y-55880952D01*
X80119047Y-55928571D01*
X80166666Y-56023809D01*
X80166666Y-56261904D01*
X80119047Y-56357142D01*
X80071428Y-56404761D01*
X79976190Y-56452380D01*
X79738095Y-56452380D01*
X79642857Y-56404761D01*
X79595238Y-56357142D01*
X55463095Y-56502380D02*
X56034523Y-56502380D01*
X55748809Y-57502380D02*
X55748809Y-56502380D01*
X56367857Y-57502380D02*
X56367857Y-56502380D01*
X56748809Y-56502380D01*
X56844047Y-56550000D01*
X56891666Y-56597619D01*
X56939285Y-56692857D01*
X56939285Y-56835714D01*
X56891666Y-56930952D01*
X56844047Y-56978571D01*
X56748809Y-57026190D01*
X56367857Y-57026190D01*
X57796428Y-56835714D02*
X57796428Y-57502380D01*
X57558333Y-56454761D02*
X57320238Y-57169047D01*
X57939285Y-57169047D01*
X66063095Y-57752380D02*
X66634523Y-57752380D01*
X66348809Y-58752380D02*
X66348809Y-57752380D01*
X66967857Y-58752380D02*
X66967857Y-57752380D01*
X67348809Y-57752380D01*
X67444047Y-57800000D01*
X67491666Y-57847619D01*
X67539285Y-57942857D01*
X67539285Y-58085714D01*
X67491666Y-58180952D01*
X67444047Y-58228571D01*
X67348809Y-58276190D01*
X66967857Y-58276190D01*
X67872619Y-57752380D02*
X68491666Y-57752380D01*
X68158333Y-58133333D01*
X68301190Y-58133333D01*
X68396428Y-58180952D01*
X68444047Y-58228571D01*
X68491666Y-58323809D01*
X68491666Y-58561904D01*
X68444047Y-58657142D01*
X68396428Y-58704761D01*
X68301190Y-58752380D01*
X68015476Y-58752380D01*
X67920238Y-58704761D01*
X67872619Y-58657142D01*
X41663095Y-34827380D02*
X42234523Y-34827380D01*
X41948809Y-35827380D02*
X41948809Y-34827380D01*
X42567857Y-35827380D02*
X42567857Y-34827380D01*
X42948809Y-34827380D01*
X43044047Y-34875000D01*
X43091666Y-34922619D01*
X43139285Y-35017857D01*
X43139285Y-35160714D01*
X43091666Y-35255952D01*
X43044047Y-35303571D01*
X42948809Y-35351190D01*
X42567857Y-35351190D01*
X43520238Y-34922619D02*
X43567857Y-34875000D01*
X43663095Y-34827380D01*
X43901190Y-34827380D01*
X43996428Y-34875000D01*
X44044047Y-34922619D01*
X44091666Y-35017857D01*
X44091666Y-35113095D01*
X44044047Y-35255952D01*
X43472619Y-35827380D01*
X44091666Y-35827380D01*
X30013095Y-36952380D02*
X30584523Y-36952380D01*
X30298809Y-37952380D02*
X30298809Y-36952380D01*
X30917857Y-37952380D02*
X30917857Y-36952380D01*
X31298809Y-36952380D01*
X31394047Y-37000000D01*
X31441666Y-37047619D01*
X31489285Y-37142857D01*
X31489285Y-37285714D01*
X31441666Y-37380952D01*
X31394047Y-37428571D01*
X31298809Y-37476190D01*
X30917857Y-37476190D01*
X32441666Y-37952380D02*
X31870238Y-37952380D01*
X32155952Y-37952380D02*
X32155952Y-36952380D01*
X32060714Y-37095238D01*
X31965476Y-37190476D01*
X31870238Y-37238095D01*
X57646666Y-29672380D02*
X57646666Y-28672380D01*
X57980000Y-29386666D01*
X58313333Y-28672380D01*
X58313333Y-29672380D01*
X58980000Y-28672380D02*
X59170476Y-28672380D01*
X59265714Y-28720000D01*
X59360952Y-28815238D01*
X59408571Y-29005714D01*
X59408571Y-29339047D01*
X59360952Y-29529523D01*
X59265714Y-29624761D01*
X59170476Y-29672380D01*
X58980000Y-29672380D01*
X58884761Y-29624761D01*
X58789523Y-29529523D01*
X58741904Y-29339047D01*
X58741904Y-29005714D01*
X58789523Y-28815238D01*
X58884761Y-28720000D01*
X58980000Y-28672380D01*
X59837142Y-29672380D02*
X59837142Y-28672380D01*
X60075238Y-28672380D01*
X60218095Y-28720000D01*
X60313333Y-28815238D01*
X60360952Y-28910476D01*
X60408571Y-29100952D01*
X60408571Y-29243809D01*
X60360952Y-29434285D01*
X60313333Y-29529523D01*
X60218095Y-29624761D01*
X60075238Y-29672380D01*
X59837142Y-29672380D01*
X61360952Y-29672380D02*
X60789523Y-29672380D01*
X61075238Y-29672380D02*
X61075238Y-28672380D01*
X60980000Y-28815238D01*
X60884761Y-28910476D01*
X60789523Y-28958095D01*
X83204761Y-56667619D02*
X83109523Y-56620000D01*
X83014285Y-56524761D01*
X82871428Y-56381904D01*
X82776190Y-56334285D01*
X82680952Y-56334285D01*
X82728571Y-56572380D02*
X82633333Y-56524761D01*
X82538095Y-56429523D01*
X82490476Y-56239047D01*
X82490476Y-55905714D01*
X82538095Y-55715238D01*
X82633333Y-55620000D01*
X82728571Y-55572380D01*
X82919047Y-55572380D01*
X83014285Y-55620000D01*
X83109523Y-55715238D01*
X83157142Y-55905714D01*
X83157142Y-56239047D01*
X83109523Y-56429523D01*
X83014285Y-56524761D01*
X82919047Y-56572380D01*
X82728571Y-56572380D01*
X84109523Y-56572380D02*
X83538095Y-56572380D01*
X83823809Y-56572380D02*
X83823809Y-55572380D01*
X83728571Y-55715238D01*
X83633333Y-55810476D01*
X83538095Y-55858095D01*
X63833333Y-80357142D02*
X63785714Y-80404761D01*
X63642857Y-80452380D01*
X63547619Y-80452380D01*
X63404761Y-80404761D01*
X63309523Y-80309523D01*
X63261904Y-80214285D01*
X63214285Y-80023809D01*
X63214285Y-79880952D01*
X63261904Y-79690476D01*
X63309523Y-79595238D01*
X63404761Y-79500000D01*
X63547619Y-79452380D01*
X63642857Y-79452380D01*
X63785714Y-79500000D01*
X63833333Y-79547619D01*
X64785714Y-80452380D02*
X64214285Y-80452380D01*
X64500000Y-80452380D02*
X64500000Y-79452380D01*
X64404761Y-79595238D01*
X64309523Y-79690476D01*
X64214285Y-79738095D01*
X34833333Y-82457142D02*
X34785714Y-82504761D01*
X34642857Y-82552380D01*
X34547619Y-82552380D01*
X34404761Y-82504761D01*
X34309523Y-82409523D01*
X34261904Y-82314285D01*
X34214285Y-82123809D01*
X34214285Y-81980952D01*
X34261904Y-81790476D01*
X34309523Y-81695238D01*
X34404761Y-81600000D01*
X34547619Y-81552380D01*
X34642857Y-81552380D01*
X34785714Y-81600000D01*
X34833333Y-81647619D01*
X35738095Y-81552380D02*
X35261904Y-81552380D01*
X35214285Y-82028571D01*
X35261904Y-81980952D01*
X35357142Y-81933333D01*
X35595238Y-81933333D01*
X35690476Y-81980952D01*
X35738095Y-82028571D01*
X35785714Y-82123809D01*
X35785714Y-82361904D01*
X35738095Y-82457142D01*
X35690476Y-82504761D01*
X35595238Y-82552380D01*
X35357142Y-82552380D01*
X35261904Y-82504761D01*
X35214285Y-82457142D01*
X54283333Y-68057142D02*
X54235714Y-68104761D01*
X54092857Y-68152380D01*
X53997619Y-68152380D01*
X53854761Y-68104761D01*
X53759523Y-68009523D01*
X53711904Y-67914285D01*
X53664285Y-67723809D01*
X53664285Y-67580952D01*
X53711904Y-67390476D01*
X53759523Y-67295238D01*
X53854761Y-67200000D01*
X53997619Y-67152380D01*
X54092857Y-67152380D01*
X54235714Y-67200000D01*
X54283333Y-67247619D01*
X55140476Y-67485714D02*
X55140476Y-68152380D01*
X54902380Y-67104761D02*
X54664285Y-67819047D01*
X55283333Y-67819047D01*
X64188095Y-66627380D02*
X64188095Y-67436904D01*
X64235714Y-67532142D01*
X64283333Y-67579761D01*
X64378571Y-67627380D01*
X64569047Y-67627380D01*
X64664285Y-67579761D01*
X64711904Y-67532142D01*
X64759523Y-67436904D01*
X64759523Y-66627380D01*
X65759523Y-67627380D02*
X65188095Y-67627380D01*
X65473809Y-67627380D02*
X65473809Y-66627380D01*
X65378571Y-66770238D01*
X65283333Y-66865476D01*
X65188095Y-66913095D01*
X46213095Y-75902380D02*
X46213095Y-76711904D01*
X46260714Y-76807142D01*
X46308333Y-76854761D01*
X46403571Y-76902380D01*
X46594047Y-76902380D01*
X46689285Y-76854761D01*
X46736904Y-76807142D01*
X46784523Y-76711904D01*
X46784523Y-75902380D01*
X47213095Y-75997619D02*
X47260714Y-75950000D01*
X47355952Y-75902380D01*
X47594047Y-75902380D01*
X47689285Y-75950000D01*
X47736904Y-75997619D01*
X47784523Y-76092857D01*
X47784523Y-76188095D01*
X47736904Y-76330952D01*
X47165476Y-76902380D01*
X47784523Y-76902380D01*
X38533333Y-86752380D02*
X38057142Y-86752380D01*
X38057142Y-85752380D01*
X38819047Y-85847619D02*
X38866666Y-85800000D01*
X38961904Y-85752380D01*
X39200000Y-85752380D01*
X39295238Y-85800000D01*
X39342857Y-85847619D01*
X39390476Y-85942857D01*
X39390476Y-86038095D01*
X39342857Y-86180952D01*
X38771428Y-86752380D01*
X39390476Y-86752380D01*
X59116666Y-87432380D02*
X59116666Y-88146666D01*
X59069047Y-88289523D01*
X58973809Y-88384761D01*
X58830952Y-88432380D01*
X58735714Y-88432380D01*
X59545238Y-87527619D02*
X59592857Y-87480000D01*
X59688095Y-87432380D01*
X59926190Y-87432380D01*
X60021428Y-87480000D01*
X60069047Y-87527619D01*
X60116666Y-87622857D01*
X60116666Y-87718095D01*
X60069047Y-87860952D01*
X59497619Y-88432380D01*
X60116666Y-88432380D01*
X54633333Y-80557142D02*
X54585714Y-80604761D01*
X54442857Y-80652380D01*
X54347619Y-80652380D01*
X54204761Y-80604761D01*
X54109523Y-80509523D01*
X54061904Y-80414285D01*
X54014285Y-80223809D01*
X54014285Y-80080952D01*
X54061904Y-79890476D01*
X54109523Y-79795238D01*
X54204761Y-79700000D01*
X54347619Y-79652380D01*
X54442857Y-79652380D01*
X54585714Y-79700000D01*
X54633333Y-79747619D01*
X55014285Y-79747619D02*
X55061904Y-79700000D01*
X55157142Y-79652380D01*
X55395238Y-79652380D01*
X55490476Y-79700000D01*
X55538095Y-79747619D01*
X55585714Y-79842857D01*
X55585714Y-79938095D01*
X55538095Y-80080952D01*
X54966666Y-80652380D01*
X55585714Y-80652380D01*
X34533333Y-55352380D02*
X34057142Y-55352380D01*
X34057142Y-54352380D01*
X35390476Y-55352380D02*
X34819047Y-55352380D01*
X35104761Y-55352380D02*
X35104761Y-54352380D01*
X35009523Y-54495238D01*
X34914285Y-54590476D01*
X34819047Y-54638095D01*
X73366666Y-89402380D02*
X73366666Y-90116666D01*
X73319047Y-90259523D01*
X73223809Y-90354761D01*
X73080952Y-90402380D01*
X72985714Y-90402380D01*
X74366666Y-90402380D02*
X73795238Y-90402380D01*
X74080952Y-90402380D02*
X74080952Y-89402380D01*
X73985714Y-89545238D01*
X73890476Y-89640476D01*
X73795238Y-89688095D01*
X47833333Y-63252380D02*
X47500000Y-62776190D01*
X47261904Y-63252380D02*
X47261904Y-62252380D01*
X47642857Y-62252380D01*
X47738095Y-62300000D01*
X47785714Y-62347619D01*
X47833333Y-62442857D01*
X47833333Y-62585714D01*
X47785714Y-62680952D01*
X47738095Y-62728571D01*
X47642857Y-62776190D01*
X47261904Y-62776190D01*
X48785714Y-63252380D02*
X48214285Y-63252380D01*
X48500000Y-63252380D02*
X48500000Y-62252380D01*
X48404761Y-62395238D01*
X48309523Y-62490476D01*
X48214285Y-62538095D01*
X70311904Y-74327380D02*
X70311904Y-73327380D01*
X70550000Y-73327380D01*
X70692857Y-73375000D01*
X70788095Y-73470238D01*
X70835714Y-73565476D01*
X70883333Y-73755952D01*
X70883333Y-73898809D01*
X70835714Y-74089285D01*
X70788095Y-74184523D01*
X70692857Y-74279761D01*
X70550000Y-74327380D01*
X70311904Y-74327380D01*
X71835714Y-74327380D02*
X71264285Y-74327380D01*
X71550000Y-74327380D02*
X71550000Y-73327380D01*
X71454761Y-73470238D01*
X71359523Y-73565476D01*
X71264285Y-73613095D01*
X36761904Y-66002380D02*
X36761904Y-65002380D01*
X37000000Y-65002380D01*
X37142857Y-65050000D01*
X37238095Y-65145238D01*
X37285714Y-65240476D01*
X37333333Y-65430952D01*
X37333333Y-65573809D01*
X37285714Y-65764285D01*
X37238095Y-65859523D01*
X37142857Y-65954761D01*
X37000000Y-66002380D01*
X36761904Y-66002380D01*
X37714285Y-65097619D02*
X37761904Y-65050000D01*
X37857142Y-65002380D01*
X38095238Y-65002380D01*
X38190476Y-65050000D01*
X38238095Y-65097619D01*
X38285714Y-65192857D01*
X38285714Y-65288095D01*
X38238095Y-65430952D01*
X37666666Y-66002380D01*
X38285714Y-66002380D01*
X43333333Y-80957142D02*
X43285714Y-81004761D01*
X43142857Y-81052380D01*
X43047619Y-81052380D01*
X42904761Y-81004761D01*
X42809523Y-80909523D01*
X42761904Y-80814285D01*
X42714285Y-80623809D01*
X42714285Y-80480952D01*
X42761904Y-80290476D01*
X42809523Y-80195238D01*
X42904761Y-80100000D01*
X43047619Y-80052380D01*
X43142857Y-80052380D01*
X43285714Y-80100000D01*
X43333333Y-80147619D01*
X43666666Y-80052380D02*
X44285714Y-80052380D01*
X43952380Y-80433333D01*
X44095238Y-80433333D01*
X44190476Y-80480952D01*
X44238095Y-80528571D01*
X44285714Y-80623809D01*
X44285714Y-80861904D01*
X44238095Y-80957142D01*
X44190476Y-81004761D01*
X44095238Y-81052380D01*
X43809523Y-81052380D01*
X43714285Y-81004761D01*
X43666666Y-80957142D01*
M02*
