G04 #@! TF.GenerationSoftware,KiCad,Pcbnew,(5.1.2-1)-1*
G04 #@! TF.CreationDate,2019-07-31T15:28:19-07:00*
G04 #@! TF.ProjectId,wavegenerator_v1,77617665-6765-46e6-9572-61746f725f76,rev?*
G04 #@! TF.SameCoordinates,Original*
G04 #@! TF.FileFunction,Paste,Top*
G04 #@! TF.FilePolarity,Positive*
%FSLAX46Y46*%
G04 Gerber Fmt 4.6, Leading zero omitted, Abs format (unit mm)*
G04 Created by KiCad (PCBNEW (5.1.2-1)-1) date 2019-07-31 15:28:19*
%MOMM*%
%LPD*%
G04 APERTURE LIST*
%ADD10R,3.500000X1.200000*%
%ADD11R,1.500000X2.200000*%
%ADD12R,1.200000X0.900000*%
%ADD13C,0.100000*%
%ADD14C,0.975000*%
%ADD15R,2.000000X1.500000*%
%ADD16R,2.000000X3.800000*%
%ADD17C,0.600000*%
%ADD18R,0.550000X1.600000*%
%ADD19R,1.600000X0.550000*%
%ADD20R,1.650000X1.500000*%
%ADD21R,1.650000X0.400000*%
%ADD22R,1.650000X1.200000*%
G04 APERTURE END LIST*
D10*
X72750000Y-84400000D03*
X78250000Y-84400000D03*
D11*
X85800800Y-96570800D03*
X79400800Y-96570800D03*
D12*
X85200000Y-87750000D03*
X85200000Y-91050000D03*
D13*
G36*
X74280142Y-89136174D02*
G01*
X74303803Y-89139684D01*
X74327007Y-89145496D01*
X74349529Y-89153554D01*
X74371153Y-89163782D01*
X74391670Y-89176079D01*
X74410883Y-89190329D01*
X74428607Y-89206393D01*
X74444671Y-89224117D01*
X74458921Y-89243330D01*
X74471218Y-89263847D01*
X74481446Y-89285471D01*
X74489504Y-89307993D01*
X74495316Y-89331197D01*
X74498826Y-89354858D01*
X74500000Y-89378750D01*
X74500000Y-89866250D01*
X74498826Y-89890142D01*
X74495316Y-89913803D01*
X74489504Y-89937007D01*
X74481446Y-89959529D01*
X74471218Y-89981153D01*
X74458921Y-90001670D01*
X74444671Y-90020883D01*
X74428607Y-90038607D01*
X74410883Y-90054671D01*
X74391670Y-90068921D01*
X74371153Y-90081218D01*
X74349529Y-90091446D01*
X74327007Y-90099504D01*
X74303803Y-90105316D01*
X74280142Y-90108826D01*
X74256250Y-90110000D01*
X73343750Y-90110000D01*
X73319858Y-90108826D01*
X73296197Y-90105316D01*
X73272993Y-90099504D01*
X73250471Y-90091446D01*
X73228847Y-90081218D01*
X73208330Y-90068921D01*
X73189117Y-90054671D01*
X73171393Y-90038607D01*
X73155329Y-90020883D01*
X73141079Y-90001670D01*
X73128782Y-89981153D01*
X73118554Y-89959529D01*
X73110496Y-89937007D01*
X73104684Y-89913803D01*
X73101174Y-89890142D01*
X73100000Y-89866250D01*
X73100000Y-89378750D01*
X73101174Y-89354858D01*
X73104684Y-89331197D01*
X73110496Y-89307993D01*
X73118554Y-89285471D01*
X73128782Y-89263847D01*
X73141079Y-89243330D01*
X73155329Y-89224117D01*
X73171393Y-89206393D01*
X73189117Y-89190329D01*
X73208330Y-89176079D01*
X73228847Y-89163782D01*
X73250471Y-89153554D01*
X73272993Y-89145496D01*
X73296197Y-89139684D01*
X73319858Y-89136174D01*
X73343750Y-89135000D01*
X74256250Y-89135000D01*
X74280142Y-89136174D01*
X74280142Y-89136174D01*
G37*
D14*
X73800000Y-89622500D03*
D13*
G36*
X74280142Y-91011174D02*
G01*
X74303803Y-91014684D01*
X74327007Y-91020496D01*
X74349529Y-91028554D01*
X74371153Y-91038782D01*
X74391670Y-91051079D01*
X74410883Y-91065329D01*
X74428607Y-91081393D01*
X74444671Y-91099117D01*
X74458921Y-91118330D01*
X74471218Y-91138847D01*
X74481446Y-91160471D01*
X74489504Y-91182993D01*
X74495316Y-91206197D01*
X74498826Y-91229858D01*
X74500000Y-91253750D01*
X74500000Y-91741250D01*
X74498826Y-91765142D01*
X74495316Y-91788803D01*
X74489504Y-91812007D01*
X74481446Y-91834529D01*
X74471218Y-91856153D01*
X74458921Y-91876670D01*
X74444671Y-91895883D01*
X74428607Y-91913607D01*
X74410883Y-91929671D01*
X74391670Y-91943921D01*
X74371153Y-91956218D01*
X74349529Y-91966446D01*
X74327007Y-91974504D01*
X74303803Y-91980316D01*
X74280142Y-91983826D01*
X74256250Y-91985000D01*
X73343750Y-91985000D01*
X73319858Y-91983826D01*
X73296197Y-91980316D01*
X73272993Y-91974504D01*
X73250471Y-91966446D01*
X73228847Y-91956218D01*
X73208330Y-91943921D01*
X73189117Y-91929671D01*
X73171393Y-91913607D01*
X73155329Y-91895883D01*
X73141079Y-91876670D01*
X73128782Y-91856153D01*
X73118554Y-91834529D01*
X73110496Y-91812007D01*
X73104684Y-91788803D01*
X73101174Y-91765142D01*
X73100000Y-91741250D01*
X73100000Y-91253750D01*
X73101174Y-91229858D01*
X73104684Y-91206197D01*
X73110496Y-91182993D01*
X73118554Y-91160471D01*
X73128782Y-91138847D01*
X73141079Y-91118330D01*
X73155329Y-91099117D01*
X73171393Y-91081393D01*
X73189117Y-91065329D01*
X73208330Y-91051079D01*
X73228847Y-91038782D01*
X73250471Y-91028554D01*
X73272993Y-91020496D01*
X73296197Y-91014684D01*
X73319858Y-91011174D01*
X73343750Y-91010000D01*
X74256250Y-91010000D01*
X74280142Y-91011174D01*
X74280142Y-91011174D01*
G37*
D14*
X73800000Y-91497500D03*
D13*
G36*
X77008542Y-89136174D02*
G01*
X77032203Y-89139684D01*
X77055407Y-89145496D01*
X77077929Y-89153554D01*
X77099553Y-89163782D01*
X77120070Y-89176079D01*
X77139283Y-89190329D01*
X77157007Y-89206393D01*
X77173071Y-89224117D01*
X77187321Y-89243330D01*
X77199618Y-89263847D01*
X77209846Y-89285471D01*
X77217904Y-89307993D01*
X77223716Y-89331197D01*
X77227226Y-89354858D01*
X77228400Y-89378750D01*
X77228400Y-89866250D01*
X77227226Y-89890142D01*
X77223716Y-89913803D01*
X77217904Y-89937007D01*
X77209846Y-89959529D01*
X77199618Y-89981153D01*
X77187321Y-90001670D01*
X77173071Y-90020883D01*
X77157007Y-90038607D01*
X77139283Y-90054671D01*
X77120070Y-90068921D01*
X77099553Y-90081218D01*
X77077929Y-90091446D01*
X77055407Y-90099504D01*
X77032203Y-90105316D01*
X77008542Y-90108826D01*
X76984650Y-90110000D01*
X76072150Y-90110000D01*
X76048258Y-90108826D01*
X76024597Y-90105316D01*
X76001393Y-90099504D01*
X75978871Y-90091446D01*
X75957247Y-90081218D01*
X75936730Y-90068921D01*
X75917517Y-90054671D01*
X75899793Y-90038607D01*
X75883729Y-90020883D01*
X75869479Y-90001670D01*
X75857182Y-89981153D01*
X75846954Y-89959529D01*
X75838896Y-89937007D01*
X75833084Y-89913803D01*
X75829574Y-89890142D01*
X75828400Y-89866250D01*
X75828400Y-89378750D01*
X75829574Y-89354858D01*
X75833084Y-89331197D01*
X75838896Y-89307993D01*
X75846954Y-89285471D01*
X75857182Y-89263847D01*
X75869479Y-89243330D01*
X75883729Y-89224117D01*
X75899793Y-89206393D01*
X75917517Y-89190329D01*
X75936730Y-89176079D01*
X75957247Y-89163782D01*
X75978871Y-89153554D01*
X76001393Y-89145496D01*
X76024597Y-89139684D01*
X76048258Y-89136174D01*
X76072150Y-89135000D01*
X76984650Y-89135000D01*
X77008542Y-89136174D01*
X77008542Y-89136174D01*
G37*
D14*
X76528400Y-89622500D03*
D13*
G36*
X77008542Y-91011174D02*
G01*
X77032203Y-91014684D01*
X77055407Y-91020496D01*
X77077929Y-91028554D01*
X77099553Y-91038782D01*
X77120070Y-91051079D01*
X77139283Y-91065329D01*
X77157007Y-91081393D01*
X77173071Y-91099117D01*
X77187321Y-91118330D01*
X77199618Y-91138847D01*
X77209846Y-91160471D01*
X77217904Y-91182993D01*
X77223716Y-91206197D01*
X77227226Y-91229858D01*
X77228400Y-91253750D01*
X77228400Y-91741250D01*
X77227226Y-91765142D01*
X77223716Y-91788803D01*
X77217904Y-91812007D01*
X77209846Y-91834529D01*
X77199618Y-91856153D01*
X77187321Y-91876670D01*
X77173071Y-91895883D01*
X77157007Y-91913607D01*
X77139283Y-91929671D01*
X77120070Y-91943921D01*
X77099553Y-91956218D01*
X77077929Y-91966446D01*
X77055407Y-91974504D01*
X77032203Y-91980316D01*
X77008542Y-91983826D01*
X76984650Y-91985000D01*
X76072150Y-91985000D01*
X76048258Y-91983826D01*
X76024597Y-91980316D01*
X76001393Y-91974504D01*
X75978871Y-91966446D01*
X75957247Y-91956218D01*
X75936730Y-91943921D01*
X75917517Y-91929671D01*
X75899793Y-91913607D01*
X75883729Y-91895883D01*
X75869479Y-91876670D01*
X75857182Y-91856153D01*
X75846954Y-91834529D01*
X75838896Y-91812007D01*
X75833084Y-91788803D01*
X75829574Y-91765142D01*
X75828400Y-91741250D01*
X75828400Y-91253750D01*
X75829574Y-91229858D01*
X75833084Y-91206197D01*
X75838896Y-91182993D01*
X75846954Y-91160471D01*
X75857182Y-91138847D01*
X75869479Y-91118330D01*
X75883729Y-91099117D01*
X75899793Y-91081393D01*
X75917517Y-91065329D01*
X75936730Y-91051079D01*
X75957247Y-91038782D01*
X75978871Y-91028554D01*
X76001393Y-91020496D01*
X76024597Y-91014684D01*
X76048258Y-91011174D01*
X76072150Y-91010000D01*
X76984650Y-91010000D01*
X77008542Y-91011174D01*
X77008542Y-91011174D01*
G37*
D14*
X76528400Y-91497500D03*
D13*
G36*
X59426542Y-96278374D02*
G01*
X59450203Y-96281884D01*
X59473407Y-96287696D01*
X59495929Y-96295754D01*
X59517553Y-96305982D01*
X59538070Y-96318279D01*
X59557283Y-96332529D01*
X59575007Y-96348593D01*
X59591071Y-96366317D01*
X59605321Y-96385530D01*
X59617618Y-96406047D01*
X59627846Y-96427671D01*
X59635904Y-96450193D01*
X59641716Y-96473397D01*
X59645226Y-96497058D01*
X59646400Y-96520950D01*
X59646400Y-97433450D01*
X59645226Y-97457342D01*
X59641716Y-97481003D01*
X59635904Y-97504207D01*
X59627846Y-97526729D01*
X59617618Y-97548353D01*
X59605321Y-97568870D01*
X59591071Y-97588083D01*
X59575007Y-97605807D01*
X59557283Y-97621871D01*
X59538070Y-97636121D01*
X59517553Y-97648418D01*
X59495929Y-97658646D01*
X59473407Y-97666704D01*
X59450203Y-97672516D01*
X59426542Y-97676026D01*
X59402650Y-97677200D01*
X58915150Y-97677200D01*
X58891258Y-97676026D01*
X58867597Y-97672516D01*
X58844393Y-97666704D01*
X58821871Y-97658646D01*
X58800247Y-97648418D01*
X58779730Y-97636121D01*
X58760517Y-97621871D01*
X58742793Y-97605807D01*
X58726729Y-97588083D01*
X58712479Y-97568870D01*
X58700182Y-97548353D01*
X58689954Y-97526729D01*
X58681896Y-97504207D01*
X58676084Y-97481003D01*
X58672574Y-97457342D01*
X58671400Y-97433450D01*
X58671400Y-96520950D01*
X58672574Y-96497058D01*
X58676084Y-96473397D01*
X58681896Y-96450193D01*
X58689954Y-96427671D01*
X58700182Y-96406047D01*
X58712479Y-96385530D01*
X58726729Y-96366317D01*
X58742793Y-96348593D01*
X58760517Y-96332529D01*
X58779730Y-96318279D01*
X58800247Y-96305982D01*
X58821871Y-96295754D01*
X58844393Y-96287696D01*
X58867597Y-96281884D01*
X58891258Y-96278374D01*
X58915150Y-96277200D01*
X59402650Y-96277200D01*
X59426542Y-96278374D01*
X59426542Y-96278374D01*
G37*
D14*
X59158900Y-96977200D03*
D13*
G36*
X61301542Y-96278374D02*
G01*
X61325203Y-96281884D01*
X61348407Y-96287696D01*
X61370929Y-96295754D01*
X61392553Y-96305982D01*
X61413070Y-96318279D01*
X61432283Y-96332529D01*
X61450007Y-96348593D01*
X61466071Y-96366317D01*
X61480321Y-96385530D01*
X61492618Y-96406047D01*
X61502846Y-96427671D01*
X61510904Y-96450193D01*
X61516716Y-96473397D01*
X61520226Y-96497058D01*
X61521400Y-96520950D01*
X61521400Y-97433450D01*
X61520226Y-97457342D01*
X61516716Y-97481003D01*
X61510904Y-97504207D01*
X61502846Y-97526729D01*
X61492618Y-97548353D01*
X61480321Y-97568870D01*
X61466071Y-97588083D01*
X61450007Y-97605807D01*
X61432283Y-97621871D01*
X61413070Y-97636121D01*
X61392553Y-97648418D01*
X61370929Y-97658646D01*
X61348407Y-97666704D01*
X61325203Y-97672516D01*
X61301542Y-97676026D01*
X61277650Y-97677200D01*
X60790150Y-97677200D01*
X60766258Y-97676026D01*
X60742597Y-97672516D01*
X60719393Y-97666704D01*
X60696871Y-97658646D01*
X60675247Y-97648418D01*
X60654730Y-97636121D01*
X60635517Y-97621871D01*
X60617793Y-97605807D01*
X60601729Y-97588083D01*
X60587479Y-97568870D01*
X60575182Y-97548353D01*
X60564954Y-97526729D01*
X60556896Y-97504207D01*
X60551084Y-97481003D01*
X60547574Y-97457342D01*
X60546400Y-97433450D01*
X60546400Y-96520950D01*
X60547574Y-96497058D01*
X60551084Y-96473397D01*
X60556896Y-96450193D01*
X60564954Y-96427671D01*
X60575182Y-96406047D01*
X60587479Y-96385530D01*
X60601729Y-96366317D01*
X60617793Y-96348593D01*
X60635517Y-96332529D01*
X60654730Y-96318279D01*
X60675247Y-96305982D01*
X60696871Y-96295754D01*
X60719393Y-96287696D01*
X60742597Y-96281884D01*
X60766258Y-96278374D01*
X60790150Y-96277200D01*
X61277650Y-96277200D01*
X61301542Y-96278374D01*
X61301542Y-96278374D01*
G37*
D14*
X61033900Y-96977200D03*
D13*
G36*
X56831142Y-96278374D02*
G01*
X56854803Y-96281884D01*
X56878007Y-96287696D01*
X56900529Y-96295754D01*
X56922153Y-96305982D01*
X56942670Y-96318279D01*
X56961883Y-96332529D01*
X56979607Y-96348593D01*
X56995671Y-96366317D01*
X57009921Y-96385530D01*
X57022218Y-96406047D01*
X57032446Y-96427671D01*
X57040504Y-96450193D01*
X57046316Y-96473397D01*
X57049826Y-96497058D01*
X57051000Y-96520950D01*
X57051000Y-97433450D01*
X57049826Y-97457342D01*
X57046316Y-97481003D01*
X57040504Y-97504207D01*
X57032446Y-97526729D01*
X57022218Y-97548353D01*
X57009921Y-97568870D01*
X56995671Y-97588083D01*
X56979607Y-97605807D01*
X56961883Y-97621871D01*
X56942670Y-97636121D01*
X56922153Y-97648418D01*
X56900529Y-97658646D01*
X56878007Y-97666704D01*
X56854803Y-97672516D01*
X56831142Y-97676026D01*
X56807250Y-97677200D01*
X56319750Y-97677200D01*
X56295858Y-97676026D01*
X56272197Y-97672516D01*
X56248993Y-97666704D01*
X56226471Y-97658646D01*
X56204847Y-97648418D01*
X56184330Y-97636121D01*
X56165117Y-97621871D01*
X56147393Y-97605807D01*
X56131329Y-97588083D01*
X56117079Y-97568870D01*
X56104782Y-97548353D01*
X56094554Y-97526729D01*
X56086496Y-97504207D01*
X56080684Y-97481003D01*
X56077174Y-97457342D01*
X56076000Y-97433450D01*
X56076000Y-96520950D01*
X56077174Y-96497058D01*
X56080684Y-96473397D01*
X56086496Y-96450193D01*
X56094554Y-96427671D01*
X56104782Y-96406047D01*
X56117079Y-96385530D01*
X56131329Y-96366317D01*
X56147393Y-96348593D01*
X56165117Y-96332529D01*
X56184330Y-96318279D01*
X56204847Y-96305982D01*
X56226471Y-96295754D01*
X56248993Y-96287696D01*
X56272197Y-96281884D01*
X56295858Y-96278374D01*
X56319750Y-96277200D01*
X56807250Y-96277200D01*
X56831142Y-96278374D01*
X56831142Y-96278374D01*
G37*
D14*
X56563500Y-96977200D03*
D13*
G36*
X54956142Y-96278374D02*
G01*
X54979803Y-96281884D01*
X55003007Y-96287696D01*
X55025529Y-96295754D01*
X55047153Y-96305982D01*
X55067670Y-96318279D01*
X55086883Y-96332529D01*
X55104607Y-96348593D01*
X55120671Y-96366317D01*
X55134921Y-96385530D01*
X55147218Y-96406047D01*
X55157446Y-96427671D01*
X55165504Y-96450193D01*
X55171316Y-96473397D01*
X55174826Y-96497058D01*
X55176000Y-96520950D01*
X55176000Y-97433450D01*
X55174826Y-97457342D01*
X55171316Y-97481003D01*
X55165504Y-97504207D01*
X55157446Y-97526729D01*
X55147218Y-97548353D01*
X55134921Y-97568870D01*
X55120671Y-97588083D01*
X55104607Y-97605807D01*
X55086883Y-97621871D01*
X55067670Y-97636121D01*
X55047153Y-97648418D01*
X55025529Y-97658646D01*
X55003007Y-97666704D01*
X54979803Y-97672516D01*
X54956142Y-97676026D01*
X54932250Y-97677200D01*
X54444750Y-97677200D01*
X54420858Y-97676026D01*
X54397197Y-97672516D01*
X54373993Y-97666704D01*
X54351471Y-97658646D01*
X54329847Y-97648418D01*
X54309330Y-97636121D01*
X54290117Y-97621871D01*
X54272393Y-97605807D01*
X54256329Y-97588083D01*
X54242079Y-97568870D01*
X54229782Y-97548353D01*
X54219554Y-97526729D01*
X54211496Y-97504207D01*
X54205684Y-97481003D01*
X54202174Y-97457342D01*
X54201000Y-97433450D01*
X54201000Y-96520950D01*
X54202174Y-96497058D01*
X54205684Y-96473397D01*
X54211496Y-96450193D01*
X54219554Y-96427671D01*
X54229782Y-96406047D01*
X54242079Y-96385530D01*
X54256329Y-96366317D01*
X54272393Y-96348593D01*
X54290117Y-96332529D01*
X54309330Y-96318279D01*
X54329847Y-96305982D01*
X54351471Y-96295754D01*
X54373993Y-96287696D01*
X54397197Y-96281884D01*
X54420858Y-96278374D01*
X54444750Y-96277200D01*
X54932250Y-96277200D01*
X54956142Y-96278374D01*
X54956142Y-96278374D01*
G37*
D14*
X54688500Y-96977200D03*
D13*
G36*
X68780142Y-61676174D02*
G01*
X68803803Y-61679684D01*
X68827007Y-61685496D01*
X68849529Y-61693554D01*
X68871153Y-61703782D01*
X68891670Y-61716079D01*
X68910883Y-61730329D01*
X68928607Y-61746393D01*
X68944671Y-61764117D01*
X68958921Y-61783330D01*
X68971218Y-61803847D01*
X68981446Y-61825471D01*
X68989504Y-61847993D01*
X68995316Y-61871197D01*
X68998826Y-61894858D01*
X69000000Y-61918750D01*
X69000000Y-62406250D01*
X68998826Y-62430142D01*
X68995316Y-62453803D01*
X68989504Y-62477007D01*
X68981446Y-62499529D01*
X68971218Y-62521153D01*
X68958921Y-62541670D01*
X68944671Y-62560883D01*
X68928607Y-62578607D01*
X68910883Y-62594671D01*
X68891670Y-62608921D01*
X68871153Y-62621218D01*
X68849529Y-62631446D01*
X68827007Y-62639504D01*
X68803803Y-62645316D01*
X68780142Y-62648826D01*
X68756250Y-62650000D01*
X67843750Y-62650000D01*
X67819858Y-62648826D01*
X67796197Y-62645316D01*
X67772993Y-62639504D01*
X67750471Y-62631446D01*
X67728847Y-62621218D01*
X67708330Y-62608921D01*
X67689117Y-62594671D01*
X67671393Y-62578607D01*
X67655329Y-62560883D01*
X67641079Y-62541670D01*
X67628782Y-62521153D01*
X67618554Y-62499529D01*
X67610496Y-62477007D01*
X67604684Y-62453803D01*
X67601174Y-62430142D01*
X67600000Y-62406250D01*
X67600000Y-61918750D01*
X67601174Y-61894858D01*
X67604684Y-61871197D01*
X67610496Y-61847993D01*
X67618554Y-61825471D01*
X67628782Y-61803847D01*
X67641079Y-61783330D01*
X67655329Y-61764117D01*
X67671393Y-61746393D01*
X67689117Y-61730329D01*
X67708330Y-61716079D01*
X67728847Y-61703782D01*
X67750471Y-61693554D01*
X67772993Y-61685496D01*
X67796197Y-61679684D01*
X67819858Y-61676174D01*
X67843750Y-61675000D01*
X68756250Y-61675000D01*
X68780142Y-61676174D01*
X68780142Y-61676174D01*
G37*
D14*
X68300000Y-62162500D03*
D13*
G36*
X68780142Y-63551174D02*
G01*
X68803803Y-63554684D01*
X68827007Y-63560496D01*
X68849529Y-63568554D01*
X68871153Y-63578782D01*
X68891670Y-63591079D01*
X68910883Y-63605329D01*
X68928607Y-63621393D01*
X68944671Y-63639117D01*
X68958921Y-63658330D01*
X68971218Y-63678847D01*
X68981446Y-63700471D01*
X68989504Y-63722993D01*
X68995316Y-63746197D01*
X68998826Y-63769858D01*
X69000000Y-63793750D01*
X69000000Y-64281250D01*
X68998826Y-64305142D01*
X68995316Y-64328803D01*
X68989504Y-64352007D01*
X68981446Y-64374529D01*
X68971218Y-64396153D01*
X68958921Y-64416670D01*
X68944671Y-64435883D01*
X68928607Y-64453607D01*
X68910883Y-64469671D01*
X68891670Y-64483921D01*
X68871153Y-64496218D01*
X68849529Y-64506446D01*
X68827007Y-64514504D01*
X68803803Y-64520316D01*
X68780142Y-64523826D01*
X68756250Y-64525000D01*
X67843750Y-64525000D01*
X67819858Y-64523826D01*
X67796197Y-64520316D01*
X67772993Y-64514504D01*
X67750471Y-64506446D01*
X67728847Y-64496218D01*
X67708330Y-64483921D01*
X67689117Y-64469671D01*
X67671393Y-64453607D01*
X67655329Y-64435883D01*
X67641079Y-64416670D01*
X67628782Y-64396153D01*
X67618554Y-64374529D01*
X67610496Y-64352007D01*
X67604684Y-64328803D01*
X67601174Y-64305142D01*
X67600000Y-64281250D01*
X67600000Y-63793750D01*
X67601174Y-63769858D01*
X67604684Y-63746197D01*
X67610496Y-63722993D01*
X67618554Y-63700471D01*
X67628782Y-63678847D01*
X67641079Y-63658330D01*
X67655329Y-63639117D01*
X67671393Y-63621393D01*
X67689117Y-63605329D01*
X67708330Y-63591079D01*
X67728847Y-63578782D01*
X67750471Y-63568554D01*
X67772993Y-63560496D01*
X67796197Y-63554684D01*
X67819858Y-63551174D01*
X67843750Y-63550000D01*
X68756250Y-63550000D01*
X68780142Y-63551174D01*
X68780142Y-63551174D01*
G37*
D14*
X68300000Y-64037500D03*
D13*
G36*
X66585342Y-94896974D02*
G01*
X66609003Y-94900484D01*
X66632207Y-94906296D01*
X66654729Y-94914354D01*
X66676353Y-94924582D01*
X66696870Y-94936879D01*
X66716083Y-94951129D01*
X66733807Y-94967193D01*
X66749871Y-94984917D01*
X66764121Y-95004130D01*
X66776418Y-95024647D01*
X66786646Y-95046271D01*
X66794704Y-95068793D01*
X66800516Y-95091997D01*
X66804026Y-95115658D01*
X66805200Y-95139550D01*
X66805200Y-95627050D01*
X66804026Y-95650942D01*
X66800516Y-95674603D01*
X66794704Y-95697807D01*
X66786646Y-95720329D01*
X66776418Y-95741953D01*
X66764121Y-95762470D01*
X66749871Y-95781683D01*
X66733807Y-95799407D01*
X66716083Y-95815471D01*
X66696870Y-95829721D01*
X66676353Y-95842018D01*
X66654729Y-95852246D01*
X66632207Y-95860304D01*
X66609003Y-95866116D01*
X66585342Y-95869626D01*
X66561450Y-95870800D01*
X65648950Y-95870800D01*
X65625058Y-95869626D01*
X65601397Y-95866116D01*
X65578193Y-95860304D01*
X65555671Y-95852246D01*
X65534047Y-95842018D01*
X65513530Y-95829721D01*
X65494317Y-95815471D01*
X65476593Y-95799407D01*
X65460529Y-95781683D01*
X65446279Y-95762470D01*
X65433982Y-95741953D01*
X65423754Y-95720329D01*
X65415696Y-95697807D01*
X65409884Y-95674603D01*
X65406374Y-95650942D01*
X65405200Y-95627050D01*
X65405200Y-95139550D01*
X65406374Y-95115658D01*
X65409884Y-95091997D01*
X65415696Y-95068793D01*
X65423754Y-95046271D01*
X65433982Y-95024647D01*
X65446279Y-95004130D01*
X65460529Y-94984917D01*
X65476593Y-94967193D01*
X65494317Y-94951129D01*
X65513530Y-94936879D01*
X65534047Y-94924582D01*
X65555671Y-94914354D01*
X65578193Y-94906296D01*
X65601397Y-94900484D01*
X65625058Y-94896974D01*
X65648950Y-94895800D01*
X66561450Y-94895800D01*
X66585342Y-94896974D01*
X66585342Y-94896974D01*
G37*
D14*
X66105200Y-95383300D03*
D13*
G36*
X66585342Y-96771974D02*
G01*
X66609003Y-96775484D01*
X66632207Y-96781296D01*
X66654729Y-96789354D01*
X66676353Y-96799582D01*
X66696870Y-96811879D01*
X66716083Y-96826129D01*
X66733807Y-96842193D01*
X66749871Y-96859917D01*
X66764121Y-96879130D01*
X66776418Y-96899647D01*
X66786646Y-96921271D01*
X66794704Y-96943793D01*
X66800516Y-96966997D01*
X66804026Y-96990658D01*
X66805200Y-97014550D01*
X66805200Y-97502050D01*
X66804026Y-97525942D01*
X66800516Y-97549603D01*
X66794704Y-97572807D01*
X66786646Y-97595329D01*
X66776418Y-97616953D01*
X66764121Y-97637470D01*
X66749871Y-97656683D01*
X66733807Y-97674407D01*
X66716083Y-97690471D01*
X66696870Y-97704721D01*
X66676353Y-97717018D01*
X66654729Y-97727246D01*
X66632207Y-97735304D01*
X66609003Y-97741116D01*
X66585342Y-97744626D01*
X66561450Y-97745800D01*
X65648950Y-97745800D01*
X65625058Y-97744626D01*
X65601397Y-97741116D01*
X65578193Y-97735304D01*
X65555671Y-97727246D01*
X65534047Y-97717018D01*
X65513530Y-97704721D01*
X65494317Y-97690471D01*
X65476593Y-97674407D01*
X65460529Y-97656683D01*
X65446279Y-97637470D01*
X65433982Y-97616953D01*
X65423754Y-97595329D01*
X65415696Y-97572807D01*
X65409884Y-97549603D01*
X65406374Y-97525942D01*
X65405200Y-97502050D01*
X65405200Y-97014550D01*
X65406374Y-96990658D01*
X65409884Y-96966997D01*
X65415696Y-96943793D01*
X65423754Y-96921271D01*
X65433982Y-96899647D01*
X65446279Y-96879130D01*
X65460529Y-96859917D01*
X65476593Y-96842193D01*
X65494317Y-96826129D01*
X65513530Y-96811879D01*
X65534047Y-96799582D01*
X65555671Y-96789354D01*
X65578193Y-96781296D01*
X65601397Y-96775484D01*
X65625058Y-96771974D01*
X65648950Y-96770800D01*
X66561450Y-96770800D01*
X66585342Y-96771974D01*
X66585342Y-96771974D01*
G37*
D14*
X66105200Y-97258300D03*
D13*
G36*
X57230142Y-58201174D02*
G01*
X57253803Y-58204684D01*
X57277007Y-58210496D01*
X57299529Y-58218554D01*
X57321153Y-58228782D01*
X57341670Y-58241079D01*
X57360883Y-58255329D01*
X57378607Y-58271393D01*
X57394671Y-58289117D01*
X57408921Y-58308330D01*
X57421218Y-58328847D01*
X57431446Y-58350471D01*
X57439504Y-58372993D01*
X57445316Y-58396197D01*
X57448826Y-58419858D01*
X57450000Y-58443750D01*
X57450000Y-59356250D01*
X57448826Y-59380142D01*
X57445316Y-59403803D01*
X57439504Y-59427007D01*
X57431446Y-59449529D01*
X57421218Y-59471153D01*
X57408921Y-59491670D01*
X57394671Y-59510883D01*
X57378607Y-59528607D01*
X57360883Y-59544671D01*
X57341670Y-59558921D01*
X57321153Y-59571218D01*
X57299529Y-59581446D01*
X57277007Y-59589504D01*
X57253803Y-59595316D01*
X57230142Y-59598826D01*
X57206250Y-59600000D01*
X56718750Y-59600000D01*
X56694858Y-59598826D01*
X56671197Y-59595316D01*
X56647993Y-59589504D01*
X56625471Y-59581446D01*
X56603847Y-59571218D01*
X56583330Y-59558921D01*
X56564117Y-59544671D01*
X56546393Y-59528607D01*
X56530329Y-59510883D01*
X56516079Y-59491670D01*
X56503782Y-59471153D01*
X56493554Y-59449529D01*
X56485496Y-59427007D01*
X56479684Y-59403803D01*
X56476174Y-59380142D01*
X56475000Y-59356250D01*
X56475000Y-58443750D01*
X56476174Y-58419858D01*
X56479684Y-58396197D01*
X56485496Y-58372993D01*
X56493554Y-58350471D01*
X56503782Y-58328847D01*
X56516079Y-58308330D01*
X56530329Y-58289117D01*
X56546393Y-58271393D01*
X56564117Y-58255329D01*
X56583330Y-58241079D01*
X56603847Y-58228782D01*
X56625471Y-58218554D01*
X56647993Y-58210496D01*
X56671197Y-58204684D01*
X56694858Y-58201174D01*
X56718750Y-58200000D01*
X57206250Y-58200000D01*
X57230142Y-58201174D01*
X57230142Y-58201174D01*
G37*
D14*
X56962500Y-58900000D03*
D13*
G36*
X59105142Y-58201174D02*
G01*
X59128803Y-58204684D01*
X59152007Y-58210496D01*
X59174529Y-58218554D01*
X59196153Y-58228782D01*
X59216670Y-58241079D01*
X59235883Y-58255329D01*
X59253607Y-58271393D01*
X59269671Y-58289117D01*
X59283921Y-58308330D01*
X59296218Y-58328847D01*
X59306446Y-58350471D01*
X59314504Y-58372993D01*
X59320316Y-58396197D01*
X59323826Y-58419858D01*
X59325000Y-58443750D01*
X59325000Y-59356250D01*
X59323826Y-59380142D01*
X59320316Y-59403803D01*
X59314504Y-59427007D01*
X59306446Y-59449529D01*
X59296218Y-59471153D01*
X59283921Y-59491670D01*
X59269671Y-59510883D01*
X59253607Y-59528607D01*
X59235883Y-59544671D01*
X59216670Y-59558921D01*
X59196153Y-59571218D01*
X59174529Y-59581446D01*
X59152007Y-59589504D01*
X59128803Y-59595316D01*
X59105142Y-59598826D01*
X59081250Y-59600000D01*
X58593750Y-59600000D01*
X58569858Y-59598826D01*
X58546197Y-59595316D01*
X58522993Y-59589504D01*
X58500471Y-59581446D01*
X58478847Y-59571218D01*
X58458330Y-59558921D01*
X58439117Y-59544671D01*
X58421393Y-59528607D01*
X58405329Y-59510883D01*
X58391079Y-59491670D01*
X58378782Y-59471153D01*
X58368554Y-59449529D01*
X58360496Y-59427007D01*
X58354684Y-59403803D01*
X58351174Y-59380142D01*
X58350000Y-59356250D01*
X58350000Y-58443750D01*
X58351174Y-58419858D01*
X58354684Y-58396197D01*
X58360496Y-58372993D01*
X58368554Y-58350471D01*
X58378782Y-58328847D01*
X58391079Y-58308330D01*
X58405329Y-58289117D01*
X58421393Y-58271393D01*
X58439117Y-58255329D01*
X58458330Y-58241079D01*
X58478847Y-58228782D01*
X58500471Y-58218554D01*
X58522993Y-58210496D01*
X58546197Y-58204684D01*
X58569858Y-58201174D01*
X58593750Y-58200000D01*
X59081250Y-58200000D01*
X59105142Y-58201174D01*
X59105142Y-58201174D01*
G37*
D14*
X58837500Y-58900000D03*
D13*
G36*
X82380142Y-87876174D02*
G01*
X82403803Y-87879684D01*
X82427007Y-87885496D01*
X82449529Y-87893554D01*
X82471153Y-87903782D01*
X82491670Y-87916079D01*
X82510883Y-87930329D01*
X82528607Y-87946393D01*
X82544671Y-87964117D01*
X82558921Y-87983330D01*
X82571218Y-88003847D01*
X82581446Y-88025471D01*
X82589504Y-88047993D01*
X82595316Y-88071197D01*
X82598826Y-88094858D01*
X82600000Y-88118750D01*
X82600000Y-88606250D01*
X82598826Y-88630142D01*
X82595316Y-88653803D01*
X82589504Y-88677007D01*
X82581446Y-88699529D01*
X82571218Y-88721153D01*
X82558921Y-88741670D01*
X82544671Y-88760883D01*
X82528607Y-88778607D01*
X82510883Y-88794671D01*
X82491670Y-88808921D01*
X82471153Y-88821218D01*
X82449529Y-88831446D01*
X82427007Y-88839504D01*
X82403803Y-88845316D01*
X82380142Y-88848826D01*
X82356250Y-88850000D01*
X81443750Y-88850000D01*
X81419858Y-88848826D01*
X81396197Y-88845316D01*
X81372993Y-88839504D01*
X81350471Y-88831446D01*
X81328847Y-88821218D01*
X81308330Y-88808921D01*
X81289117Y-88794671D01*
X81271393Y-88778607D01*
X81255329Y-88760883D01*
X81241079Y-88741670D01*
X81228782Y-88721153D01*
X81218554Y-88699529D01*
X81210496Y-88677007D01*
X81204684Y-88653803D01*
X81201174Y-88630142D01*
X81200000Y-88606250D01*
X81200000Y-88118750D01*
X81201174Y-88094858D01*
X81204684Y-88071197D01*
X81210496Y-88047993D01*
X81218554Y-88025471D01*
X81228782Y-88003847D01*
X81241079Y-87983330D01*
X81255329Y-87964117D01*
X81271393Y-87946393D01*
X81289117Y-87930329D01*
X81308330Y-87916079D01*
X81328847Y-87903782D01*
X81350471Y-87893554D01*
X81372993Y-87885496D01*
X81396197Y-87879684D01*
X81419858Y-87876174D01*
X81443750Y-87875000D01*
X82356250Y-87875000D01*
X82380142Y-87876174D01*
X82380142Y-87876174D01*
G37*
D14*
X81900000Y-88362500D03*
D13*
G36*
X82380142Y-89751174D02*
G01*
X82403803Y-89754684D01*
X82427007Y-89760496D01*
X82449529Y-89768554D01*
X82471153Y-89778782D01*
X82491670Y-89791079D01*
X82510883Y-89805329D01*
X82528607Y-89821393D01*
X82544671Y-89839117D01*
X82558921Y-89858330D01*
X82571218Y-89878847D01*
X82581446Y-89900471D01*
X82589504Y-89922993D01*
X82595316Y-89946197D01*
X82598826Y-89969858D01*
X82600000Y-89993750D01*
X82600000Y-90481250D01*
X82598826Y-90505142D01*
X82595316Y-90528803D01*
X82589504Y-90552007D01*
X82581446Y-90574529D01*
X82571218Y-90596153D01*
X82558921Y-90616670D01*
X82544671Y-90635883D01*
X82528607Y-90653607D01*
X82510883Y-90669671D01*
X82491670Y-90683921D01*
X82471153Y-90696218D01*
X82449529Y-90706446D01*
X82427007Y-90714504D01*
X82403803Y-90720316D01*
X82380142Y-90723826D01*
X82356250Y-90725000D01*
X81443750Y-90725000D01*
X81419858Y-90723826D01*
X81396197Y-90720316D01*
X81372993Y-90714504D01*
X81350471Y-90706446D01*
X81328847Y-90696218D01*
X81308330Y-90683921D01*
X81289117Y-90669671D01*
X81271393Y-90653607D01*
X81255329Y-90635883D01*
X81241079Y-90616670D01*
X81228782Y-90596153D01*
X81218554Y-90574529D01*
X81210496Y-90552007D01*
X81204684Y-90528803D01*
X81201174Y-90505142D01*
X81200000Y-90481250D01*
X81200000Y-89993750D01*
X81201174Y-89969858D01*
X81204684Y-89946197D01*
X81210496Y-89922993D01*
X81218554Y-89900471D01*
X81228782Y-89878847D01*
X81241079Y-89858330D01*
X81255329Y-89839117D01*
X81271393Y-89821393D01*
X81289117Y-89805329D01*
X81308330Y-89791079D01*
X81328847Y-89778782D01*
X81350471Y-89768554D01*
X81372993Y-89760496D01*
X81396197Y-89754684D01*
X81419858Y-89751174D01*
X81443750Y-89750000D01*
X82356250Y-89750000D01*
X82380142Y-89751174D01*
X82380142Y-89751174D01*
G37*
D14*
X81900000Y-90237500D03*
D13*
G36*
X77405142Y-79701174D02*
G01*
X77428803Y-79704684D01*
X77452007Y-79710496D01*
X77474529Y-79718554D01*
X77496153Y-79728782D01*
X77516670Y-79741079D01*
X77535883Y-79755329D01*
X77553607Y-79771393D01*
X77569671Y-79789117D01*
X77583921Y-79808330D01*
X77596218Y-79828847D01*
X77606446Y-79850471D01*
X77614504Y-79872993D01*
X77620316Y-79896197D01*
X77623826Y-79919858D01*
X77625000Y-79943750D01*
X77625000Y-80856250D01*
X77623826Y-80880142D01*
X77620316Y-80903803D01*
X77614504Y-80927007D01*
X77606446Y-80949529D01*
X77596218Y-80971153D01*
X77583921Y-80991670D01*
X77569671Y-81010883D01*
X77553607Y-81028607D01*
X77535883Y-81044671D01*
X77516670Y-81058921D01*
X77496153Y-81071218D01*
X77474529Y-81081446D01*
X77452007Y-81089504D01*
X77428803Y-81095316D01*
X77405142Y-81098826D01*
X77381250Y-81100000D01*
X76893750Y-81100000D01*
X76869858Y-81098826D01*
X76846197Y-81095316D01*
X76822993Y-81089504D01*
X76800471Y-81081446D01*
X76778847Y-81071218D01*
X76758330Y-81058921D01*
X76739117Y-81044671D01*
X76721393Y-81028607D01*
X76705329Y-81010883D01*
X76691079Y-80991670D01*
X76678782Y-80971153D01*
X76668554Y-80949529D01*
X76660496Y-80927007D01*
X76654684Y-80903803D01*
X76651174Y-80880142D01*
X76650000Y-80856250D01*
X76650000Y-79943750D01*
X76651174Y-79919858D01*
X76654684Y-79896197D01*
X76660496Y-79872993D01*
X76668554Y-79850471D01*
X76678782Y-79828847D01*
X76691079Y-79808330D01*
X76705329Y-79789117D01*
X76721393Y-79771393D01*
X76739117Y-79755329D01*
X76758330Y-79741079D01*
X76778847Y-79728782D01*
X76800471Y-79718554D01*
X76822993Y-79710496D01*
X76846197Y-79704684D01*
X76869858Y-79701174D01*
X76893750Y-79700000D01*
X77381250Y-79700000D01*
X77405142Y-79701174D01*
X77405142Y-79701174D01*
G37*
D14*
X77137500Y-80400000D03*
D13*
G36*
X75530142Y-79701174D02*
G01*
X75553803Y-79704684D01*
X75577007Y-79710496D01*
X75599529Y-79718554D01*
X75621153Y-79728782D01*
X75641670Y-79741079D01*
X75660883Y-79755329D01*
X75678607Y-79771393D01*
X75694671Y-79789117D01*
X75708921Y-79808330D01*
X75721218Y-79828847D01*
X75731446Y-79850471D01*
X75739504Y-79872993D01*
X75745316Y-79896197D01*
X75748826Y-79919858D01*
X75750000Y-79943750D01*
X75750000Y-80856250D01*
X75748826Y-80880142D01*
X75745316Y-80903803D01*
X75739504Y-80927007D01*
X75731446Y-80949529D01*
X75721218Y-80971153D01*
X75708921Y-80991670D01*
X75694671Y-81010883D01*
X75678607Y-81028607D01*
X75660883Y-81044671D01*
X75641670Y-81058921D01*
X75621153Y-81071218D01*
X75599529Y-81081446D01*
X75577007Y-81089504D01*
X75553803Y-81095316D01*
X75530142Y-81098826D01*
X75506250Y-81100000D01*
X75018750Y-81100000D01*
X74994858Y-81098826D01*
X74971197Y-81095316D01*
X74947993Y-81089504D01*
X74925471Y-81081446D01*
X74903847Y-81071218D01*
X74883330Y-81058921D01*
X74864117Y-81044671D01*
X74846393Y-81028607D01*
X74830329Y-81010883D01*
X74816079Y-80991670D01*
X74803782Y-80971153D01*
X74793554Y-80949529D01*
X74785496Y-80927007D01*
X74779684Y-80903803D01*
X74776174Y-80880142D01*
X74775000Y-80856250D01*
X74775000Y-79943750D01*
X74776174Y-79919858D01*
X74779684Y-79896197D01*
X74785496Y-79872993D01*
X74793554Y-79850471D01*
X74803782Y-79828847D01*
X74816079Y-79808330D01*
X74830329Y-79789117D01*
X74846393Y-79771393D01*
X74864117Y-79755329D01*
X74883330Y-79741079D01*
X74903847Y-79728782D01*
X74925471Y-79718554D01*
X74947993Y-79710496D01*
X74971197Y-79704684D01*
X74994858Y-79701174D01*
X75018750Y-79700000D01*
X75506250Y-79700000D01*
X75530142Y-79701174D01*
X75530142Y-79701174D01*
G37*
D14*
X75262500Y-80400000D03*
D13*
G36*
X73505142Y-79701174D02*
G01*
X73528803Y-79704684D01*
X73552007Y-79710496D01*
X73574529Y-79718554D01*
X73596153Y-79728782D01*
X73616670Y-79741079D01*
X73635883Y-79755329D01*
X73653607Y-79771393D01*
X73669671Y-79789117D01*
X73683921Y-79808330D01*
X73696218Y-79828847D01*
X73706446Y-79850471D01*
X73714504Y-79872993D01*
X73720316Y-79896197D01*
X73723826Y-79919858D01*
X73725000Y-79943750D01*
X73725000Y-80856250D01*
X73723826Y-80880142D01*
X73720316Y-80903803D01*
X73714504Y-80927007D01*
X73706446Y-80949529D01*
X73696218Y-80971153D01*
X73683921Y-80991670D01*
X73669671Y-81010883D01*
X73653607Y-81028607D01*
X73635883Y-81044671D01*
X73616670Y-81058921D01*
X73596153Y-81071218D01*
X73574529Y-81081446D01*
X73552007Y-81089504D01*
X73528803Y-81095316D01*
X73505142Y-81098826D01*
X73481250Y-81100000D01*
X72993750Y-81100000D01*
X72969858Y-81098826D01*
X72946197Y-81095316D01*
X72922993Y-81089504D01*
X72900471Y-81081446D01*
X72878847Y-81071218D01*
X72858330Y-81058921D01*
X72839117Y-81044671D01*
X72821393Y-81028607D01*
X72805329Y-81010883D01*
X72791079Y-80991670D01*
X72778782Y-80971153D01*
X72768554Y-80949529D01*
X72760496Y-80927007D01*
X72754684Y-80903803D01*
X72751174Y-80880142D01*
X72750000Y-80856250D01*
X72750000Y-79943750D01*
X72751174Y-79919858D01*
X72754684Y-79896197D01*
X72760496Y-79872993D01*
X72768554Y-79850471D01*
X72778782Y-79828847D01*
X72791079Y-79808330D01*
X72805329Y-79789117D01*
X72821393Y-79771393D01*
X72839117Y-79755329D01*
X72858330Y-79741079D01*
X72878847Y-79728782D01*
X72900471Y-79718554D01*
X72922993Y-79710496D01*
X72946197Y-79704684D01*
X72969858Y-79701174D01*
X72993750Y-79700000D01*
X73481250Y-79700000D01*
X73505142Y-79701174D01*
X73505142Y-79701174D01*
G37*
D14*
X73237500Y-80400000D03*
D13*
G36*
X71630142Y-79701174D02*
G01*
X71653803Y-79704684D01*
X71677007Y-79710496D01*
X71699529Y-79718554D01*
X71721153Y-79728782D01*
X71741670Y-79741079D01*
X71760883Y-79755329D01*
X71778607Y-79771393D01*
X71794671Y-79789117D01*
X71808921Y-79808330D01*
X71821218Y-79828847D01*
X71831446Y-79850471D01*
X71839504Y-79872993D01*
X71845316Y-79896197D01*
X71848826Y-79919858D01*
X71850000Y-79943750D01*
X71850000Y-80856250D01*
X71848826Y-80880142D01*
X71845316Y-80903803D01*
X71839504Y-80927007D01*
X71831446Y-80949529D01*
X71821218Y-80971153D01*
X71808921Y-80991670D01*
X71794671Y-81010883D01*
X71778607Y-81028607D01*
X71760883Y-81044671D01*
X71741670Y-81058921D01*
X71721153Y-81071218D01*
X71699529Y-81081446D01*
X71677007Y-81089504D01*
X71653803Y-81095316D01*
X71630142Y-81098826D01*
X71606250Y-81100000D01*
X71118750Y-81100000D01*
X71094858Y-81098826D01*
X71071197Y-81095316D01*
X71047993Y-81089504D01*
X71025471Y-81081446D01*
X71003847Y-81071218D01*
X70983330Y-81058921D01*
X70964117Y-81044671D01*
X70946393Y-81028607D01*
X70930329Y-81010883D01*
X70916079Y-80991670D01*
X70903782Y-80971153D01*
X70893554Y-80949529D01*
X70885496Y-80927007D01*
X70879684Y-80903803D01*
X70876174Y-80880142D01*
X70875000Y-80856250D01*
X70875000Y-79943750D01*
X70876174Y-79919858D01*
X70879684Y-79896197D01*
X70885496Y-79872993D01*
X70893554Y-79850471D01*
X70903782Y-79828847D01*
X70916079Y-79808330D01*
X70930329Y-79789117D01*
X70946393Y-79771393D01*
X70964117Y-79755329D01*
X70983330Y-79741079D01*
X71003847Y-79728782D01*
X71025471Y-79718554D01*
X71047993Y-79710496D01*
X71071197Y-79704684D01*
X71094858Y-79701174D01*
X71118750Y-79700000D01*
X71606250Y-79700000D01*
X71630142Y-79701174D01*
X71630142Y-79701174D01*
G37*
D14*
X71362500Y-80400000D03*
D13*
G36*
X71180142Y-63551174D02*
G01*
X71203803Y-63554684D01*
X71227007Y-63560496D01*
X71249529Y-63568554D01*
X71271153Y-63578782D01*
X71291670Y-63591079D01*
X71310883Y-63605329D01*
X71328607Y-63621393D01*
X71344671Y-63639117D01*
X71358921Y-63658330D01*
X71371218Y-63678847D01*
X71381446Y-63700471D01*
X71389504Y-63722993D01*
X71395316Y-63746197D01*
X71398826Y-63769858D01*
X71400000Y-63793750D01*
X71400000Y-64281250D01*
X71398826Y-64305142D01*
X71395316Y-64328803D01*
X71389504Y-64352007D01*
X71381446Y-64374529D01*
X71371218Y-64396153D01*
X71358921Y-64416670D01*
X71344671Y-64435883D01*
X71328607Y-64453607D01*
X71310883Y-64469671D01*
X71291670Y-64483921D01*
X71271153Y-64496218D01*
X71249529Y-64506446D01*
X71227007Y-64514504D01*
X71203803Y-64520316D01*
X71180142Y-64523826D01*
X71156250Y-64525000D01*
X70243750Y-64525000D01*
X70219858Y-64523826D01*
X70196197Y-64520316D01*
X70172993Y-64514504D01*
X70150471Y-64506446D01*
X70128847Y-64496218D01*
X70108330Y-64483921D01*
X70089117Y-64469671D01*
X70071393Y-64453607D01*
X70055329Y-64435883D01*
X70041079Y-64416670D01*
X70028782Y-64396153D01*
X70018554Y-64374529D01*
X70010496Y-64352007D01*
X70004684Y-64328803D01*
X70001174Y-64305142D01*
X70000000Y-64281250D01*
X70000000Y-63793750D01*
X70001174Y-63769858D01*
X70004684Y-63746197D01*
X70010496Y-63722993D01*
X70018554Y-63700471D01*
X70028782Y-63678847D01*
X70041079Y-63658330D01*
X70055329Y-63639117D01*
X70071393Y-63621393D01*
X70089117Y-63605329D01*
X70108330Y-63591079D01*
X70128847Y-63578782D01*
X70150471Y-63568554D01*
X70172993Y-63560496D01*
X70196197Y-63554684D01*
X70219858Y-63551174D01*
X70243750Y-63550000D01*
X71156250Y-63550000D01*
X71180142Y-63551174D01*
X71180142Y-63551174D01*
G37*
D14*
X70700000Y-64037500D03*
D13*
G36*
X71180142Y-61676174D02*
G01*
X71203803Y-61679684D01*
X71227007Y-61685496D01*
X71249529Y-61693554D01*
X71271153Y-61703782D01*
X71291670Y-61716079D01*
X71310883Y-61730329D01*
X71328607Y-61746393D01*
X71344671Y-61764117D01*
X71358921Y-61783330D01*
X71371218Y-61803847D01*
X71381446Y-61825471D01*
X71389504Y-61847993D01*
X71395316Y-61871197D01*
X71398826Y-61894858D01*
X71400000Y-61918750D01*
X71400000Y-62406250D01*
X71398826Y-62430142D01*
X71395316Y-62453803D01*
X71389504Y-62477007D01*
X71381446Y-62499529D01*
X71371218Y-62521153D01*
X71358921Y-62541670D01*
X71344671Y-62560883D01*
X71328607Y-62578607D01*
X71310883Y-62594671D01*
X71291670Y-62608921D01*
X71271153Y-62621218D01*
X71249529Y-62631446D01*
X71227007Y-62639504D01*
X71203803Y-62645316D01*
X71180142Y-62648826D01*
X71156250Y-62650000D01*
X70243750Y-62650000D01*
X70219858Y-62648826D01*
X70196197Y-62645316D01*
X70172993Y-62639504D01*
X70150471Y-62631446D01*
X70128847Y-62621218D01*
X70108330Y-62608921D01*
X70089117Y-62594671D01*
X70071393Y-62578607D01*
X70055329Y-62560883D01*
X70041079Y-62541670D01*
X70028782Y-62521153D01*
X70018554Y-62499529D01*
X70010496Y-62477007D01*
X70004684Y-62453803D01*
X70001174Y-62430142D01*
X70000000Y-62406250D01*
X70000000Y-61918750D01*
X70001174Y-61894858D01*
X70004684Y-61871197D01*
X70010496Y-61847993D01*
X70018554Y-61825471D01*
X70028782Y-61803847D01*
X70041079Y-61783330D01*
X70055329Y-61764117D01*
X70071393Y-61746393D01*
X70089117Y-61730329D01*
X70108330Y-61716079D01*
X70128847Y-61703782D01*
X70150471Y-61693554D01*
X70172993Y-61685496D01*
X70196197Y-61679684D01*
X70219858Y-61676174D01*
X70243750Y-61675000D01*
X71156250Y-61675000D01*
X71180142Y-61676174D01*
X71180142Y-61676174D01*
G37*
D14*
X70700000Y-62162500D03*
D15*
X49834400Y-88581200D03*
X49834400Y-93181200D03*
X49834400Y-90881200D03*
D16*
X56134400Y-90881200D03*
D13*
G36*
X76014703Y-98205722D02*
G01*
X76029264Y-98207882D01*
X76043543Y-98211459D01*
X76057403Y-98216418D01*
X76070710Y-98222712D01*
X76083336Y-98230280D01*
X76095159Y-98239048D01*
X76106066Y-98248934D01*
X76115952Y-98259841D01*
X76124720Y-98271664D01*
X76132288Y-98284290D01*
X76138582Y-98297597D01*
X76143541Y-98311457D01*
X76147118Y-98325736D01*
X76149278Y-98340297D01*
X76150000Y-98355000D01*
X76150000Y-98655000D01*
X76149278Y-98669703D01*
X76147118Y-98684264D01*
X76143541Y-98698543D01*
X76138582Y-98712403D01*
X76132288Y-98725710D01*
X76124720Y-98738336D01*
X76115952Y-98750159D01*
X76106066Y-98761066D01*
X76095159Y-98770952D01*
X76083336Y-98779720D01*
X76070710Y-98787288D01*
X76057403Y-98793582D01*
X76043543Y-98798541D01*
X76029264Y-98802118D01*
X76014703Y-98804278D01*
X76000000Y-98805000D01*
X74350000Y-98805000D01*
X74335297Y-98804278D01*
X74320736Y-98802118D01*
X74306457Y-98798541D01*
X74292597Y-98793582D01*
X74279290Y-98787288D01*
X74266664Y-98779720D01*
X74254841Y-98770952D01*
X74243934Y-98761066D01*
X74234048Y-98750159D01*
X74225280Y-98738336D01*
X74217712Y-98725710D01*
X74211418Y-98712403D01*
X74206459Y-98698543D01*
X74202882Y-98684264D01*
X74200722Y-98669703D01*
X74200000Y-98655000D01*
X74200000Y-98355000D01*
X74200722Y-98340297D01*
X74202882Y-98325736D01*
X74206459Y-98311457D01*
X74211418Y-98297597D01*
X74217712Y-98284290D01*
X74225280Y-98271664D01*
X74234048Y-98259841D01*
X74243934Y-98248934D01*
X74254841Y-98239048D01*
X74266664Y-98230280D01*
X74279290Y-98222712D01*
X74292597Y-98216418D01*
X74306457Y-98211459D01*
X74320736Y-98207882D01*
X74335297Y-98205722D01*
X74350000Y-98205000D01*
X76000000Y-98205000D01*
X76014703Y-98205722D01*
X76014703Y-98205722D01*
G37*
D17*
X75175000Y-98505000D03*
D13*
G36*
X76014703Y-96935722D02*
G01*
X76029264Y-96937882D01*
X76043543Y-96941459D01*
X76057403Y-96946418D01*
X76070710Y-96952712D01*
X76083336Y-96960280D01*
X76095159Y-96969048D01*
X76106066Y-96978934D01*
X76115952Y-96989841D01*
X76124720Y-97001664D01*
X76132288Y-97014290D01*
X76138582Y-97027597D01*
X76143541Y-97041457D01*
X76147118Y-97055736D01*
X76149278Y-97070297D01*
X76150000Y-97085000D01*
X76150000Y-97385000D01*
X76149278Y-97399703D01*
X76147118Y-97414264D01*
X76143541Y-97428543D01*
X76138582Y-97442403D01*
X76132288Y-97455710D01*
X76124720Y-97468336D01*
X76115952Y-97480159D01*
X76106066Y-97491066D01*
X76095159Y-97500952D01*
X76083336Y-97509720D01*
X76070710Y-97517288D01*
X76057403Y-97523582D01*
X76043543Y-97528541D01*
X76029264Y-97532118D01*
X76014703Y-97534278D01*
X76000000Y-97535000D01*
X74350000Y-97535000D01*
X74335297Y-97534278D01*
X74320736Y-97532118D01*
X74306457Y-97528541D01*
X74292597Y-97523582D01*
X74279290Y-97517288D01*
X74266664Y-97509720D01*
X74254841Y-97500952D01*
X74243934Y-97491066D01*
X74234048Y-97480159D01*
X74225280Y-97468336D01*
X74217712Y-97455710D01*
X74211418Y-97442403D01*
X74206459Y-97428543D01*
X74202882Y-97414264D01*
X74200722Y-97399703D01*
X74200000Y-97385000D01*
X74200000Y-97085000D01*
X74200722Y-97070297D01*
X74202882Y-97055736D01*
X74206459Y-97041457D01*
X74211418Y-97027597D01*
X74217712Y-97014290D01*
X74225280Y-97001664D01*
X74234048Y-96989841D01*
X74243934Y-96978934D01*
X74254841Y-96969048D01*
X74266664Y-96960280D01*
X74279290Y-96952712D01*
X74292597Y-96946418D01*
X74306457Y-96941459D01*
X74320736Y-96937882D01*
X74335297Y-96935722D01*
X74350000Y-96935000D01*
X76000000Y-96935000D01*
X76014703Y-96935722D01*
X76014703Y-96935722D01*
G37*
D17*
X75175000Y-97235000D03*
D13*
G36*
X76014703Y-95665722D02*
G01*
X76029264Y-95667882D01*
X76043543Y-95671459D01*
X76057403Y-95676418D01*
X76070710Y-95682712D01*
X76083336Y-95690280D01*
X76095159Y-95699048D01*
X76106066Y-95708934D01*
X76115952Y-95719841D01*
X76124720Y-95731664D01*
X76132288Y-95744290D01*
X76138582Y-95757597D01*
X76143541Y-95771457D01*
X76147118Y-95785736D01*
X76149278Y-95800297D01*
X76150000Y-95815000D01*
X76150000Y-96115000D01*
X76149278Y-96129703D01*
X76147118Y-96144264D01*
X76143541Y-96158543D01*
X76138582Y-96172403D01*
X76132288Y-96185710D01*
X76124720Y-96198336D01*
X76115952Y-96210159D01*
X76106066Y-96221066D01*
X76095159Y-96230952D01*
X76083336Y-96239720D01*
X76070710Y-96247288D01*
X76057403Y-96253582D01*
X76043543Y-96258541D01*
X76029264Y-96262118D01*
X76014703Y-96264278D01*
X76000000Y-96265000D01*
X74350000Y-96265000D01*
X74335297Y-96264278D01*
X74320736Y-96262118D01*
X74306457Y-96258541D01*
X74292597Y-96253582D01*
X74279290Y-96247288D01*
X74266664Y-96239720D01*
X74254841Y-96230952D01*
X74243934Y-96221066D01*
X74234048Y-96210159D01*
X74225280Y-96198336D01*
X74217712Y-96185710D01*
X74211418Y-96172403D01*
X74206459Y-96158543D01*
X74202882Y-96144264D01*
X74200722Y-96129703D01*
X74200000Y-96115000D01*
X74200000Y-95815000D01*
X74200722Y-95800297D01*
X74202882Y-95785736D01*
X74206459Y-95771457D01*
X74211418Y-95757597D01*
X74217712Y-95744290D01*
X74225280Y-95731664D01*
X74234048Y-95719841D01*
X74243934Y-95708934D01*
X74254841Y-95699048D01*
X74266664Y-95690280D01*
X74279290Y-95682712D01*
X74292597Y-95676418D01*
X74306457Y-95671459D01*
X74320736Y-95667882D01*
X74335297Y-95665722D01*
X74350000Y-95665000D01*
X76000000Y-95665000D01*
X76014703Y-95665722D01*
X76014703Y-95665722D01*
G37*
D17*
X75175000Y-95965000D03*
D13*
G36*
X76014703Y-94395722D02*
G01*
X76029264Y-94397882D01*
X76043543Y-94401459D01*
X76057403Y-94406418D01*
X76070710Y-94412712D01*
X76083336Y-94420280D01*
X76095159Y-94429048D01*
X76106066Y-94438934D01*
X76115952Y-94449841D01*
X76124720Y-94461664D01*
X76132288Y-94474290D01*
X76138582Y-94487597D01*
X76143541Y-94501457D01*
X76147118Y-94515736D01*
X76149278Y-94530297D01*
X76150000Y-94545000D01*
X76150000Y-94845000D01*
X76149278Y-94859703D01*
X76147118Y-94874264D01*
X76143541Y-94888543D01*
X76138582Y-94902403D01*
X76132288Y-94915710D01*
X76124720Y-94928336D01*
X76115952Y-94940159D01*
X76106066Y-94951066D01*
X76095159Y-94960952D01*
X76083336Y-94969720D01*
X76070710Y-94977288D01*
X76057403Y-94983582D01*
X76043543Y-94988541D01*
X76029264Y-94992118D01*
X76014703Y-94994278D01*
X76000000Y-94995000D01*
X74350000Y-94995000D01*
X74335297Y-94994278D01*
X74320736Y-94992118D01*
X74306457Y-94988541D01*
X74292597Y-94983582D01*
X74279290Y-94977288D01*
X74266664Y-94969720D01*
X74254841Y-94960952D01*
X74243934Y-94951066D01*
X74234048Y-94940159D01*
X74225280Y-94928336D01*
X74217712Y-94915710D01*
X74211418Y-94902403D01*
X74206459Y-94888543D01*
X74202882Y-94874264D01*
X74200722Y-94859703D01*
X74200000Y-94845000D01*
X74200000Y-94545000D01*
X74200722Y-94530297D01*
X74202882Y-94515736D01*
X74206459Y-94501457D01*
X74211418Y-94487597D01*
X74217712Y-94474290D01*
X74225280Y-94461664D01*
X74234048Y-94449841D01*
X74243934Y-94438934D01*
X74254841Y-94429048D01*
X74266664Y-94420280D01*
X74279290Y-94412712D01*
X74292597Y-94406418D01*
X74306457Y-94401459D01*
X74320736Y-94397882D01*
X74335297Y-94395722D01*
X74350000Y-94395000D01*
X76000000Y-94395000D01*
X76014703Y-94395722D01*
X76014703Y-94395722D01*
G37*
D17*
X75175000Y-94695000D03*
D13*
G36*
X71064703Y-94395722D02*
G01*
X71079264Y-94397882D01*
X71093543Y-94401459D01*
X71107403Y-94406418D01*
X71120710Y-94412712D01*
X71133336Y-94420280D01*
X71145159Y-94429048D01*
X71156066Y-94438934D01*
X71165952Y-94449841D01*
X71174720Y-94461664D01*
X71182288Y-94474290D01*
X71188582Y-94487597D01*
X71193541Y-94501457D01*
X71197118Y-94515736D01*
X71199278Y-94530297D01*
X71200000Y-94545000D01*
X71200000Y-94845000D01*
X71199278Y-94859703D01*
X71197118Y-94874264D01*
X71193541Y-94888543D01*
X71188582Y-94902403D01*
X71182288Y-94915710D01*
X71174720Y-94928336D01*
X71165952Y-94940159D01*
X71156066Y-94951066D01*
X71145159Y-94960952D01*
X71133336Y-94969720D01*
X71120710Y-94977288D01*
X71107403Y-94983582D01*
X71093543Y-94988541D01*
X71079264Y-94992118D01*
X71064703Y-94994278D01*
X71050000Y-94995000D01*
X69400000Y-94995000D01*
X69385297Y-94994278D01*
X69370736Y-94992118D01*
X69356457Y-94988541D01*
X69342597Y-94983582D01*
X69329290Y-94977288D01*
X69316664Y-94969720D01*
X69304841Y-94960952D01*
X69293934Y-94951066D01*
X69284048Y-94940159D01*
X69275280Y-94928336D01*
X69267712Y-94915710D01*
X69261418Y-94902403D01*
X69256459Y-94888543D01*
X69252882Y-94874264D01*
X69250722Y-94859703D01*
X69250000Y-94845000D01*
X69250000Y-94545000D01*
X69250722Y-94530297D01*
X69252882Y-94515736D01*
X69256459Y-94501457D01*
X69261418Y-94487597D01*
X69267712Y-94474290D01*
X69275280Y-94461664D01*
X69284048Y-94449841D01*
X69293934Y-94438934D01*
X69304841Y-94429048D01*
X69316664Y-94420280D01*
X69329290Y-94412712D01*
X69342597Y-94406418D01*
X69356457Y-94401459D01*
X69370736Y-94397882D01*
X69385297Y-94395722D01*
X69400000Y-94395000D01*
X71050000Y-94395000D01*
X71064703Y-94395722D01*
X71064703Y-94395722D01*
G37*
D17*
X70225000Y-94695000D03*
D13*
G36*
X71064703Y-95665722D02*
G01*
X71079264Y-95667882D01*
X71093543Y-95671459D01*
X71107403Y-95676418D01*
X71120710Y-95682712D01*
X71133336Y-95690280D01*
X71145159Y-95699048D01*
X71156066Y-95708934D01*
X71165952Y-95719841D01*
X71174720Y-95731664D01*
X71182288Y-95744290D01*
X71188582Y-95757597D01*
X71193541Y-95771457D01*
X71197118Y-95785736D01*
X71199278Y-95800297D01*
X71200000Y-95815000D01*
X71200000Y-96115000D01*
X71199278Y-96129703D01*
X71197118Y-96144264D01*
X71193541Y-96158543D01*
X71188582Y-96172403D01*
X71182288Y-96185710D01*
X71174720Y-96198336D01*
X71165952Y-96210159D01*
X71156066Y-96221066D01*
X71145159Y-96230952D01*
X71133336Y-96239720D01*
X71120710Y-96247288D01*
X71107403Y-96253582D01*
X71093543Y-96258541D01*
X71079264Y-96262118D01*
X71064703Y-96264278D01*
X71050000Y-96265000D01*
X69400000Y-96265000D01*
X69385297Y-96264278D01*
X69370736Y-96262118D01*
X69356457Y-96258541D01*
X69342597Y-96253582D01*
X69329290Y-96247288D01*
X69316664Y-96239720D01*
X69304841Y-96230952D01*
X69293934Y-96221066D01*
X69284048Y-96210159D01*
X69275280Y-96198336D01*
X69267712Y-96185710D01*
X69261418Y-96172403D01*
X69256459Y-96158543D01*
X69252882Y-96144264D01*
X69250722Y-96129703D01*
X69250000Y-96115000D01*
X69250000Y-95815000D01*
X69250722Y-95800297D01*
X69252882Y-95785736D01*
X69256459Y-95771457D01*
X69261418Y-95757597D01*
X69267712Y-95744290D01*
X69275280Y-95731664D01*
X69284048Y-95719841D01*
X69293934Y-95708934D01*
X69304841Y-95699048D01*
X69316664Y-95690280D01*
X69329290Y-95682712D01*
X69342597Y-95676418D01*
X69356457Y-95671459D01*
X69370736Y-95667882D01*
X69385297Y-95665722D01*
X69400000Y-95665000D01*
X71050000Y-95665000D01*
X71064703Y-95665722D01*
X71064703Y-95665722D01*
G37*
D17*
X70225000Y-95965000D03*
D13*
G36*
X71064703Y-96935722D02*
G01*
X71079264Y-96937882D01*
X71093543Y-96941459D01*
X71107403Y-96946418D01*
X71120710Y-96952712D01*
X71133336Y-96960280D01*
X71145159Y-96969048D01*
X71156066Y-96978934D01*
X71165952Y-96989841D01*
X71174720Y-97001664D01*
X71182288Y-97014290D01*
X71188582Y-97027597D01*
X71193541Y-97041457D01*
X71197118Y-97055736D01*
X71199278Y-97070297D01*
X71200000Y-97085000D01*
X71200000Y-97385000D01*
X71199278Y-97399703D01*
X71197118Y-97414264D01*
X71193541Y-97428543D01*
X71188582Y-97442403D01*
X71182288Y-97455710D01*
X71174720Y-97468336D01*
X71165952Y-97480159D01*
X71156066Y-97491066D01*
X71145159Y-97500952D01*
X71133336Y-97509720D01*
X71120710Y-97517288D01*
X71107403Y-97523582D01*
X71093543Y-97528541D01*
X71079264Y-97532118D01*
X71064703Y-97534278D01*
X71050000Y-97535000D01*
X69400000Y-97535000D01*
X69385297Y-97534278D01*
X69370736Y-97532118D01*
X69356457Y-97528541D01*
X69342597Y-97523582D01*
X69329290Y-97517288D01*
X69316664Y-97509720D01*
X69304841Y-97500952D01*
X69293934Y-97491066D01*
X69284048Y-97480159D01*
X69275280Y-97468336D01*
X69267712Y-97455710D01*
X69261418Y-97442403D01*
X69256459Y-97428543D01*
X69252882Y-97414264D01*
X69250722Y-97399703D01*
X69250000Y-97385000D01*
X69250000Y-97085000D01*
X69250722Y-97070297D01*
X69252882Y-97055736D01*
X69256459Y-97041457D01*
X69261418Y-97027597D01*
X69267712Y-97014290D01*
X69275280Y-97001664D01*
X69284048Y-96989841D01*
X69293934Y-96978934D01*
X69304841Y-96969048D01*
X69316664Y-96960280D01*
X69329290Y-96952712D01*
X69342597Y-96946418D01*
X69356457Y-96941459D01*
X69370736Y-96937882D01*
X69385297Y-96935722D01*
X69400000Y-96935000D01*
X71050000Y-96935000D01*
X71064703Y-96935722D01*
X71064703Y-96935722D01*
G37*
D17*
X70225000Y-97235000D03*
D13*
G36*
X71064703Y-98205722D02*
G01*
X71079264Y-98207882D01*
X71093543Y-98211459D01*
X71107403Y-98216418D01*
X71120710Y-98222712D01*
X71133336Y-98230280D01*
X71145159Y-98239048D01*
X71156066Y-98248934D01*
X71165952Y-98259841D01*
X71174720Y-98271664D01*
X71182288Y-98284290D01*
X71188582Y-98297597D01*
X71193541Y-98311457D01*
X71197118Y-98325736D01*
X71199278Y-98340297D01*
X71200000Y-98355000D01*
X71200000Y-98655000D01*
X71199278Y-98669703D01*
X71197118Y-98684264D01*
X71193541Y-98698543D01*
X71188582Y-98712403D01*
X71182288Y-98725710D01*
X71174720Y-98738336D01*
X71165952Y-98750159D01*
X71156066Y-98761066D01*
X71145159Y-98770952D01*
X71133336Y-98779720D01*
X71120710Y-98787288D01*
X71107403Y-98793582D01*
X71093543Y-98798541D01*
X71079264Y-98802118D01*
X71064703Y-98804278D01*
X71050000Y-98805000D01*
X69400000Y-98805000D01*
X69385297Y-98804278D01*
X69370736Y-98802118D01*
X69356457Y-98798541D01*
X69342597Y-98793582D01*
X69329290Y-98787288D01*
X69316664Y-98779720D01*
X69304841Y-98770952D01*
X69293934Y-98761066D01*
X69284048Y-98750159D01*
X69275280Y-98738336D01*
X69267712Y-98725710D01*
X69261418Y-98712403D01*
X69256459Y-98698543D01*
X69252882Y-98684264D01*
X69250722Y-98669703D01*
X69250000Y-98655000D01*
X69250000Y-98355000D01*
X69250722Y-98340297D01*
X69252882Y-98325736D01*
X69256459Y-98311457D01*
X69261418Y-98297597D01*
X69267712Y-98284290D01*
X69275280Y-98271664D01*
X69284048Y-98259841D01*
X69293934Y-98248934D01*
X69304841Y-98239048D01*
X69316664Y-98230280D01*
X69329290Y-98222712D01*
X69342597Y-98216418D01*
X69356457Y-98211459D01*
X69370736Y-98207882D01*
X69385297Y-98205722D01*
X69400000Y-98205000D01*
X71050000Y-98205000D01*
X71064703Y-98205722D01*
X71064703Y-98205722D01*
G37*
D17*
X70225000Y-98505000D03*
D18*
X65900000Y-76150000D03*
X66700000Y-76150000D03*
X67500000Y-76150000D03*
X68300000Y-76150000D03*
X69100000Y-76150000D03*
X69900000Y-76150000D03*
X70700000Y-76150000D03*
X71500000Y-76150000D03*
D19*
X72950000Y-74700000D03*
X72950000Y-73900000D03*
X72950000Y-73100000D03*
X72950000Y-72300000D03*
X72950000Y-71500000D03*
X72950000Y-70700000D03*
X72950000Y-69900000D03*
X72950000Y-69100000D03*
D18*
X71500000Y-67650000D03*
X70700000Y-67650000D03*
X69900000Y-67650000D03*
X69100000Y-67650000D03*
X68300000Y-67650000D03*
X67500000Y-67650000D03*
X66700000Y-67650000D03*
X65900000Y-67650000D03*
D19*
X64450000Y-69100000D03*
X64450000Y-69900000D03*
X64450000Y-70700000D03*
X64450000Y-71500000D03*
X64450000Y-72300000D03*
X64450000Y-73100000D03*
X64450000Y-73900000D03*
X64450000Y-74700000D03*
D20*
X46990000Y-57540400D03*
X46990000Y-55540400D03*
D21*
X49690000Y-57815400D03*
X49690000Y-57165400D03*
X49690000Y-56515400D03*
X49690000Y-55865400D03*
X49690000Y-55215400D03*
D22*
X46990000Y-53640400D03*
X46990000Y-59440400D03*
M02*
