M48
INCH,TZ
T1C0.0157
T2C0.0197
T3C0.0217
T4C0.0300
T5C0.0315
T6C0.0320
T7C0.0394
T8C0.0433
T9C0.0472
T10C0.0591
T11C0.0709
T12C0.0787
T13C0.0945
T14C0.1260
%
G90
G05
T1
X19620Y-34220
X22760Y-38180
X26024Y-28150
X26299Y-25827
X26575Y-29409
X26890Y-27165
X27205Y-29409
X27362Y-23976
X27520Y-31654
X27650Y-23100
X27835Y-25827
X29055Y-34843
X29213Y-23189
X29616Y-25780
X30945Y-31654
X33697Y-25630
X33760Y-28960
X34440Y-38020
T4
X41543Y-23016
T5
X38622Y-21142
X39606Y-21142
X40709Y-28583
X44709Y-28583
X38622Y-19488
X39606Y-19488
X35380Y-29820
X39380Y-29820
X31860Y-24080
X32844Y-24080
X38622Y-24520
X39606Y-24520
X41543Y-19866
X41543Y-20654
X41543Y-21441
X35440Y-31160
X39440Y-31160
X31890Y-31299
X32874Y-31299
X31890Y-27717
X32874Y-27717
X45827Y-19528
X45827Y-23528
X33120Y-18580
X33120Y-22580
X35827Y-35354
X36811Y-35354
X25512Y-35079
X26496Y-35079
X31896Y-25920
X32880Y-25920
X40724Y-25340
X44724Y-25340
X40709Y-26969
X44709Y-26969
X31890Y-29488
X32874Y-29488
X31620Y-18580
X31620Y-22580
X35440Y-32500
X39440Y-32500
X38622Y-22835
X39606Y-22835
T6
X34409Y-18740
X34409Y-19740
X34409Y-20740
X34409Y-21740
X34409Y-22740
X34409Y-23740
X34409Y-24740
X34409Y-25740
X34409Y-26740
X34409Y-27740
X37409Y-18740
X37409Y-19740
X37409Y-20740
X37409Y-21740
X37409Y-22740
X37409Y-23740
X37409Y-24740
X37409Y-25740
X37409Y-26740
X37409Y-27740
T7
X48976Y-20584
X49960Y-20584
X50944Y-20584
X48936Y-31784
X49920Y-31784
X50904Y-31784
X24425Y-21457
X25425Y-21457
X26425Y-21457
X27425Y-21457
X28425Y-21457
X49036Y-26324
X50020Y-26324
X51004Y-26324
X23535Y-27957
X23535Y-28957
X23535Y-29957
X23535Y-30957
X23535Y-31957
X23535Y-32957
X23535Y-33957
X23535Y-34957
X46640Y-38600
X47640Y-38600
T8
X19646Y-30906
X19646Y-33465
X21417Y-30906
X21417Y-33465
X42992Y-34449
X19685Y-25748
X19685Y-28307
X21457Y-25748
X21457Y-28307
T9
X38228Y-38150
X36575Y-38150
X30512Y-24409
X42992Y-30551
X47598Y-17953
X45118Y-30551
X45118Y-32638
X24440Y-24640
T10
X41543Y-19039
X41543Y-23843
T11
X41496Y-37520
X44488Y-37520
T12
X47956Y-23340
X51964Y-23340
X47916Y-34540
X51924Y-34540
X48016Y-29080
X52024Y-29080
T13
X23843Y-26496
X23843Y-36496
X38898Y-26496
X38898Y-36496
T14
X52014Y-17913
X52014Y-38780
X19280Y-17913
X19259Y-38780
T2
G00X18628Y-20882
M15
G01X18372Y-20882
M16
G05
G00X18630Y-23638
M15
G01X18370Y-23638
M16
G05
T3
G00X19563Y-21217
M15
G01X19563Y-21335
M16
G05
G00X19563Y-23185
M15
G01X19563Y-23303
M16
G05
T0
M30
