G04 #@! TF.GenerationSoftware,KiCad,Pcbnew,(5.1.2-1)-1*
G04 #@! TF.CreationDate,2019-07-31T15:28:19-07:00*
G04 #@! TF.ProjectId,wavegenerator_v1,77617665-6765-46e6-9572-61746f725f76,rev?*
G04 #@! TF.SameCoordinates,Original*
G04 #@! TF.FileFunction,Soldermask,Top*
G04 #@! TF.FilePolarity,Negative*
%FSLAX46Y46*%
G04 Gerber Fmt 4.6, Leading zero omitted, Abs format (unit mm)*
G04 Created by KiCad (PCBNEW (5.1.2-1)-1) date 2019-07-31 15:28:19*
%MOMM*%
%LPD*%
G04 APERTURE LIST*
%ADD10C,0.100000*%
G04 APERTURE END LIST*
D10*
G36*
X49293256Y-96892498D02*
G01*
X49399579Y-96913647D01*
X49700042Y-97038103D01*
X49970451Y-97218785D01*
X50200415Y-97448749D01*
X50381097Y-97719158D01*
X50381098Y-97719160D01*
X50394462Y-97751423D01*
X50442491Y-97867375D01*
X50505553Y-98019622D01*
X50569000Y-98338589D01*
X50569000Y-98663811D01*
X50544693Y-98786009D01*
X50505553Y-98982779D01*
X50381097Y-99283242D01*
X50200415Y-99553651D01*
X49970451Y-99783615D01*
X49700042Y-99964297D01*
X49399579Y-100088753D01*
X49293256Y-100109902D01*
X49080611Y-100152200D01*
X48755389Y-100152200D01*
X48542744Y-100109902D01*
X48436421Y-100088753D01*
X48135958Y-99964297D01*
X47865549Y-99783615D01*
X47635585Y-99553651D01*
X47454903Y-99283242D01*
X47330447Y-98982779D01*
X47291307Y-98786009D01*
X47267000Y-98663811D01*
X47267000Y-98338589D01*
X47330447Y-98019622D01*
X47393510Y-97867375D01*
X47441538Y-97751423D01*
X47454902Y-97719160D01*
X47454903Y-97719158D01*
X47635585Y-97448749D01*
X47865549Y-97218785D01*
X48135958Y-97038103D01*
X48436421Y-96913647D01*
X48542744Y-96892498D01*
X48755389Y-96850200D01*
X49080611Y-96850200D01*
X49293256Y-96892498D01*
X49293256Y-96892498D01*
G37*
G36*
X132453366Y-96884000D02*
G01*
X132596379Y-96912447D01*
X132896842Y-97036903D01*
X133167251Y-97217585D01*
X133397215Y-97447549D01*
X133577884Y-97717939D01*
X133577898Y-97717960D01*
X133591759Y-97751423D01*
X133702353Y-98018421D01*
X133702592Y-98019622D01*
X133765800Y-98337389D01*
X133765800Y-98662611D01*
X133729154Y-98846840D01*
X133702353Y-98981579D01*
X133577897Y-99282042D01*
X133397215Y-99552451D01*
X133167251Y-99782415D01*
X132896842Y-99963097D01*
X132596379Y-100087553D01*
X132490056Y-100108702D01*
X132277411Y-100151000D01*
X131952189Y-100151000D01*
X131739544Y-100108702D01*
X131633221Y-100087553D01*
X131332758Y-99963097D01*
X131062349Y-99782415D01*
X130832385Y-99552451D01*
X130651703Y-99282042D01*
X130527247Y-98981579D01*
X130500446Y-98846840D01*
X130463800Y-98662611D01*
X130463800Y-98337389D01*
X130527008Y-98019622D01*
X130527247Y-98018421D01*
X130637841Y-97751423D01*
X130651702Y-97717960D01*
X130651716Y-97717939D01*
X130832385Y-97447549D01*
X131062349Y-97217585D01*
X131332758Y-97036903D01*
X131633221Y-96912447D01*
X131776234Y-96884000D01*
X131952189Y-96849000D01*
X132277411Y-96849000D01*
X132453366Y-96884000D01*
X132453366Y-96884000D01*
G37*
G36*
X119366600Y-98945000D02*
G01*
X117564600Y-98945000D01*
X117564600Y-97143000D01*
X119366600Y-97143000D01*
X119366600Y-98945000D01*
X119366600Y-98945000D01*
G37*
G36*
X121116043Y-97149519D02*
G01*
X121182227Y-97156037D01*
X121352066Y-97207557D01*
X121508591Y-97291222D01*
X121544329Y-97320552D01*
X121645786Y-97403814D01*
X121720560Y-97494928D01*
X121758378Y-97541009D01*
X121769592Y-97561988D01*
X121839542Y-97692854D01*
X121842043Y-97697534D01*
X121893563Y-97867373D01*
X121910959Y-98044000D01*
X121893563Y-98220627D01*
X121842043Y-98390466D01*
X121758378Y-98546991D01*
X121729048Y-98582729D01*
X121645786Y-98684186D01*
X121568440Y-98747661D01*
X121508591Y-98796778D01*
X121352066Y-98880443D01*
X121182227Y-98931963D01*
X121116043Y-98938481D01*
X121049860Y-98945000D01*
X120961340Y-98945000D01*
X120895158Y-98938482D01*
X120828973Y-98931963D01*
X120659134Y-98880443D01*
X120502609Y-98796778D01*
X120442760Y-98747661D01*
X120365414Y-98684186D01*
X120282152Y-98582729D01*
X120252822Y-98546991D01*
X120169157Y-98390466D01*
X120117637Y-98220627D01*
X120100241Y-98044000D01*
X120117637Y-97867373D01*
X120169157Y-97697534D01*
X120171659Y-97692854D01*
X120241608Y-97561988D01*
X120252822Y-97541009D01*
X120290640Y-97494928D01*
X120365414Y-97403814D01*
X120466871Y-97320552D01*
X120502609Y-97291222D01*
X120659134Y-97207557D01*
X120828973Y-97156037D01*
X120895158Y-97149518D01*
X120961340Y-97143000D01*
X121049860Y-97143000D01*
X121116043Y-97149519D01*
X121116043Y-97149519D01*
G37*
G36*
X71159928Y-98156764D02*
G01*
X71181009Y-98163160D01*
X71200445Y-98173548D01*
X71217476Y-98187524D01*
X71231452Y-98204555D01*
X71241840Y-98223991D01*
X71248236Y-98245072D01*
X71251000Y-98273140D01*
X71251000Y-98736860D01*
X71248236Y-98764928D01*
X71241840Y-98786009D01*
X71231452Y-98805445D01*
X71217476Y-98822476D01*
X71200445Y-98836452D01*
X71181009Y-98846840D01*
X71159928Y-98853236D01*
X71131860Y-98856000D01*
X69318140Y-98856000D01*
X69290072Y-98853236D01*
X69268991Y-98846840D01*
X69249555Y-98836452D01*
X69232524Y-98822476D01*
X69218548Y-98805445D01*
X69208160Y-98786009D01*
X69201764Y-98764928D01*
X69199000Y-98736860D01*
X69199000Y-98273140D01*
X69201764Y-98245072D01*
X69208160Y-98223991D01*
X69218548Y-98204555D01*
X69232524Y-98187524D01*
X69249555Y-98173548D01*
X69268991Y-98163160D01*
X69290072Y-98156764D01*
X69318140Y-98154000D01*
X71131860Y-98154000D01*
X71159928Y-98156764D01*
X71159928Y-98156764D01*
G37*
G36*
X76109928Y-98156764D02*
G01*
X76131009Y-98163160D01*
X76150445Y-98173548D01*
X76167476Y-98187524D01*
X76181452Y-98204555D01*
X76191840Y-98223991D01*
X76198236Y-98245072D01*
X76201000Y-98273140D01*
X76201000Y-98736860D01*
X76198236Y-98764928D01*
X76191840Y-98786009D01*
X76181452Y-98805445D01*
X76167476Y-98822476D01*
X76150445Y-98836452D01*
X76131009Y-98846840D01*
X76109928Y-98853236D01*
X76081860Y-98856000D01*
X74268140Y-98856000D01*
X74240072Y-98853236D01*
X74218991Y-98846840D01*
X74199555Y-98836452D01*
X74182524Y-98822476D01*
X74168548Y-98805445D01*
X74158160Y-98786009D01*
X74151764Y-98764928D01*
X74149000Y-98736860D01*
X74149000Y-98273140D01*
X74151764Y-98245072D01*
X74158160Y-98223991D01*
X74168548Y-98204555D01*
X74182524Y-98187524D01*
X74199555Y-98173548D01*
X74218991Y-98163160D01*
X74240072Y-98156764D01*
X74268140Y-98154000D01*
X76081860Y-98154000D01*
X76109928Y-98156764D01*
X76109928Y-98156764D01*
G37*
G36*
X98401000Y-98201000D02*
G01*
X95799000Y-98201000D01*
X95799000Y-95599000D01*
X98401000Y-95599000D01*
X98401000Y-98201000D01*
X98401000Y-98201000D01*
G37*
G36*
X94201000Y-98201000D02*
G01*
X91599000Y-98201000D01*
X91599000Y-95599000D01*
X94201000Y-95599000D01*
X94201000Y-98201000D01*
X94201000Y-98201000D01*
G37*
G36*
X66689668Y-96724365D02*
G01*
X66728338Y-96736096D01*
X66763977Y-96755146D01*
X66795217Y-96780783D01*
X66820854Y-96812023D01*
X66839904Y-96847662D01*
X66851635Y-96886332D01*
X66856200Y-96932688D01*
X66856200Y-97583912D01*
X66851635Y-97630268D01*
X66839904Y-97668938D01*
X66820854Y-97704577D01*
X66795217Y-97735817D01*
X66763977Y-97761454D01*
X66728338Y-97780504D01*
X66689668Y-97792235D01*
X66643312Y-97796800D01*
X65567088Y-97796800D01*
X65520732Y-97792235D01*
X65482062Y-97780504D01*
X65446423Y-97761454D01*
X65415183Y-97735817D01*
X65389546Y-97704577D01*
X65370496Y-97668938D01*
X65358765Y-97630268D01*
X65354200Y-97583912D01*
X65354200Y-96932688D01*
X65358765Y-96886332D01*
X65370496Y-96847662D01*
X65389546Y-96812023D01*
X65415183Y-96780783D01*
X65446423Y-96755146D01*
X65482062Y-96736096D01*
X65520732Y-96724365D01*
X65567088Y-96719800D01*
X66643312Y-96719800D01*
X66689668Y-96724365D01*
X66689668Y-96724365D01*
G37*
G36*
X59530868Y-96230765D02*
G01*
X59569538Y-96242496D01*
X59605177Y-96261546D01*
X59636417Y-96287183D01*
X59662054Y-96318423D01*
X59681104Y-96354062D01*
X59692835Y-96392732D01*
X59697400Y-96439088D01*
X59697400Y-97515312D01*
X59692835Y-97561668D01*
X59681104Y-97600338D01*
X59662054Y-97635977D01*
X59636417Y-97667217D01*
X59605177Y-97692854D01*
X59569538Y-97711904D01*
X59530868Y-97723635D01*
X59484512Y-97728200D01*
X58833288Y-97728200D01*
X58786932Y-97723635D01*
X58748262Y-97711904D01*
X58712623Y-97692854D01*
X58681383Y-97667217D01*
X58655746Y-97635977D01*
X58636696Y-97600338D01*
X58624965Y-97561668D01*
X58620400Y-97515312D01*
X58620400Y-96439088D01*
X58624965Y-96392732D01*
X58636696Y-96354062D01*
X58655746Y-96318423D01*
X58681383Y-96287183D01*
X58712623Y-96261546D01*
X58748262Y-96242496D01*
X58786932Y-96230765D01*
X58833288Y-96226200D01*
X59484512Y-96226200D01*
X59530868Y-96230765D01*
X59530868Y-96230765D01*
G37*
G36*
X61405868Y-96230765D02*
G01*
X61444538Y-96242496D01*
X61480177Y-96261546D01*
X61511417Y-96287183D01*
X61537054Y-96318423D01*
X61556104Y-96354062D01*
X61567835Y-96392732D01*
X61572400Y-96439088D01*
X61572400Y-97515312D01*
X61567835Y-97561668D01*
X61556104Y-97600338D01*
X61537054Y-97635977D01*
X61511417Y-97667217D01*
X61480177Y-97692854D01*
X61444538Y-97711904D01*
X61405868Y-97723635D01*
X61359512Y-97728200D01*
X60708288Y-97728200D01*
X60661932Y-97723635D01*
X60623262Y-97711904D01*
X60587623Y-97692854D01*
X60556383Y-97667217D01*
X60530746Y-97635977D01*
X60511696Y-97600338D01*
X60499965Y-97561668D01*
X60495400Y-97515312D01*
X60495400Y-96439088D01*
X60499965Y-96392732D01*
X60511696Y-96354062D01*
X60530746Y-96318423D01*
X60556383Y-96287183D01*
X60587623Y-96261546D01*
X60623262Y-96242496D01*
X60661932Y-96230765D01*
X60708288Y-96226200D01*
X61359512Y-96226200D01*
X61405868Y-96230765D01*
X61405868Y-96230765D01*
G37*
G36*
X56935468Y-96230765D02*
G01*
X56974138Y-96242496D01*
X57009777Y-96261546D01*
X57041017Y-96287183D01*
X57066654Y-96318423D01*
X57085704Y-96354062D01*
X57097435Y-96392732D01*
X57102000Y-96439088D01*
X57102000Y-97515312D01*
X57097435Y-97561668D01*
X57085704Y-97600338D01*
X57066654Y-97635977D01*
X57041017Y-97667217D01*
X57009777Y-97692854D01*
X56974138Y-97711904D01*
X56935468Y-97723635D01*
X56889112Y-97728200D01*
X56237888Y-97728200D01*
X56191532Y-97723635D01*
X56152862Y-97711904D01*
X56117223Y-97692854D01*
X56085983Y-97667217D01*
X56060346Y-97635977D01*
X56041296Y-97600338D01*
X56029565Y-97561668D01*
X56025000Y-97515312D01*
X56025000Y-96439088D01*
X56029565Y-96392732D01*
X56041296Y-96354062D01*
X56060346Y-96318423D01*
X56085983Y-96287183D01*
X56117223Y-96261546D01*
X56152862Y-96242496D01*
X56191532Y-96230765D01*
X56237888Y-96226200D01*
X56889112Y-96226200D01*
X56935468Y-96230765D01*
X56935468Y-96230765D01*
G37*
G36*
X55060468Y-96230765D02*
G01*
X55099138Y-96242496D01*
X55134777Y-96261546D01*
X55166017Y-96287183D01*
X55191654Y-96318423D01*
X55210704Y-96354062D01*
X55222435Y-96392732D01*
X55227000Y-96439088D01*
X55227000Y-97515312D01*
X55222435Y-97561668D01*
X55210704Y-97600338D01*
X55191654Y-97635977D01*
X55166017Y-97667217D01*
X55134777Y-97692854D01*
X55099138Y-97711904D01*
X55060468Y-97723635D01*
X55014112Y-97728200D01*
X54362888Y-97728200D01*
X54316532Y-97723635D01*
X54277862Y-97711904D01*
X54242223Y-97692854D01*
X54210983Y-97667217D01*
X54185346Y-97635977D01*
X54166296Y-97600338D01*
X54154565Y-97561668D01*
X54150000Y-97515312D01*
X54150000Y-96439088D01*
X54154565Y-96392732D01*
X54166296Y-96354062D01*
X54185346Y-96318423D01*
X54210983Y-96287183D01*
X54242223Y-96261546D01*
X54277862Y-96242496D01*
X54316532Y-96230765D01*
X54362888Y-96226200D01*
X55014112Y-96226200D01*
X55060468Y-96230765D01*
X55060468Y-96230765D01*
G37*
G36*
X86601800Y-97721800D02*
G01*
X84999800Y-97721800D01*
X84999800Y-95419800D01*
X86601800Y-95419800D01*
X86601800Y-97721800D01*
X86601800Y-97721800D01*
G37*
G36*
X80201800Y-97721800D02*
G01*
X78599800Y-97721800D01*
X78599800Y-95419800D01*
X80201800Y-95419800D01*
X80201800Y-97721800D01*
X80201800Y-97721800D01*
G37*
G36*
X76109928Y-96886764D02*
G01*
X76131009Y-96893160D01*
X76150445Y-96903548D01*
X76167476Y-96917524D01*
X76181452Y-96934555D01*
X76191840Y-96953991D01*
X76198236Y-96975072D01*
X76201000Y-97003140D01*
X76201000Y-97466860D01*
X76198236Y-97494928D01*
X76191840Y-97516009D01*
X76181452Y-97535445D01*
X76167476Y-97552476D01*
X76150445Y-97566452D01*
X76131009Y-97576840D01*
X76109928Y-97583236D01*
X76081860Y-97586000D01*
X74268140Y-97586000D01*
X74240072Y-97583236D01*
X74218991Y-97576840D01*
X74199555Y-97566452D01*
X74182524Y-97552476D01*
X74168548Y-97535445D01*
X74158160Y-97516009D01*
X74151764Y-97494928D01*
X74149000Y-97466860D01*
X74149000Y-97003140D01*
X74151764Y-96975072D01*
X74158160Y-96953991D01*
X74168548Y-96934555D01*
X74182524Y-96917524D01*
X74199555Y-96903548D01*
X74218991Y-96893160D01*
X74240072Y-96886764D01*
X74268140Y-96884000D01*
X76081860Y-96884000D01*
X76109928Y-96886764D01*
X76109928Y-96886764D01*
G37*
G36*
X71159928Y-96886764D02*
G01*
X71181009Y-96893160D01*
X71200445Y-96903548D01*
X71217476Y-96917524D01*
X71231452Y-96934555D01*
X71241840Y-96953991D01*
X71248236Y-96975072D01*
X71251000Y-97003140D01*
X71251000Y-97466860D01*
X71248236Y-97494928D01*
X71241840Y-97516009D01*
X71231452Y-97535445D01*
X71217476Y-97552476D01*
X71200445Y-97566452D01*
X71181009Y-97576840D01*
X71159928Y-97583236D01*
X71131860Y-97586000D01*
X69318140Y-97586000D01*
X69290072Y-97583236D01*
X69268991Y-97576840D01*
X69249555Y-97566452D01*
X69232524Y-97552476D01*
X69218548Y-97535445D01*
X69208160Y-97516009D01*
X69201764Y-97494928D01*
X69199000Y-97466860D01*
X69199000Y-97003140D01*
X69201764Y-96975072D01*
X69208160Y-96953991D01*
X69218548Y-96934555D01*
X69232524Y-96917524D01*
X69249555Y-96903548D01*
X69268991Y-96893160D01*
X69290072Y-96886764D01*
X69318140Y-96884000D01*
X71131860Y-96884000D01*
X71159928Y-96886764D01*
X71159928Y-96886764D01*
G37*
G36*
X113318433Y-93934893D02*
G01*
X113408657Y-93952839D01*
X113479540Y-93982200D01*
X113663621Y-94058449D01*
X113663622Y-94058450D01*
X113893086Y-94211772D01*
X114088228Y-94406914D01*
X114140578Y-94485262D01*
X114241551Y-94636379D01*
X114347161Y-94891344D01*
X114375267Y-95032641D01*
X114401000Y-95162014D01*
X114401000Y-95437986D01*
X114347161Y-95708657D01*
X114327856Y-95755262D01*
X114241551Y-95963621D01*
X114241550Y-95963622D01*
X114088228Y-96193086D01*
X113893086Y-96388228D01*
X113816968Y-96439088D01*
X113663621Y-96541551D01*
X113514267Y-96603415D01*
X113408657Y-96647161D01*
X113318433Y-96665107D01*
X113137988Y-96701000D01*
X112862012Y-96701000D01*
X112681567Y-96665107D01*
X112591343Y-96647161D01*
X112485733Y-96603415D01*
X112336379Y-96541551D01*
X112183032Y-96439088D01*
X112106914Y-96388228D01*
X111911772Y-96193086D01*
X111758450Y-95963622D01*
X111758449Y-95963621D01*
X111672144Y-95755262D01*
X111652839Y-95708657D01*
X111599000Y-95437986D01*
X111599000Y-95162014D01*
X111624734Y-95032641D01*
X111652839Y-94891344D01*
X111758449Y-94636379D01*
X111859422Y-94485262D01*
X111911772Y-94406914D01*
X112106914Y-94211772D01*
X112336378Y-94058450D01*
X112336379Y-94058449D01*
X112520460Y-93982200D01*
X112591343Y-93952839D01*
X112681567Y-93934893D01*
X112862012Y-93899000D01*
X113137988Y-93899000D01*
X113318433Y-93934893D01*
X113318433Y-93934893D01*
G37*
G36*
X105718433Y-93934893D02*
G01*
X105808657Y-93952839D01*
X105879540Y-93982200D01*
X106063621Y-94058449D01*
X106063622Y-94058450D01*
X106293086Y-94211772D01*
X106488228Y-94406914D01*
X106540578Y-94485262D01*
X106641551Y-94636379D01*
X106747161Y-94891344D01*
X106775267Y-95032641D01*
X106801000Y-95162014D01*
X106801000Y-95437986D01*
X106747161Y-95708657D01*
X106727856Y-95755262D01*
X106641551Y-95963621D01*
X106641550Y-95963622D01*
X106488228Y-96193086D01*
X106293086Y-96388228D01*
X106216968Y-96439088D01*
X106063621Y-96541551D01*
X105914267Y-96603415D01*
X105808657Y-96647161D01*
X105718433Y-96665107D01*
X105537988Y-96701000D01*
X105262012Y-96701000D01*
X105081567Y-96665107D01*
X104991343Y-96647161D01*
X104885733Y-96603415D01*
X104736379Y-96541551D01*
X104583032Y-96439088D01*
X104506914Y-96388228D01*
X104311772Y-96193086D01*
X104158450Y-95963622D01*
X104158449Y-95963621D01*
X104072144Y-95755262D01*
X104052839Y-95708657D01*
X103999000Y-95437986D01*
X103999000Y-95162014D01*
X104024734Y-95032641D01*
X104052839Y-94891344D01*
X104158449Y-94636379D01*
X104259422Y-94485262D01*
X104311772Y-94406914D01*
X104506914Y-94211772D01*
X104736378Y-94058450D01*
X104736379Y-94058449D01*
X104920460Y-93982200D01*
X104991343Y-93952839D01*
X105081567Y-93934893D01*
X105262012Y-93899000D01*
X105537988Y-93899000D01*
X105718433Y-93934893D01*
X105718433Y-93934893D01*
G37*
G36*
X71159928Y-95616764D02*
G01*
X71181009Y-95623160D01*
X71200445Y-95633548D01*
X71217476Y-95647524D01*
X71231452Y-95664555D01*
X71241840Y-95683991D01*
X71248236Y-95705072D01*
X71251000Y-95733140D01*
X71251000Y-96196860D01*
X71248236Y-96224928D01*
X71241840Y-96246009D01*
X71231452Y-96265445D01*
X71217476Y-96282476D01*
X71200445Y-96296452D01*
X71181009Y-96306840D01*
X71159928Y-96313236D01*
X71131860Y-96316000D01*
X69318140Y-96316000D01*
X69290072Y-96313236D01*
X69268991Y-96306840D01*
X69249555Y-96296452D01*
X69232524Y-96282476D01*
X69218548Y-96265445D01*
X69208160Y-96246009D01*
X69201764Y-96224928D01*
X69199000Y-96196860D01*
X69199000Y-95733140D01*
X69201764Y-95705072D01*
X69208160Y-95683991D01*
X69218548Y-95664555D01*
X69232524Y-95647524D01*
X69249555Y-95633548D01*
X69268991Y-95623160D01*
X69290072Y-95616764D01*
X69318140Y-95614000D01*
X71131860Y-95614000D01*
X71159928Y-95616764D01*
X71159928Y-95616764D01*
G37*
G36*
X76109928Y-95616764D02*
G01*
X76131009Y-95623160D01*
X76150445Y-95633548D01*
X76167476Y-95647524D01*
X76181452Y-95664555D01*
X76191840Y-95683991D01*
X76198236Y-95705072D01*
X76201000Y-95733140D01*
X76201000Y-96196860D01*
X76198236Y-96224928D01*
X76191840Y-96246009D01*
X76181452Y-96265445D01*
X76167476Y-96282476D01*
X76150445Y-96296452D01*
X76131009Y-96306840D01*
X76109928Y-96313236D01*
X76081860Y-96316000D01*
X74268140Y-96316000D01*
X74240072Y-96313236D01*
X74218991Y-96306840D01*
X74199555Y-96296452D01*
X74182524Y-96282476D01*
X74168548Y-96265445D01*
X74158160Y-96246009D01*
X74151764Y-96224928D01*
X74149000Y-96196860D01*
X74149000Y-95733140D01*
X74151764Y-95705072D01*
X74158160Y-95683991D01*
X74168548Y-95664555D01*
X74182524Y-95647524D01*
X74199555Y-95633548D01*
X74218991Y-95623160D01*
X74240072Y-95616764D01*
X74268140Y-95614000D01*
X76081860Y-95614000D01*
X76109928Y-95616764D01*
X76109928Y-95616764D01*
G37*
G36*
X66689668Y-94849365D02*
G01*
X66728338Y-94861096D01*
X66763977Y-94880146D01*
X66795217Y-94905783D01*
X66820854Y-94937023D01*
X66839904Y-94972662D01*
X66851635Y-95011332D01*
X66856200Y-95057688D01*
X66856200Y-95708912D01*
X66851635Y-95755268D01*
X66839904Y-95793938D01*
X66820854Y-95829577D01*
X66795217Y-95860817D01*
X66763977Y-95886454D01*
X66728338Y-95905504D01*
X66689668Y-95917235D01*
X66643312Y-95921800D01*
X65567088Y-95921800D01*
X65520732Y-95917235D01*
X65482062Y-95905504D01*
X65446423Y-95886454D01*
X65415183Y-95860817D01*
X65389546Y-95829577D01*
X65370496Y-95793938D01*
X65358765Y-95755268D01*
X65354200Y-95708912D01*
X65354200Y-95057688D01*
X65358765Y-95011332D01*
X65370496Y-94972662D01*
X65389546Y-94937023D01*
X65415183Y-94905783D01*
X65446423Y-94880146D01*
X65482062Y-94861096D01*
X65520732Y-94849365D01*
X65567088Y-94844800D01*
X66643312Y-94844800D01*
X66689668Y-94849365D01*
X66689668Y-94849365D01*
G37*
G36*
X76109928Y-94346764D02*
G01*
X76131009Y-94353160D01*
X76150445Y-94363548D01*
X76167476Y-94377524D01*
X76181452Y-94394555D01*
X76191840Y-94413991D01*
X76198236Y-94435072D01*
X76201000Y-94463140D01*
X76201000Y-94926860D01*
X76198236Y-94954928D01*
X76191840Y-94976009D01*
X76181452Y-94995445D01*
X76167476Y-95012476D01*
X76150445Y-95026452D01*
X76131009Y-95036840D01*
X76109928Y-95043236D01*
X76081860Y-95046000D01*
X74268140Y-95046000D01*
X74240072Y-95043236D01*
X74218991Y-95036840D01*
X74199555Y-95026452D01*
X74182524Y-95012476D01*
X74168548Y-94995445D01*
X74158160Y-94976009D01*
X74151764Y-94954928D01*
X74149000Y-94926860D01*
X74149000Y-94463140D01*
X74151764Y-94435072D01*
X74158160Y-94413991D01*
X74168548Y-94394555D01*
X74182524Y-94377524D01*
X74199555Y-94363548D01*
X74218991Y-94353160D01*
X74240072Y-94346764D01*
X74268140Y-94344000D01*
X76081860Y-94344000D01*
X76109928Y-94346764D01*
X76109928Y-94346764D01*
G37*
G36*
X71159928Y-94346764D02*
G01*
X71181009Y-94353160D01*
X71200445Y-94363548D01*
X71217476Y-94377524D01*
X71231452Y-94394555D01*
X71241840Y-94413991D01*
X71248236Y-94435072D01*
X71251000Y-94463140D01*
X71251000Y-94926860D01*
X71248236Y-94954928D01*
X71241840Y-94976009D01*
X71231452Y-94995445D01*
X71217476Y-95012476D01*
X71200445Y-95026452D01*
X71181009Y-95036840D01*
X71159928Y-95043236D01*
X71131860Y-95046000D01*
X69318140Y-95046000D01*
X69290072Y-95043236D01*
X69268991Y-95036840D01*
X69249555Y-95026452D01*
X69232524Y-95012476D01*
X69218548Y-94995445D01*
X69208160Y-94976009D01*
X69201764Y-94954928D01*
X69199000Y-94926860D01*
X69199000Y-94463140D01*
X69201764Y-94435072D01*
X69208160Y-94413991D01*
X69218548Y-94394555D01*
X69232524Y-94377524D01*
X69249555Y-94363548D01*
X69268991Y-94353160D01*
X69290072Y-94346764D01*
X69318140Y-94344000D01*
X71131860Y-94344000D01*
X71159928Y-94346764D01*
X71159928Y-94346764D01*
G37*
G36*
X50885400Y-93982200D02*
G01*
X48783400Y-93982200D01*
X48783400Y-92380200D01*
X50885400Y-92380200D01*
X50885400Y-93982200D01*
X50885400Y-93982200D01*
G37*
G36*
X60924903Y-91497075D02*
G01*
X61152571Y-91591378D01*
X61357466Y-91728285D01*
X61531715Y-91902534D01*
X61617437Y-92030826D01*
X61668623Y-92107431D01*
X61762925Y-92335097D01*
X61811000Y-92576786D01*
X61811000Y-92823214D01*
X61762925Y-93064903D01*
X61668622Y-93292571D01*
X61531715Y-93497466D01*
X61357466Y-93671715D01*
X61152571Y-93808622D01*
X61152570Y-93808623D01*
X61152569Y-93808623D01*
X60924903Y-93902925D01*
X60683214Y-93951000D01*
X60436786Y-93951000D01*
X60195097Y-93902925D01*
X59967431Y-93808623D01*
X59967430Y-93808623D01*
X59967429Y-93808622D01*
X59762534Y-93671715D01*
X59588285Y-93497466D01*
X59451378Y-93292571D01*
X59357075Y-93064903D01*
X59309000Y-92823214D01*
X59309000Y-92576786D01*
X59357075Y-92335097D01*
X59451377Y-92107431D01*
X59502563Y-92030826D01*
X59588285Y-91902534D01*
X59762534Y-91728285D01*
X59967429Y-91591378D01*
X60195097Y-91497075D01*
X60436786Y-91449000D01*
X60683214Y-91449000D01*
X60924903Y-91497075D01*
X60924903Y-91497075D01*
G37*
G36*
X99164903Y-91497075D02*
G01*
X99392571Y-91591378D01*
X99597466Y-91728285D01*
X99771715Y-91902534D01*
X99857437Y-92030826D01*
X99908623Y-92107431D01*
X100002925Y-92335097D01*
X100051000Y-92576786D01*
X100051000Y-92823214D01*
X100002925Y-93064903D01*
X99908622Y-93292571D01*
X99771715Y-93497466D01*
X99597466Y-93671715D01*
X99392571Y-93808622D01*
X99392570Y-93808623D01*
X99392569Y-93808623D01*
X99164903Y-93902925D01*
X98923214Y-93951000D01*
X98676786Y-93951000D01*
X98435097Y-93902925D01*
X98207431Y-93808623D01*
X98207430Y-93808623D01*
X98207429Y-93808622D01*
X98002534Y-93671715D01*
X97828285Y-93497466D01*
X97691378Y-93292571D01*
X97597075Y-93064903D01*
X97549000Y-92823214D01*
X97549000Y-92576786D01*
X97597075Y-92335097D01*
X97691377Y-92107431D01*
X97742563Y-92030826D01*
X97828285Y-91902534D01*
X98002534Y-91728285D01*
X98207429Y-91591378D01*
X98435097Y-91497075D01*
X98676786Y-91449000D01*
X98923214Y-91449000D01*
X99164903Y-91497075D01*
X99164903Y-91497075D01*
G37*
G36*
X57185400Y-92832200D02*
G01*
X55083400Y-92832200D01*
X55083400Y-88930200D01*
X57185400Y-88930200D01*
X57185400Y-92832200D01*
X57185400Y-92832200D01*
G37*
G36*
X74384468Y-90963565D02*
G01*
X74423138Y-90975296D01*
X74458777Y-90994346D01*
X74490017Y-91019983D01*
X74515654Y-91051223D01*
X74534704Y-91086862D01*
X74546435Y-91125532D01*
X74551000Y-91171888D01*
X74551000Y-91823112D01*
X74546435Y-91869468D01*
X74534704Y-91908138D01*
X74515654Y-91943777D01*
X74490017Y-91975017D01*
X74458777Y-92000654D01*
X74423138Y-92019704D01*
X74384468Y-92031435D01*
X74338112Y-92036000D01*
X73261888Y-92036000D01*
X73215532Y-92031435D01*
X73176862Y-92019704D01*
X73141223Y-92000654D01*
X73109983Y-91975017D01*
X73084346Y-91943777D01*
X73065296Y-91908138D01*
X73053565Y-91869468D01*
X73049000Y-91823112D01*
X73049000Y-91171888D01*
X73053565Y-91125532D01*
X73065296Y-91086862D01*
X73084346Y-91051223D01*
X73109983Y-91019983D01*
X73141223Y-90994346D01*
X73176862Y-90975296D01*
X73215532Y-90963565D01*
X73261888Y-90959000D01*
X74338112Y-90959000D01*
X74384468Y-90963565D01*
X74384468Y-90963565D01*
G37*
G36*
X77112868Y-90963565D02*
G01*
X77151538Y-90975296D01*
X77187177Y-90994346D01*
X77218417Y-91019983D01*
X77244054Y-91051223D01*
X77263104Y-91086862D01*
X77274835Y-91125532D01*
X77279400Y-91171888D01*
X77279400Y-91823112D01*
X77274835Y-91869468D01*
X77263104Y-91908138D01*
X77244054Y-91943777D01*
X77218417Y-91975017D01*
X77187177Y-92000654D01*
X77151538Y-92019704D01*
X77112868Y-92031435D01*
X77066512Y-92036000D01*
X75990288Y-92036000D01*
X75943932Y-92031435D01*
X75905262Y-92019704D01*
X75869623Y-92000654D01*
X75838383Y-91975017D01*
X75812746Y-91943777D01*
X75793696Y-91908138D01*
X75781965Y-91869468D01*
X75777400Y-91823112D01*
X75777400Y-91171888D01*
X75781965Y-91125532D01*
X75793696Y-91086862D01*
X75812746Y-91051223D01*
X75838383Y-91019983D01*
X75869623Y-90994346D01*
X75905262Y-90975296D01*
X75943932Y-90963565D01*
X75990288Y-90959000D01*
X77066512Y-90959000D01*
X77112868Y-90963565D01*
X77112868Y-90963565D01*
G37*
G36*
X50885400Y-91682200D02*
G01*
X48783400Y-91682200D01*
X48783400Y-90080200D01*
X50885400Y-90080200D01*
X50885400Y-91682200D01*
X50885400Y-91682200D01*
G37*
G36*
X85851000Y-91551000D02*
G01*
X84549000Y-91551000D01*
X84549000Y-90549000D01*
X85851000Y-90549000D01*
X85851000Y-91551000D01*
X85851000Y-91551000D01*
G37*
G36*
X82484468Y-89703565D02*
G01*
X82523138Y-89715296D01*
X82558777Y-89734346D01*
X82590017Y-89759983D01*
X82615654Y-89791223D01*
X82634704Y-89826862D01*
X82646435Y-89865532D01*
X82651000Y-89911888D01*
X82651000Y-90563112D01*
X82646435Y-90609468D01*
X82634704Y-90648138D01*
X82615654Y-90683777D01*
X82590017Y-90715017D01*
X82558777Y-90740654D01*
X82523138Y-90759704D01*
X82484468Y-90771435D01*
X82438112Y-90776000D01*
X81361888Y-90776000D01*
X81315532Y-90771435D01*
X81276862Y-90759704D01*
X81241223Y-90740654D01*
X81209983Y-90715017D01*
X81184346Y-90683777D01*
X81165296Y-90648138D01*
X81153565Y-90609468D01*
X81149000Y-90563112D01*
X81149000Y-89911888D01*
X81153565Y-89865532D01*
X81165296Y-89826862D01*
X81184346Y-89791223D01*
X81209983Y-89759983D01*
X81241223Y-89734346D01*
X81276862Y-89715296D01*
X81315532Y-89703565D01*
X81361888Y-89699000D01*
X82438112Y-89699000D01*
X82484468Y-89703565D01*
X82484468Y-89703565D01*
G37*
G36*
X91248228Y-88981703D02*
G01*
X91403100Y-89045853D01*
X91542481Y-89138985D01*
X91661015Y-89257519D01*
X91754147Y-89396900D01*
X91818297Y-89551772D01*
X91851000Y-89716184D01*
X91851000Y-89883816D01*
X91818297Y-90048228D01*
X91754147Y-90203100D01*
X91661015Y-90342481D01*
X91542481Y-90461015D01*
X91403100Y-90554147D01*
X91248228Y-90618297D01*
X91083816Y-90651000D01*
X90916184Y-90651000D01*
X90751772Y-90618297D01*
X90596900Y-90554147D01*
X90457519Y-90461015D01*
X90338985Y-90342481D01*
X90245853Y-90203100D01*
X90181703Y-90048228D01*
X90149000Y-89883816D01*
X90149000Y-89716184D01*
X90181703Y-89551772D01*
X90245853Y-89396900D01*
X90338985Y-89257519D01*
X90457519Y-89138985D01*
X90596900Y-89045853D01*
X90751772Y-88981703D01*
X90916184Y-88949000D01*
X91083816Y-88949000D01*
X91248228Y-88981703D01*
X91248228Y-88981703D01*
G37*
G36*
X94351000Y-90651000D02*
G01*
X92649000Y-90651000D01*
X92649000Y-88949000D01*
X94351000Y-88949000D01*
X94351000Y-90651000D01*
X94351000Y-90651000D01*
G37*
G36*
X77112868Y-89088565D02*
G01*
X77151538Y-89100296D01*
X77187177Y-89119346D01*
X77218417Y-89144983D01*
X77244054Y-89176223D01*
X77263104Y-89211862D01*
X77274835Y-89250532D01*
X77279400Y-89296888D01*
X77279400Y-89948112D01*
X77274835Y-89994468D01*
X77263104Y-90033138D01*
X77244054Y-90068777D01*
X77218417Y-90100017D01*
X77187177Y-90125654D01*
X77151538Y-90144704D01*
X77112868Y-90156435D01*
X77066512Y-90161000D01*
X75990288Y-90161000D01*
X75943932Y-90156435D01*
X75905262Y-90144704D01*
X75869623Y-90125654D01*
X75838383Y-90100017D01*
X75812746Y-90068777D01*
X75793696Y-90033138D01*
X75781965Y-89994468D01*
X75777400Y-89948112D01*
X75777400Y-89296888D01*
X75781965Y-89250532D01*
X75793696Y-89211862D01*
X75812746Y-89176223D01*
X75838383Y-89144983D01*
X75869623Y-89119346D01*
X75905262Y-89100296D01*
X75943932Y-89088565D01*
X75990288Y-89084000D01*
X77066512Y-89084000D01*
X77112868Y-89088565D01*
X77112868Y-89088565D01*
G37*
G36*
X74384468Y-89088565D02*
G01*
X74423138Y-89100296D01*
X74458777Y-89119346D01*
X74490017Y-89144983D01*
X74515654Y-89176223D01*
X74534704Y-89211862D01*
X74546435Y-89250532D01*
X74551000Y-89296888D01*
X74551000Y-89948112D01*
X74546435Y-89994468D01*
X74534704Y-90033138D01*
X74515654Y-90068777D01*
X74490017Y-90100017D01*
X74458777Y-90125654D01*
X74423138Y-90144704D01*
X74384468Y-90156435D01*
X74338112Y-90161000D01*
X73261888Y-90161000D01*
X73215532Y-90156435D01*
X73176862Y-90144704D01*
X73141223Y-90125654D01*
X73109983Y-90100017D01*
X73084346Y-90068777D01*
X73065296Y-90033138D01*
X73053565Y-89994468D01*
X73049000Y-89948112D01*
X73049000Y-89296888D01*
X73053565Y-89250532D01*
X73065296Y-89211862D01*
X73084346Y-89176223D01*
X73109983Y-89144983D01*
X73141223Y-89119346D01*
X73176862Y-89100296D01*
X73215532Y-89088565D01*
X73261888Y-89084000D01*
X74338112Y-89084000D01*
X74384468Y-89088565D01*
X74384468Y-89088565D01*
G37*
G36*
X65048228Y-88281703D02*
G01*
X65203100Y-88345853D01*
X65342481Y-88438985D01*
X65461015Y-88557519D01*
X65554147Y-88696900D01*
X65618297Y-88851772D01*
X65651000Y-89016184D01*
X65651000Y-89183816D01*
X65618297Y-89348228D01*
X65554147Y-89503100D01*
X65461015Y-89642481D01*
X65342481Y-89761015D01*
X65203100Y-89854147D01*
X65048228Y-89918297D01*
X64883816Y-89951000D01*
X64716184Y-89951000D01*
X64551772Y-89918297D01*
X64396900Y-89854147D01*
X64257519Y-89761015D01*
X64138985Y-89642481D01*
X64045853Y-89503100D01*
X63981703Y-89348228D01*
X63949000Y-89183816D01*
X63949000Y-89016184D01*
X63981703Y-88851772D01*
X64045853Y-88696900D01*
X64138985Y-88557519D01*
X64257519Y-88438985D01*
X64396900Y-88345853D01*
X64551772Y-88281703D01*
X64716184Y-88249000D01*
X64883816Y-88249000D01*
X65048228Y-88281703D01*
X65048228Y-88281703D01*
G37*
G36*
X68151000Y-89951000D02*
G01*
X66449000Y-89951000D01*
X66449000Y-88249000D01*
X68151000Y-88249000D01*
X68151000Y-89951000D01*
X68151000Y-89951000D01*
G37*
G36*
X60028228Y-87971703D02*
G01*
X60183100Y-88035853D01*
X60322481Y-88128985D01*
X60441015Y-88247519D01*
X60534147Y-88386900D01*
X60598297Y-88541772D01*
X60631000Y-88706184D01*
X60631000Y-88873816D01*
X60598297Y-89038228D01*
X60534147Y-89193100D01*
X60441015Y-89332481D01*
X60322481Y-89451015D01*
X60183100Y-89544147D01*
X60028228Y-89608297D01*
X59863816Y-89641000D01*
X59696184Y-89641000D01*
X59531772Y-89608297D01*
X59376900Y-89544147D01*
X59237519Y-89451015D01*
X59118985Y-89332481D01*
X59025853Y-89193100D01*
X58961703Y-89038228D01*
X58929000Y-88873816D01*
X58929000Y-88706184D01*
X58961703Y-88541772D01*
X59025853Y-88386900D01*
X59118985Y-88247519D01*
X59237519Y-88128985D01*
X59376900Y-88035853D01*
X59531772Y-87971703D01*
X59696184Y-87939000D01*
X59863816Y-87939000D01*
X60028228Y-87971703D01*
X60028228Y-87971703D01*
G37*
G36*
X50885400Y-89382200D02*
G01*
X48783400Y-89382200D01*
X48783400Y-87780200D01*
X50885400Y-87780200D01*
X50885400Y-89382200D01*
X50885400Y-89382200D01*
G37*
G36*
X122086287Y-86480596D02*
G01*
X122323053Y-86578668D01*
X122323055Y-86578669D01*
X122536139Y-86721047D01*
X122717353Y-86902261D01*
X122828295Y-87068297D01*
X122859732Y-87115347D01*
X122957804Y-87352113D01*
X123007800Y-87603461D01*
X123007800Y-87859739D01*
X122957804Y-88111087D01*
X122901291Y-88247520D01*
X122859731Y-88347855D01*
X122717353Y-88560939D01*
X122536139Y-88742153D01*
X122323055Y-88884531D01*
X122323054Y-88884532D01*
X122323053Y-88884532D01*
X122086287Y-88982604D01*
X121834939Y-89032600D01*
X121578661Y-89032600D01*
X121327313Y-88982604D01*
X121090547Y-88884532D01*
X121090546Y-88884532D01*
X121090545Y-88884531D01*
X120877461Y-88742153D01*
X120696247Y-88560939D01*
X120553869Y-88347855D01*
X120512309Y-88247520D01*
X120455796Y-88111087D01*
X120405800Y-87859739D01*
X120405800Y-87603461D01*
X120455796Y-87352113D01*
X120553868Y-87115347D01*
X120585306Y-87068297D01*
X120696247Y-86902261D01*
X120877461Y-86721047D01*
X121090545Y-86578669D01*
X121090547Y-86578668D01*
X121327313Y-86480596D01*
X121578661Y-86430600D01*
X121834939Y-86430600D01*
X122086287Y-86480596D01*
X122086287Y-86480596D01*
G37*
G36*
X132266287Y-86480596D02*
G01*
X132503053Y-86578668D01*
X132503055Y-86578669D01*
X132716139Y-86721047D01*
X132897353Y-86902261D01*
X133008295Y-87068297D01*
X133039732Y-87115347D01*
X133137804Y-87352113D01*
X133187800Y-87603461D01*
X133187800Y-87859739D01*
X133137804Y-88111087D01*
X133081291Y-88247520D01*
X133039731Y-88347855D01*
X132897353Y-88560939D01*
X132716139Y-88742153D01*
X132503055Y-88884531D01*
X132503054Y-88884532D01*
X132503053Y-88884532D01*
X132266287Y-88982604D01*
X132014939Y-89032600D01*
X131758661Y-89032600D01*
X131507313Y-88982604D01*
X131270547Y-88884532D01*
X131270546Y-88884532D01*
X131270545Y-88884531D01*
X131057461Y-88742153D01*
X130876247Y-88560939D01*
X130733869Y-88347855D01*
X130692309Y-88247520D01*
X130635796Y-88111087D01*
X130585800Y-87859739D01*
X130585800Y-87603461D01*
X130635796Y-87352113D01*
X130733868Y-87115347D01*
X130765306Y-87068297D01*
X130876247Y-86902261D01*
X131057461Y-86721047D01*
X131270545Y-86578669D01*
X131270547Y-86578668D01*
X131507313Y-86480596D01*
X131758661Y-86430600D01*
X132014939Y-86430600D01*
X132266287Y-86480596D01*
X132266287Y-86480596D01*
G37*
G36*
X82484468Y-87828565D02*
G01*
X82523138Y-87840296D01*
X82558777Y-87859346D01*
X82590017Y-87884983D01*
X82615654Y-87916223D01*
X82634704Y-87951862D01*
X82646435Y-87990532D01*
X82651000Y-88036888D01*
X82651000Y-88688112D01*
X82646435Y-88734468D01*
X82634704Y-88773138D01*
X82615654Y-88808777D01*
X82590017Y-88840017D01*
X82558777Y-88865654D01*
X82523138Y-88884704D01*
X82484468Y-88896435D01*
X82438112Y-88901000D01*
X81361888Y-88901000D01*
X81315532Y-88896435D01*
X81276862Y-88884704D01*
X81241223Y-88865654D01*
X81209983Y-88840017D01*
X81184346Y-88808777D01*
X81165296Y-88773138D01*
X81153565Y-88734468D01*
X81149000Y-88688112D01*
X81149000Y-88036888D01*
X81153565Y-87990532D01*
X81165296Y-87951862D01*
X81184346Y-87916223D01*
X81209983Y-87884983D01*
X81241223Y-87859346D01*
X81276862Y-87840296D01*
X81315532Y-87828565D01*
X81361888Y-87824000D01*
X82438112Y-87824000D01*
X82484468Y-87828565D01*
X82484468Y-87828565D01*
G37*
G36*
X109480897Y-86574007D02*
G01*
X109656152Y-86646600D01*
X109813877Y-86751989D01*
X109948011Y-86886123D01*
X110053400Y-87043848D01*
X110125993Y-87219103D01*
X110163000Y-87405153D01*
X110163000Y-87594847D01*
X110125993Y-87780897D01*
X110053400Y-87956152D01*
X109948011Y-88113877D01*
X109813877Y-88248011D01*
X109656152Y-88353400D01*
X109480897Y-88425993D01*
X109294847Y-88463000D01*
X109105153Y-88463000D01*
X108919103Y-88425993D01*
X108743848Y-88353400D01*
X108586123Y-88248011D01*
X108451989Y-88113877D01*
X108346600Y-87956152D01*
X108274007Y-87780897D01*
X108237000Y-87594847D01*
X108237000Y-87405153D01*
X108274007Y-87219103D01*
X108346600Y-87043848D01*
X108451989Y-86886123D01*
X108586123Y-86751989D01*
X108743848Y-86646600D01*
X108919103Y-86574007D01*
X109105153Y-86537000D01*
X109294847Y-86537000D01*
X109480897Y-86574007D01*
X109480897Y-86574007D01*
G37*
G36*
X85851000Y-88251000D02*
G01*
X84549000Y-88251000D01*
X84549000Y-87249000D01*
X85851000Y-87249000D01*
X85851000Y-88251000D01*
X85851000Y-88251000D01*
G37*
G36*
X60028228Y-85431703D02*
G01*
X60183100Y-85495853D01*
X60322481Y-85588985D01*
X60441015Y-85707519D01*
X60534147Y-85846900D01*
X60598297Y-86001772D01*
X60631000Y-86166184D01*
X60631000Y-86333816D01*
X60598297Y-86498228D01*
X60534147Y-86653100D01*
X60441015Y-86792481D01*
X60322481Y-86911015D01*
X60183100Y-87004147D01*
X60028228Y-87068297D01*
X59863816Y-87101000D01*
X59696184Y-87101000D01*
X59531772Y-87068297D01*
X59376900Y-87004147D01*
X59237519Y-86911015D01*
X59118985Y-86792481D01*
X59025853Y-86653100D01*
X58961703Y-86498228D01*
X58929000Y-86333816D01*
X58929000Y-86166184D01*
X58961703Y-86001772D01*
X59025853Y-85846900D01*
X59118985Y-85707519D01*
X59237519Y-85588985D01*
X59376900Y-85495853D01*
X59531772Y-85431703D01*
X59696184Y-85399000D01*
X59863816Y-85399000D01*
X60028228Y-85431703D01*
X60028228Y-85431703D01*
G37*
G36*
X54706564Y-83989389D02*
G01*
X54897833Y-84068615D01*
X54897835Y-84068616D01*
X54964405Y-84113097D01*
X55069973Y-84183635D01*
X55216365Y-84330027D01*
X55331385Y-84502167D01*
X55410611Y-84693436D01*
X55451000Y-84896484D01*
X55451000Y-85103516D01*
X55410611Y-85306564D01*
X55332205Y-85495853D01*
X55331384Y-85497835D01*
X55216365Y-85669973D01*
X55069973Y-85816365D01*
X54897835Y-85931384D01*
X54897834Y-85931385D01*
X54897833Y-85931385D01*
X54706564Y-86010611D01*
X54503516Y-86051000D01*
X54296484Y-86051000D01*
X54093436Y-86010611D01*
X53902167Y-85931385D01*
X53902166Y-85931385D01*
X53902165Y-85931384D01*
X53730027Y-85816365D01*
X53583635Y-85669973D01*
X53468616Y-85497835D01*
X53467795Y-85495853D01*
X53389389Y-85306564D01*
X53349000Y-85103516D01*
X53349000Y-84896484D01*
X53389389Y-84693436D01*
X53468615Y-84502167D01*
X53583635Y-84330027D01*
X53730027Y-84183635D01*
X53835595Y-84113097D01*
X53902165Y-84068616D01*
X53902167Y-84068615D01*
X54093436Y-83989389D01*
X54296484Y-83949000D01*
X54503516Y-83949000D01*
X54706564Y-83989389D01*
X54706564Y-83989389D01*
G37*
G36*
X50206564Y-83989389D02*
G01*
X50397833Y-84068615D01*
X50397835Y-84068616D01*
X50464405Y-84113097D01*
X50569973Y-84183635D01*
X50716365Y-84330027D01*
X50831385Y-84502167D01*
X50910611Y-84693436D01*
X50951000Y-84896484D01*
X50951000Y-85103516D01*
X50910611Y-85306564D01*
X50832205Y-85495853D01*
X50831384Y-85497835D01*
X50716365Y-85669973D01*
X50569973Y-85816365D01*
X50397835Y-85931384D01*
X50397834Y-85931385D01*
X50397833Y-85931385D01*
X50206564Y-86010611D01*
X50003516Y-86051000D01*
X49796484Y-86051000D01*
X49593436Y-86010611D01*
X49402167Y-85931385D01*
X49402166Y-85931385D01*
X49402165Y-85931384D01*
X49230027Y-85816365D01*
X49083635Y-85669973D01*
X48968616Y-85497835D01*
X48967795Y-85495853D01*
X48889389Y-85306564D01*
X48849000Y-85103516D01*
X48849000Y-84896484D01*
X48889389Y-84693436D01*
X48968615Y-84502167D01*
X49083635Y-84330027D01*
X49230027Y-84183635D01*
X49335595Y-84113097D01*
X49402165Y-84068616D01*
X49402167Y-84068615D01*
X49593436Y-83989389D01*
X49796484Y-83949000D01*
X50003516Y-83949000D01*
X50206564Y-83989389D01*
X50206564Y-83989389D01*
G37*
G36*
X74551000Y-85051000D02*
G01*
X70949000Y-85051000D01*
X70949000Y-83749000D01*
X74551000Y-83749000D01*
X74551000Y-85051000D01*
X74551000Y-85051000D01*
G37*
G36*
X80051000Y-85051000D02*
G01*
X76449000Y-85051000D01*
X76449000Y-83749000D01*
X80051000Y-83749000D01*
X80051000Y-85051000D01*
X80051000Y-85051000D01*
G37*
G36*
X60028228Y-82891703D02*
G01*
X60183100Y-82955853D01*
X60322481Y-83048985D01*
X60441015Y-83167519D01*
X60534147Y-83306900D01*
X60598297Y-83461772D01*
X60631000Y-83626184D01*
X60631000Y-83793816D01*
X60598297Y-83958228D01*
X60534147Y-84113100D01*
X60441015Y-84252481D01*
X60322481Y-84371015D01*
X60183100Y-84464147D01*
X60028228Y-84528297D01*
X59863816Y-84561000D01*
X59696184Y-84561000D01*
X59531772Y-84528297D01*
X59376900Y-84464147D01*
X59237519Y-84371015D01*
X59118985Y-84252481D01*
X59025853Y-84113100D01*
X58961703Y-83958228D01*
X58929000Y-83793816D01*
X58929000Y-83626184D01*
X58961703Y-83461772D01*
X59025853Y-83306900D01*
X59118985Y-83167519D01*
X59237519Y-83048985D01*
X59376900Y-82955853D01*
X59531772Y-82891703D01*
X59696184Y-82859000D01*
X59863816Y-82859000D01*
X60028228Y-82891703D01*
X60028228Y-82891703D01*
G37*
G36*
X115901000Y-84201000D02*
G01*
X113299000Y-84201000D01*
X113299000Y-81599000D01*
X115901000Y-81599000D01*
X115901000Y-84201000D01*
X115901000Y-84201000D01*
G37*
G36*
X100425828Y-81731703D02*
G01*
X100580700Y-81795853D01*
X100720081Y-81888985D01*
X100838615Y-82007519D01*
X100931747Y-82146900D01*
X100995897Y-82301772D01*
X101028600Y-82466184D01*
X101028600Y-82633816D01*
X100995897Y-82798228D01*
X100931747Y-82953100D01*
X100838615Y-83092481D01*
X100720081Y-83211015D01*
X100580700Y-83304147D01*
X100425828Y-83368297D01*
X100261416Y-83401000D01*
X100093784Y-83401000D01*
X99929372Y-83368297D01*
X99774500Y-83304147D01*
X99635119Y-83211015D01*
X99516585Y-83092481D01*
X99423453Y-82953100D01*
X99359303Y-82798228D01*
X99326600Y-82633816D01*
X99326600Y-82466184D01*
X99359303Y-82301772D01*
X99423453Y-82146900D01*
X99516585Y-82007519D01*
X99635119Y-81888985D01*
X99774500Y-81795853D01*
X99929372Y-81731703D01*
X100093784Y-81699000D01*
X100261416Y-81699000D01*
X100425828Y-81731703D01*
X100425828Y-81731703D01*
G37*
G36*
X90184423Y-81711313D02*
G01*
X90344842Y-81759976D01*
X90411961Y-81795852D01*
X90492678Y-81838996D01*
X90622259Y-81945341D01*
X90728604Y-82074922D01*
X90728605Y-82074924D01*
X90807624Y-82222758D01*
X90856287Y-82383177D01*
X90872717Y-82550000D01*
X90856287Y-82716823D01*
X90807624Y-82877242D01*
X90736714Y-83009906D01*
X90728604Y-83025078D01*
X90622259Y-83154659D01*
X90492678Y-83261004D01*
X90492676Y-83261005D01*
X90344842Y-83340024D01*
X90184423Y-83388687D01*
X90059404Y-83401000D01*
X89975796Y-83401000D01*
X89850777Y-83388687D01*
X89690358Y-83340024D01*
X89542524Y-83261005D01*
X89542522Y-83261004D01*
X89412941Y-83154659D01*
X89306596Y-83025078D01*
X89298486Y-83009906D01*
X89227576Y-82877242D01*
X89178913Y-82716823D01*
X89162483Y-82550000D01*
X89178913Y-82383177D01*
X89227576Y-82222758D01*
X89306595Y-82074924D01*
X89306596Y-82074922D01*
X89412941Y-81945341D01*
X89542522Y-81838996D01*
X89623239Y-81795852D01*
X89690358Y-81759976D01*
X89850777Y-81711313D01*
X89975796Y-81699000D01*
X90059404Y-81699000D01*
X90184423Y-81711313D01*
X90184423Y-81711313D01*
G37*
G36*
X60028228Y-80351703D02*
G01*
X60183100Y-80415853D01*
X60322481Y-80508985D01*
X60441015Y-80627519D01*
X60534147Y-80766900D01*
X60598297Y-80921772D01*
X60631000Y-81086184D01*
X60631000Y-81253816D01*
X60598297Y-81418228D01*
X60534147Y-81573100D01*
X60441015Y-81712481D01*
X60322481Y-81831015D01*
X60183100Y-81924147D01*
X60028228Y-81988297D01*
X59863816Y-82021000D01*
X59696184Y-82021000D01*
X59531772Y-81988297D01*
X59376900Y-81924147D01*
X59237519Y-81831015D01*
X59118985Y-81712481D01*
X59025853Y-81573100D01*
X58961703Y-81418228D01*
X58929000Y-81253816D01*
X58929000Y-81086184D01*
X58961703Y-80921772D01*
X59025853Y-80766900D01*
X59118985Y-80627519D01*
X59237519Y-80508985D01*
X59376900Y-80415853D01*
X59531772Y-80351703D01*
X59696184Y-80319000D01*
X59863816Y-80319000D01*
X60028228Y-80351703D01*
X60028228Y-80351703D01*
G37*
G36*
X129410312Y-79835527D02*
G01*
X129559612Y-79865224D01*
X129723584Y-79933144D01*
X129871154Y-80031747D01*
X129996653Y-80157246D01*
X130095256Y-80304816D01*
X130163176Y-80468788D01*
X130197800Y-80642859D01*
X130197800Y-80820341D01*
X130163176Y-80994412D01*
X130095256Y-81158384D01*
X129996653Y-81305954D01*
X129871154Y-81431453D01*
X129723584Y-81530056D01*
X129559612Y-81597976D01*
X129410312Y-81627673D01*
X129385542Y-81632600D01*
X129208058Y-81632600D01*
X129183288Y-81627673D01*
X129033988Y-81597976D01*
X128870016Y-81530056D01*
X128722446Y-81431453D01*
X128596947Y-81305954D01*
X128498344Y-81158384D01*
X128430424Y-80994412D01*
X128395800Y-80820341D01*
X128395800Y-80642859D01*
X128430424Y-80468788D01*
X128498344Y-80304816D01*
X128596947Y-80157246D01*
X128722446Y-80031747D01*
X128870016Y-79933144D01*
X129033988Y-79865224D01*
X129183288Y-79835527D01*
X129208058Y-79830600D01*
X129385542Y-79830600D01*
X129410312Y-79835527D01*
X129410312Y-79835527D01*
G37*
G36*
X126910312Y-79835527D02*
G01*
X127059612Y-79865224D01*
X127223584Y-79933144D01*
X127371154Y-80031747D01*
X127496653Y-80157246D01*
X127595256Y-80304816D01*
X127663176Y-80468788D01*
X127697800Y-80642859D01*
X127697800Y-80820341D01*
X127663176Y-80994412D01*
X127595256Y-81158384D01*
X127496653Y-81305954D01*
X127371154Y-81431453D01*
X127223584Y-81530056D01*
X127059612Y-81597976D01*
X126910312Y-81627673D01*
X126885542Y-81632600D01*
X126708058Y-81632600D01*
X126683288Y-81627673D01*
X126533988Y-81597976D01*
X126370016Y-81530056D01*
X126222446Y-81431453D01*
X126096947Y-81305954D01*
X125998344Y-81158384D01*
X125930424Y-80994412D01*
X125895800Y-80820341D01*
X125895800Y-80642859D01*
X125930424Y-80468788D01*
X125998344Y-80304816D01*
X126096947Y-80157246D01*
X126222446Y-80031747D01*
X126370016Y-79933144D01*
X126533988Y-79865224D01*
X126683288Y-79835527D01*
X126708058Y-79830600D01*
X126885542Y-79830600D01*
X126910312Y-79835527D01*
X126910312Y-79835527D01*
G37*
G36*
X124410312Y-79835527D02*
G01*
X124559612Y-79865224D01*
X124723584Y-79933144D01*
X124871154Y-80031747D01*
X124996653Y-80157246D01*
X125095256Y-80304816D01*
X125163176Y-80468788D01*
X125197800Y-80642859D01*
X125197800Y-80820341D01*
X125163176Y-80994412D01*
X125095256Y-81158384D01*
X124996653Y-81305954D01*
X124871154Y-81431453D01*
X124723584Y-81530056D01*
X124559612Y-81597976D01*
X124410312Y-81627673D01*
X124385542Y-81632600D01*
X124208058Y-81632600D01*
X124183288Y-81627673D01*
X124033988Y-81597976D01*
X123870016Y-81530056D01*
X123722446Y-81431453D01*
X123596947Y-81305954D01*
X123498344Y-81158384D01*
X123430424Y-80994412D01*
X123395800Y-80820341D01*
X123395800Y-80642859D01*
X123430424Y-80468788D01*
X123498344Y-80304816D01*
X123596947Y-80157246D01*
X123722446Y-80031747D01*
X123870016Y-79933144D01*
X124033988Y-79865224D01*
X124183288Y-79835527D01*
X124208058Y-79830600D01*
X124385542Y-79830600D01*
X124410312Y-79835527D01*
X124410312Y-79835527D01*
G37*
G36*
X77509468Y-79653565D02*
G01*
X77548138Y-79665296D01*
X77583777Y-79684346D01*
X77615017Y-79709983D01*
X77640654Y-79741223D01*
X77659704Y-79776862D01*
X77671435Y-79815532D01*
X77676000Y-79861888D01*
X77676000Y-80938112D01*
X77671435Y-80984468D01*
X77659704Y-81023138D01*
X77640654Y-81058777D01*
X77615017Y-81090017D01*
X77583777Y-81115654D01*
X77548138Y-81134704D01*
X77509468Y-81146435D01*
X77463112Y-81151000D01*
X76811888Y-81151000D01*
X76765532Y-81146435D01*
X76726862Y-81134704D01*
X76691223Y-81115654D01*
X76659983Y-81090017D01*
X76634346Y-81058777D01*
X76615296Y-81023138D01*
X76603565Y-80984468D01*
X76599000Y-80938112D01*
X76599000Y-79861888D01*
X76603565Y-79815532D01*
X76615296Y-79776862D01*
X76634346Y-79741223D01*
X76659983Y-79709983D01*
X76691223Y-79684346D01*
X76726862Y-79665296D01*
X76765532Y-79653565D01*
X76811888Y-79649000D01*
X77463112Y-79649000D01*
X77509468Y-79653565D01*
X77509468Y-79653565D01*
G37*
G36*
X75634468Y-79653565D02*
G01*
X75673138Y-79665296D01*
X75708777Y-79684346D01*
X75740017Y-79709983D01*
X75765654Y-79741223D01*
X75784704Y-79776862D01*
X75796435Y-79815532D01*
X75801000Y-79861888D01*
X75801000Y-80938112D01*
X75796435Y-80984468D01*
X75784704Y-81023138D01*
X75765654Y-81058777D01*
X75740017Y-81090017D01*
X75708777Y-81115654D01*
X75673138Y-81134704D01*
X75634468Y-81146435D01*
X75588112Y-81151000D01*
X74936888Y-81151000D01*
X74890532Y-81146435D01*
X74851862Y-81134704D01*
X74816223Y-81115654D01*
X74784983Y-81090017D01*
X74759346Y-81058777D01*
X74740296Y-81023138D01*
X74728565Y-80984468D01*
X74724000Y-80938112D01*
X74724000Y-79861888D01*
X74728565Y-79815532D01*
X74740296Y-79776862D01*
X74759346Y-79741223D01*
X74784983Y-79709983D01*
X74816223Y-79684346D01*
X74851862Y-79665296D01*
X74890532Y-79653565D01*
X74936888Y-79649000D01*
X75588112Y-79649000D01*
X75634468Y-79653565D01*
X75634468Y-79653565D01*
G37*
G36*
X73609468Y-79653565D02*
G01*
X73648138Y-79665296D01*
X73683777Y-79684346D01*
X73715017Y-79709983D01*
X73740654Y-79741223D01*
X73759704Y-79776862D01*
X73771435Y-79815532D01*
X73776000Y-79861888D01*
X73776000Y-80938112D01*
X73771435Y-80984468D01*
X73759704Y-81023138D01*
X73740654Y-81058777D01*
X73715017Y-81090017D01*
X73683777Y-81115654D01*
X73648138Y-81134704D01*
X73609468Y-81146435D01*
X73563112Y-81151000D01*
X72911888Y-81151000D01*
X72865532Y-81146435D01*
X72826862Y-81134704D01*
X72791223Y-81115654D01*
X72759983Y-81090017D01*
X72734346Y-81058777D01*
X72715296Y-81023138D01*
X72703565Y-80984468D01*
X72699000Y-80938112D01*
X72699000Y-79861888D01*
X72703565Y-79815532D01*
X72715296Y-79776862D01*
X72734346Y-79741223D01*
X72759983Y-79709983D01*
X72791223Y-79684346D01*
X72826862Y-79665296D01*
X72865532Y-79653565D01*
X72911888Y-79649000D01*
X73563112Y-79649000D01*
X73609468Y-79653565D01*
X73609468Y-79653565D01*
G37*
G36*
X71734468Y-79653565D02*
G01*
X71773138Y-79665296D01*
X71808777Y-79684346D01*
X71840017Y-79709983D01*
X71865654Y-79741223D01*
X71884704Y-79776862D01*
X71896435Y-79815532D01*
X71901000Y-79861888D01*
X71901000Y-80938112D01*
X71896435Y-80984468D01*
X71884704Y-81023138D01*
X71865654Y-81058777D01*
X71840017Y-81090017D01*
X71808777Y-81115654D01*
X71773138Y-81134704D01*
X71734468Y-81146435D01*
X71688112Y-81151000D01*
X71036888Y-81151000D01*
X70990532Y-81146435D01*
X70951862Y-81134704D01*
X70916223Y-81115654D01*
X70884983Y-81090017D01*
X70859346Y-81058777D01*
X70840296Y-81023138D01*
X70828565Y-80984468D01*
X70824000Y-80938112D01*
X70824000Y-79861888D01*
X70828565Y-79815532D01*
X70840296Y-79776862D01*
X70859346Y-79741223D01*
X70884983Y-79709983D01*
X70916223Y-79684346D01*
X70951862Y-79665296D01*
X70990532Y-79653565D01*
X71036888Y-79649000D01*
X71688112Y-79649000D01*
X71734468Y-79653565D01*
X71734468Y-79653565D01*
G37*
G36*
X81248228Y-78681703D02*
G01*
X81403100Y-78745853D01*
X81542481Y-78838985D01*
X81661015Y-78957519D01*
X81754147Y-79096900D01*
X81818297Y-79251772D01*
X81851000Y-79416184D01*
X81851000Y-79583816D01*
X81818297Y-79748228D01*
X81754147Y-79903100D01*
X81661015Y-80042481D01*
X81542481Y-80161015D01*
X81403100Y-80254147D01*
X81248228Y-80318297D01*
X81083816Y-80351000D01*
X80916184Y-80351000D01*
X80751772Y-80318297D01*
X80596900Y-80254147D01*
X80457519Y-80161015D01*
X80338985Y-80042481D01*
X80245853Y-79903100D01*
X80181703Y-79748228D01*
X80149000Y-79583816D01*
X80149000Y-79416184D01*
X80181703Y-79251772D01*
X80245853Y-79096900D01*
X80338985Y-78957519D01*
X80457519Y-78838985D01*
X80596900Y-78745853D01*
X80751772Y-78681703D01*
X80916184Y-78649000D01*
X81083816Y-78649000D01*
X81248228Y-78681703D01*
X81248228Y-78681703D01*
G37*
G36*
X83748228Y-78681703D02*
G01*
X83903100Y-78745853D01*
X84042481Y-78838985D01*
X84161015Y-78957519D01*
X84254147Y-79096900D01*
X84318297Y-79251772D01*
X84351000Y-79416184D01*
X84351000Y-79583816D01*
X84318297Y-79748228D01*
X84254147Y-79903100D01*
X84161015Y-80042481D01*
X84042481Y-80161015D01*
X83903100Y-80254147D01*
X83748228Y-80318297D01*
X83583816Y-80351000D01*
X83416184Y-80351000D01*
X83251772Y-80318297D01*
X83096900Y-80254147D01*
X82957519Y-80161015D01*
X82838985Y-80042481D01*
X82745853Y-79903100D01*
X82681703Y-79748228D01*
X82649000Y-79583816D01*
X82649000Y-79416184D01*
X82681703Y-79251772D01*
X82745853Y-79096900D01*
X82838985Y-78957519D01*
X82957519Y-78838985D01*
X83096900Y-78745853D01*
X83251772Y-78681703D01*
X83416184Y-78649000D01*
X83583816Y-78649000D01*
X83748228Y-78681703D01*
X83748228Y-78681703D01*
G37*
G36*
X90265828Y-78328103D02*
G01*
X90420700Y-78392253D01*
X90560081Y-78485385D01*
X90678615Y-78603919D01*
X90771747Y-78743300D01*
X90835897Y-78898172D01*
X90868600Y-79062584D01*
X90868600Y-79230216D01*
X90835897Y-79394628D01*
X90771747Y-79549500D01*
X90678615Y-79688881D01*
X90560081Y-79807415D01*
X90420700Y-79900547D01*
X90265828Y-79964697D01*
X90101416Y-79997400D01*
X89933784Y-79997400D01*
X89769372Y-79964697D01*
X89614500Y-79900547D01*
X89475119Y-79807415D01*
X89356585Y-79688881D01*
X89263453Y-79549500D01*
X89199303Y-79394628D01*
X89166600Y-79230216D01*
X89166600Y-79062584D01*
X89199303Y-78898172D01*
X89263453Y-78743300D01*
X89356585Y-78603919D01*
X89475119Y-78485385D01*
X89614500Y-78392253D01*
X89769372Y-78328103D01*
X89933784Y-78295400D01*
X90101416Y-78295400D01*
X90265828Y-78328103D01*
X90265828Y-78328103D01*
G37*
G36*
X100344423Y-78307713D02*
G01*
X100504842Y-78356376D01*
X100579882Y-78396486D01*
X100652678Y-78435396D01*
X100782259Y-78541741D01*
X100888604Y-78671322D01*
X100888605Y-78671324D01*
X100967624Y-78819158D01*
X101016287Y-78979577D01*
X101032717Y-79146400D01*
X101016287Y-79313223D01*
X100967624Y-79473642D01*
X100927077Y-79549500D01*
X100888604Y-79621478D01*
X100782259Y-79751059D01*
X100652678Y-79857404D01*
X100652676Y-79857405D01*
X100504842Y-79936424D01*
X100344423Y-79985087D01*
X100219404Y-79997400D01*
X100135796Y-79997400D01*
X100010777Y-79985087D01*
X99850358Y-79936424D01*
X99702524Y-79857405D01*
X99702522Y-79857404D01*
X99572941Y-79751059D01*
X99466596Y-79621478D01*
X99428123Y-79549500D01*
X99387576Y-79473642D01*
X99338913Y-79313223D01*
X99322483Y-79146400D01*
X99338913Y-78979577D01*
X99387576Y-78819158D01*
X99466595Y-78671324D01*
X99466596Y-78671322D01*
X99572941Y-78541741D01*
X99702522Y-78435396D01*
X99775318Y-78396486D01*
X99850358Y-78356376D01*
X100010777Y-78307713D01*
X100135796Y-78295400D01*
X100219404Y-78295400D01*
X100344423Y-78307713D01*
X100344423Y-78307713D01*
G37*
G36*
X54706564Y-77489389D02*
G01*
X54897833Y-77568615D01*
X54897835Y-77568616D01*
X55069973Y-77683635D01*
X55216365Y-77830027D01*
X55331385Y-78002167D01*
X55410611Y-78193436D01*
X55451000Y-78396484D01*
X55451000Y-78603516D01*
X55410611Y-78806564D01*
X55338947Y-78979577D01*
X55331384Y-78997835D01*
X55216365Y-79169973D01*
X55069973Y-79316365D01*
X54897835Y-79431384D01*
X54897834Y-79431385D01*
X54897833Y-79431385D01*
X54706564Y-79510611D01*
X54503516Y-79551000D01*
X54296484Y-79551000D01*
X54093436Y-79510611D01*
X53902167Y-79431385D01*
X53902166Y-79431385D01*
X53902165Y-79431384D01*
X53730027Y-79316365D01*
X53583635Y-79169973D01*
X53468616Y-78997835D01*
X53461053Y-78979577D01*
X53389389Y-78806564D01*
X53349000Y-78603516D01*
X53349000Y-78396484D01*
X53389389Y-78193436D01*
X53468615Y-78002167D01*
X53583635Y-77830027D01*
X53730027Y-77683635D01*
X53902165Y-77568616D01*
X53902167Y-77568615D01*
X54093436Y-77489389D01*
X54296484Y-77449000D01*
X54503516Y-77449000D01*
X54706564Y-77489389D01*
X54706564Y-77489389D01*
G37*
G36*
X50206564Y-77489389D02*
G01*
X50397833Y-77568615D01*
X50397835Y-77568616D01*
X50569973Y-77683635D01*
X50716365Y-77830027D01*
X50831385Y-78002167D01*
X50910611Y-78193436D01*
X50951000Y-78396484D01*
X50951000Y-78603516D01*
X50910611Y-78806564D01*
X50838947Y-78979577D01*
X50831384Y-78997835D01*
X50716365Y-79169973D01*
X50569973Y-79316365D01*
X50397835Y-79431384D01*
X50397834Y-79431385D01*
X50397833Y-79431385D01*
X50206564Y-79510611D01*
X50003516Y-79551000D01*
X49796484Y-79551000D01*
X49593436Y-79510611D01*
X49402167Y-79431385D01*
X49402166Y-79431385D01*
X49402165Y-79431384D01*
X49230027Y-79316365D01*
X49083635Y-79169973D01*
X48968616Y-78997835D01*
X48961053Y-78979577D01*
X48889389Y-78806564D01*
X48849000Y-78603516D01*
X48849000Y-78396484D01*
X48889389Y-78193436D01*
X48968615Y-78002167D01*
X49083635Y-77830027D01*
X49230027Y-77683635D01*
X49402165Y-77568616D01*
X49402167Y-77568615D01*
X49593436Y-77489389D01*
X49796484Y-77449000D01*
X50003516Y-77449000D01*
X50206564Y-77489389D01*
X50206564Y-77489389D01*
G37*
G36*
X60028228Y-77811703D02*
G01*
X60183100Y-77875853D01*
X60322481Y-77968985D01*
X60441015Y-78087519D01*
X60534147Y-78226900D01*
X60598297Y-78381772D01*
X60631000Y-78546184D01*
X60631000Y-78713816D01*
X60598297Y-78878228D01*
X60534147Y-79033100D01*
X60441015Y-79172481D01*
X60322481Y-79291015D01*
X60183100Y-79384147D01*
X60028228Y-79448297D01*
X59863816Y-79481000D01*
X59696184Y-79481000D01*
X59531772Y-79448297D01*
X59376900Y-79384147D01*
X59237519Y-79291015D01*
X59118985Y-79172481D01*
X59025853Y-79033100D01*
X58961703Y-78878228D01*
X58929000Y-78713816D01*
X58929000Y-78546184D01*
X58961703Y-78381772D01*
X59025853Y-78226900D01*
X59118985Y-78087519D01*
X59237519Y-77968985D01*
X59376900Y-77875853D01*
X59531772Y-77811703D01*
X59696184Y-77779000D01*
X59863816Y-77779000D01*
X60028228Y-77811703D01*
X60028228Y-77811703D01*
G37*
G36*
X110501000Y-78901000D02*
G01*
X107899000Y-78901000D01*
X107899000Y-76299000D01*
X110501000Y-76299000D01*
X110501000Y-78901000D01*
X110501000Y-78901000D01*
G37*
G36*
X115901000Y-78901000D02*
G01*
X113299000Y-78901000D01*
X113299000Y-76299000D01*
X115901000Y-76299000D01*
X115901000Y-78901000D01*
X115901000Y-78901000D01*
G37*
G36*
X71826000Y-77001000D02*
G01*
X65574000Y-77001000D01*
X65574000Y-75299000D01*
X71826000Y-75299000D01*
X71826000Y-77001000D01*
X71826000Y-77001000D01*
G37*
G36*
X60028228Y-75271703D02*
G01*
X60183100Y-75335853D01*
X60322481Y-75428985D01*
X60441015Y-75547519D01*
X60534147Y-75686900D01*
X60598297Y-75841772D01*
X60631000Y-76006184D01*
X60631000Y-76173816D01*
X60598297Y-76338228D01*
X60534147Y-76493100D01*
X60441015Y-76632481D01*
X60322481Y-76751015D01*
X60183100Y-76844147D01*
X60028228Y-76908297D01*
X59863816Y-76941000D01*
X59696184Y-76941000D01*
X59531772Y-76908297D01*
X59376900Y-76844147D01*
X59237519Y-76751015D01*
X59118985Y-76632481D01*
X59025853Y-76493100D01*
X58961703Y-76338228D01*
X58929000Y-76173816D01*
X58929000Y-76006184D01*
X58961703Y-75841772D01*
X59025853Y-75686900D01*
X59118985Y-75547519D01*
X59237519Y-75428985D01*
X59376900Y-75335853D01*
X59531772Y-75271703D01*
X59696184Y-75239000D01*
X59863816Y-75239000D01*
X60028228Y-75271703D01*
X60028228Y-75271703D01*
G37*
G36*
X100273428Y-74924503D02*
G01*
X100428300Y-74988653D01*
X100567681Y-75081785D01*
X100686215Y-75200319D01*
X100779347Y-75339700D01*
X100843497Y-75494572D01*
X100876200Y-75658984D01*
X100876200Y-75826616D01*
X100843497Y-75991028D01*
X100779347Y-76145900D01*
X100686215Y-76285281D01*
X100567681Y-76403815D01*
X100428300Y-76496947D01*
X100273428Y-76561097D01*
X100109016Y-76593800D01*
X99941384Y-76593800D01*
X99776972Y-76561097D01*
X99622100Y-76496947D01*
X99482719Y-76403815D01*
X99364185Y-76285281D01*
X99271053Y-76145900D01*
X99206903Y-75991028D01*
X99174200Y-75826616D01*
X99174200Y-75658984D01*
X99206903Y-75494572D01*
X99271053Y-75339700D01*
X99364185Y-75200319D01*
X99482719Y-75081785D01*
X99622100Y-74988653D01*
X99776972Y-74924503D01*
X99941384Y-74891800D01*
X100109016Y-74891800D01*
X100273428Y-74924503D01*
X100273428Y-74924503D01*
G37*
G36*
X90032023Y-74904113D02*
G01*
X90192442Y-74952776D01*
X90325106Y-75023686D01*
X90340278Y-75031796D01*
X90469859Y-75138141D01*
X90576204Y-75267722D01*
X90576205Y-75267724D01*
X90655224Y-75415558D01*
X90703887Y-75575977D01*
X90720317Y-75742800D01*
X90703887Y-75909623D01*
X90655224Y-76070042D01*
X90584314Y-76202706D01*
X90576204Y-76217878D01*
X90469859Y-76347459D01*
X90340278Y-76453804D01*
X90340276Y-76453805D01*
X90192442Y-76532824D01*
X90032023Y-76581487D01*
X89907004Y-76593800D01*
X89823396Y-76593800D01*
X89698377Y-76581487D01*
X89537958Y-76532824D01*
X89390124Y-76453805D01*
X89390122Y-76453804D01*
X89260541Y-76347459D01*
X89154196Y-76217878D01*
X89146086Y-76202706D01*
X89075176Y-76070042D01*
X89026513Y-75909623D01*
X89010083Y-75742800D01*
X89026513Y-75575977D01*
X89075176Y-75415558D01*
X89154195Y-75267724D01*
X89154196Y-75267722D01*
X89260541Y-75138141D01*
X89390122Y-75031796D01*
X89405294Y-75023686D01*
X89537958Y-74952776D01*
X89698377Y-74904113D01*
X89823396Y-74891800D01*
X89907004Y-74891800D01*
X90032023Y-74904113D01*
X90032023Y-74904113D01*
G37*
G36*
X81248228Y-74081703D02*
G01*
X81403100Y-74145853D01*
X81542481Y-74238985D01*
X81661015Y-74357519D01*
X81754147Y-74496900D01*
X81818297Y-74651772D01*
X81851000Y-74816184D01*
X81851000Y-74983816D01*
X81818297Y-75148228D01*
X81754147Y-75303100D01*
X81661015Y-75442481D01*
X81542481Y-75561015D01*
X81403100Y-75654147D01*
X81248228Y-75718297D01*
X81083816Y-75751000D01*
X80916184Y-75751000D01*
X80751772Y-75718297D01*
X80596900Y-75654147D01*
X80457519Y-75561015D01*
X80338985Y-75442481D01*
X80245853Y-75303100D01*
X80181703Y-75148228D01*
X80149000Y-74983816D01*
X80149000Y-74816184D01*
X80181703Y-74651772D01*
X80245853Y-74496900D01*
X80338985Y-74357519D01*
X80457519Y-74238985D01*
X80596900Y-74145853D01*
X80751772Y-74081703D01*
X80916184Y-74049000D01*
X81083816Y-74049000D01*
X81248228Y-74081703D01*
X81248228Y-74081703D01*
G37*
G36*
X83748228Y-74081703D02*
G01*
X83903100Y-74145853D01*
X84042481Y-74238985D01*
X84161015Y-74357519D01*
X84254147Y-74496900D01*
X84318297Y-74651772D01*
X84351000Y-74816184D01*
X84351000Y-74983816D01*
X84318297Y-75148228D01*
X84254147Y-75303100D01*
X84161015Y-75442481D01*
X84042481Y-75561015D01*
X83903100Y-75654147D01*
X83748228Y-75718297D01*
X83583816Y-75751000D01*
X83416184Y-75751000D01*
X83251772Y-75718297D01*
X83096900Y-75654147D01*
X82957519Y-75561015D01*
X82838985Y-75442481D01*
X82745853Y-75303100D01*
X82681703Y-75148228D01*
X82649000Y-74983816D01*
X82649000Y-74816184D01*
X82681703Y-74651772D01*
X82745853Y-74496900D01*
X82838985Y-74357519D01*
X82957519Y-74238985D01*
X83096900Y-74145853D01*
X83251772Y-74081703D01*
X83416184Y-74049000D01*
X83583816Y-74049000D01*
X83748228Y-74081703D01*
X83748228Y-74081703D01*
G37*
G36*
X122340287Y-72612196D02*
G01*
X122577053Y-72710268D01*
X122577055Y-72710269D01*
X122758317Y-72831384D01*
X122790139Y-72852647D01*
X122971353Y-73033861D01*
X123113732Y-73246947D01*
X123211804Y-73483713D01*
X123261800Y-73735061D01*
X123261800Y-73991339D01*
X123211804Y-74242687D01*
X123164238Y-74357520D01*
X123113731Y-74479455D01*
X122971353Y-74692539D01*
X122790139Y-74873753D01*
X122577055Y-75016131D01*
X122577054Y-75016132D01*
X122577053Y-75016132D01*
X122340287Y-75114204D01*
X122088939Y-75164200D01*
X121832661Y-75164200D01*
X121581313Y-75114204D01*
X121344547Y-75016132D01*
X121344546Y-75016132D01*
X121344545Y-75016131D01*
X121131461Y-74873753D01*
X120950247Y-74692539D01*
X120807869Y-74479455D01*
X120757362Y-74357520D01*
X120709796Y-74242687D01*
X120659800Y-73991339D01*
X120659800Y-73735061D01*
X120709796Y-73483713D01*
X120807868Y-73246947D01*
X120950247Y-73033861D01*
X121131461Y-72852647D01*
X121163283Y-72831384D01*
X121344545Y-72710269D01*
X121344547Y-72710268D01*
X121581313Y-72612196D01*
X121832661Y-72562200D01*
X122088939Y-72562200D01*
X122340287Y-72612196D01*
X122340287Y-72612196D01*
G37*
G36*
X132520287Y-72612196D02*
G01*
X132757053Y-72710268D01*
X132757055Y-72710269D01*
X132938317Y-72831384D01*
X132970139Y-72852647D01*
X133151353Y-73033861D01*
X133293732Y-73246947D01*
X133391804Y-73483713D01*
X133441800Y-73735061D01*
X133441800Y-73991339D01*
X133391804Y-74242687D01*
X133344238Y-74357520D01*
X133293731Y-74479455D01*
X133151353Y-74692539D01*
X132970139Y-74873753D01*
X132757055Y-75016131D01*
X132757054Y-75016132D01*
X132757053Y-75016132D01*
X132520287Y-75114204D01*
X132268939Y-75164200D01*
X132012661Y-75164200D01*
X131761313Y-75114204D01*
X131524547Y-75016132D01*
X131524546Y-75016132D01*
X131524545Y-75016131D01*
X131311461Y-74873753D01*
X131130247Y-74692539D01*
X130987869Y-74479455D01*
X130937362Y-74357520D01*
X130889796Y-74242687D01*
X130839800Y-73991339D01*
X130839800Y-73735061D01*
X130889796Y-73483713D01*
X130987868Y-73246947D01*
X131130247Y-73033861D01*
X131311461Y-72852647D01*
X131343283Y-72831384D01*
X131524545Y-72710269D01*
X131524547Y-72710268D01*
X131761313Y-72612196D01*
X132012661Y-72562200D01*
X132268939Y-72562200D01*
X132520287Y-72612196D01*
X132520287Y-72612196D01*
G37*
G36*
X73801000Y-75026000D02*
G01*
X72099000Y-75026000D01*
X72099000Y-68774000D01*
X73801000Y-68774000D01*
X73801000Y-75026000D01*
X73801000Y-75026000D01*
G37*
G36*
X65301000Y-75026000D02*
G01*
X63599000Y-75026000D01*
X63599000Y-68774000D01*
X65301000Y-68774000D01*
X65301000Y-75026000D01*
X65301000Y-75026000D01*
G37*
G36*
X60028228Y-72731703D02*
G01*
X60183100Y-72795853D01*
X60322481Y-72888985D01*
X60441015Y-73007519D01*
X60534147Y-73146900D01*
X60598297Y-73301772D01*
X60631000Y-73466184D01*
X60631000Y-73633816D01*
X60598297Y-73798228D01*
X60534147Y-73953100D01*
X60441015Y-74092481D01*
X60322481Y-74211015D01*
X60183100Y-74304147D01*
X60028228Y-74368297D01*
X59863816Y-74401000D01*
X59696184Y-74401000D01*
X59531772Y-74368297D01*
X59376900Y-74304147D01*
X59237519Y-74211015D01*
X59118985Y-74092481D01*
X59025853Y-73953100D01*
X58961703Y-73798228D01*
X58929000Y-73633816D01*
X58929000Y-73466184D01*
X58961703Y-73301772D01*
X59025853Y-73146900D01*
X59118985Y-73007519D01*
X59237519Y-72888985D01*
X59376900Y-72795853D01*
X59531772Y-72731703D01*
X59696184Y-72699000D01*
X59863816Y-72699000D01*
X60028228Y-72731703D01*
X60028228Y-72731703D01*
G37*
G36*
X113726823Y-71761313D02*
G01*
X113887242Y-71809976D01*
X113954361Y-71845852D01*
X114035078Y-71888996D01*
X114164659Y-71995341D01*
X114271004Y-72124922D01*
X114271005Y-72124924D01*
X114350024Y-72272758D01*
X114398687Y-72433177D01*
X114415117Y-72600000D01*
X114398687Y-72766823D01*
X114350024Y-72927242D01*
X114309477Y-73003100D01*
X114271004Y-73075078D01*
X114164659Y-73204659D01*
X114035078Y-73311004D01*
X114035076Y-73311005D01*
X113887242Y-73390024D01*
X113726823Y-73438687D01*
X113601804Y-73451000D01*
X113518196Y-73451000D01*
X113393177Y-73438687D01*
X113232758Y-73390024D01*
X113084924Y-73311005D01*
X113084922Y-73311004D01*
X112955341Y-73204659D01*
X112848996Y-73075078D01*
X112810523Y-73003100D01*
X112769976Y-72927242D01*
X112721313Y-72766823D01*
X112704883Y-72600000D01*
X112721313Y-72433177D01*
X112769976Y-72272758D01*
X112848995Y-72124924D01*
X112848996Y-72124922D01*
X112955341Y-71995341D01*
X113084922Y-71888996D01*
X113165639Y-71845852D01*
X113232758Y-71809976D01*
X113393177Y-71761313D01*
X113518196Y-71749000D01*
X113601804Y-71749000D01*
X113726823Y-71761313D01*
X113726823Y-71761313D01*
G37*
G36*
X103648228Y-71781703D02*
G01*
X103803100Y-71845853D01*
X103942481Y-71938985D01*
X104061015Y-72057519D01*
X104154147Y-72196900D01*
X104218297Y-72351772D01*
X104251000Y-72516184D01*
X104251000Y-72683816D01*
X104218297Y-72848228D01*
X104154147Y-73003100D01*
X104061015Y-73142481D01*
X103942481Y-73261015D01*
X103803100Y-73354147D01*
X103648228Y-73418297D01*
X103483816Y-73451000D01*
X103316184Y-73451000D01*
X103151772Y-73418297D01*
X102996900Y-73354147D01*
X102857519Y-73261015D01*
X102738985Y-73142481D01*
X102645853Y-73003100D01*
X102581703Y-72848228D01*
X102549000Y-72683816D01*
X102549000Y-72516184D01*
X102581703Y-72351772D01*
X102645853Y-72196900D01*
X102738985Y-72057519D01*
X102857519Y-71938985D01*
X102996900Y-71845853D01*
X103151772Y-71781703D01*
X103316184Y-71749000D01*
X103483816Y-71749000D01*
X103648228Y-71781703D01*
X103648228Y-71781703D01*
G37*
G36*
X54806564Y-70889389D02*
G01*
X54997833Y-70968615D01*
X54997835Y-70968616D01*
X55083716Y-71026000D01*
X55169973Y-71083635D01*
X55316365Y-71230027D01*
X55431385Y-71402167D01*
X55510611Y-71593436D01*
X55551000Y-71796484D01*
X55551000Y-72003516D01*
X55510611Y-72206564D01*
X55483191Y-72272761D01*
X55431384Y-72397835D01*
X55316365Y-72569973D01*
X55169973Y-72716365D01*
X54997835Y-72831384D01*
X54997834Y-72831385D01*
X54997833Y-72831385D01*
X54806564Y-72910611D01*
X54603516Y-72951000D01*
X54396484Y-72951000D01*
X54193436Y-72910611D01*
X54002167Y-72831385D01*
X54002166Y-72831385D01*
X54002165Y-72831384D01*
X53830027Y-72716365D01*
X53683635Y-72569973D01*
X53568616Y-72397835D01*
X53516809Y-72272761D01*
X53489389Y-72206564D01*
X53449000Y-72003516D01*
X53449000Y-71796484D01*
X53489389Y-71593436D01*
X53568615Y-71402167D01*
X53683635Y-71230027D01*
X53830027Y-71083635D01*
X53916284Y-71026000D01*
X54002165Y-70968616D01*
X54002167Y-70968615D01*
X54193436Y-70889389D01*
X54396484Y-70849000D01*
X54603516Y-70849000D01*
X54806564Y-70889389D01*
X54806564Y-70889389D01*
G37*
G36*
X50306564Y-70889389D02*
G01*
X50497833Y-70968615D01*
X50497835Y-70968616D01*
X50583716Y-71026000D01*
X50669973Y-71083635D01*
X50816365Y-71230027D01*
X50931385Y-71402167D01*
X51010611Y-71593436D01*
X51051000Y-71796484D01*
X51051000Y-72003516D01*
X51010611Y-72206564D01*
X50983191Y-72272761D01*
X50931384Y-72397835D01*
X50816365Y-72569973D01*
X50669973Y-72716365D01*
X50497835Y-72831384D01*
X50497834Y-72831385D01*
X50497833Y-72831385D01*
X50306564Y-72910611D01*
X50103516Y-72951000D01*
X49896484Y-72951000D01*
X49693436Y-72910611D01*
X49502167Y-72831385D01*
X49502166Y-72831385D01*
X49502165Y-72831384D01*
X49330027Y-72716365D01*
X49183635Y-72569973D01*
X49068616Y-72397835D01*
X49016809Y-72272761D01*
X48989389Y-72206564D01*
X48949000Y-72003516D01*
X48949000Y-71796484D01*
X48989389Y-71593436D01*
X49068615Y-71402167D01*
X49183635Y-71230027D01*
X49330027Y-71083635D01*
X49416284Y-71026000D01*
X49502165Y-70968616D01*
X49502167Y-70968615D01*
X49693436Y-70889389D01*
X49896484Y-70849000D01*
X50103516Y-70849000D01*
X50306564Y-70889389D01*
X50306564Y-70889389D01*
G37*
G36*
X60028228Y-70191703D02*
G01*
X60183100Y-70255853D01*
X60322481Y-70348985D01*
X60441015Y-70467519D01*
X60534147Y-70606900D01*
X60598297Y-70761772D01*
X60631000Y-70926184D01*
X60631000Y-71093816D01*
X60598297Y-71258228D01*
X60534147Y-71413100D01*
X60441015Y-71552481D01*
X60322481Y-71671015D01*
X60183100Y-71764147D01*
X60028228Y-71828297D01*
X59863816Y-71861000D01*
X59696184Y-71861000D01*
X59531772Y-71828297D01*
X59376900Y-71764147D01*
X59237519Y-71671015D01*
X59118985Y-71552481D01*
X59025853Y-71413100D01*
X58961703Y-71258228D01*
X58929000Y-71093816D01*
X58929000Y-70926184D01*
X58961703Y-70761772D01*
X59025853Y-70606900D01*
X59118985Y-70467519D01*
X59237519Y-70348985D01*
X59376900Y-70255853D01*
X59531772Y-70191703D01*
X59696184Y-70159000D01*
X59863816Y-70159000D01*
X60028228Y-70191703D01*
X60028228Y-70191703D01*
G37*
G36*
X83748228Y-69581703D02*
G01*
X83903100Y-69645853D01*
X84042481Y-69738985D01*
X84161015Y-69857519D01*
X84254147Y-69996900D01*
X84318297Y-70151772D01*
X84351000Y-70316184D01*
X84351000Y-70483816D01*
X84318297Y-70648228D01*
X84254147Y-70803100D01*
X84161015Y-70942481D01*
X84042481Y-71061015D01*
X83903100Y-71154147D01*
X83748228Y-71218297D01*
X83583816Y-71251000D01*
X83416184Y-71251000D01*
X83251772Y-71218297D01*
X83096900Y-71154147D01*
X82957519Y-71061015D01*
X82838985Y-70942481D01*
X82745853Y-70803100D01*
X82681703Y-70648228D01*
X82649000Y-70483816D01*
X82649000Y-70316184D01*
X82681703Y-70151772D01*
X82745853Y-69996900D01*
X82838985Y-69857519D01*
X82957519Y-69738985D01*
X83096900Y-69645853D01*
X83251772Y-69581703D01*
X83416184Y-69549000D01*
X83583816Y-69549000D01*
X83748228Y-69581703D01*
X83748228Y-69581703D01*
G37*
G36*
X81248228Y-69581703D02*
G01*
X81403100Y-69645853D01*
X81542481Y-69738985D01*
X81661015Y-69857519D01*
X81754147Y-69996900D01*
X81818297Y-70151772D01*
X81851000Y-70316184D01*
X81851000Y-70483816D01*
X81818297Y-70648228D01*
X81754147Y-70803100D01*
X81661015Y-70942481D01*
X81542481Y-71061015D01*
X81403100Y-71154147D01*
X81248228Y-71218297D01*
X81083816Y-71251000D01*
X80916184Y-71251000D01*
X80751772Y-71218297D01*
X80596900Y-71154147D01*
X80457519Y-71061015D01*
X80338985Y-70942481D01*
X80245853Y-70803100D01*
X80181703Y-70648228D01*
X80149000Y-70483816D01*
X80149000Y-70316184D01*
X80181703Y-70151772D01*
X80245853Y-69996900D01*
X80338985Y-69857519D01*
X80457519Y-69738985D01*
X80596900Y-69645853D01*
X80751772Y-69581703D01*
X80916184Y-69549000D01*
X81083816Y-69549000D01*
X81248228Y-69581703D01*
X81248228Y-69581703D01*
G37*
G36*
X87494425Y-69714599D02*
G01*
X87618621Y-69739302D01*
X87755022Y-69795801D01*
X87877779Y-69877825D01*
X87982175Y-69982221D01*
X88064199Y-70104978D01*
X88120698Y-70241379D01*
X88149500Y-70386181D01*
X88149500Y-70533819D01*
X88120698Y-70678621D01*
X88064199Y-70815022D01*
X87982175Y-70937779D01*
X87877779Y-71042175D01*
X87755022Y-71124199D01*
X87618621Y-71180698D01*
X87494425Y-71205401D01*
X87473820Y-71209500D01*
X87326180Y-71209500D01*
X87305575Y-71205401D01*
X87181379Y-71180698D01*
X87044978Y-71124199D01*
X86922221Y-71042175D01*
X86817825Y-70937779D01*
X86735801Y-70815022D01*
X86679302Y-70678621D01*
X86650500Y-70533819D01*
X86650500Y-70386181D01*
X86679302Y-70241379D01*
X86735801Y-70104978D01*
X86817825Y-69982221D01*
X86922221Y-69877825D01*
X87044978Y-69795801D01*
X87181379Y-69739302D01*
X87305575Y-69714599D01*
X87326180Y-69710500D01*
X87473820Y-69710500D01*
X87494425Y-69714599D01*
X87494425Y-69714599D01*
G37*
G36*
X95769500Y-71209500D02*
G01*
X94270500Y-71209500D01*
X94270500Y-69710500D01*
X95769500Y-69710500D01*
X95769500Y-71209500D01*
X95769500Y-71209500D01*
G37*
G36*
X103648228Y-67681703D02*
G01*
X103803100Y-67745853D01*
X103942481Y-67838985D01*
X104061015Y-67957519D01*
X104154147Y-68096900D01*
X104218297Y-68251772D01*
X104251000Y-68416184D01*
X104251000Y-68583816D01*
X104218297Y-68748228D01*
X104154147Y-68903100D01*
X104061015Y-69042481D01*
X103942481Y-69161015D01*
X103803100Y-69254147D01*
X103648228Y-69318297D01*
X103483816Y-69351000D01*
X103316184Y-69351000D01*
X103151772Y-69318297D01*
X102996900Y-69254147D01*
X102857519Y-69161015D01*
X102738985Y-69042481D01*
X102645853Y-68903100D01*
X102581703Y-68748228D01*
X102549000Y-68583816D01*
X102549000Y-68416184D01*
X102581703Y-68251772D01*
X102645853Y-68096900D01*
X102738985Y-67957519D01*
X102857519Y-67838985D01*
X102996900Y-67745853D01*
X103151772Y-67681703D01*
X103316184Y-67649000D01*
X103483816Y-67649000D01*
X103648228Y-67681703D01*
X103648228Y-67681703D01*
G37*
G36*
X113726823Y-67661313D02*
G01*
X113887242Y-67709976D01*
X113954361Y-67745852D01*
X114035078Y-67788996D01*
X114164659Y-67895341D01*
X114271004Y-68024922D01*
X114271005Y-68024924D01*
X114350024Y-68172758D01*
X114398687Y-68333177D01*
X114415117Y-68500000D01*
X114398687Y-68666823D01*
X114350024Y-68827242D01*
X114309477Y-68903100D01*
X114271004Y-68975078D01*
X114164659Y-69104659D01*
X114035078Y-69211004D01*
X114035076Y-69211005D01*
X113887242Y-69290024D01*
X113726823Y-69338687D01*
X113601804Y-69351000D01*
X113518196Y-69351000D01*
X113393177Y-69338687D01*
X113232758Y-69290024D01*
X113084924Y-69211005D01*
X113084922Y-69211004D01*
X112955341Y-69104659D01*
X112848996Y-68975078D01*
X112810523Y-68903100D01*
X112769976Y-68827242D01*
X112721313Y-68666823D01*
X112704883Y-68500000D01*
X112721313Y-68333177D01*
X112769976Y-68172758D01*
X112848995Y-68024924D01*
X112848996Y-68024922D01*
X112955341Y-67895341D01*
X113084922Y-67788996D01*
X113165639Y-67745852D01*
X113232758Y-67709976D01*
X113393177Y-67661313D01*
X113518196Y-67649000D01*
X113601804Y-67649000D01*
X113726823Y-67661313D01*
X113726823Y-67661313D01*
G37*
G36*
X95114425Y-67174599D02*
G01*
X95238621Y-67199302D01*
X95375022Y-67255801D01*
X95497779Y-67337825D01*
X95602175Y-67442221D01*
X95684199Y-67564978D01*
X95740698Y-67701379D01*
X95769500Y-67846181D01*
X95769500Y-67993819D01*
X95740698Y-68138621D01*
X95684199Y-68275022D01*
X95602175Y-68397779D01*
X95497779Y-68502175D01*
X95375022Y-68584199D01*
X95238621Y-68640698D01*
X95114425Y-68665401D01*
X95093820Y-68669500D01*
X94946180Y-68669500D01*
X94925575Y-68665401D01*
X94801379Y-68640698D01*
X94664978Y-68584199D01*
X94542221Y-68502175D01*
X94437825Y-68397779D01*
X94355801Y-68275022D01*
X94299302Y-68138621D01*
X94270500Y-67993819D01*
X94270500Y-67846181D01*
X94299302Y-67701379D01*
X94355801Y-67564978D01*
X94437825Y-67442221D01*
X94542221Y-67337825D01*
X94664978Y-67255801D01*
X94801379Y-67199302D01*
X94925575Y-67174599D01*
X94946180Y-67170500D01*
X95093820Y-67170500D01*
X95114425Y-67174599D01*
X95114425Y-67174599D01*
G37*
G36*
X87494425Y-67174599D02*
G01*
X87618621Y-67199302D01*
X87755022Y-67255801D01*
X87877779Y-67337825D01*
X87982175Y-67442221D01*
X88064199Y-67564978D01*
X88120698Y-67701379D01*
X88149500Y-67846181D01*
X88149500Y-67993819D01*
X88120698Y-68138621D01*
X88064199Y-68275022D01*
X87982175Y-68397779D01*
X87877779Y-68502175D01*
X87755022Y-68584199D01*
X87618621Y-68640698D01*
X87494425Y-68665401D01*
X87473820Y-68669500D01*
X87326180Y-68669500D01*
X87305575Y-68665401D01*
X87181379Y-68640698D01*
X87044978Y-68584199D01*
X86922221Y-68502175D01*
X86817825Y-68397779D01*
X86735801Y-68275022D01*
X86679302Y-68138621D01*
X86650500Y-67993819D01*
X86650500Y-67846181D01*
X86679302Y-67701379D01*
X86735801Y-67564978D01*
X86817825Y-67442221D01*
X86922221Y-67337825D01*
X87044978Y-67255801D01*
X87181379Y-67199302D01*
X87305575Y-67174599D01*
X87326180Y-67170500D01*
X87473820Y-67170500D01*
X87494425Y-67174599D01*
X87494425Y-67174599D01*
G37*
G36*
X99164903Y-66097075D02*
G01*
X99324901Y-66163348D01*
X99392571Y-66191378D01*
X99597466Y-66328285D01*
X99771715Y-66502534D01*
X99895506Y-66687800D01*
X99908623Y-66707431D01*
X100002925Y-66935097D01*
X100051000Y-67176786D01*
X100051000Y-67423214D01*
X100002925Y-67664903D01*
X99969395Y-67745853D01*
X99908622Y-67892571D01*
X99771715Y-68097466D01*
X99597466Y-68271715D01*
X99392571Y-68408622D01*
X99392570Y-68408623D01*
X99392569Y-68408623D01*
X99164903Y-68502925D01*
X98923214Y-68551000D01*
X98676786Y-68551000D01*
X98435097Y-68502925D01*
X98207431Y-68408623D01*
X98207430Y-68408623D01*
X98207429Y-68408622D01*
X98002534Y-68271715D01*
X97828285Y-68097466D01*
X97691378Y-67892571D01*
X97630606Y-67745853D01*
X97597075Y-67664903D01*
X97549000Y-67423214D01*
X97549000Y-67176786D01*
X97597075Y-66935097D01*
X97691377Y-66707431D01*
X97704494Y-66687800D01*
X97828285Y-66502534D01*
X98002534Y-66328285D01*
X98207429Y-66191378D01*
X98275100Y-66163348D01*
X98435097Y-66097075D01*
X98676786Y-66049000D01*
X98923214Y-66049000D01*
X99164903Y-66097075D01*
X99164903Y-66097075D01*
G37*
G36*
X60924903Y-66097075D02*
G01*
X61084901Y-66163348D01*
X61152571Y-66191378D01*
X61357466Y-66328285D01*
X61531715Y-66502534D01*
X61655506Y-66687800D01*
X61668623Y-66707431D01*
X61762925Y-66935097D01*
X61811000Y-67176786D01*
X61811000Y-67423214D01*
X61762925Y-67664903D01*
X61729395Y-67745853D01*
X61668622Y-67892571D01*
X61531715Y-68097466D01*
X61357466Y-68271715D01*
X61152571Y-68408622D01*
X61152570Y-68408623D01*
X61152569Y-68408623D01*
X60924903Y-68502925D01*
X60683214Y-68551000D01*
X60436786Y-68551000D01*
X60195097Y-68502925D01*
X59967431Y-68408623D01*
X59967430Y-68408623D01*
X59967429Y-68408622D01*
X59762534Y-68271715D01*
X59588285Y-68097466D01*
X59451378Y-67892571D01*
X59390606Y-67745853D01*
X59357075Y-67664903D01*
X59309000Y-67423214D01*
X59309000Y-67176786D01*
X59357075Y-66935097D01*
X59451377Y-66707431D01*
X59464494Y-66687800D01*
X59588285Y-66502534D01*
X59762534Y-66328285D01*
X59967429Y-66191378D01*
X60035100Y-66163348D01*
X60195097Y-66097075D01*
X60436786Y-66049000D01*
X60683214Y-66049000D01*
X60924903Y-66097075D01*
X60924903Y-66097075D01*
G37*
G36*
X71826000Y-68501000D02*
G01*
X65574000Y-68501000D01*
X65574000Y-66799000D01*
X71826000Y-66799000D01*
X71826000Y-68501000D01*
X71826000Y-68501000D01*
G37*
G36*
X129664312Y-65967127D02*
G01*
X129813612Y-65996824D01*
X129977584Y-66064744D01*
X130125154Y-66163347D01*
X130250653Y-66288846D01*
X130349256Y-66436416D01*
X130417176Y-66600388D01*
X130451800Y-66774459D01*
X130451800Y-66951941D01*
X130417176Y-67126012D01*
X130349256Y-67289984D01*
X130250653Y-67437554D01*
X130125154Y-67563053D01*
X129977584Y-67661656D01*
X129813612Y-67729576D01*
X129664312Y-67759273D01*
X129639542Y-67764200D01*
X129462058Y-67764200D01*
X129437288Y-67759273D01*
X129287988Y-67729576D01*
X129124016Y-67661656D01*
X128976446Y-67563053D01*
X128850947Y-67437554D01*
X128752344Y-67289984D01*
X128684424Y-67126012D01*
X128649800Y-66951941D01*
X128649800Y-66774459D01*
X128684424Y-66600388D01*
X128752344Y-66436416D01*
X128850947Y-66288846D01*
X128976446Y-66163347D01*
X129124016Y-66064744D01*
X129287988Y-65996824D01*
X129437288Y-65967127D01*
X129462058Y-65962200D01*
X129639542Y-65962200D01*
X129664312Y-65967127D01*
X129664312Y-65967127D01*
G37*
G36*
X124664312Y-65967127D02*
G01*
X124813612Y-65996824D01*
X124977584Y-66064744D01*
X125125154Y-66163347D01*
X125250653Y-66288846D01*
X125349256Y-66436416D01*
X125417176Y-66600388D01*
X125451800Y-66774459D01*
X125451800Y-66951941D01*
X125417176Y-67126012D01*
X125349256Y-67289984D01*
X125250653Y-67437554D01*
X125125154Y-67563053D01*
X124977584Y-67661656D01*
X124813612Y-67729576D01*
X124664312Y-67759273D01*
X124639542Y-67764200D01*
X124462058Y-67764200D01*
X124437288Y-67759273D01*
X124287988Y-67729576D01*
X124124016Y-67661656D01*
X123976446Y-67563053D01*
X123850947Y-67437554D01*
X123752344Y-67289984D01*
X123684424Y-67126012D01*
X123649800Y-66951941D01*
X123649800Y-66774459D01*
X123684424Y-66600388D01*
X123752344Y-66436416D01*
X123850947Y-66288846D01*
X123976446Y-66163347D01*
X124124016Y-66064744D01*
X124287988Y-65996824D01*
X124437288Y-65967127D01*
X124462058Y-65962200D01*
X124639542Y-65962200D01*
X124664312Y-65967127D01*
X124664312Y-65967127D01*
G37*
G36*
X127164312Y-65967127D02*
G01*
X127313612Y-65996824D01*
X127477584Y-66064744D01*
X127625154Y-66163347D01*
X127750653Y-66288846D01*
X127849256Y-66436416D01*
X127917176Y-66600388D01*
X127951800Y-66774459D01*
X127951800Y-66951941D01*
X127917176Y-67126012D01*
X127849256Y-67289984D01*
X127750653Y-67437554D01*
X127625154Y-67563053D01*
X127477584Y-67661656D01*
X127313612Y-67729576D01*
X127164312Y-67759273D01*
X127139542Y-67764200D01*
X126962058Y-67764200D01*
X126937288Y-67759273D01*
X126787988Y-67729576D01*
X126624016Y-67661656D01*
X126476446Y-67563053D01*
X126350947Y-67437554D01*
X126252344Y-67289984D01*
X126184424Y-67126012D01*
X126149800Y-66951941D01*
X126149800Y-66774459D01*
X126184424Y-66600388D01*
X126252344Y-66436416D01*
X126350947Y-66288846D01*
X126476446Y-66163347D01*
X126624016Y-66064744D01*
X126787988Y-65996824D01*
X126937288Y-65967127D01*
X126962058Y-65962200D01*
X127139542Y-65962200D01*
X127164312Y-65967127D01*
X127164312Y-65967127D01*
G37*
G36*
X81263428Y-65018503D02*
G01*
X81418300Y-65082653D01*
X81557681Y-65175785D01*
X81676215Y-65294319D01*
X81769347Y-65433700D01*
X81833497Y-65588572D01*
X81866200Y-65752984D01*
X81866200Y-65920616D01*
X81833497Y-66085028D01*
X81769347Y-66239900D01*
X81676215Y-66379281D01*
X81557681Y-66497815D01*
X81418300Y-66590947D01*
X81263428Y-66655097D01*
X81099016Y-66687800D01*
X80931384Y-66687800D01*
X80766972Y-66655097D01*
X80612100Y-66590947D01*
X80472719Y-66497815D01*
X80354185Y-66379281D01*
X80261053Y-66239900D01*
X80196903Y-66085028D01*
X80164200Y-65920616D01*
X80164200Y-65752984D01*
X80196903Y-65588572D01*
X80261053Y-65433700D01*
X80354185Y-65294319D01*
X80472719Y-65175785D01*
X80612100Y-65082653D01*
X80766972Y-65018503D01*
X80931384Y-64985800D01*
X81099016Y-64985800D01*
X81263428Y-65018503D01*
X81263428Y-65018503D01*
G37*
G36*
X83763428Y-65018503D02*
G01*
X83918300Y-65082653D01*
X84057681Y-65175785D01*
X84176215Y-65294319D01*
X84269347Y-65433700D01*
X84333497Y-65588572D01*
X84366200Y-65752984D01*
X84366200Y-65920616D01*
X84333497Y-66085028D01*
X84269347Y-66239900D01*
X84176215Y-66379281D01*
X84057681Y-66497815D01*
X83918300Y-66590947D01*
X83763428Y-66655097D01*
X83599016Y-66687800D01*
X83431384Y-66687800D01*
X83266972Y-66655097D01*
X83112100Y-66590947D01*
X82972719Y-66497815D01*
X82854185Y-66379281D01*
X82761053Y-66239900D01*
X82696903Y-66085028D01*
X82664200Y-65920616D01*
X82664200Y-65752984D01*
X82696903Y-65588572D01*
X82761053Y-65433700D01*
X82854185Y-65294319D01*
X82972719Y-65175785D01*
X83112100Y-65082653D01*
X83266972Y-65018503D01*
X83431384Y-64985800D01*
X83599016Y-64985800D01*
X83763428Y-65018503D01*
X83763428Y-65018503D01*
G37*
G36*
X50306564Y-64389389D02*
G01*
X50468191Y-64456337D01*
X50497835Y-64468616D01*
X50634158Y-64559704D01*
X50669973Y-64583635D01*
X50816365Y-64730027D01*
X50931385Y-64902167D01*
X51010611Y-65093436D01*
X51051000Y-65296484D01*
X51051000Y-65503516D01*
X51010611Y-65706564D01*
X50947977Y-65857776D01*
X50931384Y-65897835D01*
X50816365Y-66069973D01*
X50669973Y-66216365D01*
X50497835Y-66331384D01*
X50497834Y-66331385D01*
X50497833Y-66331385D01*
X50306564Y-66410611D01*
X50103516Y-66451000D01*
X49896484Y-66451000D01*
X49693436Y-66410611D01*
X49502167Y-66331385D01*
X49502166Y-66331385D01*
X49502165Y-66331384D01*
X49330027Y-66216365D01*
X49183635Y-66069973D01*
X49068616Y-65897835D01*
X49052023Y-65857776D01*
X48989389Y-65706564D01*
X48949000Y-65503516D01*
X48949000Y-65296484D01*
X48989389Y-65093436D01*
X49068615Y-64902167D01*
X49183635Y-64730027D01*
X49330027Y-64583635D01*
X49365842Y-64559704D01*
X49502165Y-64468616D01*
X49531809Y-64456337D01*
X49693436Y-64389389D01*
X49896484Y-64349000D01*
X50103516Y-64349000D01*
X50306564Y-64389389D01*
X50306564Y-64389389D01*
G37*
G36*
X54806564Y-64389389D02*
G01*
X54968191Y-64456337D01*
X54997835Y-64468616D01*
X55134158Y-64559704D01*
X55169973Y-64583635D01*
X55316365Y-64730027D01*
X55431385Y-64902167D01*
X55510611Y-65093436D01*
X55551000Y-65296484D01*
X55551000Y-65503516D01*
X55510611Y-65706564D01*
X55447977Y-65857776D01*
X55431384Y-65897835D01*
X55316365Y-66069973D01*
X55169973Y-66216365D01*
X54997835Y-66331384D01*
X54997834Y-66331385D01*
X54997833Y-66331385D01*
X54806564Y-66410611D01*
X54603516Y-66451000D01*
X54396484Y-66451000D01*
X54193436Y-66410611D01*
X54002167Y-66331385D01*
X54002166Y-66331385D01*
X54002165Y-66331384D01*
X53830027Y-66216365D01*
X53683635Y-66069973D01*
X53568616Y-65897835D01*
X53552023Y-65857776D01*
X53489389Y-65706564D01*
X53449000Y-65503516D01*
X53449000Y-65296484D01*
X53489389Y-65093436D01*
X53568615Y-64902167D01*
X53683635Y-64730027D01*
X53830027Y-64583635D01*
X53865842Y-64559704D01*
X54002165Y-64468616D01*
X54031809Y-64456337D01*
X54193436Y-64389389D01*
X54396484Y-64349000D01*
X54603516Y-64349000D01*
X54806564Y-64389389D01*
X54806564Y-64389389D01*
G37*
G36*
X95114425Y-64634599D02*
G01*
X95238621Y-64659302D01*
X95375022Y-64715801D01*
X95497779Y-64797825D01*
X95602175Y-64902221D01*
X95684199Y-65024978D01*
X95740698Y-65161379D01*
X95769500Y-65306181D01*
X95769500Y-65453819D01*
X95740698Y-65598621D01*
X95684199Y-65735022D01*
X95602175Y-65857779D01*
X95497779Y-65962175D01*
X95375022Y-66044199D01*
X95238621Y-66100698D01*
X95114425Y-66125401D01*
X95093820Y-66129500D01*
X94946180Y-66129500D01*
X94925575Y-66125401D01*
X94801379Y-66100698D01*
X94664978Y-66044199D01*
X94542221Y-65962175D01*
X94437825Y-65857779D01*
X94355801Y-65735022D01*
X94299302Y-65598621D01*
X94270500Y-65453819D01*
X94270500Y-65306181D01*
X94299302Y-65161379D01*
X94355801Y-65024978D01*
X94437825Y-64902221D01*
X94542221Y-64797825D01*
X94664978Y-64715801D01*
X94801379Y-64659302D01*
X94925575Y-64634599D01*
X94946180Y-64630500D01*
X95093820Y-64630500D01*
X95114425Y-64634599D01*
X95114425Y-64634599D01*
G37*
G36*
X87494425Y-64634599D02*
G01*
X87618621Y-64659302D01*
X87755022Y-64715801D01*
X87877779Y-64797825D01*
X87982175Y-64902221D01*
X88064199Y-65024978D01*
X88120698Y-65161379D01*
X88149500Y-65306181D01*
X88149500Y-65453819D01*
X88120698Y-65598621D01*
X88064199Y-65735022D01*
X87982175Y-65857779D01*
X87877779Y-65962175D01*
X87755022Y-66044199D01*
X87618621Y-66100698D01*
X87494425Y-66125401D01*
X87473820Y-66129500D01*
X87326180Y-66129500D01*
X87305575Y-66125401D01*
X87181379Y-66100698D01*
X87044978Y-66044199D01*
X86922221Y-65962175D01*
X86817825Y-65857779D01*
X86735801Y-65735022D01*
X86679302Y-65598621D01*
X86650500Y-65453819D01*
X86650500Y-65306181D01*
X86679302Y-65161379D01*
X86735801Y-65024978D01*
X86817825Y-64902221D01*
X86922221Y-64797825D01*
X87044978Y-64715801D01*
X87181379Y-64659302D01*
X87305575Y-64634599D01*
X87326180Y-64630500D01*
X87473820Y-64630500D01*
X87494425Y-64634599D01*
X87494425Y-64634599D01*
G37*
G36*
X113848228Y-63545303D02*
G01*
X114003100Y-63609453D01*
X114142481Y-63702585D01*
X114261015Y-63821119D01*
X114354147Y-63960500D01*
X114418297Y-64115372D01*
X114451000Y-64279784D01*
X114451000Y-64447416D01*
X114418297Y-64611828D01*
X114354147Y-64766700D01*
X114261015Y-64906081D01*
X114142481Y-65024615D01*
X114003100Y-65117747D01*
X113848228Y-65181897D01*
X113683816Y-65214600D01*
X113516184Y-65214600D01*
X113351772Y-65181897D01*
X113196900Y-65117747D01*
X113057519Y-65024615D01*
X112938985Y-64906081D01*
X112845853Y-64766700D01*
X112781703Y-64611828D01*
X112749000Y-64447416D01*
X112749000Y-64279784D01*
X112781703Y-64115372D01*
X112845853Y-63960500D01*
X112938985Y-63821119D01*
X113057519Y-63702585D01*
X113196900Y-63609453D01*
X113351772Y-63545303D01*
X113516184Y-63512600D01*
X113683816Y-63512600D01*
X113848228Y-63545303D01*
X113848228Y-63545303D01*
G37*
G36*
X103606823Y-63524913D02*
G01*
X103767242Y-63573576D01*
X103866933Y-63626862D01*
X103915078Y-63652596D01*
X104044659Y-63758941D01*
X104151004Y-63888522D01*
X104151005Y-63888524D01*
X104230024Y-64036358D01*
X104278687Y-64196777D01*
X104295117Y-64363600D01*
X104278687Y-64530423D01*
X104230024Y-64690842D01*
X104189477Y-64766700D01*
X104151004Y-64838678D01*
X104044659Y-64968259D01*
X103915078Y-65074604D01*
X103915076Y-65074605D01*
X103767242Y-65153624D01*
X103606823Y-65202287D01*
X103481804Y-65214600D01*
X103398196Y-65214600D01*
X103273177Y-65202287D01*
X103112758Y-65153624D01*
X102964924Y-65074605D01*
X102964922Y-65074604D01*
X102835341Y-64968259D01*
X102728996Y-64838678D01*
X102690523Y-64766700D01*
X102649976Y-64690842D01*
X102601313Y-64530423D01*
X102584883Y-64363600D01*
X102601313Y-64196777D01*
X102649976Y-64036358D01*
X102728995Y-63888524D01*
X102728996Y-63888522D01*
X102835341Y-63758941D01*
X102964922Y-63652596D01*
X103013067Y-63626862D01*
X103112758Y-63573576D01*
X103273177Y-63524913D01*
X103398196Y-63512600D01*
X103481804Y-63512600D01*
X103606823Y-63524913D01*
X103606823Y-63524913D01*
G37*
G36*
X68884468Y-63503565D02*
G01*
X68923138Y-63515296D01*
X68958777Y-63534346D01*
X68990017Y-63559983D01*
X69015654Y-63591223D01*
X69034704Y-63626862D01*
X69046435Y-63665532D01*
X69051000Y-63711888D01*
X69051000Y-64363112D01*
X69046435Y-64409468D01*
X69034704Y-64448138D01*
X69015654Y-64483777D01*
X68990017Y-64515017D01*
X68958777Y-64540654D01*
X68923138Y-64559704D01*
X68884468Y-64571435D01*
X68838112Y-64576000D01*
X67761888Y-64576000D01*
X67715532Y-64571435D01*
X67676862Y-64559704D01*
X67641223Y-64540654D01*
X67609983Y-64515017D01*
X67584346Y-64483777D01*
X67565296Y-64448138D01*
X67553565Y-64409468D01*
X67549000Y-64363112D01*
X67549000Y-63711888D01*
X67553565Y-63665532D01*
X67565296Y-63626862D01*
X67584346Y-63591223D01*
X67609983Y-63559983D01*
X67641223Y-63534346D01*
X67676862Y-63515296D01*
X67715532Y-63503565D01*
X67761888Y-63499000D01*
X68838112Y-63499000D01*
X68884468Y-63503565D01*
X68884468Y-63503565D01*
G37*
G36*
X71284468Y-63503565D02*
G01*
X71323138Y-63515296D01*
X71358777Y-63534346D01*
X71390017Y-63559983D01*
X71415654Y-63591223D01*
X71434704Y-63626862D01*
X71446435Y-63665532D01*
X71451000Y-63711888D01*
X71451000Y-64363112D01*
X71446435Y-64409468D01*
X71434704Y-64448138D01*
X71415654Y-64483777D01*
X71390017Y-64515017D01*
X71358777Y-64540654D01*
X71323138Y-64559704D01*
X71284468Y-64571435D01*
X71238112Y-64576000D01*
X70161888Y-64576000D01*
X70115532Y-64571435D01*
X70076862Y-64559704D01*
X70041223Y-64540654D01*
X70009983Y-64515017D01*
X69984346Y-64483777D01*
X69965296Y-64448138D01*
X69953565Y-64409468D01*
X69949000Y-64363112D01*
X69949000Y-63711888D01*
X69953565Y-63665532D01*
X69965296Y-63626862D01*
X69984346Y-63591223D01*
X70009983Y-63559983D01*
X70041223Y-63534346D01*
X70076862Y-63515296D01*
X70115532Y-63503565D01*
X70161888Y-63499000D01*
X71238112Y-63499000D01*
X71284468Y-63503565D01*
X71284468Y-63503565D01*
G37*
G36*
X63378600Y-63886600D02*
G01*
X60776600Y-63886600D01*
X60776600Y-61284600D01*
X63378600Y-61284600D01*
X63378600Y-63886600D01*
X63378600Y-63886600D01*
G37*
G36*
X95114425Y-62094599D02*
G01*
X95238621Y-62119302D01*
X95375022Y-62175801D01*
X95497779Y-62257825D01*
X95602175Y-62362221D01*
X95684199Y-62484978D01*
X95740698Y-62621379D01*
X95769500Y-62766181D01*
X95769500Y-62913819D01*
X95740698Y-63058621D01*
X95684199Y-63195022D01*
X95602175Y-63317779D01*
X95497779Y-63422175D01*
X95375022Y-63504199D01*
X95238621Y-63560698D01*
X95114425Y-63585401D01*
X95093820Y-63589500D01*
X94946180Y-63589500D01*
X94925575Y-63585401D01*
X94801379Y-63560698D01*
X94664978Y-63504199D01*
X94542221Y-63422175D01*
X94437825Y-63317779D01*
X94355801Y-63195022D01*
X94299302Y-63058621D01*
X94270500Y-62913819D01*
X94270500Y-62766181D01*
X94299302Y-62621379D01*
X94355801Y-62484978D01*
X94437825Y-62362221D01*
X94542221Y-62257825D01*
X94664978Y-62175801D01*
X94801379Y-62119302D01*
X94925575Y-62094599D01*
X94946180Y-62090500D01*
X95093820Y-62090500D01*
X95114425Y-62094599D01*
X95114425Y-62094599D01*
G37*
G36*
X87494425Y-62094599D02*
G01*
X87618621Y-62119302D01*
X87755022Y-62175801D01*
X87877779Y-62257825D01*
X87982175Y-62362221D01*
X88064199Y-62484978D01*
X88120698Y-62621379D01*
X88149500Y-62766181D01*
X88149500Y-62913819D01*
X88120698Y-63058621D01*
X88064199Y-63195022D01*
X87982175Y-63317779D01*
X87877779Y-63422175D01*
X87755022Y-63504199D01*
X87618621Y-63560698D01*
X87494425Y-63585401D01*
X87473820Y-63589500D01*
X87326180Y-63589500D01*
X87305575Y-63585401D01*
X87181379Y-63560698D01*
X87044978Y-63504199D01*
X86922221Y-63422175D01*
X86817825Y-63317779D01*
X86735801Y-63195022D01*
X86679302Y-63058621D01*
X86650500Y-62913819D01*
X86650500Y-62766181D01*
X86679302Y-62621379D01*
X86735801Y-62484978D01*
X86817825Y-62362221D01*
X86922221Y-62257825D01*
X87044978Y-62175801D01*
X87181379Y-62119302D01*
X87305575Y-62094599D01*
X87326180Y-62090500D01*
X87473820Y-62090500D01*
X87494425Y-62094599D01*
X87494425Y-62094599D01*
G37*
G36*
X78801000Y-63301000D02*
G01*
X76199000Y-63301000D01*
X76199000Y-60699000D01*
X78801000Y-60699000D01*
X78801000Y-63301000D01*
X78801000Y-63301000D01*
G37*
G36*
X100848228Y-61462503D02*
G01*
X101003100Y-61526653D01*
X101142481Y-61619785D01*
X101261015Y-61738319D01*
X101354147Y-61877700D01*
X101418297Y-62032572D01*
X101451000Y-62196984D01*
X101451000Y-62364616D01*
X101418297Y-62529028D01*
X101354147Y-62683900D01*
X101261015Y-62823281D01*
X101142481Y-62941815D01*
X101003100Y-63034947D01*
X100848228Y-63099097D01*
X100683816Y-63131800D01*
X100516184Y-63131800D01*
X100351772Y-63099097D01*
X100196900Y-63034947D01*
X100057519Y-62941815D01*
X99938985Y-62823281D01*
X99845853Y-62683900D01*
X99781703Y-62529028D01*
X99749000Y-62364616D01*
X99749000Y-62196984D01*
X99781703Y-62032572D01*
X99845853Y-61877700D01*
X99938985Y-61738319D01*
X100057519Y-61619785D01*
X100196900Y-61526653D01*
X100351772Y-61462503D01*
X100516184Y-61429800D01*
X100683816Y-61429800D01*
X100848228Y-61462503D01*
X100848228Y-61462503D01*
G37*
G36*
X98348228Y-61462503D02*
G01*
X98503100Y-61526653D01*
X98642481Y-61619785D01*
X98761015Y-61738319D01*
X98854147Y-61877700D01*
X98918297Y-62032572D01*
X98951000Y-62196984D01*
X98951000Y-62364616D01*
X98918297Y-62529028D01*
X98854147Y-62683900D01*
X98761015Y-62823281D01*
X98642481Y-62941815D01*
X98503100Y-63034947D01*
X98348228Y-63099097D01*
X98183816Y-63131800D01*
X98016184Y-63131800D01*
X97851772Y-63099097D01*
X97696900Y-63034947D01*
X97557519Y-62941815D01*
X97438985Y-62823281D01*
X97345853Y-62683900D01*
X97281703Y-62529028D01*
X97249000Y-62364616D01*
X97249000Y-62196984D01*
X97281703Y-62032572D01*
X97345853Y-61877700D01*
X97438985Y-61738319D01*
X97557519Y-61619785D01*
X97696900Y-61526653D01*
X97851772Y-61462503D01*
X98016184Y-61429800D01*
X98183816Y-61429800D01*
X98348228Y-61462503D01*
X98348228Y-61462503D01*
G37*
G36*
X68884468Y-61628565D02*
G01*
X68923138Y-61640296D01*
X68958777Y-61659346D01*
X68990017Y-61684983D01*
X69015654Y-61716223D01*
X69034704Y-61751862D01*
X69046435Y-61790532D01*
X69051000Y-61836888D01*
X69051000Y-62488112D01*
X69046435Y-62534468D01*
X69034704Y-62573138D01*
X69015654Y-62608777D01*
X68990017Y-62640017D01*
X68958777Y-62665654D01*
X68923138Y-62684704D01*
X68884468Y-62696435D01*
X68838112Y-62701000D01*
X67761888Y-62701000D01*
X67715532Y-62696435D01*
X67676862Y-62684704D01*
X67641223Y-62665654D01*
X67609983Y-62640017D01*
X67584346Y-62608777D01*
X67565296Y-62573138D01*
X67553565Y-62534468D01*
X67549000Y-62488112D01*
X67549000Y-61836888D01*
X67553565Y-61790532D01*
X67565296Y-61751862D01*
X67584346Y-61716223D01*
X67609983Y-61684983D01*
X67641223Y-61659346D01*
X67676862Y-61640296D01*
X67715532Y-61628565D01*
X67761888Y-61624000D01*
X68838112Y-61624000D01*
X68884468Y-61628565D01*
X68884468Y-61628565D01*
G37*
G36*
X71284468Y-61628565D02*
G01*
X71323138Y-61640296D01*
X71358777Y-61659346D01*
X71390017Y-61684983D01*
X71415654Y-61716223D01*
X71434704Y-61751862D01*
X71446435Y-61790532D01*
X71451000Y-61836888D01*
X71451000Y-62488112D01*
X71446435Y-62534468D01*
X71434704Y-62573138D01*
X71415654Y-62608777D01*
X71390017Y-62640017D01*
X71358777Y-62665654D01*
X71323138Y-62684704D01*
X71284468Y-62696435D01*
X71238112Y-62701000D01*
X70161888Y-62701000D01*
X70115532Y-62696435D01*
X70076862Y-62684704D01*
X70041223Y-62665654D01*
X70009983Y-62640017D01*
X69984346Y-62608777D01*
X69965296Y-62573138D01*
X69953565Y-62534468D01*
X69949000Y-62488112D01*
X69949000Y-61836888D01*
X69953565Y-61790532D01*
X69965296Y-61751862D01*
X69984346Y-61716223D01*
X70009983Y-61684983D01*
X70041223Y-61659346D01*
X70076862Y-61640296D01*
X70115532Y-61628565D01*
X70161888Y-61624000D01*
X71238112Y-61624000D01*
X71284468Y-61628565D01*
X71284468Y-61628565D01*
G37*
G36*
X81172628Y-60344903D02*
G01*
X81327500Y-60409053D01*
X81466881Y-60502185D01*
X81585415Y-60620719D01*
X81678547Y-60760100D01*
X81742697Y-60914972D01*
X81775400Y-61079384D01*
X81775400Y-61247016D01*
X81742697Y-61411428D01*
X81678547Y-61566300D01*
X81585415Y-61705681D01*
X81466881Y-61824215D01*
X81327500Y-61917347D01*
X81172628Y-61981497D01*
X81008216Y-62014200D01*
X80840584Y-62014200D01*
X80676172Y-61981497D01*
X80521300Y-61917347D01*
X80381919Y-61824215D01*
X80263385Y-61705681D01*
X80170253Y-61566300D01*
X80106103Y-61411428D01*
X80073400Y-61247016D01*
X80073400Y-61079384D01*
X80106103Y-60914972D01*
X80170253Y-60760100D01*
X80263385Y-60620719D01*
X80381919Y-60502185D01*
X80521300Y-60409053D01*
X80676172Y-60344903D01*
X80840584Y-60312200D01*
X81008216Y-60312200D01*
X81172628Y-60344903D01*
X81172628Y-60344903D01*
G37*
G36*
X83672628Y-60344903D02*
G01*
X83827500Y-60409053D01*
X83966881Y-60502185D01*
X84085415Y-60620719D01*
X84178547Y-60760100D01*
X84242697Y-60914972D01*
X84275400Y-61079384D01*
X84275400Y-61247016D01*
X84242697Y-61411428D01*
X84178547Y-61566300D01*
X84085415Y-61705681D01*
X83966881Y-61824215D01*
X83827500Y-61917347D01*
X83672628Y-61981497D01*
X83508216Y-62014200D01*
X83340584Y-62014200D01*
X83176172Y-61981497D01*
X83021300Y-61917347D01*
X82881919Y-61824215D01*
X82763385Y-61705681D01*
X82670253Y-61566300D01*
X82606103Y-61411428D01*
X82573400Y-61247016D01*
X82573400Y-61079384D01*
X82606103Y-60914972D01*
X82670253Y-60760100D01*
X82763385Y-60620719D01*
X82881919Y-60502185D01*
X83021300Y-60409053D01*
X83176172Y-60344903D01*
X83340584Y-60312200D01*
X83508216Y-60312200D01*
X83672628Y-60344903D01*
X83672628Y-60344903D01*
G37*
G36*
X105684644Y-59572139D02*
G01*
X105811981Y-59597468D01*
X105994151Y-59672926D01*
X106158100Y-59782473D01*
X106297527Y-59921900D01*
X106407074Y-60085849D01*
X106476012Y-60252278D01*
X106482532Y-60268020D01*
X106521000Y-60461409D01*
X106521000Y-60658591D01*
X106482532Y-60851980D01*
X106412647Y-61020698D01*
X106407074Y-61034151D01*
X106297527Y-61198100D01*
X106158100Y-61337527D01*
X105994151Y-61447074D01*
X105994150Y-61447075D01*
X105994149Y-61447075D01*
X105956898Y-61462505D01*
X105811981Y-61522532D01*
X105791268Y-61526652D01*
X105618591Y-61561000D01*
X105421409Y-61561000D01*
X105248732Y-61526652D01*
X105228019Y-61522532D01*
X105083102Y-61462505D01*
X105045851Y-61447075D01*
X105045850Y-61447075D01*
X105045849Y-61447074D01*
X104881900Y-61337527D01*
X104742473Y-61198100D01*
X104632926Y-61034151D01*
X104627354Y-61020698D01*
X104557468Y-60851980D01*
X104519000Y-60658591D01*
X104519000Y-60461409D01*
X104557468Y-60268020D01*
X104563989Y-60252278D01*
X104632926Y-60085849D01*
X104742473Y-59921900D01*
X104881900Y-59782473D01*
X105045849Y-59672926D01*
X105228019Y-59597468D01*
X105355356Y-59572139D01*
X105421409Y-59559000D01*
X105618591Y-59559000D01*
X105684644Y-59572139D01*
X105684644Y-59572139D01*
G37*
G36*
X95114425Y-59554599D02*
G01*
X95238621Y-59579302D01*
X95375022Y-59635801D01*
X95497779Y-59717825D01*
X95602175Y-59822221D01*
X95684199Y-59944978D01*
X95740698Y-60081379D01*
X95769500Y-60226181D01*
X95769500Y-60373819D01*
X95740698Y-60518621D01*
X95684199Y-60655022D01*
X95602175Y-60777779D01*
X95497779Y-60882175D01*
X95375022Y-60964199D01*
X95238621Y-61020698D01*
X95114425Y-61045401D01*
X95093820Y-61049500D01*
X94946180Y-61049500D01*
X94925575Y-61045401D01*
X94801379Y-61020698D01*
X94664978Y-60964199D01*
X94542221Y-60882175D01*
X94437825Y-60777779D01*
X94355801Y-60655022D01*
X94299302Y-60518621D01*
X94270500Y-60373819D01*
X94270500Y-60226181D01*
X94299302Y-60081379D01*
X94355801Y-59944978D01*
X94437825Y-59822221D01*
X94542221Y-59717825D01*
X94664978Y-59635801D01*
X94801379Y-59579302D01*
X94925575Y-59554599D01*
X94946180Y-59550500D01*
X95093820Y-59550500D01*
X95114425Y-59554599D01*
X95114425Y-59554599D01*
G37*
G36*
X87494425Y-59554599D02*
G01*
X87618621Y-59579302D01*
X87755022Y-59635801D01*
X87877779Y-59717825D01*
X87982175Y-59822221D01*
X88064199Y-59944978D01*
X88120698Y-60081379D01*
X88149500Y-60226181D01*
X88149500Y-60373819D01*
X88120698Y-60518621D01*
X88064199Y-60655022D01*
X87982175Y-60777779D01*
X87877779Y-60882175D01*
X87755022Y-60964199D01*
X87618621Y-61020698D01*
X87494425Y-61045401D01*
X87473820Y-61049500D01*
X87326180Y-61049500D01*
X87305575Y-61045401D01*
X87181379Y-61020698D01*
X87044978Y-60964199D01*
X86922221Y-60882175D01*
X86817825Y-60777779D01*
X86735801Y-60655022D01*
X86679302Y-60518621D01*
X86650500Y-60373819D01*
X86650500Y-60226181D01*
X86679302Y-60081379D01*
X86735801Y-59944978D01*
X86817825Y-59822221D01*
X86922221Y-59717825D01*
X87044978Y-59635801D01*
X87181379Y-59579302D01*
X87305575Y-59554599D01*
X87326180Y-59550500D01*
X87473820Y-59550500D01*
X87494425Y-59554599D01*
X87494425Y-59554599D01*
G37*
G36*
X116566823Y-58921313D02*
G01*
X116727242Y-58969976D01*
X116791841Y-59004505D01*
X116875078Y-59048996D01*
X117004659Y-59155341D01*
X117111004Y-59284922D01*
X117111005Y-59284924D01*
X117190024Y-59432758D01*
X117238687Y-59593177D01*
X117255117Y-59760000D01*
X117238687Y-59926823D01*
X117190024Y-60087242D01*
X117140383Y-60180113D01*
X117111004Y-60235078D01*
X117004659Y-60364659D01*
X116875078Y-60471004D01*
X116875076Y-60471005D01*
X116727242Y-60550024D01*
X116727239Y-60550025D01*
X116697380Y-60559083D01*
X116566823Y-60598687D01*
X116441804Y-60611000D01*
X116358196Y-60611000D01*
X116233177Y-60598687D01*
X116102620Y-60559083D01*
X116072761Y-60550025D01*
X116072758Y-60550024D01*
X115924924Y-60471005D01*
X115924922Y-60471004D01*
X115795341Y-60364659D01*
X115688996Y-60235078D01*
X115659617Y-60180113D01*
X115609976Y-60087242D01*
X115561313Y-59926823D01*
X115544883Y-59760000D01*
X115561313Y-59593177D01*
X115609976Y-59432758D01*
X115688995Y-59284924D01*
X115688996Y-59284922D01*
X115795341Y-59155341D01*
X115924922Y-59048996D01*
X116008159Y-59004505D01*
X116072758Y-58969976D01*
X116233177Y-58921313D01*
X116358196Y-58909000D01*
X116441804Y-58909000D01*
X116566823Y-58921313D01*
X116566823Y-58921313D01*
G37*
G36*
X47866000Y-60007199D02*
G01*
X47866601Y-60019439D01*
X47868666Y-60040400D01*
X47866601Y-60061361D01*
X47866000Y-60073601D01*
X47866000Y-60144632D01*
X47864095Y-60146953D01*
X47848412Y-60180113D01*
X47826521Y-60252279D01*
X47818107Y-60268020D01*
X47775357Y-60348000D01*
X47706501Y-60431901D01*
X47622600Y-60500757D01*
X47559278Y-60534603D01*
X47526879Y-60551921D01*
X47423015Y-60583427D01*
X47342067Y-60591400D01*
X46637933Y-60591400D01*
X46556985Y-60583427D01*
X46453121Y-60551921D01*
X46420722Y-60534603D01*
X46357400Y-60500757D01*
X46273499Y-60431901D01*
X46204643Y-60348000D01*
X46161893Y-60268020D01*
X46153479Y-60252279D01*
X46131588Y-60180113D01*
X46122211Y-60157475D01*
X46114000Y-60145186D01*
X46114000Y-60073601D01*
X46113399Y-60061361D01*
X46111334Y-60040400D01*
X46113399Y-60019439D01*
X46114000Y-60007199D01*
X46114000Y-58789400D01*
X47866000Y-58789400D01*
X47866000Y-60007199D01*
X47866000Y-60007199D01*
G37*
G36*
X122187887Y-58032596D02*
G01*
X122418096Y-58127952D01*
X122424655Y-58130669D01*
X122637739Y-58273047D01*
X122818953Y-58454261D01*
X122959413Y-58664474D01*
X122961332Y-58667347D01*
X123059404Y-58904113D01*
X123109400Y-59155461D01*
X123109400Y-59411739D01*
X123059404Y-59663087D01*
X122961332Y-59899853D01*
X122961331Y-59899855D01*
X122818953Y-60112939D01*
X122637739Y-60294153D01*
X122424655Y-60436531D01*
X122424654Y-60436532D01*
X122424653Y-60436532D01*
X122187887Y-60534604D01*
X121936539Y-60584600D01*
X121680261Y-60584600D01*
X121428913Y-60534604D01*
X121192147Y-60436532D01*
X121192146Y-60436532D01*
X121192145Y-60436531D01*
X120979061Y-60294153D01*
X120797847Y-60112939D01*
X120655469Y-59899855D01*
X120655468Y-59899853D01*
X120557396Y-59663087D01*
X120507400Y-59411739D01*
X120507400Y-59155461D01*
X120557396Y-58904113D01*
X120655468Y-58667347D01*
X120657388Y-58664474D01*
X120797847Y-58454261D01*
X120979061Y-58273047D01*
X121192145Y-58130669D01*
X121198704Y-58127952D01*
X121428913Y-58032596D01*
X121680261Y-57982600D01*
X121936539Y-57982600D01*
X122187887Y-58032596D01*
X122187887Y-58032596D01*
G37*
G36*
X132367887Y-58032596D02*
G01*
X132598096Y-58127952D01*
X132604655Y-58130669D01*
X132817739Y-58273047D01*
X132998953Y-58454261D01*
X133139413Y-58664474D01*
X133141332Y-58667347D01*
X133239404Y-58904113D01*
X133289400Y-59155461D01*
X133289400Y-59411739D01*
X133239404Y-59663087D01*
X133141332Y-59899853D01*
X133141331Y-59899855D01*
X132998953Y-60112939D01*
X132817739Y-60294153D01*
X132604655Y-60436531D01*
X132604654Y-60436532D01*
X132604653Y-60436532D01*
X132367887Y-60534604D01*
X132116539Y-60584600D01*
X131860261Y-60584600D01*
X131608913Y-60534604D01*
X131372147Y-60436532D01*
X131372146Y-60436532D01*
X131372145Y-60436531D01*
X131159061Y-60294153D01*
X130977847Y-60112939D01*
X130835469Y-59899855D01*
X130835468Y-59899853D01*
X130737396Y-59663087D01*
X130687400Y-59411739D01*
X130687400Y-59155461D01*
X130737396Y-58904113D01*
X130835468Y-58667347D01*
X130837388Y-58664474D01*
X130977847Y-58454261D01*
X131159061Y-58273047D01*
X131372145Y-58130669D01*
X131378704Y-58127952D01*
X131608913Y-58032596D01*
X131860261Y-57982600D01*
X132116539Y-57982600D01*
X132367887Y-58032596D01*
X132367887Y-58032596D01*
G37*
G36*
X49793114Y-58372011D02*
G01*
X49892265Y-58402088D01*
X49983644Y-58450931D01*
X50063738Y-58516662D01*
X50129469Y-58596756D01*
X50178312Y-58688136D01*
X50208389Y-58787287D01*
X50216000Y-58864562D01*
X50216000Y-59216239D01*
X50208389Y-59293514D01*
X50178312Y-59392665D01*
X50129469Y-59484044D01*
X50063738Y-59564138D01*
X49983644Y-59629869D01*
X49892264Y-59678712D01*
X49793113Y-59708789D01*
X49690000Y-59718945D01*
X49586886Y-59708789D01*
X49487735Y-59678712D01*
X49396356Y-59629869D01*
X49316262Y-59564138D01*
X49250531Y-59484044D01*
X49201688Y-59392664D01*
X49171611Y-59293513D01*
X49164000Y-59216238D01*
X49164000Y-58864561D01*
X49171611Y-58787286D01*
X49191663Y-58721185D01*
X49201689Y-58688134D01*
X49250532Y-58596756D01*
X49316263Y-58516662D01*
X49396357Y-58450931D01*
X49487736Y-58402088D01*
X49586887Y-58372011D01*
X49690000Y-58361855D01*
X49793114Y-58372011D01*
X49793114Y-58372011D01*
G37*
G36*
X57334468Y-58153565D02*
G01*
X57373138Y-58165296D01*
X57408777Y-58184346D01*
X57440017Y-58209983D01*
X57465654Y-58241223D01*
X57484704Y-58276862D01*
X57496435Y-58315532D01*
X57501000Y-58361888D01*
X57501000Y-59438112D01*
X57496435Y-59484468D01*
X57484704Y-59523138D01*
X57465654Y-59558777D01*
X57440017Y-59590017D01*
X57408777Y-59615654D01*
X57373138Y-59634704D01*
X57334468Y-59646435D01*
X57288112Y-59651000D01*
X56636888Y-59651000D01*
X56590532Y-59646435D01*
X56551862Y-59634704D01*
X56516223Y-59615654D01*
X56484983Y-59590017D01*
X56459346Y-59558777D01*
X56440296Y-59523138D01*
X56428565Y-59484468D01*
X56424000Y-59438112D01*
X56424000Y-58361888D01*
X56428565Y-58315532D01*
X56440296Y-58276862D01*
X56459346Y-58241223D01*
X56484983Y-58209983D01*
X56516223Y-58184346D01*
X56551862Y-58165296D01*
X56590532Y-58153565D01*
X56636888Y-58149000D01*
X57288112Y-58149000D01*
X57334468Y-58153565D01*
X57334468Y-58153565D01*
G37*
G36*
X59209468Y-58153565D02*
G01*
X59248138Y-58165296D01*
X59283777Y-58184346D01*
X59315017Y-58209983D01*
X59340654Y-58241223D01*
X59359704Y-58276862D01*
X59371435Y-58315532D01*
X59376000Y-58361888D01*
X59376000Y-59438112D01*
X59371435Y-59484468D01*
X59359704Y-59523138D01*
X59340654Y-59558777D01*
X59315017Y-59590017D01*
X59283777Y-59615654D01*
X59248138Y-59634704D01*
X59209468Y-59646435D01*
X59163112Y-59651000D01*
X58511888Y-59651000D01*
X58465532Y-59646435D01*
X58426862Y-59634704D01*
X58391223Y-59615654D01*
X58359983Y-59590017D01*
X58334346Y-59558777D01*
X58315296Y-59523138D01*
X58303565Y-59484468D01*
X58299000Y-59438112D01*
X58299000Y-58361888D01*
X58303565Y-58315532D01*
X58315296Y-58276862D01*
X58334346Y-58241223D01*
X58359983Y-58209983D01*
X58391223Y-58184346D01*
X58426862Y-58165296D01*
X58465532Y-58153565D01*
X58511888Y-58149000D01*
X59163112Y-58149000D01*
X59209468Y-58153565D01*
X59209468Y-58153565D01*
G37*
G36*
X105724473Y-57785938D02*
G01*
X105852049Y-57838782D01*
X105966859Y-57915495D01*
X106064505Y-58013141D01*
X106141218Y-58127951D01*
X106194062Y-58255527D01*
X106221000Y-58390956D01*
X106221000Y-58529044D01*
X106194062Y-58664473D01*
X106141218Y-58792049D01*
X106064505Y-58906859D01*
X105966859Y-59004505D01*
X105852049Y-59081218D01*
X105724473Y-59134062D01*
X105589044Y-59161000D01*
X105450956Y-59161000D01*
X105315527Y-59134062D01*
X105187951Y-59081218D01*
X105073141Y-59004505D01*
X104975495Y-58906859D01*
X104898782Y-58792049D01*
X104845938Y-58664473D01*
X104819000Y-58529044D01*
X104819000Y-58390956D01*
X104845938Y-58255527D01*
X104898782Y-58127951D01*
X104975495Y-58013141D01*
X105073141Y-57915495D01*
X105187951Y-57838782D01*
X105315527Y-57785938D01*
X105450956Y-57759000D01*
X105589044Y-57759000D01*
X105724473Y-57785938D01*
X105724473Y-57785938D01*
G37*
G36*
X98348228Y-57181703D02*
G01*
X98503100Y-57245853D01*
X98642481Y-57338985D01*
X98761015Y-57457519D01*
X98854147Y-57596900D01*
X98918297Y-57751772D01*
X98951000Y-57916184D01*
X98951000Y-58083816D01*
X98918297Y-58248228D01*
X98854147Y-58403100D01*
X98761015Y-58542481D01*
X98642481Y-58661015D01*
X98503100Y-58754147D01*
X98348228Y-58818297D01*
X98183816Y-58851000D01*
X98016184Y-58851000D01*
X97851772Y-58818297D01*
X97696900Y-58754147D01*
X97557519Y-58661015D01*
X97438985Y-58542481D01*
X97345853Y-58403100D01*
X97281703Y-58248228D01*
X97249000Y-58083816D01*
X97249000Y-57916184D01*
X97281703Y-57751772D01*
X97345853Y-57596900D01*
X97438985Y-57457519D01*
X97557519Y-57338985D01*
X97696900Y-57245853D01*
X97851772Y-57181703D01*
X98016184Y-57149000D01*
X98183816Y-57149000D01*
X98348228Y-57181703D01*
X98348228Y-57181703D01*
G37*
G36*
X100848228Y-57181703D02*
G01*
X101003100Y-57245853D01*
X101142481Y-57338985D01*
X101261015Y-57457519D01*
X101354147Y-57596900D01*
X101418297Y-57751772D01*
X101451000Y-57916184D01*
X101451000Y-58083816D01*
X101418297Y-58248228D01*
X101354147Y-58403100D01*
X101261015Y-58542481D01*
X101142481Y-58661015D01*
X101003100Y-58754147D01*
X100848228Y-58818297D01*
X100683816Y-58851000D01*
X100516184Y-58851000D01*
X100351772Y-58818297D01*
X100196900Y-58754147D01*
X100057519Y-58661015D01*
X99938985Y-58542481D01*
X99845853Y-58403100D01*
X99781703Y-58248228D01*
X99749000Y-58083816D01*
X99749000Y-57916184D01*
X99781703Y-57751772D01*
X99845853Y-57596900D01*
X99938985Y-57457519D01*
X100057519Y-57338985D01*
X100196900Y-57245853D01*
X100351772Y-57181703D01*
X100516184Y-57149000D01*
X100683816Y-57149000D01*
X100848228Y-57181703D01*
X100848228Y-57181703D01*
G37*
G36*
X95114425Y-57014599D02*
G01*
X95238621Y-57039302D01*
X95375022Y-57095801D01*
X95497779Y-57177825D01*
X95602175Y-57282221D01*
X95684199Y-57404978D01*
X95740698Y-57541379D01*
X95752642Y-57601429D01*
X95768359Y-57680442D01*
X95769500Y-57686181D01*
X95769500Y-57833819D01*
X95740698Y-57978621D01*
X95684199Y-58115022D01*
X95602175Y-58237779D01*
X95497779Y-58342175D01*
X95375022Y-58424199D01*
X95238621Y-58480698D01*
X95114425Y-58505401D01*
X95093820Y-58509500D01*
X94946180Y-58509500D01*
X94925575Y-58505401D01*
X94801379Y-58480698D01*
X94664978Y-58424199D01*
X94542221Y-58342175D01*
X94437825Y-58237779D01*
X94355801Y-58115022D01*
X94299302Y-57978621D01*
X94270500Y-57833819D01*
X94270500Y-57686181D01*
X94271642Y-57680442D01*
X94287358Y-57601429D01*
X94299302Y-57541379D01*
X94355801Y-57404978D01*
X94437825Y-57282221D01*
X94542221Y-57177825D01*
X94664978Y-57095801D01*
X94801379Y-57039302D01*
X94925575Y-57014599D01*
X94946180Y-57010500D01*
X95093820Y-57010500D01*
X95114425Y-57014599D01*
X95114425Y-57014599D01*
G37*
G36*
X87494425Y-57014599D02*
G01*
X87618621Y-57039302D01*
X87755022Y-57095801D01*
X87877779Y-57177825D01*
X87982175Y-57282221D01*
X88064199Y-57404978D01*
X88120698Y-57541379D01*
X88132642Y-57601429D01*
X88148359Y-57680442D01*
X88149500Y-57686181D01*
X88149500Y-57833819D01*
X88120698Y-57978621D01*
X88064199Y-58115022D01*
X87982175Y-58237779D01*
X87877779Y-58342175D01*
X87755022Y-58424199D01*
X87618621Y-58480698D01*
X87494425Y-58505401D01*
X87473820Y-58509500D01*
X87326180Y-58509500D01*
X87305575Y-58505401D01*
X87181379Y-58480698D01*
X87044978Y-58424199D01*
X86922221Y-58342175D01*
X86817825Y-58237779D01*
X86735801Y-58115022D01*
X86679302Y-57978621D01*
X86650500Y-57833819D01*
X86650500Y-57686181D01*
X86651642Y-57680442D01*
X86667358Y-57601429D01*
X86679302Y-57541379D01*
X86735801Y-57404978D01*
X86817825Y-57282221D01*
X86922221Y-57177825D01*
X87044978Y-57095801D01*
X87181379Y-57039302D01*
X87305575Y-57014599D01*
X87326180Y-57010500D01*
X87473820Y-57010500D01*
X87494425Y-57014599D01*
X87494425Y-57014599D01*
G37*
G36*
X47866000Y-58341400D02*
G01*
X46114000Y-58341400D01*
X46114000Y-56739400D01*
X47866000Y-56739400D01*
X47866000Y-58341400D01*
X47866000Y-58341400D01*
G37*
G36*
X80481623Y-56514513D02*
G01*
X80642042Y-56563176D01*
X80709161Y-56599052D01*
X80789878Y-56642196D01*
X80919459Y-56748541D01*
X81025804Y-56878122D01*
X81025805Y-56878124D01*
X81104824Y-57025958D01*
X81153487Y-57186377D01*
X81169917Y-57353200D01*
X81153487Y-57520023D01*
X81104824Y-57680442D01*
X81033914Y-57813106D01*
X81025804Y-57828278D01*
X80919459Y-57957859D01*
X80789878Y-58064204D01*
X80774706Y-58072314D01*
X80642042Y-58143224D01*
X80481623Y-58191887D01*
X80356604Y-58204200D01*
X80272996Y-58204200D01*
X80147977Y-58191887D01*
X79987558Y-58143224D01*
X79854894Y-58072314D01*
X79839722Y-58064204D01*
X79710141Y-57957859D01*
X79603796Y-57828278D01*
X79595686Y-57813106D01*
X79524776Y-57680442D01*
X79476113Y-57520023D01*
X79459683Y-57353200D01*
X79476113Y-57186377D01*
X79524776Y-57025958D01*
X79603795Y-56878124D01*
X79603796Y-56878122D01*
X79710141Y-56748541D01*
X79839722Y-56642196D01*
X79920439Y-56599052D01*
X79987558Y-56563176D01*
X80147977Y-56514513D01*
X80272996Y-56502200D01*
X80356604Y-56502200D01*
X80481623Y-56514513D01*
X80481623Y-56514513D01*
G37*
G36*
X84373028Y-56534903D02*
G01*
X84527900Y-56599053D01*
X84667281Y-56692185D01*
X84785815Y-56810719D01*
X84878947Y-56950100D01*
X84943097Y-57104972D01*
X84975800Y-57269384D01*
X84975800Y-57437016D01*
X84943097Y-57601428D01*
X84878947Y-57756300D01*
X84785815Y-57895681D01*
X84667281Y-58014215D01*
X84527900Y-58107347D01*
X84373028Y-58171497D01*
X84208616Y-58204200D01*
X84040984Y-58204200D01*
X83876572Y-58171497D01*
X83721700Y-58107347D01*
X83582319Y-58014215D01*
X83463785Y-57895681D01*
X83370653Y-57756300D01*
X83306503Y-57601428D01*
X83273800Y-57437016D01*
X83273800Y-57269384D01*
X83306503Y-57104972D01*
X83370653Y-56950100D01*
X83463785Y-56810719D01*
X83582319Y-56692185D01*
X83721700Y-56599053D01*
X83876572Y-56534903D01*
X84040984Y-56502200D01*
X84208616Y-56502200D01*
X84373028Y-56534903D01*
X84373028Y-56534903D01*
G37*
G36*
X49705974Y-54959018D02*
G01*
X49730007Y-54963798D01*
X49742259Y-54964400D01*
X50566000Y-54964400D01*
X50566000Y-58066400D01*
X48814000Y-58066400D01*
X48814000Y-54964400D01*
X49637740Y-54964400D01*
X49662126Y-54961998D01*
X49685575Y-54954885D01*
X49690125Y-54952453D01*
X49705974Y-54959018D01*
X49705974Y-54959018D01*
G37*
G36*
X47866000Y-56341400D02*
G01*
X46114000Y-56341400D01*
X46114000Y-54739400D01*
X47866000Y-54739400D01*
X47866000Y-56341400D01*
X47866000Y-56341400D01*
G37*
G36*
X87494425Y-54474599D02*
G01*
X87618621Y-54499302D01*
X87755022Y-54555801D01*
X87877779Y-54637825D01*
X87982175Y-54742221D01*
X88064199Y-54864978D01*
X88120698Y-55001379D01*
X88136578Y-55081218D01*
X88148308Y-55140185D01*
X88149500Y-55146181D01*
X88149500Y-55293819D01*
X88120698Y-55438621D01*
X88064199Y-55575022D01*
X87982175Y-55697779D01*
X87877779Y-55802175D01*
X87755022Y-55884199D01*
X87618621Y-55940698D01*
X87494425Y-55965401D01*
X87473820Y-55969500D01*
X87326180Y-55969500D01*
X87305575Y-55965401D01*
X87181379Y-55940698D01*
X87044978Y-55884199D01*
X86922221Y-55802175D01*
X86817825Y-55697779D01*
X86735801Y-55575022D01*
X86679302Y-55438621D01*
X86650500Y-55293819D01*
X86650500Y-55146181D01*
X86651693Y-55140185D01*
X86663422Y-55081218D01*
X86679302Y-55001379D01*
X86735801Y-54864978D01*
X86817825Y-54742221D01*
X86922221Y-54637825D01*
X87044978Y-54555801D01*
X87181379Y-54499302D01*
X87305575Y-54474599D01*
X87326180Y-54470500D01*
X87473820Y-54470500D01*
X87494425Y-54474599D01*
X87494425Y-54474599D01*
G37*
G36*
X95114425Y-54474599D02*
G01*
X95238621Y-54499302D01*
X95375022Y-54555801D01*
X95497779Y-54637825D01*
X95602175Y-54742221D01*
X95684199Y-54864978D01*
X95740698Y-55001379D01*
X95756578Y-55081218D01*
X95768308Y-55140185D01*
X95769500Y-55146181D01*
X95769500Y-55293819D01*
X95740698Y-55438621D01*
X95684199Y-55575022D01*
X95602175Y-55697779D01*
X95497779Y-55802175D01*
X95375022Y-55884199D01*
X95238621Y-55940698D01*
X95114425Y-55965401D01*
X95093820Y-55969500D01*
X94946180Y-55969500D01*
X94925575Y-55965401D01*
X94801379Y-55940698D01*
X94664978Y-55884199D01*
X94542221Y-55802175D01*
X94437825Y-55697779D01*
X94355801Y-55575022D01*
X94299302Y-55438621D01*
X94270500Y-55293819D01*
X94270500Y-55146181D01*
X94271693Y-55140185D01*
X94283422Y-55081218D01*
X94299302Y-55001379D01*
X94355801Y-54864978D01*
X94437825Y-54742221D01*
X94542221Y-54637825D01*
X94664978Y-54555801D01*
X94801379Y-54499302D01*
X94925575Y-54474599D01*
X94946180Y-54470500D01*
X95093820Y-54470500D01*
X95114425Y-54474599D01*
X95114425Y-54474599D01*
G37*
G36*
X62150443Y-53605519D02*
G01*
X62216627Y-53612037D01*
X62386466Y-53663557D01*
X62542991Y-53747222D01*
X62557342Y-53759000D01*
X62680186Y-53859814D01*
X62752744Y-53948228D01*
X62792778Y-53997009D01*
X62792779Y-53997011D01*
X62862769Y-54127951D01*
X62876443Y-54153534D01*
X62927963Y-54323373D01*
X62945359Y-54500000D01*
X62927963Y-54676627D01*
X62908921Y-54739400D01*
X62876442Y-54846468D01*
X62844162Y-54906859D01*
X62792778Y-55002991D01*
X62791535Y-55004505D01*
X62680186Y-55140186D01*
X62578729Y-55223448D01*
X62542991Y-55252778D01*
X62386466Y-55336443D01*
X62216627Y-55387963D01*
X62150443Y-55394481D01*
X62084260Y-55401000D01*
X61995740Y-55401000D01*
X61929557Y-55394481D01*
X61863373Y-55387963D01*
X61693534Y-55336443D01*
X61537009Y-55252778D01*
X61501271Y-55223448D01*
X61399814Y-55140186D01*
X61288465Y-55004505D01*
X61287222Y-55002991D01*
X61235838Y-54906859D01*
X61203558Y-54846468D01*
X61171079Y-54739400D01*
X61152037Y-54676627D01*
X61134641Y-54500000D01*
X61152037Y-54323373D01*
X61203557Y-54153534D01*
X61217232Y-54127951D01*
X61287221Y-53997011D01*
X61287222Y-53997009D01*
X61327256Y-53948228D01*
X61399814Y-53859814D01*
X61522658Y-53759000D01*
X61537009Y-53747222D01*
X61693534Y-53663557D01*
X61863373Y-53612037D01*
X61929557Y-53605519D01*
X61995740Y-53599000D01*
X62084260Y-53599000D01*
X62150443Y-53605519D01*
X62150443Y-53605519D01*
G37*
G36*
X69770443Y-53605519D02*
G01*
X69836627Y-53612037D01*
X70006466Y-53663557D01*
X70162991Y-53747222D01*
X70177342Y-53759000D01*
X70300186Y-53859814D01*
X70372744Y-53948228D01*
X70412778Y-53997009D01*
X70412779Y-53997011D01*
X70482769Y-54127951D01*
X70496443Y-54153534D01*
X70547963Y-54323373D01*
X70565359Y-54500000D01*
X70547963Y-54676627D01*
X70528921Y-54739400D01*
X70496442Y-54846468D01*
X70464162Y-54906859D01*
X70412778Y-55002991D01*
X70411535Y-55004505D01*
X70300186Y-55140186D01*
X70198729Y-55223448D01*
X70162991Y-55252778D01*
X70006466Y-55336443D01*
X69836627Y-55387963D01*
X69770443Y-55394481D01*
X69704260Y-55401000D01*
X69615740Y-55401000D01*
X69549557Y-55394481D01*
X69483373Y-55387963D01*
X69313534Y-55336443D01*
X69157009Y-55252778D01*
X69121271Y-55223448D01*
X69019814Y-55140186D01*
X68908465Y-55004505D01*
X68907222Y-55002991D01*
X68855838Y-54906859D01*
X68823558Y-54846468D01*
X68791079Y-54739400D01*
X68772037Y-54676627D01*
X68754641Y-54500000D01*
X68772037Y-54323373D01*
X68823557Y-54153534D01*
X68837232Y-54127951D01*
X68907221Y-53997011D01*
X68907222Y-53997009D01*
X68947256Y-53948228D01*
X69019814Y-53859814D01*
X69142658Y-53759000D01*
X69157009Y-53747222D01*
X69313534Y-53663557D01*
X69483373Y-53612037D01*
X69549557Y-53605519D01*
X69615740Y-53599000D01*
X69704260Y-53599000D01*
X69770443Y-53605519D01*
X69770443Y-53605519D01*
G37*
G36*
X67230443Y-53605519D02*
G01*
X67296627Y-53612037D01*
X67466466Y-53663557D01*
X67622991Y-53747222D01*
X67637342Y-53759000D01*
X67760186Y-53859814D01*
X67832744Y-53948228D01*
X67872778Y-53997009D01*
X67872779Y-53997011D01*
X67942769Y-54127951D01*
X67956443Y-54153534D01*
X68007963Y-54323373D01*
X68025359Y-54500000D01*
X68007963Y-54676627D01*
X67988921Y-54739400D01*
X67956442Y-54846468D01*
X67924162Y-54906859D01*
X67872778Y-55002991D01*
X67871535Y-55004505D01*
X67760186Y-55140186D01*
X67658729Y-55223448D01*
X67622991Y-55252778D01*
X67466466Y-55336443D01*
X67296627Y-55387963D01*
X67230443Y-55394481D01*
X67164260Y-55401000D01*
X67075740Y-55401000D01*
X67009557Y-55394481D01*
X66943373Y-55387963D01*
X66773534Y-55336443D01*
X66617009Y-55252778D01*
X66581271Y-55223448D01*
X66479814Y-55140186D01*
X66368465Y-55004505D01*
X66367222Y-55002991D01*
X66315838Y-54906859D01*
X66283558Y-54846468D01*
X66251079Y-54739400D01*
X66232037Y-54676627D01*
X66214641Y-54500000D01*
X66232037Y-54323373D01*
X66283557Y-54153534D01*
X66297232Y-54127951D01*
X66367221Y-53997011D01*
X66367222Y-53997009D01*
X66407256Y-53948228D01*
X66479814Y-53859814D01*
X66602658Y-53759000D01*
X66617009Y-53747222D01*
X66773534Y-53663557D01*
X66943373Y-53612037D01*
X67009557Y-53605519D01*
X67075740Y-53599000D01*
X67164260Y-53599000D01*
X67230443Y-53605519D01*
X67230443Y-53605519D01*
G37*
G36*
X73101000Y-55401000D02*
G01*
X71299000Y-55401000D01*
X71299000Y-53599000D01*
X73101000Y-53599000D01*
X73101000Y-55401000D01*
X73101000Y-55401000D01*
G37*
G36*
X64690443Y-53605519D02*
G01*
X64756627Y-53612037D01*
X64926466Y-53663557D01*
X65082991Y-53747222D01*
X65097342Y-53759000D01*
X65220186Y-53859814D01*
X65292744Y-53948228D01*
X65332778Y-53997009D01*
X65332779Y-53997011D01*
X65402769Y-54127951D01*
X65416443Y-54153534D01*
X65467963Y-54323373D01*
X65485359Y-54500000D01*
X65467963Y-54676627D01*
X65448921Y-54739400D01*
X65416442Y-54846468D01*
X65384162Y-54906859D01*
X65332778Y-55002991D01*
X65331535Y-55004505D01*
X65220186Y-55140186D01*
X65118729Y-55223448D01*
X65082991Y-55252778D01*
X64926466Y-55336443D01*
X64756627Y-55387963D01*
X64690443Y-55394481D01*
X64624260Y-55401000D01*
X64535740Y-55401000D01*
X64469557Y-55394481D01*
X64403373Y-55387963D01*
X64233534Y-55336443D01*
X64077009Y-55252778D01*
X64041271Y-55223448D01*
X63939814Y-55140186D01*
X63828465Y-55004505D01*
X63827222Y-55002991D01*
X63775838Y-54906859D01*
X63743558Y-54846468D01*
X63711079Y-54739400D01*
X63692037Y-54676627D01*
X63674641Y-54500000D01*
X63692037Y-54323373D01*
X63743557Y-54153534D01*
X63757232Y-54127951D01*
X63827221Y-53997011D01*
X63827222Y-53997009D01*
X63867256Y-53948228D01*
X63939814Y-53859814D01*
X64062658Y-53759000D01*
X64077009Y-53747222D01*
X64233534Y-53663557D01*
X64403373Y-53612037D01*
X64469557Y-53605519D01*
X64535740Y-53599000D01*
X64624260Y-53599000D01*
X64690443Y-53605519D01*
X64690443Y-53605519D01*
G37*
G36*
X105724473Y-53785938D02*
G01*
X105852049Y-53838782D01*
X105966859Y-53915495D01*
X106064505Y-54013141D01*
X106141218Y-54127951D01*
X106194062Y-54255527D01*
X106221000Y-54390956D01*
X106221000Y-54529044D01*
X106194062Y-54664473D01*
X106141218Y-54792049D01*
X106064505Y-54906859D01*
X105966859Y-55004505D01*
X105852049Y-55081218D01*
X105724473Y-55134062D01*
X105589044Y-55161000D01*
X105450956Y-55161000D01*
X105315527Y-55134062D01*
X105187951Y-55081218D01*
X105073141Y-55004505D01*
X104975495Y-54906859D01*
X104898782Y-54792049D01*
X104845938Y-54664473D01*
X104819000Y-54529044D01*
X104819000Y-54390956D01*
X104845938Y-54255527D01*
X104898782Y-54127951D01*
X104975495Y-54013141D01*
X105073141Y-53915495D01*
X105187951Y-53838782D01*
X105315527Y-53785938D01*
X105450956Y-53759000D01*
X105589044Y-53759000D01*
X105724473Y-53785938D01*
X105724473Y-53785938D01*
G37*
G36*
X49793114Y-53372011D02*
G01*
X49892265Y-53402088D01*
X49983644Y-53450931D01*
X50063738Y-53516662D01*
X50129469Y-53596756D01*
X50178312Y-53688136D01*
X50208389Y-53787287D01*
X50216000Y-53864562D01*
X50216000Y-54216239D01*
X50208389Y-54293514D01*
X50178312Y-54392665D01*
X50129469Y-54484044D01*
X50063738Y-54564138D01*
X49983644Y-54629869D01*
X49892264Y-54678712D01*
X49793113Y-54708789D01*
X49730001Y-54715005D01*
X49705974Y-54719784D01*
X49690125Y-54726349D01*
X49685575Y-54723917D01*
X49662126Y-54716804D01*
X49650002Y-54715005D01*
X49586886Y-54708789D01*
X49487735Y-54678712D01*
X49396356Y-54629869D01*
X49316262Y-54564138D01*
X49250531Y-54484044D01*
X49201688Y-54392664D01*
X49171611Y-54293513D01*
X49164000Y-54216238D01*
X49164000Y-53864561D01*
X49171611Y-53787286D01*
X49191663Y-53721185D01*
X49201689Y-53688134D01*
X49250532Y-53596756D01*
X49261471Y-53583427D01*
X49316263Y-53516662D01*
X49396357Y-53450931D01*
X49487736Y-53402088D01*
X49586887Y-53372011D01*
X49690000Y-53361855D01*
X49793114Y-53372011D01*
X49793114Y-53372011D01*
G37*
G36*
X100848228Y-52881703D02*
G01*
X101003100Y-52945853D01*
X101142481Y-53038985D01*
X101261015Y-53157519D01*
X101354147Y-53296900D01*
X101418297Y-53451772D01*
X101451000Y-53616184D01*
X101451000Y-53783816D01*
X101418297Y-53948228D01*
X101354147Y-54103100D01*
X101261015Y-54242481D01*
X101142481Y-54361015D01*
X101003100Y-54454147D01*
X100848228Y-54518297D01*
X100683816Y-54551000D01*
X100516184Y-54551000D01*
X100351772Y-54518297D01*
X100196900Y-54454147D01*
X100057519Y-54361015D01*
X99938985Y-54242481D01*
X99845853Y-54103100D01*
X99781703Y-53948228D01*
X99749000Y-53783816D01*
X99749000Y-53616184D01*
X99781703Y-53451772D01*
X99845853Y-53296900D01*
X99938985Y-53157519D01*
X100057519Y-53038985D01*
X100196900Y-52945853D01*
X100351772Y-52881703D01*
X100516184Y-52849000D01*
X100683816Y-52849000D01*
X100848228Y-52881703D01*
X100848228Y-52881703D01*
G37*
G36*
X98348228Y-52881703D02*
G01*
X98503100Y-52945853D01*
X98642481Y-53038985D01*
X98761015Y-53157519D01*
X98854147Y-53296900D01*
X98918297Y-53451772D01*
X98951000Y-53616184D01*
X98951000Y-53783816D01*
X98918297Y-53948228D01*
X98854147Y-54103100D01*
X98761015Y-54242481D01*
X98642481Y-54361015D01*
X98503100Y-54454147D01*
X98348228Y-54518297D01*
X98183816Y-54551000D01*
X98016184Y-54551000D01*
X97851772Y-54518297D01*
X97696900Y-54454147D01*
X97557519Y-54361015D01*
X97438985Y-54242481D01*
X97345853Y-54103100D01*
X97281703Y-53948228D01*
X97249000Y-53783816D01*
X97249000Y-53616184D01*
X97281703Y-53451772D01*
X97345853Y-53296900D01*
X97438985Y-53157519D01*
X97557519Y-53038985D01*
X97696900Y-52945853D01*
X97851772Y-52881703D01*
X98016184Y-52849000D01*
X98183816Y-52849000D01*
X98348228Y-52881703D01*
X98348228Y-52881703D01*
G37*
G36*
X47423015Y-52497373D02*
G01*
X47526879Y-52528879D01*
X47554055Y-52543405D01*
X47622600Y-52580043D01*
X47706501Y-52648899D01*
X47775357Y-52732800D01*
X47786592Y-52753820D01*
X47826521Y-52828521D01*
X47826521Y-52828522D01*
X47848412Y-52900687D01*
X47857789Y-52923325D01*
X47866000Y-52935614D01*
X47866000Y-53007199D01*
X47866601Y-53019439D01*
X47868666Y-53040400D01*
X47866601Y-53061361D01*
X47866000Y-53073601D01*
X47866000Y-54291400D01*
X46114000Y-54291400D01*
X46114000Y-53073601D01*
X46113399Y-53061361D01*
X46111334Y-53040400D01*
X46113399Y-53019439D01*
X46114000Y-53007199D01*
X46114000Y-52936168D01*
X46115905Y-52933847D01*
X46131588Y-52900687D01*
X46153479Y-52828522D01*
X46153479Y-52828521D01*
X46193408Y-52753820D01*
X46204643Y-52732800D01*
X46273499Y-52648899D01*
X46357400Y-52580043D01*
X46425945Y-52543405D01*
X46453121Y-52528879D01*
X46556985Y-52497373D01*
X46637933Y-52489400D01*
X47342067Y-52489400D01*
X47423015Y-52497373D01*
X47423015Y-52497373D01*
G37*
G36*
X95114425Y-51934599D02*
G01*
X95238621Y-51959302D01*
X95375022Y-52015801D01*
X95497779Y-52097825D01*
X95602175Y-52202221D01*
X95684199Y-52324978D01*
X95740698Y-52461379D01*
X95769500Y-52606181D01*
X95769500Y-52753819D01*
X95740698Y-52898621D01*
X95684199Y-53035022D01*
X95602175Y-53157779D01*
X95497779Y-53262175D01*
X95375022Y-53344199D01*
X95238621Y-53400698D01*
X95114425Y-53425401D01*
X95093820Y-53429500D01*
X94946180Y-53429500D01*
X94925575Y-53425401D01*
X94801379Y-53400698D01*
X94664978Y-53344199D01*
X94542221Y-53262175D01*
X94437825Y-53157779D01*
X94355801Y-53035022D01*
X94299302Y-52898621D01*
X94270500Y-52753819D01*
X94270500Y-52606181D01*
X94299302Y-52461379D01*
X94355801Y-52324978D01*
X94437825Y-52202221D01*
X94542221Y-52097825D01*
X94664978Y-52015801D01*
X94801379Y-51959302D01*
X94925575Y-51934599D01*
X94946180Y-51930500D01*
X95093820Y-51930500D01*
X95114425Y-51934599D01*
X95114425Y-51934599D01*
G37*
G36*
X87494425Y-51934599D02*
G01*
X87618621Y-51959302D01*
X87755022Y-52015801D01*
X87877779Y-52097825D01*
X87982175Y-52202221D01*
X88064199Y-52324978D01*
X88120698Y-52461379D01*
X88149500Y-52606181D01*
X88149500Y-52753819D01*
X88120698Y-52898621D01*
X88064199Y-53035022D01*
X87982175Y-53157779D01*
X87877779Y-53262175D01*
X87755022Y-53344199D01*
X87618621Y-53400698D01*
X87494425Y-53425401D01*
X87473820Y-53429500D01*
X87326180Y-53429500D01*
X87305575Y-53425401D01*
X87181379Y-53400698D01*
X87044978Y-53344199D01*
X86922221Y-53262175D01*
X86817825Y-53157779D01*
X86735801Y-53035022D01*
X86679302Y-52898621D01*
X86650500Y-52753819D01*
X86650500Y-52606181D01*
X86679302Y-52461379D01*
X86735801Y-52324978D01*
X86817825Y-52202221D01*
X86922221Y-52097825D01*
X87044978Y-52015801D01*
X87181379Y-51959302D01*
X87305575Y-51934599D01*
X87326180Y-51930500D01*
X87473820Y-51930500D01*
X87494425Y-51934599D01*
X87494425Y-51934599D01*
G37*
G36*
X127011912Y-51387527D02*
G01*
X127161212Y-51417224D01*
X127325184Y-51485144D01*
X127472754Y-51583747D01*
X127598253Y-51709246D01*
X127696856Y-51856816D01*
X127764776Y-52020788D01*
X127799400Y-52194859D01*
X127799400Y-52372341D01*
X127764776Y-52546412D01*
X127696856Y-52710384D01*
X127598253Y-52857954D01*
X127472754Y-52983453D01*
X127325184Y-53082056D01*
X127161212Y-53149976D01*
X127011912Y-53179673D01*
X126987142Y-53184600D01*
X126809658Y-53184600D01*
X126784888Y-53179673D01*
X126635588Y-53149976D01*
X126471616Y-53082056D01*
X126324046Y-52983453D01*
X126198547Y-52857954D01*
X126099944Y-52710384D01*
X126032024Y-52546412D01*
X125997400Y-52372341D01*
X125997400Y-52194859D01*
X126032024Y-52020788D01*
X126099944Y-51856816D01*
X126198547Y-51709246D01*
X126324046Y-51583747D01*
X126471616Y-51485144D01*
X126635588Y-51417224D01*
X126784888Y-51387527D01*
X126809658Y-51382600D01*
X126987142Y-51382600D01*
X127011912Y-51387527D01*
X127011912Y-51387527D01*
G37*
G36*
X124511912Y-51387527D02*
G01*
X124661212Y-51417224D01*
X124825184Y-51485144D01*
X124972754Y-51583747D01*
X125098253Y-51709246D01*
X125196856Y-51856816D01*
X125264776Y-52020788D01*
X125299400Y-52194859D01*
X125299400Y-52372341D01*
X125264776Y-52546412D01*
X125196856Y-52710384D01*
X125098253Y-52857954D01*
X124972754Y-52983453D01*
X124825184Y-53082056D01*
X124661212Y-53149976D01*
X124511912Y-53179673D01*
X124487142Y-53184600D01*
X124309658Y-53184600D01*
X124284888Y-53179673D01*
X124135588Y-53149976D01*
X123971616Y-53082056D01*
X123824046Y-52983453D01*
X123698547Y-52857954D01*
X123599944Y-52710384D01*
X123532024Y-52546412D01*
X123497400Y-52372341D01*
X123497400Y-52194859D01*
X123532024Y-52020788D01*
X123599944Y-51856816D01*
X123698547Y-51709246D01*
X123824046Y-51583747D01*
X123971616Y-51485144D01*
X124135588Y-51417224D01*
X124284888Y-51387527D01*
X124309658Y-51382600D01*
X124487142Y-51382600D01*
X124511912Y-51387527D01*
X124511912Y-51387527D01*
G37*
G36*
X129511912Y-51387527D02*
G01*
X129661212Y-51417224D01*
X129825184Y-51485144D01*
X129972754Y-51583747D01*
X130098253Y-51709246D01*
X130196856Y-51856816D01*
X130264776Y-52020788D01*
X130299400Y-52194859D01*
X130299400Y-52372341D01*
X130264776Y-52546412D01*
X130196856Y-52710384D01*
X130098253Y-52857954D01*
X129972754Y-52983453D01*
X129825184Y-53082056D01*
X129661212Y-53149976D01*
X129511912Y-53179673D01*
X129487142Y-53184600D01*
X129309658Y-53184600D01*
X129284888Y-53179673D01*
X129135588Y-53149976D01*
X128971616Y-53082056D01*
X128824046Y-52983453D01*
X128698547Y-52857954D01*
X128599944Y-52710384D01*
X128532024Y-52546412D01*
X128497400Y-52372341D01*
X128497400Y-52194859D01*
X128532024Y-52020788D01*
X128599944Y-51856816D01*
X128698547Y-51709246D01*
X128824046Y-51583747D01*
X128971616Y-51485144D01*
X129135588Y-51417224D01*
X129284888Y-51387527D01*
X129309658Y-51382600D01*
X129487142Y-51382600D01*
X129511912Y-51387527D01*
X129511912Y-51387527D01*
G37*
G36*
X105724473Y-51785938D02*
G01*
X105852049Y-51838782D01*
X105966859Y-51915495D01*
X106064505Y-52013141D01*
X106141218Y-52127951D01*
X106194062Y-52255527D01*
X106221000Y-52390956D01*
X106221000Y-52529044D01*
X106194062Y-52664473D01*
X106141218Y-52792049D01*
X106064505Y-52906859D01*
X105966859Y-53004505D01*
X105852049Y-53081218D01*
X105724473Y-53134062D01*
X105589044Y-53161000D01*
X105450956Y-53161000D01*
X105315527Y-53134062D01*
X105187951Y-53081218D01*
X105073141Y-53004505D01*
X104975495Y-52906859D01*
X104898782Y-52792049D01*
X104845938Y-52664473D01*
X104819000Y-52529044D01*
X104819000Y-52390956D01*
X104845938Y-52255527D01*
X104898782Y-52127951D01*
X104975495Y-52013141D01*
X105073141Y-51915495D01*
X105187951Y-51838782D01*
X105315527Y-51785938D01*
X105450956Y-51759000D01*
X105589044Y-51759000D01*
X105724473Y-51785938D01*
X105724473Y-51785938D01*
G37*
G36*
X105724473Y-49785938D02*
G01*
X105852049Y-49838782D01*
X105966859Y-49915495D01*
X106064505Y-50013141D01*
X106141218Y-50127951D01*
X106194062Y-50255527D01*
X106221000Y-50390956D01*
X106221000Y-50529044D01*
X106194062Y-50664473D01*
X106141218Y-50792049D01*
X106064505Y-50906859D01*
X105966859Y-51004505D01*
X105852049Y-51081218D01*
X105724473Y-51134062D01*
X105589044Y-51161000D01*
X105450956Y-51161000D01*
X105315527Y-51134062D01*
X105187951Y-51081218D01*
X105073141Y-51004505D01*
X104975495Y-50906859D01*
X104898782Y-50792049D01*
X104845938Y-50664473D01*
X104819000Y-50529044D01*
X104819000Y-50390956D01*
X104845938Y-50255527D01*
X104898782Y-50127951D01*
X104975495Y-50013141D01*
X105073141Y-49915495D01*
X105187951Y-49838782D01*
X105315527Y-49785938D01*
X105450956Y-49759000D01*
X105589044Y-49759000D01*
X105724473Y-49785938D01*
X105724473Y-49785938D01*
G37*
G36*
X87494425Y-49394599D02*
G01*
X87618621Y-49419302D01*
X87755022Y-49475801D01*
X87877779Y-49557825D01*
X87982175Y-49662221D01*
X88064199Y-49784978D01*
X88120698Y-49921379D01*
X88149500Y-50066181D01*
X88149500Y-50213819D01*
X88120698Y-50358621D01*
X88064199Y-50495022D01*
X87982175Y-50617779D01*
X87877779Y-50722175D01*
X87755022Y-50804199D01*
X87618621Y-50860698D01*
X87494425Y-50885401D01*
X87473820Y-50889500D01*
X87326180Y-50889500D01*
X87305575Y-50885401D01*
X87181379Y-50860698D01*
X87044978Y-50804199D01*
X86922221Y-50722175D01*
X86817825Y-50617779D01*
X86735801Y-50495022D01*
X86679302Y-50358621D01*
X86650500Y-50213819D01*
X86650500Y-50066181D01*
X86679302Y-49921379D01*
X86735801Y-49784978D01*
X86817825Y-49662221D01*
X86922221Y-49557825D01*
X87044978Y-49475801D01*
X87181379Y-49419302D01*
X87305575Y-49394599D01*
X87326180Y-49390500D01*
X87473820Y-49390500D01*
X87494425Y-49394599D01*
X87494425Y-49394599D01*
G37*
G36*
X95114425Y-49394599D02*
G01*
X95238621Y-49419302D01*
X95375022Y-49475801D01*
X95497779Y-49557825D01*
X95602175Y-49662221D01*
X95684199Y-49784978D01*
X95740698Y-49921379D01*
X95769500Y-50066181D01*
X95769500Y-50213819D01*
X95740698Y-50358621D01*
X95684199Y-50495022D01*
X95602175Y-50617779D01*
X95497779Y-50722175D01*
X95375022Y-50804199D01*
X95238621Y-50860698D01*
X95114425Y-50885401D01*
X95093820Y-50889500D01*
X94946180Y-50889500D01*
X94925575Y-50885401D01*
X94801379Y-50860698D01*
X94664978Y-50804199D01*
X94542221Y-50722175D01*
X94437825Y-50617779D01*
X94355801Y-50495022D01*
X94299302Y-50358621D01*
X94270500Y-50213819D01*
X94270500Y-50066181D01*
X94299302Y-49921379D01*
X94355801Y-49784978D01*
X94437825Y-49662221D01*
X94542221Y-49557825D01*
X94664978Y-49475801D01*
X94801379Y-49419302D01*
X94925575Y-49394599D01*
X94946180Y-49390500D01*
X95093820Y-49390500D01*
X95114425Y-49394599D01*
X95114425Y-49394599D01*
G37*
G36*
X116648228Y-48781703D02*
G01*
X116803100Y-48845853D01*
X116942481Y-48938985D01*
X117061015Y-49057519D01*
X117154147Y-49196900D01*
X117218297Y-49351772D01*
X117251000Y-49516184D01*
X117251000Y-49683816D01*
X117218297Y-49848228D01*
X117154147Y-50003100D01*
X117061015Y-50142481D01*
X116942481Y-50261015D01*
X116803100Y-50354147D01*
X116648228Y-50418297D01*
X116483816Y-50451000D01*
X116316184Y-50451000D01*
X116151772Y-50418297D01*
X115996900Y-50354147D01*
X115857519Y-50261015D01*
X115738985Y-50142481D01*
X115645853Y-50003100D01*
X115581703Y-49848228D01*
X115549000Y-49683816D01*
X115549000Y-49516184D01*
X115581703Y-49351772D01*
X115645853Y-49196900D01*
X115738985Y-49057519D01*
X115857519Y-48938985D01*
X115996900Y-48845853D01*
X116151772Y-48781703D01*
X116316184Y-48749000D01*
X116483816Y-48749000D01*
X116648228Y-48781703D01*
X116648228Y-48781703D01*
G37*
G36*
X100848228Y-48681703D02*
G01*
X101003100Y-48745853D01*
X101142481Y-48838985D01*
X101261015Y-48957519D01*
X101354147Y-49096900D01*
X101418297Y-49251772D01*
X101451000Y-49416184D01*
X101451000Y-49583816D01*
X101418297Y-49748228D01*
X101354147Y-49903100D01*
X101261015Y-50042481D01*
X101142481Y-50161015D01*
X101003100Y-50254147D01*
X100848228Y-50318297D01*
X100683816Y-50351000D01*
X100516184Y-50351000D01*
X100351772Y-50318297D01*
X100196900Y-50254147D01*
X100057519Y-50161015D01*
X99938985Y-50042481D01*
X99845853Y-49903100D01*
X99781703Y-49748228D01*
X99749000Y-49583816D01*
X99749000Y-49416184D01*
X99781703Y-49251772D01*
X99845853Y-49096900D01*
X99938985Y-48957519D01*
X100057519Y-48838985D01*
X100196900Y-48745853D01*
X100351772Y-48681703D01*
X100516184Y-48649000D01*
X100683816Y-48649000D01*
X100848228Y-48681703D01*
X100848228Y-48681703D01*
G37*
G36*
X98348228Y-48681703D02*
G01*
X98503100Y-48745853D01*
X98642481Y-48838985D01*
X98761015Y-48957519D01*
X98854147Y-49096900D01*
X98918297Y-49251772D01*
X98951000Y-49416184D01*
X98951000Y-49583816D01*
X98918297Y-49748228D01*
X98854147Y-49903100D01*
X98761015Y-50042481D01*
X98642481Y-50161015D01*
X98503100Y-50254147D01*
X98348228Y-50318297D01*
X98183816Y-50351000D01*
X98016184Y-50351000D01*
X97851772Y-50318297D01*
X97696900Y-50254147D01*
X97557519Y-50161015D01*
X97438985Y-50042481D01*
X97345853Y-49903100D01*
X97281703Y-49748228D01*
X97249000Y-49583816D01*
X97249000Y-49416184D01*
X97281703Y-49251772D01*
X97345853Y-49096900D01*
X97438985Y-48957519D01*
X97557519Y-48838985D01*
X97696900Y-48745853D01*
X97851772Y-48681703D01*
X98016184Y-48649000D01*
X98183816Y-48649000D01*
X98348228Y-48681703D01*
X98348228Y-48681703D01*
G37*
G36*
X105715285Y-47378234D02*
G01*
X105811981Y-47397468D01*
X105994151Y-47472926D01*
X106158100Y-47582473D01*
X106297527Y-47721900D01*
X106407074Y-47885849D01*
X106482532Y-48068019D01*
X106521000Y-48261410D01*
X106521000Y-48458590D01*
X106482532Y-48651981D01*
X106407074Y-48834151D01*
X106297527Y-48998100D01*
X106158100Y-49137527D01*
X105994151Y-49247074D01*
X105811981Y-49322532D01*
X105715285Y-49341766D01*
X105618591Y-49361000D01*
X105421409Y-49361000D01*
X105228019Y-49322532D01*
X105045849Y-49247074D01*
X104881900Y-49137527D01*
X104742473Y-48998100D01*
X104632926Y-48834151D01*
X104557468Y-48651981D01*
X104519000Y-48458590D01*
X104519000Y-48261410D01*
X104557468Y-48068019D01*
X104632926Y-47885849D01*
X104742473Y-47721900D01*
X104881900Y-47582473D01*
X105045849Y-47472926D01*
X105228019Y-47397468D01*
X105324715Y-47378234D01*
X105421409Y-47359000D01*
X105618591Y-47359000D01*
X105715285Y-47378234D01*
X105715285Y-47378234D01*
G37*
G36*
X87494425Y-46854599D02*
G01*
X87618621Y-46879302D01*
X87755022Y-46935801D01*
X87877779Y-47017825D01*
X87982175Y-47122221D01*
X88064199Y-47244978D01*
X88120698Y-47381379D01*
X88132642Y-47441429D01*
X88148359Y-47520442D01*
X88149500Y-47526181D01*
X88149500Y-47673819D01*
X88120698Y-47818621D01*
X88064199Y-47955022D01*
X87982175Y-48077779D01*
X87877779Y-48182175D01*
X87755022Y-48264199D01*
X87618621Y-48320698D01*
X87494425Y-48345401D01*
X87473820Y-48349500D01*
X87326180Y-48349500D01*
X87305575Y-48345401D01*
X87181379Y-48320698D01*
X87044978Y-48264199D01*
X86922221Y-48182175D01*
X86817825Y-48077779D01*
X86735801Y-47955022D01*
X86679302Y-47818621D01*
X86650500Y-47673819D01*
X86650500Y-47526181D01*
X86651642Y-47520442D01*
X86667358Y-47441429D01*
X86679302Y-47381379D01*
X86735801Y-47244978D01*
X86817825Y-47122221D01*
X86922221Y-47017825D01*
X87044978Y-46935801D01*
X87181379Y-46879302D01*
X87305575Y-46854599D01*
X87326180Y-46850500D01*
X87473820Y-46850500D01*
X87494425Y-46854599D01*
X87494425Y-46854599D01*
G37*
G36*
X95114425Y-46854599D02*
G01*
X95238621Y-46879302D01*
X95375022Y-46935801D01*
X95497779Y-47017825D01*
X95602175Y-47122221D01*
X95684199Y-47244978D01*
X95740698Y-47381379D01*
X95752642Y-47441429D01*
X95768359Y-47520442D01*
X95769500Y-47526181D01*
X95769500Y-47673819D01*
X95740698Y-47818621D01*
X95684199Y-47955022D01*
X95602175Y-48077779D01*
X95497779Y-48182175D01*
X95375022Y-48264199D01*
X95238621Y-48320698D01*
X95114425Y-48345401D01*
X95093820Y-48349500D01*
X94946180Y-48349500D01*
X94925575Y-48345401D01*
X94801379Y-48320698D01*
X94664978Y-48264199D01*
X94542221Y-48182175D01*
X94437825Y-48077779D01*
X94355801Y-47955022D01*
X94299302Y-47818621D01*
X94270500Y-47673819D01*
X94270500Y-47526181D01*
X94271642Y-47520442D01*
X94287358Y-47441429D01*
X94299302Y-47381379D01*
X94355801Y-47244978D01*
X94437825Y-47122221D01*
X94542221Y-47017825D01*
X94664978Y-46935801D01*
X94801379Y-46879302D01*
X94925575Y-46854599D01*
X94946180Y-46850500D01*
X95093820Y-46850500D01*
X95114425Y-46854599D01*
X95114425Y-46854599D01*
G37*
G36*
X80563028Y-46374903D02*
G01*
X80717900Y-46439053D01*
X80857281Y-46532185D01*
X80975815Y-46650719D01*
X81068947Y-46790100D01*
X81133097Y-46944972D01*
X81165800Y-47109384D01*
X81165800Y-47277016D01*
X81133097Y-47441428D01*
X81068947Y-47596300D01*
X80975815Y-47735681D01*
X80857281Y-47854215D01*
X80717900Y-47947347D01*
X80563028Y-48011497D01*
X80398616Y-48044200D01*
X80230984Y-48044200D01*
X80066572Y-48011497D01*
X79911700Y-47947347D01*
X79772319Y-47854215D01*
X79653785Y-47735681D01*
X79560653Y-47596300D01*
X79496503Y-47441428D01*
X79463800Y-47277016D01*
X79463800Y-47109384D01*
X79496503Y-46944972D01*
X79560653Y-46790100D01*
X79653785Y-46650719D01*
X79772319Y-46532185D01*
X79911700Y-46439053D01*
X80066572Y-46374903D01*
X80230984Y-46342200D01*
X80398616Y-46342200D01*
X80563028Y-46374903D01*
X80563028Y-46374903D01*
G37*
G36*
X84291623Y-46354513D02*
G01*
X84452042Y-46403176D01*
X84519161Y-46439052D01*
X84599878Y-46482196D01*
X84729459Y-46588541D01*
X84835804Y-46718122D01*
X84835805Y-46718124D01*
X84914824Y-46865958D01*
X84963487Y-47026377D01*
X84979917Y-47193200D01*
X84963487Y-47360023D01*
X84914824Y-47520442D01*
X84874277Y-47596300D01*
X84835804Y-47668278D01*
X84729459Y-47797859D01*
X84599878Y-47904204D01*
X84599876Y-47904205D01*
X84452042Y-47983224D01*
X84291623Y-48031887D01*
X84166604Y-48044200D01*
X84082996Y-48044200D01*
X83957977Y-48031887D01*
X83797558Y-47983224D01*
X83649724Y-47904205D01*
X83649722Y-47904204D01*
X83520141Y-47797859D01*
X83413796Y-47668278D01*
X83375323Y-47596300D01*
X83334776Y-47520442D01*
X83286113Y-47360023D01*
X83269683Y-47193200D01*
X83286113Y-47026377D01*
X83334776Y-46865958D01*
X83413795Y-46718124D01*
X83413796Y-46718122D01*
X83520141Y-46588541D01*
X83649722Y-46482196D01*
X83730439Y-46439052D01*
X83797558Y-46403176D01*
X83957977Y-46354513D01*
X84082996Y-46342200D01*
X84166604Y-46342200D01*
X84291623Y-46354513D01*
X84291623Y-46354513D01*
G37*
G36*
X132490056Y-43891298D02*
G01*
X132596379Y-43912447D01*
X132896842Y-44036903D01*
X133167251Y-44217585D01*
X133397215Y-44447549D01*
X133577897Y-44717958D01*
X133702353Y-45018421D01*
X133765800Y-45337391D01*
X133765800Y-45662609D01*
X133702353Y-45981579D01*
X133577897Y-46282042D01*
X133397215Y-46552451D01*
X133167251Y-46782415D01*
X132896842Y-46963097D01*
X132596379Y-47087553D01*
X132490056Y-47108702D01*
X132277411Y-47151000D01*
X131952189Y-47151000D01*
X131739544Y-47108702D01*
X131633221Y-47087553D01*
X131332758Y-46963097D01*
X131062349Y-46782415D01*
X130832385Y-46552451D01*
X130651703Y-46282042D01*
X130527247Y-45981579D01*
X130463800Y-45662609D01*
X130463800Y-45337391D01*
X130527247Y-45018421D01*
X130651703Y-44717958D01*
X130832385Y-44447549D01*
X131062349Y-44217585D01*
X131332758Y-44036903D01*
X131633221Y-43912447D01*
X131739544Y-43891298D01*
X131952189Y-43849000D01*
X132277411Y-43849000D01*
X132490056Y-43891298D01*
X132490056Y-43891298D01*
G37*
G36*
X49346456Y-43891298D02*
G01*
X49452779Y-43912447D01*
X49753242Y-44036903D01*
X50023651Y-44217585D01*
X50253615Y-44447549D01*
X50434297Y-44717958D01*
X50558753Y-45018421D01*
X50622200Y-45337391D01*
X50622200Y-45662609D01*
X50558753Y-45981579D01*
X50434297Y-46282042D01*
X50253615Y-46552451D01*
X50023651Y-46782415D01*
X49753242Y-46963097D01*
X49452779Y-47087553D01*
X49346456Y-47108702D01*
X49133811Y-47151000D01*
X48808589Y-47151000D01*
X48595944Y-47108702D01*
X48489621Y-47087553D01*
X48189158Y-46963097D01*
X47918749Y-46782415D01*
X47688785Y-46552451D01*
X47508103Y-46282042D01*
X47383647Y-45981579D01*
X47320200Y-45662609D01*
X47320200Y-45337391D01*
X47383647Y-45018421D01*
X47508103Y-44717958D01*
X47688785Y-44447549D01*
X47918749Y-44217585D01*
X48189158Y-44036903D01*
X48489621Y-43912447D01*
X48595944Y-43891298D01*
X48808589Y-43849000D01*
X49133811Y-43849000D01*
X49346456Y-43891298D01*
X49346456Y-43891298D01*
G37*
G36*
X122201000Y-46901000D02*
G01*
X119599000Y-46901000D01*
X119599000Y-44299000D01*
X122201000Y-44299000D01*
X122201000Y-46901000D01*
X122201000Y-46901000D01*
G37*
M02*
