G04 #@! TF.GenerationSoftware,KiCad,Pcbnew,(5.1.2-1)-1*
G04 #@! TF.CreationDate,2019-07-12T16:43:51-07:00*
G04 #@! TF.ProjectId,wavegenerator_v1,77617665-6765-46e6-9572-61746f725f76,rev?*
G04 #@! TF.SameCoordinates,Original*
G04 #@! TF.FileFunction,Copper,L1,Top*
G04 #@! TF.FilePolarity,Positive*
%FSLAX46Y46*%
G04 Gerber Fmt 4.6, Leading zero omitted, Abs format (unit mm)*
G04 Created by KiCad (PCBNEW (5.1.2-1)-1) date 2019-07-12 16:43:51*
%MOMM*%
%LPD*%
G04 APERTURE LIST*
%ADD10C,1.600000*%
%ADD11C,1.524000*%
%ADD12O,1.600000X1.600000*%
%ADD13C,2.500000*%
%ADD14C,1.700000*%
%ADD15R,1.200000X3.500000*%
%ADD16R,1.500000X2.200000*%
%ADD17R,1.200000X0.900000*%
%ADD18C,0.100000*%
%ADD19C,0.975000*%
%ADD20C,1.900000*%
%ADD21C,1.300000*%
%ADD22R,1.397000X1.397000*%
%ADD23C,1.397000*%
%ADD24R,1.600000X1.600000*%
%ADD25R,2.000000X1.500000*%
%ADD26R,2.000000X3.800000*%
%ADD27C,1.824000*%
%ADD28C,2.700000*%
%ADD29C,0.600000*%
%ADD30R,2.500000X2.500000*%
%ADD31O,1.700000X1.700000*%
%ADD32R,1.700000X1.700000*%
%ADD33R,0.550000X1.600000*%
%ADD34R,1.600000X0.550000*%
%ADD35C,2.000000*%
%ADD36O,1.250000X0.950000*%
%ADD37R,1.500000X1.650000*%
%ADD38O,1.000000X1.650000*%
%ADD39R,0.400000X1.650000*%
%ADD40R,1.200000X1.650000*%
%ADD41C,0.800000*%
%ADD42C,0.250000*%
%ADD43C,0.300000*%
%ADD44C,0.400000*%
G04 APERTURE END LIST*
D10*
X59780000Y-71010000D03*
X59780000Y-73550000D03*
X59780000Y-76090000D03*
X59780000Y-78630000D03*
X59780000Y-81170000D03*
X59780000Y-83710000D03*
X59780000Y-86250000D03*
X59780000Y-88790000D03*
D11*
X94140000Y-75330000D03*
X94140000Y-77870000D03*
X94140000Y-80410000D03*
X94140000Y-82950000D03*
X102010000Y-75450000D03*
X102010000Y-77950000D03*
X102010000Y-80410000D03*
X102010000Y-82950000D03*
D12*
X111800000Y-73540000D03*
D10*
X111800000Y-83700000D03*
X100800000Y-87000000D03*
X98300000Y-87000000D03*
D13*
X117300000Y-87350000D03*
X128700000Y-87350000D03*
D14*
X120540000Y-80350000D03*
X123040000Y-80350000D03*
X125540000Y-80350000D03*
D13*
X117300000Y-73350000D03*
X128700000Y-73350000D03*
D14*
X120540000Y-66350000D03*
X123040000Y-66350000D03*
X125540000Y-66350000D03*
D13*
X117200000Y-59250000D03*
X128600000Y-59250000D03*
D14*
X120440000Y-52250000D03*
X122940000Y-52250000D03*
X125440000Y-52250000D03*
D15*
X82800000Y-80450000D03*
X82800000Y-74950000D03*
D16*
X79900000Y-94700000D03*
X86300000Y-94700000D03*
D17*
X83100000Y-84550000D03*
X83100000Y-87850000D03*
D18*
G36*
X73980142Y-82836174D02*
G01*
X74003803Y-82839684D01*
X74027007Y-82845496D01*
X74049529Y-82853554D01*
X74071153Y-82863782D01*
X74091670Y-82876079D01*
X74110883Y-82890329D01*
X74128607Y-82906393D01*
X74144671Y-82924117D01*
X74158921Y-82943330D01*
X74171218Y-82963847D01*
X74181446Y-82985471D01*
X74189504Y-83007993D01*
X74195316Y-83031197D01*
X74198826Y-83054858D01*
X74200000Y-83078750D01*
X74200000Y-83566250D01*
X74198826Y-83590142D01*
X74195316Y-83613803D01*
X74189504Y-83637007D01*
X74181446Y-83659529D01*
X74171218Y-83681153D01*
X74158921Y-83701670D01*
X74144671Y-83720883D01*
X74128607Y-83738607D01*
X74110883Y-83754671D01*
X74091670Y-83768921D01*
X74071153Y-83781218D01*
X74049529Y-83791446D01*
X74027007Y-83799504D01*
X74003803Y-83805316D01*
X73980142Y-83808826D01*
X73956250Y-83810000D01*
X73043750Y-83810000D01*
X73019858Y-83808826D01*
X72996197Y-83805316D01*
X72972993Y-83799504D01*
X72950471Y-83791446D01*
X72928847Y-83781218D01*
X72908330Y-83768921D01*
X72889117Y-83754671D01*
X72871393Y-83738607D01*
X72855329Y-83720883D01*
X72841079Y-83701670D01*
X72828782Y-83681153D01*
X72818554Y-83659529D01*
X72810496Y-83637007D01*
X72804684Y-83613803D01*
X72801174Y-83590142D01*
X72800000Y-83566250D01*
X72800000Y-83078750D01*
X72801174Y-83054858D01*
X72804684Y-83031197D01*
X72810496Y-83007993D01*
X72818554Y-82985471D01*
X72828782Y-82963847D01*
X72841079Y-82943330D01*
X72855329Y-82924117D01*
X72871393Y-82906393D01*
X72889117Y-82890329D01*
X72908330Y-82876079D01*
X72928847Y-82863782D01*
X72950471Y-82853554D01*
X72972993Y-82845496D01*
X72996197Y-82839684D01*
X73019858Y-82836174D01*
X73043750Y-82835000D01*
X73956250Y-82835000D01*
X73980142Y-82836174D01*
X73980142Y-82836174D01*
G37*
D19*
X73500000Y-83322500D03*
D18*
G36*
X73980142Y-84711174D02*
G01*
X74003803Y-84714684D01*
X74027007Y-84720496D01*
X74049529Y-84728554D01*
X74071153Y-84738782D01*
X74091670Y-84751079D01*
X74110883Y-84765329D01*
X74128607Y-84781393D01*
X74144671Y-84799117D01*
X74158921Y-84818330D01*
X74171218Y-84838847D01*
X74181446Y-84860471D01*
X74189504Y-84882993D01*
X74195316Y-84906197D01*
X74198826Y-84929858D01*
X74200000Y-84953750D01*
X74200000Y-85441250D01*
X74198826Y-85465142D01*
X74195316Y-85488803D01*
X74189504Y-85512007D01*
X74181446Y-85534529D01*
X74171218Y-85556153D01*
X74158921Y-85576670D01*
X74144671Y-85595883D01*
X74128607Y-85613607D01*
X74110883Y-85629671D01*
X74091670Y-85643921D01*
X74071153Y-85656218D01*
X74049529Y-85666446D01*
X74027007Y-85674504D01*
X74003803Y-85680316D01*
X73980142Y-85683826D01*
X73956250Y-85685000D01*
X73043750Y-85685000D01*
X73019858Y-85683826D01*
X72996197Y-85680316D01*
X72972993Y-85674504D01*
X72950471Y-85666446D01*
X72928847Y-85656218D01*
X72908330Y-85643921D01*
X72889117Y-85629671D01*
X72871393Y-85613607D01*
X72855329Y-85595883D01*
X72841079Y-85576670D01*
X72828782Y-85556153D01*
X72818554Y-85534529D01*
X72810496Y-85512007D01*
X72804684Y-85488803D01*
X72801174Y-85465142D01*
X72800000Y-85441250D01*
X72800000Y-84953750D01*
X72801174Y-84929858D01*
X72804684Y-84906197D01*
X72810496Y-84882993D01*
X72818554Y-84860471D01*
X72828782Y-84838847D01*
X72841079Y-84818330D01*
X72855329Y-84799117D01*
X72871393Y-84781393D01*
X72889117Y-84765329D01*
X72908330Y-84751079D01*
X72928847Y-84738782D01*
X72950471Y-84728554D01*
X72972993Y-84720496D01*
X72996197Y-84714684D01*
X73019858Y-84711174D01*
X73043750Y-84710000D01*
X73956250Y-84710000D01*
X73980142Y-84711174D01*
X73980142Y-84711174D01*
G37*
D19*
X73500000Y-85197500D03*
D18*
G36*
X76580142Y-82836174D02*
G01*
X76603803Y-82839684D01*
X76627007Y-82845496D01*
X76649529Y-82853554D01*
X76671153Y-82863782D01*
X76691670Y-82876079D01*
X76710883Y-82890329D01*
X76728607Y-82906393D01*
X76744671Y-82924117D01*
X76758921Y-82943330D01*
X76771218Y-82963847D01*
X76781446Y-82985471D01*
X76789504Y-83007993D01*
X76795316Y-83031197D01*
X76798826Y-83054858D01*
X76800000Y-83078750D01*
X76800000Y-83566250D01*
X76798826Y-83590142D01*
X76795316Y-83613803D01*
X76789504Y-83637007D01*
X76781446Y-83659529D01*
X76771218Y-83681153D01*
X76758921Y-83701670D01*
X76744671Y-83720883D01*
X76728607Y-83738607D01*
X76710883Y-83754671D01*
X76691670Y-83768921D01*
X76671153Y-83781218D01*
X76649529Y-83791446D01*
X76627007Y-83799504D01*
X76603803Y-83805316D01*
X76580142Y-83808826D01*
X76556250Y-83810000D01*
X75643750Y-83810000D01*
X75619858Y-83808826D01*
X75596197Y-83805316D01*
X75572993Y-83799504D01*
X75550471Y-83791446D01*
X75528847Y-83781218D01*
X75508330Y-83768921D01*
X75489117Y-83754671D01*
X75471393Y-83738607D01*
X75455329Y-83720883D01*
X75441079Y-83701670D01*
X75428782Y-83681153D01*
X75418554Y-83659529D01*
X75410496Y-83637007D01*
X75404684Y-83613803D01*
X75401174Y-83590142D01*
X75400000Y-83566250D01*
X75400000Y-83078750D01*
X75401174Y-83054858D01*
X75404684Y-83031197D01*
X75410496Y-83007993D01*
X75418554Y-82985471D01*
X75428782Y-82963847D01*
X75441079Y-82943330D01*
X75455329Y-82924117D01*
X75471393Y-82906393D01*
X75489117Y-82890329D01*
X75508330Y-82876079D01*
X75528847Y-82863782D01*
X75550471Y-82853554D01*
X75572993Y-82845496D01*
X75596197Y-82839684D01*
X75619858Y-82836174D01*
X75643750Y-82835000D01*
X76556250Y-82835000D01*
X76580142Y-82836174D01*
X76580142Y-82836174D01*
G37*
D19*
X76100000Y-83322500D03*
D18*
G36*
X76580142Y-84711174D02*
G01*
X76603803Y-84714684D01*
X76627007Y-84720496D01*
X76649529Y-84728554D01*
X76671153Y-84738782D01*
X76691670Y-84751079D01*
X76710883Y-84765329D01*
X76728607Y-84781393D01*
X76744671Y-84799117D01*
X76758921Y-84818330D01*
X76771218Y-84838847D01*
X76781446Y-84860471D01*
X76789504Y-84882993D01*
X76795316Y-84906197D01*
X76798826Y-84929858D01*
X76800000Y-84953750D01*
X76800000Y-85441250D01*
X76798826Y-85465142D01*
X76795316Y-85488803D01*
X76789504Y-85512007D01*
X76781446Y-85534529D01*
X76771218Y-85556153D01*
X76758921Y-85576670D01*
X76744671Y-85595883D01*
X76728607Y-85613607D01*
X76710883Y-85629671D01*
X76691670Y-85643921D01*
X76671153Y-85656218D01*
X76649529Y-85666446D01*
X76627007Y-85674504D01*
X76603803Y-85680316D01*
X76580142Y-85683826D01*
X76556250Y-85685000D01*
X75643750Y-85685000D01*
X75619858Y-85683826D01*
X75596197Y-85680316D01*
X75572993Y-85674504D01*
X75550471Y-85666446D01*
X75528847Y-85656218D01*
X75508330Y-85643921D01*
X75489117Y-85629671D01*
X75471393Y-85613607D01*
X75455329Y-85595883D01*
X75441079Y-85576670D01*
X75428782Y-85556153D01*
X75418554Y-85534529D01*
X75410496Y-85512007D01*
X75404684Y-85488803D01*
X75401174Y-85465142D01*
X75400000Y-85441250D01*
X75400000Y-84953750D01*
X75401174Y-84929858D01*
X75404684Y-84906197D01*
X75410496Y-84882993D01*
X75418554Y-84860471D01*
X75428782Y-84838847D01*
X75441079Y-84818330D01*
X75455329Y-84799117D01*
X75471393Y-84781393D01*
X75489117Y-84765329D01*
X75508330Y-84751079D01*
X75528847Y-84738782D01*
X75550471Y-84728554D01*
X75572993Y-84720496D01*
X75596197Y-84714684D01*
X75619858Y-84711174D01*
X75643750Y-84710000D01*
X76556250Y-84710000D01*
X76580142Y-84711174D01*
X76580142Y-84711174D01*
G37*
D19*
X76100000Y-85197500D03*
D18*
G36*
X57530142Y-96201174D02*
G01*
X57553803Y-96204684D01*
X57577007Y-96210496D01*
X57599529Y-96218554D01*
X57621153Y-96228782D01*
X57641670Y-96241079D01*
X57660883Y-96255329D01*
X57678607Y-96271393D01*
X57694671Y-96289117D01*
X57708921Y-96308330D01*
X57721218Y-96328847D01*
X57731446Y-96350471D01*
X57739504Y-96372993D01*
X57745316Y-96396197D01*
X57748826Y-96419858D01*
X57750000Y-96443750D01*
X57750000Y-97356250D01*
X57748826Y-97380142D01*
X57745316Y-97403803D01*
X57739504Y-97427007D01*
X57731446Y-97449529D01*
X57721218Y-97471153D01*
X57708921Y-97491670D01*
X57694671Y-97510883D01*
X57678607Y-97528607D01*
X57660883Y-97544671D01*
X57641670Y-97558921D01*
X57621153Y-97571218D01*
X57599529Y-97581446D01*
X57577007Y-97589504D01*
X57553803Y-97595316D01*
X57530142Y-97598826D01*
X57506250Y-97600000D01*
X57018750Y-97600000D01*
X56994858Y-97598826D01*
X56971197Y-97595316D01*
X56947993Y-97589504D01*
X56925471Y-97581446D01*
X56903847Y-97571218D01*
X56883330Y-97558921D01*
X56864117Y-97544671D01*
X56846393Y-97528607D01*
X56830329Y-97510883D01*
X56816079Y-97491670D01*
X56803782Y-97471153D01*
X56793554Y-97449529D01*
X56785496Y-97427007D01*
X56779684Y-97403803D01*
X56776174Y-97380142D01*
X56775000Y-97356250D01*
X56775000Y-96443750D01*
X56776174Y-96419858D01*
X56779684Y-96396197D01*
X56785496Y-96372993D01*
X56793554Y-96350471D01*
X56803782Y-96328847D01*
X56816079Y-96308330D01*
X56830329Y-96289117D01*
X56846393Y-96271393D01*
X56864117Y-96255329D01*
X56883330Y-96241079D01*
X56903847Y-96228782D01*
X56925471Y-96218554D01*
X56947993Y-96210496D01*
X56971197Y-96204684D01*
X56994858Y-96201174D01*
X57018750Y-96200000D01*
X57506250Y-96200000D01*
X57530142Y-96201174D01*
X57530142Y-96201174D01*
G37*
D19*
X57262500Y-96900000D03*
D18*
G36*
X59405142Y-96201174D02*
G01*
X59428803Y-96204684D01*
X59452007Y-96210496D01*
X59474529Y-96218554D01*
X59496153Y-96228782D01*
X59516670Y-96241079D01*
X59535883Y-96255329D01*
X59553607Y-96271393D01*
X59569671Y-96289117D01*
X59583921Y-96308330D01*
X59596218Y-96328847D01*
X59606446Y-96350471D01*
X59614504Y-96372993D01*
X59620316Y-96396197D01*
X59623826Y-96419858D01*
X59625000Y-96443750D01*
X59625000Y-97356250D01*
X59623826Y-97380142D01*
X59620316Y-97403803D01*
X59614504Y-97427007D01*
X59606446Y-97449529D01*
X59596218Y-97471153D01*
X59583921Y-97491670D01*
X59569671Y-97510883D01*
X59553607Y-97528607D01*
X59535883Y-97544671D01*
X59516670Y-97558921D01*
X59496153Y-97571218D01*
X59474529Y-97581446D01*
X59452007Y-97589504D01*
X59428803Y-97595316D01*
X59405142Y-97598826D01*
X59381250Y-97600000D01*
X58893750Y-97600000D01*
X58869858Y-97598826D01*
X58846197Y-97595316D01*
X58822993Y-97589504D01*
X58800471Y-97581446D01*
X58778847Y-97571218D01*
X58758330Y-97558921D01*
X58739117Y-97544671D01*
X58721393Y-97528607D01*
X58705329Y-97510883D01*
X58691079Y-97491670D01*
X58678782Y-97471153D01*
X58668554Y-97449529D01*
X58660496Y-97427007D01*
X58654684Y-97403803D01*
X58651174Y-97380142D01*
X58650000Y-97356250D01*
X58650000Y-96443750D01*
X58651174Y-96419858D01*
X58654684Y-96396197D01*
X58660496Y-96372993D01*
X58668554Y-96350471D01*
X58678782Y-96328847D01*
X58691079Y-96308330D01*
X58705329Y-96289117D01*
X58721393Y-96271393D01*
X58739117Y-96255329D01*
X58758330Y-96241079D01*
X58778847Y-96228782D01*
X58800471Y-96218554D01*
X58822993Y-96210496D01*
X58846197Y-96204684D01*
X58869858Y-96201174D01*
X58893750Y-96200000D01*
X59381250Y-96200000D01*
X59405142Y-96201174D01*
X59405142Y-96201174D01*
G37*
D19*
X59137500Y-96900000D03*
D18*
G36*
X54805142Y-96201174D02*
G01*
X54828803Y-96204684D01*
X54852007Y-96210496D01*
X54874529Y-96218554D01*
X54896153Y-96228782D01*
X54916670Y-96241079D01*
X54935883Y-96255329D01*
X54953607Y-96271393D01*
X54969671Y-96289117D01*
X54983921Y-96308330D01*
X54996218Y-96328847D01*
X55006446Y-96350471D01*
X55014504Y-96372993D01*
X55020316Y-96396197D01*
X55023826Y-96419858D01*
X55025000Y-96443750D01*
X55025000Y-97356250D01*
X55023826Y-97380142D01*
X55020316Y-97403803D01*
X55014504Y-97427007D01*
X55006446Y-97449529D01*
X54996218Y-97471153D01*
X54983921Y-97491670D01*
X54969671Y-97510883D01*
X54953607Y-97528607D01*
X54935883Y-97544671D01*
X54916670Y-97558921D01*
X54896153Y-97571218D01*
X54874529Y-97581446D01*
X54852007Y-97589504D01*
X54828803Y-97595316D01*
X54805142Y-97598826D01*
X54781250Y-97600000D01*
X54293750Y-97600000D01*
X54269858Y-97598826D01*
X54246197Y-97595316D01*
X54222993Y-97589504D01*
X54200471Y-97581446D01*
X54178847Y-97571218D01*
X54158330Y-97558921D01*
X54139117Y-97544671D01*
X54121393Y-97528607D01*
X54105329Y-97510883D01*
X54091079Y-97491670D01*
X54078782Y-97471153D01*
X54068554Y-97449529D01*
X54060496Y-97427007D01*
X54054684Y-97403803D01*
X54051174Y-97380142D01*
X54050000Y-97356250D01*
X54050000Y-96443750D01*
X54051174Y-96419858D01*
X54054684Y-96396197D01*
X54060496Y-96372993D01*
X54068554Y-96350471D01*
X54078782Y-96328847D01*
X54091079Y-96308330D01*
X54105329Y-96289117D01*
X54121393Y-96271393D01*
X54139117Y-96255329D01*
X54158330Y-96241079D01*
X54178847Y-96228782D01*
X54200471Y-96218554D01*
X54222993Y-96210496D01*
X54246197Y-96204684D01*
X54269858Y-96201174D01*
X54293750Y-96200000D01*
X54781250Y-96200000D01*
X54805142Y-96201174D01*
X54805142Y-96201174D01*
G37*
D19*
X54537500Y-96900000D03*
D18*
G36*
X52930142Y-96201174D02*
G01*
X52953803Y-96204684D01*
X52977007Y-96210496D01*
X52999529Y-96218554D01*
X53021153Y-96228782D01*
X53041670Y-96241079D01*
X53060883Y-96255329D01*
X53078607Y-96271393D01*
X53094671Y-96289117D01*
X53108921Y-96308330D01*
X53121218Y-96328847D01*
X53131446Y-96350471D01*
X53139504Y-96372993D01*
X53145316Y-96396197D01*
X53148826Y-96419858D01*
X53150000Y-96443750D01*
X53150000Y-97356250D01*
X53148826Y-97380142D01*
X53145316Y-97403803D01*
X53139504Y-97427007D01*
X53131446Y-97449529D01*
X53121218Y-97471153D01*
X53108921Y-97491670D01*
X53094671Y-97510883D01*
X53078607Y-97528607D01*
X53060883Y-97544671D01*
X53041670Y-97558921D01*
X53021153Y-97571218D01*
X52999529Y-97581446D01*
X52977007Y-97589504D01*
X52953803Y-97595316D01*
X52930142Y-97598826D01*
X52906250Y-97600000D01*
X52418750Y-97600000D01*
X52394858Y-97598826D01*
X52371197Y-97595316D01*
X52347993Y-97589504D01*
X52325471Y-97581446D01*
X52303847Y-97571218D01*
X52283330Y-97558921D01*
X52264117Y-97544671D01*
X52246393Y-97528607D01*
X52230329Y-97510883D01*
X52216079Y-97491670D01*
X52203782Y-97471153D01*
X52193554Y-97449529D01*
X52185496Y-97427007D01*
X52179684Y-97403803D01*
X52176174Y-97380142D01*
X52175000Y-97356250D01*
X52175000Y-96443750D01*
X52176174Y-96419858D01*
X52179684Y-96396197D01*
X52185496Y-96372993D01*
X52193554Y-96350471D01*
X52203782Y-96328847D01*
X52216079Y-96308330D01*
X52230329Y-96289117D01*
X52246393Y-96271393D01*
X52264117Y-96255329D01*
X52283330Y-96241079D01*
X52303847Y-96228782D01*
X52325471Y-96218554D01*
X52347993Y-96210496D01*
X52371197Y-96204684D01*
X52394858Y-96201174D01*
X52418750Y-96200000D01*
X52906250Y-96200000D01*
X52930142Y-96201174D01*
X52930142Y-96201174D01*
G37*
D19*
X52662500Y-96900000D03*
D10*
X97900000Y-62600000D03*
X100400000Y-62600000D03*
X80700000Y-60400000D03*
X83200000Y-60400000D03*
X110700000Y-60700000D03*
X113200000Y-60700000D03*
X97900000Y-58600000D03*
X100400000Y-58600000D03*
X98000000Y-54500000D03*
X100500000Y-54500000D03*
X98000000Y-50200000D03*
X100500000Y-50200000D03*
D20*
X105720000Y-49060000D03*
D21*
X105720000Y-51160000D03*
X105720000Y-53160000D03*
X105720000Y-55160000D03*
X105720000Y-59160000D03*
D20*
X105720000Y-61260000D03*
D18*
G36*
X68780142Y-61676174D02*
G01*
X68803803Y-61679684D01*
X68827007Y-61685496D01*
X68849529Y-61693554D01*
X68871153Y-61703782D01*
X68891670Y-61716079D01*
X68910883Y-61730329D01*
X68928607Y-61746393D01*
X68944671Y-61764117D01*
X68958921Y-61783330D01*
X68971218Y-61803847D01*
X68981446Y-61825471D01*
X68989504Y-61847993D01*
X68995316Y-61871197D01*
X68998826Y-61894858D01*
X69000000Y-61918750D01*
X69000000Y-62406250D01*
X68998826Y-62430142D01*
X68995316Y-62453803D01*
X68989504Y-62477007D01*
X68981446Y-62499529D01*
X68971218Y-62521153D01*
X68958921Y-62541670D01*
X68944671Y-62560883D01*
X68928607Y-62578607D01*
X68910883Y-62594671D01*
X68891670Y-62608921D01*
X68871153Y-62621218D01*
X68849529Y-62631446D01*
X68827007Y-62639504D01*
X68803803Y-62645316D01*
X68780142Y-62648826D01*
X68756250Y-62650000D01*
X67843750Y-62650000D01*
X67819858Y-62648826D01*
X67796197Y-62645316D01*
X67772993Y-62639504D01*
X67750471Y-62631446D01*
X67728847Y-62621218D01*
X67708330Y-62608921D01*
X67689117Y-62594671D01*
X67671393Y-62578607D01*
X67655329Y-62560883D01*
X67641079Y-62541670D01*
X67628782Y-62521153D01*
X67618554Y-62499529D01*
X67610496Y-62477007D01*
X67604684Y-62453803D01*
X67601174Y-62430142D01*
X67600000Y-62406250D01*
X67600000Y-61918750D01*
X67601174Y-61894858D01*
X67604684Y-61871197D01*
X67610496Y-61847993D01*
X67618554Y-61825471D01*
X67628782Y-61803847D01*
X67641079Y-61783330D01*
X67655329Y-61764117D01*
X67671393Y-61746393D01*
X67689117Y-61730329D01*
X67708330Y-61716079D01*
X67728847Y-61703782D01*
X67750471Y-61693554D01*
X67772993Y-61685496D01*
X67796197Y-61679684D01*
X67819858Y-61676174D01*
X67843750Y-61675000D01*
X68756250Y-61675000D01*
X68780142Y-61676174D01*
X68780142Y-61676174D01*
G37*
D19*
X68300000Y-62162500D03*
D18*
G36*
X68780142Y-63551174D02*
G01*
X68803803Y-63554684D01*
X68827007Y-63560496D01*
X68849529Y-63568554D01*
X68871153Y-63578782D01*
X68891670Y-63591079D01*
X68910883Y-63605329D01*
X68928607Y-63621393D01*
X68944671Y-63639117D01*
X68958921Y-63658330D01*
X68971218Y-63678847D01*
X68981446Y-63700471D01*
X68989504Y-63722993D01*
X68995316Y-63746197D01*
X68998826Y-63769858D01*
X69000000Y-63793750D01*
X69000000Y-64281250D01*
X68998826Y-64305142D01*
X68995316Y-64328803D01*
X68989504Y-64352007D01*
X68981446Y-64374529D01*
X68971218Y-64396153D01*
X68958921Y-64416670D01*
X68944671Y-64435883D01*
X68928607Y-64453607D01*
X68910883Y-64469671D01*
X68891670Y-64483921D01*
X68871153Y-64496218D01*
X68849529Y-64506446D01*
X68827007Y-64514504D01*
X68803803Y-64520316D01*
X68780142Y-64523826D01*
X68756250Y-64525000D01*
X67843750Y-64525000D01*
X67819858Y-64523826D01*
X67796197Y-64520316D01*
X67772993Y-64514504D01*
X67750471Y-64506446D01*
X67728847Y-64496218D01*
X67708330Y-64483921D01*
X67689117Y-64469671D01*
X67671393Y-64453607D01*
X67655329Y-64435883D01*
X67641079Y-64416670D01*
X67628782Y-64396153D01*
X67618554Y-64374529D01*
X67610496Y-64352007D01*
X67604684Y-64328803D01*
X67601174Y-64305142D01*
X67600000Y-64281250D01*
X67600000Y-63793750D01*
X67601174Y-63769858D01*
X67604684Y-63746197D01*
X67610496Y-63722993D01*
X67618554Y-63700471D01*
X67628782Y-63678847D01*
X67641079Y-63658330D01*
X67655329Y-63639117D01*
X67671393Y-63621393D01*
X67689117Y-63605329D01*
X67708330Y-63591079D01*
X67728847Y-63578782D01*
X67750471Y-63568554D01*
X67772993Y-63560496D01*
X67796197Y-63554684D01*
X67819858Y-63551174D01*
X67843750Y-63550000D01*
X68756250Y-63550000D01*
X68780142Y-63551174D01*
X68780142Y-63551174D01*
G37*
D19*
X68300000Y-64037500D03*
D22*
X95020000Y-70460000D03*
D23*
X95020000Y-67920000D03*
X95020000Y-65380000D03*
X95020000Y-62840000D03*
X95020000Y-60300000D03*
X95020000Y-57760000D03*
X95020000Y-55220000D03*
X95020000Y-52680000D03*
X95020000Y-50140000D03*
X95020000Y-47600000D03*
X87400000Y-47600000D03*
X87400000Y-50140000D03*
X87400000Y-52680000D03*
X87400000Y-55220000D03*
X87400000Y-57760000D03*
X87400000Y-60300000D03*
X87400000Y-62840000D03*
X87400000Y-65380000D03*
X87400000Y-67920000D03*
X87400000Y-70460000D03*
D18*
G36*
X68980142Y-88876174D02*
G01*
X69003803Y-88879684D01*
X69027007Y-88885496D01*
X69049529Y-88893554D01*
X69071153Y-88903782D01*
X69091670Y-88916079D01*
X69110883Y-88930329D01*
X69128607Y-88946393D01*
X69144671Y-88964117D01*
X69158921Y-88983330D01*
X69171218Y-89003847D01*
X69181446Y-89025471D01*
X69189504Y-89047993D01*
X69195316Y-89071197D01*
X69198826Y-89094858D01*
X69200000Y-89118750D01*
X69200000Y-89606250D01*
X69198826Y-89630142D01*
X69195316Y-89653803D01*
X69189504Y-89677007D01*
X69181446Y-89699529D01*
X69171218Y-89721153D01*
X69158921Y-89741670D01*
X69144671Y-89760883D01*
X69128607Y-89778607D01*
X69110883Y-89794671D01*
X69091670Y-89808921D01*
X69071153Y-89821218D01*
X69049529Y-89831446D01*
X69027007Y-89839504D01*
X69003803Y-89845316D01*
X68980142Y-89848826D01*
X68956250Y-89850000D01*
X68043750Y-89850000D01*
X68019858Y-89848826D01*
X67996197Y-89845316D01*
X67972993Y-89839504D01*
X67950471Y-89831446D01*
X67928847Y-89821218D01*
X67908330Y-89808921D01*
X67889117Y-89794671D01*
X67871393Y-89778607D01*
X67855329Y-89760883D01*
X67841079Y-89741670D01*
X67828782Y-89721153D01*
X67818554Y-89699529D01*
X67810496Y-89677007D01*
X67804684Y-89653803D01*
X67801174Y-89630142D01*
X67800000Y-89606250D01*
X67800000Y-89118750D01*
X67801174Y-89094858D01*
X67804684Y-89071197D01*
X67810496Y-89047993D01*
X67818554Y-89025471D01*
X67828782Y-89003847D01*
X67841079Y-88983330D01*
X67855329Y-88964117D01*
X67871393Y-88946393D01*
X67889117Y-88930329D01*
X67908330Y-88916079D01*
X67928847Y-88903782D01*
X67950471Y-88893554D01*
X67972993Y-88885496D01*
X67996197Y-88879684D01*
X68019858Y-88876174D01*
X68043750Y-88875000D01*
X68956250Y-88875000D01*
X68980142Y-88876174D01*
X68980142Y-88876174D01*
G37*
D19*
X68500000Y-89362500D03*
D18*
G36*
X68980142Y-90751174D02*
G01*
X69003803Y-90754684D01*
X69027007Y-90760496D01*
X69049529Y-90768554D01*
X69071153Y-90778782D01*
X69091670Y-90791079D01*
X69110883Y-90805329D01*
X69128607Y-90821393D01*
X69144671Y-90839117D01*
X69158921Y-90858330D01*
X69171218Y-90878847D01*
X69181446Y-90900471D01*
X69189504Y-90922993D01*
X69195316Y-90946197D01*
X69198826Y-90969858D01*
X69200000Y-90993750D01*
X69200000Y-91481250D01*
X69198826Y-91505142D01*
X69195316Y-91528803D01*
X69189504Y-91552007D01*
X69181446Y-91574529D01*
X69171218Y-91596153D01*
X69158921Y-91616670D01*
X69144671Y-91635883D01*
X69128607Y-91653607D01*
X69110883Y-91669671D01*
X69091670Y-91683921D01*
X69071153Y-91696218D01*
X69049529Y-91706446D01*
X69027007Y-91714504D01*
X69003803Y-91720316D01*
X68980142Y-91723826D01*
X68956250Y-91725000D01*
X68043750Y-91725000D01*
X68019858Y-91723826D01*
X67996197Y-91720316D01*
X67972993Y-91714504D01*
X67950471Y-91706446D01*
X67928847Y-91696218D01*
X67908330Y-91683921D01*
X67889117Y-91669671D01*
X67871393Y-91653607D01*
X67855329Y-91635883D01*
X67841079Y-91616670D01*
X67828782Y-91596153D01*
X67818554Y-91574529D01*
X67810496Y-91552007D01*
X67804684Y-91528803D01*
X67801174Y-91505142D01*
X67800000Y-91481250D01*
X67800000Y-90993750D01*
X67801174Y-90969858D01*
X67804684Y-90946197D01*
X67810496Y-90922993D01*
X67818554Y-90900471D01*
X67828782Y-90878847D01*
X67841079Y-90858330D01*
X67855329Y-90839117D01*
X67871393Y-90821393D01*
X67889117Y-90805329D01*
X67908330Y-90791079D01*
X67928847Y-90778782D01*
X67950471Y-90768554D01*
X67972993Y-90760496D01*
X67996197Y-90754684D01*
X68019858Y-90751174D01*
X68043750Y-90750000D01*
X68956250Y-90750000D01*
X68980142Y-90751174D01*
X68980142Y-90751174D01*
G37*
D19*
X68500000Y-91237500D03*
D18*
G36*
X57230142Y-58201174D02*
G01*
X57253803Y-58204684D01*
X57277007Y-58210496D01*
X57299529Y-58218554D01*
X57321153Y-58228782D01*
X57341670Y-58241079D01*
X57360883Y-58255329D01*
X57378607Y-58271393D01*
X57394671Y-58289117D01*
X57408921Y-58308330D01*
X57421218Y-58328847D01*
X57431446Y-58350471D01*
X57439504Y-58372993D01*
X57445316Y-58396197D01*
X57448826Y-58419858D01*
X57450000Y-58443750D01*
X57450000Y-59356250D01*
X57448826Y-59380142D01*
X57445316Y-59403803D01*
X57439504Y-59427007D01*
X57431446Y-59449529D01*
X57421218Y-59471153D01*
X57408921Y-59491670D01*
X57394671Y-59510883D01*
X57378607Y-59528607D01*
X57360883Y-59544671D01*
X57341670Y-59558921D01*
X57321153Y-59571218D01*
X57299529Y-59581446D01*
X57277007Y-59589504D01*
X57253803Y-59595316D01*
X57230142Y-59598826D01*
X57206250Y-59600000D01*
X56718750Y-59600000D01*
X56694858Y-59598826D01*
X56671197Y-59595316D01*
X56647993Y-59589504D01*
X56625471Y-59581446D01*
X56603847Y-59571218D01*
X56583330Y-59558921D01*
X56564117Y-59544671D01*
X56546393Y-59528607D01*
X56530329Y-59510883D01*
X56516079Y-59491670D01*
X56503782Y-59471153D01*
X56493554Y-59449529D01*
X56485496Y-59427007D01*
X56479684Y-59403803D01*
X56476174Y-59380142D01*
X56475000Y-59356250D01*
X56475000Y-58443750D01*
X56476174Y-58419858D01*
X56479684Y-58396197D01*
X56485496Y-58372993D01*
X56493554Y-58350471D01*
X56503782Y-58328847D01*
X56516079Y-58308330D01*
X56530329Y-58289117D01*
X56546393Y-58271393D01*
X56564117Y-58255329D01*
X56583330Y-58241079D01*
X56603847Y-58228782D01*
X56625471Y-58218554D01*
X56647993Y-58210496D01*
X56671197Y-58204684D01*
X56694858Y-58201174D01*
X56718750Y-58200000D01*
X57206250Y-58200000D01*
X57230142Y-58201174D01*
X57230142Y-58201174D01*
G37*
D19*
X56962500Y-58900000D03*
D18*
G36*
X59105142Y-58201174D02*
G01*
X59128803Y-58204684D01*
X59152007Y-58210496D01*
X59174529Y-58218554D01*
X59196153Y-58228782D01*
X59216670Y-58241079D01*
X59235883Y-58255329D01*
X59253607Y-58271393D01*
X59269671Y-58289117D01*
X59283921Y-58308330D01*
X59296218Y-58328847D01*
X59306446Y-58350471D01*
X59314504Y-58372993D01*
X59320316Y-58396197D01*
X59323826Y-58419858D01*
X59325000Y-58443750D01*
X59325000Y-59356250D01*
X59323826Y-59380142D01*
X59320316Y-59403803D01*
X59314504Y-59427007D01*
X59306446Y-59449529D01*
X59296218Y-59471153D01*
X59283921Y-59491670D01*
X59269671Y-59510883D01*
X59253607Y-59528607D01*
X59235883Y-59544671D01*
X59216670Y-59558921D01*
X59196153Y-59571218D01*
X59174529Y-59581446D01*
X59152007Y-59589504D01*
X59128803Y-59595316D01*
X59105142Y-59598826D01*
X59081250Y-59600000D01*
X58593750Y-59600000D01*
X58569858Y-59598826D01*
X58546197Y-59595316D01*
X58522993Y-59589504D01*
X58500471Y-59581446D01*
X58478847Y-59571218D01*
X58458330Y-59558921D01*
X58439117Y-59544671D01*
X58421393Y-59528607D01*
X58405329Y-59510883D01*
X58391079Y-59491670D01*
X58378782Y-59471153D01*
X58368554Y-59449529D01*
X58360496Y-59427007D01*
X58354684Y-59403803D01*
X58351174Y-59380142D01*
X58350000Y-59356250D01*
X58350000Y-58443750D01*
X58351174Y-58419858D01*
X58354684Y-58396197D01*
X58360496Y-58372993D01*
X58368554Y-58350471D01*
X58378782Y-58328847D01*
X58391079Y-58308330D01*
X58405329Y-58289117D01*
X58421393Y-58271393D01*
X58439117Y-58255329D01*
X58458330Y-58241079D01*
X58478847Y-58228782D01*
X58500471Y-58218554D01*
X58522993Y-58210496D01*
X58546197Y-58204684D01*
X58569858Y-58201174D01*
X58593750Y-58200000D01*
X59081250Y-58200000D01*
X59105142Y-58201174D01*
X59105142Y-58201174D01*
G37*
D19*
X58837500Y-58900000D03*
D10*
X88700000Y-84600000D03*
D24*
X88700000Y-82100000D03*
D18*
G36*
X79880142Y-85776174D02*
G01*
X79903803Y-85779684D01*
X79927007Y-85785496D01*
X79949529Y-85793554D01*
X79971153Y-85803782D01*
X79991670Y-85816079D01*
X80010883Y-85830329D01*
X80028607Y-85846393D01*
X80044671Y-85864117D01*
X80058921Y-85883330D01*
X80071218Y-85903847D01*
X80081446Y-85925471D01*
X80089504Y-85947993D01*
X80095316Y-85971197D01*
X80098826Y-85994858D01*
X80100000Y-86018750D01*
X80100000Y-86506250D01*
X80098826Y-86530142D01*
X80095316Y-86553803D01*
X80089504Y-86577007D01*
X80081446Y-86599529D01*
X80071218Y-86621153D01*
X80058921Y-86641670D01*
X80044671Y-86660883D01*
X80028607Y-86678607D01*
X80010883Y-86694671D01*
X79991670Y-86708921D01*
X79971153Y-86721218D01*
X79949529Y-86731446D01*
X79927007Y-86739504D01*
X79903803Y-86745316D01*
X79880142Y-86748826D01*
X79856250Y-86750000D01*
X78943750Y-86750000D01*
X78919858Y-86748826D01*
X78896197Y-86745316D01*
X78872993Y-86739504D01*
X78850471Y-86731446D01*
X78828847Y-86721218D01*
X78808330Y-86708921D01*
X78789117Y-86694671D01*
X78771393Y-86678607D01*
X78755329Y-86660883D01*
X78741079Y-86641670D01*
X78728782Y-86621153D01*
X78718554Y-86599529D01*
X78710496Y-86577007D01*
X78704684Y-86553803D01*
X78701174Y-86530142D01*
X78700000Y-86506250D01*
X78700000Y-86018750D01*
X78701174Y-85994858D01*
X78704684Y-85971197D01*
X78710496Y-85947993D01*
X78718554Y-85925471D01*
X78728782Y-85903847D01*
X78741079Y-85883330D01*
X78755329Y-85864117D01*
X78771393Y-85846393D01*
X78789117Y-85830329D01*
X78808330Y-85816079D01*
X78828847Y-85803782D01*
X78850471Y-85793554D01*
X78872993Y-85785496D01*
X78896197Y-85779684D01*
X78919858Y-85776174D01*
X78943750Y-85775000D01*
X79856250Y-85775000D01*
X79880142Y-85776174D01*
X79880142Y-85776174D01*
G37*
D19*
X79400000Y-86262500D03*
D18*
G36*
X79880142Y-87651174D02*
G01*
X79903803Y-87654684D01*
X79927007Y-87660496D01*
X79949529Y-87668554D01*
X79971153Y-87678782D01*
X79991670Y-87691079D01*
X80010883Y-87705329D01*
X80028607Y-87721393D01*
X80044671Y-87739117D01*
X80058921Y-87758330D01*
X80071218Y-87778847D01*
X80081446Y-87800471D01*
X80089504Y-87822993D01*
X80095316Y-87846197D01*
X80098826Y-87869858D01*
X80100000Y-87893750D01*
X80100000Y-88381250D01*
X80098826Y-88405142D01*
X80095316Y-88428803D01*
X80089504Y-88452007D01*
X80081446Y-88474529D01*
X80071218Y-88496153D01*
X80058921Y-88516670D01*
X80044671Y-88535883D01*
X80028607Y-88553607D01*
X80010883Y-88569671D01*
X79991670Y-88583921D01*
X79971153Y-88596218D01*
X79949529Y-88606446D01*
X79927007Y-88614504D01*
X79903803Y-88620316D01*
X79880142Y-88623826D01*
X79856250Y-88625000D01*
X78943750Y-88625000D01*
X78919858Y-88623826D01*
X78896197Y-88620316D01*
X78872993Y-88614504D01*
X78850471Y-88606446D01*
X78828847Y-88596218D01*
X78808330Y-88583921D01*
X78789117Y-88569671D01*
X78771393Y-88553607D01*
X78755329Y-88535883D01*
X78741079Y-88516670D01*
X78728782Y-88496153D01*
X78718554Y-88474529D01*
X78710496Y-88452007D01*
X78704684Y-88428803D01*
X78701174Y-88405142D01*
X78700000Y-88381250D01*
X78700000Y-87893750D01*
X78701174Y-87869858D01*
X78704684Y-87846197D01*
X78710496Y-87822993D01*
X78718554Y-87800471D01*
X78728782Y-87778847D01*
X78741079Y-87758330D01*
X78755329Y-87739117D01*
X78771393Y-87721393D01*
X78789117Y-87705329D01*
X78808330Y-87691079D01*
X78828847Y-87678782D01*
X78850471Y-87668554D01*
X78872993Y-87660496D01*
X78896197Y-87654684D01*
X78919858Y-87651174D01*
X78943750Y-87650000D01*
X79856250Y-87650000D01*
X79880142Y-87651174D01*
X79880142Y-87651174D01*
G37*
D19*
X79400000Y-88137500D03*
D10*
X67200000Y-81100000D03*
D24*
X67200000Y-83600000D03*
D18*
G36*
X79180142Y-74476174D02*
G01*
X79203803Y-74479684D01*
X79227007Y-74485496D01*
X79249529Y-74493554D01*
X79271153Y-74503782D01*
X79291670Y-74516079D01*
X79310883Y-74530329D01*
X79328607Y-74546393D01*
X79344671Y-74564117D01*
X79358921Y-74583330D01*
X79371218Y-74603847D01*
X79381446Y-74625471D01*
X79389504Y-74647993D01*
X79395316Y-74671197D01*
X79398826Y-74694858D01*
X79400000Y-74718750D01*
X79400000Y-75206250D01*
X79398826Y-75230142D01*
X79395316Y-75253803D01*
X79389504Y-75277007D01*
X79381446Y-75299529D01*
X79371218Y-75321153D01*
X79358921Y-75341670D01*
X79344671Y-75360883D01*
X79328607Y-75378607D01*
X79310883Y-75394671D01*
X79291670Y-75408921D01*
X79271153Y-75421218D01*
X79249529Y-75431446D01*
X79227007Y-75439504D01*
X79203803Y-75445316D01*
X79180142Y-75448826D01*
X79156250Y-75450000D01*
X78243750Y-75450000D01*
X78219858Y-75448826D01*
X78196197Y-75445316D01*
X78172993Y-75439504D01*
X78150471Y-75431446D01*
X78128847Y-75421218D01*
X78108330Y-75408921D01*
X78089117Y-75394671D01*
X78071393Y-75378607D01*
X78055329Y-75360883D01*
X78041079Y-75341670D01*
X78028782Y-75321153D01*
X78018554Y-75299529D01*
X78010496Y-75277007D01*
X78004684Y-75253803D01*
X78001174Y-75230142D01*
X78000000Y-75206250D01*
X78000000Y-74718750D01*
X78001174Y-74694858D01*
X78004684Y-74671197D01*
X78010496Y-74647993D01*
X78018554Y-74625471D01*
X78028782Y-74603847D01*
X78041079Y-74583330D01*
X78055329Y-74564117D01*
X78071393Y-74546393D01*
X78089117Y-74530329D01*
X78108330Y-74516079D01*
X78128847Y-74503782D01*
X78150471Y-74493554D01*
X78172993Y-74485496D01*
X78196197Y-74479684D01*
X78219858Y-74476174D01*
X78243750Y-74475000D01*
X79156250Y-74475000D01*
X79180142Y-74476174D01*
X79180142Y-74476174D01*
G37*
D19*
X78700000Y-74962500D03*
D18*
G36*
X79180142Y-76351174D02*
G01*
X79203803Y-76354684D01*
X79227007Y-76360496D01*
X79249529Y-76368554D01*
X79271153Y-76378782D01*
X79291670Y-76391079D01*
X79310883Y-76405329D01*
X79328607Y-76421393D01*
X79344671Y-76439117D01*
X79358921Y-76458330D01*
X79371218Y-76478847D01*
X79381446Y-76500471D01*
X79389504Y-76522993D01*
X79395316Y-76546197D01*
X79398826Y-76569858D01*
X79400000Y-76593750D01*
X79400000Y-77081250D01*
X79398826Y-77105142D01*
X79395316Y-77128803D01*
X79389504Y-77152007D01*
X79381446Y-77174529D01*
X79371218Y-77196153D01*
X79358921Y-77216670D01*
X79344671Y-77235883D01*
X79328607Y-77253607D01*
X79310883Y-77269671D01*
X79291670Y-77283921D01*
X79271153Y-77296218D01*
X79249529Y-77306446D01*
X79227007Y-77314504D01*
X79203803Y-77320316D01*
X79180142Y-77323826D01*
X79156250Y-77325000D01*
X78243750Y-77325000D01*
X78219858Y-77323826D01*
X78196197Y-77320316D01*
X78172993Y-77314504D01*
X78150471Y-77306446D01*
X78128847Y-77296218D01*
X78108330Y-77283921D01*
X78089117Y-77269671D01*
X78071393Y-77253607D01*
X78055329Y-77235883D01*
X78041079Y-77216670D01*
X78028782Y-77196153D01*
X78018554Y-77174529D01*
X78010496Y-77152007D01*
X78004684Y-77128803D01*
X78001174Y-77105142D01*
X78000000Y-77081250D01*
X78000000Y-76593750D01*
X78001174Y-76569858D01*
X78004684Y-76546197D01*
X78010496Y-76522993D01*
X78018554Y-76500471D01*
X78028782Y-76478847D01*
X78041079Y-76458330D01*
X78055329Y-76439117D01*
X78071393Y-76421393D01*
X78089117Y-76405329D01*
X78108330Y-76391079D01*
X78128847Y-76378782D01*
X78150471Y-76368554D01*
X78172993Y-76360496D01*
X78196197Y-76354684D01*
X78219858Y-76351174D01*
X78243750Y-76350000D01*
X79156250Y-76350000D01*
X79180142Y-76351174D01*
X79180142Y-76351174D01*
G37*
D19*
X78700000Y-76837500D03*
D18*
G36*
X79180142Y-78676174D02*
G01*
X79203803Y-78679684D01*
X79227007Y-78685496D01*
X79249529Y-78693554D01*
X79271153Y-78703782D01*
X79291670Y-78716079D01*
X79310883Y-78730329D01*
X79328607Y-78746393D01*
X79344671Y-78764117D01*
X79358921Y-78783330D01*
X79371218Y-78803847D01*
X79381446Y-78825471D01*
X79389504Y-78847993D01*
X79395316Y-78871197D01*
X79398826Y-78894858D01*
X79400000Y-78918750D01*
X79400000Y-79406250D01*
X79398826Y-79430142D01*
X79395316Y-79453803D01*
X79389504Y-79477007D01*
X79381446Y-79499529D01*
X79371218Y-79521153D01*
X79358921Y-79541670D01*
X79344671Y-79560883D01*
X79328607Y-79578607D01*
X79310883Y-79594671D01*
X79291670Y-79608921D01*
X79271153Y-79621218D01*
X79249529Y-79631446D01*
X79227007Y-79639504D01*
X79203803Y-79645316D01*
X79180142Y-79648826D01*
X79156250Y-79650000D01*
X78243750Y-79650000D01*
X78219858Y-79648826D01*
X78196197Y-79645316D01*
X78172993Y-79639504D01*
X78150471Y-79631446D01*
X78128847Y-79621218D01*
X78108330Y-79608921D01*
X78089117Y-79594671D01*
X78071393Y-79578607D01*
X78055329Y-79560883D01*
X78041079Y-79541670D01*
X78028782Y-79521153D01*
X78018554Y-79499529D01*
X78010496Y-79477007D01*
X78004684Y-79453803D01*
X78001174Y-79430142D01*
X78000000Y-79406250D01*
X78000000Y-78918750D01*
X78001174Y-78894858D01*
X78004684Y-78871197D01*
X78010496Y-78847993D01*
X78018554Y-78825471D01*
X78028782Y-78803847D01*
X78041079Y-78783330D01*
X78055329Y-78764117D01*
X78071393Y-78746393D01*
X78089117Y-78730329D01*
X78108330Y-78716079D01*
X78128847Y-78703782D01*
X78150471Y-78693554D01*
X78172993Y-78685496D01*
X78196197Y-78679684D01*
X78219858Y-78676174D01*
X78243750Y-78675000D01*
X79156250Y-78675000D01*
X79180142Y-78676174D01*
X79180142Y-78676174D01*
G37*
D19*
X78700000Y-79162500D03*
D18*
G36*
X79180142Y-80551174D02*
G01*
X79203803Y-80554684D01*
X79227007Y-80560496D01*
X79249529Y-80568554D01*
X79271153Y-80578782D01*
X79291670Y-80591079D01*
X79310883Y-80605329D01*
X79328607Y-80621393D01*
X79344671Y-80639117D01*
X79358921Y-80658330D01*
X79371218Y-80678847D01*
X79381446Y-80700471D01*
X79389504Y-80722993D01*
X79395316Y-80746197D01*
X79398826Y-80769858D01*
X79400000Y-80793750D01*
X79400000Y-81281250D01*
X79398826Y-81305142D01*
X79395316Y-81328803D01*
X79389504Y-81352007D01*
X79381446Y-81374529D01*
X79371218Y-81396153D01*
X79358921Y-81416670D01*
X79344671Y-81435883D01*
X79328607Y-81453607D01*
X79310883Y-81469671D01*
X79291670Y-81483921D01*
X79271153Y-81496218D01*
X79249529Y-81506446D01*
X79227007Y-81514504D01*
X79203803Y-81520316D01*
X79180142Y-81523826D01*
X79156250Y-81525000D01*
X78243750Y-81525000D01*
X78219858Y-81523826D01*
X78196197Y-81520316D01*
X78172993Y-81514504D01*
X78150471Y-81506446D01*
X78128847Y-81496218D01*
X78108330Y-81483921D01*
X78089117Y-81469671D01*
X78071393Y-81453607D01*
X78055329Y-81435883D01*
X78041079Y-81416670D01*
X78028782Y-81396153D01*
X78018554Y-81374529D01*
X78010496Y-81352007D01*
X78004684Y-81328803D01*
X78001174Y-81305142D01*
X78000000Y-81281250D01*
X78000000Y-80793750D01*
X78001174Y-80769858D01*
X78004684Y-80746197D01*
X78010496Y-80722993D01*
X78018554Y-80700471D01*
X78028782Y-80678847D01*
X78041079Y-80658330D01*
X78055329Y-80639117D01*
X78071393Y-80621393D01*
X78089117Y-80605329D01*
X78108330Y-80591079D01*
X78128847Y-80578782D01*
X78150471Y-80568554D01*
X78172993Y-80560496D01*
X78196197Y-80554684D01*
X78219858Y-80551174D01*
X78243750Y-80550000D01*
X79156250Y-80550000D01*
X79180142Y-80551174D01*
X79180142Y-80551174D01*
G37*
D19*
X78700000Y-81037500D03*
D18*
G36*
X71180142Y-63551174D02*
G01*
X71203803Y-63554684D01*
X71227007Y-63560496D01*
X71249529Y-63568554D01*
X71271153Y-63578782D01*
X71291670Y-63591079D01*
X71310883Y-63605329D01*
X71328607Y-63621393D01*
X71344671Y-63639117D01*
X71358921Y-63658330D01*
X71371218Y-63678847D01*
X71381446Y-63700471D01*
X71389504Y-63722993D01*
X71395316Y-63746197D01*
X71398826Y-63769858D01*
X71400000Y-63793750D01*
X71400000Y-64281250D01*
X71398826Y-64305142D01*
X71395316Y-64328803D01*
X71389504Y-64352007D01*
X71381446Y-64374529D01*
X71371218Y-64396153D01*
X71358921Y-64416670D01*
X71344671Y-64435883D01*
X71328607Y-64453607D01*
X71310883Y-64469671D01*
X71291670Y-64483921D01*
X71271153Y-64496218D01*
X71249529Y-64506446D01*
X71227007Y-64514504D01*
X71203803Y-64520316D01*
X71180142Y-64523826D01*
X71156250Y-64525000D01*
X70243750Y-64525000D01*
X70219858Y-64523826D01*
X70196197Y-64520316D01*
X70172993Y-64514504D01*
X70150471Y-64506446D01*
X70128847Y-64496218D01*
X70108330Y-64483921D01*
X70089117Y-64469671D01*
X70071393Y-64453607D01*
X70055329Y-64435883D01*
X70041079Y-64416670D01*
X70028782Y-64396153D01*
X70018554Y-64374529D01*
X70010496Y-64352007D01*
X70004684Y-64328803D01*
X70001174Y-64305142D01*
X70000000Y-64281250D01*
X70000000Y-63793750D01*
X70001174Y-63769858D01*
X70004684Y-63746197D01*
X70010496Y-63722993D01*
X70018554Y-63700471D01*
X70028782Y-63678847D01*
X70041079Y-63658330D01*
X70055329Y-63639117D01*
X70071393Y-63621393D01*
X70089117Y-63605329D01*
X70108330Y-63591079D01*
X70128847Y-63578782D01*
X70150471Y-63568554D01*
X70172993Y-63560496D01*
X70196197Y-63554684D01*
X70219858Y-63551174D01*
X70243750Y-63550000D01*
X71156250Y-63550000D01*
X71180142Y-63551174D01*
X71180142Y-63551174D01*
G37*
D19*
X70700000Y-64037500D03*
D18*
G36*
X71180142Y-61676174D02*
G01*
X71203803Y-61679684D01*
X71227007Y-61685496D01*
X71249529Y-61693554D01*
X71271153Y-61703782D01*
X71291670Y-61716079D01*
X71310883Y-61730329D01*
X71328607Y-61746393D01*
X71344671Y-61764117D01*
X71358921Y-61783330D01*
X71371218Y-61803847D01*
X71381446Y-61825471D01*
X71389504Y-61847993D01*
X71395316Y-61871197D01*
X71398826Y-61894858D01*
X71400000Y-61918750D01*
X71400000Y-62406250D01*
X71398826Y-62430142D01*
X71395316Y-62453803D01*
X71389504Y-62477007D01*
X71381446Y-62499529D01*
X71371218Y-62521153D01*
X71358921Y-62541670D01*
X71344671Y-62560883D01*
X71328607Y-62578607D01*
X71310883Y-62594671D01*
X71291670Y-62608921D01*
X71271153Y-62621218D01*
X71249529Y-62631446D01*
X71227007Y-62639504D01*
X71203803Y-62645316D01*
X71180142Y-62648826D01*
X71156250Y-62650000D01*
X70243750Y-62650000D01*
X70219858Y-62648826D01*
X70196197Y-62645316D01*
X70172993Y-62639504D01*
X70150471Y-62631446D01*
X70128847Y-62621218D01*
X70108330Y-62608921D01*
X70089117Y-62594671D01*
X70071393Y-62578607D01*
X70055329Y-62560883D01*
X70041079Y-62541670D01*
X70028782Y-62521153D01*
X70018554Y-62499529D01*
X70010496Y-62477007D01*
X70004684Y-62453803D01*
X70001174Y-62430142D01*
X70000000Y-62406250D01*
X70000000Y-61918750D01*
X70001174Y-61894858D01*
X70004684Y-61871197D01*
X70010496Y-61847993D01*
X70018554Y-61825471D01*
X70028782Y-61803847D01*
X70041079Y-61783330D01*
X70055329Y-61764117D01*
X70071393Y-61746393D01*
X70089117Y-61730329D01*
X70108330Y-61716079D01*
X70128847Y-61703782D01*
X70150471Y-61693554D01*
X70172993Y-61685496D01*
X70196197Y-61679684D01*
X70219858Y-61676174D01*
X70243750Y-61675000D01*
X71156250Y-61675000D01*
X71180142Y-61676174D01*
X71180142Y-61676174D01*
G37*
D19*
X70700000Y-62162500D03*
D25*
X50350000Y-89200000D03*
X50350000Y-93800000D03*
X50350000Y-91500000D03*
D26*
X56650000Y-91500000D03*
D27*
X109200000Y-87500000D03*
D28*
X113000000Y-95300000D03*
X105400000Y-95300000D03*
D12*
X104190000Y-68730000D03*
D10*
X114350000Y-68730000D03*
D18*
G36*
X76909703Y-91265722D02*
G01*
X76924264Y-91267882D01*
X76938543Y-91271459D01*
X76952403Y-91276418D01*
X76965710Y-91282712D01*
X76978336Y-91290280D01*
X76990159Y-91299048D01*
X77001066Y-91308934D01*
X77010952Y-91319841D01*
X77019720Y-91331664D01*
X77027288Y-91344290D01*
X77033582Y-91357597D01*
X77038541Y-91371457D01*
X77042118Y-91385736D01*
X77044278Y-91400297D01*
X77045000Y-91415000D01*
X77045000Y-91715000D01*
X77044278Y-91729703D01*
X77042118Y-91744264D01*
X77038541Y-91758543D01*
X77033582Y-91772403D01*
X77027288Y-91785710D01*
X77019720Y-91798336D01*
X77010952Y-91810159D01*
X77001066Y-91821066D01*
X76990159Y-91830952D01*
X76978336Y-91839720D01*
X76965710Y-91847288D01*
X76952403Y-91853582D01*
X76938543Y-91858541D01*
X76924264Y-91862118D01*
X76909703Y-91864278D01*
X76895000Y-91865000D01*
X75245000Y-91865000D01*
X75230297Y-91864278D01*
X75215736Y-91862118D01*
X75201457Y-91858541D01*
X75187597Y-91853582D01*
X75174290Y-91847288D01*
X75161664Y-91839720D01*
X75149841Y-91830952D01*
X75138934Y-91821066D01*
X75129048Y-91810159D01*
X75120280Y-91798336D01*
X75112712Y-91785710D01*
X75106418Y-91772403D01*
X75101459Y-91758543D01*
X75097882Y-91744264D01*
X75095722Y-91729703D01*
X75095000Y-91715000D01*
X75095000Y-91415000D01*
X75095722Y-91400297D01*
X75097882Y-91385736D01*
X75101459Y-91371457D01*
X75106418Y-91357597D01*
X75112712Y-91344290D01*
X75120280Y-91331664D01*
X75129048Y-91319841D01*
X75138934Y-91308934D01*
X75149841Y-91299048D01*
X75161664Y-91290280D01*
X75174290Y-91282712D01*
X75187597Y-91276418D01*
X75201457Y-91271459D01*
X75215736Y-91267882D01*
X75230297Y-91265722D01*
X75245000Y-91265000D01*
X76895000Y-91265000D01*
X76909703Y-91265722D01*
X76909703Y-91265722D01*
G37*
D29*
X76070000Y-91565000D03*
D18*
G36*
X76909703Y-89995722D02*
G01*
X76924264Y-89997882D01*
X76938543Y-90001459D01*
X76952403Y-90006418D01*
X76965710Y-90012712D01*
X76978336Y-90020280D01*
X76990159Y-90029048D01*
X77001066Y-90038934D01*
X77010952Y-90049841D01*
X77019720Y-90061664D01*
X77027288Y-90074290D01*
X77033582Y-90087597D01*
X77038541Y-90101457D01*
X77042118Y-90115736D01*
X77044278Y-90130297D01*
X77045000Y-90145000D01*
X77045000Y-90445000D01*
X77044278Y-90459703D01*
X77042118Y-90474264D01*
X77038541Y-90488543D01*
X77033582Y-90502403D01*
X77027288Y-90515710D01*
X77019720Y-90528336D01*
X77010952Y-90540159D01*
X77001066Y-90551066D01*
X76990159Y-90560952D01*
X76978336Y-90569720D01*
X76965710Y-90577288D01*
X76952403Y-90583582D01*
X76938543Y-90588541D01*
X76924264Y-90592118D01*
X76909703Y-90594278D01*
X76895000Y-90595000D01*
X75245000Y-90595000D01*
X75230297Y-90594278D01*
X75215736Y-90592118D01*
X75201457Y-90588541D01*
X75187597Y-90583582D01*
X75174290Y-90577288D01*
X75161664Y-90569720D01*
X75149841Y-90560952D01*
X75138934Y-90551066D01*
X75129048Y-90540159D01*
X75120280Y-90528336D01*
X75112712Y-90515710D01*
X75106418Y-90502403D01*
X75101459Y-90488543D01*
X75097882Y-90474264D01*
X75095722Y-90459703D01*
X75095000Y-90445000D01*
X75095000Y-90145000D01*
X75095722Y-90130297D01*
X75097882Y-90115736D01*
X75101459Y-90101457D01*
X75106418Y-90087597D01*
X75112712Y-90074290D01*
X75120280Y-90061664D01*
X75129048Y-90049841D01*
X75138934Y-90038934D01*
X75149841Y-90029048D01*
X75161664Y-90020280D01*
X75174290Y-90012712D01*
X75187597Y-90006418D01*
X75201457Y-90001459D01*
X75215736Y-89997882D01*
X75230297Y-89995722D01*
X75245000Y-89995000D01*
X76895000Y-89995000D01*
X76909703Y-89995722D01*
X76909703Y-89995722D01*
G37*
D29*
X76070000Y-90295000D03*
D18*
G36*
X76909703Y-88725722D02*
G01*
X76924264Y-88727882D01*
X76938543Y-88731459D01*
X76952403Y-88736418D01*
X76965710Y-88742712D01*
X76978336Y-88750280D01*
X76990159Y-88759048D01*
X77001066Y-88768934D01*
X77010952Y-88779841D01*
X77019720Y-88791664D01*
X77027288Y-88804290D01*
X77033582Y-88817597D01*
X77038541Y-88831457D01*
X77042118Y-88845736D01*
X77044278Y-88860297D01*
X77045000Y-88875000D01*
X77045000Y-89175000D01*
X77044278Y-89189703D01*
X77042118Y-89204264D01*
X77038541Y-89218543D01*
X77033582Y-89232403D01*
X77027288Y-89245710D01*
X77019720Y-89258336D01*
X77010952Y-89270159D01*
X77001066Y-89281066D01*
X76990159Y-89290952D01*
X76978336Y-89299720D01*
X76965710Y-89307288D01*
X76952403Y-89313582D01*
X76938543Y-89318541D01*
X76924264Y-89322118D01*
X76909703Y-89324278D01*
X76895000Y-89325000D01*
X75245000Y-89325000D01*
X75230297Y-89324278D01*
X75215736Y-89322118D01*
X75201457Y-89318541D01*
X75187597Y-89313582D01*
X75174290Y-89307288D01*
X75161664Y-89299720D01*
X75149841Y-89290952D01*
X75138934Y-89281066D01*
X75129048Y-89270159D01*
X75120280Y-89258336D01*
X75112712Y-89245710D01*
X75106418Y-89232403D01*
X75101459Y-89218543D01*
X75097882Y-89204264D01*
X75095722Y-89189703D01*
X75095000Y-89175000D01*
X75095000Y-88875000D01*
X75095722Y-88860297D01*
X75097882Y-88845736D01*
X75101459Y-88831457D01*
X75106418Y-88817597D01*
X75112712Y-88804290D01*
X75120280Y-88791664D01*
X75129048Y-88779841D01*
X75138934Y-88768934D01*
X75149841Y-88759048D01*
X75161664Y-88750280D01*
X75174290Y-88742712D01*
X75187597Y-88736418D01*
X75201457Y-88731459D01*
X75215736Y-88727882D01*
X75230297Y-88725722D01*
X75245000Y-88725000D01*
X76895000Y-88725000D01*
X76909703Y-88725722D01*
X76909703Y-88725722D01*
G37*
D29*
X76070000Y-89025000D03*
D18*
G36*
X76909703Y-87455722D02*
G01*
X76924264Y-87457882D01*
X76938543Y-87461459D01*
X76952403Y-87466418D01*
X76965710Y-87472712D01*
X76978336Y-87480280D01*
X76990159Y-87489048D01*
X77001066Y-87498934D01*
X77010952Y-87509841D01*
X77019720Y-87521664D01*
X77027288Y-87534290D01*
X77033582Y-87547597D01*
X77038541Y-87561457D01*
X77042118Y-87575736D01*
X77044278Y-87590297D01*
X77045000Y-87605000D01*
X77045000Y-87905000D01*
X77044278Y-87919703D01*
X77042118Y-87934264D01*
X77038541Y-87948543D01*
X77033582Y-87962403D01*
X77027288Y-87975710D01*
X77019720Y-87988336D01*
X77010952Y-88000159D01*
X77001066Y-88011066D01*
X76990159Y-88020952D01*
X76978336Y-88029720D01*
X76965710Y-88037288D01*
X76952403Y-88043582D01*
X76938543Y-88048541D01*
X76924264Y-88052118D01*
X76909703Y-88054278D01*
X76895000Y-88055000D01*
X75245000Y-88055000D01*
X75230297Y-88054278D01*
X75215736Y-88052118D01*
X75201457Y-88048541D01*
X75187597Y-88043582D01*
X75174290Y-88037288D01*
X75161664Y-88029720D01*
X75149841Y-88020952D01*
X75138934Y-88011066D01*
X75129048Y-88000159D01*
X75120280Y-87988336D01*
X75112712Y-87975710D01*
X75106418Y-87962403D01*
X75101459Y-87948543D01*
X75097882Y-87934264D01*
X75095722Y-87919703D01*
X75095000Y-87905000D01*
X75095000Y-87605000D01*
X75095722Y-87590297D01*
X75097882Y-87575736D01*
X75101459Y-87561457D01*
X75106418Y-87547597D01*
X75112712Y-87534290D01*
X75120280Y-87521664D01*
X75129048Y-87509841D01*
X75138934Y-87498934D01*
X75149841Y-87489048D01*
X75161664Y-87480280D01*
X75174290Y-87472712D01*
X75187597Y-87466418D01*
X75201457Y-87461459D01*
X75215736Y-87457882D01*
X75230297Y-87455722D01*
X75245000Y-87455000D01*
X76895000Y-87455000D01*
X76909703Y-87455722D01*
X76909703Y-87455722D01*
G37*
D29*
X76070000Y-87755000D03*
D18*
G36*
X71959703Y-87455722D02*
G01*
X71974264Y-87457882D01*
X71988543Y-87461459D01*
X72002403Y-87466418D01*
X72015710Y-87472712D01*
X72028336Y-87480280D01*
X72040159Y-87489048D01*
X72051066Y-87498934D01*
X72060952Y-87509841D01*
X72069720Y-87521664D01*
X72077288Y-87534290D01*
X72083582Y-87547597D01*
X72088541Y-87561457D01*
X72092118Y-87575736D01*
X72094278Y-87590297D01*
X72095000Y-87605000D01*
X72095000Y-87905000D01*
X72094278Y-87919703D01*
X72092118Y-87934264D01*
X72088541Y-87948543D01*
X72083582Y-87962403D01*
X72077288Y-87975710D01*
X72069720Y-87988336D01*
X72060952Y-88000159D01*
X72051066Y-88011066D01*
X72040159Y-88020952D01*
X72028336Y-88029720D01*
X72015710Y-88037288D01*
X72002403Y-88043582D01*
X71988543Y-88048541D01*
X71974264Y-88052118D01*
X71959703Y-88054278D01*
X71945000Y-88055000D01*
X70295000Y-88055000D01*
X70280297Y-88054278D01*
X70265736Y-88052118D01*
X70251457Y-88048541D01*
X70237597Y-88043582D01*
X70224290Y-88037288D01*
X70211664Y-88029720D01*
X70199841Y-88020952D01*
X70188934Y-88011066D01*
X70179048Y-88000159D01*
X70170280Y-87988336D01*
X70162712Y-87975710D01*
X70156418Y-87962403D01*
X70151459Y-87948543D01*
X70147882Y-87934264D01*
X70145722Y-87919703D01*
X70145000Y-87905000D01*
X70145000Y-87605000D01*
X70145722Y-87590297D01*
X70147882Y-87575736D01*
X70151459Y-87561457D01*
X70156418Y-87547597D01*
X70162712Y-87534290D01*
X70170280Y-87521664D01*
X70179048Y-87509841D01*
X70188934Y-87498934D01*
X70199841Y-87489048D01*
X70211664Y-87480280D01*
X70224290Y-87472712D01*
X70237597Y-87466418D01*
X70251457Y-87461459D01*
X70265736Y-87457882D01*
X70280297Y-87455722D01*
X70295000Y-87455000D01*
X71945000Y-87455000D01*
X71959703Y-87455722D01*
X71959703Y-87455722D01*
G37*
D29*
X71120000Y-87755000D03*
D18*
G36*
X71959703Y-88725722D02*
G01*
X71974264Y-88727882D01*
X71988543Y-88731459D01*
X72002403Y-88736418D01*
X72015710Y-88742712D01*
X72028336Y-88750280D01*
X72040159Y-88759048D01*
X72051066Y-88768934D01*
X72060952Y-88779841D01*
X72069720Y-88791664D01*
X72077288Y-88804290D01*
X72083582Y-88817597D01*
X72088541Y-88831457D01*
X72092118Y-88845736D01*
X72094278Y-88860297D01*
X72095000Y-88875000D01*
X72095000Y-89175000D01*
X72094278Y-89189703D01*
X72092118Y-89204264D01*
X72088541Y-89218543D01*
X72083582Y-89232403D01*
X72077288Y-89245710D01*
X72069720Y-89258336D01*
X72060952Y-89270159D01*
X72051066Y-89281066D01*
X72040159Y-89290952D01*
X72028336Y-89299720D01*
X72015710Y-89307288D01*
X72002403Y-89313582D01*
X71988543Y-89318541D01*
X71974264Y-89322118D01*
X71959703Y-89324278D01*
X71945000Y-89325000D01*
X70295000Y-89325000D01*
X70280297Y-89324278D01*
X70265736Y-89322118D01*
X70251457Y-89318541D01*
X70237597Y-89313582D01*
X70224290Y-89307288D01*
X70211664Y-89299720D01*
X70199841Y-89290952D01*
X70188934Y-89281066D01*
X70179048Y-89270159D01*
X70170280Y-89258336D01*
X70162712Y-89245710D01*
X70156418Y-89232403D01*
X70151459Y-89218543D01*
X70147882Y-89204264D01*
X70145722Y-89189703D01*
X70145000Y-89175000D01*
X70145000Y-88875000D01*
X70145722Y-88860297D01*
X70147882Y-88845736D01*
X70151459Y-88831457D01*
X70156418Y-88817597D01*
X70162712Y-88804290D01*
X70170280Y-88791664D01*
X70179048Y-88779841D01*
X70188934Y-88768934D01*
X70199841Y-88759048D01*
X70211664Y-88750280D01*
X70224290Y-88742712D01*
X70237597Y-88736418D01*
X70251457Y-88731459D01*
X70265736Y-88727882D01*
X70280297Y-88725722D01*
X70295000Y-88725000D01*
X71945000Y-88725000D01*
X71959703Y-88725722D01*
X71959703Y-88725722D01*
G37*
D29*
X71120000Y-89025000D03*
D18*
G36*
X71959703Y-89995722D02*
G01*
X71974264Y-89997882D01*
X71988543Y-90001459D01*
X72002403Y-90006418D01*
X72015710Y-90012712D01*
X72028336Y-90020280D01*
X72040159Y-90029048D01*
X72051066Y-90038934D01*
X72060952Y-90049841D01*
X72069720Y-90061664D01*
X72077288Y-90074290D01*
X72083582Y-90087597D01*
X72088541Y-90101457D01*
X72092118Y-90115736D01*
X72094278Y-90130297D01*
X72095000Y-90145000D01*
X72095000Y-90445000D01*
X72094278Y-90459703D01*
X72092118Y-90474264D01*
X72088541Y-90488543D01*
X72083582Y-90502403D01*
X72077288Y-90515710D01*
X72069720Y-90528336D01*
X72060952Y-90540159D01*
X72051066Y-90551066D01*
X72040159Y-90560952D01*
X72028336Y-90569720D01*
X72015710Y-90577288D01*
X72002403Y-90583582D01*
X71988543Y-90588541D01*
X71974264Y-90592118D01*
X71959703Y-90594278D01*
X71945000Y-90595000D01*
X70295000Y-90595000D01*
X70280297Y-90594278D01*
X70265736Y-90592118D01*
X70251457Y-90588541D01*
X70237597Y-90583582D01*
X70224290Y-90577288D01*
X70211664Y-90569720D01*
X70199841Y-90560952D01*
X70188934Y-90551066D01*
X70179048Y-90540159D01*
X70170280Y-90528336D01*
X70162712Y-90515710D01*
X70156418Y-90502403D01*
X70151459Y-90488543D01*
X70147882Y-90474264D01*
X70145722Y-90459703D01*
X70145000Y-90445000D01*
X70145000Y-90145000D01*
X70145722Y-90130297D01*
X70147882Y-90115736D01*
X70151459Y-90101457D01*
X70156418Y-90087597D01*
X70162712Y-90074290D01*
X70170280Y-90061664D01*
X70179048Y-90049841D01*
X70188934Y-90038934D01*
X70199841Y-90029048D01*
X70211664Y-90020280D01*
X70224290Y-90012712D01*
X70237597Y-90006418D01*
X70251457Y-90001459D01*
X70265736Y-89997882D01*
X70280297Y-89995722D01*
X70295000Y-89995000D01*
X71945000Y-89995000D01*
X71959703Y-89995722D01*
X71959703Y-89995722D01*
G37*
D29*
X71120000Y-90295000D03*
D18*
G36*
X71959703Y-91265722D02*
G01*
X71974264Y-91267882D01*
X71988543Y-91271459D01*
X72002403Y-91276418D01*
X72015710Y-91282712D01*
X72028336Y-91290280D01*
X72040159Y-91299048D01*
X72051066Y-91308934D01*
X72060952Y-91319841D01*
X72069720Y-91331664D01*
X72077288Y-91344290D01*
X72083582Y-91357597D01*
X72088541Y-91371457D01*
X72092118Y-91385736D01*
X72094278Y-91400297D01*
X72095000Y-91415000D01*
X72095000Y-91715000D01*
X72094278Y-91729703D01*
X72092118Y-91744264D01*
X72088541Y-91758543D01*
X72083582Y-91772403D01*
X72077288Y-91785710D01*
X72069720Y-91798336D01*
X72060952Y-91810159D01*
X72051066Y-91821066D01*
X72040159Y-91830952D01*
X72028336Y-91839720D01*
X72015710Y-91847288D01*
X72002403Y-91853582D01*
X71988543Y-91858541D01*
X71974264Y-91862118D01*
X71959703Y-91864278D01*
X71945000Y-91865000D01*
X70295000Y-91865000D01*
X70280297Y-91864278D01*
X70265736Y-91862118D01*
X70251457Y-91858541D01*
X70237597Y-91853582D01*
X70224290Y-91847288D01*
X70211664Y-91839720D01*
X70199841Y-91830952D01*
X70188934Y-91821066D01*
X70179048Y-91810159D01*
X70170280Y-91798336D01*
X70162712Y-91785710D01*
X70156418Y-91772403D01*
X70151459Y-91758543D01*
X70147882Y-91744264D01*
X70145722Y-91729703D01*
X70145000Y-91715000D01*
X70145000Y-91415000D01*
X70145722Y-91400297D01*
X70147882Y-91385736D01*
X70151459Y-91371457D01*
X70156418Y-91357597D01*
X70162712Y-91344290D01*
X70170280Y-91331664D01*
X70179048Y-91319841D01*
X70188934Y-91308934D01*
X70199841Y-91299048D01*
X70211664Y-91290280D01*
X70224290Y-91282712D01*
X70237597Y-91276418D01*
X70251457Y-91271459D01*
X70265736Y-91267882D01*
X70280297Y-91265722D01*
X70295000Y-91265000D01*
X71945000Y-91265000D01*
X71959703Y-91265722D01*
X71959703Y-91265722D01*
G37*
D29*
X71120000Y-91565000D03*
D30*
X120700000Y-45600000D03*
X92900000Y-96900000D03*
X97100000Y-96900000D03*
X62700000Y-62600000D03*
D31*
X117800000Y-95060000D03*
D32*
X117800000Y-97600000D03*
D33*
X65900000Y-76150000D03*
X66700000Y-76150000D03*
X67500000Y-76150000D03*
X68300000Y-76150000D03*
X69100000Y-76150000D03*
X69900000Y-76150000D03*
X70700000Y-76150000D03*
X71500000Y-76150000D03*
D34*
X72950000Y-74700000D03*
X72950000Y-73900000D03*
X72950000Y-73100000D03*
X72950000Y-72300000D03*
X72950000Y-71500000D03*
X72950000Y-70700000D03*
X72950000Y-69900000D03*
X72950000Y-69100000D03*
D33*
X71500000Y-67650000D03*
X70700000Y-67650000D03*
X69900000Y-67650000D03*
X69100000Y-67650000D03*
X68300000Y-67650000D03*
X67500000Y-67650000D03*
X66700000Y-67650000D03*
X65900000Y-67650000D03*
D34*
X64450000Y-69100000D03*
X64450000Y-69900000D03*
X64450000Y-70700000D03*
X64450000Y-71500000D03*
X64450000Y-72300000D03*
X64450000Y-73100000D03*
X64450000Y-73900000D03*
X64450000Y-74700000D03*
D12*
X82700000Y-56960000D03*
D10*
X82700000Y-46800000D03*
D12*
X78800000Y-46840000D03*
D10*
X78800000Y-57000000D03*
D31*
X59500000Y-54500000D03*
X62040000Y-54500000D03*
X64580000Y-54500000D03*
X67120000Y-54500000D03*
X69660000Y-54500000D03*
D32*
X72200000Y-54500000D03*
D10*
X104100000Y-64700000D03*
D12*
X114260000Y-64700000D03*
D35*
X54500000Y-71900000D03*
X50000000Y-71900000D03*
X54500000Y-65400000D03*
X50000000Y-65400000D03*
D12*
X107700000Y-73540000D03*
D10*
X107700000Y-83700000D03*
X83400000Y-70300000D03*
X80900000Y-70300000D03*
X80700000Y-65800000D03*
X83200000Y-65800000D03*
D36*
X67900000Y-95800000D03*
D37*
X71400000Y-98500000D03*
X69400000Y-98500000D03*
D38*
X73900000Y-98500000D03*
X66900000Y-98500000D03*
D36*
X72900000Y-95800000D03*
D39*
X71675000Y-95800000D03*
X71025000Y-95800000D03*
X70375000Y-95800000D03*
X69725000Y-95800000D03*
X69075000Y-95800000D03*
D40*
X67500000Y-98500000D03*
X73300000Y-98500000D03*
D10*
X115200000Y-44500000D03*
D12*
X115200000Y-54660000D03*
D35*
X49900000Y-78500000D03*
X54400000Y-78500000D03*
X49900000Y-85000000D03*
X54400000Y-85000000D03*
D41*
X78700000Y-82200000D03*
X78700000Y-73500000D03*
X69500000Y-60900000D03*
X68300000Y-69000000D03*
X67500000Y-74700000D03*
X69100000Y-74700000D03*
X55900000Y-97000000D03*
X49700000Y-87100000D03*
X73500000Y-82200000D03*
X78300000Y-94700000D03*
X92600000Y-74800000D03*
X92600000Y-73100000D03*
X74700000Y-74700000D03*
X74700000Y-70800000D03*
X54400000Y-82600000D03*
X66100000Y-71500000D03*
X70700000Y-65600000D03*
X66800000Y-65600000D03*
D42*
X78700000Y-81037500D02*
X78700000Y-82200000D01*
X78700000Y-74962500D02*
X78700000Y-74375000D01*
X78700000Y-74375000D02*
X78700000Y-73500000D01*
X67500000Y-98500000D02*
X73300000Y-98500000D01*
X72900000Y-95800000D02*
X71675000Y-95800000D01*
X68300000Y-62100000D02*
X69500000Y-60900000D01*
X68300000Y-62162500D02*
X68300000Y-62100000D01*
X70700000Y-62100000D02*
X69500000Y-60900000D01*
X70700000Y-62162500D02*
X70700000Y-62100000D01*
X68300000Y-67650000D02*
X68300000Y-69000000D01*
X67500000Y-76150000D02*
X67500000Y-74700000D01*
X69100000Y-76150000D02*
X69100000Y-74700000D01*
X56000000Y-96900000D02*
X55900000Y-97000000D01*
X57262500Y-96900000D02*
X56000000Y-96900000D01*
X54637500Y-97000000D02*
X54537500Y-96900000D01*
X55900000Y-97000000D02*
X54637500Y-97000000D01*
X50350000Y-87750000D02*
X49800000Y-87200000D01*
X50350000Y-89200000D02*
X50350000Y-87750000D01*
X73500000Y-83322500D02*
X73500000Y-82200000D01*
X79900000Y-94700000D02*
X78300000Y-94700000D01*
X69100000Y-66600000D02*
X69100000Y-67650000D01*
X69100000Y-65425000D02*
X69100000Y-66600000D01*
X68300000Y-64625000D02*
X69100000Y-65425000D01*
X68300000Y-64037500D02*
X68300000Y-64625000D01*
X105630000Y-51070000D02*
X105720000Y-51160000D01*
D43*
X101460000Y-51160000D02*
X105720000Y-51160000D01*
X100500000Y-50200000D02*
X101460000Y-51160000D01*
D44*
X87240000Y-70300000D02*
X87400000Y-70460000D01*
X83400000Y-70300000D02*
X87240000Y-70300000D01*
X77907500Y-87755000D02*
X79400000Y-86262500D01*
X76070000Y-87755000D02*
X77907500Y-87755000D01*
X83100000Y-85250000D02*
X83100000Y-84550000D01*
X82087500Y-86262500D02*
X83100000Y-85250000D01*
X79400000Y-86262500D02*
X82087500Y-86262500D01*
X89250000Y-84550000D02*
X89300000Y-84600000D01*
X83100000Y-84550000D02*
X89250000Y-84550000D01*
X79400000Y-84300000D02*
X79400000Y-86262500D01*
X78422500Y-83322500D02*
X79400000Y-84300000D01*
X76100000Y-83322500D02*
X78422500Y-83322500D01*
X87400000Y-70460000D02*
X88260000Y-70460000D01*
X100932370Y-75450000D02*
X99382370Y-73900000D01*
X99382370Y-73900000D02*
X91700000Y-73900000D01*
X102010000Y-75450000D02*
X100932370Y-75450000D01*
X88260000Y-70460000D02*
X91700000Y-73900000D01*
X92600000Y-81000000D02*
X92600000Y-84420000D01*
X92600000Y-84420000D02*
X92600000Y-84600000D01*
X91700000Y-73900000D02*
X91700000Y-80100000D01*
X91700000Y-80100000D02*
X92600000Y-81000000D01*
X92900000Y-95700000D02*
X92900000Y-96900000D01*
X92600000Y-95400000D02*
X92900000Y-95700000D01*
X92600000Y-84600000D02*
X92600000Y-95400000D01*
X88700000Y-84600000D02*
X92600000Y-84600000D01*
X87400000Y-62840000D02*
X85400000Y-64840000D01*
X84000000Y-60500000D02*
X87200000Y-60500000D01*
X83200000Y-65800000D02*
X85400000Y-65800000D01*
X85400000Y-64840000D02*
X85400000Y-65800000D01*
X87300000Y-60400000D02*
X87400000Y-60300000D01*
X83200000Y-60400000D02*
X87300000Y-60400000D01*
X52662500Y-96900000D02*
X52662500Y-98562500D01*
X52662500Y-98562500D02*
X52700000Y-98600000D01*
X52700000Y-98600000D02*
X54900000Y-98600000D01*
X54362500Y-98600000D02*
X54900000Y-98600000D01*
X54900000Y-98600000D02*
X60500000Y-98600000D01*
X69082501Y-93682501D02*
X69075000Y-93690002D01*
X69075000Y-93690002D02*
X69075000Y-95800000D01*
X67362500Y-89362500D02*
X68500000Y-89362500D01*
X67200000Y-89200000D02*
X67362500Y-89362500D01*
X70782500Y-89362500D02*
X71120000Y-89025000D01*
X68500000Y-89362500D02*
X70782500Y-89362500D01*
X66400000Y-88400000D02*
X67200000Y-89200000D01*
X66400000Y-84400000D02*
X66400000Y-88400000D01*
X67200000Y-83600000D02*
X66400000Y-84400000D01*
X79100000Y-99100000D02*
X94200000Y-99100000D01*
X94200000Y-99100000D02*
X96000000Y-97300000D01*
X73100000Y-93100000D02*
X79100000Y-99100000D01*
X66000000Y-93100000D02*
X64500000Y-94600000D01*
X64500000Y-94600000D02*
X65417499Y-93682501D01*
X60500000Y-98600000D02*
X64500000Y-94600000D01*
X66000000Y-90400000D02*
X66750000Y-89650000D01*
X66000000Y-93100000D02*
X66000000Y-90400000D01*
X66750000Y-89650000D02*
X66600000Y-89800000D01*
X67200000Y-89200000D02*
X66750000Y-89650000D01*
X69075000Y-93125000D02*
X69100000Y-93100000D01*
X69100000Y-93100000D02*
X66000000Y-93100000D01*
X69075000Y-93690002D02*
X69075000Y-93125000D01*
X73100000Y-93100000D02*
X69100000Y-93100000D01*
X88600000Y-69200000D02*
X92600000Y-73200000D01*
X86400000Y-69200000D02*
X88600000Y-69200000D01*
X85400000Y-68200000D02*
X86400000Y-69200000D01*
X85400000Y-65800000D02*
X85400000Y-68200000D01*
X92600000Y-78870000D02*
X92600000Y-74800000D01*
X94140000Y-80410000D02*
X92600000Y-78870000D01*
X92600000Y-73200000D02*
X92600000Y-73100000D01*
X96200000Y-94500000D02*
X97100000Y-95400000D01*
X97100000Y-95400000D02*
X97100000Y-96900000D01*
X96200000Y-82470000D02*
X96200000Y-94500000D01*
X94140000Y-80410000D02*
X96200000Y-82470000D01*
D42*
X83100000Y-88550000D02*
X83100000Y-87850000D01*
X81355000Y-90295000D02*
X83100000Y-88550000D01*
X76070000Y-90295000D02*
X81355000Y-90295000D01*
X86300000Y-93350000D02*
X86300000Y-94700000D01*
X86300000Y-90900000D02*
X86300000Y-93350000D01*
X83250000Y-87850000D02*
X86300000Y-90900000D01*
X83100000Y-87850000D02*
X83250000Y-87850000D01*
X72300000Y-64900000D02*
X72300000Y-59500000D01*
X69660000Y-56860000D02*
X69660000Y-54500000D01*
X72300000Y-59500000D02*
X69660000Y-56860000D01*
X71500000Y-65700000D02*
X72300000Y-64900000D01*
X71500000Y-67650000D02*
X71500000Y-65700000D01*
X57550000Y-52350000D02*
X55500000Y-54400000D01*
X57700000Y-52200000D02*
X57550000Y-52350000D01*
X64019002Y-52200000D02*
X57700000Y-52200000D01*
X65900000Y-55000000D02*
X65900000Y-54080998D01*
X66575001Y-55675001D02*
X65900000Y-55000000D01*
X68484999Y-55675001D02*
X66575001Y-55675001D01*
X65900000Y-54080998D02*
X64019002Y-52200000D01*
X69660000Y-54500000D02*
X68484999Y-55675001D01*
X70020000Y-51600000D02*
X67120000Y-54500000D01*
X72700000Y-51600000D02*
X70020000Y-51600000D01*
X74500000Y-69400000D02*
X74500000Y-53400000D01*
X74000000Y-69900000D02*
X74500000Y-69400000D01*
X74500000Y-53400000D02*
X72700000Y-51600000D01*
X72950000Y-69900000D02*
X74000000Y-69900000D01*
X53370000Y-81370000D02*
X55570000Y-81370000D01*
X57200000Y-51400000D02*
X51800000Y-56800000D01*
X51800000Y-56800000D02*
X51800000Y-79800000D01*
X64310000Y-51400000D02*
X57200000Y-51400000D01*
X55570000Y-81370000D02*
X59780000Y-81370000D01*
X51800000Y-79800000D02*
X53370000Y-81370000D01*
X67120000Y-54210000D02*
X64310000Y-51400000D01*
X67120000Y-54500000D02*
X67120000Y-54210000D01*
X109400000Y-87300000D02*
X109200000Y-87500000D01*
X109200000Y-88789762D02*
X109200000Y-87500000D01*
X111500000Y-97600000D02*
X109200000Y-95300000D01*
X109200000Y-95300000D02*
X109200000Y-88789762D01*
X117800000Y-97600000D02*
X111500000Y-97600000D01*
X111300000Y-84200000D02*
X111800000Y-83700000D01*
X107600000Y-83800000D02*
X107600000Y-83700000D01*
X72950000Y-73900000D02*
X74000000Y-73900000D01*
X86908719Y-61816499D02*
X91456499Y-61816499D01*
X84862609Y-63862609D02*
X86908719Y-61816499D01*
X80437391Y-63862609D02*
X84862609Y-63862609D01*
X79250010Y-65049990D02*
X80437391Y-63862609D01*
X79250010Y-69849990D02*
X79250010Y-65049990D01*
X75200000Y-73900000D02*
X79250010Y-69849990D01*
X91456499Y-61816499D02*
X95020000Y-65380000D01*
X72950000Y-73900000D02*
X75200000Y-73900000D01*
X74000000Y-73100000D02*
X72950000Y-73100000D01*
X77600000Y-61200000D02*
X77600000Y-69600000D01*
X73600000Y-73100000D02*
X73400001Y-73299999D01*
X80000000Y-58800000D02*
X77600000Y-61200000D01*
X89992172Y-58800000D02*
X80000000Y-58800000D01*
X74100000Y-73100000D02*
X73600000Y-73100000D01*
X94032172Y-62840000D02*
X89992172Y-58800000D01*
X77600000Y-69600000D02*
X74100000Y-73100000D01*
X95020000Y-62840000D02*
X94032172Y-62840000D01*
X82660000Y-57000000D02*
X82700000Y-56960000D01*
X78800000Y-57000000D02*
X82660000Y-57000000D01*
X72950000Y-74700000D02*
X74700000Y-74700000D01*
X75099999Y-70400001D02*
X74700000Y-70800000D01*
X76000000Y-59800000D02*
X76000000Y-69500000D01*
X76000000Y-69500000D02*
X75099999Y-70400001D01*
X78800000Y-57000000D02*
X76000000Y-59800000D01*
X65840000Y-76090000D02*
X65900000Y-76150000D01*
X59920000Y-76150000D02*
X59780000Y-76290000D01*
X65900000Y-76150000D02*
X59920000Y-76150000D01*
X60730000Y-74700000D02*
X59780000Y-73750000D01*
X64450000Y-74700000D02*
X60730000Y-74700000D01*
X70700000Y-77200000D02*
X71500000Y-78000000D01*
X70700000Y-76150000D02*
X70700000Y-77200000D01*
X77537500Y-78000000D02*
X78700000Y-79162500D01*
X71500000Y-78000000D02*
X77537500Y-78000000D01*
X81512500Y-79162500D02*
X82800000Y-80450000D01*
X78700000Y-79162500D02*
X81512500Y-79162500D01*
X71500000Y-77200000D02*
X71800000Y-77500000D01*
X71500000Y-76150000D02*
X71500000Y-77200000D01*
X78037500Y-77500000D02*
X78700000Y-76837500D01*
X71800000Y-77500000D02*
X78037500Y-77500000D01*
X79862500Y-76837500D02*
X78700000Y-76837500D01*
X81750000Y-74950000D02*
X79862500Y-76837500D01*
X82800000Y-74950000D02*
X81750000Y-74950000D01*
D43*
X105160000Y-58600000D02*
X105720000Y-59160000D01*
X100400000Y-58600000D02*
X105160000Y-58600000D01*
X100400000Y-62600000D02*
X100400000Y-58600000D01*
D42*
X76382500Y-89337500D02*
X76070000Y-89025000D01*
X78512500Y-89025000D02*
X79400000Y-88137500D01*
X76070000Y-89025000D02*
X78512500Y-89025000D01*
X64300001Y-72400000D02*
X64600000Y-72100001D01*
X56962500Y-62937500D02*
X54500000Y-65400000D01*
X56962500Y-58900000D02*
X56962500Y-62937500D01*
X54500000Y-71900000D02*
X54500000Y-65400000D01*
X57200000Y-72400000D02*
X64300001Y-72400000D01*
X57000000Y-72400000D02*
X57200000Y-72400000D01*
X55000000Y-72400000D02*
X57200000Y-72400000D01*
X54500000Y-71900000D02*
X55000000Y-72400000D01*
X60400000Y-56800000D02*
X58600000Y-56800000D01*
X56962500Y-58437500D02*
X56962500Y-58900000D01*
X62040000Y-55160000D02*
X60400000Y-56800000D01*
X58600000Y-56800000D02*
X56962500Y-58437500D01*
X62040000Y-54500000D02*
X62040000Y-55160000D01*
X72950000Y-55250000D02*
X72200000Y-54500000D01*
X72950000Y-69100000D02*
X72950000Y-55250000D01*
X87320000Y-55300000D02*
X87400000Y-55220000D01*
X82700000Y-50520000D02*
X82700000Y-46800000D01*
X87400000Y-55220000D02*
X82700000Y-50520000D01*
X76070000Y-91565000D02*
X71120000Y-91565000D01*
X69800000Y-91500000D02*
X71055000Y-91500000D01*
X71055000Y-91500000D02*
X71120000Y-91565000D01*
X69537500Y-91237500D02*
X69800000Y-91500000D01*
X68500000Y-91237500D02*
X69537500Y-91237500D01*
X69905000Y-90295000D02*
X68962500Y-91237500D01*
X68962500Y-91237500D02*
X68500000Y-91237500D01*
X71120000Y-90295000D02*
X69905000Y-90295000D01*
X71120000Y-87577500D02*
X71120000Y-87755000D01*
X73500000Y-85197500D02*
X71120000Y-87577500D01*
X76100000Y-85197500D02*
X73500000Y-85197500D01*
X66700000Y-77200000D02*
X66700000Y-76150000D01*
X54400000Y-85000000D02*
X54400000Y-82600000D01*
D43*
X104800762Y-55160000D02*
X105720000Y-55160000D01*
X103360762Y-56600000D02*
X104800762Y-55160000D01*
X97732172Y-56600000D02*
X103360762Y-56600000D01*
X95020000Y-60300000D02*
X95312172Y-60300000D01*
X96300000Y-59312172D02*
X96300000Y-58032172D01*
X96300000Y-58032172D02*
X97732172Y-56600000D01*
X95312172Y-60300000D02*
X96300000Y-59312172D01*
D42*
X64450000Y-71500000D02*
X66100000Y-71500000D01*
X68499999Y-76349999D02*
X68300000Y-76150000D01*
X69900000Y-77000000D02*
X69900000Y-76150000D01*
X68600000Y-77500000D02*
X69400000Y-77500000D01*
X69400000Y-77500000D02*
X69900000Y-77000000D01*
X50350000Y-91500000D02*
X56650000Y-91500000D01*
X70700000Y-67650000D02*
X70700000Y-65600000D01*
X50100000Y-91500000D02*
X50350000Y-91500000D01*
X59780000Y-71210000D02*
X61390000Y-71210000D01*
X62700000Y-69900000D02*
X62700000Y-66100000D01*
X61390000Y-71210000D02*
X62700000Y-69900000D01*
X70700000Y-65600000D02*
X70700000Y-64037500D01*
X62800000Y-65600000D02*
X62700000Y-65500000D01*
X66800000Y-65600000D02*
X62800000Y-65600000D01*
X56600000Y-91550000D02*
X56650000Y-91500000D01*
X68400000Y-77500000D02*
X68600000Y-77500000D01*
X68300000Y-77400000D02*
X68400000Y-77500000D01*
X68300000Y-76150000D02*
X68300000Y-77400000D01*
X69900000Y-72200000D02*
X70700000Y-71400000D01*
X70700000Y-71400000D02*
X70700000Y-67650000D01*
X69900000Y-76150000D02*
X69900000Y-72200000D01*
X61000000Y-85230000D02*
X59780000Y-86450000D01*
X63643491Y-78256509D02*
X62300000Y-79600000D01*
X66279901Y-78256509D02*
X63643491Y-78256509D01*
X62300000Y-79600000D02*
X62300000Y-83930000D01*
X67036410Y-77500000D02*
X66279901Y-78256509D01*
X62300000Y-83930000D02*
X61000000Y-85230000D01*
X68600000Y-77500000D02*
X67036410Y-77500000D01*
X62700000Y-62600000D02*
X62700000Y-66100000D01*
X62700000Y-66100000D02*
X62700000Y-65500000D01*
X59425000Y-58900000D02*
X58837500Y-58900000D01*
X60500000Y-58900000D02*
X59425000Y-58900000D01*
X62700000Y-61100000D02*
X60500000Y-58900000D01*
X62700000Y-62600000D02*
X62700000Y-61100000D01*
D43*
X104380000Y-54500000D02*
X105720000Y-53160000D01*
X100500000Y-54500000D02*
X104380000Y-54500000D01*
D42*
X122940000Y-52250000D02*
X125440000Y-52250000D01*
X113999999Y-59900001D02*
X113999999Y-58000001D01*
X113200000Y-60700000D02*
X113999999Y-59900001D01*
X113999999Y-58000001D02*
X115700000Y-56300000D01*
X118890000Y-56300000D02*
X122940000Y-52250000D01*
X115700000Y-56300000D02*
X118890000Y-56300000D01*
X112620000Y-70460000D02*
X114350000Y-68730000D01*
X95020000Y-70460000D02*
X112620000Y-70460000D01*
X113999999Y-61499999D02*
X113200000Y-60700000D01*
X114350000Y-68730000D02*
X125970000Y-68730000D01*
X128700000Y-64100000D02*
X126099999Y-61499999D01*
X128700000Y-66000000D02*
X128700000Y-64100000D01*
X125970000Y-68730000D02*
X128700000Y-66000000D01*
X126099999Y-61499999D02*
X113999999Y-61499999D01*
X104100000Y-68640000D02*
X104190000Y-68730000D01*
X104100000Y-64700000D02*
X104100000Y-68640000D01*
X93400000Y-60800000D02*
X93400000Y-56840000D01*
X96400000Y-62400000D02*
X95600000Y-61600000D01*
X94200000Y-61600000D02*
X93400000Y-60800000D01*
X96400000Y-63700000D02*
X96400000Y-62400000D01*
X112460000Y-62900000D02*
X103300000Y-62900000D01*
X101200000Y-65000000D02*
X97700000Y-65000000D01*
X95600000Y-61600000D02*
X94200000Y-61600000D01*
X103300000Y-62900000D02*
X101200000Y-65000000D01*
X93400000Y-56840000D02*
X95020000Y-55220000D01*
X97700000Y-65000000D02*
X96400000Y-63700000D01*
X114260000Y-64700000D02*
X112460000Y-62900000D01*
X98220000Y-44400000D02*
X98500000Y-44400000D01*
X95020000Y-47600000D02*
X98220000Y-44400000D01*
X98500000Y-44400000D02*
X112700000Y-44400000D01*
X112700000Y-44400000D02*
X113000000Y-44400000D01*
X115100000Y-44400000D02*
X115200000Y-44500000D01*
X112700000Y-44400000D02*
X115100000Y-44400000D01*
X118030000Y-54660000D02*
X118295000Y-54395000D01*
X115200000Y-54660000D02*
X118030000Y-54660000D01*
X118295000Y-54395000D02*
X120440000Y-52250000D01*
X118130000Y-54560000D02*
X118295000Y-54395000D01*
X120450000Y-80350000D02*
X120540000Y-80350000D01*
X111800000Y-84900000D02*
X111800000Y-83700000D01*
X109200000Y-87500000D02*
X111800000Y-84900000D01*
X107700000Y-73540000D02*
X111800000Y-73540000D01*
X94140000Y-77870000D02*
X95147001Y-76862999D01*
X99500000Y-76900000D02*
X99537001Y-76862999D01*
X107600000Y-73640000D02*
X107700000Y-73540000D01*
X100800000Y-87000000D02*
X98700000Y-84900000D01*
X98700000Y-76900000D02*
X98737001Y-76862999D01*
X98700000Y-84900000D02*
X98700000Y-76900000D01*
X98737001Y-76862999D02*
X99537001Y-76862999D01*
X95147001Y-76862999D02*
X98737001Y-76862999D01*
X104377001Y-76862999D02*
X107700000Y-73540000D01*
X99537001Y-76862999D02*
X104377001Y-76862999D01*
X107400000Y-83700000D02*
X107700000Y-83700000D01*
X104410000Y-80410000D02*
X107700000Y-83700000D01*
X102010000Y-80410000D02*
X104410000Y-80410000D01*
X100200000Y-88900000D02*
X98300000Y-87000000D01*
X102500000Y-88900000D02*
X100200000Y-88900000D01*
X107700000Y-83700000D02*
X102500000Y-88900000D01*
X124903590Y-80350000D02*
X125221795Y-80031795D01*
D44*
X52450000Y-96900000D02*
X52662500Y-96900000D01*
X50350000Y-94800000D02*
X52450000Y-96900000D01*
X50350000Y-93800000D02*
X50350000Y-94800000D01*
D42*
X61300000Y-82390000D02*
X59780000Y-83910000D01*
X61300000Y-80400000D02*
X61300000Y-82390000D01*
X58900000Y-79900000D02*
X60800000Y-79900000D01*
X58200000Y-80600000D02*
X58900000Y-79900000D01*
X53900000Y-80600000D02*
X58200000Y-80600000D01*
X52800000Y-79500000D02*
X53900000Y-80600000D01*
X52800000Y-57100000D02*
X52800000Y-79500000D01*
X60800000Y-79900000D02*
X61300000Y-80400000D01*
X57550000Y-52350000D02*
X52800000Y-57100000D01*
X66500000Y-77400000D02*
X66700000Y-77200000D01*
X56500000Y-77400000D02*
X66500000Y-77400000D01*
X55400000Y-78500000D02*
X56500000Y-77400000D01*
X54400000Y-78500000D02*
X55400000Y-78500000D01*
X59750000Y-86250000D02*
X59780000Y-86250000D01*
X56650000Y-89350000D02*
X59750000Y-86250000D01*
X56650000Y-91500000D02*
X56650000Y-89350000D01*
X56650000Y-93550000D02*
X56650000Y-91500000D01*
X59137500Y-96037500D02*
X56650000Y-93550000D01*
X59137500Y-96900000D02*
X59137500Y-96037500D01*
X120190000Y-66700000D02*
X120540000Y-66350000D01*
X106220000Y-66700000D02*
X120190000Y-66700000D01*
X104190000Y-68730000D02*
X106220000Y-66700000D01*
X121390000Y-64700000D02*
X123040000Y-66350000D01*
X114260000Y-64700000D02*
X121390000Y-64700000D01*
X123040000Y-66350000D02*
X125540000Y-66350000D01*
X113050000Y-77950000D02*
X102010000Y-77950000D01*
X118100000Y-83000000D02*
X113050000Y-77950000D01*
X122100000Y-83000000D02*
X118100000Y-83000000D01*
X123040000Y-82060000D02*
X122100000Y-83000000D01*
X123040000Y-80350000D02*
X123040000Y-82060000D01*
X88720000Y-67920000D02*
X87400000Y-67920000D01*
X92400000Y-71600000D02*
X88720000Y-67920000D01*
X120540000Y-80350000D02*
X119150000Y-80350000D01*
X119150000Y-80350000D02*
X114300000Y-75500000D01*
X113000000Y-71600000D02*
X112500000Y-71600000D01*
X114300000Y-72900000D02*
X113000000Y-71600000D01*
X114300000Y-75500000D02*
X114300000Y-72900000D01*
X112500000Y-71600000D02*
X92400000Y-71600000D01*
M02*
